G04 #@! TF.GenerationSoftware,KiCad,Pcbnew,(5.1.4)-1*
G04 #@! TF.CreationDate,2019-10-27T16:09:37+01:00*
G04 #@! TF.ProjectId,JCM800,4a434d38-3030-42e6-9b69-6361645f7063,rev?*
G04 #@! TF.SameCoordinates,Original*
G04 #@! TF.FileFunction,Soldermask,Top*
G04 #@! TF.FilePolarity,Negative*
%FSLAX46Y46*%
G04 Gerber Fmt 4.6, Leading zero omitted, Abs format (unit mm)*
G04 Created by KiCad (PCBNEW (5.1.4)-1) date 2019-10-27 16:09:37*
%MOMM*%
%LPD*%
G04 APERTURE LIST*
%ADD10C,0.100000*%
G04 APERTURE END LIST*
D10*
G36*
X197335496Y-127325922D02*
G01*
X197456153Y-127349922D01*
X197548194Y-127388047D01*
X197678359Y-127441963D01*
X197878342Y-127575587D01*
X198048413Y-127745658D01*
X198182037Y-127945641D01*
X198235953Y-128075806D01*
X198264137Y-128143847D01*
X198274078Y-128167848D01*
X198321000Y-128403741D01*
X198321000Y-128644259D01*
X198274078Y-128880152D01*
X198182037Y-129102359D01*
X198048413Y-129302342D01*
X197878342Y-129472413D01*
X197678359Y-129606037D01*
X197548194Y-129659953D01*
X197456153Y-129698078D01*
X197340915Y-129721000D01*
X197220259Y-129745000D01*
X196979741Y-129745000D01*
X196859085Y-129721000D01*
X196743847Y-129698078D01*
X196651806Y-129659953D01*
X196521641Y-129606037D01*
X196321658Y-129472413D01*
X196151587Y-129302342D01*
X196017963Y-129102359D01*
X195925922Y-128880152D01*
X195879000Y-128644259D01*
X195879000Y-128403741D01*
X195925922Y-128167848D01*
X195935864Y-128143847D01*
X195964047Y-128075806D01*
X196017963Y-127945641D01*
X196151587Y-127745658D01*
X196321658Y-127575587D01*
X196521641Y-127441963D01*
X196651806Y-127388047D01*
X196743847Y-127349922D01*
X196864504Y-127325922D01*
X196979741Y-127303000D01*
X197220259Y-127303000D01*
X197335496Y-127325922D01*
X197335496Y-127325922D01*
G37*
G36*
X202335496Y-127325922D02*
G01*
X202456153Y-127349922D01*
X202548194Y-127388047D01*
X202678359Y-127441963D01*
X202878342Y-127575587D01*
X203048413Y-127745658D01*
X203182037Y-127945641D01*
X203235953Y-128075806D01*
X203264137Y-128143847D01*
X203274078Y-128167848D01*
X203321000Y-128403741D01*
X203321000Y-128644259D01*
X203274078Y-128880152D01*
X203182037Y-129102359D01*
X203048413Y-129302342D01*
X202878342Y-129472413D01*
X202678359Y-129606037D01*
X202548194Y-129659953D01*
X202456153Y-129698078D01*
X202340915Y-129721000D01*
X202220259Y-129745000D01*
X201979741Y-129745000D01*
X201859085Y-129721000D01*
X201743847Y-129698078D01*
X201651806Y-129659953D01*
X201521641Y-129606037D01*
X201321658Y-129472413D01*
X201151587Y-129302342D01*
X201017963Y-129102359D01*
X200925922Y-128880152D01*
X200879000Y-128644259D01*
X200879000Y-128403741D01*
X200925922Y-128167848D01*
X200935864Y-128143847D01*
X200964047Y-128075806D01*
X201017963Y-127945641D01*
X201151587Y-127745658D01*
X201321658Y-127575587D01*
X201521641Y-127441963D01*
X201651806Y-127388047D01*
X201743847Y-127349922D01*
X201864504Y-127325922D01*
X201979741Y-127303000D01*
X202220259Y-127303000D01*
X202335496Y-127325922D01*
X202335496Y-127325922D01*
G37*
G36*
X207335496Y-127325922D02*
G01*
X207456153Y-127349922D01*
X207548194Y-127388047D01*
X207678359Y-127441963D01*
X207878342Y-127575587D01*
X208048413Y-127745658D01*
X208182037Y-127945641D01*
X208235953Y-128075806D01*
X208264137Y-128143847D01*
X208274078Y-128167848D01*
X208321000Y-128403741D01*
X208321000Y-128644259D01*
X208274078Y-128880152D01*
X208182037Y-129102359D01*
X208048413Y-129302342D01*
X207878342Y-129472413D01*
X207678359Y-129606037D01*
X207548194Y-129659953D01*
X207456153Y-129698078D01*
X207340915Y-129721000D01*
X207220259Y-129745000D01*
X206979741Y-129745000D01*
X206859085Y-129721000D01*
X206743847Y-129698078D01*
X206651806Y-129659953D01*
X206521641Y-129606037D01*
X206321658Y-129472413D01*
X206151587Y-129302342D01*
X206017963Y-129102359D01*
X205925922Y-128880152D01*
X205879000Y-128644259D01*
X205879000Y-128403741D01*
X205925922Y-128167848D01*
X205935864Y-128143847D01*
X205964047Y-128075806D01*
X206017963Y-127945641D01*
X206151587Y-127745658D01*
X206321658Y-127575587D01*
X206521641Y-127441963D01*
X206651806Y-127388047D01*
X206743847Y-127349922D01*
X206864504Y-127325922D01*
X206979741Y-127303000D01*
X207220259Y-127303000D01*
X207335496Y-127325922D01*
X207335496Y-127325922D01*
G37*
G36*
X118256153Y-127325922D02*
G01*
X118348194Y-127364047D01*
X118478359Y-127417963D01*
X118678342Y-127551587D01*
X118848413Y-127721658D01*
X118982037Y-127921641D01*
X118991978Y-127945641D01*
X119074078Y-128143847D01*
X119121000Y-128379742D01*
X119121000Y-128620258D01*
X119074078Y-128856153D01*
X119035953Y-128948194D01*
X118982037Y-129078359D01*
X118848413Y-129278342D01*
X118678342Y-129448413D01*
X118478359Y-129582037D01*
X118348194Y-129635953D01*
X118256153Y-129674078D01*
X118138205Y-129697539D01*
X118020259Y-129721000D01*
X117779741Y-129721000D01*
X117661795Y-129697539D01*
X117543847Y-129674078D01*
X117451806Y-129635953D01*
X117321641Y-129582037D01*
X117121658Y-129448413D01*
X116951587Y-129278342D01*
X116817963Y-129078359D01*
X116764047Y-128948194D01*
X116725922Y-128856153D01*
X116679000Y-128620258D01*
X116679000Y-128379742D01*
X116725922Y-128143847D01*
X116808022Y-127945641D01*
X116817963Y-127921641D01*
X116951587Y-127721658D01*
X117121658Y-127551587D01*
X117321641Y-127417963D01*
X117451806Y-127364047D01*
X117543847Y-127325922D01*
X117779741Y-127279000D01*
X118020259Y-127279000D01*
X118256153Y-127325922D01*
X118256153Y-127325922D01*
G37*
G36*
X113256153Y-127325922D02*
G01*
X113348194Y-127364047D01*
X113478359Y-127417963D01*
X113678342Y-127551587D01*
X113848413Y-127721658D01*
X113982037Y-127921641D01*
X113991978Y-127945641D01*
X114074078Y-128143847D01*
X114121000Y-128379742D01*
X114121000Y-128620258D01*
X114074078Y-128856153D01*
X114035953Y-128948194D01*
X113982037Y-129078359D01*
X113848413Y-129278342D01*
X113678342Y-129448413D01*
X113478359Y-129582037D01*
X113348194Y-129635953D01*
X113256153Y-129674078D01*
X113138205Y-129697539D01*
X113020259Y-129721000D01*
X112779741Y-129721000D01*
X112661795Y-129697539D01*
X112543847Y-129674078D01*
X112451806Y-129635953D01*
X112321641Y-129582037D01*
X112121658Y-129448413D01*
X111951587Y-129278342D01*
X111817963Y-129078359D01*
X111764047Y-128948194D01*
X111725922Y-128856153D01*
X111679000Y-128620258D01*
X111679000Y-128379742D01*
X111725922Y-128143847D01*
X111808022Y-127945641D01*
X111817963Y-127921641D01*
X111951587Y-127721658D01*
X112121658Y-127551587D01*
X112321641Y-127417963D01*
X112451806Y-127364047D01*
X112543847Y-127325922D01*
X112779741Y-127279000D01*
X113020259Y-127279000D01*
X113256153Y-127325922D01*
X113256153Y-127325922D01*
G37*
G36*
X123256153Y-127325922D02*
G01*
X123348194Y-127364047D01*
X123478359Y-127417963D01*
X123678342Y-127551587D01*
X123848413Y-127721658D01*
X123982037Y-127921641D01*
X123991978Y-127945641D01*
X124074078Y-128143847D01*
X124121000Y-128379742D01*
X124121000Y-128620258D01*
X124074078Y-128856153D01*
X124035953Y-128948194D01*
X123982037Y-129078359D01*
X123848413Y-129278342D01*
X123678342Y-129448413D01*
X123478359Y-129582037D01*
X123348194Y-129635953D01*
X123256153Y-129674078D01*
X123138205Y-129697539D01*
X123020259Y-129721000D01*
X122779741Y-129721000D01*
X122661795Y-129697539D01*
X122543847Y-129674078D01*
X122451806Y-129635953D01*
X122321641Y-129582037D01*
X122121658Y-129448413D01*
X121951587Y-129278342D01*
X121817963Y-129078359D01*
X121764047Y-128948194D01*
X121725922Y-128856153D01*
X121679000Y-128620258D01*
X121679000Y-128379742D01*
X121725922Y-128143847D01*
X121808022Y-127945641D01*
X121817963Y-127921641D01*
X121951587Y-127721658D01*
X122121658Y-127551587D01*
X122321641Y-127417963D01*
X122451806Y-127364047D01*
X122543847Y-127325922D01*
X122779741Y-127279000D01*
X123020259Y-127279000D01*
X123256153Y-127325922D01*
X123256153Y-127325922D01*
G37*
G36*
X235256153Y-127325922D02*
G01*
X235348194Y-127364047D01*
X235478359Y-127417963D01*
X235678342Y-127551587D01*
X235848413Y-127721658D01*
X235982037Y-127921641D01*
X235991978Y-127945641D01*
X236074078Y-128143847D01*
X236121000Y-128379742D01*
X236121000Y-128620258D01*
X236074078Y-128856153D01*
X236035953Y-128948194D01*
X235982037Y-129078359D01*
X235848413Y-129278342D01*
X235678342Y-129448413D01*
X235478359Y-129582037D01*
X235348194Y-129635953D01*
X235256153Y-129674078D01*
X235138205Y-129697539D01*
X235020259Y-129721000D01*
X234779741Y-129721000D01*
X234661795Y-129697539D01*
X234543847Y-129674078D01*
X234451806Y-129635953D01*
X234321641Y-129582037D01*
X234121658Y-129448413D01*
X233951587Y-129278342D01*
X233817963Y-129078359D01*
X233764047Y-128948194D01*
X233725922Y-128856153D01*
X233679000Y-128620258D01*
X233679000Y-128379742D01*
X233725922Y-128143847D01*
X233808022Y-127945641D01*
X233817963Y-127921641D01*
X233951587Y-127721658D01*
X234121658Y-127551587D01*
X234321641Y-127417963D01*
X234451806Y-127364047D01*
X234543847Y-127325922D01*
X234779741Y-127279000D01*
X235020259Y-127279000D01*
X235256153Y-127325922D01*
X235256153Y-127325922D01*
G37*
G36*
X169266153Y-127325922D02*
G01*
X169358194Y-127364047D01*
X169488359Y-127417963D01*
X169688342Y-127551587D01*
X169858413Y-127721658D01*
X169992037Y-127921641D01*
X170001978Y-127945641D01*
X170084078Y-128143847D01*
X170131000Y-128379742D01*
X170131000Y-128620258D01*
X170084078Y-128856153D01*
X170045953Y-128948194D01*
X169992037Y-129078359D01*
X169858413Y-129278342D01*
X169688342Y-129448413D01*
X169488359Y-129582037D01*
X169358194Y-129635953D01*
X169266153Y-129674078D01*
X169148205Y-129697539D01*
X169030259Y-129721000D01*
X168789741Y-129721000D01*
X168671795Y-129697539D01*
X168553847Y-129674078D01*
X168461806Y-129635953D01*
X168331641Y-129582037D01*
X168131658Y-129448413D01*
X167961587Y-129278342D01*
X167827963Y-129078359D01*
X167774047Y-128948194D01*
X167735922Y-128856153D01*
X167689000Y-128620258D01*
X167689000Y-128379742D01*
X167735922Y-128143847D01*
X167818022Y-127945641D01*
X167827963Y-127921641D01*
X167961587Y-127721658D01*
X168131658Y-127551587D01*
X168331641Y-127417963D01*
X168461806Y-127364047D01*
X168553847Y-127325922D01*
X168789741Y-127279000D01*
X169030259Y-127279000D01*
X169266153Y-127325922D01*
X169266153Y-127325922D01*
G37*
G36*
X174266153Y-127325922D02*
G01*
X174358194Y-127364047D01*
X174488359Y-127417963D01*
X174688342Y-127551587D01*
X174858413Y-127721658D01*
X174992037Y-127921641D01*
X175001978Y-127945641D01*
X175084078Y-128143847D01*
X175131000Y-128379742D01*
X175131000Y-128620258D01*
X175084078Y-128856153D01*
X175045953Y-128948194D01*
X174992037Y-129078359D01*
X174858413Y-129278342D01*
X174688342Y-129448413D01*
X174488359Y-129582037D01*
X174358194Y-129635953D01*
X174266153Y-129674078D01*
X174148205Y-129697539D01*
X174030259Y-129721000D01*
X173789741Y-129721000D01*
X173671795Y-129697539D01*
X173553847Y-129674078D01*
X173461806Y-129635953D01*
X173331641Y-129582037D01*
X173131658Y-129448413D01*
X172961587Y-129278342D01*
X172827963Y-129078359D01*
X172774047Y-128948194D01*
X172735922Y-128856153D01*
X172689000Y-128620258D01*
X172689000Y-128379742D01*
X172735922Y-128143847D01*
X172818022Y-127945641D01*
X172827963Y-127921641D01*
X172961587Y-127721658D01*
X173131658Y-127551587D01*
X173331641Y-127417963D01*
X173461806Y-127364047D01*
X173553847Y-127325922D01*
X173789741Y-127279000D01*
X174030259Y-127279000D01*
X174266153Y-127325922D01*
X174266153Y-127325922D01*
G37*
G36*
X141256153Y-127325922D02*
G01*
X141348194Y-127364047D01*
X141478359Y-127417963D01*
X141678342Y-127551587D01*
X141848413Y-127721658D01*
X141982037Y-127921641D01*
X141991978Y-127945641D01*
X142074078Y-128143847D01*
X142121000Y-128379742D01*
X142121000Y-128620258D01*
X142074078Y-128856153D01*
X142035953Y-128948194D01*
X141982037Y-129078359D01*
X141848413Y-129278342D01*
X141678342Y-129448413D01*
X141478359Y-129582037D01*
X141348194Y-129635953D01*
X141256153Y-129674078D01*
X141138205Y-129697539D01*
X141020259Y-129721000D01*
X140779741Y-129721000D01*
X140661795Y-129697539D01*
X140543847Y-129674078D01*
X140451806Y-129635953D01*
X140321641Y-129582037D01*
X140121658Y-129448413D01*
X139951587Y-129278342D01*
X139817963Y-129078359D01*
X139764047Y-128948194D01*
X139725922Y-128856153D01*
X139679000Y-128620258D01*
X139679000Y-128379742D01*
X139725922Y-128143847D01*
X139808022Y-127945641D01*
X139817963Y-127921641D01*
X139951587Y-127721658D01*
X140121658Y-127551587D01*
X140321641Y-127417963D01*
X140451806Y-127364047D01*
X140543847Y-127325922D01*
X140779741Y-127279000D01*
X141020259Y-127279000D01*
X141256153Y-127325922D01*
X141256153Y-127325922D01*
G37*
G36*
X146256153Y-127325922D02*
G01*
X146348194Y-127364047D01*
X146478359Y-127417963D01*
X146678342Y-127551587D01*
X146848413Y-127721658D01*
X146982037Y-127921641D01*
X146991978Y-127945641D01*
X147074078Y-128143847D01*
X147121000Y-128379742D01*
X147121000Y-128620258D01*
X147074078Y-128856153D01*
X147035953Y-128948194D01*
X146982037Y-129078359D01*
X146848413Y-129278342D01*
X146678342Y-129448413D01*
X146478359Y-129582037D01*
X146348194Y-129635953D01*
X146256153Y-129674078D01*
X146138205Y-129697539D01*
X146020259Y-129721000D01*
X145779741Y-129721000D01*
X145661795Y-129697539D01*
X145543847Y-129674078D01*
X145451806Y-129635953D01*
X145321641Y-129582037D01*
X145121658Y-129448413D01*
X144951587Y-129278342D01*
X144817963Y-129078359D01*
X144764047Y-128948194D01*
X144725922Y-128856153D01*
X144679000Y-128620258D01*
X144679000Y-128379742D01*
X144725922Y-128143847D01*
X144808022Y-127945641D01*
X144817963Y-127921641D01*
X144951587Y-127721658D01*
X145121658Y-127551587D01*
X145321641Y-127417963D01*
X145451806Y-127364047D01*
X145543847Y-127325922D01*
X145779741Y-127279000D01*
X146020259Y-127279000D01*
X146256153Y-127325922D01*
X146256153Y-127325922D01*
G37*
G36*
X151256153Y-127325922D02*
G01*
X151348194Y-127364047D01*
X151478359Y-127417963D01*
X151678342Y-127551587D01*
X151848413Y-127721658D01*
X151982037Y-127921641D01*
X151991978Y-127945641D01*
X152074078Y-128143847D01*
X152121000Y-128379742D01*
X152121000Y-128620258D01*
X152074078Y-128856153D01*
X152035953Y-128948194D01*
X151982037Y-129078359D01*
X151848413Y-129278342D01*
X151678342Y-129448413D01*
X151478359Y-129582037D01*
X151348194Y-129635953D01*
X151256153Y-129674078D01*
X151138205Y-129697539D01*
X151020259Y-129721000D01*
X150779741Y-129721000D01*
X150661795Y-129697539D01*
X150543847Y-129674078D01*
X150451806Y-129635953D01*
X150321641Y-129582037D01*
X150121658Y-129448413D01*
X149951587Y-129278342D01*
X149817963Y-129078359D01*
X149764047Y-128948194D01*
X149725922Y-128856153D01*
X149679000Y-128620258D01*
X149679000Y-128379742D01*
X149725922Y-128143847D01*
X149808022Y-127945641D01*
X149817963Y-127921641D01*
X149951587Y-127721658D01*
X150121658Y-127551587D01*
X150321641Y-127417963D01*
X150451806Y-127364047D01*
X150543847Y-127325922D01*
X150779741Y-127279000D01*
X151020259Y-127279000D01*
X151256153Y-127325922D01*
X151256153Y-127325922D01*
G37*
G36*
X225256153Y-127325922D02*
G01*
X225348194Y-127364047D01*
X225478359Y-127417963D01*
X225678342Y-127551587D01*
X225848413Y-127721658D01*
X225982037Y-127921641D01*
X225991978Y-127945641D01*
X226074078Y-128143847D01*
X226121000Y-128379742D01*
X226121000Y-128620258D01*
X226074078Y-128856153D01*
X226035953Y-128948194D01*
X225982037Y-129078359D01*
X225848413Y-129278342D01*
X225678342Y-129448413D01*
X225478359Y-129582037D01*
X225348194Y-129635953D01*
X225256153Y-129674078D01*
X225138205Y-129697539D01*
X225020259Y-129721000D01*
X224779741Y-129721000D01*
X224661795Y-129697539D01*
X224543847Y-129674078D01*
X224451806Y-129635953D01*
X224321641Y-129582037D01*
X224121658Y-129448413D01*
X223951587Y-129278342D01*
X223817963Y-129078359D01*
X223764047Y-128948194D01*
X223725922Y-128856153D01*
X223679000Y-128620258D01*
X223679000Y-128379742D01*
X223725922Y-128143847D01*
X223808022Y-127945641D01*
X223817963Y-127921641D01*
X223951587Y-127721658D01*
X224121658Y-127551587D01*
X224321641Y-127417963D01*
X224451806Y-127364047D01*
X224543847Y-127325922D01*
X224779741Y-127279000D01*
X225020259Y-127279000D01*
X225256153Y-127325922D01*
X225256153Y-127325922D01*
G37*
G36*
X230256153Y-127325922D02*
G01*
X230348194Y-127364047D01*
X230478359Y-127417963D01*
X230678342Y-127551587D01*
X230848413Y-127721658D01*
X230982037Y-127921641D01*
X230991978Y-127945641D01*
X231074078Y-128143847D01*
X231121000Y-128379742D01*
X231121000Y-128620258D01*
X231074078Y-128856153D01*
X231035953Y-128948194D01*
X230982037Y-129078359D01*
X230848413Y-129278342D01*
X230678342Y-129448413D01*
X230478359Y-129582037D01*
X230348194Y-129635953D01*
X230256153Y-129674078D01*
X230138205Y-129697539D01*
X230020259Y-129721000D01*
X229779741Y-129721000D01*
X229661795Y-129697539D01*
X229543847Y-129674078D01*
X229451806Y-129635953D01*
X229321641Y-129582037D01*
X229121658Y-129448413D01*
X228951587Y-129278342D01*
X228817963Y-129078359D01*
X228764047Y-128948194D01*
X228725922Y-128856153D01*
X228679000Y-128620258D01*
X228679000Y-128379742D01*
X228725922Y-128143847D01*
X228808022Y-127945641D01*
X228817963Y-127921641D01*
X228951587Y-127721658D01*
X229121658Y-127551587D01*
X229321641Y-127417963D01*
X229451806Y-127364047D01*
X229543847Y-127325922D01*
X229779741Y-127279000D01*
X230020259Y-127279000D01*
X230256153Y-127325922D01*
X230256153Y-127325922D01*
G37*
G36*
X179266153Y-127325922D02*
G01*
X179358194Y-127364047D01*
X179488359Y-127417963D01*
X179688342Y-127551587D01*
X179858413Y-127721658D01*
X179992037Y-127921641D01*
X180001978Y-127945641D01*
X180084078Y-128143847D01*
X180131000Y-128379742D01*
X180131000Y-128620258D01*
X180084078Y-128856153D01*
X180045953Y-128948194D01*
X179992037Y-129078359D01*
X179858413Y-129278342D01*
X179688342Y-129448413D01*
X179488359Y-129582037D01*
X179358194Y-129635953D01*
X179266153Y-129674078D01*
X179148205Y-129697539D01*
X179030259Y-129721000D01*
X178789741Y-129721000D01*
X178671795Y-129697539D01*
X178553847Y-129674078D01*
X178461806Y-129635953D01*
X178331641Y-129582037D01*
X178131658Y-129448413D01*
X177961587Y-129278342D01*
X177827963Y-129078359D01*
X177774047Y-128948194D01*
X177735922Y-128856153D01*
X177689000Y-128620258D01*
X177689000Y-128379742D01*
X177735922Y-128143847D01*
X177818022Y-127945641D01*
X177827963Y-127921641D01*
X177961587Y-127721658D01*
X178131658Y-127551587D01*
X178331641Y-127417963D01*
X178461806Y-127364047D01*
X178553847Y-127325922D01*
X178789741Y-127279000D01*
X179030259Y-127279000D01*
X179266153Y-127325922D01*
X179266153Y-127325922D01*
G37*
G36*
X96512585Y-125778802D02*
G01*
X96662410Y-125808604D01*
X96944674Y-125925521D01*
X97198705Y-126095259D01*
X97414741Y-126311295D01*
X97584479Y-126565326D01*
X97701396Y-126847590D01*
X97761000Y-127147240D01*
X97761000Y-127452760D01*
X97701396Y-127752410D01*
X97584479Y-128034674D01*
X97414741Y-128288705D01*
X97198705Y-128504741D01*
X96944674Y-128674479D01*
X96662410Y-128791396D01*
X96512585Y-128821198D01*
X96362761Y-128851000D01*
X96057239Y-128851000D01*
X95907415Y-128821198D01*
X95757590Y-128791396D01*
X95475326Y-128674479D01*
X95221295Y-128504741D01*
X95005259Y-128288705D01*
X94835521Y-128034674D01*
X94718604Y-127752410D01*
X94659000Y-127452760D01*
X94659000Y-127147240D01*
X94718604Y-126847590D01*
X94835521Y-126565326D01*
X95005259Y-126311295D01*
X95221295Y-126095259D01*
X95475326Y-125925521D01*
X95757590Y-125808604D01*
X95907415Y-125778802D01*
X96057239Y-125749000D01*
X96362761Y-125749000D01*
X96512585Y-125778802D01*
X96512585Y-125778802D01*
G37*
G36*
X80112585Y-125778802D02*
G01*
X80262410Y-125808604D01*
X80544674Y-125925521D01*
X80798705Y-126095259D01*
X81014741Y-126311295D01*
X81184479Y-126565326D01*
X81301396Y-126847590D01*
X81361000Y-127147240D01*
X81361000Y-127452760D01*
X81301396Y-127752410D01*
X81184479Y-128034674D01*
X81014741Y-128288705D01*
X80798705Y-128504741D01*
X80544674Y-128674479D01*
X80262410Y-128791396D01*
X80112585Y-128821198D01*
X79962761Y-128851000D01*
X79657239Y-128851000D01*
X79507415Y-128821198D01*
X79357590Y-128791396D01*
X79075326Y-128674479D01*
X78821295Y-128504741D01*
X78605259Y-128288705D01*
X78435521Y-128034674D01*
X78318604Y-127752410D01*
X78259000Y-127452760D01*
X78259000Y-127147240D01*
X78318604Y-126847590D01*
X78435521Y-126565326D01*
X78605259Y-126311295D01*
X78821295Y-126095259D01*
X79075326Y-125925521D01*
X79357590Y-125808604D01*
X79507415Y-125778802D01*
X79657239Y-125749000D01*
X79962761Y-125749000D01*
X80112585Y-125778802D01*
X80112585Y-125778802D01*
G37*
G36*
X66302585Y-125778802D02*
G01*
X66452410Y-125808604D01*
X66734674Y-125925521D01*
X66988705Y-126095259D01*
X67204741Y-126311295D01*
X67374479Y-126565326D01*
X67491396Y-126847590D01*
X67551000Y-127147240D01*
X67551000Y-127452760D01*
X67491396Y-127752410D01*
X67374479Y-128034674D01*
X67204741Y-128288705D01*
X66988705Y-128504741D01*
X66734674Y-128674479D01*
X66452410Y-128791396D01*
X66302585Y-128821198D01*
X66152761Y-128851000D01*
X65847239Y-128851000D01*
X65697415Y-128821198D01*
X65547590Y-128791396D01*
X65265326Y-128674479D01*
X65011295Y-128504741D01*
X64795259Y-128288705D01*
X64625521Y-128034674D01*
X64508604Y-127752410D01*
X64449000Y-127452760D01*
X64449000Y-127147240D01*
X64508604Y-126847590D01*
X64625521Y-126565326D01*
X64795259Y-126311295D01*
X65011295Y-126095259D01*
X65265326Y-125925521D01*
X65547590Y-125808604D01*
X65697415Y-125778802D01*
X65847239Y-125749000D01*
X66152761Y-125749000D01*
X66302585Y-125778802D01*
X66302585Y-125778802D01*
G37*
G36*
X50102585Y-125778802D02*
G01*
X50252410Y-125808604D01*
X50534674Y-125925521D01*
X50788705Y-126095259D01*
X51004741Y-126311295D01*
X51174479Y-126565326D01*
X51291396Y-126847590D01*
X51351000Y-127147240D01*
X51351000Y-127452760D01*
X51291396Y-127752410D01*
X51174479Y-128034674D01*
X51004741Y-128288705D01*
X50788705Y-128504741D01*
X50534674Y-128674479D01*
X50252410Y-128791396D01*
X50102585Y-128821198D01*
X49952761Y-128851000D01*
X49647239Y-128851000D01*
X49497415Y-128821198D01*
X49347590Y-128791396D01*
X49065326Y-128674479D01*
X48811295Y-128504741D01*
X48595259Y-128288705D01*
X48425521Y-128034674D01*
X48308604Y-127752410D01*
X48249000Y-127452760D01*
X48249000Y-127147240D01*
X48308604Y-126847590D01*
X48425521Y-126565326D01*
X48595259Y-126311295D01*
X48811295Y-126095259D01*
X49065326Y-125925521D01*
X49347590Y-125808604D01*
X49497415Y-125778802D01*
X49647239Y-125749000D01*
X49952761Y-125749000D01*
X50102585Y-125778802D01*
X50102585Y-125778802D01*
G37*
G36*
X73400228Y-123641703D02*
G01*
X73555100Y-123705853D01*
X73694481Y-123798985D01*
X73813015Y-123917519D01*
X73906147Y-124056900D01*
X73970297Y-124211772D01*
X74003000Y-124376184D01*
X74003000Y-124543816D01*
X73970297Y-124708228D01*
X73906147Y-124863100D01*
X73813015Y-125002481D01*
X73694481Y-125121015D01*
X73555100Y-125214147D01*
X73400228Y-125278297D01*
X73235816Y-125311000D01*
X73068184Y-125311000D01*
X72903772Y-125278297D01*
X72748900Y-125214147D01*
X72609519Y-125121015D01*
X72490985Y-125002481D01*
X72397853Y-124863100D01*
X72333703Y-124708228D01*
X72301000Y-124543816D01*
X72301000Y-124376184D01*
X72333703Y-124211772D01*
X72397853Y-124056900D01*
X72490985Y-123917519D01*
X72609519Y-123798985D01*
X72748900Y-123705853D01*
X72903772Y-123641703D01*
X73068184Y-123609000D01*
X73235816Y-123609000D01*
X73400228Y-123641703D01*
X73400228Y-123641703D01*
G37*
G36*
X50102585Y-119478802D02*
G01*
X50252410Y-119508604D01*
X50534674Y-119625521D01*
X50788705Y-119795259D01*
X51004741Y-120011295D01*
X51174479Y-120265326D01*
X51291396Y-120547590D01*
X51351000Y-120847240D01*
X51351000Y-121152760D01*
X51291396Y-121452410D01*
X51174479Y-121734674D01*
X51004741Y-121988705D01*
X50788705Y-122204741D01*
X50534674Y-122374479D01*
X50252410Y-122491396D01*
X50102585Y-122521198D01*
X49952761Y-122551000D01*
X49647239Y-122551000D01*
X49497415Y-122521198D01*
X49347590Y-122491396D01*
X49065326Y-122374479D01*
X48811295Y-122204741D01*
X48595259Y-121988705D01*
X48425521Y-121734674D01*
X48308604Y-121452410D01*
X48249000Y-121152760D01*
X48249000Y-120847240D01*
X48308604Y-120547590D01*
X48425521Y-120265326D01*
X48595259Y-120011295D01*
X48811295Y-119795259D01*
X49065326Y-119625521D01*
X49347590Y-119508604D01*
X49497415Y-119478802D01*
X49647239Y-119449000D01*
X49952761Y-119449000D01*
X50102585Y-119478802D01*
X50102585Y-119478802D01*
G37*
G36*
X80312585Y-119478802D02*
G01*
X80462410Y-119508604D01*
X80744674Y-119625521D01*
X80998705Y-119795259D01*
X81214741Y-120011295D01*
X81384479Y-120265326D01*
X81501396Y-120547590D01*
X81561000Y-120847240D01*
X81561000Y-121152760D01*
X81501396Y-121452410D01*
X81384479Y-121734674D01*
X81214741Y-121988705D01*
X80998705Y-122204741D01*
X80744674Y-122374479D01*
X80462410Y-122491396D01*
X80312585Y-122521198D01*
X80162761Y-122551000D01*
X79857239Y-122551000D01*
X79707415Y-122521198D01*
X79557590Y-122491396D01*
X79275326Y-122374479D01*
X79021295Y-122204741D01*
X78805259Y-121988705D01*
X78635521Y-121734674D01*
X78518604Y-121452410D01*
X78459000Y-121152760D01*
X78459000Y-120847240D01*
X78518604Y-120547590D01*
X78635521Y-120265326D01*
X78805259Y-120011295D01*
X79021295Y-119795259D01*
X79275326Y-119625521D01*
X79557590Y-119508604D01*
X79707415Y-119478802D01*
X79857239Y-119449000D01*
X80162761Y-119449000D01*
X80312585Y-119478802D01*
X80312585Y-119478802D01*
G37*
G36*
X96512585Y-119478802D02*
G01*
X96662410Y-119508604D01*
X96944674Y-119625521D01*
X97198705Y-119795259D01*
X97414741Y-120011295D01*
X97584479Y-120265326D01*
X97701396Y-120547590D01*
X97761000Y-120847240D01*
X97761000Y-121152760D01*
X97701396Y-121452410D01*
X97584479Y-121734674D01*
X97414741Y-121988705D01*
X97198705Y-122204741D01*
X96944674Y-122374479D01*
X96662410Y-122491396D01*
X96512585Y-122521198D01*
X96362761Y-122551000D01*
X96057239Y-122551000D01*
X95907415Y-122521198D01*
X95757590Y-122491396D01*
X95475326Y-122374479D01*
X95221295Y-122204741D01*
X95005259Y-121988705D01*
X94835521Y-121734674D01*
X94718604Y-121452410D01*
X94659000Y-121152760D01*
X94659000Y-120847240D01*
X94718604Y-120547590D01*
X94835521Y-120265326D01*
X95005259Y-120011295D01*
X95221295Y-119795259D01*
X95475326Y-119625521D01*
X95757590Y-119508604D01*
X95907415Y-119478802D01*
X96057239Y-119449000D01*
X96362761Y-119449000D01*
X96512585Y-119478802D01*
X96512585Y-119478802D01*
G37*
G36*
X66302585Y-119478802D02*
G01*
X66452410Y-119508604D01*
X66734674Y-119625521D01*
X66988705Y-119795259D01*
X67204741Y-120011295D01*
X67374479Y-120265326D01*
X67491396Y-120547590D01*
X67551000Y-120847240D01*
X67551000Y-121152760D01*
X67491396Y-121452410D01*
X67374479Y-121734674D01*
X67204741Y-121988705D01*
X66988705Y-122204741D01*
X66734674Y-122374479D01*
X66452410Y-122491396D01*
X66302585Y-122521198D01*
X66152761Y-122551000D01*
X65847239Y-122551000D01*
X65697415Y-122521198D01*
X65547590Y-122491396D01*
X65265326Y-122374479D01*
X65011295Y-122204741D01*
X64795259Y-121988705D01*
X64625521Y-121734674D01*
X64508604Y-121452410D01*
X64449000Y-121152760D01*
X64449000Y-120847240D01*
X64508604Y-120547590D01*
X64625521Y-120265326D01*
X64795259Y-120011295D01*
X65011295Y-119795259D01*
X65265326Y-119625521D01*
X65547590Y-119508604D01*
X65697415Y-119478802D01*
X65847239Y-119449000D01*
X66152761Y-119449000D01*
X66302585Y-119478802D01*
X66302585Y-119478802D01*
G37*
G36*
X214243228Y-116656703D02*
G01*
X214398100Y-116720853D01*
X214537481Y-116813985D01*
X214656015Y-116932519D01*
X214749147Y-117071900D01*
X214813297Y-117226772D01*
X214846000Y-117391184D01*
X214846000Y-117558816D01*
X214813297Y-117723228D01*
X214749147Y-117878100D01*
X214656015Y-118017481D01*
X214537481Y-118136015D01*
X214398100Y-118229147D01*
X214243228Y-118293297D01*
X214078816Y-118326000D01*
X213911184Y-118326000D01*
X213746772Y-118293297D01*
X213591900Y-118229147D01*
X213452519Y-118136015D01*
X213333985Y-118017481D01*
X213240853Y-117878100D01*
X213176703Y-117723228D01*
X213144000Y-117558816D01*
X213144000Y-117391184D01*
X213176703Y-117226772D01*
X213240853Y-117071900D01*
X213333985Y-116932519D01*
X213452519Y-116813985D01*
X213591900Y-116720853D01*
X213746772Y-116656703D01*
X213911184Y-116624000D01*
X214078816Y-116624000D01*
X214243228Y-116656703D01*
X214243228Y-116656703D01*
G37*
G36*
X50102585Y-113178802D02*
G01*
X50252410Y-113208604D01*
X50534674Y-113325521D01*
X50788705Y-113495259D01*
X51004741Y-113711295D01*
X51174479Y-113965326D01*
X51291396Y-114247590D01*
X51291396Y-114247591D01*
X51335005Y-114466825D01*
X51351000Y-114547240D01*
X51351000Y-114852760D01*
X51291396Y-115152410D01*
X51174479Y-115434674D01*
X51004741Y-115688705D01*
X50788705Y-115904741D01*
X50534674Y-116074479D01*
X50252410Y-116191396D01*
X50102585Y-116221198D01*
X49952761Y-116251000D01*
X49647239Y-116251000D01*
X49497415Y-116221198D01*
X49347590Y-116191396D01*
X49065326Y-116074479D01*
X48811295Y-115904741D01*
X48595259Y-115688705D01*
X48425521Y-115434674D01*
X48308604Y-115152410D01*
X48249000Y-114852760D01*
X48249000Y-114547240D01*
X48264996Y-114466825D01*
X48308604Y-114247591D01*
X48308604Y-114247590D01*
X48425521Y-113965326D01*
X48595259Y-113711295D01*
X48811295Y-113495259D01*
X49065326Y-113325521D01*
X49347590Y-113208604D01*
X49497415Y-113178802D01*
X49647239Y-113149000D01*
X49952761Y-113149000D01*
X50102585Y-113178802D01*
X50102585Y-113178802D01*
G37*
G36*
X80312585Y-113178802D02*
G01*
X80462410Y-113208604D01*
X80744674Y-113325521D01*
X80998705Y-113495259D01*
X81214741Y-113711295D01*
X81384479Y-113965326D01*
X81501396Y-114247590D01*
X81501396Y-114247591D01*
X81545005Y-114466825D01*
X81561000Y-114547240D01*
X81561000Y-114852760D01*
X81501396Y-115152410D01*
X81384479Y-115434674D01*
X81214741Y-115688705D01*
X80998705Y-115904741D01*
X80744674Y-116074479D01*
X80462410Y-116191396D01*
X80312585Y-116221198D01*
X80162761Y-116251000D01*
X79857239Y-116251000D01*
X79707415Y-116221198D01*
X79557590Y-116191396D01*
X79275326Y-116074479D01*
X79021295Y-115904741D01*
X78805259Y-115688705D01*
X78635521Y-115434674D01*
X78518604Y-115152410D01*
X78459000Y-114852760D01*
X78459000Y-114547240D01*
X78474996Y-114466825D01*
X78518604Y-114247591D01*
X78518604Y-114247590D01*
X78635521Y-113965326D01*
X78805259Y-113711295D01*
X79021295Y-113495259D01*
X79275326Y-113325521D01*
X79557590Y-113208604D01*
X79707415Y-113178802D01*
X79857239Y-113149000D01*
X80162761Y-113149000D01*
X80312585Y-113178802D01*
X80312585Y-113178802D01*
G37*
G36*
X96512585Y-113178802D02*
G01*
X96662410Y-113208604D01*
X96944674Y-113325521D01*
X97198705Y-113495259D01*
X97414741Y-113711295D01*
X97584479Y-113965326D01*
X97701396Y-114247590D01*
X97701396Y-114247591D01*
X97745005Y-114466825D01*
X97761000Y-114547240D01*
X97761000Y-114852760D01*
X97701396Y-115152410D01*
X97584479Y-115434674D01*
X97414741Y-115688705D01*
X97198705Y-115904741D01*
X96944674Y-116074479D01*
X96662410Y-116191396D01*
X96512585Y-116221198D01*
X96362761Y-116251000D01*
X96057239Y-116251000D01*
X95907415Y-116221198D01*
X95757590Y-116191396D01*
X95475326Y-116074479D01*
X95221295Y-115904741D01*
X95005259Y-115688705D01*
X94835521Y-115434674D01*
X94718604Y-115152410D01*
X94659000Y-114852760D01*
X94659000Y-114547240D01*
X94674996Y-114466825D01*
X94718604Y-114247591D01*
X94718604Y-114247590D01*
X94835521Y-113965326D01*
X95005259Y-113711295D01*
X95221295Y-113495259D01*
X95475326Y-113325521D01*
X95757590Y-113208604D01*
X95907415Y-113178802D01*
X96057239Y-113149000D01*
X96362761Y-113149000D01*
X96512585Y-113178802D01*
X96512585Y-113178802D01*
G37*
G36*
X66302585Y-113178802D02*
G01*
X66452410Y-113208604D01*
X66734674Y-113325521D01*
X66988705Y-113495259D01*
X67204741Y-113711295D01*
X67374479Y-113965326D01*
X67491396Y-114247590D01*
X67491396Y-114247591D01*
X67535005Y-114466825D01*
X67551000Y-114547240D01*
X67551000Y-114852760D01*
X67491396Y-115152410D01*
X67374479Y-115434674D01*
X67204741Y-115688705D01*
X66988705Y-115904741D01*
X66734674Y-116074479D01*
X66452410Y-116191396D01*
X66302585Y-116221198D01*
X66152761Y-116251000D01*
X65847239Y-116251000D01*
X65697415Y-116221198D01*
X65547590Y-116191396D01*
X65265326Y-116074479D01*
X65011295Y-115904741D01*
X64795259Y-115688705D01*
X64625521Y-115434674D01*
X64508604Y-115152410D01*
X64449000Y-114852760D01*
X64449000Y-114547240D01*
X64464996Y-114466825D01*
X64508604Y-114247591D01*
X64508604Y-114247590D01*
X64625521Y-113965326D01*
X64795259Y-113711295D01*
X65011295Y-113495259D01*
X65265326Y-113325521D01*
X65547590Y-113208604D01*
X65697415Y-113178802D01*
X65847239Y-113149000D01*
X66152761Y-113149000D01*
X66302585Y-113178802D01*
X66302585Y-113178802D01*
G37*
G36*
X161538228Y-114116703D02*
G01*
X161693100Y-114180853D01*
X161832481Y-114273985D01*
X161951015Y-114392519D01*
X162044147Y-114531900D01*
X162108297Y-114686772D01*
X162141000Y-114851184D01*
X162141000Y-115018816D01*
X162108297Y-115183228D01*
X162044147Y-115338100D01*
X161951015Y-115477481D01*
X161832481Y-115596015D01*
X161693100Y-115689147D01*
X161538228Y-115753297D01*
X161373816Y-115786000D01*
X161206184Y-115786000D01*
X161041772Y-115753297D01*
X160886900Y-115689147D01*
X160747519Y-115596015D01*
X160628985Y-115477481D01*
X160535853Y-115338100D01*
X160471703Y-115183228D01*
X160439000Y-115018816D01*
X160439000Y-114851184D01*
X160471703Y-114686772D01*
X160535853Y-114531900D01*
X160628985Y-114392519D01*
X160747519Y-114273985D01*
X160886900Y-114180853D01*
X161041772Y-114116703D01*
X161206184Y-114084000D01*
X161373816Y-114084000D01*
X161538228Y-114116703D01*
X161538228Y-114116703D01*
G37*
G36*
X73318823Y-113461313D02*
G01*
X73479242Y-113509976D01*
X73611906Y-113580886D01*
X73627078Y-113588996D01*
X73756659Y-113695341D01*
X73863004Y-113824922D01*
X73863005Y-113824924D01*
X73942024Y-113972758D01*
X73990687Y-114133177D01*
X74007117Y-114300000D01*
X73990687Y-114466823D01*
X73942024Y-114627242D01*
X73871114Y-114759906D01*
X73863004Y-114775078D01*
X73756659Y-114904659D01*
X73627078Y-115011004D01*
X73627076Y-115011005D01*
X73479242Y-115090024D01*
X73318823Y-115138687D01*
X73193804Y-115151000D01*
X73110196Y-115151000D01*
X72985177Y-115138687D01*
X72824758Y-115090024D01*
X72676924Y-115011005D01*
X72676922Y-115011004D01*
X72547341Y-114904659D01*
X72440996Y-114775078D01*
X72432886Y-114759906D01*
X72361976Y-114627242D01*
X72313313Y-114466823D01*
X72296883Y-114300000D01*
X72313313Y-114133177D01*
X72361976Y-113972758D01*
X72440995Y-113824924D01*
X72440996Y-113824922D01*
X72547341Y-113695341D01*
X72676922Y-113588996D01*
X72692094Y-113580886D01*
X72824758Y-113509976D01*
X72985177Y-113461313D01*
X73110196Y-113449000D01*
X73193804Y-113449000D01*
X73318823Y-113461313D01*
X73318823Y-113461313D01*
G37*
G36*
X141218228Y-112211703D02*
G01*
X141373100Y-112275853D01*
X141512481Y-112368985D01*
X141631015Y-112487519D01*
X141724147Y-112626900D01*
X141788297Y-112781772D01*
X141821000Y-112946184D01*
X141821000Y-113113816D01*
X141788297Y-113278228D01*
X141724147Y-113433100D01*
X141631015Y-113572481D01*
X141512481Y-113691015D01*
X141373100Y-113784147D01*
X141218228Y-113848297D01*
X141053816Y-113881000D01*
X140886184Y-113881000D01*
X140721772Y-113848297D01*
X140566900Y-113784147D01*
X140427519Y-113691015D01*
X140308985Y-113572481D01*
X140215853Y-113433100D01*
X140151703Y-113278228D01*
X140119000Y-113113816D01*
X140119000Y-112946184D01*
X140151703Y-112781772D01*
X140215853Y-112626900D01*
X140308985Y-112487519D01*
X140427519Y-112368985D01*
X140566900Y-112275853D01*
X140721772Y-112211703D01*
X140886184Y-112179000D01*
X141053816Y-112179000D01*
X141218228Y-112211703D01*
X141218228Y-112211703D01*
G37*
G36*
X151378228Y-112211703D02*
G01*
X151533100Y-112275853D01*
X151672481Y-112368985D01*
X151791015Y-112487519D01*
X151884147Y-112626900D01*
X151948297Y-112781772D01*
X151981000Y-112946184D01*
X151981000Y-113113816D01*
X151948297Y-113278228D01*
X151884147Y-113433100D01*
X151791015Y-113572481D01*
X151672481Y-113691015D01*
X151533100Y-113784147D01*
X151378228Y-113848297D01*
X151213816Y-113881000D01*
X151046184Y-113881000D01*
X150881772Y-113848297D01*
X150726900Y-113784147D01*
X150587519Y-113691015D01*
X150468985Y-113572481D01*
X150375853Y-113433100D01*
X150311703Y-113278228D01*
X150279000Y-113113816D01*
X150279000Y-112946184D01*
X150311703Y-112781772D01*
X150375853Y-112626900D01*
X150468985Y-112487519D01*
X150587519Y-112368985D01*
X150726900Y-112275853D01*
X150881772Y-112211703D01*
X151046184Y-112179000D01*
X151213816Y-112179000D01*
X151378228Y-112211703D01*
X151378228Y-112211703D01*
G37*
G36*
X171698228Y-112131703D02*
G01*
X171853100Y-112195853D01*
X171992481Y-112288985D01*
X172111015Y-112407519D01*
X172204147Y-112546900D01*
X172268297Y-112701772D01*
X172301000Y-112866184D01*
X172301000Y-113033816D01*
X172268297Y-113198228D01*
X172204147Y-113353100D01*
X172111015Y-113492481D01*
X171992481Y-113611015D01*
X171853100Y-113704147D01*
X171698228Y-113768297D01*
X171533816Y-113801000D01*
X171366184Y-113801000D01*
X171201772Y-113768297D01*
X171046900Y-113704147D01*
X170907519Y-113611015D01*
X170788985Y-113492481D01*
X170695853Y-113353100D01*
X170631703Y-113198228D01*
X170599000Y-113033816D01*
X170599000Y-112866184D01*
X170631703Y-112701772D01*
X170695853Y-112546900D01*
X170788985Y-112407519D01*
X170907519Y-112288985D01*
X171046900Y-112195853D01*
X171201772Y-112131703D01*
X171366184Y-112099000D01*
X171533816Y-112099000D01*
X171698228Y-112131703D01*
X171698228Y-112131703D01*
G37*
G36*
X232654903Y-110557075D02*
G01*
X232882571Y-110651378D01*
X233087466Y-110788285D01*
X233261715Y-110962534D01*
X233307412Y-111030924D01*
X233398623Y-111167431D01*
X233492925Y-111395097D01*
X233541000Y-111636786D01*
X233541000Y-111883214D01*
X233492925Y-112124903D01*
X233410334Y-112324297D01*
X233398622Y-112352571D01*
X233261715Y-112557466D01*
X233087466Y-112731715D01*
X232882571Y-112868622D01*
X232882570Y-112868623D01*
X232882569Y-112868623D01*
X232654903Y-112962925D01*
X232413214Y-113011000D01*
X232166786Y-113011000D01*
X231925097Y-112962925D01*
X231697431Y-112868623D01*
X231697430Y-112868623D01*
X231697429Y-112868622D01*
X231492534Y-112731715D01*
X231318285Y-112557466D01*
X231181378Y-112352571D01*
X231169667Y-112324297D01*
X231087075Y-112124903D01*
X231039000Y-111883214D01*
X231039000Y-111636786D01*
X231087075Y-111395097D01*
X231181377Y-111167431D01*
X231272588Y-111030924D01*
X231318285Y-110962534D01*
X231492534Y-110788285D01*
X231697429Y-110651378D01*
X231925097Y-110557075D01*
X232166786Y-110509000D01*
X232413214Y-110509000D01*
X232654903Y-110557075D01*
X232654903Y-110557075D01*
G37*
G36*
X226041000Y-113011000D02*
G01*
X223539000Y-113011000D01*
X223539000Y-110509000D01*
X226041000Y-110509000D01*
X226041000Y-113011000D01*
X226041000Y-113011000D01*
G37*
G36*
X201334823Y-110667313D02*
G01*
X201495242Y-110715976D01*
X201562361Y-110751852D01*
X201643078Y-110794996D01*
X201772659Y-110901341D01*
X201879004Y-111030922D01*
X201879005Y-111030924D01*
X201958024Y-111178758D01*
X202006687Y-111339177D01*
X202023117Y-111506000D01*
X202006687Y-111672823D01*
X201958024Y-111833242D01*
X201917477Y-111909100D01*
X201879004Y-111981078D01*
X201772659Y-112110659D01*
X201643078Y-112217004D01*
X201643076Y-112217005D01*
X201495242Y-112296024D01*
X201334823Y-112344687D01*
X201209804Y-112357000D01*
X201126196Y-112357000D01*
X201001177Y-112344687D01*
X200840758Y-112296024D01*
X200692924Y-112217005D01*
X200692922Y-112217004D01*
X200563341Y-112110659D01*
X200456996Y-111981078D01*
X200418523Y-111909100D01*
X200377976Y-111833242D01*
X200329313Y-111672823D01*
X200312883Y-111506000D01*
X200329313Y-111339177D01*
X200377976Y-111178758D01*
X200456995Y-111030924D01*
X200456996Y-111030922D01*
X200563341Y-110901341D01*
X200692922Y-110794996D01*
X200773639Y-110751852D01*
X200840758Y-110715976D01*
X201001177Y-110667313D01*
X201126196Y-110655000D01*
X201209804Y-110655000D01*
X201334823Y-110667313D01*
X201334823Y-110667313D01*
G37*
G36*
X191256228Y-110687703D02*
G01*
X191411100Y-110751853D01*
X191550481Y-110844985D01*
X191669015Y-110963519D01*
X191762147Y-111102900D01*
X191826297Y-111257772D01*
X191859000Y-111422184D01*
X191859000Y-111589816D01*
X191826297Y-111754228D01*
X191762147Y-111909100D01*
X191669015Y-112048481D01*
X191550481Y-112167015D01*
X191411100Y-112260147D01*
X191256228Y-112324297D01*
X191091816Y-112357000D01*
X190924184Y-112357000D01*
X190759772Y-112324297D01*
X190604900Y-112260147D01*
X190465519Y-112167015D01*
X190346985Y-112048481D01*
X190253853Y-111909100D01*
X190189703Y-111754228D01*
X190157000Y-111589816D01*
X190157000Y-111422184D01*
X190189703Y-111257772D01*
X190253853Y-111102900D01*
X190346985Y-110963519D01*
X190465519Y-110844985D01*
X190604900Y-110751853D01*
X190759772Y-110687703D01*
X190924184Y-110655000D01*
X191091816Y-110655000D01*
X191256228Y-110687703D01*
X191256228Y-110687703D01*
G37*
G36*
X141218228Y-107211703D02*
G01*
X141373100Y-107275853D01*
X141512481Y-107368985D01*
X141631015Y-107487519D01*
X141724147Y-107626900D01*
X141788297Y-107781772D01*
X141821000Y-107946184D01*
X141821000Y-108113816D01*
X141788297Y-108278228D01*
X141724147Y-108433100D01*
X141631015Y-108572481D01*
X141512481Y-108691015D01*
X141373100Y-108784147D01*
X141218228Y-108848297D01*
X141053816Y-108881000D01*
X140886184Y-108881000D01*
X140721772Y-108848297D01*
X140566900Y-108784147D01*
X140427519Y-108691015D01*
X140308985Y-108572481D01*
X140215853Y-108433100D01*
X140151703Y-108278228D01*
X140119000Y-108113816D01*
X140119000Y-107946184D01*
X140151703Y-107781772D01*
X140215853Y-107626900D01*
X140308985Y-107487519D01*
X140427519Y-107368985D01*
X140566900Y-107275853D01*
X140721772Y-107211703D01*
X140886184Y-107179000D01*
X141053816Y-107179000D01*
X141218228Y-107211703D01*
X141218228Y-107211703D01*
G37*
G36*
X151378228Y-107211703D02*
G01*
X151533100Y-107275853D01*
X151672481Y-107368985D01*
X151791015Y-107487519D01*
X151884147Y-107626900D01*
X151948297Y-107781772D01*
X151981000Y-107946184D01*
X151981000Y-108113816D01*
X151948297Y-108278228D01*
X151884147Y-108433100D01*
X151791015Y-108572481D01*
X151672481Y-108691015D01*
X151533100Y-108784147D01*
X151378228Y-108848297D01*
X151213816Y-108881000D01*
X151046184Y-108881000D01*
X150881772Y-108848297D01*
X150726900Y-108784147D01*
X150587519Y-108691015D01*
X150468985Y-108572481D01*
X150375853Y-108433100D01*
X150311703Y-108278228D01*
X150279000Y-108113816D01*
X150279000Y-107946184D01*
X150311703Y-107781772D01*
X150375853Y-107626900D01*
X150468985Y-107487519D01*
X150587519Y-107368985D01*
X150726900Y-107275853D01*
X150881772Y-107211703D01*
X151046184Y-107179000D01*
X151213816Y-107179000D01*
X151378228Y-107211703D01*
X151378228Y-107211703D01*
G37*
G36*
X171698228Y-107131703D02*
G01*
X171853100Y-107195853D01*
X171992481Y-107288985D01*
X172111015Y-107407519D01*
X172204147Y-107546900D01*
X172268297Y-107701772D01*
X172301000Y-107866184D01*
X172301000Y-108033816D01*
X172268297Y-108198228D01*
X172204147Y-108353100D01*
X172111015Y-108492481D01*
X171992481Y-108611015D01*
X171853100Y-108704147D01*
X171698228Y-108768297D01*
X171533816Y-108801000D01*
X171366184Y-108801000D01*
X171201772Y-108768297D01*
X171046900Y-108704147D01*
X170907519Y-108611015D01*
X170788985Y-108492481D01*
X170695853Y-108353100D01*
X170631703Y-108198228D01*
X170599000Y-108033816D01*
X170599000Y-107866184D01*
X170631703Y-107701772D01*
X170695853Y-107546900D01*
X170788985Y-107407519D01*
X170907519Y-107288985D01*
X171046900Y-107195853D01*
X171201772Y-107131703D01*
X171366184Y-107099000D01*
X171533816Y-107099000D01*
X171698228Y-107131703D01*
X171698228Y-107131703D01*
G37*
G36*
X66206823Y-107111313D02*
G01*
X66367242Y-107159976D01*
X66402833Y-107179000D01*
X66515078Y-107238996D01*
X66644659Y-107345341D01*
X66751004Y-107474922D01*
X66751005Y-107474924D01*
X66830024Y-107622758D01*
X66830025Y-107622761D01*
X66831281Y-107626903D01*
X66878687Y-107783177D01*
X66895117Y-107950000D01*
X66878687Y-108116823D01*
X66830024Y-108277242D01*
X66789477Y-108353100D01*
X66751004Y-108425078D01*
X66644659Y-108554659D01*
X66515078Y-108661004D01*
X66515076Y-108661005D01*
X66367242Y-108740024D01*
X66206823Y-108788687D01*
X66081804Y-108801000D01*
X65998196Y-108801000D01*
X65873177Y-108788687D01*
X65712758Y-108740024D01*
X65564924Y-108661005D01*
X65564922Y-108661004D01*
X65435341Y-108554659D01*
X65328996Y-108425078D01*
X65290523Y-108353100D01*
X65249976Y-108277242D01*
X65201313Y-108116823D01*
X65184883Y-107950000D01*
X65201313Y-107783177D01*
X65248719Y-107626903D01*
X65249975Y-107622761D01*
X65249976Y-107622758D01*
X65328995Y-107474924D01*
X65328996Y-107474922D01*
X65435341Y-107345341D01*
X65564922Y-107238996D01*
X65677167Y-107179000D01*
X65712758Y-107159976D01*
X65873177Y-107111313D01*
X65998196Y-107099000D01*
X66081804Y-107099000D01*
X66206823Y-107111313D01*
X66206823Y-107111313D01*
G37*
G36*
X81528228Y-107131703D02*
G01*
X81683100Y-107195853D01*
X81822481Y-107288985D01*
X81941015Y-107407519D01*
X82034147Y-107546900D01*
X82098297Y-107701772D01*
X82131000Y-107866184D01*
X82131000Y-108033816D01*
X82098297Y-108198228D01*
X82034147Y-108353100D01*
X81941015Y-108492481D01*
X81822481Y-108611015D01*
X81683100Y-108704147D01*
X81528228Y-108768297D01*
X81363816Y-108801000D01*
X81196184Y-108801000D01*
X81031772Y-108768297D01*
X80876900Y-108704147D01*
X80737519Y-108611015D01*
X80618985Y-108492481D01*
X80525853Y-108353100D01*
X80461703Y-108198228D01*
X80429000Y-108033816D01*
X80429000Y-107866184D01*
X80461703Y-107701772D01*
X80525853Y-107546900D01*
X80618985Y-107407519D01*
X80737519Y-107288985D01*
X80876900Y-107195853D01*
X81031772Y-107131703D01*
X81196184Y-107099000D01*
X81363816Y-107099000D01*
X81528228Y-107131703D01*
X81528228Y-107131703D01*
G37*
G36*
X96686823Y-107111313D02*
G01*
X96847242Y-107159976D01*
X96882833Y-107179000D01*
X96995078Y-107238996D01*
X97124659Y-107345341D01*
X97231004Y-107474922D01*
X97231005Y-107474924D01*
X97310024Y-107622758D01*
X97310025Y-107622761D01*
X97311281Y-107626903D01*
X97358687Y-107783177D01*
X97375117Y-107950000D01*
X97358687Y-108116823D01*
X97310024Y-108277242D01*
X97269477Y-108353100D01*
X97231004Y-108425078D01*
X97124659Y-108554659D01*
X96995078Y-108661004D01*
X96995076Y-108661005D01*
X96847242Y-108740024D01*
X96686823Y-108788687D01*
X96561804Y-108801000D01*
X96478196Y-108801000D01*
X96353177Y-108788687D01*
X96192758Y-108740024D01*
X96044924Y-108661005D01*
X96044922Y-108661004D01*
X95915341Y-108554659D01*
X95808996Y-108425078D01*
X95770523Y-108353100D01*
X95729976Y-108277242D01*
X95681313Y-108116823D01*
X95664883Y-107950000D01*
X95681313Y-107783177D01*
X95728719Y-107626903D01*
X95729975Y-107622761D01*
X95729976Y-107622758D01*
X95808995Y-107474924D01*
X95808996Y-107474922D01*
X95915341Y-107345341D01*
X96044922Y-107238996D01*
X96157167Y-107179000D01*
X96192758Y-107159976D01*
X96353177Y-107111313D01*
X96478196Y-107099000D01*
X96561804Y-107099000D01*
X96686823Y-107111313D01*
X96686823Y-107111313D01*
G37*
G36*
X214161823Y-106476313D02*
G01*
X214322242Y-106524976D01*
X214454906Y-106595886D01*
X214470078Y-106603996D01*
X214599659Y-106710341D01*
X214706004Y-106839922D01*
X214706005Y-106839924D01*
X214785024Y-106987758D01*
X214833687Y-107148177D01*
X214850117Y-107315000D01*
X214833687Y-107481823D01*
X214785024Y-107642242D01*
X214714114Y-107774906D01*
X214706004Y-107790078D01*
X214599659Y-107919659D01*
X214470078Y-108026004D01*
X214470076Y-108026005D01*
X214322242Y-108105024D01*
X214161823Y-108153687D01*
X214036804Y-108166000D01*
X213953196Y-108166000D01*
X213828177Y-108153687D01*
X213667758Y-108105024D01*
X213519924Y-108026005D01*
X213519922Y-108026004D01*
X213390341Y-107919659D01*
X213283996Y-107790078D01*
X213275886Y-107774906D01*
X213204976Y-107642242D01*
X213156313Y-107481823D01*
X213139883Y-107315000D01*
X213156313Y-107148177D01*
X213204976Y-106987758D01*
X213283995Y-106839924D01*
X213283996Y-106839922D01*
X213390341Y-106710341D01*
X213519922Y-106603996D01*
X213535094Y-106595886D01*
X213667758Y-106524976D01*
X213828177Y-106476313D01*
X213953196Y-106464000D01*
X214036804Y-106464000D01*
X214161823Y-106476313D01*
X214161823Y-106476313D01*
G37*
G36*
X49909393Y-104794304D02*
G01*
X50086151Y-104867520D01*
X50146103Y-104892353D01*
X50359135Y-105034696D01*
X50540304Y-105215865D01*
X50672570Y-105413816D01*
X50682648Y-105428899D01*
X50780696Y-105665607D01*
X50830680Y-105916893D01*
X50830680Y-106173107D01*
X50780696Y-106424393D01*
X50682648Y-106661101D01*
X50682647Y-106661103D01*
X50540304Y-106874135D01*
X50359135Y-107055304D01*
X50146103Y-107197647D01*
X50146102Y-107197648D01*
X50146101Y-107197648D01*
X49909393Y-107295696D01*
X49658107Y-107345680D01*
X49401893Y-107345680D01*
X49150607Y-107295696D01*
X48913899Y-107197648D01*
X48913898Y-107197648D01*
X48913897Y-107197647D01*
X48700865Y-107055304D01*
X48519696Y-106874135D01*
X48377353Y-106661103D01*
X48377352Y-106661101D01*
X48279304Y-106424393D01*
X48229320Y-106173107D01*
X48229320Y-105916893D01*
X48279304Y-105665607D01*
X48377352Y-105428899D01*
X48387430Y-105413816D01*
X48519696Y-105215865D01*
X48700865Y-105034696D01*
X48913897Y-104892353D01*
X48973849Y-104867520D01*
X49150607Y-104794304D01*
X49401893Y-104744320D01*
X49658107Y-104744320D01*
X49909393Y-104794304D01*
X49909393Y-104794304D01*
G37*
G36*
X89148228Y-104591703D02*
G01*
X89303100Y-104655853D01*
X89442481Y-104748985D01*
X89561015Y-104867519D01*
X89654147Y-105006900D01*
X89718297Y-105161772D01*
X89751000Y-105326184D01*
X89751000Y-105493816D01*
X89718297Y-105658228D01*
X89654147Y-105813100D01*
X89561015Y-105952481D01*
X89442481Y-106071015D01*
X89303100Y-106164147D01*
X89148228Y-106228297D01*
X88983816Y-106261000D01*
X88816184Y-106261000D01*
X88651772Y-106228297D01*
X88496900Y-106164147D01*
X88357519Y-106071015D01*
X88238985Y-105952481D01*
X88145853Y-105813100D01*
X88081703Y-105658228D01*
X88049000Y-105493816D01*
X88049000Y-105326184D01*
X88081703Y-105161772D01*
X88145853Y-105006900D01*
X88238985Y-104867519D01*
X88357519Y-104748985D01*
X88496900Y-104655853D01*
X88651772Y-104591703D01*
X88816184Y-104559000D01*
X88983816Y-104559000D01*
X89148228Y-104591703D01*
X89148228Y-104591703D01*
G37*
G36*
X104388228Y-104591703D02*
G01*
X104543100Y-104655853D01*
X104682481Y-104748985D01*
X104801015Y-104867519D01*
X104894147Y-105006900D01*
X104958297Y-105161772D01*
X104991000Y-105326184D01*
X104991000Y-105493816D01*
X104958297Y-105658228D01*
X104894147Y-105813100D01*
X104801015Y-105952481D01*
X104682481Y-106071015D01*
X104543100Y-106164147D01*
X104388228Y-106228297D01*
X104223816Y-106261000D01*
X104056184Y-106261000D01*
X103891772Y-106228297D01*
X103736900Y-106164147D01*
X103597519Y-106071015D01*
X103478985Y-105952481D01*
X103385853Y-105813100D01*
X103321703Y-105658228D01*
X103289000Y-105493816D01*
X103289000Y-105326184D01*
X103321703Y-105161772D01*
X103385853Y-105006900D01*
X103478985Y-104867519D01*
X103597519Y-104748985D01*
X103736900Y-104655853D01*
X103891772Y-104591703D01*
X104056184Y-104559000D01*
X104223816Y-104559000D01*
X104388228Y-104591703D01*
X104388228Y-104591703D01*
G37*
G36*
X73908228Y-104511703D02*
G01*
X74063100Y-104575853D01*
X74202481Y-104668985D01*
X74321015Y-104787519D01*
X74414147Y-104926900D01*
X74478297Y-105081772D01*
X74511000Y-105246184D01*
X74511000Y-105413816D01*
X74478297Y-105578228D01*
X74414147Y-105733100D01*
X74321015Y-105872481D01*
X74202481Y-105991015D01*
X74063100Y-106084147D01*
X73908228Y-106148297D01*
X73743816Y-106181000D01*
X73576184Y-106181000D01*
X73411772Y-106148297D01*
X73256900Y-106084147D01*
X73117519Y-105991015D01*
X72998985Y-105872481D01*
X72905853Y-105733100D01*
X72841703Y-105578228D01*
X72809000Y-105413816D01*
X72809000Y-105246184D01*
X72841703Y-105081772D01*
X72905853Y-104926900D01*
X72998985Y-104787519D01*
X73117519Y-104668985D01*
X73256900Y-104575853D01*
X73411772Y-104511703D01*
X73576184Y-104479000D01*
X73743816Y-104479000D01*
X73908228Y-104511703D01*
X73908228Y-104511703D01*
G37*
G36*
X112008228Y-104511703D02*
G01*
X112163100Y-104575853D01*
X112302481Y-104668985D01*
X112421015Y-104787519D01*
X112514147Y-104926900D01*
X112578297Y-105081772D01*
X112611000Y-105246184D01*
X112611000Y-105413816D01*
X112578297Y-105578228D01*
X112514147Y-105733100D01*
X112421015Y-105872481D01*
X112302481Y-105991015D01*
X112163100Y-106084147D01*
X112008228Y-106148297D01*
X111843816Y-106181000D01*
X111676184Y-106181000D01*
X111511772Y-106148297D01*
X111356900Y-106084147D01*
X111217519Y-105991015D01*
X111098985Y-105872481D01*
X111005853Y-105733100D01*
X110941703Y-105578228D01*
X110909000Y-105413816D01*
X110909000Y-105246184D01*
X110941703Y-105081772D01*
X111005853Y-104926900D01*
X111098985Y-104787519D01*
X111217519Y-104668985D01*
X111356900Y-104575853D01*
X111511772Y-104511703D01*
X111676184Y-104479000D01*
X111843816Y-104479000D01*
X112008228Y-104511703D01*
X112008228Y-104511703D01*
G37*
G36*
X129919393Y-103524304D02*
G01*
X130156101Y-103622352D01*
X130156103Y-103622353D01*
X130369135Y-103764696D01*
X130550304Y-103945865D01*
X130629236Y-104063996D01*
X130692648Y-104158899D01*
X130790696Y-104395607D01*
X130840680Y-104646893D01*
X130840680Y-104903107D01*
X130790696Y-105154393D01*
X130719537Y-105326185D01*
X130692647Y-105391103D01*
X130550304Y-105604135D01*
X130369135Y-105785304D01*
X130156103Y-105927647D01*
X130156102Y-105927648D01*
X130156101Y-105927648D01*
X129919393Y-106025696D01*
X129668107Y-106075680D01*
X129411893Y-106075680D01*
X129160607Y-106025696D01*
X128923899Y-105927648D01*
X128923898Y-105927648D01*
X128923897Y-105927647D01*
X128710865Y-105785304D01*
X128529696Y-105604135D01*
X128387353Y-105391103D01*
X128360463Y-105326185D01*
X128289304Y-105154393D01*
X128239320Y-104903107D01*
X128239320Y-104646893D01*
X128289304Y-104395607D01*
X128387352Y-104158899D01*
X128450764Y-104063996D01*
X128529696Y-103945865D01*
X128710865Y-103764696D01*
X128923897Y-103622353D01*
X128923899Y-103622352D01*
X129160607Y-103524304D01*
X129411893Y-103474320D01*
X129668107Y-103474320D01*
X129919393Y-103524304D01*
X129919393Y-103524304D01*
G37*
G36*
X161456823Y-103936313D02*
G01*
X161617242Y-103984976D01*
X161749906Y-104055886D01*
X161765078Y-104063996D01*
X161894659Y-104170341D01*
X162001004Y-104299922D01*
X162001005Y-104299924D01*
X162080024Y-104447758D01*
X162128687Y-104608177D01*
X162145117Y-104775000D01*
X162128687Y-104941823D01*
X162080024Y-105102242D01*
X162019291Y-105215865D01*
X162001004Y-105250078D01*
X161894659Y-105379659D01*
X161765078Y-105486004D01*
X161765076Y-105486005D01*
X161617242Y-105565024D01*
X161456823Y-105613687D01*
X161331804Y-105626000D01*
X161248196Y-105626000D01*
X161123177Y-105613687D01*
X160962758Y-105565024D01*
X160814924Y-105486005D01*
X160814922Y-105486004D01*
X160685341Y-105379659D01*
X160578996Y-105250078D01*
X160560709Y-105215865D01*
X160499976Y-105102242D01*
X160451313Y-104941823D01*
X160434883Y-104775000D01*
X160451313Y-104608177D01*
X160499976Y-104447758D01*
X160578995Y-104299924D01*
X160578996Y-104299922D01*
X160685341Y-104170341D01*
X160814922Y-104063996D01*
X160830094Y-104055886D01*
X160962758Y-103984976D01*
X161123177Y-103936313D01*
X161248196Y-103924000D01*
X161331804Y-103924000D01*
X161456823Y-103936313D01*
X161456823Y-103936313D01*
G37*
G36*
X206668823Y-99999313D02*
G01*
X206829242Y-100047976D01*
X206896361Y-100083852D01*
X206977078Y-100126996D01*
X207106659Y-100233341D01*
X207213004Y-100362922D01*
X207213005Y-100362924D01*
X207292024Y-100510758D01*
X207340687Y-100671177D01*
X207357117Y-100838000D01*
X207340687Y-101004823D01*
X207292024Y-101165242D01*
X207251477Y-101241100D01*
X207213004Y-101313078D01*
X207106659Y-101442659D01*
X206977078Y-101549004D01*
X206977076Y-101549005D01*
X206829242Y-101628024D01*
X206668823Y-101676687D01*
X206543804Y-101689000D01*
X206460196Y-101689000D01*
X206335177Y-101676687D01*
X206174758Y-101628024D01*
X206026924Y-101549005D01*
X206026922Y-101549004D01*
X205897341Y-101442659D01*
X205790996Y-101313078D01*
X205752523Y-101241100D01*
X205711976Y-101165242D01*
X205663313Y-101004823D01*
X205646883Y-100838000D01*
X205663313Y-100671177D01*
X205711976Y-100510758D01*
X205790995Y-100362924D01*
X205790996Y-100362922D01*
X205897341Y-100233341D01*
X206026922Y-100126996D01*
X206107639Y-100083852D01*
X206174758Y-100047976D01*
X206335177Y-99999313D01*
X206460196Y-99987000D01*
X206543804Y-99987000D01*
X206668823Y-99999313D01*
X206668823Y-99999313D01*
G37*
G36*
X196590228Y-100019703D02*
G01*
X196745100Y-100083853D01*
X196884481Y-100176985D01*
X197003015Y-100295519D01*
X197096147Y-100434900D01*
X197160297Y-100589772D01*
X197193000Y-100754184D01*
X197193000Y-100921816D01*
X197160297Y-101086228D01*
X197096147Y-101241100D01*
X197003015Y-101380481D01*
X196884481Y-101499015D01*
X196745100Y-101592147D01*
X196590228Y-101656297D01*
X196425816Y-101689000D01*
X196258184Y-101689000D01*
X196093772Y-101656297D01*
X195938900Y-101592147D01*
X195799519Y-101499015D01*
X195680985Y-101380481D01*
X195587853Y-101241100D01*
X195523703Y-101086228D01*
X195491000Y-100921816D01*
X195491000Y-100754184D01*
X195523703Y-100589772D01*
X195587853Y-100434900D01*
X195680985Y-100295519D01*
X195799519Y-100176985D01*
X195938900Y-100083853D01*
X196093772Y-100019703D01*
X196258184Y-99987000D01*
X196425816Y-99987000D01*
X196590228Y-100019703D01*
X196590228Y-100019703D01*
G37*
G36*
X104388228Y-99591703D02*
G01*
X104543100Y-99655853D01*
X104682481Y-99748985D01*
X104801015Y-99867519D01*
X104894147Y-100006900D01*
X104958297Y-100161772D01*
X104991000Y-100326184D01*
X104991000Y-100493816D01*
X104958297Y-100658228D01*
X104894147Y-100813100D01*
X104801015Y-100952481D01*
X104682481Y-101071015D01*
X104543100Y-101164147D01*
X104388228Y-101228297D01*
X104223816Y-101261000D01*
X104056184Y-101261000D01*
X103891772Y-101228297D01*
X103736900Y-101164147D01*
X103597519Y-101071015D01*
X103478985Y-100952481D01*
X103385853Y-100813100D01*
X103321703Y-100658228D01*
X103289000Y-100493816D01*
X103289000Y-100326184D01*
X103321703Y-100161772D01*
X103385853Y-100006900D01*
X103478985Y-99867519D01*
X103597519Y-99748985D01*
X103736900Y-99655853D01*
X103891772Y-99591703D01*
X104056184Y-99559000D01*
X104223816Y-99559000D01*
X104388228Y-99591703D01*
X104388228Y-99591703D01*
G37*
G36*
X89148228Y-99591703D02*
G01*
X89303100Y-99655853D01*
X89442481Y-99748985D01*
X89561015Y-99867519D01*
X89654147Y-100006900D01*
X89718297Y-100161772D01*
X89751000Y-100326184D01*
X89751000Y-100493816D01*
X89718297Y-100658228D01*
X89654147Y-100813100D01*
X89561015Y-100952481D01*
X89442481Y-101071015D01*
X89303100Y-101164147D01*
X89148228Y-101228297D01*
X88983816Y-101261000D01*
X88816184Y-101261000D01*
X88651772Y-101228297D01*
X88496900Y-101164147D01*
X88357519Y-101071015D01*
X88238985Y-100952481D01*
X88145853Y-100813100D01*
X88081703Y-100658228D01*
X88049000Y-100493816D01*
X88049000Y-100326184D01*
X88081703Y-100161772D01*
X88145853Y-100006900D01*
X88238985Y-99867519D01*
X88357519Y-99748985D01*
X88496900Y-99655853D01*
X88651772Y-99591703D01*
X88816184Y-99559000D01*
X88983816Y-99559000D01*
X89148228Y-99591703D01*
X89148228Y-99591703D01*
G37*
G36*
X112008228Y-99511703D02*
G01*
X112163100Y-99575853D01*
X112302481Y-99668985D01*
X112421015Y-99787519D01*
X112514147Y-99926900D01*
X112578297Y-100081772D01*
X112611000Y-100246184D01*
X112611000Y-100413816D01*
X112578297Y-100578228D01*
X112514147Y-100733100D01*
X112421015Y-100872481D01*
X112302481Y-100991015D01*
X112163100Y-101084147D01*
X112008228Y-101148297D01*
X111843816Y-101181000D01*
X111676184Y-101181000D01*
X111511772Y-101148297D01*
X111356900Y-101084147D01*
X111217519Y-100991015D01*
X111098985Y-100872481D01*
X111005853Y-100733100D01*
X110941703Y-100578228D01*
X110909000Y-100413816D01*
X110909000Y-100246184D01*
X110941703Y-100081772D01*
X111005853Y-99926900D01*
X111098985Y-99787519D01*
X111217519Y-99668985D01*
X111356900Y-99575853D01*
X111511772Y-99511703D01*
X111676184Y-99479000D01*
X111843816Y-99479000D01*
X112008228Y-99511703D01*
X112008228Y-99511703D01*
G37*
G36*
X73908228Y-99511703D02*
G01*
X74063100Y-99575853D01*
X74202481Y-99668985D01*
X74321015Y-99787519D01*
X74414147Y-99926900D01*
X74478297Y-100081772D01*
X74511000Y-100246184D01*
X74511000Y-100413816D01*
X74478297Y-100578228D01*
X74414147Y-100733100D01*
X74321015Y-100872481D01*
X74202481Y-100991015D01*
X74063100Y-101084147D01*
X73908228Y-101148297D01*
X73743816Y-101181000D01*
X73576184Y-101181000D01*
X73411772Y-101148297D01*
X73256900Y-101084147D01*
X73117519Y-100991015D01*
X72998985Y-100872481D01*
X72905853Y-100733100D01*
X72841703Y-100578228D01*
X72809000Y-100413816D01*
X72809000Y-100246184D01*
X72841703Y-100081772D01*
X72905853Y-99926900D01*
X72998985Y-99787519D01*
X73117519Y-99668985D01*
X73256900Y-99575853D01*
X73411772Y-99511703D01*
X73576184Y-99479000D01*
X73743816Y-99479000D01*
X73908228Y-99511703D01*
X73908228Y-99511703D01*
G37*
G36*
X221225239Y-97192101D02*
G01*
X221461053Y-97263634D01*
X221678381Y-97379799D01*
X221868871Y-97536129D01*
X222025201Y-97726619D01*
X222141366Y-97943947D01*
X222212899Y-98179761D01*
X222237053Y-98425000D01*
X222212899Y-98670239D01*
X222141366Y-98906053D01*
X222025201Y-99123381D01*
X221868871Y-99313871D01*
X221678381Y-99470201D01*
X221461053Y-99586366D01*
X221225239Y-99657899D01*
X221041457Y-99676000D01*
X220918543Y-99676000D01*
X220734761Y-99657899D01*
X220498947Y-99586366D01*
X220281619Y-99470201D01*
X220091129Y-99313871D01*
X219934799Y-99123381D01*
X219818634Y-98906053D01*
X219747101Y-98670239D01*
X219722947Y-98425000D01*
X219747101Y-98179761D01*
X219818634Y-97943947D01*
X219934799Y-97726619D01*
X220091129Y-97536129D01*
X220281619Y-97379799D01*
X220498947Y-97263634D01*
X220734761Y-97192101D01*
X220918543Y-97174000D01*
X221041457Y-97174000D01*
X221225239Y-97192101D01*
X221225239Y-97192101D01*
G37*
G36*
X236584903Y-97222075D02*
G01*
X236685236Y-97263634D01*
X236812571Y-97316378D01*
X237017466Y-97453285D01*
X237191715Y-97627534D01*
X237328622Y-97832429D01*
X237328623Y-97832431D01*
X237422925Y-98060097D01*
X237471000Y-98301786D01*
X237471000Y-98548214D01*
X237464672Y-98580025D01*
X237422925Y-98789903D01*
X237328622Y-99017571D01*
X237191715Y-99222466D01*
X237017466Y-99396715D01*
X236812571Y-99533622D01*
X236812570Y-99533623D01*
X236812569Y-99533623D01*
X236584903Y-99627925D01*
X236343214Y-99676000D01*
X236096786Y-99676000D01*
X235855097Y-99627925D01*
X235627431Y-99533623D01*
X235627430Y-99533623D01*
X235627429Y-99533622D01*
X235422534Y-99396715D01*
X235248285Y-99222466D01*
X235111378Y-99017571D01*
X235017075Y-98789903D01*
X234975328Y-98580025D01*
X234969000Y-98548214D01*
X234969000Y-98301786D01*
X235017075Y-98060097D01*
X235111377Y-97832431D01*
X235111378Y-97832429D01*
X235248285Y-97627534D01*
X235422534Y-97453285D01*
X235627429Y-97316378D01*
X235754765Y-97263634D01*
X235855097Y-97222075D01*
X236096786Y-97174000D01*
X236343214Y-97174000D01*
X236584903Y-97222075D01*
X236584903Y-97222075D01*
G37*
G36*
X81446823Y-96951313D02*
G01*
X81607242Y-96999976D01*
X81739906Y-97070886D01*
X81755078Y-97078996D01*
X81884659Y-97185341D01*
X81991004Y-97314922D01*
X81991005Y-97314924D01*
X82070024Y-97462758D01*
X82118687Y-97623177D01*
X82135117Y-97790000D01*
X82118687Y-97956823D01*
X82070024Y-98117242D01*
X82029477Y-98193100D01*
X81991004Y-98265078D01*
X81884659Y-98394659D01*
X81755078Y-98501004D01*
X81755076Y-98501005D01*
X81607242Y-98580024D01*
X81446823Y-98628687D01*
X81321804Y-98641000D01*
X81238196Y-98641000D01*
X81113177Y-98628687D01*
X80952758Y-98580024D01*
X80804924Y-98501005D01*
X80804922Y-98501004D01*
X80675341Y-98394659D01*
X80568996Y-98265078D01*
X80530523Y-98193100D01*
X80489976Y-98117242D01*
X80441313Y-97956823D01*
X80424883Y-97790000D01*
X80441313Y-97623177D01*
X80489976Y-97462758D01*
X80568995Y-97314924D01*
X80568996Y-97314922D01*
X80675341Y-97185341D01*
X80804922Y-97078996D01*
X80820094Y-97070886D01*
X80952758Y-96999976D01*
X81113177Y-96951313D01*
X81238196Y-96939000D01*
X81321804Y-96939000D01*
X81446823Y-96951313D01*
X81446823Y-96951313D01*
G37*
G36*
X66288228Y-96971703D02*
G01*
X66443100Y-97035853D01*
X66582481Y-97128985D01*
X66701015Y-97247519D01*
X66794147Y-97386900D01*
X66858297Y-97541772D01*
X66891000Y-97706184D01*
X66891000Y-97873816D01*
X66858297Y-98038228D01*
X66794147Y-98193100D01*
X66701015Y-98332481D01*
X66582481Y-98451015D01*
X66443100Y-98544147D01*
X66288228Y-98608297D01*
X66123816Y-98641000D01*
X65956184Y-98641000D01*
X65791772Y-98608297D01*
X65636900Y-98544147D01*
X65497519Y-98451015D01*
X65378985Y-98332481D01*
X65285853Y-98193100D01*
X65221703Y-98038228D01*
X65189000Y-97873816D01*
X65189000Y-97706184D01*
X65221703Y-97541772D01*
X65285853Y-97386900D01*
X65378985Y-97247519D01*
X65497519Y-97128985D01*
X65636900Y-97035853D01*
X65791772Y-96971703D01*
X65956184Y-96939000D01*
X66123816Y-96939000D01*
X66288228Y-96971703D01*
X66288228Y-96971703D01*
G37*
G36*
X96768228Y-96971703D02*
G01*
X96923100Y-97035853D01*
X97062481Y-97128985D01*
X97181015Y-97247519D01*
X97274147Y-97386900D01*
X97338297Y-97541772D01*
X97371000Y-97706184D01*
X97371000Y-97873816D01*
X97338297Y-98038228D01*
X97274147Y-98193100D01*
X97181015Y-98332481D01*
X97062481Y-98451015D01*
X96923100Y-98544147D01*
X96768228Y-98608297D01*
X96603816Y-98641000D01*
X96436184Y-98641000D01*
X96271772Y-98608297D01*
X96116900Y-98544147D01*
X95977519Y-98451015D01*
X95858985Y-98332481D01*
X95765853Y-98193100D01*
X95701703Y-98038228D01*
X95669000Y-97873816D01*
X95669000Y-97706184D01*
X95701703Y-97541772D01*
X95765853Y-97386900D01*
X95858985Y-97247519D01*
X95977519Y-97128985D01*
X96116900Y-97035853D01*
X96271772Y-96971703D01*
X96436184Y-96939000D01*
X96603816Y-96939000D01*
X96768228Y-96971703D01*
X96768228Y-96971703D01*
G37*
G36*
X52318228Y-95701703D02*
G01*
X52473100Y-95765853D01*
X52612481Y-95858985D01*
X52731015Y-95977519D01*
X52824147Y-96116900D01*
X52888297Y-96271772D01*
X52921000Y-96436184D01*
X52921000Y-96603816D01*
X52888297Y-96768228D01*
X52824147Y-96923100D01*
X52731015Y-97062481D01*
X52612481Y-97181015D01*
X52473100Y-97274147D01*
X52318228Y-97338297D01*
X52153816Y-97371000D01*
X51986184Y-97371000D01*
X51821772Y-97338297D01*
X51666900Y-97274147D01*
X51527519Y-97181015D01*
X51408985Y-97062481D01*
X51315853Y-96923100D01*
X51251703Y-96768228D01*
X51219000Y-96603816D01*
X51219000Y-96436184D01*
X51251703Y-96271772D01*
X51315853Y-96116900D01*
X51408985Y-95977519D01*
X51527519Y-95858985D01*
X51666900Y-95765853D01*
X51821772Y-95701703D01*
X51986184Y-95669000D01*
X52153816Y-95669000D01*
X52318228Y-95701703D01*
X52318228Y-95701703D01*
G37*
G36*
X214875239Y-94017101D02*
G01*
X215111053Y-94088634D01*
X215328381Y-94204799D01*
X215518871Y-94361129D01*
X215675201Y-94551619D01*
X215791366Y-94768947D01*
X215862899Y-95004761D01*
X215887053Y-95250000D01*
X215862899Y-95495239D01*
X215791366Y-95731053D01*
X215675201Y-95948381D01*
X215518871Y-96138871D01*
X215328381Y-96295201D01*
X215111053Y-96411366D01*
X214875239Y-96482899D01*
X214691457Y-96501000D01*
X214568543Y-96501000D01*
X214384761Y-96482899D01*
X214148947Y-96411366D01*
X213931619Y-96295201D01*
X213741129Y-96138871D01*
X213584799Y-95948381D01*
X213468634Y-95731053D01*
X213397101Y-95495239D01*
X213372947Y-95250000D01*
X213397101Y-95004761D01*
X213468634Y-94768947D01*
X213584799Y-94551619D01*
X213741129Y-94361129D01*
X213931619Y-94204799D01*
X214148947Y-94088634D01*
X214384761Y-94017101D01*
X214568543Y-93999000D01*
X214691457Y-93999000D01*
X214875239Y-94017101D01*
X214875239Y-94017101D01*
G37*
G36*
X189478228Y-91891703D02*
G01*
X189633100Y-91955853D01*
X189772481Y-92048985D01*
X189891015Y-92167519D01*
X189984147Y-92306900D01*
X190048297Y-92461772D01*
X190081000Y-92626184D01*
X190081000Y-92793816D01*
X190048297Y-92958228D01*
X189984147Y-93113100D01*
X189891015Y-93252481D01*
X189772481Y-93371015D01*
X189633100Y-93464147D01*
X189478228Y-93528297D01*
X189313816Y-93561000D01*
X189146184Y-93561000D01*
X188981772Y-93528297D01*
X188826900Y-93464147D01*
X188687519Y-93371015D01*
X188568985Y-93252481D01*
X188475853Y-93113100D01*
X188411703Y-92958228D01*
X188379000Y-92793816D01*
X188379000Y-92626184D01*
X188411703Y-92461772D01*
X188475853Y-92306900D01*
X188568985Y-92167519D01*
X188687519Y-92048985D01*
X188826900Y-91955853D01*
X188981772Y-91891703D01*
X189146184Y-91859000D01*
X189313816Y-91859000D01*
X189478228Y-91891703D01*
X189478228Y-91891703D01*
G37*
G36*
X179236823Y-91871313D02*
G01*
X179397242Y-91919976D01*
X179529906Y-91990886D01*
X179545078Y-91998996D01*
X179674659Y-92105341D01*
X179781004Y-92234922D01*
X179781005Y-92234924D01*
X179860024Y-92382758D01*
X179908687Y-92543177D01*
X179925117Y-92710000D01*
X179908687Y-92876823D01*
X179860024Y-93037242D01*
X179819477Y-93113100D01*
X179781004Y-93185078D01*
X179674659Y-93314659D01*
X179545078Y-93421004D01*
X179545076Y-93421005D01*
X179397242Y-93500024D01*
X179236823Y-93548687D01*
X179111804Y-93561000D01*
X179028196Y-93561000D01*
X178903177Y-93548687D01*
X178742758Y-93500024D01*
X178594924Y-93421005D01*
X178594922Y-93421004D01*
X178465341Y-93314659D01*
X178358996Y-93185078D01*
X178320523Y-93113100D01*
X178279976Y-93037242D01*
X178231313Y-92876823D01*
X178214883Y-92710000D01*
X178231313Y-92543177D01*
X178279976Y-92382758D01*
X178358995Y-92234924D01*
X178358996Y-92234922D01*
X178465341Y-92105341D01*
X178594922Y-91998996D01*
X178610094Y-91990886D01*
X178742758Y-91919976D01*
X178903177Y-91871313D01*
X179028196Y-91859000D01*
X179111804Y-91859000D01*
X179236823Y-91871313D01*
X179236823Y-91871313D01*
G37*
G36*
X197405999Y-92391000D02*
G01*
X195503999Y-92391000D01*
X195503999Y-90489000D01*
X197405999Y-90489000D01*
X197405999Y-92391000D01*
X197405999Y-92391000D01*
G37*
G36*
X206801424Y-90502760D02*
G01*
X206801427Y-90502761D01*
X206801428Y-90502761D01*
X206980692Y-90557140D01*
X206980695Y-90557142D01*
X206980696Y-90557142D01*
X207145902Y-90645446D01*
X207290711Y-90764288D01*
X207409553Y-90909097D01*
X207477866Y-91036903D01*
X207497859Y-91074307D01*
X207552238Y-91253571D01*
X207552239Y-91253575D01*
X207570600Y-91440000D01*
X207552239Y-91626425D01*
X207552238Y-91626428D01*
X207552238Y-91626429D01*
X207497859Y-91805693D01*
X207497857Y-91805696D01*
X207497857Y-91805697D01*
X207409553Y-91970903D01*
X207290711Y-92115712D01*
X207145902Y-92234554D01*
X206980696Y-92322858D01*
X206980692Y-92322860D01*
X206801428Y-92377239D01*
X206801427Y-92377239D01*
X206801424Y-92377240D01*
X206661717Y-92391000D01*
X206568281Y-92391000D01*
X206428574Y-92377240D01*
X206428571Y-92377239D01*
X206428570Y-92377239D01*
X206249306Y-92322860D01*
X206249302Y-92322858D01*
X206084096Y-92234554D01*
X205939287Y-92115712D01*
X205820445Y-91970903D01*
X205732141Y-91805697D01*
X205732141Y-91805696D01*
X205732139Y-91805693D01*
X205677760Y-91626429D01*
X205677760Y-91626428D01*
X205677759Y-91626425D01*
X205659398Y-91440000D01*
X205677759Y-91253575D01*
X205677760Y-91253571D01*
X205732139Y-91074307D01*
X205752132Y-91036903D01*
X205820445Y-90909097D01*
X205939287Y-90764288D01*
X206084096Y-90645446D01*
X206249302Y-90557142D01*
X206249303Y-90557142D01*
X206249306Y-90557140D01*
X206428570Y-90502761D01*
X206428571Y-90502761D01*
X206428574Y-90502760D01*
X206568281Y-90489000D01*
X206661717Y-90489000D01*
X206801424Y-90502760D01*
X206801424Y-90502760D01*
G37*
G36*
X80338228Y-90621703D02*
G01*
X80493100Y-90685853D01*
X80632481Y-90778985D01*
X80751015Y-90897519D01*
X80844147Y-91036900D01*
X80908297Y-91191772D01*
X80941000Y-91356184D01*
X80941000Y-91523816D01*
X80908297Y-91688228D01*
X80844147Y-91843100D01*
X80751015Y-91982481D01*
X80632481Y-92101015D01*
X80493100Y-92194147D01*
X80338228Y-92258297D01*
X80173816Y-92291000D01*
X80006184Y-92291000D01*
X79841772Y-92258297D01*
X79686900Y-92194147D01*
X79547519Y-92101015D01*
X79428985Y-91982481D01*
X79335853Y-91843100D01*
X79271703Y-91688228D01*
X79239000Y-91523816D01*
X79239000Y-91356184D01*
X79271703Y-91191772D01*
X79335853Y-91036900D01*
X79428985Y-90897519D01*
X79547519Y-90778985D01*
X79686900Y-90685853D01*
X79841772Y-90621703D01*
X80006184Y-90589000D01*
X80173816Y-90589000D01*
X80338228Y-90621703D01*
X80338228Y-90621703D01*
G37*
G36*
X85338228Y-90621703D02*
G01*
X85493100Y-90685853D01*
X85632481Y-90778985D01*
X85751015Y-90897519D01*
X85844147Y-91036900D01*
X85908297Y-91191772D01*
X85941000Y-91356184D01*
X85941000Y-91523816D01*
X85908297Y-91688228D01*
X85844147Y-91843100D01*
X85751015Y-91982481D01*
X85632481Y-92101015D01*
X85493100Y-92194147D01*
X85338228Y-92258297D01*
X85173816Y-92291000D01*
X85006184Y-92291000D01*
X84841772Y-92258297D01*
X84686900Y-92194147D01*
X84547519Y-92101015D01*
X84428985Y-91982481D01*
X84335853Y-91843100D01*
X84271703Y-91688228D01*
X84239000Y-91523816D01*
X84239000Y-91356184D01*
X84271703Y-91191772D01*
X84335853Y-91036900D01*
X84428985Y-90897519D01*
X84547519Y-90778985D01*
X84686900Y-90685853D01*
X84841772Y-90621703D01*
X85006184Y-90589000D01*
X85173816Y-90589000D01*
X85338228Y-90621703D01*
X85338228Y-90621703D01*
G37*
G36*
X171824466Y-88999344D02*
G01*
X171962322Y-89026765D01*
X172078556Y-89074911D01*
X172202727Y-89126344D01*
X172202728Y-89126345D01*
X172419089Y-89270912D01*
X172603088Y-89454911D01*
X172654383Y-89531680D01*
X172747656Y-89671273D01*
X172788903Y-89770852D01*
X172847235Y-89911678D01*
X172872617Y-90039285D01*
X172898000Y-90166891D01*
X172898000Y-90427109D01*
X172885689Y-90489000D01*
X172847235Y-90682322D01*
X172800261Y-90795727D01*
X172747656Y-90922727D01*
X172747655Y-90922728D01*
X172603088Y-91139089D01*
X172419089Y-91323088D01*
X172274521Y-91419685D01*
X172202727Y-91467656D01*
X172146369Y-91491000D01*
X171962322Y-91567235D01*
X171834715Y-91592617D01*
X171707109Y-91618000D01*
X171446891Y-91618000D01*
X171319285Y-91592617D01*
X171191678Y-91567235D01*
X171007631Y-91491000D01*
X170951273Y-91467656D01*
X170879479Y-91419685D01*
X170734911Y-91323088D01*
X170550912Y-91139089D01*
X170406345Y-90922728D01*
X170406344Y-90922727D01*
X170353739Y-90795727D01*
X170306765Y-90682322D01*
X170268311Y-90489000D01*
X170256000Y-90427109D01*
X170256000Y-90166891D01*
X170281383Y-90039285D01*
X170306765Y-89911678D01*
X170365097Y-89770852D01*
X170406344Y-89671273D01*
X170499617Y-89531680D01*
X170550912Y-89454911D01*
X170734911Y-89270912D01*
X170951272Y-89126345D01*
X170951273Y-89126344D01*
X171075444Y-89074911D01*
X171191678Y-89026765D01*
X171329534Y-88999344D01*
X171446891Y-88976000D01*
X171707109Y-88976000D01*
X171824466Y-88999344D01*
X171824466Y-88999344D01*
G37*
G36*
X161415494Y-88873344D02*
G01*
X161548322Y-88899765D01*
X161689148Y-88958097D01*
X161788727Y-88999344D01*
X161788728Y-88999345D01*
X162005089Y-89143912D01*
X162189088Y-89327911D01*
X162273946Y-89454911D01*
X162333656Y-89544273D01*
X162374903Y-89643852D01*
X162433235Y-89784678D01*
X162458497Y-89911678D01*
X162484000Y-90039891D01*
X162484000Y-90300109D01*
X162480223Y-90319097D01*
X162433235Y-90555322D01*
X162379167Y-90685852D01*
X162333656Y-90795727D01*
X162333655Y-90795728D01*
X162189088Y-91012089D01*
X162005089Y-91196088D01*
X161919059Y-91253571D01*
X161788727Y-91340656D01*
X161689148Y-91381903D01*
X161548322Y-91440235D01*
X161420714Y-91465618D01*
X161293109Y-91491000D01*
X161032891Y-91491000D01*
X160905286Y-91465618D01*
X160777678Y-91440235D01*
X160636852Y-91381903D01*
X160537273Y-91340656D01*
X160406941Y-91253571D01*
X160320911Y-91196088D01*
X160136912Y-91012089D01*
X159992345Y-90795728D01*
X159992344Y-90795727D01*
X159946833Y-90685852D01*
X159892765Y-90555322D01*
X159845777Y-90319097D01*
X159842000Y-90300109D01*
X159842000Y-90039891D01*
X159867503Y-89911678D01*
X159892765Y-89784678D01*
X159951097Y-89643852D01*
X159992344Y-89544273D01*
X160052054Y-89454911D01*
X160136912Y-89327911D01*
X160320911Y-89143912D01*
X160537272Y-88999345D01*
X160537273Y-88999344D01*
X160636852Y-88958097D01*
X160777678Y-88899765D01*
X160910506Y-88873344D01*
X161032891Y-88849000D01*
X161293109Y-88849000D01*
X161415494Y-88873344D01*
X161415494Y-88873344D01*
G37*
G36*
X73978466Y-88746344D02*
G01*
X74116322Y-88773765D01*
X74257148Y-88832097D01*
X74356727Y-88873344D01*
X74356728Y-88873345D01*
X74573089Y-89017912D01*
X74757088Y-89201911D01*
X74816797Y-89291272D01*
X74901656Y-89418273D01*
X74916832Y-89454912D01*
X75001235Y-89658678D01*
X75003044Y-89667772D01*
X75051560Y-89911678D01*
X75052000Y-89913893D01*
X75052000Y-90174107D01*
X75001235Y-90429322D01*
X74970815Y-90502761D01*
X74901656Y-90669727D01*
X74890881Y-90685853D01*
X74757088Y-90886089D01*
X74573089Y-91070088D01*
X74469821Y-91139089D01*
X74356727Y-91214656D01*
X74300369Y-91238000D01*
X74116322Y-91314235D01*
X73988715Y-91339617D01*
X73861109Y-91365000D01*
X73600891Y-91365000D01*
X73473285Y-91339617D01*
X73345678Y-91314235D01*
X73161631Y-91238000D01*
X73105273Y-91214656D01*
X72992179Y-91139089D01*
X72888911Y-91070088D01*
X72704912Y-90886089D01*
X72571119Y-90685853D01*
X72560344Y-90669727D01*
X72491185Y-90502761D01*
X72460765Y-90429322D01*
X72410000Y-90174107D01*
X72410000Y-89913893D01*
X72410441Y-89911678D01*
X72458956Y-89667772D01*
X72460765Y-89658678D01*
X72545168Y-89454912D01*
X72560344Y-89418273D01*
X72645203Y-89291272D01*
X72704912Y-89201911D01*
X72888911Y-89017912D01*
X73105272Y-88873345D01*
X73105273Y-88873344D01*
X73204852Y-88832097D01*
X73345678Y-88773765D01*
X73483534Y-88746344D01*
X73600891Y-88723000D01*
X73861109Y-88723000D01*
X73978466Y-88746344D01*
X73978466Y-88746344D01*
G37*
G36*
X113531466Y-88746344D02*
G01*
X113669322Y-88773765D01*
X113810148Y-88832097D01*
X113909727Y-88873344D01*
X113909728Y-88873345D01*
X114126089Y-89017912D01*
X114310088Y-89201911D01*
X114369797Y-89291272D01*
X114454656Y-89418273D01*
X114469832Y-89454912D01*
X114554235Y-89658678D01*
X114556044Y-89667772D01*
X114604560Y-89911678D01*
X114605000Y-89913893D01*
X114605000Y-90174107D01*
X114554235Y-90429322D01*
X114523815Y-90502761D01*
X114454656Y-90669727D01*
X114443881Y-90685853D01*
X114310088Y-90886089D01*
X114126089Y-91070088D01*
X114022821Y-91139089D01*
X113909727Y-91214656D01*
X113853369Y-91238000D01*
X113669322Y-91314235D01*
X113541715Y-91339617D01*
X113414109Y-91365000D01*
X113153891Y-91365000D01*
X113026285Y-91339617D01*
X112898678Y-91314235D01*
X112714631Y-91238000D01*
X112658273Y-91214656D01*
X112545179Y-91139089D01*
X112441911Y-91070088D01*
X112257912Y-90886089D01*
X112124119Y-90685853D01*
X112113344Y-90669727D01*
X112044185Y-90502761D01*
X112013765Y-90429322D01*
X111963000Y-90174107D01*
X111963000Y-89913893D01*
X111963441Y-89911678D01*
X112011956Y-89667772D01*
X112013765Y-89658678D01*
X112098168Y-89454912D01*
X112113344Y-89418273D01*
X112198203Y-89291272D01*
X112257912Y-89201911D01*
X112441911Y-89017912D01*
X112658272Y-88873345D01*
X112658273Y-88873344D01*
X112757852Y-88832097D01*
X112898678Y-88773765D01*
X113036534Y-88746344D01*
X113153891Y-88723000D01*
X113414109Y-88723000D01*
X113531466Y-88746344D01*
X113531466Y-88746344D01*
G37*
G36*
X63574714Y-88621382D02*
G01*
X63702322Y-88646765D01*
X63843148Y-88705097D01*
X63942727Y-88746344D01*
X63942728Y-88746345D01*
X64159089Y-88890912D01*
X64343088Y-89074911D01*
X64401180Y-89161852D01*
X64487656Y-89291273D01*
X64528903Y-89390852D01*
X64587235Y-89531678D01*
X64587235Y-89531680D01*
X64637560Y-89784678D01*
X64638000Y-89786893D01*
X64638000Y-90047107D01*
X64587235Y-90302322D01*
X64528903Y-90443148D01*
X64487656Y-90542727D01*
X64478024Y-90557142D01*
X64343088Y-90759089D01*
X64159089Y-90943088D01*
X64055821Y-91012089D01*
X63942727Y-91087656D01*
X63843148Y-91128903D01*
X63702322Y-91187235D01*
X63574714Y-91212618D01*
X63447109Y-91238000D01*
X63186891Y-91238000D01*
X63059286Y-91212618D01*
X62931678Y-91187235D01*
X62790852Y-91128903D01*
X62691273Y-91087656D01*
X62578179Y-91012089D01*
X62474911Y-90943088D01*
X62290912Y-90759089D01*
X62155976Y-90557142D01*
X62146344Y-90542727D01*
X62105097Y-90443148D01*
X62046765Y-90302322D01*
X61996000Y-90047107D01*
X61996000Y-89786893D01*
X61996441Y-89784678D01*
X62046765Y-89531680D01*
X62046765Y-89531678D01*
X62105097Y-89390852D01*
X62146344Y-89291273D01*
X62232820Y-89161852D01*
X62290912Y-89074911D01*
X62474911Y-88890912D01*
X62691272Y-88746345D01*
X62691273Y-88746344D01*
X62790852Y-88705097D01*
X62931678Y-88646765D01*
X63059286Y-88621382D01*
X63186891Y-88596000D01*
X63447109Y-88596000D01*
X63574714Y-88621382D01*
X63574714Y-88621382D01*
G37*
G36*
X103127714Y-88621382D02*
G01*
X103255322Y-88646765D01*
X103396148Y-88705097D01*
X103495727Y-88746344D01*
X103495728Y-88746345D01*
X103712089Y-88890912D01*
X103896088Y-89074911D01*
X103954180Y-89161852D01*
X104040656Y-89291273D01*
X104081903Y-89390852D01*
X104140235Y-89531678D01*
X104140235Y-89531680D01*
X104190560Y-89784678D01*
X104191000Y-89786893D01*
X104191000Y-90047107D01*
X104140235Y-90302322D01*
X104081903Y-90443148D01*
X104040656Y-90542727D01*
X104031024Y-90557142D01*
X103896088Y-90759089D01*
X103712089Y-90943088D01*
X103608821Y-91012089D01*
X103495727Y-91087656D01*
X103396148Y-91128903D01*
X103255322Y-91187235D01*
X103127715Y-91212617D01*
X103000109Y-91238000D01*
X102739891Y-91238000D01*
X102612286Y-91212618D01*
X102484678Y-91187235D01*
X102343852Y-91128903D01*
X102244273Y-91087656D01*
X102131179Y-91012089D01*
X102027911Y-90943088D01*
X101843912Y-90759089D01*
X101708976Y-90557142D01*
X101699344Y-90542727D01*
X101658097Y-90443148D01*
X101599765Y-90302322D01*
X101549000Y-90047107D01*
X101549000Y-89786893D01*
X101549441Y-89784678D01*
X101599765Y-89531680D01*
X101599765Y-89531678D01*
X101658097Y-89390852D01*
X101699344Y-89291273D01*
X101785820Y-89161852D01*
X101843912Y-89074911D01*
X102027911Y-88890912D01*
X102244272Y-88746345D01*
X102244273Y-88746344D01*
X102343852Y-88705097D01*
X102484678Y-88646765D01*
X102612286Y-88621382D01*
X102739891Y-88596000D01*
X103000109Y-88596000D01*
X103127714Y-88621382D01*
X103127714Y-88621382D01*
G37*
G36*
X125978228Y-89097703D02*
G01*
X126133100Y-89161853D01*
X126272481Y-89254985D01*
X126391015Y-89373519D01*
X126484147Y-89512900D01*
X126548297Y-89667772D01*
X126581000Y-89832184D01*
X126581000Y-89999816D01*
X126548297Y-90164228D01*
X126484147Y-90319100D01*
X126391015Y-90458481D01*
X126272481Y-90577015D01*
X126133100Y-90670147D01*
X125978228Y-90734297D01*
X125813816Y-90767000D01*
X125646184Y-90767000D01*
X125481772Y-90734297D01*
X125326900Y-90670147D01*
X125187519Y-90577015D01*
X125068985Y-90458481D01*
X124975853Y-90319100D01*
X124911703Y-90164228D01*
X124879000Y-89999816D01*
X124879000Y-89832184D01*
X124911703Y-89667772D01*
X124975853Y-89512900D01*
X125068985Y-89373519D01*
X125187519Y-89254985D01*
X125326900Y-89161853D01*
X125481772Y-89097703D01*
X125646184Y-89065000D01*
X125813816Y-89065000D01*
X125978228Y-89097703D01*
X125978228Y-89097703D01*
G37*
G36*
X131058228Y-89097703D02*
G01*
X131213100Y-89161853D01*
X131352481Y-89254985D01*
X131471015Y-89373519D01*
X131564147Y-89512900D01*
X131628297Y-89667772D01*
X131661000Y-89832184D01*
X131661000Y-89999816D01*
X131628297Y-90164228D01*
X131564147Y-90319100D01*
X131471015Y-90458481D01*
X131352481Y-90577015D01*
X131213100Y-90670147D01*
X131058228Y-90734297D01*
X130893816Y-90767000D01*
X130726184Y-90767000D01*
X130561772Y-90734297D01*
X130406900Y-90670147D01*
X130267519Y-90577015D01*
X130148985Y-90458481D01*
X130055853Y-90319100D01*
X129991703Y-90164228D01*
X129959000Y-89999816D01*
X129959000Y-89832184D01*
X129991703Y-89667772D01*
X130055853Y-89512900D01*
X130148985Y-89373519D01*
X130267519Y-89254985D01*
X130406900Y-89161853D01*
X130561772Y-89097703D01*
X130726184Y-89065000D01*
X130893816Y-89065000D01*
X131058228Y-89097703D01*
X131058228Y-89097703D01*
G37*
G36*
X92876823Y-86791313D02*
G01*
X93037242Y-86839976D01*
X93134738Y-86892089D01*
X93185078Y-86918996D01*
X93314659Y-87025341D01*
X93421004Y-87154922D01*
X93421005Y-87154924D01*
X93500024Y-87302758D01*
X93548687Y-87463177D01*
X93565117Y-87630000D01*
X93548687Y-87796823D01*
X93548260Y-87798229D01*
X93501281Y-87953100D01*
X93500024Y-87957242D01*
X93429114Y-88089906D01*
X93421004Y-88105078D01*
X93314659Y-88234659D01*
X93185078Y-88341004D01*
X93185076Y-88341005D01*
X93037242Y-88420024D01*
X92876823Y-88468687D01*
X92751804Y-88481000D01*
X92668196Y-88481000D01*
X92543177Y-88468687D01*
X92382758Y-88420024D01*
X92234924Y-88341005D01*
X92234922Y-88341004D01*
X92105341Y-88234659D01*
X91998996Y-88105078D01*
X91990886Y-88089906D01*
X91919976Y-87957242D01*
X91918720Y-87953100D01*
X91871740Y-87798229D01*
X91871313Y-87796823D01*
X91854883Y-87630000D01*
X91871313Y-87463177D01*
X91919976Y-87302758D01*
X91998995Y-87154924D01*
X91998996Y-87154922D01*
X92105341Y-87025341D01*
X92234922Y-86918996D01*
X92285262Y-86892089D01*
X92382758Y-86839976D01*
X92543177Y-86791313D01*
X92668196Y-86779000D01*
X92751804Y-86779000D01*
X92876823Y-86791313D01*
X92876823Y-86791313D01*
G37*
G36*
X87878228Y-86731703D02*
G01*
X88033100Y-86795853D01*
X88172481Y-86888985D01*
X88291015Y-87007519D01*
X88384147Y-87146900D01*
X88448297Y-87301772D01*
X88481000Y-87466184D01*
X88481000Y-87633816D01*
X88448297Y-87798228D01*
X88384147Y-87953100D01*
X88291015Y-88092481D01*
X88172481Y-88211015D01*
X88033100Y-88304147D01*
X87878228Y-88368297D01*
X87713816Y-88401000D01*
X87546184Y-88401000D01*
X87381772Y-88368297D01*
X87226900Y-88304147D01*
X87087519Y-88211015D01*
X86968985Y-88092481D01*
X86875853Y-87953100D01*
X86811703Y-87798228D01*
X86779000Y-87633816D01*
X86779000Y-87466184D01*
X86811703Y-87301772D01*
X86875853Y-87146900D01*
X86968985Y-87007519D01*
X87087519Y-86888985D01*
X87226900Y-86795853D01*
X87381772Y-86731703D01*
X87546184Y-86699000D01*
X87713816Y-86699000D01*
X87878228Y-86731703D01*
X87878228Y-86731703D01*
G37*
G36*
X158490466Y-84752344D02*
G01*
X158628322Y-84779765D01*
X158744556Y-84827911D01*
X158868727Y-84879344D01*
X158868728Y-84879345D01*
X159085089Y-85023912D01*
X159269088Y-85207911D01*
X159320383Y-85284680D01*
X159413656Y-85424273D01*
X159426343Y-85454903D01*
X159513235Y-85664678D01*
X159516794Y-85682571D01*
X159564000Y-85919891D01*
X159564000Y-86180109D01*
X159560317Y-86198623D01*
X159513235Y-86435322D01*
X159481437Y-86512088D01*
X159413656Y-86675727D01*
X159413655Y-86675728D01*
X159269088Y-86892089D01*
X159085089Y-87076088D01*
X158979111Y-87146900D01*
X158868727Y-87220656D01*
X158812369Y-87244000D01*
X158628322Y-87320235D01*
X158500714Y-87345618D01*
X158373109Y-87371000D01*
X158112891Y-87371000D01*
X157985286Y-87345618D01*
X157857678Y-87320235D01*
X157673631Y-87244000D01*
X157617273Y-87220656D01*
X157506889Y-87146900D01*
X157400911Y-87076088D01*
X157216912Y-86892089D01*
X157072345Y-86675728D01*
X157072344Y-86675727D01*
X157004563Y-86512088D01*
X156972765Y-86435322D01*
X156925683Y-86198623D01*
X156922000Y-86180109D01*
X156922000Y-85919891D01*
X156969206Y-85682571D01*
X156972765Y-85664678D01*
X157059657Y-85454903D01*
X157072344Y-85424273D01*
X157165617Y-85284680D01*
X157216912Y-85207911D01*
X157400911Y-85023912D01*
X157617272Y-84879345D01*
X157617273Y-84879344D01*
X157741444Y-84827911D01*
X157857678Y-84779765D01*
X157995534Y-84752344D01*
X158112891Y-84729000D01*
X158373109Y-84729000D01*
X158490466Y-84752344D01*
X158490466Y-84752344D01*
G37*
G36*
X174876494Y-84626344D02*
G01*
X175009322Y-84652765D01*
X175150148Y-84711097D01*
X175249727Y-84752344D01*
X175249728Y-84752345D01*
X175466089Y-84896912D01*
X175650088Y-85080911D01*
X175746685Y-85225479D01*
X175794656Y-85297273D01*
X175835903Y-85396852D01*
X175894235Y-85537678D01*
X175900659Y-85569975D01*
X175945000Y-85792891D01*
X175945000Y-86053109D01*
X175943288Y-86061715D01*
X175894235Y-86308322D01*
X175835903Y-86449148D01*
X175794656Y-86548727D01*
X175794655Y-86548728D01*
X175650088Y-86765089D01*
X175466089Y-86949088D01*
X175321521Y-87045685D01*
X175249727Y-87093656D01*
X175150148Y-87134903D01*
X175009322Y-87193235D01*
X174881715Y-87218617D01*
X174754109Y-87244000D01*
X174493891Y-87244000D01*
X174366285Y-87218617D01*
X174238678Y-87193235D01*
X174097852Y-87134903D01*
X173998273Y-87093656D01*
X173926479Y-87045685D01*
X173781911Y-86949088D01*
X173597912Y-86765089D01*
X173453345Y-86548728D01*
X173453344Y-86548727D01*
X173412097Y-86449148D01*
X173353765Y-86308322D01*
X173304712Y-86061715D01*
X173303000Y-86053109D01*
X173303000Y-85792891D01*
X173347341Y-85569975D01*
X173353765Y-85537678D01*
X173412097Y-85396852D01*
X173453344Y-85297273D01*
X173501315Y-85225479D01*
X173597912Y-85080911D01*
X173781911Y-84896912D01*
X173998272Y-84752345D01*
X173998273Y-84752344D01*
X174097852Y-84711097D01*
X174238678Y-84652765D01*
X174371506Y-84626344D01*
X174493891Y-84602000D01*
X174754109Y-84602000D01*
X174876494Y-84626344D01*
X174876494Y-84626344D01*
G37*
G36*
X52236823Y-85521313D02*
G01*
X52397242Y-85569976D01*
X52529906Y-85640886D01*
X52545078Y-85648996D01*
X52674659Y-85755341D01*
X52781004Y-85884922D01*
X52781005Y-85884924D01*
X52860024Y-86032758D01*
X52908687Y-86193177D01*
X52925117Y-86360000D01*
X52908687Y-86526823D01*
X52860024Y-86687242D01*
X52853739Y-86699000D01*
X52781004Y-86835078D01*
X52674659Y-86964659D01*
X52545078Y-87071004D01*
X52545076Y-87071005D01*
X52397242Y-87150024D01*
X52236823Y-87198687D01*
X52111804Y-87211000D01*
X52028196Y-87211000D01*
X51903177Y-87198687D01*
X51742758Y-87150024D01*
X51594924Y-87071005D01*
X51594922Y-87071004D01*
X51465341Y-86964659D01*
X51358996Y-86835078D01*
X51286261Y-86699000D01*
X51279976Y-86687242D01*
X51231313Y-86526823D01*
X51214883Y-86360000D01*
X51231313Y-86193177D01*
X51279976Y-86032758D01*
X51358995Y-85884924D01*
X51358996Y-85884922D01*
X51465341Y-85755341D01*
X51594922Y-85648996D01*
X51610094Y-85640886D01*
X51742758Y-85569976D01*
X51903177Y-85521313D01*
X52028196Y-85509000D01*
X52111804Y-85509000D01*
X52236823Y-85521313D01*
X52236823Y-85521313D01*
G37*
G36*
X100187839Y-84497429D02*
G01*
X100335322Y-84526765D01*
X100476148Y-84585097D01*
X100575727Y-84626344D01*
X100575728Y-84626345D01*
X100792089Y-84770912D01*
X100976088Y-84954911D01*
X101035797Y-85044272D01*
X101120656Y-85171273D01*
X101135832Y-85207912D01*
X101220235Y-85411678D01*
X101220235Y-85411680D01*
X101271000Y-85666891D01*
X101271000Y-85927109D01*
X101245937Y-86053107D01*
X101220235Y-86182322D01*
X101174421Y-86292925D01*
X101120656Y-86422727D01*
X101112240Y-86435322D01*
X100976088Y-86639089D01*
X100792089Y-86823088D01*
X100688821Y-86892089D01*
X100575727Y-86967656D01*
X100519369Y-86991000D01*
X100335322Y-87067235D01*
X100207715Y-87092617D01*
X100080109Y-87118000D01*
X99819891Y-87118000D01*
X99692286Y-87092618D01*
X99564678Y-87067235D01*
X99380631Y-86991000D01*
X99324273Y-86967656D01*
X99211179Y-86892089D01*
X99107911Y-86823088D01*
X98923912Y-86639089D01*
X98787760Y-86435322D01*
X98779344Y-86422727D01*
X98725579Y-86292925D01*
X98679765Y-86182322D01*
X98654063Y-86053107D01*
X98629000Y-85927109D01*
X98629000Y-85666891D01*
X98679765Y-85411680D01*
X98679765Y-85411678D01*
X98764168Y-85207912D01*
X98779344Y-85171273D01*
X98864203Y-85044272D01*
X98923912Y-84954911D01*
X99107911Y-84770912D01*
X99324272Y-84626345D01*
X99324273Y-84626344D01*
X99423852Y-84585097D01*
X99564678Y-84526765D01*
X99712161Y-84497429D01*
X99819891Y-84476000D01*
X100080109Y-84476000D01*
X100187839Y-84497429D01*
X100187839Y-84497429D01*
G37*
G36*
X60634839Y-84497429D02*
G01*
X60782322Y-84526765D01*
X60923148Y-84585097D01*
X61022727Y-84626344D01*
X61022728Y-84626345D01*
X61239089Y-84770912D01*
X61423088Y-84954911D01*
X61482797Y-85044272D01*
X61567656Y-85171273D01*
X61582832Y-85207912D01*
X61667235Y-85411678D01*
X61667235Y-85411680D01*
X61718000Y-85666891D01*
X61718000Y-85927109D01*
X61692937Y-86053107D01*
X61667235Y-86182322D01*
X61621421Y-86292925D01*
X61567656Y-86422727D01*
X61559240Y-86435322D01*
X61423088Y-86639089D01*
X61239089Y-86823088D01*
X61135821Y-86892089D01*
X61022727Y-86967656D01*
X60966369Y-86991000D01*
X60782322Y-87067235D01*
X60654714Y-87092618D01*
X60527109Y-87118000D01*
X60266891Y-87118000D01*
X60139286Y-87092618D01*
X60011678Y-87067235D01*
X59827631Y-86991000D01*
X59771273Y-86967656D01*
X59658179Y-86892089D01*
X59554911Y-86823088D01*
X59370912Y-86639089D01*
X59234760Y-86435322D01*
X59226344Y-86422727D01*
X59172579Y-86292925D01*
X59126765Y-86182322D01*
X59101063Y-86053107D01*
X59076000Y-85927109D01*
X59076000Y-85666891D01*
X59126765Y-85411680D01*
X59126765Y-85411678D01*
X59211168Y-85207912D01*
X59226344Y-85171273D01*
X59311203Y-85044272D01*
X59370912Y-84954911D01*
X59554911Y-84770912D01*
X59771272Y-84626345D01*
X59771273Y-84626344D01*
X59870852Y-84585097D01*
X60011678Y-84526765D01*
X60159161Y-84497429D01*
X60266891Y-84476000D01*
X60527109Y-84476000D01*
X60634839Y-84497429D01*
X60634839Y-84497429D01*
G37*
G36*
X77035715Y-84374383D02*
G01*
X77163322Y-84399765D01*
X77304148Y-84458097D01*
X77403727Y-84499344D01*
X77403728Y-84499345D01*
X77620089Y-84643912D01*
X77804088Y-84827911D01*
X77888946Y-84954911D01*
X77948656Y-85044273D01*
X77989903Y-85143852D01*
X78048235Y-85284678D01*
X78048235Y-85284680D01*
X78099000Y-85539891D01*
X78099000Y-85800109D01*
X78082129Y-85884924D01*
X78048235Y-86055322D01*
X77991134Y-86193175D01*
X77948656Y-86295727D01*
X77905710Y-86360000D01*
X77804088Y-86512089D01*
X77620089Y-86696088D01*
X77516821Y-86765089D01*
X77403727Y-86840656D01*
X77304148Y-86881903D01*
X77163322Y-86940235D01*
X77040533Y-86964659D01*
X76908109Y-86991000D01*
X76647891Y-86991000D01*
X76515467Y-86964659D01*
X76392678Y-86940235D01*
X76251852Y-86881903D01*
X76152273Y-86840656D01*
X76039179Y-86765089D01*
X75935911Y-86696088D01*
X75751912Y-86512089D01*
X75650290Y-86360000D01*
X75607344Y-86295727D01*
X75564866Y-86193175D01*
X75507765Y-86055322D01*
X75473871Y-85884924D01*
X75457000Y-85800109D01*
X75457000Y-85539891D01*
X75507765Y-85284680D01*
X75507765Y-85284678D01*
X75566097Y-85143852D01*
X75607344Y-85044273D01*
X75667054Y-84954911D01*
X75751912Y-84827911D01*
X75935911Y-84643912D01*
X76152272Y-84499345D01*
X76152273Y-84499344D01*
X76251852Y-84458097D01*
X76392678Y-84399765D01*
X76520285Y-84374383D01*
X76647891Y-84349000D01*
X76908109Y-84349000D01*
X77035715Y-84374383D01*
X77035715Y-84374383D01*
G37*
G36*
X116588715Y-84374383D02*
G01*
X116716322Y-84399765D01*
X116857148Y-84458097D01*
X116956727Y-84499344D01*
X116956728Y-84499345D01*
X117173089Y-84643912D01*
X117357088Y-84827911D01*
X117441946Y-84954911D01*
X117501656Y-85044273D01*
X117542903Y-85143852D01*
X117601235Y-85284678D01*
X117601235Y-85284680D01*
X117652000Y-85539891D01*
X117652000Y-85800109D01*
X117635129Y-85884924D01*
X117601235Y-86055322D01*
X117544134Y-86193175D01*
X117501656Y-86295727D01*
X117458710Y-86360000D01*
X117357088Y-86512089D01*
X117173089Y-86696088D01*
X117069821Y-86765089D01*
X116956727Y-86840656D01*
X116857148Y-86881903D01*
X116716322Y-86940235D01*
X116593533Y-86964659D01*
X116461109Y-86991000D01*
X116200891Y-86991000D01*
X116068467Y-86964659D01*
X115945678Y-86940235D01*
X115804852Y-86881903D01*
X115705273Y-86840656D01*
X115592179Y-86765089D01*
X115488911Y-86696088D01*
X115304912Y-86512089D01*
X115203290Y-86360000D01*
X115160344Y-86295727D01*
X115117866Y-86193175D01*
X115060765Y-86055322D01*
X115026871Y-85884924D01*
X115010000Y-85800109D01*
X115010000Y-85539891D01*
X115060765Y-85284680D01*
X115060765Y-85284678D01*
X115119097Y-85143852D01*
X115160344Y-85044273D01*
X115220054Y-84954911D01*
X115304912Y-84827911D01*
X115488911Y-84643912D01*
X115705272Y-84499345D01*
X115705273Y-84499344D01*
X115804852Y-84458097D01*
X115945678Y-84399765D01*
X116073285Y-84374383D01*
X116200891Y-84349000D01*
X116461109Y-84349000D01*
X116588715Y-84374383D01*
X116588715Y-84374383D01*
G37*
G36*
X226041000Y-86341000D02*
G01*
X223539000Y-86341000D01*
X223539000Y-83839000D01*
X226041000Y-83839000D01*
X226041000Y-86341000D01*
X226041000Y-86341000D01*
G37*
G36*
X232654903Y-83887075D02*
G01*
X232882571Y-83981378D01*
X233087466Y-84118285D01*
X233261715Y-84292534D01*
X233398622Y-84497429D01*
X233398623Y-84497431D01*
X233492925Y-84725097D01*
X233541000Y-84966786D01*
X233541000Y-85213214D01*
X233501523Y-85411678D01*
X233492925Y-85454903D01*
X233398622Y-85682571D01*
X233261715Y-85887466D01*
X233087466Y-86061715D01*
X232882571Y-86198622D01*
X232882570Y-86198623D01*
X232882569Y-86198623D01*
X232654903Y-86292925D01*
X232413214Y-86341000D01*
X232166786Y-86341000D01*
X231925097Y-86292925D01*
X231697431Y-86198623D01*
X231697430Y-86198623D01*
X231697429Y-86198622D01*
X231492534Y-86061715D01*
X231318285Y-85887466D01*
X231181378Y-85682571D01*
X231087075Y-85454903D01*
X231078477Y-85411678D01*
X231039000Y-85213214D01*
X231039000Y-84966786D01*
X231087075Y-84725097D01*
X231181377Y-84497431D01*
X231181378Y-84497429D01*
X231318285Y-84292534D01*
X231492534Y-84118285D01*
X231697429Y-83981378D01*
X231925097Y-83887075D01*
X232166786Y-83839000D01*
X232413214Y-83839000D01*
X232654903Y-83887075D01*
X232654903Y-83887075D01*
G37*
G36*
X207565999Y-86041000D02*
G01*
X205663999Y-86041000D01*
X205663999Y-84139000D01*
X207565999Y-84139000D01*
X207565999Y-86041000D01*
X207565999Y-86041000D01*
G37*
G36*
X196641424Y-84152760D02*
G01*
X196641427Y-84152761D01*
X196641428Y-84152761D01*
X196820692Y-84207140D01*
X196820695Y-84207142D01*
X196820696Y-84207142D01*
X196985902Y-84295446D01*
X197130711Y-84414288D01*
X197249553Y-84559097D01*
X197294887Y-84643912D01*
X197337859Y-84724307D01*
X197369287Y-84827912D01*
X197392239Y-84903575D01*
X197410600Y-85090000D01*
X197392239Y-85276425D01*
X197392238Y-85276428D01*
X197392238Y-85276429D01*
X197337859Y-85455693D01*
X197337857Y-85455696D01*
X197337857Y-85455697D01*
X197249553Y-85620903D01*
X197130711Y-85765712D01*
X196985902Y-85884554D01*
X196820696Y-85972858D01*
X196820692Y-85972860D01*
X196641428Y-86027239D01*
X196641427Y-86027239D01*
X196641424Y-86027240D01*
X196501717Y-86041000D01*
X196408281Y-86041000D01*
X196268574Y-86027240D01*
X196268571Y-86027239D01*
X196268570Y-86027239D01*
X196089306Y-85972860D01*
X196089302Y-85972858D01*
X195924096Y-85884554D01*
X195779287Y-85765712D01*
X195660445Y-85620903D01*
X195572141Y-85455697D01*
X195572141Y-85455696D01*
X195572139Y-85455693D01*
X195517760Y-85276429D01*
X195517760Y-85276428D01*
X195517759Y-85276425D01*
X195499398Y-85090000D01*
X195517759Y-84903575D01*
X195540711Y-84827912D01*
X195572139Y-84724307D01*
X195615111Y-84643912D01*
X195660445Y-84559097D01*
X195779287Y-84414288D01*
X195924096Y-84295446D01*
X196089302Y-84207142D01*
X196089303Y-84207142D01*
X196089306Y-84207140D01*
X196268570Y-84152761D01*
X196268571Y-84152761D01*
X196268574Y-84152760D01*
X196408281Y-84139000D01*
X196501717Y-84139000D01*
X196641424Y-84152760D01*
X196641424Y-84152760D01*
G37*
G36*
X87878228Y-81731703D02*
G01*
X88033100Y-81795853D01*
X88172481Y-81888985D01*
X88291015Y-82007519D01*
X88384147Y-82146900D01*
X88448297Y-82301772D01*
X88481000Y-82466184D01*
X88481000Y-82633816D01*
X88448297Y-82798228D01*
X88384147Y-82953100D01*
X88291015Y-83092481D01*
X88172481Y-83211015D01*
X88033100Y-83304147D01*
X87878228Y-83368297D01*
X87713816Y-83401000D01*
X87546184Y-83401000D01*
X87381772Y-83368297D01*
X87226900Y-83304147D01*
X87087519Y-83211015D01*
X86968985Y-83092481D01*
X86875853Y-82953100D01*
X86811703Y-82798228D01*
X86779000Y-82633816D01*
X86779000Y-82466184D01*
X86811703Y-82301772D01*
X86875853Y-82146900D01*
X86968985Y-82007519D01*
X87087519Y-81888985D01*
X87226900Y-81795853D01*
X87381772Y-81731703D01*
X87546184Y-81699000D01*
X87713816Y-81699000D01*
X87878228Y-81731703D01*
X87878228Y-81731703D01*
G37*
G36*
X174621466Y-79248344D02*
G01*
X174759322Y-79275765D01*
X174875556Y-79323911D01*
X174999727Y-79375344D01*
X175071521Y-79423315D01*
X175216089Y-79519912D01*
X175400088Y-79703911D01*
X175482136Y-79826705D01*
X175544656Y-79920273D01*
X175571046Y-79983985D01*
X175644235Y-80160678D01*
X175669618Y-80288286D01*
X175695000Y-80415891D01*
X175695000Y-80676109D01*
X175684516Y-80728815D01*
X175644235Y-80931322D01*
X175612437Y-81008088D01*
X175544656Y-81171727D01*
X175544655Y-81171728D01*
X175400088Y-81388089D01*
X175216089Y-81572088D01*
X175071521Y-81668685D01*
X174999727Y-81716656D01*
X174943369Y-81740000D01*
X174759322Y-81816235D01*
X174631714Y-81841618D01*
X174504109Y-81867000D01*
X174243891Y-81867000D01*
X174116286Y-81841618D01*
X173988678Y-81816235D01*
X173804631Y-81740000D01*
X173748273Y-81716656D01*
X173676479Y-81668685D01*
X173531911Y-81572088D01*
X173347912Y-81388089D01*
X173203345Y-81171728D01*
X173203344Y-81171727D01*
X173135563Y-81008088D01*
X173103765Y-80931322D01*
X173063484Y-80728815D01*
X173053000Y-80676109D01*
X173053000Y-80415891D01*
X173078382Y-80288286D01*
X173103765Y-80160678D01*
X173176954Y-79983985D01*
X173203344Y-79920273D01*
X173265864Y-79826705D01*
X173347912Y-79703911D01*
X173531911Y-79519912D01*
X173676479Y-79423315D01*
X173748273Y-79375344D01*
X173872444Y-79323911D01*
X173988678Y-79275765D01*
X174126534Y-79248344D01*
X174243891Y-79225000D01*
X174504109Y-79225000D01*
X174621466Y-79248344D01*
X174621466Y-79248344D01*
G37*
G36*
X158618494Y-79122344D02*
G01*
X158751322Y-79148765D01*
X158892148Y-79207097D01*
X158991727Y-79248344D01*
X158991728Y-79248345D01*
X159208089Y-79392912D01*
X159392088Y-79576911D01*
X159476946Y-79703911D01*
X159536656Y-79793273D01*
X159575390Y-79886786D01*
X159636235Y-80033678D01*
X159656034Y-80133214D01*
X159687000Y-80288891D01*
X159687000Y-80549109D01*
X159661738Y-80676107D01*
X159636235Y-80804322D01*
X159577903Y-80945148D01*
X159536656Y-81044727D01*
X159536655Y-81044728D01*
X159392088Y-81261089D01*
X159208089Y-81445088D01*
X159131893Y-81496000D01*
X158991727Y-81589656D01*
X158892148Y-81630903D01*
X158751322Y-81689235D01*
X158623715Y-81714617D01*
X158496109Y-81740000D01*
X158235891Y-81740000D01*
X158108285Y-81714617D01*
X157980678Y-81689235D01*
X157839852Y-81630903D01*
X157740273Y-81589656D01*
X157600107Y-81496000D01*
X157523911Y-81445088D01*
X157339912Y-81261089D01*
X157195345Y-81044728D01*
X157195344Y-81044727D01*
X157154097Y-80945148D01*
X157095765Y-80804322D01*
X157070262Y-80676107D01*
X157045000Y-80549109D01*
X157045000Y-80288891D01*
X157075966Y-80133214D01*
X157095765Y-80033678D01*
X157156610Y-79886786D01*
X157195344Y-79793273D01*
X157255054Y-79703911D01*
X157339912Y-79576911D01*
X157523911Y-79392912D01*
X157740272Y-79248345D01*
X157740273Y-79248344D01*
X157839852Y-79207097D01*
X157980678Y-79148765D01*
X158113506Y-79122344D01*
X158235891Y-79098000D01*
X158496109Y-79098000D01*
X158618494Y-79122344D01*
X158618494Y-79122344D01*
G37*
G36*
X116328466Y-78995344D02*
G01*
X116466322Y-79022765D01*
X116607148Y-79081097D01*
X116706727Y-79122344D01*
X116706728Y-79122345D01*
X116923089Y-79266912D01*
X117107088Y-79450911D01*
X117166797Y-79540272D01*
X117251656Y-79667273D01*
X117266832Y-79703912D01*
X117351235Y-79907678D01*
X117354248Y-79922825D01*
X117402000Y-80162891D01*
X117402000Y-80423109D01*
X117377550Y-80546025D01*
X117351235Y-80678322D01*
X117304261Y-80791727D01*
X117251656Y-80918727D01*
X117243240Y-80931322D01*
X117107088Y-81135089D01*
X116923089Y-81319088D01*
X116803270Y-81399148D01*
X116706727Y-81463656D01*
X116650369Y-81487000D01*
X116466322Y-81563235D01*
X116338715Y-81588617D01*
X116211109Y-81614000D01*
X115950891Y-81614000D01*
X115823285Y-81588617D01*
X115695678Y-81563235D01*
X115511631Y-81487000D01*
X115455273Y-81463656D01*
X115358730Y-81399148D01*
X115238911Y-81319088D01*
X115054912Y-81135089D01*
X114918760Y-80931322D01*
X114910344Y-80918727D01*
X114857739Y-80791727D01*
X114810765Y-80678322D01*
X114784450Y-80546025D01*
X114760000Y-80423109D01*
X114760000Y-80162891D01*
X114807752Y-79922825D01*
X114810765Y-79907678D01*
X114895168Y-79703912D01*
X114910344Y-79667273D01*
X114995203Y-79540272D01*
X115054912Y-79450911D01*
X115238911Y-79266912D01*
X115455272Y-79122345D01*
X115455273Y-79122344D01*
X115554852Y-79081097D01*
X115695678Y-79022765D01*
X115833534Y-78995344D01*
X115950891Y-78972000D01*
X116211109Y-78972000D01*
X116328466Y-78995344D01*
X116328466Y-78995344D01*
G37*
G36*
X76775466Y-78995344D02*
G01*
X76913322Y-79022765D01*
X77054148Y-79081097D01*
X77153727Y-79122344D01*
X77153728Y-79122345D01*
X77370089Y-79266912D01*
X77554088Y-79450911D01*
X77613797Y-79540272D01*
X77698656Y-79667273D01*
X77713832Y-79703912D01*
X77798235Y-79907678D01*
X77801248Y-79922825D01*
X77849000Y-80162891D01*
X77849000Y-80423109D01*
X77824550Y-80546025D01*
X77798235Y-80678322D01*
X77751261Y-80791727D01*
X77698656Y-80918727D01*
X77690240Y-80931322D01*
X77554088Y-81135089D01*
X77370089Y-81319088D01*
X77250270Y-81399148D01*
X77153727Y-81463656D01*
X77097369Y-81487000D01*
X76913322Y-81563235D01*
X76785715Y-81588617D01*
X76658109Y-81614000D01*
X76397891Y-81614000D01*
X76270285Y-81588617D01*
X76142678Y-81563235D01*
X75958631Y-81487000D01*
X75902273Y-81463656D01*
X75805730Y-81399148D01*
X75685911Y-81319088D01*
X75501912Y-81135089D01*
X75365760Y-80931322D01*
X75357344Y-80918727D01*
X75304739Y-80791727D01*
X75257765Y-80678322D01*
X75231450Y-80546025D01*
X75207000Y-80423109D01*
X75207000Y-80162891D01*
X75254752Y-79922825D01*
X75257765Y-79907678D01*
X75342168Y-79703912D01*
X75357344Y-79667273D01*
X75442203Y-79540272D01*
X75501912Y-79450911D01*
X75685911Y-79266912D01*
X75902272Y-79122345D01*
X75902273Y-79122344D01*
X76001852Y-79081097D01*
X76142678Y-79022765D01*
X76280534Y-78995344D01*
X76397891Y-78972000D01*
X76658109Y-78972000D01*
X76775466Y-78995344D01*
X76775466Y-78995344D01*
G37*
G36*
X184993228Y-79826703D02*
G01*
X185148100Y-79890853D01*
X185287481Y-79983985D01*
X185406015Y-80102519D01*
X185499147Y-80241900D01*
X185563297Y-80396772D01*
X185596000Y-80561184D01*
X185596000Y-80728816D01*
X185563297Y-80893228D01*
X185499147Y-81048100D01*
X185406015Y-81187481D01*
X185287481Y-81306015D01*
X185148100Y-81399147D01*
X184993228Y-81463297D01*
X184828816Y-81496000D01*
X184661184Y-81496000D01*
X184496772Y-81463297D01*
X184341900Y-81399147D01*
X184202519Y-81306015D01*
X184083985Y-81187481D01*
X183990853Y-81048100D01*
X183926703Y-80893228D01*
X183894000Y-80728816D01*
X183894000Y-80561184D01*
X183926703Y-80396772D01*
X183990853Y-80241900D01*
X184083985Y-80102519D01*
X184202519Y-79983985D01*
X184341900Y-79890853D01*
X184496772Y-79826703D01*
X184661184Y-79794000D01*
X184828816Y-79794000D01*
X184993228Y-79826703D01*
X184993228Y-79826703D01*
G37*
G36*
X183096000Y-81496000D02*
G01*
X181394000Y-81496000D01*
X181394000Y-79794000D01*
X183096000Y-79794000D01*
X183096000Y-81496000D01*
X183096000Y-81496000D01*
G37*
G36*
X100330714Y-78870382D02*
G01*
X100458322Y-78895765D01*
X100599148Y-78954097D01*
X100698727Y-78995344D01*
X100698728Y-78995345D01*
X100915089Y-79139912D01*
X101099088Y-79323911D01*
X101169144Y-79428758D01*
X101243656Y-79540273D01*
X101284903Y-79639852D01*
X101343235Y-79780678D01*
X101343235Y-79780680D01*
X101393560Y-80033678D01*
X101394000Y-80035893D01*
X101394000Y-80296107D01*
X101343235Y-80551322D01*
X101284903Y-80692148D01*
X101243656Y-80791727D01*
X101195685Y-80863521D01*
X101099088Y-81008089D01*
X100915089Y-81192088D01*
X100811821Y-81261089D01*
X100698727Y-81336656D01*
X100599148Y-81377903D01*
X100458322Y-81436235D01*
X100330714Y-81461618D01*
X100203109Y-81487000D01*
X99942891Y-81487000D01*
X99815286Y-81461618D01*
X99687678Y-81436235D01*
X99546852Y-81377903D01*
X99447273Y-81336656D01*
X99334179Y-81261089D01*
X99230911Y-81192088D01*
X99046912Y-81008089D01*
X98950315Y-80863521D01*
X98902344Y-80791727D01*
X98861097Y-80692148D01*
X98802765Y-80551322D01*
X98752000Y-80296107D01*
X98752000Y-80035893D01*
X98752441Y-80033678D01*
X98802765Y-79780680D01*
X98802765Y-79780678D01*
X98861097Y-79639852D01*
X98902344Y-79540273D01*
X98976856Y-79428758D01*
X99046912Y-79323911D01*
X99230911Y-79139912D01*
X99447272Y-78995345D01*
X99447273Y-78995344D01*
X99546852Y-78954097D01*
X99687678Y-78895765D01*
X99815286Y-78870382D01*
X99942891Y-78845000D01*
X100203109Y-78845000D01*
X100330714Y-78870382D01*
X100330714Y-78870382D01*
G37*
G36*
X60777714Y-78870382D02*
G01*
X60905322Y-78895765D01*
X61046148Y-78954097D01*
X61145727Y-78995344D01*
X61145728Y-78995345D01*
X61362089Y-79139912D01*
X61546088Y-79323911D01*
X61616144Y-79428758D01*
X61690656Y-79540273D01*
X61731903Y-79639852D01*
X61790235Y-79780678D01*
X61790235Y-79780680D01*
X61840560Y-80033678D01*
X61841000Y-80035893D01*
X61841000Y-80296107D01*
X61790235Y-80551322D01*
X61731903Y-80692148D01*
X61690656Y-80791727D01*
X61642685Y-80863521D01*
X61546088Y-81008089D01*
X61362089Y-81192088D01*
X61258821Y-81261089D01*
X61145727Y-81336656D01*
X61046148Y-81377903D01*
X60905322Y-81436235D01*
X60777714Y-81461618D01*
X60650109Y-81487000D01*
X60389891Y-81487000D01*
X60262286Y-81461618D01*
X60134678Y-81436235D01*
X59993852Y-81377903D01*
X59894273Y-81336656D01*
X59781179Y-81261089D01*
X59677911Y-81192088D01*
X59493912Y-81008089D01*
X59397315Y-80863521D01*
X59349344Y-80791727D01*
X59308097Y-80692148D01*
X59249765Y-80551322D01*
X59199000Y-80296107D01*
X59199000Y-80035893D01*
X59199441Y-80033678D01*
X59249765Y-79780680D01*
X59249765Y-79780678D01*
X59308097Y-79639852D01*
X59349344Y-79540273D01*
X59423856Y-79428758D01*
X59493912Y-79323911D01*
X59677911Y-79139912D01*
X59894272Y-78995345D01*
X59894273Y-78995344D01*
X59993852Y-78954097D01*
X60134678Y-78895765D01*
X60262286Y-78870382D01*
X60389891Y-78845000D01*
X60650109Y-78845000D01*
X60777714Y-78870382D01*
X60777714Y-78870382D01*
G37*
G36*
X214994903Y-78807075D02*
G01*
X215218168Y-78899554D01*
X215222571Y-78901378D01*
X215427466Y-79038285D01*
X215601715Y-79212534D01*
X215710502Y-79375345D01*
X215738623Y-79417431D01*
X215832925Y-79645097D01*
X215881000Y-79886786D01*
X215881000Y-80133214D01*
X215832925Y-80374903D01*
X215760768Y-80549107D01*
X215738622Y-80602571D01*
X215601715Y-80807466D01*
X215427466Y-80981715D01*
X215222571Y-81118622D01*
X215222570Y-81118623D01*
X215222569Y-81118623D01*
X214994903Y-81212925D01*
X214753214Y-81261000D01*
X214506786Y-81261000D01*
X214265097Y-81212925D01*
X214037431Y-81118623D01*
X214037430Y-81118623D01*
X214037429Y-81118622D01*
X213832534Y-80981715D01*
X213658285Y-80807466D01*
X213521378Y-80602571D01*
X213499233Y-80549107D01*
X213427075Y-80374903D01*
X213379000Y-80133214D01*
X213379000Y-79886786D01*
X213427075Y-79645097D01*
X213521377Y-79417431D01*
X213549498Y-79375345D01*
X213658285Y-79212534D01*
X213832534Y-79038285D01*
X214037429Y-78901378D01*
X214041833Y-78899554D01*
X214265097Y-78807075D01*
X214506786Y-78759000D01*
X214753214Y-78759000D01*
X214994903Y-78807075D01*
X214994903Y-78807075D01*
G37*
G36*
X130976823Y-78917313D02*
G01*
X131137242Y-78965976D01*
X131269906Y-79036886D01*
X131285078Y-79044996D01*
X131414659Y-79151341D01*
X131521004Y-79280922D01*
X131521005Y-79280924D01*
X131600024Y-79428758D01*
X131648687Y-79589177D01*
X131665117Y-79756000D01*
X131648687Y-79922823D01*
X131600024Y-80083242D01*
X131529114Y-80215906D01*
X131521004Y-80231078D01*
X131414659Y-80360659D01*
X131285078Y-80467004D01*
X131285076Y-80467005D01*
X131137242Y-80546024D01*
X130976823Y-80594687D01*
X130851804Y-80607000D01*
X130768196Y-80607000D01*
X130643177Y-80594687D01*
X130482758Y-80546024D01*
X130334924Y-80467005D01*
X130334922Y-80467004D01*
X130205341Y-80360659D01*
X130098996Y-80231078D01*
X130090886Y-80215906D01*
X130019976Y-80083242D01*
X129971313Y-79922823D01*
X129954883Y-79756000D01*
X129971313Y-79589177D01*
X130019976Y-79428758D01*
X130098995Y-79280924D01*
X130098996Y-79280922D01*
X130205341Y-79151341D01*
X130334922Y-79044996D01*
X130350094Y-79036886D01*
X130482758Y-78965976D01*
X130643177Y-78917313D01*
X130768196Y-78905000D01*
X130851804Y-78905000D01*
X130976823Y-78917313D01*
X130976823Y-78917313D01*
G37*
G36*
X125896823Y-78917313D02*
G01*
X126057242Y-78965976D01*
X126189906Y-79036886D01*
X126205078Y-79044996D01*
X126334659Y-79151341D01*
X126441004Y-79280922D01*
X126441005Y-79280924D01*
X126520024Y-79428758D01*
X126568687Y-79589177D01*
X126585117Y-79756000D01*
X126568687Y-79922823D01*
X126520024Y-80083242D01*
X126449114Y-80215906D01*
X126441004Y-80231078D01*
X126334659Y-80360659D01*
X126205078Y-80467004D01*
X126205076Y-80467005D01*
X126057242Y-80546024D01*
X125896823Y-80594687D01*
X125771804Y-80607000D01*
X125688196Y-80607000D01*
X125563177Y-80594687D01*
X125402758Y-80546024D01*
X125254924Y-80467005D01*
X125254922Y-80467004D01*
X125125341Y-80360659D01*
X125018996Y-80231078D01*
X125010886Y-80215906D01*
X124939976Y-80083242D01*
X124891313Y-79922823D01*
X124874883Y-79756000D01*
X124891313Y-79589177D01*
X124939976Y-79428758D01*
X125018995Y-79280924D01*
X125018996Y-79280922D01*
X125125341Y-79151341D01*
X125254922Y-79044996D01*
X125270094Y-79036886D01*
X125402758Y-78965976D01*
X125563177Y-78917313D01*
X125688196Y-78905000D01*
X125771804Y-78905000D01*
X125896823Y-78917313D01*
X125896823Y-78917313D01*
G37*
G36*
X206801424Y-77167760D02*
G01*
X206801427Y-77167761D01*
X206801428Y-77167761D01*
X206980692Y-77222140D01*
X206980695Y-77222142D01*
X206980696Y-77222142D01*
X207145902Y-77310446D01*
X207290711Y-77429288D01*
X207409553Y-77574097D01*
X207496626Y-77737000D01*
X207497859Y-77739307D01*
X207552238Y-77918571D01*
X207552239Y-77918575D01*
X207570600Y-78105000D01*
X207552239Y-78291425D01*
X207552238Y-78291428D01*
X207552238Y-78291429D01*
X207497859Y-78470693D01*
X207497857Y-78470696D01*
X207497857Y-78470697D01*
X207409553Y-78635903D01*
X207290711Y-78780712D01*
X207145902Y-78899554D01*
X207010364Y-78972000D01*
X206980692Y-78987860D01*
X206801428Y-79042239D01*
X206801427Y-79042239D01*
X206801424Y-79042240D01*
X206661717Y-79056000D01*
X206568281Y-79056000D01*
X206428574Y-79042240D01*
X206428571Y-79042239D01*
X206428570Y-79042239D01*
X206249306Y-78987860D01*
X206219634Y-78972000D01*
X206084096Y-78899554D01*
X205939287Y-78780712D01*
X205820445Y-78635903D01*
X205732141Y-78470697D01*
X205732141Y-78470696D01*
X205732139Y-78470693D01*
X205677760Y-78291429D01*
X205677760Y-78291428D01*
X205677759Y-78291425D01*
X205659398Y-78105000D01*
X205677759Y-77918575D01*
X205677760Y-77918571D01*
X205732139Y-77739307D01*
X205733372Y-77737000D01*
X205820445Y-77574097D01*
X205939287Y-77429288D01*
X206084096Y-77310446D01*
X206249302Y-77222142D01*
X206249303Y-77222142D01*
X206249306Y-77222140D01*
X206428570Y-77167761D01*
X206428571Y-77167761D01*
X206428574Y-77167760D01*
X206568281Y-77154000D01*
X206661717Y-77154000D01*
X206801424Y-77167760D01*
X206801424Y-77167760D01*
G37*
G36*
X197405999Y-79056000D02*
G01*
X195503999Y-79056000D01*
X195503999Y-77154000D01*
X197405999Y-77154000D01*
X197405999Y-79056000D01*
X197405999Y-79056000D01*
G37*
G36*
X92958228Y-76651703D02*
G01*
X93113100Y-76715853D01*
X93252481Y-76808985D01*
X93371015Y-76927519D01*
X93464147Y-77066900D01*
X93528297Y-77221772D01*
X93561000Y-77386184D01*
X93561000Y-77553816D01*
X93528297Y-77718228D01*
X93464147Y-77873100D01*
X93371015Y-78012481D01*
X93252481Y-78131015D01*
X93113100Y-78224147D01*
X92958228Y-78288297D01*
X92793816Y-78321000D01*
X92626184Y-78321000D01*
X92461772Y-78288297D01*
X92306900Y-78224147D01*
X92167519Y-78131015D01*
X92048985Y-78012481D01*
X91955853Y-77873100D01*
X91891703Y-77718228D01*
X91859000Y-77553816D01*
X91859000Y-77386184D01*
X91891703Y-77221772D01*
X91955853Y-77066900D01*
X92048985Y-76927519D01*
X92167519Y-76808985D01*
X92306900Y-76715853D01*
X92461772Y-76651703D01*
X92626184Y-76619000D01*
X92793816Y-76619000D01*
X92958228Y-76651703D01*
X92958228Y-76651703D01*
G37*
G36*
X171885714Y-75373382D02*
G01*
X172013322Y-75398765D01*
X172154148Y-75457097D01*
X172253727Y-75498344D01*
X172317159Y-75540728D01*
X172470089Y-75642912D01*
X172654088Y-75826911D01*
X172724463Y-75932235D01*
X172798656Y-76043273D01*
X172816211Y-76085655D01*
X172898235Y-76283678D01*
X172899912Y-76292109D01*
X172949000Y-76538891D01*
X172949000Y-76799109D01*
X172936686Y-76861015D01*
X172898235Y-77054322D01*
X172856947Y-77154000D01*
X172798656Y-77294727D01*
X172750685Y-77366521D01*
X172654088Y-77511089D01*
X172470089Y-77695088D01*
X172403916Y-77739303D01*
X172253727Y-77839656D01*
X172172985Y-77873100D01*
X172013322Y-77939235D01*
X171885715Y-77964617D01*
X171758109Y-77990000D01*
X171497891Y-77990000D01*
X171370286Y-77964618D01*
X171242678Y-77939235D01*
X171083015Y-77873100D01*
X171002273Y-77839656D01*
X170852084Y-77739303D01*
X170785911Y-77695088D01*
X170601912Y-77511089D01*
X170505315Y-77366521D01*
X170457344Y-77294727D01*
X170399053Y-77154000D01*
X170357765Y-77054322D01*
X170319314Y-76861015D01*
X170307000Y-76799109D01*
X170307000Y-76538891D01*
X170356088Y-76292109D01*
X170357765Y-76283678D01*
X170439789Y-76085655D01*
X170457344Y-76043273D01*
X170531537Y-75932235D01*
X170601912Y-75826911D01*
X170785911Y-75642912D01*
X170938841Y-75540728D01*
X171002273Y-75498344D01*
X171101852Y-75457097D01*
X171242678Y-75398765D01*
X171370285Y-75373383D01*
X171497891Y-75348000D01*
X171758109Y-75348000D01*
X171885714Y-75373382D01*
X171885714Y-75373382D01*
G37*
G36*
X74039714Y-75120382D02*
G01*
X74167322Y-75145765D01*
X74308148Y-75204097D01*
X74407727Y-75245344D01*
X74471159Y-75287728D01*
X74624089Y-75389912D01*
X74808088Y-75573911D01*
X74863953Y-75657520D01*
X74952656Y-75790273D01*
X74967832Y-75826912D01*
X75052235Y-76030678D01*
X75069243Y-76116184D01*
X75103000Y-76285891D01*
X75103000Y-76546109D01*
X75088501Y-76619000D01*
X75052235Y-76801322D01*
X75027509Y-76861015D01*
X74952656Y-77041727D01*
X74944240Y-77054322D01*
X74808088Y-77258089D01*
X74624089Y-77442088D01*
X74520821Y-77511089D01*
X74407727Y-77586656D01*
X74308148Y-77627903D01*
X74167322Y-77686235D01*
X74039715Y-77711617D01*
X73912109Y-77737000D01*
X73651891Y-77737000D01*
X73524285Y-77711617D01*
X73396678Y-77686235D01*
X73255852Y-77627903D01*
X73156273Y-77586656D01*
X73043179Y-77511089D01*
X72939911Y-77442088D01*
X72755912Y-77258089D01*
X72619760Y-77054322D01*
X72611344Y-77041727D01*
X72536491Y-76861015D01*
X72511765Y-76801322D01*
X72475499Y-76619000D01*
X72461000Y-76546109D01*
X72461000Y-76285891D01*
X72494757Y-76116184D01*
X72511765Y-76030678D01*
X72596168Y-75826912D01*
X72611344Y-75790273D01*
X72700047Y-75657520D01*
X72755912Y-75573911D01*
X72939911Y-75389912D01*
X73092841Y-75287728D01*
X73156273Y-75245344D01*
X73255852Y-75204097D01*
X73396678Y-75145765D01*
X73524286Y-75120382D01*
X73651891Y-75095000D01*
X73912109Y-75095000D01*
X74039714Y-75120382D01*
X74039714Y-75120382D01*
G37*
G36*
X113592714Y-75120382D02*
G01*
X113720322Y-75145765D01*
X113861148Y-75204097D01*
X113960727Y-75245344D01*
X114024159Y-75287728D01*
X114177089Y-75389912D01*
X114361088Y-75573911D01*
X114416953Y-75657520D01*
X114505656Y-75790273D01*
X114520832Y-75826912D01*
X114605235Y-76030678D01*
X114622243Y-76116184D01*
X114656000Y-76285891D01*
X114656000Y-76546109D01*
X114641501Y-76619000D01*
X114605235Y-76801322D01*
X114580509Y-76861015D01*
X114505656Y-77041727D01*
X114497240Y-77054322D01*
X114361088Y-77258089D01*
X114177089Y-77442088D01*
X114073821Y-77511089D01*
X113960727Y-77586656D01*
X113861148Y-77627903D01*
X113720322Y-77686235D01*
X113592715Y-77711617D01*
X113465109Y-77737000D01*
X113204891Y-77737000D01*
X113077285Y-77711617D01*
X112949678Y-77686235D01*
X112808852Y-77627903D01*
X112709273Y-77586656D01*
X112596179Y-77511089D01*
X112492911Y-77442088D01*
X112308912Y-77258089D01*
X112172760Y-77054322D01*
X112164344Y-77041727D01*
X112089491Y-76861015D01*
X112064765Y-76801322D01*
X112028499Y-76619000D01*
X112014000Y-76546109D01*
X112014000Y-76285891D01*
X112047757Y-76116184D01*
X112064765Y-76030678D01*
X112149168Y-75826912D01*
X112164344Y-75790273D01*
X112253047Y-75657520D01*
X112308912Y-75573911D01*
X112492911Y-75389912D01*
X112645841Y-75287728D01*
X112709273Y-75245344D01*
X112808852Y-75204097D01*
X112949678Y-75145765D01*
X113077286Y-75120382D01*
X113204891Y-75095000D01*
X113465109Y-75095000D01*
X113592714Y-75120382D01*
X113592714Y-75120382D01*
G37*
G36*
X161623715Y-75119383D02*
G01*
X161751322Y-75144765D01*
X161892148Y-75203097D01*
X161991727Y-75244344D01*
X161993225Y-75245345D01*
X162208089Y-75388912D01*
X162392088Y-75572911D01*
X162469046Y-75688088D01*
X162536656Y-75789273D01*
X162577903Y-75888852D01*
X162636235Y-76029678D01*
X162653442Y-76116184D01*
X162687000Y-76284891D01*
X162687000Y-76545109D01*
X162675465Y-76603097D01*
X162636235Y-76800322D01*
X162577903Y-76941148D01*
X162536656Y-77040727D01*
X162535987Y-77041728D01*
X162392088Y-77257089D01*
X162208089Y-77441088D01*
X162063521Y-77537685D01*
X161991727Y-77585656D01*
X161892148Y-77626903D01*
X161751322Y-77685235D01*
X161623715Y-77710617D01*
X161496109Y-77736000D01*
X161235891Y-77736000D01*
X161108285Y-77710617D01*
X160980678Y-77685235D01*
X160839852Y-77626903D01*
X160740273Y-77585656D01*
X160668479Y-77537685D01*
X160523911Y-77441088D01*
X160339912Y-77257089D01*
X160196013Y-77041728D01*
X160195344Y-77040727D01*
X160154097Y-76941148D01*
X160095765Y-76800322D01*
X160056535Y-76603097D01*
X160045000Y-76545109D01*
X160045000Y-76284891D01*
X160078558Y-76116184D01*
X160095765Y-76029678D01*
X160154097Y-75888852D01*
X160195344Y-75789273D01*
X160262954Y-75688088D01*
X160339912Y-75572911D01*
X160523911Y-75388912D01*
X160738775Y-75245345D01*
X160740273Y-75244344D01*
X160839852Y-75203097D01*
X160980678Y-75144765D01*
X161108285Y-75119383D01*
X161235891Y-75094000D01*
X161496109Y-75094000D01*
X161623715Y-75119383D01*
X161623715Y-75119383D01*
G37*
G36*
X103330715Y-74866383D02*
G01*
X103458322Y-74891765D01*
X103599148Y-74950097D01*
X103698727Y-74991344D01*
X103698728Y-74991345D01*
X103915089Y-75135912D01*
X104099088Y-75319911D01*
X104145861Y-75389912D01*
X104243656Y-75536273D01*
X104258832Y-75572912D01*
X104343235Y-75776678D01*
X104368617Y-75904285D01*
X104393759Y-76030678D01*
X104394000Y-76031893D01*
X104394000Y-76292107D01*
X104343235Y-76547322D01*
X104299999Y-76651703D01*
X104243656Y-76787727D01*
X104235240Y-76800322D01*
X104099088Y-77004089D01*
X103915089Y-77188088D01*
X103770521Y-77284685D01*
X103698727Y-77332656D01*
X103599148Y-77373903D01*
X103458322Y-77432235D01*
X103330714Y-77457618D01*
X103203109Y-77483000D01*
X102942891Y-77483000D01*
X102815286Y-77457618D01*
X102687678Y-77432235D01*
X102546852Y-77373903D01*
X102447273Y-77332656D01*
X102375479Y-77284685D01*
X102230911Y-77188088D01*
X102046912Y-77004089D01*
X101910760Y-76800322D01*
X101902344Y-76787727D01*
X101846001Y-76651703D01*
X101802765Y-76547322D01*
X101752000Y-76292107D01*
X101752000Y-76031893D01*
X101752242Y-76030678D01*
X101777383Y-75904285D01*
X101802765Y-75776678D01*
X101887168Y-75572912D01*
X101902344Y-75536273D01*
X102000139Y-75389912D01*
X102046912Y-75319911D01*
X102230911Y-75135912D01*
X102447272Y-74991345D01*
X102447273Y-74991344D01*
X102546852Y-74950097D01*
X102687678Y-74891765D01*
X102815285Y-74866383D01*
X102942891Y-74841000D01*
X103203109Y-74841000D01*
X103330715Y-74866383D01*
X103330715Y-74866383D01*
G37*
G36*
X63777715Y-74866383D02*
G01*
X63905322Y-74891765D01*
X64046148Y-74950097D01*
X64145727Y-74991344D01*
X64145728Y-74991345D01*
X64362089Y-75135912D01*
X64546088Y-75319911D01*
X64592861Y-75389912D01*
X64690656Y-75536273D01*
X64705832Y-75572912D01*
X64790235Y-75776678D01*
X64815618Y-75904286D01*
X64840759Y-76030678D01*
X64841000Y-76031893D01*
X64841000Y-76292107D01*
X64790235Y-76547322D01*
X64746999Y-76651703D01*
X64690656Y-76787727D01*
X64682240Y-76800322D01*
X64546088Y-77004089D01*
X64362089Y-77188088D01*
X64217521Y-77284685D01*
X64145727Y-77332656D01*
X64046148Y-77373903D01*
X63905322Y-77432235D01*
X63777714Y-77457618D01*
X63650109Y-77483000D01*
X63389891Y-77483000D01*
X63262286Y-77457618D01*
X63134678Y-77432235D01*
X62993852Y-77373903D01*
X62894273Y-77332656D01*
X62822479Y-77284685D01*
X62677911Y-77188088D01*
X62493912Y-77004089D01*
X62357760Y-76800322D01*
X62349344Y-76787727D01*
X62293001Y-76651703D01*
X62249765Y-76547322D01*
X62199000Y-76292107D01*
X62199000Y-76031893D01*
X62199242Y-76030678D01*
X62224383Y-75904285D01*
X62249765Y-75776678D01*
X62334168Y-75572912D01*
X62349344Y-75536273D01*
X62447139Y-75389912D01*
X62493912Y-75319911D01*
X62677911Y-75135912D01*
X62894272Y-74991345D01*
X62894273Y-74991344D01*
X62993852Y-74950097D01*
X63134678Y-74891765D01*
X63262285Y-74866383D01*
X63389891Y-74841000D01*
X63650109Y-74841000D01*
X63777715Y-74866383D01*
X63777715Y-74866383D01*
G37*
G36*
X82878228Y-75381703D02*
G01*
X83033100Y-75445853D01*
X83172481Y-75538985D01*
X83291015Y-75657519D01*
X83384147Y-75796900D01*
X83448297Y-75951772D01*
X83481000Y-76116184D01*
X83481000Y-76283816D01*
X83448297Y-76448228D01*
X83384147Y-76603100D01*
X83291015Y-76742481D01*
X83172481Y-76861015D01*
X83033100Y-76954147D01*
X82878228Y-77018297D01*
X82713816Y-77051000D01*
X82546184Y-77051000D01*
X82381772Y-77018297D01*
X82226900Y-76954147D01*
X82087519Y-76861015D01*
X81968985Y-76742481D01*
X81875853Y-76603100D01*
X81811703Y-76448228D01*
X81779000Y-76283816D01*
X81779000Y-76116184D01*
X81811703Y-75951772D01*
X81875853Y-75796900D01*
X81968985Y-75657519D01*
X82087519Y-75538985D01*
X82226900Y-75445853D01*
X82381772Y-75381703D01*
X82546184Y-75349000D01*
X82713816Y-75349000D01*
X82878228Y-75381703D01*
X82878228Y-75381703D01*
G37*
G36*
X87878228Y-75381703D02*
G01*
X88033100Y-75445853D01*
X88172481Y-75538985D01*
X88291015Y-75657519D01*
X88384147Y-75796900D01*
X88448297Y-75951772D01*
X88481000Y-76116184D01*
X88481000Y-76283816D01*
X88448297Y-76448228D01*
X88384147Y-76603100D01*
X88291015Y-76742481D01*
X88172481Y-76861015D01*
X88033100Y-76954147D01*
X87878228Y-77018297D01*
X87713816Y-77051000D01*
X87546184Y-77051000D01*
X87381772Y-77018297D01*
X87226900Y-76954147D01*
X87087519Y-76861015D01*
X86968985Y-76742481D01*
X86875853Y-76603100D01*
X86811703Y-76448228D01*
X86779000Y-76283816D01*
X86779000Y-76116184D01*
X86811703Y-75951772D01*
X86875853Y-75796900D01*
X86968985Y-75657519D01*
X87087519Y-75538985D01*
X87226900Y-75445853D01*
X87381772Y-75381703D01*
X87546184Y-75349000D01*
X87713816Y-75349000D01*
X87878228Y-75381703D01*
X87878228Y-75381703D01*
G37*
G36*
X166627714Y-73619382D02*
G01*
X166755322Y-73644765D01*
X166896148Y-73703097D01*
X166995727Y-73744344D01*
X166995728Y-73744345D01*
X167212089Y-73888912D01*
X167396088Y-74072911D01*
X167492685Y-74217479D01*
X167540656Y-74289273D01*
X167581903Y-74388852D01*
X167640235Y-74529678D01*
X167665617Y-74657285D01*
X167691000Y-74784891D01*
X167691000Y-75045109D01*
X167681275Y-75094000D01*
X167640235Y-75300322D01*
X167603125Y-75389912D01*
X167540656Y-75540727D01*
X167518483Y-75573911D01*
X167396088Y-75757089D01*
X167212089Y-75941088D01*
X167079504Y-76029678D01*
X166995727Y-76085656D01*
X166896148Y-76126903D01*
X166755322Y-76185235D01*
X166627714Y-76210618D01*
X166500109Y-76236000D01*
X166239891Y-76236000D01*
X166112285Y-76210617D01*
X165984678Y-76185235D01*
X165843852Y-76126903D01*
X165744273Y-76085656D01*
X165660496Y-76029678D01*
X165527911Y-75941088D01*
X165343912Y-75757089D01*
X165221517Y-75573911D01*
X165199344Y-75540727D01*
X165136875Y-75389912D01*
X165099765Y-75300322D01*
X165058725Y-75094000D01*
X165049000Y-75045109D01*
X165049000Y-74784891D01*
X165074383Y-74657285D01*
X165099765Y-74529678D01*
X165158097Y-74388852D01*
X165199344Y-74289273D01*
X165247315Y-74217479D01*
X165343912Y-74072911D01*
X165527911Y-73888912D01*
X165744272Y-73744345D01*
X165744273Y-73744344D01*
X165843852Y-73703097D01*
X165984678Y-73644765D01*
X166112286Y-73619382D01*
X166239891Y-73594000D01*
X166500109Y-73594000D01*
X166627714Y-73619382D01*
X166627714Y-73619382D01*
G37*
G36*
X108334715Y-73366383D02*
G01*
X108462322Y-73391765D01*
X108603148Y-73450097D01*
X108702727Y-73491344D01*
X108702728Y-73491345D01*
X108919089Y-73635912D01*
X109103088Y-73819911D01*
X109199685Y-73964479D01*
X109247656Y-74036273D01*
X109262832Y-74072912D01*
X109347235Y-74276678D01*
X109347235Y-74276680D01*
X109397560Y-74529678D01*
X109398000Y-74531893D01*
X109398000Y-74792107D01*
X109347235Y-75047322D01*
X109306458Y-75145765D01*
X109247656Y-75287727D01*
X109207383Y-75348000D01*
X109103088Y-75504089D01*
X108919089Y-75688088D01*
X108815821Y-75757089D01*
X108702727Y-75832656D01*
X108603148Y-75873903D01*
X108462322Y-75932235D01*
X108364107Y-75951771D01*
X108207109Y-75983000D01*
X107946891Y-75983000D01*
X107789893Y-75951771D01*
X107691678Y-75932235D01*
X107550852Y-75873903D01*
X107451273Y-75832656D01*
X107338179Y-75757089D01*
X107234911Y-75688088D01*
X107050912Y-75504089D01*
X106946617Y-75348000D01*
X106906344Y-75287727D01*
X106847542Y-75145765D01*
X106806765Y-75047322D01*
X106756000Y-74792107D01*
X106756000Y-74531893D01*
X106756441Y-74529678D01*
X106806765Y-74276680D01*
X106806765Y-74276678D01*
X106891168Y-74072912D01*
X106906344Y-74036273D01*
X106954315Y-73964479D01*
X107050912Y-73819911D01*
X107234911Y-73635912D01*
X107451272Y-73491345D01*
X107451273Y-73491344D01*
X107550852Y-73450097D01*
X107691678Y-73391765D01*
X107819285Y-73366383D01*
X107946891Y-73341000D01*
X108207109Y-73341000D01*
X108334715Y-73366383D01*
X108334715Y-73366383D01*
G37*
G36*
X68781715Y-73366383D02*
G01*
X68909322Y-73391765D01*
X69050148Y-73450097D01*
X69149727Y-73491344D01*
X69149728Y-73491345D01*
X69366089Y-73635912D01*
X69550088Y-73819911D01*
X69646685Y-73964479D01*
X69694656Y-74036273D01*
X69709832Y-74072912D01*
X69794235Y-74276678D01*
X69794235Y-74276680D01*
X69844560Y-74529678D01*
X69845000Y-74531893D01*
X69845000Y-74792107D01*
X69794235Y-75047322D01*
X69753458Y-75145765D01*
X69694656Y-75287727D01*
X69654383Y-75348000D01*
X69550088Y-75504089D01*
X69366089Y-75688088D01*
X69262821Y-75757089D01*
X69149727Y-75832656D01*
X69050148Y-75873903D01*
X68909322Y-75932235D01*
X68811107Y-75951771D01*
X68654109Y-75983000D01*
X68393891Y-75983000D01*
X68236893Y-75951771D01*
X68138678Y-75932235D01*
X67997852Y-75873903D01*
X67898273Y-75832656D01*
X67785179Y-75757089D01*
X67681911Y-75688088D01*
X67497912Y-75504089D01*
X67393617Y-75348000D01*
X67353344Y-75287727D01*
X67294542Y-75145765D01*
X67253765Y-75047322D01*
X67203000Y-74792107D01*
X67203000Y-74531893D01*
X67203441Y-74529678D01*
X67253765Y-74276680D01*
X67253765Y-74276678D01*
X67338168Y-74072912D01*
X67353344Y-74036273D01*
X67401315Y-73964479D01*
X67497912Y-73819911D01*
X67681911Y-73635912D01*
X67898272Y-73491345D01*
X67898273Y-73491344D01*
X67997852Y-73450097D01*
X68138678Y-73391765D01*
X68266285Y-73366383D01*
X68393891Y-73341000D01*
X68654109Y-73341000D01*
X68781715Y-73366383D01*
X68781715Y-73366383D01*
G37*
G36*
X196641424Y-70182760D02*
G01*
X196641427Y-70182761D01*
X196641428Y-70182761D01*
X196820692Y-70237140D01*
X196820695Y-70237142D01*
X196820696Y-70237142D01*
X196985902Y-70325446D01*
X197130711Y-70444288D01*
X197249553Y-70589097D01*
X197337857Y-70754303D01*
X197337859Y-70754307D01*
X197392238Y-70933571D01*
X197392239Y-70933575D01*
X197410600Y-71120000D01*
X197392239Y-71306425D01*
X197392238Y-71306428D01*
X197392238Y-71306429D01*
X197337859Y-71485693D01*
X197337857Y-71485696D01*
X197337857Y-71485697D01*
X197249553Y-71650903D01*
X197130711Y-71795712D01*
X196985902Y-71914554D01*
X196820696Y-72002858D01*
X196820692Y-72002860D01*
X196641428Y-72057239D01*
X196641427Y-72057239D01*
X196641424Y-72057240D01*
X196501717Y-72071000D01*
X196408281Y-72071000D01*
X196268574Y-72057240D01*
X196268571Y-72057239D01*
X196268570Y-72057239D01*
X196089306Y-72002860D01*
X196089302Y-72002858D01*
X195924096Y-71914554D01*
X195779287Y-71795712D01*
X195660445Y-71650903D01*
X195572141Y-71485697D01*
X195572141Y-71485696D01*
X195572139Y-71485693D01*
X195517760Y-71306429D01*
X195517760Y-71306428D01*
X195517759Y-71306425D01*
X195499398Y-71120000D01*
X195517759Y-70933575D01*
X195517760Y-70933571D01*
X195572139Y-70754307D01*
X195572141Y-70754303D01*
X195660445Y-70589097D01*
X195779287Y-70444288D01*
X195924096Y-70325446D01*
X196089302Y-70237142D01*
X196089303Y-70237142D01*
X196089306Y-70237140D01*
X196268570Y-70182761D01*
X196268571Y-70182761D01*
X196268574Y-70182760D01*
X196408281Y-70169000D01*
X196501717Y-70169000D01*
X196641424Y-70182760D01*
X196641424Y-70182760D01*
G37*
G36*
X207565999Y-72071000D02*
G01*
X205663999Y-72071000D01*
X205663999Y-70169000D01*
X207565999Y-70169000D01*
X207565999Y-72071000D01*
X207565999Y-72071000D01*
G37*
G36*
X179871823Y-68376313D02*
G01*
X180032242Y-68424976D01*
X180164906Y-68495886D01*
X180180078Y-68503996D01*
X180309659Y-68610341D01*
X180416004Y-68739922D01*
X180416005Y-68739924D01*
X180495024Y-68887758D01*
X180543687Y-69048177D01*
X180560117Y-69215000D01*
X180543687Y-69381823D01*
X180495024Y-69542242D01*
X180424114Y-69674906D01*
X180416004Y-69690078D01*
X180309659Y-69819659D01*
X180180078Y-69926004D01*
X180180076Y-69926005D01*
X180032242Y-70005024D01*
X179871823Y-70053687D01*
X179746804Y-70066000D01*
X179663196Y-70066000D01*
X179538177Y-70053687D01*
X179377758Y-70005024D01*
X179229924Y-69926005D01*
X179229922Y-69926004D01*
X179100341Y-69819659D01*
X178993996Y-69690078D01*
X178985886Y-69674906D01*
X178914976Y-69542242D01*
X178866313Y-69381823D01*
X178849883Y-69215000D01*
X178866313Y-69048177D01*
X178914976Y-68887758D01*
X178993995Y-68739924D01*
X178993996Y-68739922D01*
X179100341Y-68610341D01*
X179229922Y-68503996D01*
X179245094Y-68495886D01*
X179377758Y-68424976D01*
X179538177Y-68376313D01*
X179663196Y-68364000D01*
X179746804Y-68364000D01*
X179871823Y-68376313D01*
X179871823Y-68376313D01*
G37*
G36*
X187491823Y-68376313D02*
G01*
X187652242Y-68424976D01*
X187784906Y-68495886D01*
X187800078Y-68503996D01*
X187929659Y-68610341D01*
X188036004Y-68739922D01*
X188036005Y-68739924D01*
X188115024Y-68887758D01*
X188163687Y-69048177D01*
X188180117Y-69215000D01*
X188163687Y-69381823D01*
X188115024Y-69542242D01*
X188044114Y-69674906D01*
X188036004Y-69690078D01*
X187929659Y-69819659D01*
X187800078Y-69926004D01*
X187800076Y-69926005D01*
X187652242Y-70005024D01*
X187491823Y-70053687D01*
X187366804Y-70066000D01*
X187283196Y-70066000D01*
X187158177Y-70053687D01*
X186997758Y-70005024D01*
X186849924Y-69926005D01*
X186849922Y-69926004D01*
X186720341Y-69819659D01*
X186613996Y-69690078D01*
X186605886Y-69674906D01*
X186534976Y-69542242D01*
X186486313Y-69381823D01*
X186469883Y-69215000D01*
X186486313Y-69048177D01*
X186534976Y-68887758D01*
X186613995Y-68739924D01*
X186613996Y-68739922D01*
X186720341Y-68610341D01*
X186849922Y-68503996D01*
X186865094Y-68495886D01*
X186997758Y-68424976D01*
X187158177Y-68376313D01*
X187283196Y-68364000D01*
X187366804Y-68364000D01*
X187491823Y-68376313D01*
X187491823Y-68376313D01*
G37*
G36*
X77718228Y-67761703D02*
G01*
X77873100Y-67825853D01*
X78012481Y-67918985D01*
X78131015Y-68037519D01*
X78224147Y-68176900D01*
X78288297Y-68331772D01*
X78321000Y-68496184D01*
X78321000Y-68663816D01*
X78288297Y-68828228D01*
X78224147Y-68983100D01*
X78131015Y-69122481D01*
X78012481Y-69241015D01*
X77873100Y-69334147D01*
X77718228Y-69398297D01*
X77553816Y-69431000D01*
X77386184Y-69431000D01*
X77221772Y-69398297D01*
X77066900Y-69334147D01*
X76927519Y-69241015D01*
X76808985Y-69122481D01*
X76715853Y-68983100D01*
X76651703Y-68828228D01*
X76619000Y-68663816D01*
X76619000Y-68496184D01*
X76651703Y-68331772D01*
X76715853Y-68176900D01*
X76808985Y-68037519D01*
X76927519Y-67918985D01*
X77066900Y-67825853D01*
X77221772Y-67761703D01*
X77386184Y-67729000D01*
X77553816Y-67729000D01*
X77718228Y-67761703D01*
X77718228Y-67761703D01*
G37*
G36*
X68746823Y-67741313D02*
G01*
X68907242Y-67789976D01*
X68974361Y-67825852D01*
X69055078Y-67868996D01*
X69184659Y-67975341D01*
X69291004Y-68104922D01*
X69291005Y-68104924D01*
X69370024Y-68252758D01*
X69418687Y-68413177D01*
X69435117Y-68580000D01*
X69418687Y-68746823D01*
X69370024Y-68907242D01*
X69329477Y-68983100D01*
X69291004Y-69055078D01*
X69184659Y-69184659D01*
X69055078Y-69291004D01*
X69055076Y-69291005D01*
X68907242Y-69370024D01*
X68746823Y-69418687D01*
X68621804Y-69431000D01*
X68538196Y-69431000D01*
X68413177Y-69418687D01*
X68252758Y-69370024D01*
X68104924Y-69291005D01*
X68104922Y-69291004D01*
X67975341Y-69184659D01*
X67868996Y-69055078D01*
X67830523Y-68983100D01*
X67789976Y-68907242D01*
X67741313Y-68746823D01*
X67724883Y-68580000D01*
X67741313Y-68413177D01*
X67789976Y-68252758D01*
X67868995Y-68104924D01*
X67868996Y-68104922D01*
X67975341Y-67975341D01*
X68104922Y-67868996D01*
X68185639Y-67825852D01*
X68252758Y-67789976D01*
X68413177Y-67741313D01*
X68538196Y-67729000D01*
X68621804Y-67729000D01*
X68746823Y-67741313D01*
X68746823Y-67741313D01*
G37*
G36*
X108116823Y-67741313D02*
G01*
X108277242Y-67789976D01*
X108344361Y-67825852D01*
X108425078Y-67868996D01*
X108554659Y-67975341D01*
X108661004Y-68104922D01*
X108661005Y-68104924D01*
X108740024Y-68252758D01*
X108788687Y-68413177D01*
X108805117Y-68580000D01*
X108788687Y-68746823D01*
X108740024Y-68907242D01*
X108699477Y-68983100D01*
X108661004Y-69055078D01*
X108554659Y-69184659D01*
X108425078Y-69291004D01*
X108425076Y-69291005D01*
X108277242Y-69370024D01*
X108116823Y-69418687D01*
X107991804Y-69431000D01*
X107908196Y-69431000D01*
X107783177Y-69418687D01*
X107622758Y-69370024D01*
X107474924Y-69291005D01*
X107474922Y-69291004D01*
X107345341Y-69184659D01*
X107238996Y-69055078D01*
X107200523Y-68983100D01*
X107159976Y-68907242D01*
X107111313Y-68746823D01*
X107094883Y-68580000D01*
X107111313Y-68413177D01*
X107159976Y-68252758D01*
X107238995Y-68104924D01*
X107238996Y-68104922D01*
X107345341Y-67975341D01*
X107474922Y-67868996D01*
X107555639Y-67825852D01*
X107622758Y-67789976D01*
X107783177Y-67741313D01*
X107908196Y-67729000D01*
X107991804Y-67729000D01*
X108116823Y-67741313D01*
X108116823Y-67741313D01*
G37*
G36*
X97956823Y-67741313D02*
G01*
X98117242Y-67789976D01*
X98184361Y-67825852D01*
X98265078Y-67868996D01*
X98394659Y-67975341D01*
X98501004Y-68104922D01*
X98501005Y-68104924D01*
X98580024Y-68252758D01*
X98628687Y-68413177D01*
X98645117Y-68580000D01*
X98628687Y-68746823D01*
X98580024Y-68907242D01*
X98539477Y-68983100D01*
X98501004Y-69055078D01*
X98394659Y-69184659D01*
X98265078Y-69291004D01*
X98265076Y-69291005D01*
X98117242Y-69370024D01*
X97956823Y-69418687D01*
X97831804Y-69431000D01*
X97748196Y-69431000D01*
X97623177Y-69418687D01*
X97462758Y-69370024D01*
X97314924Y-69291005D01*
X97314922Y-69291004D01*
X97185341Y-69184659D01*
X97078996Y-69055078D01*
X97040523Y-68983100D01*
X96999976Y-68907242D01*
X96951313Y-68746823D01*
X96934883Y-68580000D01*
X96951313Y-68413177D01*
X96999976Y-68252758D01*
X97078995Y-68104924D01*
X97078996Y-68104922D01*
X97185341Y-67975341D01*
X97314922Y-67868996D01*
X97395639Y-67825852D01*
X97462758Y-67789976D01*
X97623177Y-67741313D01*
X97748196Y-67729000D01*
X97831804Y-67729000D01*
X97956823Y-67741313D01*
X97956823Y-67741313D01*
G37*
G36*
X87878228Y-67761703D02*
G01*
X88033100Y-67825853D01*
X88172481Y-67918985D01*
X88291015Y-68037519D01*
X88384147Y-68176900D01*
X88448297Y-68331772D01*
X88481000Y-68496184D01*
X88481000Y-68663816D01*
X88448297Y-68828228D01*
X88384147Y-68983100D01*
X88291015Y-69122481D01*
X88172481Y-69241015D01*
X88033100Y-69334147D01*
X87878228Y-69398297D01*
X87713816Y-69431000D01*
X87546184Y-69431000D01*
X87381772Y-69398297D01*
X87226900Y-69334147D01*
X87087519Y-69241015D01*
X86968985Y-69122481D01*
X86875853Y-68983100D01*
X86811703Y-68828228D01*
X86779000Y-68663816D01*
X86779000Y-68496184D01*
X86811703Y-68331772D01*
X86875853Y-68176900D01*
X86968985Y-68037519D01*
X87087519Y-67918985D01*
X87226900Y-67825853D01*
X87381772Y-67761703D01*
X87546184Y-67729000D01*
X87713816Y-67729000D01*
X87878228Y-67761703D01*
X87878228Y-67761703D01*
G37*
G36*
X52051000Y-67291000D02*
G01*
X49549000Y-67291000D01*
X49549000Y-64789000D01*
X52051000Y-64789000D01*
X52051000Y-67291000D01*
X52051000Y-67291000D01*
G37*
G36*
X130276000Y-67291000D02*
G01*
X127774000Y-67291000D01*
X127774000Y-64789000D01*
X130276000Y-64789000D01*
X130276000Y-67291000D01*
X130276000Y-67291000D01*
G37*
G36*
X136889903Y-64837075D02*
G01*
X137117571Y-64931378D01*
X137322466Y-65068285D01*
X137496715Y-65242534D01*
X137554487Y-65328996D01*
X137633623Y-65447431D01*
X137727925Y-65675097D01*
X137776000Y-65916786D01*
X137776000Y-66163214D01*
X137767325Y-66206825D01*
X137727925Y-66404903D01*
X137633622Y-66632571D01*
X137496715Y-66837466D01*
X137322466Y-67011715D01*
X137117571Y-67148622D01*
X137117570Y-67148623D01*
X137117569Y-67148623D01*
X136889903Y-67242925D01*
X136648214Y-67291000D01*
X136401786Y-67291000D01*
X136160097Y-67242925D01*
X135932431Y-67148623D01*
X135932430Y-67148623D01*
X135932429Y-67148622D01*
X135727534Y-67011715D01*
X135553285Y-66837466D01*
X135416378Y-66632571D01*
X135322075Y-66404903D01*
X135282675Y-66206825D01*
X135274000Y-66163214D01*
X135274000Y-65916786D01*
X135322075Y-65675097D01*
X135416377Y-65447431D01*
X135495513Y-65328996D01*
X135553285Y-65242534D01*
X135727534Y-65068285D01*
X135932429Y-64931378D01*
X136160097Y-64837075D01*
X136401786Y-64789000D01*
X136648214Y-64789000D01*
X136889903Y-64837075D01*
X136889903Y-64837075D01*
G37*
G36*
X58664903Y-64837075D02*
G01*
X58892571Y-64931378D01*
X59097466Y-65068285D01*
X59271715Y-65242534D01*
X59329487Y-65328996D01*
X59408623Y-65447431D01*
X59502925Y-65675097D01*
X59551000Y-65916786D01*
X59551000Y-66163214D01*
X59542325Y-66206825D01*
X59502925Y-66404903D01*
X59408622Y-66632571D01*
X59271715Y-66837466D01*
X59097466Y-67011715D01*
X58892571Y-67148622D01*
X58892570Y-67148623D01*
X58892569Y-67148623D01*
X58664903Y-67242925D01*
X58423214Y-67291000D01*
X58176786Y-67291000D01*
X57935097Y-67242925D01*
X57707431Y-67148623D01*
X57707430Y-67148623D01*
X57707429Y-67148622D01*
X57502534Y-67011715D01*
X57328285Y-66837466D01*
X57191378Y-66632571D01*
X57097075Y-66404903D01*
X57057675Y-66206825D01*
X57049000Y-66163214D01*
X57049000Y-65916786D01*
X57097075Y-65675097D01*
X57191377Y-65447431D01*
X57270513Y-65328996D01*
X57328285Y-65242534D01*
X57502534Y-65068285D01*
X57707429Y-64931378D01*
X57935097Y-64837075D01*
X58176786Y-64789000D01*
X58423214Y-64789000D01*
X58664903Y-64837075D01*
X58664903Y-64837075D01*
G37*
G36*
X232654903Y-64837075D02*
G01*
X232882571Y-64931378D01*
X233087466Y-65068285D01*
X233261715Y-65242534D01*
X233319487Y-65328996D01*
X233398623Y-65447431D01*
X233492925Y-65675097D01*
X233541000Y-65916786D01*
X233541000Y-66163214D01*
X233532325Y-66206825D01*
X233492925Y-66404903D01*
X233398622Y-66632571D01*
X233261715Y-66837466D01*
X233087466Y-67011715D01*
X232882571Y-67148622D01*
X232882570Y-67148623D01*
X232882569Y-67148623D01*
X232654903Y-67242925D01*
X232413214Y-67291000D01*
X232166786Y-67291000D01*
X231925097Y-67242925D01*
X231697431Y-67148623D01*
X231697430Y-67148623D01*
X231697429Y-67148622D01*
X231492534Y-67011715D01*
X231318285Y-66837466D01*
X231181378Y-66632571D01*
X231087075Y-66404903D01*
X231047675Y-66206825D01*
X231039000Y-66163214D01*
X231039000Y-65916786D01*
X231087075Y-65675097D01*
X231181377Y-65447431D01*
X231260513Y-65328996D01*
X231318285Y-65242534D01*
X231492534Y-65068285D01*
X231697429Y-64931378D01*
X231925097Y-64837075D01*
X232166786Y-64789000D01*
X232413214Y-64789000D01*
X232654903Y-64837075D01*
X232654903Y-64837075D01*
G37*
G36*
X226041000Y-67291000D02*
G01*
X223539000Y-67291000D01*
X223539000Y-64789000D01*
X226041000Y-64789000D01*
X226041000Y-67291000D01*
X226041000Y-67291000D01*
G37*
G36*
X172886823Y-65201313D02*
G01*
X173047242Y-65249976D01*
X173114361Y-65285852D01*
X173195078Y-65328996D01*
X173324659Y-65435341D01*
X173431004Y-65564922D01*
X173431005Y-65564924D01*
X173510024Y-65712758D01*
X173558687Y-65873177D01*
X173575117Y-66040000D01*
X173558687Y-66206823D01*
X173510024Y-66367242D01*
X173469477Y-66443100D01*
X173431004Y-66515078D01*
X173324659Y-66644659D01*
X173195078Y-66751004D01*
X173195076Y-66751005D01*
X173047242Y-66830024D01*
X172886823Y-66878687D01*
X172761804Y-66891000D01*
X172678196Y-66891000D01*
X172553177Y-66878687D01*
X172392758Y-66830024D01*
X172244924Y-66751005D01*
X172244922Y-66751004D01*
X172115341Y-66644659D01*
X172008996Y-66515078D01*
X171970523Y-66443100D01*
X171929976Y-66367242D01*
X171881313Y-66206823D01*
X171864883Y-66040000D01*
X171881313Y-65873177D01*
X171929976Y-65712758D01*
X172008995Y-65564924D01*
X172008996Y-65564922D01*
X172115341Y-65435341D01*
X172244922Y-65328996D01*
X172325639Y-65285852D01*
X172392758Y-65249976D01*
X172553177Y-65201313D01*
X172678196Y-65189000D01*
X172761804Y-65189000D01*
X172886823Y-65201313D01*
X172886823Y-65201313D01*
G37*
G36*
X162808228Y-65221703D02*
G01*
X162963100Y-65285853D01*
X163102481Y-65378985D01*
X163221015Y-65497519D01*
X163314147Y-65636900D01*
X163378297Y-65791772D01*
X163411000Y-65956184D01*
X163411000Y-66123816D01*
X163378297Y-66288228D01*
X163314147Y-66443100D01*
X163221015Y-66582481D01*
X163102481Y-66701015D01*
X162963100Y-66794147D01*
X162808228Y-66858297D01*
X162643816Y-66891000D01*
X162476184Y-66891000D01*
X162311772Y-66858297D01*
X162156900Y-66794147D01*
X162017519Y-66701015D01*
X161898985Y-66582481D01*
X161805853Y-66443100D01*
X161741703Y-66288228D01*
X161709000Y-66123816D01*
X161709000Y-65956184D01*
X161741703Y-65791772D01*
X161805853Y-65636900D01*
X161898985Y-65497519D01*
X162017519Y-65378985D01*
X162156900Y-65285853D01*
X162311772Y-65221703D01*
X162476184Y-65189000D01*
X162643816Y-65189000D01*
X162808228Y-65221703D01*
X162808228Y-65221703D01*
G37*
G36*
X205560593Y-58540904D02*
G01*
X205797301Y-58638952D01*
X205797303Y-58638953D01*
X206010335Y-58781296D01*
X206191504Y-58962465D01*
X206333847Y-59175497D01*
X206333848Y-59175499D01*
X206431896Y-59412207D01*
X206481880Y-59663493D01*
X206481880Y-59919707D01*
X206431896Y-60170993D01*
X206375932Y-60306101D01*
X206333847Y-60407703D01*
X206191504Y-60620735D01*
X206010335Y-60801904D01*
X205797303Y-60944247D01*
X205797302Y-60944248D01*
X205797301Y-60944248D01*
X205560593Y-61042296D01*
X205309307Y-61092280D01*
X205053093Y-61092280D01*
X204801807Y-61042296D01*
X204565099Y-60944248D01*
X204565098Y-60944248D01*
X204565097Y-60944247D01*
X204352065Y-60801904D01*
X204170896Y-60620735D01*
X204028553Y-60407703D01*
X203986468Y-60306101D01*
X203930504Y-60170993D01*
X203880520Y-59919707D01*
X203880520Y-59663493D01*
X203930504Y-59412207D01*
X204028552Y-59175499D01*
X204028553Y-59175497D01*
X204170896Y-58962465D01*
X204352065Y-58781296D01*
X204565097Y-58638953D01*
X204565099Y-58638952D01*
X204801807Y-58540904D01*
X205053093Y-58490920D01*
X205309307Y-58490920D01*
X205560593Y-58540904D01*
X205560593Y-58540904D01*
G37*
G36*
X195959393Y-58540904D02*
G01*
X196196101Y-58638952D01*
X196196103Y-58638953D01*
X196409135Y-58781296D01*
X196590304Y-58962465D01*
X196732647Y-59175497D01*
X196732648Y-59175499D01*
X196830696Y-59412207D01*
X196880680Y-59663493D01*
X196880680Y-59919707D01*
X196830696Y-60170993D01*
X196774732Y-60306101D01*
X196732647Y-60407703D01*
X196590304Y-60620735D01*
X196409135Y-60801904D01*
X196196103Y-60944247D01*
X196196102Y-60944248D01*
X196196101Y-60944248D01*
X195959393Y-61042296D01*
X195708107Y-61092280D01*
X195451893Y-61092280D01*
X195200607Y-61042296D01*
X194963899Y-60944248D01*
X194963898Y-60944248D01*
X194963897Y-60944247D01*
X194750865Y-60801904D01*
X194569696Y-60620735D01*
X194427353Y-60407703D01*
X194385268Y-60306101D01*
X194329304Y-60170993D01*
X194279320Y-59919707D01*
X194279320Y-59663493D01*
X194329304Y-59412207D01*
X194427352Y-59175499D01*
X194427353Y-59175497D01*
X194569696Y-58962465D01*
X194750865Y-58781296D01*
X194963897Y-58638953D01*
X194963899Y-58638952D01*
X195200607Y-58540904D01*
X195451893Y-58490920D01*
X195708107Y-58490920D01*
X195959393Y-58540904D01*
X195959393Y-58540904D01*
G37*
G36*
X171829393Y-58439304D02*
G01*
X172006151Y-58512520D01*
X172066103Y-58537353D01*
X172279135Y-58679696D01*
X172460304Y-58860865D01*
X172534017Y-58971185D01*
X172602648Y-59073899D01*
X172700696Y-59310607D01*
X172750680Y-59561893D01*
X172750680Y-59818107D01*
X172700696Y-60069393D01*
X172658611Y-60170994D01*
X172602647Y-60306103D01*
X172460304Y-60519135D01*
X172279135Y-60700304D01*
X172066103Y-60842647D01*
X172066102Y-60842648D01*
X172066101Y-60842648D01*
X171829393Y-60940696D01*
X171578107Y-60990680D01*
X171321893Y-60990680D01*
X171070607Y-60940696D01*
X170833899Y-60842648D01*
X170833898Y-60842648D01*
X170833897Y-60842647D01*
X170620865Y-60700304D01*
X170439696Y-60519135D01*
X170297353Y-60306103D01*
X170241389Y-60170994D01*
X170199304Y-60069393D01*
X170149320Y-59818107D01*
X170149320Y-59561893D01*
X170199304Y-59310607D01*
X170297352Y-59073899D01*
X170365983Y-58971185D01*
X170439696Y-58860865D01*
X170620865Y-58679696D01*
X170833897Y-58537353D01*
X170893849Y-58512520D01*
X171070607Y-58439304D01*
X171321893Y-58389320D01*
X171578107Y-58389320D01*
X171829393Y-58439304D01*
X171829393Y-58439304D01*
G37*
G36*
X145794393Y-58439304D02*
G01*
X145971151Y-58512520D01*
X146031103Y-58537353D01*
X146244135Y-58679696D01*
X146425304Y-58860865D01*
X146499017Y-58971185D01*
X146567648Y-59073899D01*
X146665696Y-59310607D01*
X146715680Y-59561893D01*
X146715680Y-59818107D01*
X146665696Y-60069393D01*
X146623611Y-60170994D01*
X146567647Y-60306103D01*
X146425304Y-60519135D01*
X146244135Y-60700304D01*
X146031103Y-60842647D01*
X146031102Y-60842648D01*
X146031101Y-60842648D01*
X145794393Y-60940696D01*
X145543107Y-60990680D01*
X145286893Y-60990680D01*
X145035607Y-60940696D01*
X144798899Y-60842648D01*
X144798898Y-60842648D01*
X144798897Y-60842647D01*
X144585865Y-60700304D01*
X144404696Y-60519135D01*
X144262353Y-60306103D01*
X144206389Y-60170994D01*
X144164304Y-60069393D01*
X144114320Y-59818107D01*
X144114320Y-59561893D01*
X144164304Y-59310607D01*
X144262352Y-59073899D01*
X144330983Y-58971185D01*
X144404696Y-58860865D01*
X144585865Y-58679696D01*
X144798897Y-58537353D01*
X144858849Y-58512520D01*
X145035607Y-58439304D01*
X145286893Y-58389320D01*
X145543107Y-58389320D01*
X145794393Y-58439304D01*
X145794393Y-58439304D01*
G37*
G36*
X162939393Y-58439304D02*
G01*
X163116151Y-58512520D01*
X163176103Y-58537353D01*
X163389135Y-58679696D01*
X163570304Y-58860865D01*
X163644017Y-58971185D01*
X163712648Y-59073899D01*
X163810696Y-59310607D01*
X163860680Y-59561893D01*
X163860680Y-59818107D01*
X163810696Y-60069393D01*
X163768611Y-60170994D01*
X163712647Y-60306103D01*
X163570304Y-60519135D01*
X163389135Y-60700304D01*
X163176103Y-60842647D01*
X163176102Y-60842648D01*
X163176101Y-60842648D01*
X162939393Y-60940696D01*
X162688107Y-60990680D01*
X162431893Y-60990680D01*
X162180607Y-60940696D01*
X161943899Y-60842648D01*
X161943898Y-60842648D01*
X161943897Y-60842647D01*
X161730865Y-60700304D01*
X161549696Y-60519135D01*
X161407353Y-60306103D01*
X161351389Y-60170994D01*
X161309304Y-60069393D01*
X161259320Y-59818107D01*
X161259320Y-59561893D01*
X161309304Y-59310607D01*
X161407352Y-59073899D01*
X161475983Y-58971185D01*
X161549696Y-58860865D01*
X161730865Y-58679696D01*
X161943897Y-58537353D01*
X162003849Y-58512520D01*
X162180607Y-58439304D01*
X162431893Y-58389320D01*
X162688107Y-58389320D01*
X162939393Y-58439304D01*
X162939393Y-58439304D01*
G37*
G36*
X215644393Y-58439304D02*
G01*
X215821151Y-58512520D01*
X215881103Y-58537353D01*
X216094135Y-58679696D01*
X216275304Y-58860865D01*
X216349017Y-58971185D01*
X216417648Y-59073899D01*
X216515696Y-59310607D01*
X216565680Y-59561893D01*
X216565680Y-59818107D01*
X216515696Y-60069393D01*
X216473611Y-60170994D01*
X216417647Y-60306103D01*
X216275304Y-60519135D01*
X216094135Y-60700304D01*
X215881103Y-60842647D01*
X215881102Y-60842648D01*
X215881101Y-60842648D01*
X215644393Y-60940696D01*
X215393107Y-60990680D01*
X215136893Y-60990680D01*
X214885607Y-60940696D01*
X214648899Y-60842648D01*
X214648898Y-60842648D01*
X214648897Y-60842647D01*
X214435865Y-60700304D01*
X214254696Y-60519135D01*
X214112353Y-60306103D01*
X214056389Y-60170994D01*
X214014304Y-60069393D01*
X213964320Y-59818107D01*
X213964320Y-59561893D01*
X214014304Y-59310607D01*
X214112352Y-59073899D01*
X214180983Y-58971185D01*
X214254696Y-58860865D01*
X214435865Y-58679696D01*
X214648897Y-58537353D01*
X214708849Y-58512520D01*
X214885607Y-58439304D01*
X215136893Y-58389320D01*
X215393107Y-58389320D01*
X215644393Y-58439304D01*
X215644393Y-58439304D01*
G37*
G36*
X152144393Y-58439304D02*
G01*
X152321151Y-58512520D01*
X152381103Y-58537353D01*
X152594135Y-58679696D01*
X152775304Y-58860865D01*
X152849017Y-58971185D01*
X152917648Y-59073899D01*
X153015696Y-59310607D01*
X153065680Y-59561893D01*
X153065680Y-59818107D01*
X153015696Y-60069393D01*
X152973611Y-60170994D01*
X152917647Y-60306103D01*
X152775304Y-60519135D01*
X152594135Y-60700304D01*
X152381103Y-60842647D01*
X152381102Y-60842648D01*
X152381101Y-60842648D01*
X152144393Y-60940696D01*
X151893107Y-60990680D01*
X151636893Y-60990680D01*
X151385607Y-60940696D01*
X151148899Y-60842648D01*
X151148898Y-60842648D01*
X151148897Y-60842647D01*
X150935865Y-60700304D01*
X150754696Y-60519135D01*
X150612353Y-60306103D01*
X150556389Y-60170994D01*
X150514304Y-60069393D01*
X150464320Y-59818107D01*
X150464320Y-59561893D01*
X150514304Y-59310607D01*
X150612352Y-59073899D01*
X150680983Y-58971185D01*
X150754696Y-58860865D01*
X150935865Y-58679696D01*
X151148897Y-58537353D01*
X151208849Y-58512520D01*
X151385607Y-58439304D01*
X151636893Y-58389320D01*
X151893107Y-58389320D01*
X152144393Y-58439304D01*
X152144393Y-58439304D01*
G37*
G36*
X187573228Y-58236703D02*
G01*
X187728100Y-58300853D01*
X187867481Y-58393985D01*
X187986015Y-58512519D01*
X188079147Y-58651900D01*
X188143297Y-58806772D01*
X188176000Y-58971184D01*
X188176000Y-59138816D01*
X188143297Y-59303228D01*
X188079147Y-59458100D01*
X187986015Y-59597481D01*
X187867481Y-59716015D01*
X187728100Y-59809147D01*
X187573228Y-59873297D01*
X187408816Y-59906000D01*
X187241184Y-59906000D01*
X187076772Y-59873297D01*
X186921900Y-59809147D01*
X186782519Y-59716015D01*
X186663985Y-59597481D01*
X186570853Y-59458100D01*
X186506703Y-59303228D01*
X186474000Y-59138816D01*
X186474000Y-58971184D01*
X186506703Y-58806772D01*
X186570853Y-58651900D01*
X186663985Y-58512519D01*
X186782519Y-58393985D01*
X186921900Y-58300853D01*
X187076772Y-58236703D01*
X187241184Y-58204000D01*
X187408816Y-58204000D01*
X187573228Y-58236703D01*
X187573228Y-58236703D01*
G37*
G36*
X179953228Y-58236703D02*
G01*
X180108100Y-58300853D01*
X180247481Y-58393985D01*
X180366015Y-58512519D01*
X180459147Y-58651900D01*
X180523297Y-58806772D01*
X180556000Y-58971184D01*
X180556000Y-59138816D01*
X180523297Y-59303228D01*
X180459147Y-59458100D01*
X180366015Y-59597481D01*
X180247481Y-59716015D01*
X180108100Y-59809147D01*
X179953228Y-59873297D01*
X179788816Y-59906000D01*
X179621184Y-59906000D01*
X179456772Y-59873297D01*
X179301900Y-59809147D01*
X179162519Y-59716015D01*
X179043985Y-59597481D01*
X178950853Y-59458100D01*
X178886703Y-59303228D01*
X178854000Y-59138816D01*
X178854000Y-58971184D01*
X178886703Y-58806772D01*
X178950853Y-58651900D01*
X179043985Y-58512519D01*
X179162519Y-58393985D01*
X179301900Y-58300853D01*
X179456772Y-58236703D01*
X179621184Y-58204000D01*
X179788816Y-58204000D01*
X179953228Y-58236703D01*
X179953228Y-58236703D01*
G37*
G36*
X98038228Y-57601703D02*
G01*
X98193100Y-57665853D01*
X98332481Y-57758985D01*
X98451015Y-57877519D01*
X98544147Y-58016900D01*
X98608297Y-58171772D01*
X98641000Y-58336184D01*
X98641000Y-58503816D01*
X98608297Y-58668228D01*
X98544147Y-58823100D01*
X98451015Y-58962481D01*
X98332481Y-59081015D01*
X98193100Y-59174147D01*
X98038228Y-59238297D01*
X97873816Y-59271000D01*
X97706184Y-59271000D01*
X97541772Y-59238297D01*
X97386900Y-59174147D01*
X97247519Y-59081015D01*
X97128985Y-58962481D01*
X97035853Y-58823100D01*
X96971703Y-58668228D01*
X96939000Y-58503816D01*
X96939000Y-58336184D01*
X96971703Y-58171772D01*
X97035853Y-58016900D01*
X97128985Y-57877519D01*
X97247519Y-57758985D01*
X97386900Y-57665853D01*
X97541772Y-57601703D01*
X97706184Y-57569000D01*
X97873816Y-57569000D01*
X98038228Y-57601703D01*
X98038228Y-57601703D01*
G37*
G36*
X108198228Y-57601703D02*
G01*
X108353100Y-57665853D01*
X108492481Y-57758985D01*
X108611015Y-57877519D01*
X108704147Y-58016900D01*
X108768297Y-58171772D01*
X108801000Y-58336184D01*
X108801000Y-58503816D01*
X108768297Y-58668228D01*
X108704147Y-58823100D01*
X108611015Y-58962481D01*
X108492481Y-59081015D01*
X108353100Y-59174147D01*
X108198228Y-59238297D01*
X108033816Y-59271000D01*
X107866184Y-59271000D01*
X107701772Y-59238297D01*
X107546900Y-59174147D01*
X107407519Y-59081015D01*
X107288985Y-58962481D01*
X107195853Y-58823100D01*
X107131703Y-58668228D01*
X107099000Y-58503816D01*
X107099000Y-58336184D01*
X107131703Y-58171772D01*
X107195853Y-58016900D01*
X107288985Y-57877519D01*
X107407519Y-57758985D01*
X107546900Y-57665853D01*
X107701772Y-57601703D01*
X107866184Y-57569000D01*
X108033816Y-57569000D01*
X108198228Y-57601703D01*
X108198228Y-57601703D01*
G37*
G36*
X87796823Y-57581313D02*
G01*
X87957242Y-57629976D01*
X88024361Y-57665852D01*
X88105078Y-57708996D01*
X88234659Y-57815341D01*
X88341004Y-57944922D01*
X88341005Y-57944924D01*
X88420024Y-58092758D01*
X88468687Y-58253177D01*
X88485117Y-58420000D01*
X88468687Y-58586823D01*
X88420024Y-58747242D01*
X88379477Y-58823100D01*
X88341004Y-58895078D01*
X88234659Y-59024659D01*
X88105078Y-59131004D01*
X88105076Y-59131005D01*
X87957242Y-59210024D01*
X87796823Y-59258687D01*
X87671804Y-59271000D01*
X87588196Y-59271000D01*
X87463177Y-59258687D01*
X87302758Y-59210024D01*
X87154924Y-59131005D01*
X87154922Y-59131004D01*
X87025341Y-59024659D01*
X86918996Y-58895078D01*
X86880523Y-58823100D01*
X86839976Y-58747242D01*
X86791313Y-58586823D01*
X86774883Y-58420000D01*
X86791313Y-58253177D01*
X86839976Y-58092758D01*
X86918995Y-57944924D01*
X86918996Y-57944922D01*
X87025341Y-57815341D01*
X87154922Y-57708996D01*
X87235639Y-57665852D01*
X87302758Y-57629976D01*
X87463177Y-57581313D01*
X87588196Y-57569000D01*
X87671804Y-57569000D01*
X87796823Y-57581313D01*
X87796823Y-57581313D01*
G37*
G36*
X77636823Y-57581313D02*
G01*
X77797242Y-57629976D01*
X77864361Y-57665852D01*
X77945078Y-57708996D01*
X78074659Y-57815341D01*
X78181004Y-57944922D01*
X78181005Y-57944924D01*
X78260024Y-58092758D01*
X78308687Y-58253177D01*
X78325117Y-58420000D01*
X78308687Y-58586823D01*
X78260024Y-58747242D01*
X78219477Y-58823100D01*
X78181004Y-58895078D01*
X78074659Y-59024659D01*
X77945078Y-59131004D01*
X77945076Y-59131005D01*
X77797242Y-59210024D01*
X77636823Y-59258687D01*
X77511804Y-59271000D01*
X77428196Y-59271000D01*
X77303177Y-59258687D01*
X77142758Y-59210024D01*
X76994924Y-59131005D01*
X76994922Y-59131004D01*
X76865341Y-59024659D01*
X76758996Y-58895078D01*
X76720523Y-58823100D01*
X76679976Y-58747242D01*
X76631313Y-58586823D01*
X76614883Y-58420000D01*
X76631313Y-58253177D01*
X76679976Y-58092758D01*
X76758995Y-57944924D01*
X76758996Y-57944922D01*
X76865341Y-57815341D01*
X76994922Y-57708996D01*
X77075639Y-57665852D01*
X77142758Y-57629976D01*
X77303177Y-57581313D01*
X77428196Y-57569000D01*
X77511804Y-57569000D01*
X77636823Y-57581313D01*
X77636823Y-57581313D01*
G37*
G36*
X68828228Y-57601703D02*
G01*
X68983100Y-57665853D01*
X69122481Y-57758985D01*
X69241015Y-57877519D01*
X69334147Y-58016900D01*
X69398297Y-58171772D01*
X69431000Y-58336184D01*
X69431000Y-58503816D01*
X69398297Y-58668228D01*
X69334147Y-58823100D01*
X69241015Y-58962481D01*
X69122481Y-59081015D01*
X68983100Y-59174147D01*
X68828228Y-59238297D01*
X68663816Y-59271000D01*
X68496184Y-59271000D01*
X68331772Y-59238297D01*
X68176900Y-59174147D01*
X68037519Y-59081015D01*
X67918985Y-58962481D01*
X67825853Y-58823100D01*
X67761703Y-58668228D01*
X67729000Y-58503816D01*
X67729000Y-58336184D01*
X67761703Y-58171772D01*
X67825853Y-58016900D01*
X67918985Y-57877519D01*
X68037519Y-57758985D01*
X68176900Y-57665853D01*
X68331772Y-57601703D01*
X68496184Y-57569000D01*
X68663816Y-57569000D01*
X68828228Y-57601703D01*
X68828228Y-57601703D01*
G37*
M02*
