G04 #@! TF.GenerationSoftware,KiCad,Pcbnew,(5.1.4)-1*
G04 #@! TF.CreationDate,2020-09-09T00:44:47+02:00*
G04 #@! TF.ProjectId,JCM800,4a434d38-3030-42e6-9b69-6361645f7063,0.2*
G04 #@! TF.SameCoordinates,Original*
G04 #@! TF.FileFunction,Other,Fab,Top*
%FSLAX46Y46*%
G04 Gerber Fmt 4.6, Leading zero omitted, Abs format (unit mm)*
G04 Created by KiCad (PCBNEW (5.1.4)-1) date 2020-09-09 00:44:47*
%MOMM*%
%LPD*%
G04 APERTURE LIST*
%ADD10C,0.150000*%
G04 APERTURE END LIST*
D10*
X185206285Y-130382380D02*
X185206285Y-129382380D01*
X185539619Y-130096666D01*
X185872952Y-129382380D01*
X185872952Y-130382380D01*
X186492000Y-130382380D02*
X186396761Y-130334761D01*
X186349142Y-130287142D01*
X186301523Y-130191904D01*
X186301523Y-129906190D01*
X186349142Y-129810952D01*
X186396761Y-129763333D01*
X186492000Y-129715714D01*
X186634857Y-129715714D01*
X186730095Y-129763333D01*
X186777714Y-129810952D01*
X186825333Y-129906190D01*
X186825333Y-130191904D01*
X186777714Y-130287142D01*
X186730095Y-130334761D01*
X186634857Y-130382380D01*
X186492000Y-130382380D01*
X187682476Y-129715714D02*
X187682476Y-130382380D01*
X187253904Y-129715714D02*
X187253904Y-130239523D01*
X187301523Y-130334761D01*
X187396761Y-130382380D01*
X187539619Y-130382380D01*
X187634857Y-130334761D01*
X187682476Y-130287142D01*
X188158666Y-129715714D02*
X188158666Y-130382380D01*
X188158666Y-129810952D02*
X188206285Y-129763333D01*
X188301523Y-129715714D01*
X188444380Y-129715714D01*
X188539619Y-129763333D01*
X188587238Y-129858571D01*
X188587238Y-130382380D01*
X188920571Y-129715714D02*
X189301523Y-129715714D01*
X189063428Y-129382380D02*
X189063428Y-130239523D01*
X189111047Y-130334761D01*
X189206285Y-130382380D01*
X189301523Y-130382380D01*
X189634857Y-130382380D02*
X189634857Y-129715714D01*
X189634857Y-129382380D02*
X189587238Y-129430000D01*
X189634857Y-129477619D01*
X189682476Y-129430000D01*
X189634857Y-129382380D01*
X189634857Y-129477619D01*
X190111047Y-129715714D02*
X190111047Y-130382380D01*
X190111047Y-129810952D02*
X190158666Y-129763333D01*
X190253904Y-129715714D01*
X190396761Y-129715714D01*
X190492000Y-129763333D01*
X190539619Y-129858571D01*
X190539619Y-130382380D01*
X191444380Y-129715714D02*
X191444380Y-130525238D01*
X191396761Y-130620476D01*
X191349142Y-130668095D01*
X191253904Y-130715714D01*
X191111047Y-130715714D01*
X191015809Y-130668095D01*
X191444380Y-130334761D02*
X191349142Y-130382380D01*
X191158666Y-130382380D01*
X191063428Y-130334761D01*
X191015809Y-130287142D01*
X190968190Y-130191904D01*
X190968190Y-129906190D01*
X191015809Y-129810952D01*
X191063428Y-129763333D01*
X191158666Y-129715714D01*
X191349142Y-129715714D01*
X191444380Y-129763333D01*
X191920571Y-130382380D02*
X191920571Y-129382380D01*
X191920571Y-129858571D02*
X192492000Y-129858571D01*
X192492000Y-130382380D02*
X192492000Y-129382380D01*
X193111047Y-130382380D02*
X193015809Y-130334761D01*
X192968190Y-130287142D01*
X192920571Y-130191904D01*
X192920571Y-129906190D01*
X192968190Y-129810952D01*
X193015809Y-129763333D01*
X193111047Y-129715714D01*
X193253904Y-129715714D01*
X193349142Y-129763333D01*
X193396761Y-129810952D01*
X193444380Y-129906190D01*
X193444380Y-130191904D01*
X193396761Y-130287142D01*
X193349142Y-130334761D01*
X193253904Y-130382380D01*
X193111047Y-130382380D01*
X194015809Y-130382380D02*
X193920571Y-130334761D01*
X193872952Y-130239523D01*
X193872952Y-129382380D01*
X194777714Y-130334761D02*
X194682476Y-130382380D01*
X194492000Y-130382380D01*
X194396761Y-130334761D01*
X194349142Y-130239523D01*
X194349142Y-129858571D01*
X194396761Y-129763333D01*
X194492000Y-129715714D01*
X194682476Y-129715714D01*
X194777714Y-129763333D01*
X194825333Y-129858571D01*
X194825333Y-129953809D01*
X194349142Y-130049047D01*
X189530095Y-126182380D02*
X189530095Y-125182380D01*
X189530095Y-125658571D02*
X190101523Y-125658571D01*
X190101523Y-126182380D02*
X190101523Y-125182380D01*
X190482476Y-125182380D02*
X191149142Y-125182380D01*
X190720571Y-126182380D01*
X117642285Y-62056380D02*
X117642285Y-61056380D01*
X117975619Y-61770666D01*
X118308952Y-61056380D01*
X118308952Y-62056380D01*
X118928000Y-62056380D02*
X118832761Y-62008761D01*
X118785142Y-61961142D01*
X118737523Y-61865904D01*
X118737523Y-61580190D01*
X118785142Y-61484952D01*
X118832761Y-61437333D01*
X118928000Y-61389714D01*
X119070857Y-61389714D01*
X119166095Y-61437333D01*
X119213714Y-61484952D01*
X119261333Y-61580190D01*
X119261333Y-61865904D01*
X119213714Y-61961142D01*
X119166095Y-62008761D01*
X119070857Y-62056380D01*
X118928000Y-62056380D01*
X120118476Y-61389714D02*
X120118476Y-62056380D01*
X119689904Y-61389714D02*
X119689904Y-61913523D01*
X119737523Y-62008761D01*
X119832761Y-62056380D01*
X119975619Y-62056380D01*
X120070857Y-62008761D01*
X120118476Y-61961142D01*
X120594666Y-61389714D02*
X120594666Y-62056380D01*
X120594666Y-61484952D02*
X120642285Y-61437333D01*
X120737523Y-61389714D01*
X120880380Y-61389714D01*
X120975619Y-61437333D01*
X121023238Y-61532571D01*
X121023238Y-62056380D01*
X121356571Y-61389714D02*
X121737523Y-61389714D01*
X121499428Y-61056380D02*
X121499428Y-61913523D01*
X121547047Y-62008761D01*
X121642285Y-62056380D01*
X121737523Y-62056380D01*
X122070857Y-62056380D02*
X122070857Y-61389714D01*
X122070857Y-61056380D02*
X122023238Y-61104000D01*
X122070857Y-61151619D01*
X122118476Y-61104000D01*
X122070857Y-61056380D01*
X122070857Y-61151619D01*
X122547047Y-61389714D02*
X122547047Y-62056380D01*
X122547047Y-61484952D02*
X122594666Y-61437333D01*
X122689904Y-61389714D01*
X122832761Y-61389714D01*
X122928000Y-61437333D01*
X122975619Y-61532571D01*
X122975619Y-62056380D01*
X123880380Y-61389714D02*
X123880380Y-62199238D01*
X123832761Y-62294476D01*
X123785142Y-62342095D01*
X123689904Y-62389714D01*
X123547047Y-62389714D01*
X123451809Y-62342095D01*
X123880380Y-62008761D02*
X123785142Y-62056380D01*
X123594666Y-62056380D01*
X123499428Y-62008761D01*
X123451809Y-61961142D01*
X123404190Y-61865904D01*
X123404190Y-61580190D01*
X123451809Y-61484952D01*
X123499428Y-61437333D01*
X123594666Y-61389714D01*
X123785142Y-61389714D01*
X123880380Y-61437333D01*
X124356571Y-62056380D02*
X124356571Y-61056380D01*
X124356571Y-61532571D02*
X124928000Y-61532571D01*
X124928000Y-62056380D02*
X124928000Y-61056380D01*
X125547047Y-62056380D02*
X125451809Y-62008761D01*
X125404190Y-61961142D01*
X125356571Y-61865904D01*
X125356571Y-61580190D01*
X125404190Y-61484952D01*
X125451809Y-61437333D01*
X125547047Y-61389714D01*
X125689904Y-61389714D01*
X125785142Y-61437333D01*
X125832761Y-61484952D01*
X125880380Y-61580190D01*
X125880380Y-61865904D01*
X125832761Y-61961142D01*
X125785142Y-62008761D01*
X125689904Y-62056380D01*
X125547047Y-62056380D01*
X126451809Y-62056380D02*
X126356571Y-62008761D01*
X126308952Y-61913523D01*
X126308952Y-61056380D01*
X127213714Y-62008761D02*
X127118476Y-62056380D01*
X126928000Y-62056380D01*
X126832761Y-62008761D01*
X126785142Y-61913523D01*
X126785142Y-61532571D01*
X126832761Y-61437333D01*
X126928000Y-61389714D01*
X127118476Y-61389714D01*
X127213714Y-61437333D01*
X127261333Y-61532571D01*
X127261333Y-61627809D01*
X126785142Y-61723047D01*
X121966095Y-57856380D02*
X121966095Y-56856380D01*
X121966095Y-57332571D02*
X122537523Y-57332571D01*
X122537523Y-57856380D02*
X122537523Y-56856380D01*
X123442285Y-56856380D02*
X123251809Y-56856380D01*
X123156571Y-56904000D01*
X123108952Y-56951619D01*
X123013714Y-57094476D01*
X122966095Y-57284952D01*
X122966095Y-57665904D01*
X123013714Y-57761142D01*
X123061333Y-57808761D01*
X123156571Y-57856380D01*
X123347047Y-57856380D01*
X123442285Y-57808761D01*
X123489904Y-57761142D01*
X123537523Y-57665904D01*
X123537523Y-57427809D01*
X123489904Y-57332571D01*
X123442285Y-57284952D01*
X123347047Y-57237333D01*
X123156571Y-57237333D01*
X123061333Y-57284952D01*
X123013714Y-57332571D01*
X122966095Y-57427809D01*
X101132285Y-130382380D02*
X101132285Y-129382380D01*
X101465619Y-130096666D01*
X101798952Y-129382380D01*
X101798952Y-130382380D01*
X102418000Y-130382380D02*
X102322761Y-130334761D01*
X102275142Y-130287142D01*
X102227523Y-130191904D01*
X102227523Y-129906190D01*
X102275142Y-129810952D01*
X102322761Y-129763333D01*
X102418000Y-129715714D01*
X102560857Y-129715714D01*
X102656095Y-129763333D01*
X102703714Y-129810952D01*
X102751333Y-129906190D01*
X102751333Y-130191904D01*
X102703714Y-130287142D01*
X102656095Y-130334761D01*
X102560857Y-130382380D01*
X102418000Y-130382380D01*
X103608476Y-129715714D02*
X103608476Y-130382380D01*
X103179904Y-129715714D02*
X103179904Y-130239523D01*
X103227523Y-130334761D01*
X103322761Y-130382380D01*
X103465619Y-130382380D01*
X103560857Y-130334761D01*
X103608476Y-130287142D01*
X104084666Y-129715714D02*
X104084666Y-130382380D01*
X104084666Y-129810952D02*
X104132285Y-129763333D01*
X104227523Y-129715714D01*
X104370380Y-129715714D01*
X104465619Y-129763333D01*
X104513238Y-129858571D01*
X104513238Y-130382380D01*
X104846571Y-129715714D02*
X105227523Y-129715714D01*
X104989428Y-129382380D02*
X104989428Y-130239523D01*
X105037047Y-130334761D01*
X105132285Y-130382380D01*
X105227523Y-130382380D01*
X105560857Y-130382380D02*
X105560857Y-129715714D01*
X105560857Y-129382380D02*
X105513238Y-129430000D01*
X105560857Y-129477619D01*
X105608476Y-129430000D01*
X105560857Y-129382380D01*
X105560857Y-129477619D01*
X106037047Y-129715714D02*
X106037047Y-130382380D01*
X106037047Y-129810952D02*
X106084666Y-129763333D01*
X106179904Y-129715714D01*
X106322761Y-129715714D01*
X106418000Y-129763333D01*
X106465619Y-129858571D01*
X106465619Y-130382380D01*
X107370380Y-129715714D02*
X107370380Y-130525238D01*
X107322761Y-130620476D01*
X107275142Y-130668095D01*
X107179904Y-130715714D01*
X107037047Y-130715714D01*
X106941809Y-130668095D01*
X107370380Y-130334761D02*
X107275142Y-130382380D01*
X107084666Y-130382380D01*
X106989428Y-130334761D01*
X106941809Y-130287142D01*
X106894190Y-130191904D01*
X106894190Y-129906190D01*
X106941809Y-129810952D01*
X106989428Y-129763333D01*
X107084666Y-129715714D01*
X107275142Y-129715714D01*
X107370380Y-129763333D01*
X107846571Y-130382380D02*
X107846571Y-129382380D01*
X107846571Y-129858571D02*
X108418000Y-129858571D01*
X108418000Y-130382380D02*
X108418000Y-129382380D01*
X109037047Y-130382380D02*
X108941809Y-130334761D01*
X108894190Y-130287142D01*
X108846571Y-130191904D01*
X108846571Y-129906190D01*
X108894190Y-129810952D01*
X108941809Y-129763333D01*
X109037047Y-129715714D01*
X109179904Y-129715714D01*
X109275142Y-129763333D01*
X109322761Y-129810952D01*
X109370380Y-129906190D01*
X109370380Y-130191904D01*
X109322761Y-130287142D01*
X109275142Y-130334761D01*
X109179904Y-130382380D01*
X109037047Y-130382380D01*
X109941809Y-130382380D02*
X109846571Y-130334761D01*
X109798952Y-130239523D01*
X109798952Y-129382380D01*
X110703714Y-130334761D02*
X110608476Y-130382380D01*
X110418000Y-130382380D01*
X110322761Y-130334761D01*
X110275142Y-130239523D01*
X110275142Y-129858571D01*
X110322761Y-129763333D01*
X110418000Y-129715714D01*
X110608476Y-129715714D01*
X110703714Y-129763333D01*
X110751333Y-129858571D01*
X110751333Y-129953809D01*
X110275142Y-130049047D01*
X105456095Y-126182380D02*
X105456095Y-125182380D01*
X105456095Y-125658571D02*
X106027523Y-125658571D01*
X106027523Y-126182380D02*
X106027523Y-125182380D01*
X106979904Y-125182380D02*
X106503714Y-125182380D01*
X106456095Y-125658571D01*
X106503714Y-125610952D01*
X106598952Y-125563333D01*
X106837047Y-125563333D01*
X106932285Y-125610952D01*
X106979904Y-125658571D01*
X107027523Y-125753809D01*
X107027523Y-125991904D01*
X106979904Y-126087142D01*
X106932285Y-126134761D01*
X106837047Y-126182380D01*
X106598952Y-126182380D01*
X106503714Y-126134761D01*
X106456095Y-126087142D01*
X42204285Y-130890380D02*
X42204285Y-129890380D01*
X42537619Y-130604666D01*
X42870952Y-129890380D01*
X42870952Y-130890380D01*
X43490000Y-130890380D02*
X43394761Y-130842761D01*
X43347142Y-130795142D01*
X43299523Y-130699904D01*
X43299523Y-130414190D01*
X43347142Y-130318952D01*
X43394761Y-130271333D01*
X43490000Y-130223714D01*
X43632857Y-130223714D01*
X43728095Y-130271333D01*
X43775714Y-130318952D01*
X43823333Y-130414190D01*
X43823333Y-130699904D01*
X43775714Y-130795142D01*
X43728095Y-130842761D01*
X43632857Y-130890380D01*
X43490000Y-130890380D01*
X44680476Y-130223714D02*
X44680476Y-130890380D01*
X44251904Y-130223714D02*
X44251904Y-130747523D01*
X44299523Y-130842761D01*
X44394761Y-130890380D01*
X44537619Y-130890380D01*
X44632857Y-130842761D01*
X44680476Y-130795142D01*
X45156666Y-130223714D02*
X45156666Y-130890380D01*
X45156666Y-130318952D02*
X45204285Y-130271333D01*
X45299523Y-130223714D01*
X45442380Y-130223714D01*
X45537619Y-130271333D01*
X45585238Y-130366571D01*
X45585238Y-130890380D01*
X45918571Y-130223714D02*
X46299523Y-130223714D01*
X46061428Y-129890380D02*
X46061428Y-130747523D01*
X46109047Y-130842761D01*
X46204285Y-130890380D01*
X46299523Y-130890380D01*
X46632857Y-130890380D02*
X46632857Y-130223714D01*
X46632857Y-129890380D02*
X46585238Y-129938000D01*
X46632857Y-129985619D01*
X46680476Y-129938000D01*
X46632857Y-129890380D01*
X46632857Y-129985619D01*
X47109047Y-130223714D02*
X47109047Y-130890380D01*
X47109047Y-130318952D02*
X47156666Y-130271333D01*
X47251904Y-130223714D01*
X47394761Y-130223714D01*
X47490000Y-130271333D01*
X47537619Y-130366571D01*
X47537619Y-130890380D01*
X48442380Y-130223714D02*
X48442380Y-131033238D01*
X48394761Y-131128476D01*
X48347142Y-131176095D01*
X48251904Y-131223714D01*
X48109047Y-131223714D01*
X48013809Y-131176095D01*
X48442380Y-130842761D02*
X48347142Y-130890380D01*
X48156666Y-130890380D01*
X48061428Y-130842761D01*
X48013809Y-130795142D01*
X47966190Y-130699904D01*
X47966190Y-130414190D01*
X48013809Y-130318952D01*
X48061428Y-130271333D01*
X48156666Y-130223714D01*
X48347142Y-130223714D01*
X48442380Y-130271333D01*
X48918571Y-130890380D02*
X48918571Y-129890380D01*
X48918571Y-130366571D02*
X49490000Y-130366571D01*
X49490000Y-130890380D02*
X49490000Y-129890380D01*
X50109047Y-130890380D02*
X50013809Y-130842761D01*
X49966190Y-130795142D01*
X49918571Y-130699904D01*
X49918571Y-130414190D01*
X49966190Y-130318952D01*
X50013809Y-130271333D01*
X50109047Y-130223714D01*
X50251904Y-130223714D01*
X50347142Y-130271333D01*
X50394761Y-130318952D01*
X50442380Y-130414190D01*
X50442380Y-130699904D01*
X50394761Y-130795142D01*
X50347142Y-130842761D01*
X50251904Y-130890380D01*
X50109047Y-130890380D01*
X51013809Y-130890380D02*
X50918571Y-130842761D01*
X50870952Y-130747523D01*
X50870952Y-129890380D01*
X51775714Y-130842761D02*
X51680476Y-130890380D01*
X51490000Y-130890380D01*
X51394761Y-130842761D01*
X51347142Y-130747523D01*
X51347142Y-130366571D01*
X51394761Y-130271333D01*
X51490000Y-130223714D01*
X51680476Y-130223714D01*
X51775714Y-130271333D01*
X51823333Y-130366571D01*
X51823333Y-130461809D01*
X51347142Y-130557047D01*
X46528095Y-126690380D02*
X46528095Y-125690380D01*
X46528095Y-126166571D02*
X47099523Y-126166571D01*
X47099523Y-126690380D02*
X47099523Y-125690380D01*
X48004285Y-126023714D02*
X48004285Y-126690380D01*
X47766190Y-125642761D02*
X47528095Y-126357047D01*
X48147142Y-126357047D01*
X268264285Y-62056380D02*
X268264285Y-61056380D01*
X268597619Y-61770666D01*
X268930952Y-61056380D01*
X268930952Y-62056380D01*
X269550000Y-62056380D02*
X269454761Y-62008761D01*
X269407142Y-61961142D01*
X269359523Y-61865904D01*
X269359523Y-61580190D01*
X269407142Y-61484952D01*
X269454761Y-61437333D01*
X269550000Y-61389714D01*
X269692857Y-61389714D01*
X269788095Y-61437333D01*
X269835714Y-61484952D01*
X269883333Y-61580190D01*
X269883333Y-61865904D01*
X269835714Y-61961142D01*
X269788095Y-62008761D01*
X269692857Y-62056380D01*
X269550000Y-62056380D01*
X270740476Y-61389714D02*
X270740476Y-62056380D01*
X270311904Y-61389714D02*
X270311904Y-61913523D01*
X270359523Y-62008761D01*
X270454761Y-62056380D01*
X270597619Y-62056380D01*
X270692857Y-62008761D01*
X270740476Y-61961142D01*
X271216666Y-61389714D02*
X271216666Y-62056380D01*
X271216666Y-61484952D02*
X271264285Y-61437333D01*
X271359523Y-61389714D01*
X271502380Y-61389714D01*
X271597619Y-61437333D01*
X271645238Y-61532571D01*
X271645238Y-62056380D01*
X271978571Y-61389714D02*
X272359523Y-61389714D01*
X272121428Y-61056380D02*
X272121428Y-61913523D01*
X272169047Y-62008761D01*
X272264285Y-62056380D01*
X272359523Y-62056380D01*
X272692857Y-62056380D02*
X272692857Y-61389714D01*
X272692857Y-61056380D02*
X272645238Y-61104000D01*
X272692857Y-61151619D01*
X272740476Y-61104000D01*
X272692857Y-61056380D01*
X272692857Y-61151619D01*
X273169047Y-61389714D02*
X273169047Y-62056380D01*
X273169047Y-61484952D02*
X273216666Y-61437333D01*
X273311904Y-61389714D01*
X273454761Y-61389714D01*
X273550000Y-61437333D01*
X273597619Y-61532571D01*
X273597619Y-62056380D01*
X274502380Y-61389714D02*
X274502380Y-62199238D01*
X274454761Y-62294476D01*
X274407142Y-62342095D01*
X274311904Y-62389714D01*
X274169047Y-62389714D01*
X274073809Y-62342095D01*
X274502380Y-62008761D02*
X274407142Y-62056380D01*
X274216666Y-62056380D01*
X274121428Y-62008761D01*
X274073809Y-61961142D01*
X274026190Y-61865904D01*
X274026190Y-61580190D01*
X274073809Y-61484952D01*
X274121428Y-61437333D01*
X274216666Y-61389714D01*
X274407142Y-61389714D01*
X274502380Y-61437333D01*
X274978571Y-62056380D02*
X274978571Y-61056380D01*
X274978571Y-61532571D02*
X275550000Y-61532571D01*
X275550000Y-62056380D02*
X275550000Y-61056380D01*
X276169047Y-62056380D02*
X276073809Y-62008761D01*
X276026190Y-61961142D01*
X275978571Y-61865904D01*
X275978571Y-61580190D01*
X276026190Y-61484952D01*
X276073809Y-61437333D01*
X276169047Y-61389714D01*
X276311904Y-61389714D01*
X276407142Y-61437333D01*
X276454761Y-61484952D01*
X276502380Y-61580190D01*
X276502380Y-61865904D01*
X276454761Y-61961142D01*
X276407142Y-62008761D01*
X276311904Y-62056380D01*
X276169047Y-62056380D01*
X277073809Y-62056380D02*
X276978571Y-62008761D01*
X276930952Y-61913523D01*
X276930952Y-61056380D01*
X277835714Y-62008761D02*
X277740476Y-62056380D01*
X277550000Y-62056380D01*
X277454761Y-62008761D01*
X277407142Y-61913523D01*
X277407142Y-61532571D01*
X277454761Y-61437333D01*
X277550000Y-61389714D01*
X277740476Y-61389714D01*
X277835714Y-61437333D01*
X277883333Y-61532571D01*
X277883333Y-61627809D01*
X277407142Y-61723047D01*
X272588095Y-57856380D02*
X272588095Y-56856380D01*
X272588095Y-57332571D02*
X273159523Y-57332571D01*
X273159523Y-57856380D02*
X273159523Y-56856380D01*
X273540476Y-56856380D02*
X274159523Y-56856380D01*
X273826190Y-57237333D01*
X273969047Y-57237333D01*
X274064285Y-57284952D01*
X274111904Y-57332571D01*
X274159523Y-57427809D01*
X274159523Y-57665904D01*
X274111904Y-57761142D01*
X274064285Y-57808761D01*
X273969047Y-57856380D01*
X273683333Y-57856380D01*
X273588095Y-57808761D01*
X273540476Y-57761142D01*
X152186285Y-62056380D02*
X152186285Y-61056380D01*
X152519619Y-61770666D01*
X152852952Y-61056380D01*
X152852952Y-62056380D01*
X153472000Y-62056380D02*
X153376761Y-62008761D01*
X153329142Y-61961142D01*
X153281523Y-61865904D01*
X153281523Y-61580190D01*
X153329142Y-61484952D01*
X153376761Y-61437333D01*
X153472000Y-61389714D01*
X153614857Y-61389714D01*
X153710095Y-61437333D01*
X153757714Y-61484952D01*
X153805333Y-61580190D01*
X153805333Y-61865904D01*
X153757714Y-61961142D01*
X153710095Y-62008761D01*
X153614857Y-62056380D01*
X153472000Y-62056380D01*
X154662476Y-61389714D02*
X154662476Y-62056380D01*
X154233904Y-61389714D02*
X154233904Y-61913523D01*
X154281523Y-62008761D01*
X154376761Y-62056380D01*
X154519619Y-62056380D01*
X154614857Y-62008761D01*
X154662476Y-61961142D01*
X155138666Y-61389714D02*
X155138666Y-62056380D01*
X155138666Y-61484952D02*
X155186285Y-61437333D01*
X155281523Y-61389714D01*
X155424380Y-61389714D01*
X155519619Y-61437333D01*
X155567238Y-61532571D01*
X155567238Y-62056380D01*
X155900571Y-61389714D02*
X156281523Y-61389714D01*
X156043428Y-61056380D02*
X156043428Y-61913523D01*
X156091047Y-62008761D01*
X156186285Y-62056380D01*
X156281523Y-62056380D01*
X156614857Y-62056380D02*
X156614857Y-61389714D01*
X156614857Y-61056380D02*
X156567238Y-61104000D01*
X156614857Y-61151619D01*
X156662476Y-61104000D01*
X156614857Y-61056380D01*
X156614857Y-61151619D01*
X157091047Y-61389714D02*
X157091047Y-62056380D01*
X157091047Y-61484952D02*
X157138666Y-61437333D01*
X157233904Y-61389714D01*
X157376761Y-61389714D01*
X157472000Y-61437333D01*
X157519619Y-61532571D01*
X157519619Y-62056380D01*
X158424380Y-61389714D02*
X158424380Y-62199238D01*
X158376761Y-62294476D01*
X158329142Y-62342095D01*
X158233904Y-62389714D01*
X158091047Y-62389714D01*
X157995809Y-62342095D01*
X158424380Y-62008761D02*
X158329142Y-62056380D01*
X158138666Y-62056380D01*
X158043428Y-62008761D01*
X157995809Y-61961142D01*
X157948190Y-61865904D01*
X157948190Y-61580190D01*
X157995809Y-61484952D01*
X158043428Y-61437333D01*
X158138666Y-61389714D01*
X158329142Y-61389714D01*
X158424380Y-61437333D01*
X158900571Y-62056380D02*
X158900571Y-61056380D01*
X158900571Y-61532571D02*
X159472000Y-61532571D01*
X159472000Y-62056380D02*
X159472000Y-61056380D01*
X160091047Y-62056380D02*
X159995809Y-62008761D01*
X159948190Y-61961142D01*
X159900571Y-61865904D01*
X159900571Y-61580190D01*
X159948190Y-61484952D01*
X159995809Y-61437333D01*
X160091047Y-61389714D01*
X160233904Y-61389714D01*
X160329142Y-61437333D01*
X160376761Y-61484952D01*
X160424380Y-61580190D01*
X160424380Y-61865904D01*
X160376761Y-61961142D01*
X160329142Y-62008761D01*
X160233904Y-62056380D01*
X160091047Y-62056380D01*
X160995809Y-62056380D02*
X160900571Y-62008761D01*
X160852952Y-61913523D01*
X160852952Y-61056380D01*
X161757714Y-62008761D02*
X161662476Y-62056380D01*
X161472000Y-62056380D01*
X161376761Y-62008761D01*
X161329142Y-61913523D01*
X161329142Y-61532571D01*
X161376761Y-61437333D01*
X161472000Y-61389714D01*
X161662476Y-61389714D01*
X161757714Y-61437333D01*
X161805333Y-61532571D01*
X161805333Y-61627809D01*
X161329142Y-61723047D01*
X156210095Y-57856380D02*
X156210095Y-56856380D01*
X156210095Y-57332571D02*
X156781523Y-57332571D01*
X156781523Y-57856380D02*
X156781523Y-56856380D01*
X157210095Y-56951619D02*
X157257714Y-56904000D01*
X157352952Y-56856380D01*
X157591047Y-56856380D01*
X157686285Y-56904000D01*
X157733904Y-56951619D01*
X157781523Y-57046857D01*
X157781523Y-57142095D01*
X157733904Y-57284952D01*
X157162476Y-57856380D01*
X157781523Y-57856380D01*
X18963285Y-62056380D02*
X18963285Y-61056380D01*
X19296619Y-61770666D01*
X19629952Y-61056380D01*
X19629952Y-62056380D01*
X20249000Y-62056380D02*
X20153761Y-62008761D01*
X20106142Y-61961142D01*
X20058523Y-61865904D01*
X20058523Y-61580190D01*
X20106142Y-61484952D01*
X20153761Y-61437333D01*
X20249000Y-61389714D01*
X20391857Y-61389714D01*
X20487095Y-61437333D01*
X20534714Y-61484952D01*
X20582333Y-61580190D01*
X20582333Y-61865904D01*
X20534714Y-61961142D01*
X20487095Y-62008761D01*
X20391857Y-62056380D01*
X20249000Y-62056380D01*
X21439476Y-61389714D02*
X21439476Y-62056380D01*
X21010904Y-61389714D02*
X21010904Y-61913523D01*
X21058523Y-62008761D01*
X21153761Y-62056380D01*
X21296619Y-62056380D01*
X21391857Y-62008761D01*
X21439476Y-61961142D01*
X21915666Y-61389714D02*
X21915666Y-62056380D01*
X21915666Y-61484952D02*
X21963285Y-61437333D01*
X22058523Y-61389714D01*
X22201380Y-61389714D01*
X22296619Y-61437333D01*
X22344238Y-61532571D01*
X22344238Y-62056380D01*
X22677571Y-61389714D02*
X23058523Y-61389714D01*
X22820428Y-61056380D02*
X22820428Y-61913523D01*
X22868047Y-62008761D01*
X22963285Y-62056380D01*
X23058523Y-62056380D01*
X23391857Y-62056380D02*
X23391857Y-61389714D01*
X23391857Y-61056380D02*
X23344238Y-61104000D01*
X23391857Y-61151619D01*
X23439476Y-61104000D01*
X23391857Y-61056380D01*
X23391857Y-61151619D01*
X23868047Y-61389714D02*
X23868047Y-62056380D01*
X23868047Y-61484952D02*
X23915666Y-61437333D01*
X24010904Y-61389714D01*
X24153761Y-61389714D01*
X24249000Y-61437333D01*
X24296619Y-61532571D01*
X24296619Y-62056380D01*
X25201380Y-61389714D02*
X25201380Y-62199238D01*
X25153761Y-62294476D01*
X25106142Y-62342095D01*
X25010904Y-62389714D01*
X24868047Y-62389714D01*
X24772809Y-62342095D01*
X25201380Y-62008761D02*
X25106142Y-62056380D01*
X24915666Y-62056380D01*
X24820428Y-62008761D01*
X24772809Y-61961142D01*
X24725190Y-61865904D01*
X24725190Y-61580190D01*
X24772809Y-61484952D01*
X24820428Y-61437333D01*
X24915666Y-61389714D01*
X25106142Y-61389714D01*
X25201380Y-61437333D01*
X25677571Y-62056380D02*
X25677571Y-61056380D01*
X25677571Y-61532571D02*
X26249000Y-61532571D01*
X26249000Y-62056380D02*
X26249000Y-61056380D01*
X26868047Y-62056380D02*
X26772809Y-62008761D01*
X26725190Y-61961142D01*
X26677571Y-61865904D01*
X26677571Y-61580190D01*
X26725190Y-61484952D01*
X26772809Y-61437333D01*
X26868047Y-61389714D01*
X27010904Y-61389714D01*
X27106142Y-61437333D01*
X27153761Y-61484952D01*
X27201380Y-61580190D01*
X27201380Y-61865904D01*
X27153761Y-61961142D01*
X27106142Y-62008761D01*
X27010904Y-62056380D01*
X26868047Y-62056380D01*
X27772809Y-62056380D02*
X27677571Y-62008761D01*
X27629952Y-61913523D01*
X27629952Y-61056380D01*
X28534714Y-62008761D02*
X28439476Y-62056380D01*
X28249000Y-62056380D01*
X28153761Y-62008761D01*
X28106142Y-61913523D01*
X28106142Y-61532571D01*
X28153761Y-61437333D01*
X28249000Y-61389714D01*
X28439476Y-61389714D01*
X28534714Y-61437333D01*
X28582333Y-61532571D01*
X28582333Y-61627809D01*
X28106142Y-61723047D01*
X23287095Y-57856380D02*
X23287095Y-56856380D01*
X23287095Y-57332571D02*
X23858523Y-57332571D01*
X23858523Y-57856380D02*
X23858523Y-56856380D01*
X24858523Y-57856380D02*
X24287095Y-57856380D01*
X24572809Y-57856380D02*
X24572809Y-56856380D01*
X24477571Y-56999238D01*
X24382333Y-57094476D01*
X24287095Y-57142095D01*
X268264285Y-130382380D02*
X268264285Y-129382380D01*
X268597619Y-130096666D01*
X268930952Y-129382380D01*
X268930952Y-130382380D01*
X269550000Y-130382380D02*
X269454761Y-130334761D01*
X269407142Y-130287142D01*
X269359523Y-130191904D01*
X269359523Y-129906190D01*
X269407142Y-129810952D01*
X269454761Y-129763333D01*
X269550000Y-129715714D01*
X269692857Y-129715714D01*
X269788095Y-129763333D01*
X269835714Y-129810952D01*
X269883333Y-129906190D01*
X269883333Y-130191904D01*
X269835714Y-130287142D01*
X269788095Y-130334761D01*
X269692857Y-130382380D01*
X269550000Y-130382380D01*
X270740476Y-129715714D02*
X270740476Y-130382380D01*
X270311904Y-129715714D02*
X270311904Y-130239523D01*
X270359523Y-130334761D01*
X270454761Y-130382380D01*
X270597619Y-130382380D01*
X270692857Y-130334761D01*
X270740476Y-130287142D01*
X271216666Y-129715714D02*
X271216666Y-130382380D01*
X271216666Y-129810952D02*
X271264285Y-129763333D01*
X271359523Y-129715714D01*
X271502380Y-129715714D01*
X271597619Y-129763333D01*
X271645238Y-129858571D01*
X271645238Y-130382380D01*
X271978571Y-129715714D02*
X272359523Y-129715714D01*
X272121428Y-129382380D02*
X272121428Y-130239523D01*
X272169047Y-130334761D01*
X272264285Y-130382380D01*
X272359523Y-130382380D01*
X272692857Y-130382380D02*
X272692857Y-129715714D01*
X272692857Y-129382380D02*
X272645238Y-129430000D01*
X272692857Y-129477619D01*
X272740476Y-129430000D01*
X272692857Y-129382380D01*
X272692857Y-129477619D01*
X273169047Y-129715714D02*
X273169047Y-130382380D01*
X273169047Y-129810952D02*
X273216666Y-129763333D01*
X273311904Y-129715714D01*
X273454761Y-129715714D01*
X273550000Y-129763333D01*
X273597619Y-129858571D01*
X273597619Y-130382380D01*
X274502380Y-129715714D02*
X274502380Y-130525238D01*
X274454761Y-130620476D01*
X274407142Y-130668095D01*
X274311904Y-130715714D01*
X274169047Y-130715714D01*
X274073809Y-130668095D01*
X274502380Y-130334761D02*
X274407142Y-130382380D01*
X274216666Y-130382380D01*
X274121428Y-130334761D01*
X274073809Y-130287142D01*
X274026190Y-130191904D01*
X274026190Y-129906190D01*
X274073809Y-129810952D01*
X274121428Y-129763333D01*
X274216666Y-129715714D01*
X274407142Y-129715714D01*
X274502380Y-129763333D01*
X274978571Y-130382380D02*
X274978571Y-129382380D01*
X274978571Y-129858571D02*
X275550000Y-129858571D01*
X275550000Y-130382380D02*
X275550000Y-129382380D01*
X276169047Y-130382380D02*
X276073809Y-130334761D01*
X276026190Y-130287142D01*
X275978571Y-130191904D01*
X275978571Y-129906190D01*
X276026190Y-129810952D01*
X276073809Y-129763333D01*
X276169047Y-129715714D01*
X276311904Y-129715714D01*
X276407142Y-129763333D01*
X276454761Y-129810952D01*
X276502380Y-129906190D01*
X276502380Y-130191904D01*
X276454761Y-130287142D01*
X276407142Y-130334761D01*
X276311904Y-130382380D01*
X276169047Y-130382380D01*
X277073809Y-130382380D02*
X276978571Y-130334761D01*
X276930952Y-130239523D01*
X276930952Y-129382380D01*
X277835714Y-130334761D02*
X277740476Y-130382380D01*
X277550000Y-130382380D01*
X277454761Y-130334761D01*
X277407142Y-130239523D01*
X277407142Y-129858571D01*
X277454761Y-129763333D01*
X277550000Y-129715714D01*
X277740476Y-129715714D01*
X277835714Y-129763333D01*
X277883333Y-129858571D01*
X277883333Y-129953809D01*
X277407142Y-130049047D01*
X272588095Y-126182380D02*
X272588095Y-125182380D01*
X272588095Y-125658571D02*
X273159523Y-125658571D01*
X273159523Y-126182380D02*
X273159523Y-125182380D01*
X273778571Y-125610952D02*
X273683333Y-125563333D01*
X273635714Y-125515714D01*
X273588095Y-125420476D01*
X273588095Y-125372857D01*
X273635714Y-125277619D01*
X273683333Y-125230000D01*
X273778571Y-125182380D01*
X273969047Y-125182380D01*
X274064285Y-125230000D01*
X274111904Y-125277619D01*
X274159523Y-125372857D01*
X274159523Y-125420476D01*
X274111904Y-125515714D01*
X274064285Y-125563333D01*
X273969047Y-125610952D01*
X273778571Y-125610952D01*
X273683333Y-125658571D01*
X273635714Y-125706190D01*
X273588095Y-125801428D01*
X273588095Y-125991904D01*
X273635714Y-126087142D01*
X273683333Y-126134761D01*
X273778571Y-126182380D01*
X273969047Y-126182380D01*
X274064285Y-126134761D01*
X274111904Y-126087142D01*
X274159523Y-125991904D01*
X274159523Y-125801428D01*
X274111904Y-125706190D01*
X274064285Y-125658571D01*
X273969047Y-125610952D01*
X64302285Y-96092380D02*
X64302285Y-95092380D01*
X64635619Y-95806666D01*
X64968952Y-95092380D01*
X64968952Y-96092380D01*
X65588000Y-96092380D02*
X65492761Y-96044761D01*
X65445142Y-95997142D01*
X65397523Y-95901904D01*
X65397523Y-95616190D01*
X65445142Y-95520952D01*
X65492761Y-95473333D01*
X65588000Y-95425714D01*
X65730857Y-95425714D01*
X65826095Y-95473333D01*
X65873714Y-95520952D01*
X65921333Y-95616190D01*
X65921333Y-95901904D01*
X65873714Y-95997142D01*
X65826095Y-96044761D01*
X65730857Y-96092380D01*
X65588000Y-96092380D01*
X66778476Y-95425714D02*
X66778476Y-96092380D01*
X66349904Y-95425714D02*
X66349904Y-95949523D01*
X66397523Y-96044761D01*
X66492761Y-96092380D01*
X66635619Y-96092380D01*
X66730857Y-96044761D01*
X66778476Y-95997142D01*
X67254666Y-95425714D02*
X67254666Y-96092380D01*
X67254666Y-95520952D02*
X67302285Y-95473333D01*
X67397523Y-95425714D01*
X67540380Y-95425714D01*
X67635619Y-95473333D01*
X67683238Y-95568571D01*
X67683238Y-96092380D01*
X68016571Y-95425714D02*
X68397523Y-95425714D01*
X68159428Y-95092380D02*
X68159428Y-95949523D01*
X68207047Y-96044761D01*
X68302285Y-96092380D01*
X68397523Y-96092380D01*
X68730857Y-96092380D02*
X68730857Y-95425714D01*
X68730857Y-95092380D02*
X68683238Y-95140000D01*
X68730857Y-95187619D01*
X68778476Y-95140000D01*
X68730857Y-95092380D01*
X68730857Y-95187619D01*
X69207047Y-95425714D02*
X69207047Y-96092380D01*
X69207047Y-95520952D02*
X69254666Y-95473333D01*
X69349904Y-95425714D01*
X69492761Y-95425714D01*
X69588000Y-95473333D01*
X69635619Y-95568571D01*
X69635619Y-96092380D01*
X70540380Y-95425714D02*
X70540380Y-96235238D01*
X70492761Y-96330476D01*
X70445142Y-96378095D01*
X70349904Y-96425714D01*
X70207047Y-96425714D01*
X70111809Y-96378095D01*
X70540380Y-96044761D02*
X70445142Y-96092380D01*
X70254666Y-96092380D01*
X70159428Y-96044761D01*
X70111809Y-95997142D01*
X70064190Y-95901904D01*
X70064190Y-95616190D01*
X70111809Y-95520952D01*
X70159428Y-95473333D01*
X70254666Y-95425714D01*
X70445142Y-95425714D01*
X70540380Y-95473333D01*
X71016571Y-96092380D02*
X71016571Y-95092380D01*
X71016571Y-95568571D02*
X71588000Y-95568571D01*
X71588000Y-96092380D02*
X71588000Y-95092380D01*
X72207047Y-96092380D02*
X72111809Y-96044761D01*
X72064190Y-95997142D01*
X72016571Y-95901904D01*
X72016571Y-95616190D01*
X72064190Y-95520952D01*
X72111809Y-95473333D01*
X72207047Y-95425714D01*
X72349904Y-95425714D01*
X72445142Y-95473333D01*
X72492761Y-95520952D01*
X72540380Y-95616190D01*
X72540380Y-95901904D01*
X72492761Y-95997142D01*
X72445142Y-96044761D01*
X72349904Y-96092380D01*
X72207047Y-96092380D01*
X73111809Y-96092380D02*
X73016571Y-96044761D01*
X72968952Y-95949523D01*
X72968952Y-95092380D01*
X73873714Y-96044761D02*
X73778476Y-96092380D01*
X73588000Y-96092380D01*
X73492761Y-96044761D01*
X73445142Y-95949523D01*
X73445142Y-95568571D01*
X73492761Y-95473333D01*
X73588000Y-95425714D01*
X73778476Y-95425714D01*
X73873714Y-95473333D01*
X73921333Y-95568571D01*
X73921333Y-95663809D01*
X73445142Y-95759047D01*
X68626095Y-91892380D02*
X68626095Y-90892380D01*
X68626095Y-91368571D02*
X69197523Y-91368571D01*
X69197523Y-91892380D02*
X69197523Y-90892380D01*
X69721333Y-91892380D02*
X69911809Y-91892380D01*
X70007047Y-91844761D01*
X70054666Y-91797142D01*
X70149904Y-91654285D01*
X70197523Y-91463809D01*
X70197523Y-91082857D01*
X70149904Y-90987619D01*
X70102285Y-90940000D01*
X70007047Y-90892380D01*
X69816571Y-90892380D01*
X69721333Y-90940000D01*
X69673714Y-90987619D01*
X69626095Y-91082857D01*
X69626095Y-91320952D01*
X69673714Y-91416190D01*
X69721333Y-91463809D01*
X69816571Y-91511428D01*
X70007047Y-91511428D01*
X70102285Y-91463809D01*
X70149904Y-91416190D01*
X70197523Y-91320952D01*
X148122285Y-97616380D02*
X148122285Y-96616380D01*
X148455619Y-97330666D01*
X148788952Y-96616380D01*
X148788952Y-97616380D01*
X149408000Y-97616380D02*
X149312761Y-97568761D01*
X149265142Y-97521142D01*
X149217523Y-97425904D01*
X149217523Y-97140190D01*
X149265142Y-97044952D01*
X149312761Y-96997333D01*
X149408000Y-96949714D01*
X149550857Y-96949714D01*
X149646095Y-96997333D01*
X149693714Y-97044952D01*
X149741333Y-97140190D01*
X149741333Y-97425904D01*
X149693714Y-97521142D01*
X149646095Y-97568761D01*
X149550857Y-97616380D01*
X149408000Y-97616380D01*
X150598476Y-96949714D02*
X150598476Y-97616380D01*
X150169904Y-96949714D02*
X150169904Y-97473523D01*
X150217523Y-97568761D01*
X150312761Y-97616380D01*
X150455619Y-97616380D01*
X150550857Y-97568761D01*
X150598476Y-97521142D01*
X151074666Y-96949714D02*
X151074666Y-97616380D01*
X151074666Y-97044952D02*
X151122285Y-96997333D01*
X151217523Y-96949714D01*
X151360380Y-96949714D01*
X151455619Y-96997333D01*
X151503238Y-97092571D01*
X151503238Y-97616380D01*
X151836571Y-96949714D02*
X152217523Y-96949714D01*
X151979428Y-96616380D02*
X151979428Y-97473523D01*
X152027047Y-97568761D01*
X152122285Y-97616380D01*
X152217523Y-97616380D01*
X152550857Y-97616380D02*
X152550857Y-96949714D01*
X152550857Y-96616380D02*
X152503238Y-96664000D01*
X152550857Y-96711619D01*
X152598476Y-96664000D01*
X152550857Y-96616380D01*
X152550857Y-96711619D01*
X153027047Y-96949714D02*
X153027047Y-97616380D01*
X153027047Y-97044952D02*
X153074666Y-96997333D01*
X153169904Y-96949714D01*
X153312761Y-96949714D01*
X153408000Y-96997333D01*
X153455619Y-97092571D01*
X153455619Y-97616380D01*
X154360380Y-96949714D02*
X154360380Y-97759238D01*
X154312761Y-97854476D01*
X154265142Y-97902095D01*
X154169904Y-97949714D01*
X154027047Y-97949714D01*
X153931809Y-97902095D01*
X154360380Y-97568761D02*
X154265142Y-97616380D01*
X154074666Y-97616380D01*
X153979428Y-97568761D01*
X153931809Y-97521142D01*
X153884190Y-97425904D01*
X153884190Y-97140190D01*
X153931809Y-97044952D01*
X153979428Y-96997333D01*
X154074666Y-96949714D01*
X154265142Y-96949714D01*
X154360380Y-96997333D01*
X154836571Y-97616380D02*
X154836571Y-96616380D01*
X154836571Y-97092571D02*
X155408000Y-97092571D01*
X155408000Y-97616380D02*
X155408000Y-96616380D01*
X156027047Y-97616380D02*
X155931809Y-97568761D01*
X155884190Y-97521142D01*
X155836571Y-97425904D01*
X155836571Y-97140190D01*
X155884190Y-97044952D01*
X155931809Y-96997333D01*
X156027047Y-96949714D01*
X156169904Y-96949714D01*
X156265142Y-96997333D01*
X156312761Y-97044952D01*
X156360380Y-97140190D01*
X156360380Y-97425904D01*
X156312761Y-97521142D01*
X156265142Y-97568761D01*
X156169904Y-97616380D01*
X156027047Y-97616380D01*
X156931809Y-97616380D02*
X156836571Y-97568761D01*
X156788952Y-97473523D01*
X156788952Y-96616380D01*
X157693714Y-97568761D02*
X157598476Y-97616380D01*
X157408000Y-97616380D01*
X157312761Y-97568761D01*
X157265142Y-97473523D01*
X157265142Y-97092571D01*
X157312761Y-96997333D01*
X157408000Y-96949714D01*
X157598476Y-96949714D01*
X157693714Y-96997333D01*
X157741333Y-97092571D01*
X157741333Y-97187809D01*
X157265142Y-97283047D01*
X151969904Y-93416380D02*
X151969904Y-92416380D01*
X151969904Y-92892571D02*
X152541333Y-92892571D01*
X152541333Y-93416380D02*
X152541333Y-92416380D01*
X153541333Y-93416380D02*
X152969904Y-93416380D01*
X153255619Y-93416380D02*
X153255619Y-92416380D01*
X153160380Y-92559238D01*
X153065142Y-92654476D01*
X152969904Y-92702095D01*
X154160380Y-92416380D02*
X154255619Y-92416380D01*
X154350857Y-92464000D01*
X154398476Y-92511619D01*
X154446095Y-92606857D01*
X154493714Y-92797333D01*
X154493714Y-93035428D01*
X154446095Y-93225904D01*
X154398476Y-93321142D01*
X154350857Y-93368761D01*
X154255619Y-93416380D01*
X154160380Y-93416380D01*
X154065142Y-93368761D01*
X154017523Y-93321142D01*
X153969904Y-93225904D01*
X153922285Y-93035428D01*
X153922285Y-92797333D01*
X153969904Y-92606857D01*
X154017523Y-92511619D01*
X154065142Y-92464000D01*
X154160380Y-92416380D01*
X215559285Y-97870380D02*
X215559285Y-96870380D01*
X215892619Y-97584666D01*
X216225952Y-96870380D01*
X216225952Y-97870380D01*
X216845000Y-97870380D02*
X216749761Y-97822761D01*
X216702142Y-97775142D01*
X216654523Y-97679904D01*
X216654523Y-97394190D01*
X216702142Y-97298952D01*
X216749761Y-97251333D01*
X216845000Y-97203714D01*
X216987857Y-97203714D01*
X217083095Y-97251333D01*
X217130714Y-97298952D01*
X217178333Y-97394190D01*
X217178333Y-97679904D01*
X217130714Y-97775142D01*
X217083095Y-97822761D01*
X216987857Y-97870380D01*
X216845000Y-97870380D01*
X218035476Y-97203714D02*
X218035476Y-97870380D01*
X217606904Y-97203714D02*
X217606904Y-97727523D01*
X217654523Y-97822761D01*
X217749761Y-97870380D01*
X217892619Y-97870380D01*
X217987857Y-97822761D01*
X218035476Y-97775142D01*
X218511666Y-97203714D02*
X218511666Y-97870380D01*
X218511666Y-97298952D02*
X218559285Y-97251333D01*
X218654523Y-97203714D01*
X218797380Y-97203714D01*
X218892619Y-97251333D01*
X218940238Y-97346571D01*
X218940238Y-97870380D01*
X219273571Y-97203714D02*
X219654523Y-97203714D01*
X219416428Y-96870380D02*
X219416428Y-97727523D01*
X219464047Y-97822761D01*
X219559285Y-97870380D01*
X219654523Y-97870380D01*
X219987857Y-97870380D02*
X219987857Y-97203714D01*
X219987857Y-96870380D02*
X219940238Y-96918000D01*
X219987857Y-96965619D01*
X220035476Y-96918000D01*
X219987857Y-96870380D01*
X219987857Y-96965619D01*
X220464047Y-97203714D02*
X220464047Y-97870380D01*
X220464047Y-97298952D02*
X220511666Y-97251333D01*
X220606904Y-97203714D01*
X220749761Y-97203714D01*
X220845000Y-97251333D01*
X220892619Y-97346571D01*
X220892619Y-97870380D01*
X221797380Y-97203714D02*
X221797380Y-98013238D01*
X221749761Y-98108476D01*
X221702142Y-98156095D01*
X221606904Y-98203714D01*
X221464047Y-98203714D01*
X221368809Y-98156095D01*
X221797380Y-97822761D02*
X221702142Y-97870380D01*
X221511666Y-97870380D01*
X221416428Y-97822761D01*
X221368809Y-97775142D01*
X221321190Y-97679904D01*
X221321190Y-97394190D01*
X221368809Y-97298952D01*
X221416428Y-97251333D01*
X221511666Y-97203714D01*
X221702142Y-97203714D01*
X221797380Y-97251333D01*
X222273571Y-97870380D02*
X222273571Y-96870380D01*
X222273571Y-97346571D02*
X222845000Y-97346571D01*
X222845000Y-97870380D02*
X222845000Y-96870380D01*
X223464047Y-97870380D02*
X223368809Y-97822761D01*
X223321190Y-97775142D01*
X223273571Y-97679904D01*
X223273571Y-97394190D01*
X223321190Y-97298952D01*
X223368809Y-97251333D01*
X223464047Y-97203714D01*
X223606904Y-97203714D01*
X223702142Y-97251333D01*
X223749761Y-97298952D01*
X223797380Y-97394190D01*
X223797380Y-97679904D01*
X223749761Y-97775142D01*
X223702142Y-97822761D01*
X223606904Y-97870380D01*
X223464047Y-97870380D01*
X224368809Y-97870380D02*
X224273571Y-97822761D01*
X224225952Y-97727523D01*
X224225952Y-96870380D01*
X225130714Y-97822761D02*
X225035476Y-97870380D01*
X224845000Y-97870380D01*
X224749761Y-97822761D01*
X224702142Y-97727523D01*
X224702142Y-97346571D01*
X224749761Y-97251333D01*
X224845000Y-97203714D01*
X225035476Y-97203714D01*
X225130714Y-97251333D01*
X225178333Y-97346571D01*
X225178333Y-97441809D01*
X224702142Y-97537047D01*
X219406904Y-93670380D02*
X219406904Y-92670380D01*
X219406904Y-93146571D02*
X219978333Y-93146571D01*
X219978333Y-93670380D02*
X219978333Y-92670380D01*
X220978333Y-93670380D02*
X220406904Y-93670380D01*
X220692619Y-93670380D02*
X220692619Y-92670380D01*
X220597380Y-92813238D01*
X220502142Y-92908476D01*
X220406904Y-92956095D01*
X221930714Y-93670380D02*
X221359285Y-93670380D01*
X221645000Y-93670380D02*
X221645000Y-92670380D01*
X221549761Y-92813238D01*
X221454523Y-92908476D01*
X221359285Y-92956095D01*
M02*
