G04 #@! TF.GenerationSoftware,KiCad,Pcbnew,(5.1.12)-1*
G04 #@! TF.CreationDate,2025-01-10T02:51:26+01:00*
G04 #@! TF.ProjectId,JCM800,4a434d38-3030-42e6-9b69-6361645f7063,0.2*
G04 #@! TF.SameCoordinates,Original*
G04 #@! TF.FileFunction,Soldermask,Bot*
G04 #@! TF.FilePolarity,Negative*
%FSLAX46Y46*%
G04 Gerber Fmt 4.6, Leading zero omitted, Abs format (unit mm)*
G04 Created by KiCad (PCBNEW (5.1.12)-1) date 2025-01-10 02:51:26*
%MOMM*%
%LPD*%
G01*
G04 APERTURE LIST*
%ADD10O,2.800000X2.800000*%
%ADD11C,2.800000*%
%ADD12O,1.600000X1.600000*%
%ADD13C,1.600000*%
%ADD14C,2.540000*%
%ADD15C,2.400000*%
%ADD16O,2.400000X2.400000*%
%ADD17R,2.400000X2.400000*%
%ADD18C,3.000000*%
%ADD19C,2.000000*%
%ADD20R,2.600000X2.600000*%
%ADD21C,2.600000*%
%ADD22C,3.200000*%
%ADD23R,1.700000X1.700000*%
%ADD24O,1.800000X1.800000*%
%ADD25R,1.800000X1.800000*%
%ADD26C,2.340000*%
%ADD27C,1.440000*%
%ADD28R,1.600000X1.600000*%
%ADD29R,2.000000X2.000000*%
G04 APERTURE END LIST*
D10*
X249600000Y-96900000D03*
D11*
X249600000Y-76580000D03*
D12*
X173228000Y-109220000D03*
D13*
X163068000Y-109220000D03*
D14*
X201295000Y-88646000D03*
X211709000Y-88773000D03*
X198375000Y-84526000D03*
X198498000Y-78895000D03*
X201498000Y-74891000D03*
X206502000Y-73391000D03*
X211760000Y-75145000D03*
X214756000Y-84399000D03*
X214506000Y-79022000D03*
D13*
X90932000Y-67310000D03*
D12*
X90932000Y-57150000D03*
D15*
X240225000Y-109400000D03*
D16*
X240225000Y-94160000D03*
D17*
X100203000Y-63500000D03*
D15*
X107703000Y-63500000D03*
D18*
X23900000Y-113430000D03*
X23900000Y-119730000D03*
X23900000Y-126030000D03*
X40100000Y-113430000D03*
X40100000Y-119730000D03*
X40100000Y-126030000D03*
X53900000Y-113430000D03*
X53900000Y-119730000D03*
X53900000Y-126030000D03*
X70100000Y-113430000D03*
X70100000Y-119730000D03*
X70100000Y-126030000D03*
D13*
X62166500Y-81534000D03*
X62166500Y-86534000D03*
X85852000Y-99060000D03*
X85852000Y-104060000D03*
D19*
X125222000Y-111760000D03*
X125222000Y-104260000D03*
X145542000Y-104267000D03*
X145542000Y-111767000D03*
X62801500Y-76708000D03*
X55301500Y-76708000D03*
X62992000Y-94996000D03*
X62992000Y-102496000D03*
X47752000Y-98044000D03*
X47752000Y-105544000D03*
X115062000Y-111760000D03*
X115062000Y-104260000D03*
D20*
X233045000Y-58420000D03*
D21*
X228045000Y-58420000D03*
D15*
X262770000Y-109220000D03*
D17*
X255270000Y-109220000D03*
X255016000Y-62992000D03*
D15*
X262516000Y-62992000D03*
D17*
X52832000Y-63500000D03*
D15*
X60332000Y-63500000D03*
D17*
X263017000Y-90043000D03*
D15*
X270517000Y-90043000D03*
D22*
X189992000Y-125730000D03*
X122428000Y-57404000D03*
X105918000Y-125730000D03*
X46990000Y-126238000D03*
X273050000Y-57404000D03*
X156972000Y-57404000D03*
X23749000Y-57404000D03*
D23*
X198200000Y-69000000D03*
D13*
X57959000Y-89662000D03*
X52959000Y-89662000D03*
X78232000Y-99140000D03*
X78232000Y-104140000D03*
D24*
X242105999Y-89172000D03*
D25*
X231945999Y-89172000D03*
X242100000Y-75200000D03*
D24*
X231940000Y-75200000D03*
X242260000Y-81800000D03*
D25*
X232100000Y-81800000D03*
X242105999Y-68217000D03*
D24*
X231945999Y-68217000D03*
D13*
X46990000Y-120015000D03*
D12*
X46990000Y-109855000D03*
D13*
X37211000Y-96520000D03*
D12*
X37211000Y-106680000D03*
D13*
X55372000Y-106680000D03*
D12*
X55372000Y-96520000D03*
D13*
X27686000Y-96647000D03*
D12*
X27686000Y-86487000D03*
X70612000Y-106680000D03*
D13*
X70612000Y-96520000D03*
X35052000Y-57150000D03*
D12*
X35052000Y-67310000D03*
D13*
X41656000Y-67310000D03*
D12*
X41656000Y-57150000D03*
X67246500Y-86360000D03*
D13*
X67246500Y-76200000D03*
D12*
X70612000Y-67310000D03*
D13*
X70612000Y-57150000D03*
X101219000Y-74422000D03*
D12*
X101219000Y-84582000D03*
D13*
X108077000Y-88646000D03*
D12*
X108077000Y-78486000D03*
D13*
X155448000Y-113284000D03*
D12*
X155448000Y-103124000D03*
X80772000Y-67310000D03*
D13*
X80772000Y-57150000D03*
X135382000Y-113030000D03*
D12*
X135382000Y-102870000D03*
D20*
X245237000Y-58420000D03*
D21*
X240237000Y-58420000D03*
X164291000Y-58420000D03*
D20*
X169291000Y-58420000D03*
D23*
X225700000Y-69400000D03*
X227076000Y-104648000D03*
X231987000Y-108712000D03*
X231987000Y-118364000D03*
D12*
X103886000Y-89281000D03*
D13*
X93726000Y-89281000D03*
D12*
X102616000Y-96774000D03*
D13*
X92456000Y-96774000D03*
D26*
X181000000Y-127230000D03*
X176000000Y-127230000D03*
X171000000Y-127230000D03*
X97000000Y-127230000D03*
X92000000Y-127230000D03*
X87000000Y-127230000D03*
X199000000Y-127230000D03*
X204000000Y-127230000D03*
X209000000Y-127230000D03*
X153000000Y-127230000D03*
X148000000Y-127230000D03*
X143000000Y-127230000D03*
X115000000Y-127230000D03*
X120000000Y-127230000D03*
X125000000Y-127230000D03*
D19*
X144152000Y-96012000D03*
X136652000Y-96012000D03*
X137160000Y-73025000D03*
X144660000Y-73025000D03*
X197866000Y-117736000D03*
X197866000Y-110236000D03*
X171894500Y-116078000D03*
X164394500Y-116078000D03*
X197866000Y-96513000D03*
X197866000Y-104013000D03*
D26*
X265000000Y-127230000D03*
X260000000Y-127230000D03*
X255000000Y-127230000D03*
X227000000Y-127230000D03*
X232000000Y-127230000D03*
X237000000Y-127230000D03*
D13*
X124460000Y-117094000D03*
D12*
X114300000Y-117094000D03*
X143256000Y-88773000D03*
D13*
X143256000Y-78613000D03*
X138303000Y-78613000D03*
D12*
X138303000Y-88773000D03*
X128016000Y-97282000D03*
D13*
X117856000Y-97282000D03*
X127000000Y-63500000D03*
D12*
X116840000Y-63500000D03*
X163068000Y-102870000D03*
D13*
X173228000Y-102870000D03*
X208534000Y-109093000D03*
D12*
X208534000Y-98933000D03*
D13*
X214884000Y-98933000D03*
D12*
X214884000Y-109093000D03*
X186944000Y-108204000D03*
D13*
X186944000Y-118364000D03*
D12*
X186944000Y-102616000D03*
D13*
X186944000Y-92456000D03*
D12*
X179689000Y-87612000D03*
D13*
X189849000Y-87612000D03*
X179689000Y-82278000D03*
D12*
X189849000Y-82278000D03*
X180340000Y-102616000D03*
D13*
X180340000Y-92456000D03*
X180340000Y-118364000D03*
D12*
X180340000Y-108204000D03*
D14*
X49279000Y-79022000D03*
X49529000Y-84399000D03*
X46533000Y-75145000D03*
X41275000Y-73391000D03*
X36271000Y-74891000D03*
X33271000Y-78895000D03*
X33148000Y-84526000D03*
X46482000Y-88773000D03*
X36068000Y-88646000D03*
X90173000Y-79022000D03*
X90423000Y-84399000D03*
X87427000Y-75145000D03*
X82169000Y-73391000D03*
X77165000Y-74891000D03*
X74165000Y-78895000D03*
X74042000Y-84526000D03*
X87376000Y-88773000D03*
X76962000Y-88646000D03*
X131067000Y-79022000D03*
X131317000Y-84399000D03*
X128321000Y-75145000D03*
X123063000Y-73391000D03*
X118059000Y-74891000D03*
X115059000Y-78895000D03*
X114936000Y-84526000D03*
X128270000Y-88773000D03*
X117856000Y-88646000D03*
X159385000Y-88646000D03*
X169799000Y-88773000D03*
X156465000Y-84526000D03*
X156588000Y-78895000D03*
X159588000Y-74891000D03*
X164592000Y-73391000D03*
X169850000Y-75145000D03*
X172846000Y-84399000D03*
X172596000Y-79022000D03*
D16*
X258826000Y-76708000D03*
D15*
X274066000Y-76708000D03*
D22*
X273050000Y-125730000D03*
X69088000Y-91440000D03*
X152908000Y-92964000D03*
X222504000Y-93853000D03*
D13*
X28448000Y-64897000D03*
X28448000Y-69897000D03*
D20*
X22352000Y-75184000D03*
D21*
X22352000Y-80184000D03*
D20*
X137414000Y-58420000D03*
D21*
X132414000Y-58420000D03*
X144479000Y-58420000D03*
D20*
X149479000Y-58420000D03*
X274066000Y-69977000D03*
D21*
X274066000Y-64977000D03*
D15*
X193100000Y-76400000D03*
D16*
X177860000Y-76400000D03*
D21*
X274066000Y-107649000D03*
D20*
X274066000Y-112649000D03*
D23*
X218948000Y-104648000D03*
D27*
X214122000Y-61214000D03*
X214122000Y-58674000D03*
X214122000Y-56134000D03*
X220980000Y-56134000D03*
X220980000Y-58674000D03*
X220980000Y-61214000D03*
D24*
X180440000Y-65300000D03*
D25*
X190600000Y-65300000D03*
D13*
X198120000Y-55245000D03*
D12*
X198120000Y-65405000D03*
X208280000Y-65405000D03*
D13*
X208280000Y-55245000D03*
X203200000Y-55245000D03*
D12*
X203200000Y-65405000D03*
D23*
X274447000Y-101219000D03*
X116332000Y-57277000D03*
X45847000Y-57150000D03*
D15*
X177900000Y-70000000D03*
D16*
X193140000Y-70000000D03*
D28*
X188800000Y-57400000D03*
D13*
X192300000Y-57400000D03*
D29*
X176900000Y-58200000D03*
D19*
X181900000Y-58200000D03*
M02*
