M48
; DRILL file {KiCad (5.1.4)-1} date 06/12/2019 23:42:26
; FORMAT={-:-/ absolute / inch / decimal}
; #@! TF.CreationDate,2019-12-06T23:42:26+01:00
; #@! TF.GenerationSoftware,Kicad,Pcbnew,(5.1.4)-1
; #@! TF.FileFunction,Plated,1,2,PTH
FMAT,2
INCH
T1C0.0157
T2C0.0315
T3C0.0354
T4C0.0394
T5C0.0472
T6C0.0512
T7C0.0560
T8C0.0591
%
G90
G05
T1
X1.15Y-3.575
X1.88Y-2.42
X2.775Y-3.16
X3.335Y-2.68
X4.76Y-3.18
X5.0517Y-2.6007
X5.245Y-5.015
X5.83Y-4.855
X5.94Y-4.14
X6.2409Y-2.65
X6.53Y-2.6017
X6.8607Y-4.3717
X7.64Y-3.34
X7.8454Y-3.8209
X7.93Y-4.65
X8.337Y-2.9585
T2
X6.3Y-4.05
X6.7Y-4.05
X1.12Y-2.555
X1.12Y-2.7519
X1.465Y-3.8
X1.465Y-4.2
X2.63Y-3.0
X2.63Y-3.4
X7.1Y-3.64
X7.1Y-4.04
X2.78Y-3.8
X2.78Y-4.2
X3.64Y-3.81
X4.04Y-3.81
X3.08Y-3.9031
X3.08Y-4.1
X4.255Y-3.09
X4.255Y-3.49
X7.1Y-4.26
X7.1Y-4.66
X5.445Y-3.095
X5.445Y-3.495
X2.43Y-3.21
X2.43Y-3.4069
X5.33Y-4.05
X5.33Y-4.45
X6.3Y-4.3
X6.7Y-4.3
X1.85Y-4.325
X1.85Y-4.725
X7.6Y-2.15
X7.6Y-2.55
X7.4Y-3.035
X7.4Y-3.435
X1.09Y-3.405
X1.09Y-3.805
X3.69Y-3.515
X4.09Y-3.515
X2.085Y-3.53
X2.2819Y-3.53
X3.985Y-2.93
X3.985Y-3.33
X8.21Y-4.12
X8.21Y-4.52
X1.64Y-2.25
X1.64Y-2.65
X5.64Y-3.095
X5.64Y-3.495
X3.18Y-2.25
X3.18Y-2.65
X7.36Y-3.64
X7.36Y-4.04
X4.6Y-2.5
X5.0Y-2.5
X7.22Y-3.035
X7.22Y-3.435
X2.18Y-3.8
X2.18Y-4.2
X3.58Y-2.25
X3.58Y-2.65
X2.78Y-2.25
X2.78Y-2.65
X8.46Y-4.12
X8.46Y-4.52
X1.38Y-2.25
X1.38Y-2.65
X4.615Y-4.61
X5.015Y-4.61
X9.24Y-3.8756
X9.24Y-4.2756
X7.36Y-4.26
X7.36Y-4.66
X4.64Y-3.83
X5.04Y-3.83
X3.38Y-3.9
X3.38Y-4.0969
X7.08Y-2.15
X7.08Y-2.55
T3
X9.0648Y-3.5343
X9.4648Y-3.5343
X9.0648Y-2.9843
X9.4648Y-2.9843
X9.0648Y-3.2593
X9.4648Y-3.2593
X9.0648Y-2.7093
X9.4648Y-2.7093
T4
X5.605Y-4.65
X8.655Y-2.71
X2.48Y-3.74
X2.48Y-4.0353
X7.79Y-4.34
X7.79Y-4.6353
X8.48Y-2.32
X8.6178Y-2.32
X8.905Y-3.26
X2.1597Y-3.02
X2.455Y-3.02
X5.4Y-2.875
X5.6953Y-2.875
X4.53Y-4.1047
X4.53Y-4.4
X7.64Y-4.11
X7.9353Y-4.11
X8.655Y-3.26
X5.73Y-4.105
X5.73Y-4.4003
X8.905Y-2.71
X5.38Y-3.78
X5.6753Y-3.78
X1.88Y-3.86
X1.88Y-4.1553
X6.34Y-4.57
X6.6353Y-4.57
X7.41Y-2.48
X4.93Y-4.1047
X4.93Y-4.4
T5
X7.92Y-2.3
X8.22Y-2.3
X10.355Y-3.555
X10.6503Y-3.555
X3.98Y-2.5
X4.2753Y-2.5
X9.86Y-3.17
X9.86Y-3.47
X7.0Y-2.78
X7.6Y-2.78
X2.08Y-2.5
X2.3753Y-2.5
X9.68Y-3.7
X9.68Y-4.3
X10.19Y-3.02
X10.79Y-3.02
X10.05Y-4.3
X10.3453Y-4.3
X10.04Y-2.48
X10.3353Y-2.48
T6
X6.732Y-5.01
X6.9288Y-5.01
X7.1257Y-5.01
X10.79Y-2.56
X10.79Y-2.7569
X8.9462Y-2.3006
X9.1431Y-2.3006
X10.0375Y-5.0079
X10.2343Y-5.0079
X10.4312Y-5.0079
X9.4512Y-2.3006
X9.6481Y-2.3006
X5.63Y-5.0091
X5.8269Y-5.0091
X6.0237Y-5.0091
X8.9351Y-5.0079
X9.132Y-5.0079
X9.3288Y-5.0079
X7.8343Y-5.0091
X8.0312Y-5.0091
X8.228Y-5.0091
X10.79Y-4.34
X10.79Y-4.5369
X5.83Y-2.3
X6.0269Y-2.3
X3.4249Y-5.0091
X3.6217Y-5.0091
X3.8186Y-5.0091
X5.2131Y-2.3
X5.41Y-2.3
X0.88Y-2.9581
X0.88Y-3.155
X6.47Y-2.3
X6.6669Y-2.3
X4.5272Y-5.0091
X4.7241Y-5.0091
X4.9209Y-5.0091
T7
X1.305Y-3.3278
X1.3099Y-3.1061
X1.42Y-3.49
X1.428Y-2.9485
X1.625Y-2.8894
X1.83Y-3.495
X1.832Y-2.9585
X1.9401Y-3.1111
X1.95Y-3.3228
X6.16Y-3.3278
X6.1649Y-3.1061
X6.275Y-3.49
X6.283Y-2.9485
X6.48Y-2.8894
X6.685Y-3.495
X6.687Y-2.9585
X6.7951Y-3.1111
X6.805Y-3.3228
X4.525Y-3.3278
X4.5299Y-3.1061
X4.64Y-3.49
X4.648Y-2.9485
X4.845Y-2.8894
X5.05Y-3.495
X5.052Y-2.9585
X5.1601Y-3.1111
X5.17Y-3.3228
X7.81Y-3.3278
X7.8149Y-3.1061
X7.925Y-3.49
X7.933Y-2.9485
X8.13Y-2.8894
X8.335Y-3.495
X8.337Y-2.9585
X8.4451Y-3.1111
X8.455Y-3.3228
X2.915Y-3.3278
X2.9199Y-3.1061
X3.03Y-3.49
X3.038Y-2.9485
X3.235Y-2.8894
X3.44Y-3.495
X3.442Y-2.9585
X3.5501Y-3.1111
X3.56Y-3.3228
T8
X2.1217Y-4.4657
X2.1217Y-4.7138
X2.1217Y-4.9618
X2.7595Y-4.4657
X2.7595Y-4.7138
X2.7595Y-4.9618
X0.9406Y-4.4657
X0.9406Y-4.7138
X0.9406Y-4.9618
X1.5784Y-4.4657
X1.5784Y-4.7138
X1.5784Y-4.9618
T0
M30
