G04 #@! TF.GenerationSoftware,KiCad,Pcbnew,9.0.4*
G04 #@! TF.CreationDate,2026-05-03T00:19:23+02:00*
G04 #@! TF.ProjectId,JCM800,4a434d38-3030-42e6-9b69-6361645f7063,0.2*
G04 #@! TF.SameCoordinates,Original*
G04 #@! TF.FileFunction,AssemblyDrawing,Top*
%FSLAX46Y46*%
G04 Gerber Fmt 4.6, Leading zero omitted, Abs format (unit mm)*
G04 Created by KiCad (PCBNEW 9.0.4) date 2026-05-03 00:19:23*
%MOMM*%
%LPD*%
G01*
G04 APERTURE LIST*
%ADD10C,0.150000*%
G04 APERTURE END LIST*
D10*
X42204285Y-130892819D02*
X42204285Y-129892819D01*
X42204285Y-129892819D02*
X42537618Y-130607104D01*
X42537618Y-130607104D02*
X42870951Y-129892819D01*
X42870951Y-129892819D02*
X42870951Y-130892819D01*
X43489999Y-130892819D02*
X43394761Y-130845200D01*
X43394761Y-130845200D02*
X43347142Y-130797580D01*
X43347142Y-130797580D02*
X43299523Y-130702342D01*
X43299523Y-130702342D02*
X43299523Y-130416628D01*
X43299523Y-130416628D02*
X43347142Y-130321390D01*
X43347142Y-130321390D02*
X43394761Y-130273771D01*
X43394761Y-130273771D02*
X43489999Y-130226152D01*
X43489999Y-130226152D02*
X43632856Y-130226152D01*
X43632856Y-130226152D02*
X43728094Y-130273771D01*
X43728094Y-130273771D02*
X43775713Y-130321390D01*
X43775713Y-130321390D02*
X43823332Y-130416628D01*
X43823332Y-130416628D02*
X43823332Y-130702342D01*
X43823332Y-130702342D02*
X43775713Y-130797580D01*
X43775713Y-130797580D02*
X43728094Y-130845200D01*
X43728094Y-130845200D02*
X43632856Y-130892819D01*
X43632856Y-130892819D02*
X43489999Y-130892819D01*
X44680475Y-130226152D02*
X44680475Y-130892819D01*
X44251904Y-130226152D02*
X44251904Y-130749961D01*
X44251904Y-130749961D02*
X44299523Y-130845200D01*
X44299523Y-130845200D02*
X44394761Y-130892819D01*
X44394761Y-130892819D02*
X44537618Y-130892819D01*
X44537618Y-130892819D02*
X44632856Y-130845200D01*
X44632856Y-130845200D02*
X44680475Y-130797580D01*
X45156666Y-130226152D02*
X45156666Y-130892819D01*
X45156666Y-130321390D02*
X45204285Y-130273771D01*
X45204285Y-130273771D02*
X45299523Y-130226152D01*
X45299523Y-130226152D02*
X45442380Y-130226152D01*
X45442380Y-130226152D02*
X45537618Y-130273771D01*
X45537618Y-130273771D02*
X45585237Y-130369009D01*
X45585237Y-130369009D02*
X45585237Y-130892819D01*
X45918571Y-130226152D02*
X46299523Y-130226152D01*
X46061428Y-129892819D02*
X46061428Y-130749961D01*
X46061428Y-130749961D02*
X46109047Y-130845200D01*
X46109047Y-130845200D02*
X46204285Y-130892819D01*
X46204285Y-130892819D02*
X46299523Y-130892819D01*
X46632857Y-130892819D02*
X46632857Y-130226152D01*
X46632857Y-129892819D02*
X46585238Y-129940438D01*
X46585238Y-129940438D02*
X46632857Y-129988057D01*
X46632857Y-129988057D02*
X46680476Y-129940438D01*
X46680476Y-129940438D02*
X46632857Y-129892819D01*
X46632857Y-129892819D02*
X46632857Y-129988057D01*
X47109047Y-130226152D02*
X47109047Y-130892819D01*
X47109047Y-130321390D02*
X47156666Y-130273771D01*
X47156666Y-130273771D02*
X47251904Y-130226152D01*
X47251904Y-130226152D02*
X47394761Y-130226152D01*
X47394761Y-130226152D02*
X47489999Y-130273771D01*
X47489999Y-130273771D02*
X47537618Y-130369009D01*
X47537618Y-130369009D02*
X47537618Y-130892819D01*
X48442380Y-130226152D02*
X48442380Y-131035676D01*
X48442380Y-131035676D02*
X48394761Y-131130914D01*
X48394761Y-131130914D02*
X48347142Y-131178533D01*
X48347142Y-131178533D02*
X48251904Y-131226152D01*
X48251904Y-131226152D02*
X48109047Y-131226152D01*
X48109047Y-131226152D02*
X48013809Y-131178533D01*
X48442380Y-130845200D02*
X48347142Y-130892819D01*
X48347142Y-130892819D02*
X48156666Y-130892819D01*
X48156666Y-130892819D02*
X48061428Y-130845200D01*
X48061428Y-130845200D02*
X48013809Y-130797580D01*
X48013809Y-130797580D02*
X47966190Y-130702342D01*
X47966190Y-130702342D02*
X47966190Y-130416628D01*
X47966190Y-130416628D02*
X48013809Y-130321390D01*
X48013809Y-130321390D02*
X48061428Y-130273771D01*
X48061428Y-130273771D02*
X48156666Y-130226152D01*
X48156666Y-130226152D02*
X48347142Y-130226152D01*
X48347142Y-130226152D02*
X48442380Y-130273771D01*
X48918571Y-130892819D02*
X48918571Y-129892819D01*
X48918571Y-130369009D02*
X49489999Y-130369009D01*
X49489999Y-130892819D02*
X49489999Y-129892819D01*
X50109047Y-130892819D02*
X50013809Y-130845200D01*
X50013809Y-130845200D02*
X49966190Y-130797580D01*
X49966190Y-130797580D02*
X49918571Y-130702342D01*
X49918571Y-130702342D02*
X49918571Y-130416628D01*
X49918571Y-130416628D02*
X49966190Y-130321390D01*
X49966190Y-130321390D02*
X50013809Y-130273771D01*
X50013809Y-130273771D02*
X50109047Y-130226152D01*
X50109047Y-130226152D02*
X50251904Y-130226152D01*
X50251904Y-130226152D02*
X50347142Y-130273771D01*
X50347142Y-130273771D02*
X50394761Y-130321390D01*
X50394761Y-130321390D02*
X50442380Y-130416628D01*
X50442380Y-130416628D02*
X50442380Y-130702342D01*
X50442380Y-130702342D02*
X50394761Y-130797580D01*
X50394761Y-130797580D02*
X50347142Y-130845200D01*
X50347142Y-130845200D02*
X50251904Y-130892819D01*
X50251904Y-130892819D02*
X50109047Y-130892819D01*
X51013809Y-130892819D02*
X50918571Y-130845200D01*
X50918571Y-130845200D02*
X50870952Y-130749961D01*
X50870952Y-130749961D02*
X50870952Y-129892819D01*
X51775714Y-130845200D02*
X51680476Y-130892819D01*
X51680476Y-130892819D02*
X51490000Y-130892819D01*
X51490000Y-130892819D02*
X51394762Y-130845200D01*
X51394762Y-130845200D02*
X51347143Y-130749961D01*
X51347143Y-130749961D02*
X51347143Y-130369009D01*
X51347143Y-130369009D02*
X51394762Y-130273771D01*
X51394762Y-130273771D02*
X51490000Y-130226152D01*
X51490000Y-130226152D02*
X51680476Y-130226152D01*
X51680476Y-130226152D02*
X51775714Y-130273771D01*
X51775714Y-130273771D02*
X51823333Y-130369009D01*
X51823333Y-130369009D02*
X51823333Y-130464247D01*
X51823333Y-130464247D02*
X51347143Y-130559485D01*
X46528095Y-126692819D02*
X46528095Y-125692819D01*
X46528095Y-126169009D02*
X47099523Y-126169009D01*
X47099523Y-126692819D02*
X47099523Y-125692819D01*
X48004285Y-126026152D02*
X48004285Y-126692819D01*
X47766190Y-125645200D02*
X47528095Y-126359485D01*
X47528095Y-126359485D02*
X48147142Y-126359485D01*
X101132285Y-130384819D02*
X101132285Y-129384819D01*
X101132285Y-129384819D02*
X101465618Y-130099104D01*
X101465618Y-130099104D02*
X101798951Y-129384819D01*
X101798951Y-129384819D02*
X101798951Y-130384819D01*
X102417999Y-130384819D02*
X102322761Y-130337200D01*
X102322761Y-130337200D02*
X102275142Y-130289580D01*
X102275142Y-130289580D02*
X102227523Y-130194342D01*
X102227523Y-130194342D02*
X102227523Y-129908628D01*
X102227523Y-129908628D02*
X102275142Y-129813390D01*
X102275142Y-129813390D02*
X102322761Y-129765771D01*
X102322761Y-129765771D02*
X102417999Y-129718152D01*
X102417999Y-129718152D02*
X102560856Y-129718152D01*
X102560856Y-129718152D02*
X102656094Y-129765771D01*
X102656094Y-129765771D02*
X102703713Y-129813390D01*
X102703713Y-129813390D02*
X102751332Y-129908628D01*
X102751332Y-129908628D02*
X102751332Y-130194342D01*
X102751332Y-130194342D02*
X102703713Y-130289580D01*
X102703713Y-130289580D02*
X102656094Y-130337200D01*
X102656094Y-130337200D02*
X102560856Y-130384819D01*
X102560856Y-130384819D02*
X102417999Y-130384819D01*
X103608475Y-129718152D02*
X103608475Y-130384819D01*
X103179904Y-129718152D02*
X103179904Y-130241961D01*
X103179904Y-130241961D02*
X103227523Y-130337200D01*
X103227523Y-130337200D02*
X103322761Y-130384819D01*
X103322761Y-130384819D02*
X103465618Y-130384819D01*
X103465618Y-130384819D02*
X103560856Y-130337200D01*
X103560856Y-130337200D02*
X103608475Y-130289580D01*
X104084666Y-129718152D02*
X104084666Y-130384819D01*
X104084666Y-129813390D02*
X104132285Y-129765771D01*
X104132285Y-129765771D02*
X104227523Y-129718152D01*
X104227523Y-129718152D02*
X104370380Y-129718152D01*
X104370380Y-129718152D02*
X104465618Y-129765771D01*
X104465618Y-129765771D02*
X104513237Y-129861009D01*
X104513237Y-129861009D02*
X104513237Y-130384819D01*
X104846571Y-129718152D02*
X105227523Y-129718152D01*
X104989428Y-129384819D02*
X104989428Y-130241961D01*
X104989428Y-130241961D02*
X105037047Y-130337200D01*
X105037047Y-130337200D02*
X105132285Y-130384819D01*
X105132285Y-130384819D02*
X105227523Y-130384819D01*
X105560857Y-130384819D02*
X105560857Y-129718152D01*
X105560857Y-129384819D02*
X105513238Y-129432438D01*
X105513238Y-129432438D02*
X105560857Y-129480057D01*
X105560857Y-129480057D02*
X105608476Y-129432438D01*
X105608476Y-129432438D02*
X105560857Y-129384819D01*
X105560857Y-129384819D02*
X105560857Y-129480057D01*
X106037047Y-129718152D02*
X106037047Y-130384819D01*
X106037047Y-129813390D02*
X106084666Y-129765771D01*
X106084666Y-129765771D02*
X106179904Y-129718152D01*
X106179904Y-129718152D02*
X106322761Y-129718152D01*
X106322761Y-129718152D02*
X106417999Y-129765771D01*
X106417999Y-129765771D02*
X106465618Y-129861009D01*
X106465618Y-129861009D02*
X106465618Y-130384819D01*
X107370380Y-129718152D02*
X107370380Y-130527676D01*
X107370380Y-130527676D02*
X107322761Y-130622914D01*
X107322761Y-130622914D02*
X107275142Y-130670533D01*
X107275142Y-130670533D02*
X107179904Y-130718152D01*
X107179904Y-130718152D02*
X107037047Y-130718152D01*
X107037047Y-130718152D02*
X106941809Y-130670533D01*
X107370380Y-130337200D02*
X107275142Y-130384819D01*
X107275142Y-130384819D02*
X107084666Y-130384819D01*
X107084666Y-130384819D02*
X106989428Y-130337200D01*
X106989428Y-130337200D02*
X106941809Y-130289580D01*
X106941809Y-130289580D02*
X106894190Y-130194342D01*
X106894190Y-130194342D02*
X106894190Y-129908628D01*
X106894190Y-129908628D02*
X106941809Y-129813390D01*
X106941809Y-129813390D02*
X106989428Y-129765771D01*
X106989428Y-129765771D02*
X107084666Y-129718152D01*
X107084666Y-129718152D02*
X107275142Y-129718152D01*
X107275142Y-129718152D02*
X107370380Y-129765771D01*
X107846571Y-130384819D02*
X107846571Y-129384819D01*
X107846571Y-129861009D02*
X108417999Y-129861009D01*
X108417999Y-130384819D02*
X108417999Y-129384819D01*
X109037047Y-130384819D02*
X108941809Y-130337200D01*
X108941809Y-130337200D02*
X108894190Y-130289580D01*
X108894190Y-130289580D02*
X108846571Y-130194342D01*
X108846571Y-130194342D02*
X108846571Y-129908628D01*
X108846571Y-129908628D02*
X108894190Y-129813390D01*
X108894190Y-129813390D02*
X108941809Y-129765771D01*
X108941809Y-129765771D02*
X109037047Y-129718152D01*
X109037047Y-129718152D02*
X109179904Y-129718152D01*
X109179904Y-129718152D02*
X109275142Y-129765771D01*
X109275142Y-129765771D02*
X109322761Y-129813390D01*
X109322761Y-129813390D02*
X109370380Y-129908628D01*
X109370380Y-129908628D02*
X109370380Y-130194342D01*
X109370380Y-130194342D02*
X109322761Y-130289580D01*
X109322761Y-130289580D02*
X109275142Y-130337200D01*
X109275142Y-130337200D02*
X109179904Y-130384819D01*
X109179904Y-130384819D02*
X109037047Y-130384819D01*
X109941809Y-130384819D02*
X109846571Y-130337200D01*
X109846571Y-130337200D02*
X109798952Y-130241961D01*
X109798952Y-130241961D02*
X109798952Y-129384819D01*
X110703714Y-130337200D02*
X110608476Y-130384819D01*
X110608476Y-130384819D02*
X110418000Y-130384819D01*
X110418000Y-130384819D02*
X110322762Y-130337200D01*
X110322762Y-130337200D02*
X110275143Y-130241961D01*
X110275143Y-130241961D02*
X110275143Y-129861009D01*
X110275143Y-129861009D02*
X110322762Y-129765771D01*
X110322762Y-129765771D02*
X110418000Y-129718152D01*
X110418000Y-129718152D02*
X110608476Y-129718152D01*
X110608476Y-129718152D02*
X110703714Y-129765771D01*
X110703714Y-129765771D02*
X110751333Y-129861009D01*
X110751333Y-129861009D02*
X110751333Y-129956247D01*
X110751333Y-129956247D02*
X110275143Y-130051485D01*
X105456095Y-126184819D02*
X105456095Y-125184819D01*
X105456095Y-125661009D02*
X106027523Y-125661009D01*
X106027523Y-126184819D02*
X106027523Y-125184819D01*
X106979904Y-125184819D02*
X106503714Y-125184819D01*
X106503714Y-125184819D02*
X106456095Y-125661009D01*
X106456095Y-125661009D02*
X106503714Y-125613390D01*
X106503714Y-125613390D02*
X106598952Y-125565771D01*
X106598952Y-125565771D02*
X106837047Y-125565771D01*
X106837047Y-125565771D02*
X106932285Y-125613390D01*
X106932285Y-125613390D02*
X106979904Y-125661009D01*
X106979904Y-125661009D02*
X107027523Y-125756247D01*
X107027523Y-125756247D02*
X107027523Y-125994342D01*
X107027523Y-125994342D02*
X106979904Y-126089580D01*
X106979904Y-126089580D02*
X106932285Y-126137200D01*
X106932285Y-126137200D02*
X106837047Y-126184819D01*
X106837047Y-126184819D02*
X106598952Y-126184819D01*
X106598952Y-126184819D02*
X106503714Y-126137200D01*
X106503714Y-126137200D02*
X106456095Y-126089580D01*
X185206285Y-130384819D02*
X185206285Y-129384819D01*
X185206285Y-129384819D02*
X185539618Y-130099104D01*
X185539618Y-130099104D02*
X185872951Y-129384819D01*
X185872951Y-129384819D02*
X185872951Y-130384819D01*
X186491999Y-130384819D02*
X186396761Y-130337200D01*
X186396761Y-130337200D02*
X186349142Y-130289580D01*
X186349142Y-130289580D02*
X186301523Y-130194342D01*
X186301523Y-130194342D02*
X186301523Y-129908628D01*
X186301523Y-129908628D02*
X186349142Y-129813390D01*
X186349142Y-129813390D02*
X186396761Y-129765771D01*
X186396761Y-129765771D02*
X186491999Y-129718152D01*
X186491999Y-129718152D02*
X186634856Y-129718152D01*
X186634856Y-129718152D02*
X186730094Y-129765771D01*
X186730094Y-129765771D02*
X186777713Y-129813390D01*
X186777713Y-129813390D02*
X186825332Y-129908628D01*
X186825332Y-129908628D02*
X186825332Y-130194342D01*
X186825332Y-130194342D02*
X186777713Y-130289580D01*
X186777713Y-130289580D02*
X186730094Y-130337200D01*
X186730094Y-130337200D02*
X186634856Y-130384819D01*
X186634856Y-130384819D02*
X186491999Y-130384819D01*
X187682475Y-129718152D02*
X187682475Y-130384819D01*
X187253904Y-129718152D02*
X187253904Y-130241961D01*
X187253904Y-130241961D02*
X187301523Y-130337200D01*
X187301523Y-130337200D02*
X187396761Y-130384819D01*
X187396761Y-130384819D02*
X187539618Y-130384819D01*
X187539618Y-130384819D02*
X187634856Y-130337200D01*
X187634856Y-130337200D02*
X187682475Y-130289580D01*
X188158666Y-129718152D02*
X188158666Y-130384819D01*
X188158666Y-129813390D02*
X188206285Y-129765771D01*
X188206285Y-129765771D02*
X188301523Y-129718152D01*
X188301523Y-129718152D02*
X188444380Y-129718152D01*
X188444380Y-129718152D02*
X188539618Y-129765771D01*
X188539618Y-129765771D02*
X188587237Y-129861009D01*
X188587237Y-129861009D02*
X188587237Y-130384819D01*
X188920571Y-129718152D02*
X189301523Y-129718152D01*
X189063428Y-129384819D02*
X189063428Y-130241961D01*
X189063428Y-130241961D02*
X189111047Y-130337200D01*
X189111047Y-130337200D02*
X189206285Y-130384819D01*
X189206285Y-130384819D02*
X189301523Y-130384819D01*
X189634857Y-130384819D02*
X189634857Y-129718152D01*
X189634857Y-129384819D02*
X189587238Y-129432438D01*
X189587238Y-129432438D02*
X189634857Y-129480057D01*
X189634857Y-129480057D02*
X189682476Y-129432438D01*
X189682476Y-129432438D02*
X189634857Y-129384819D01*
X189634857Y-129384819D02*
X189634857Y-129480057D01*
X190111047Y-129718152D02*
X190111047Y-130384819D01*
X190111047Y-129813390D02*
X190158666Y-129765771D01*
X190158666Y-129765771D02*
X190253904Y-129718152D01*
X190253904Y-129718152D02*
X190396761Y-129718152D01*
X190396761Y-129718152D02*
X190491999Y-129765771D01*
X190491999Y-129765771D02*
X190539618Y-129861009D01*
X190539618Y-129861009D02*
X190539618Y-130384819D01*
X191444380Y-129718152D02*
X191444380Y-130527676D01*
X191444380Y-130527676D02*
X191396761Y-130622914D01*
X191396761Y-130622914D02*
X191349142Y-130670533D01*
X191349142Y-130670533D02*
X191253904Y-130718152D01*
X191253904Y-130718152D02*
X191111047Y-130718152D01*
X191111047Y-130718152D02*
X191015809Y-130670533D01*
X191444380Y-130337200D02*
X191349142Y-130384819D01*
X191349142Y-130384819D02*
X191158666Y-130384819D01*
X191158666Y-130384819D02*
X191063428Y-130337200D01*
X191063428Y-130337200D02*
X191015809Y-130289580D01*
X191015809Y-130289580D02*
X190968190Y-130194342D01*
X190968190Y-130194342D02*
X190968190Y-129908628D01*
X190968190Y-129908628D02*
X191015809Y-129813390D01*
X191015809Y-129813390D02*
X191063428Y-129765771D01*
X191063428Y-129765771D02*
X191158666Y-129718152D01*
X191158666Y-129718152D02*
X191349142Y-129718152D01*
X191349142Y-129718152D02*
X191444380Y-129765771D01*
X191920571Y-130384819D02*
X191920571Y-129384819D01*
X191920571Y-129861009D02*
X192491999Y-129861009D01*
X192491999Y-130384819D02*
X192491999Y-129384819D01*
X193111047Y-130384819D02*
X193015809Y-130337200D01*
X193015809Y-130337200D02*
X192968190Y-130289580D01*
X192968190Y-130289580D02*
X192920571Y-130194342D01*
X192920571Y-130194342D02*
X192920571Y-129908628D01*
X192920571Y-129908628D02*
X192968190Y-129813390D01*
X192968190Y-129813390D02*
X193015809Y-129765771D01*
X193015809Y-129765771D02*
X193111047Y-129718152D01*
X193111047Y-129718152D02*
X193253904Y-129718152D01*
X193253904Y-129718152D02*
X193349142Y-129765771D01*
X193349142Y-129765771D02*
X193396761Y-129813390D01*
X193396761Y-129813390D02*
X193444380Y-129908628D01*
X193444380Y-129908628D02*
X193444380Y-130194342D01*
X193444380Y-130194342D02*
X193396761Y-130289580D01*
X193396761Y-130289580D02*
X193349142Y-130337200D01*
X193349142Y-130337200D02*
X193253904Y-130384819D01*
X193253904Y-130384819D02*
X193111047Y-130384819D01*
X194015809Y-130384819D02*
X193920571Y-130337200D01*
X193920571Y-130337200D02*
X193872952Y-130241961D01*
X193872952Y-130241961D02*
X193872952Y-129384819D01*
X194777714Y-130337200D02*
X194682476Y-130384819D01*
X194682476Y-130384819D02*
X194492000Y-130384819D01*
X194492000Y-130384819D02*
X194396762Y-130337200D01*
X194396762Y-130337200D02*
X194349143Y-130241961D01*
X194349143Y-130241961D02*
X194349143Y-129861009D01*
X194349143Y-129861009D02*
X194396762Y-129765771D01*
X194396762Y-129765771D02*
X194492000Y-129718152D01*
X194492000Y-129718152D02*
X194682476Y-129718152D01*
X194682476Y-129718152D02*
X194777714Y-129765771D01*
X194777714Y-129765771D02*
X194825333Y-129861009D01*
X194825333Y-129861009D02*
X194825333Y-129956247D01*
X194825333Y-129956247D02*
X194349143Y-130051485D01*
X189530095Y-126184819D02*
X189530095Y-125184819D01*
X189530095Y-125661009D02*
X190101523Y-125661009D01*
X190101523Y-126184819D02*
X190101523Y-125184819D01*
X190482476Y-125184819D02*
X191149142Y-125184819D01*
X191149142Y-125184819D02*
X190720571Y-126184819D01*
X152186285Y-62058819D02*
X152186285Y-61058819D01*
X152186285Y-61058819D02*
X152519618Y-61773104D01*
X152519618Y-61773104D02*
X152852951Y-61058819D01*
X152852951Y-61058819D02*
X152852951Y-62058819D01*
X153471999Y-62058819D02*
X153376761Y-62011200D01*
X153376761Y-62011200D02*
X153329142Y-61963580D01*
X153329142Y-61963580D02*
X153281523Y-61868342D01*
X153281523Y-61868342D02*
X153281523Y-61582628D01*
X153281523Y-61582628D02*
X153329142Y-61487390D01*
X153329142Y-61487390D02*
X153376761Y-61439771D01*
X153376761Y-61439771D02*
X153471999Y-61392152D01*
X153471999Y-61392152D02*
X153614856Y-61392152D01*
X153614856Y-61392152D02*
X153710094Y-61439771D01*
X153710094Y-61439771D02*
X153757713Y-61487390D01*
X153757713Y-61487390D02*
X153805332Y-61582628D01*
X153805332Y-61582628D02*
X153805332Y-61868342D01*
X153805332Y-61868342D02*
X153757713Y-61963580D01*
X153757713Y-61963580D02*
X153710094Y-62011200D01*
X153710094Y-62011200D02*
X153614856Y-62058819D01*
X153614856Y-62058819D02*
X153471999Y-62058819D01*
X154662475Y-61392152D02*
X154662475Y-62058819D01*
X154233904Y-61392152D02*
X154233904Y-61915961D01*
X154233904Y-61915961D02*
X154281523Y-62011200D01*
X154281523Y-62011200D02*
X154376761Y-62058819D01*
X154376761Y-62058819D02*
X154519618Y-62058819D01*
X154519618Y-62058819D02*
X154614856Y-62011200D01*
X154614856Y-62011200D02*
X154662475Y-61963580D01*
X155138666Y-61392152D02*
X155138666Y-62058819D01*
X155138666Y-61487390D02*
X155186285Y-61439771D01*
X155186285Y-61439771D02*
X155281523Y-61392152D01*
X155281523Y-61392152D02*
X155424380Y-61392152D01*
X155424380Y-61392152D02*
X155519618Y-61439771D01*
X155519618Y-61439771D02*
X155567237Y-61535009D01*
X155567237Y-61535009D02*
X155567237Y-62058819D01*
X155900571Y-61392152D02*
X156281523Y-61392152D01*
X156043428Y-61058819D02*
X156043428Y-61915961D01*
X156043428Y-61915961D02*
X156091047Y-62011200D01*
X156091047Y-62011200D02*
X156186285Y-62058819D01*
X156186285Y-62058819D02*
X156281523Y-62058819D01*
X156614857Y-62058819D02*
X156614857Y-61392152D01*
X156614857Y-61058819D02*
X156567238Y-61106438D01*
X156567238Y-61106438D02*
X156614857Y-61154057D01*
X156614857Y-61154057D02*
X156662476Y-61106438D01*
X156662476Y-61106438D02*
X156614857Y-61058819D01*
X156614857Y-61058819D02*
X156614857Y-61154057D01*
X157091047Y-61392152D02*
X157091047Y-62058819D01*
X157091047Y-61487390D02*
X157138666Y-61439771D01*
X157138666Y-61439771D02*
X157233904Y-61392152D01*
X157233904Y-61392152D02*
X157376761Y-61392152D01*
X157376761Y-61392152D02*
X157471999Y-61439771D01*
X157471999Y-61439771D02*
X157519618Y-61535009D01*
X157519618Y-61535009D02*
X157519618Y-62058819D01*
X158424380Y-61392152D02*
X158424380Y-62201676D01*
X158424380Y-62201676D02*
X158376761Y-62296914D01*
X158376761Y-62296914D02*
X158329142Y-62344533D01*
X158329142Y-62344533D02*
X158233904Y-62392152D01*
X158233904Y-62392152D02*
X158091047Y-62392152D01*
X158091047Y-62392152D02*
X157995809Y-62344533D01*
X158424380Y-62011200D02*
X158329142Y-62058819D01*
X158329142Y-62058819D02*
X158138666Y-62058819D01*
X158138666Y-62058819D02*
X158043428Y-62011200D01*
X158043428Y-62011200D02*
X157995809Y-61963580D01*
X157995809Y-61963580D02*
X157948190Y-61868342D01*
X157948190Y-61868342D02*
X157948190Y-61582628D01*
X157948190Y-61582628D02*
X157995809Y-61487390D01*
X157995809Y-61487390D02*
X158043428Y-61439771D01*
X158043428Y-61439771D02*
X158138666Y-61392152D01*
X158138666Y-61392152D02*
X158329142Y-61392152D01*
X158329142Y-61392152D02*
X158424380Y-61439771D01*
X158900571Y-62058819D02*
X158900571Y-61058819D01*
X158900571Y-61535009D02*
X159471999Y-61535009D01*
X159471999Y-62058819D02*
X159471999Y-61058819D01*
X160091047Y-62058819D02*
X159995809Y-62011200D01*
X159995809Y-62011200D02*
X159948190Y-61963580D01*
X159948190Y-61963580D02*
X159900571Y-61868342D01*
X159900571Y-61868342D02*
X159900571Y-61582628D01*
X159900571Y-61582628D02*
X159948190Y-61487390D01*
X159948190Y-61487390D02*
X159995809Y-61439771D01*
X159995809Y-61439771D02*
X160091047Y-61392152D01*
X160091047Y-61392152D02*
X160233904Y-61392152D01*
X160233904Y-61392152D02*
X160329142Y-61439771D01*
X160329142Y-61439771D02*
X160376761Y-61487390D01*
X160376761Y-61487390D02*
X160424380Y-61582628D01*
X160424380Y-61582628D02*
X160424380Y-61868342D01*
X160424380Y-61868342D02*
X160376761Y-61963580D01*
X160376761Y-61963580D02*
X160329142Y-62011200D01*
X160329142Y-62011200D02*
X160233904Y-62058819D01*
X160233904Y-62058819D02*
X160091047Y-62058819D01*
X160995809Y-62058819D02*
X160900571Y-62011200D01*
X160900571Y-62011200D02*
X160852952Y-61915961D01*
X160852952Y-61915961D02*
X160852952Y-61058819D01*
X161757714Y-62011200D02*
X161662476Y-62058819D01*
X161662476Y-62058819D02*
X161472000Y-62058819D01*
X161472000Y-62058819D02*
X161376762Y-62011200D01*
X161376762Y-62011200D02*
X161329143Y-61915961D01*
X161329143Y-61915961D02*
X161329143Y-61535009D01*
X161329143Y-61535009D02*
X161376762Y-61439771D01*
X161376762Y-61439771D02*
X161472000Y-61392152D01*
X161472000Y-61392152D02*
X161662476Y-61392152D01*
X161662476Y-61392152D02*
X161757714Y-61439771D01*
X161757714Y-61439771D02*
X161805333Y-61535009D01*
X161805333Y-61535009D02*
X161805333Y-61630247D01*
X161805333Y-61630247D02*
X161329143Y-61725485D01*
X156210095Y-57858819D02*
X156210095Y-56858819D01*
X156210095Y-57335009D02*
X156781523Y-57335009D01*
X156781523Y-57858819D02*
X156781523Y-56858819D01*
X157210095Y-56954057D02*
X157257714Y-56906438D01*
X157257714Y-56906438D02*
X157352952Y-56858819D01*
X157352952Y-56858819D02*
X157591047Y-56858819D01*
X157591047Y-56858819D02*
X157686285Y-56906438D01*
X157686285Y-56906438D02*
X157733904Y-56954057D01*
X157733904Y-56954057D02*
X157781523Y-57049295D01*
X157781523Y-57049295D02*
X157781523Y-57144533D01*
X157781523Y-57144533D02*
X157733904Y-57287390D01*
X157733904Y-57287390D02*
X157162476Y-57858819D01*
X157162476Y-57858819D02*
X157781523Y-57858819D01*
X18963285Y-62058819D02*
X18963285Y-61058819D01*
X18963285Y-61058819D02*
X19296618Y-61773104D01*
X19296618Y-61773104D02*
X19629951Y-61058819D01*
X19629951Y-61058819D02*
X19629951Y-62058819D01*
X20248999Y-62058819D02*
X20153761Y-62011200D01*
X20153761Y-62011200D02*
X20106142Y-61963580D01*
X20106142Y-61963580D02*
X20058523Y-61868342D01*
X20058523Y-61868342D02*
X20058523Y-61582628D01*
X20058523Y-61582628D02*
X20106142Y-61487390D01*
X20106142Y-61487390D02*
X20153761Y-61439771D01*
X20153761Y-61439771D02*
X20248999Y-61392152D01*
X20248999Y-61392152D02*
X20391856Y-61392152D01*
X20391856Y-61392152D02*
X20487094Y-61439771D01*
X20487094Y-61439771D02*
X20534713Y-61487390D01*
X20534713Y-61487390D02*
X20582332Y-61582628D01*
X20582332Y-61582628D02*
X20582332Y-61868342D01*
X20582332Y-61868342D02*
X20534713Y-61963580D01*
X20534713Y-61963580D02*
X20487094Y-62011200D01*
X20487094Y-62011200D02*
X20391856Y-62058819D01*
X20391856Y-62058819D02*
X20248999Y-62058819D01*
X21439475Y-61392152D02*
X21439475Y-62058819D01*
X21010904Y-61392152D02*
X21010904Y-61915961D01*
X21010904Y-61915961D02*
X21058523Y-62011200D01*
X21058523Y-62011200D02*
X21153761Y-62058819D01*
X21153761Y-62058819D02*
X21296618Y-62058819D01*
X21296618Y-62058819D02*
X21391856Y-62011200D01*
X21391856Y-62011200D02*
X21439475Y-61963580D01*
X21915666Y-61392152D02*
X21915666Y-62058819D01*
X21915666Y-61487390D02*
X21963285Y-61439771D01*
X21963285Y-61439771D02*
X22058523Y-61392152D01*
X22058523Y-61392152D02*
X22201380Y-61392152D01*
X22201380Y-61392152D02*
X22296618Y-61439771D01*
X22296618Y-61439771D02*
X22344237Y-61535009D01*
X22344237Y-61535009D02*
X22344237Y-62058819D01*
X22677571Y-61392152D02*
X23058523Y-61392152D01*
X22820428Y-61058819D02*
X22820428Y-61915961D01*
X22820428Y-61915961D02*
X22868047Y-62011200D01*
X22868047Y-62011200D02*
X22963285Y-62058819D01*
X22963285Y-62058819D02*
X23058523Y-62058819D01*
X23391857Y-62058819D02*
X23391857Y-61392152D01*
X23391857Y-61058819D02*
X23344238Y-61106438D01*
X23344238Y-61106438D02*
X23391857Y-61154057D01*
X23391857Y-61154057D02*
X23439476Y-61106438D01*
X23439476Y-61106438D02*
X23391857Y-61058819D01*
X23391857Y-61058819D02*
X23391857Y-61154057D01*
X23868047Y-61392152D02*
X23868047Y-62058819D01*
X23868047Y-61487390D02*
X23915666Y-61439771D01*
X23915666Y-61439771D02*
X24010904Y-61392152D01*
X24010904Y-61392152D02*
X24153761Y-61392152D01*
X24153761Y-61392152D02*
X24248999Y-61439771D01*
X24248999Y-61439771D02*
X24296618Y-61535009D01*
X24296618Y-61535009D02*
X24296618Y-62058819D01*
X25201380Y-61392152D02*
X25201380Y-62201676D01*
X25201380Y-62201676D02*
X25153761Y-62296914D01*
X25153761Y-62296914D02*
X25106142Y-62344533D01*
X25106142Y-62344533D02*
X25010904Y-62392152D01*
X25010904Y-62392152D02*
X24868047Y-62392152D01*
X24868047Y-62392152D02*
X24772809Y-62344533D01*
X25201380Y-62011200D02*
X25106142Y-62058819D01*
X25106142Y-62058819D02*
X24915666Y-62058819D01*
X24915666Y-62058819D02*
X24820428Y-62011200D01*
X24820428Y-62011200D02*
X24772809Y-61963580D01*
X24772809Y-61963580D02*
X24725190Y-61868342D01*
X24725190Y-61868342D02*
X24725190Y-61582628D01*
X24725190Y-61582628D02*
X24772809Y-61487390D01*
X24772809Y-61487390D02*
X24820428Y-61439771D01*
X24820428Y-61439771D02*
X24915666Y-61392152D01*
X24915666Y-61392152D02*
X25106142Y-61392152D01*
X25106142Y-61392152D02*
X25201380Y-61439771D01*
X25677571Y-62058819D02*
X25677571Y-61058819D01*
X25677571Y-61535009D02*
X26248999Y-61535009D01*
X26248999Y-62058819D02*
X26248999Y-61058819D01*
X26868047Y-62058819D02*
X26772809Y-62011200D01*
X26772809Y-62011200D02*
X26725190Y-61963580D01*
X26725190Y-61963580D02*
X26677571Y-61868342D01*
X26677571Y-61868342D02*
X26677571Y-61582628D01*
X26677571Y-61582628D02*
X26725190Y-61487390D01*
X26725190Y-61487390D02*
X26772809Y-61439771D01*
X26772809Y-61439771D02*
X26868047Y-61392152D01*
X26868047Y-61392152D02*
X27010904Y-61392152D01*
X27010904Y-61392152D02*
X27106142Y-61439771D01*
X27106142Y-61439771D02*
X27153761Y-61487390D01*
X27153761Y-61487390D02*
X27201380Y-61582628D01*
X27201380Y-61582628D02*
X27201380Y-61868342D01*
X27201380Y-61868342D02*
X27153761Y-61963580D01*
X27153761Y-61963580D02*
X27106142Y-62011200D01*
X27106142Y-62011200D02*
X27010904Y-62058819D01*
X27010904Y-62058819D02*
X26868047Y-62058819D01*
X27772809Y-62058819D02*
X27677571Y-62011200D01*
X27677571Y-62011200D02*
X27629952Y-61915961D01*
X27629952Y-61915961D02*
X27629952Y-61058819D01*
X28534714Y-62011200D02*
X28439476Y-62058819D01*
X28439476Y-62058819D02*
X28249000Y-62058819D01*
X28249000Y-62058819D02*
X28153762Y-62011200D01*
X28153762Y-62011200D02*
X28106143Y-61915961D01*
X28106143Y-61915961D02*
X28106143Y-61535009D01*
X28106143Y-61535009D02*
X28153762Y-61439771D01*
X28153762Y-61439771D02*
X28249000Y-61392152D01*
X28249000Y-61392152D02*
X28439476Y-61392152D01*
X28439476Y-61392152D02*
X28534714Y-61439771D01*
X28534714Y-61439771D02*
X28582333Y-61535009D01*
X28582333Y-61535009D02*
X28582333Y-61630247D01*
X28582333Y-61630247D02*
X28106143Y-61725485D01*
X23287095Y-57858819D02*
X23287095Y-56858819D01*
X23287095Y-57335009D02*
X23858523Y-57335009D01*
X23858523Y-57858819D02*
X23858523Y-56858819D01*
X24858523Y-57858819D02*
X24287095Y-57858819D01*
X24572809Y-57858819D02*
X24572809Y-56858819D01*
X24572809Y-56858819D02*
X24477571Y-57001676D01*
X24477571Y-57001676D02*
X24382333Y-57096914D01*
X24382333Y-57096914D02*
X24287095Y-57144533D01*
X268264285Y-130384819D02*
X268264285Y-129384819D01*
X268264285Y-129384819D02*
X268597618Y-130099104D01*
X268597618Y-130099104D02*
X268930951Y-129384819D01*
X268930951Y-129384819D02*
X268930951Y-130384819D01*
X269549999Y-130384819D02*
X269454761Y-130337200D01*
X269454761Y-130337200D02*
X269407142Y-130289580D01*
X269407142Y-130289580D02*
X269359523Y-130194342D01*
X269359523Y-130194342D02*
X269359523Y-129908628D01*
X269359523Y-129908628D02*
X269407142Y-129813390D01*
X269407142Y-129813390D02*
X269454761Y-129765771D01*
X269454761Y-129765771D02*
X269549999Y-129718152D01*
X269549999Y-129718152D02*
X269692856Y-129718152D01*
X269692856Y-129718152D02*
X269788094Y-129765771D01*
X269788094Y-129765771D02*
X269835713Y-129813390D01*
X269835713Y-129813390D02*
X269883332Y-129908628D01*
X269883332Y-129908628D02*
X269883332Y-130194342D01*
X269883332Y-130194342D02*
X269835713Y-130289580D01*
X269835713Y-130289580D02*
X269788094Y-130337200D01*
X269788094Y-130337200D02*
X269692856Y-130384819D01*
X269692856Y-130384819D02*
X269549999Y-130384819D01*
X270740475Y-129718152D02*
X270740475Y-130384819D01*
X270311904Y-129718152D02*
X270311904Y-130241961D01*
X270311904Y-130241961D02*
X270359523Y-130337200D01*
X270359523Y-130337200D02*
X270454761Y-130384819D01*
X270454761Y-130384819D02*
X270597618Y-130384819D01*
X270597618Y-130384819D02*
X270692856Y-130337200D01*
X270692856Y-130337200D02*
X270740475Y-130289580D01*
X271216666Y-129718152D02*
X271216666Y-130384819D01*
X271216666Y-129813390D02*
X271264285Y-129765771D01*
X271264285Y-129765771D02*
X271359523Y-129718152D01*
X271359523Y-129718152D02*
X271502380Y-129718152D01*
X271502380Y-129718152D02*
X271597618Y-129765771D01*
X271597618Y-129765771D02*
X271645237Y-129861009D01*
X271645237Y-129861009D02*
X271645237Y-130384819D01*
X271978571Y-129718152D02*
X272359523Y-129718152D01*
X272121428Y-129384819D02*
X272121428Y-130241961D01*
X272121428Y-130241961D02*
X272169047Y-130337200D01*
X272169047Y-130337200D02*
X272264285Y-130384819D01*
X272264285Y-130384819D02*
X272359523Y-130384819D01*
X272692857Y-130384819D02*
X272692857Y-129718152D01*
X272692857Y-129384819D02*
X272645238Y-129432438D01*
X272645238Y-129432438D02*
X272692857Y-129480057D01*
X272692857Y-129480057D02*
X272740476Y-129432438D01*
X272740476Y-129432438D02*
X272692857Y-129384819D01*
X272692857Y-129384819D02*
X272692857Y-129480057D01*
X273169047Y-129718152D02*
X273169047Y-130384819D01*
X273169047Y-129813390D02*
X273216666Y-129765771D01*
X273216666Y-129765771D02*
X273311904Y-129718152D01*
X273311904Y-129718152D02*
X273454761Y-129718152D01*
X273454761Y-129718152D02*
X273549999Y-129765771D01*
X273549999Y-129765771D02*
X273597618Y-129861009D01*
X273597618Y-129861009D02*
X273597618Y-130384819D01*
X274502380Y-129718152D02*
X274502380Y-130527676D01*
X274502380Y-130527676D02*
X274454761Y-130622914D01*
X274454761Y-130622914D02*
X274407142Y-130670533D01*
X274407142Y-130670533D02*
X274311904Y-130718152D01*
X274311904Y-130718152D02*
X274169047Y-130718152D01*
X274169047Y-130718152D02*
X274073809Y-130670533D01*
X274502380Y-130337200D02*
X274407142Y-130384819D01*
X274407142Y-130384819D02*
X274216666Y-130384819D01*
X274216666Y-130384819D02*
X274121428Y-130337200D01*
X274121428Y-130337200D02*
X274073809Y-130289580D01*
X274073809Y-130289580D02*
X274026190Y-130194342D01*
X274026190Y-130194342D02*
X274026190Y-129908628D01*
X274026190Y-129908628D02*
X274073809Y-129813390D01*
X274073809Y-129813390D02*
X274121428Y-129765771D01*
X274121428Y-129765771D02*
X274216666Y-129718152D01*
X274216666Y-129718152D02*
X274407142Y-129718152D01*
X274407142Y-129718152D02*
X274502380Y-129765771D01*
X274978571Y-130384819D02*
X274978571Y-129384819D01*
X274978571Y-129861009D02*
X275549999Y-129861009D01*
X275549999Y-130384819D02*
X275549999Y-129384819D01*
X276169047Y-130384819D02*
X276073809Y-130337200D01*
X276073809Y-130337200D02*
X276026190Y-130289580D01*
X276026190Y-130289580D02*
X275978571Y-130194342D01*
X275978571Y-130194342D02*
X275978571Y-129908628D01*
X275978571Y-129908628D02*
X276026190Y-129813390D01*
X276026190Y-129813390D02*
X276073809Y-129765771D01*
X276073809Y-129765771D02*
X276169047Y-129718152D01*
X276169047Y-129718152D02*
X276311904Y-129718152D01*
X276311904Y-129718152D02*
X276407142Y-129765771D01*
X276407142Y-129765771D02*
X276454761Y-129813390D01*
X276454761Y-129813390D02*
X276502380Y-129908628D01*
X276502380Y-129908628D02*
X276502380Y-130194342D01*
X276502380Y-130194342D02*
X276454761Y-130289580D01*
X276454761Y-130289580D02*
X276407142Y-130337200D01*
X276407142Y-130337200D02*
X276311904Y-130384819D01*
X276311904Y-130384819D02*
X276169047Y-130384819D01*
X277073809Y-130384819D02*
X276978571Y-130337200D01*
X276978571Y-130337200D02*
X276930952Y-130241961D01*
X276930952Y-130241961D02*
X276930952Y-129384819D01*
X277835714Y-130337200D02*
X277740476Y-130384819D01*
X277740476Y-130384819D02*
X277550000Y-130384819D01*
X277550000Y-130384819D02*
X277454762Y-130337200D01*
X277454762Y-130337200D02*
X277407143Y-130241961D01*
X277407143Y-130241961D02*
X277407143Y-129861009D01*
X277407143Y-129861009D02*
X277454762Y-129765771D01*
X277454762Y-129765771D02*
X277550000Y-129718152D01*
X277550000Y-129718152D02*
X277740476Y-129718152D01*
X277740476Y-129718152D02*
X277835714Y-129765771D01*
X277835714Y-129765771D02*
X277883333Y-129861009D01*
X277883333Y-129861009D02*
X277883333Y-129956247D01*
X277883333Y-129956247D02*
X277407143Y-130051485D01*
X272588095Y-126184819D02*
X272588095Y-125184819D01*
X272588095Y-125661009D02*
X273159523Y-125661009D01*
X273159523Y-126184819D02*
X273159523Y-125184819D01*
X273778571Y-125613390D02*
X273683333Y-125565771D01*
X273683333Y-125565771D02*
X273635714Y-125518152D01*
X273635714Y-125518152D02*
X273588095Y-125422914D01*
X273588095Y-125422914D02*
X273588095Y-125375295D01*
X273588095Y-125375295D02*
X273635714Y-125280057D01*
X273635714Y-125280057D02*
X273683333Y-125232438D01*
X273683333Y-125232438D02*
X273778571Y-125184819D01*
X273778571Y-125184819D02*
X273969047Y-125184819D01*
X273969047Y-125184819D02*
X274064285Y-125232438D01*
X274064285Y-125232438D02*
X274111904Y-125280057D01*
X274111904Y-125280057D02*
X274159523Y-125375295D01*
X274159523Y-125375295D02*
X274159523Y-125422914D01*
X274159523Y-125422914D02*
X274111904Y-125518152D01*
X274111904Y-125518152D02*
X274064285Y-125565771D01*
X274064285Y-125565771D02*
X273969047Y-125613390D01*
X273969047Y-125613390D02*
X273778571Y-125613390D01*
X273778571Y-125613390D02*
X273683333Y-125661009D01*
X273683333Y-125661009D02*
X273635714Y-125708628D01*
X273635714Y-125708628D02*
X273588095Y-125803866D01*
X273588095Y-125803866D02*
X273588095Y-125994342D01*
X273588095Y-125994342D02*
X273635714Y-126089580D01*
X273635714Y-126089580D02*
X273683333Y-126137200D01*
X273683333Y-126137200D02*
X273778571Y-126184819D01*
X273778571Y-126184819D02*
X273969047Y-126184819D01*
X273969047Y-126184819D02*
X274064285Y-126137200D01*
X274064285Y-126137200D02*
X274111904Y-126089580D01*
X274111904Y-126089580D02*
X274159523Y-125994342D01*
X274159523Y-125994342D02*
X274159523Y-125803866D01*
X274159523Y-125803866D02*
X274111904Y-125708628D01*
X274111904Y-125708628D02*
X274064285Y-125661009D01*
X274064285Y-125661009D02*
X273969047Y-125613390D01*
X64302285Y-96094819D02*
X64302285Y-95094819D01*
X64302285Y-95094819D02*
X64635618Y-95809104D01*
X64635618Y-95809104D02*
X64968951Y-95094819D01*
X64968951Y-95094819D02*
X64968951Y-96094819D01*
X65587999Y-96094819D02*
X65492761Y-96047200D01*
X65492761Y-96047200D02*
X65445142Y-95999580D01*
X65445142Y-95999580D02*
X65397523Y-95904342D01*
X65397523Y-95904342D02*
X65397523Y-95618628D01*
X65397523Y-95618628D02*
X65445142Y-95523390D01*
X65445142Y-95523390D02*
X65492761Y-95475771D01*
X65492761Y-95475771D02*
X65587999Y-95428152D01*
X65587999Y-95428152D02*
X65730856Y-95428152D01*
X65730856Y-95428152D02*
X65826094Y-95475771D01*
X65826094Y-95475771D02*
X65873713Y-95523390D01*
X65873713Y-95523390D02*
X65921332Y-95618628D01*
X65921332Y-95618628D02*
X65921332Y-95904342D01*
X65921332Y-95904342D02*
X65873713Y-95999580D01*
X65873713Y-95999580D02*
X65826094Y-96047200D01*
X65826094Y-96047200D02*
X65730856Y-96094819D01*
X65730856Y-96094819D02*
X65587999Y-96094819D01*
X66778475Y-95428152D02*
X66778475Y-96094819D01*
X66349904Y-95428152D02*
X66349904Y-95951961D01*
X66349904Y-95951961D02*
X66397523Y-96047200D01*
X66397523Y-96047200D02*
X66492761Y-96094819D01*
X66492761Y-96094819D02*
X66635618Y-96094819D01*
X66635618Y-96094819D02*
X66730856Y-96047200D01*
X66730856Y-96047200D02*
X66778475Y-95999580D01*
X67254666Y-95428152D02*
X67254666Y-96094819D01*
X67254666Y-95523390D02*
X67302285Y-95475771D01*
X67302285Y-95475771D02*
X67397523Y-95428152D01*
X67397523Y-95428152D02*
X67540380Y-95428152D01*
X67540380Y-95428152D02*
X67635618Y-95475771D01*
X67635618Y-95475771D02*
X67683237Y-95571009D01*
X67683237Y-95571009D02*
X67683237Y-96094819D01*
X68016571Y-95428152D02*
X68397523Y-95428152D01*
X68159428Y-95094819D02*
X68159428Y-95951961D01*
X68159428Y-95951961D02*
X68207047Y-96047200D01*
X68207047Y-96047200D02*
X68302285Y-96094819D01*
X68302285Y-96094819D02*
X68397523Y-96094819D01*
X68730857Y-96094819D02*
X68730857Y-95428152D01*
X68730857Y-95094819D02*
X68683238Y-95142438D01*
X68683238Y-95142438D02*
X68730857Y-95190057D01*
X68730857Y-95190057D02*
X68778476Y-95142438D01*
X68778476Y-95142438D02*
X68730857Y-95094819D01*
X68730857Y-95094819D02*
X68730857Y-95190057D01*
X69207047Y-95428152D02*
X69207047Y-96094819D01*
X69207047Y-95523390D02*
X69254666Y-95475771D01*
X69254666Y-95475771D02*
X69349904Y-95428152D01*
X69349904Y-95428152D02*
X69492761Y-95428152D01*
X69492761Y-95428152D02*
X69587999Y-95475771D01*
X69587999Y-95475771D02*
X69635618Y-95571009D01*
X69635618Y-95571009D02*
X69635618Y-96094819D01*
X70540380Y-95428152D02*
X70540380Y-96237676D01*
X70540380Y-96237676D02*
X70492761Y-96332914D01*
X70492761Y-96332914D02*
X70445142Y-96380533D01*
X70445142Y-96380533D02*
X70349904Y-96428152D01*
X70349904Y-96428152D02*
X70207047Y-96428152D01*
X70207047Y-96428152D02*
X70111809Y-96380533D01*
X70540380Y-96047200D02*
X70445142Y-96094819D01*
X70445142Y-96094819D02*
X70254666Y-96094819D01*
X70254666Y-96094819D02*
X70159428Y-96047200D01*
X70159428Y-96047200D02*
X70111809Y-95999580D01*
X70111809Y-95999580D02*
X70064190Y-95904342D01*
X70064190Y-95904342D02*
X70064190Y-95618628D01*
X70064190Y-95618628D02*
X70111809Y-95523390D01*
X70111809Y-95523390D02*
X70159428Y-95475771D01*
X70159428Y-95475771D02*
X70254666Y-95428152D01*
X70254666Y-95428152D02*
X70445142Y-95428152D01*
X70445142Y-95428152D02*
X70540380Y-95475771D01*
X71016571Y-96094819D02*
X71016571Y-95094819D01*
X71016571Y-95571009D02*
X71587999Y-95571009D01*
X71587999Y-96094819D02*
X71587999Y-95094819D01*
X72207047Y-96094819D02*
X72111809Y-96047200D01*
X72111809Y-96047200D02*
X72064190Y-95999580D01*
X72064190Y-95999580D02*
X72016571Y-95904342D01*
X72016571Y-95904342D02*
X72016571Y-95618628D01*
X72016571Y-95618628D02*
X72064190Y-95523390D01*
X72064190Y-95523390D02*
X72111809Y-95475771D01*
X72111809Y-95475771D02*
X72207047Y-95428152D01*
X72207047Y-95428152D02*
X72349904Y-95428152D01*
X72349904Y-95428152D02*
X72445142Y-95475771D01*
X72445142Y-95475771D02*
X72492761Y-95523390D01*
X72492761Y-95523390D02*
X72540380Y-95618628D01*
X72540380Y-95618628D02*
X72540380Y-95904342D01*
X72540380Y-95904342D02*
X72492761Y-95999580D01*
X72492761Y-95999580D02*
X72445142Y-96047200D01*
X72445142Y-96047200D02*
X72349904Y-96094819D01*
X72349904Y-96094819D02*
X72207047Y-96094819D01*
X73111809Y-96094819D02*
X73016571Y-96047200D01*
X73016571Y-96047200D02*
X72968952Y-95951961D01*
X72968952Y-95951961D02*
X72968952Y-95094819D01*
X73873714Y-96047200D02*
X73778476Y-96094819D01*
X73778476Y-96094819D02*
X73588000Y-96094819D01*
X73588000Y-96094819D02*
X73492762Y-96047200D01*
X73492762Y-96047200D02*
X73445143Y-95951961D01*
X73445143Y-95951961D02*
X73445143Y-95571009D01*
X73445143Y-95571009D02*
X73492762Y-95475771D01*
X73492762Y-95475771D02*
X73588000Y-95428152D01*
X73588000Y-95428152D02*
X73778476Y-95428152D01*
X73778476Y-95428152D02*
X73873714Y-95475771D01*
X73873714Y-95475771D02*
X73921333Y-95571009D01*
X73921333Y-95571009D02*
X73921333Y-95666247D01*
X73921333Y-95666247D02*
X73445143Y-95761485D01*
X68626095Y-91894819D02*
X68626095Y-90894819D01*
X68626095Y-91371009D02*
X69197523Y-91371009D01*
X69197523Y-91894819D02*
X69197523Y-90894819D01*
X69721333Y-91894819D02*
X69911809Y-91894819D01*
X69911809Y-91894819D02*
X70007047Y-91847200D01*
X70007047Y-91847200D02*
X70054666Y-91799580D01*
X70054666Y-91799580D02*
X70149904Y-91656723D01*
X70149904Y-91656723D02*
X70197523Y-91466247D01*
X70197523Y-91466247D02*
X70197523Y-91085295D01*
X70197523Y-91085295D02*
X70149904Y-90990057D01*
X70149904Y-90990057D02*
X70102285Y-90942438D01*
X70102285Y-90942438D02*
X70007047Y-90894819D01*
X70007047Y-90894819D02*
X69816571Y-90894819D01*
X69816571Y-90894819D02*
X69721333Y-90942438D01*
X69721333Y-90942438D02*
X69673714Y-90990057D01*
X69673714Y-90990057D02*
X69626095Y-91085295D01*
X69626095Y-91085295D02*
X69626095Y-91323390D01*
X69626095Y-91323390D02*
X69673714Y-91418628D01*
X69673714Y-91418628D02*
X69721333Y-91466247D01*
X69721333Y-91466247D02*
X69816571Y-91513866D01*
X69816571Y-91513866D02*
X70007047Y-91513866D01*
X70007047Y-91513866D02*
X70102285Y-91466247D01*
X70102285Y-91466247D02*
X70149904Y-91418628D01*
X70149904Y-91418628D02*
X70197523Y-91323390D01*
X217718285Y-98507819D02*
X217718285Y-97507819D01*
X217718285Y-97507819D02*
X218051618Y-98222104D01*
X218051618Y-98222104D02*
X218384951Y-97507819D01*
X218384951Y-97507819D02*
X218384951Y-98507819D01*
X219003999Y-98507819D02*
X218908761Y-98460200D01*
X218908761Y-98460200D02*
X218861142Y-98412580D01*
X218861142Y-98412580D02*
X218813523Y-98317342D01*
X218813523Y-98317342D02*
X218813523Y-98031628D01*
X218813523Y-98031628D02*
X218861142Y-97936390D01*
X218861142Y-97936390D02*
X218908761Y-97888771D01*
X218908761Y-97888771D02*
X219003999Y-97841152D01*
X219003999Y-97841152D02*
X219146856Y-97841152D01*
X219146856Y-97841152D02*
X219242094Y-97888771D01*
X219242094Y-97888771D02*
X219289713Y-97936390D01*
X219289713Y-97936390D02*
X219337332Y-98031628D01*
X219337332Y-98031628D02*
X219337332Y-98317342D01*
X219337332Y-98317342D02*
X219289713Y-98412580D01*
X219289713Y-98412580D02*
X219242094Y-98460200D01*
X219242094Y-98460200D02*
X219146856Y-98507819D01*
X219146856Y-98507819D02*
X219003999Y-98507819D01*
X220194475Y-97841152D02*
X220194475Y-98507819D01*
X219765904Y-97841152D02*
X219765904Y-98364961D01*
X219765904Y-98364961D02*
X219813523Y-98460200D01*
X219813523Y-98460200D02*
X219908761Y-98507819D01*
X219908761Y-98507819D02*
X220051618Y-98507819D01*
X220051618Y-98507819D02*
X220146856Y-98460200D01*
X220146856Y-98460200D02*
X220194475Y-98412580D01*
X220670666Y-97841152D02*
X220670666Y-98507819D01*
X220670666Y-97936390D02*
X220718285Y-97888771D01*
X220718285Y-97888771D02*
X220813523Y-97841152D01*
X220813523Y-97841152D02*
X220956380Y-97841152D01*
X220956380Y-97841152D02*
X221051618Y-97888771D01*
X221051618Y-97888771D02*
X221099237Y-97984009D01*
X221099237Y-97984009D02*
X221099237Y-98507819D01*
X221432571Y-97841152D02*
X221813523Y-97841152D01*
X221575428Y-97507819D02*
X221575428Y-98364961D01*
X221575428Y-98364961D02*
X221623047Y-98460200D01*
X221623047Y-98460200D02*
X221718285Y-98507819D01*
X221718285Y-98507819D02*
X221813523Y-98507819D01*
X222146857Y-98507819D02*
X222146857Y-97841152D01*
X222146857Y-97507819D02*
X222099238Y-97555438D01*
X222099238Y-97555438D02*
X222146857Y-97603057D01*
X222146857Y-97603057D02*
X222194476Y-97555438D01*
X222194476Y-97555438D02*
X222146857Y-97507819D01*
X222146857Y-97507819D02*
X222146857Y-97603057D01*
X222623047Y-97841152D02*
X222623047Y-98507819D01*
X222623047Y-97936390D02*
X222670666Y-97888771D01*
X222670666Y-97888771D02*
X222765904Y-97841152D01*
X222765904Y-97841152D02*
X222908761Y-97841152D01*
X222908761Y-97841152D02*
X223003999Y-97888771D01*
X223003999Y-97888771D02*
X223051618Y-97984009D01*
X223051618Y-97984009D02*
X223051618Y-98507819D01*
X223956380Y-97841152D02*
X223956380Y-98650676D01*
X223956380Y-98650676D02*
X223908761Y-98745914D01*
X223908761Y-98745914D02*
X223861142Y-98793533D01*
X223861142Y-98793533D02*
X223765904Y-98841152D01*
X223765904Y-98841152D02*
X223623047Y-98841152D01*
X223623047Y-98841152D02*
X223527809Y-98793533D01*
X223956380Y-98460200D02*
X223861142Y-98507819D01*
X223861142Y-98507819D02*
X223670666Y-98507819D01*
X223670666Y-98507819D02*
X223575428Y-98460200D01*
X223575428Y-98460200D02*
X223527809Y-98412580D01*
X223527809Y-98412580D02*
X223480190Y-98317342D01*
X223480190Y-98317342D02*
X223480190Y-98031628D01*
X223480190Y-98031628D02*
X223527809Y-97936390D01*
X223527809Y-97936390D02*
X223575428Y-97888771D01*
X223575428Y-97888771D02*
X223670666Y-97841152D01*
X223670666Y-97841152D02*
X223861142Y-97841152D01*
X223861142Y-97841152D02*
X223956380Y-97888771D01*
X224432571Y-98507819D02*
X224432571Y-97507819D01*
X224432571Y-97984009D02*
X225003999Y-97984009D01*
X225003999Y-98507819D02*
X225003999Y-97507819D01*
X225623047Y-98507819D02*
X225527809Y-98460200D01*
X225527809Y-98460200D02*
X225480190Y-98412580D01*
X225480190Y-98412580D02*
X225432571Y-98317342D01*
X225432571Y-98317342D02*
X225432571Y-98031628D01*
X225432571Y-98031628D02*
X225480190Y-97936390D01*
X225480190Y-97936390D02*
X225527809Y-97888771D01*
X225527809Y-97888771D02*
X225623047Y-97841152D01*
X225623047Y-97841152D02*
X225765904Y-97841152D01*
X225765904Y-97841152D02*
X225861142Y-97888771D01*
X225861142Y-97888771D02*
X225908761Y-97936390D01*
X225908761Y-97936390D02*
X225956380Y-98031628D01*
X225956380Y-98031628D02*
X225956380Y-98317342D01*
X225956380Y-98317342D02*
X225908761Y-98412580D01*
X225908761Y-98412580D02*
X225861142Y-98460200D01*
X225861142Y-98460200D02*
X225765904Y-98507819D01*
X225765904Y-98507819D02*
X225623047Y-98507819D01*
X226527809Y-98507819D02*
X226432571Y-98460200D01*
X226432571Y-98460200D02*
X226384952Y-98364961D01*
X226384952Y-98364961D02*
X226384952Y-97507819D01*
X227289714Y-98460200D02*
X227194476Y-98507819D01*
X227194476Y-98507819D02*
X227004000Y-98507819D01*
X227004000Y-98507819D02*
X226908762Y-98460200D01*
X226908762Y-98460200D02*
X226861143Y-98364961D01*
X226861143Y-98364961D02*
X226861143Y-97984009D01*
X226861143Y-97984009D02*
X226908762Y-97888771D01*
X226908762Y-97888771D02*
X227004000Y-97841152D01*
X227004000Y-97841152D02*
X227194476Y-97841152D01*
X227194476Y-97841152D02*
X227289714Y-97888771D01*
X227289714Y-97888771D02*
X227337333Y-97984009D01*
X227337333Y-97984009D02*
X227337333Y-98079247D01*
X227337333Y-98079247D02*
X226861143Y-98174485D01*
X221565905Y-94307819D02*
X221565905Y-93307819D01*
X221565905Y-93784009D02*
X222137333Y-93784009D01*
X222137333Y-94307819D02*
X222137333Y-93307819D01*
X223137333Y-94307819D02*
X222565905Y-94307819D01*
X222851619Y-94307819D02*
X222851619Y-93307819D01*
X222851619Y-93307819D02*
X222756381Y-93450676D01*
X222756381Y-93450676D02*
X222661143Y-93545914D01*
X222661143Y-93545914D02*
X222565905Y-93593533D01*
X224089714Y-94307819D02*
X223518286Y-94307819D01*
X223804000Y-94307819D02*
X223804000Y-93307819D01*
X223804000Y-93307819D02*
X223708762Y-93450676D01*
X223708762Y-93450676D02*
X223613524Y-93545914D01*
X223613524Y-93545914D02*
X223518286Y-93593533D01*
X148122285Y-97618819D02*
X148122285Y-96618819D01*
X148122285Y-96618819D02*
X148455618Y-97333104D01*
X148455618Y-97333104D02*
X148788951Y-96618819D01*
X148788951Y-96618819D02*
X148788951Y-97618819D01*
X149407999Y-97618819D02*
X149312761Y-97571200D01*
X149312761Y-97571200D02*
X149265142Y-97523580D01*
X149265142Y-97523580D02*
X149217523Y-97428342D01*
X149217523Y-97428342D02*
X149217523Y-97142628D01*
X149217523Y-97142628D02*
X149265142Y-97047390D01*
X149265142Y-97047390D02*
X149312761Y-96999771D01*
X149312761Y-96999771D02*
X149407999Y-96952152D01*
X149407999Y-96952152D02*
X149550856Y-96952152D01*
X149550856Y-96952152D02*
X149646094Y-96999771D01*
X149646094Y-96999771D02*
X149693713Y-97047390D01*
X149693713Y-97047390D02*
X149741332Y-97142628D01*
X149741332Y-97142628D02*
X149741332Y-97428342D01*
X149741332Y-97428342D02*
X149693713Y-97523580D01*
X149693713Y-97523580D02*
X149646094Y-97571200D01*
X149646094Y-97571200D02*
X149550856Y-97618819D01*
X149550856Y-97618819D02*
X149407999Y-97618819D01*
X150598475Y-96952152D02*
X150598475Y-97618819D01*
X150169904Y-96952152D02*
X150169904Y-97475961D01*
X150169904Y-97475961D02*
X150217523Y-97571200D01*
X150217523Y-97571200D02*
X150312761Y-97618819D01*
X150312761Y-97618819D02*
X150455618Y-97618819D01*
X150455618Y-97618819D02*
X150550856Y-97571200D01*
X150550856Y-97571200D02*
X150598475Y-97523580D01*
X151074666Y-96952152D02*
X151074666Y-97618819D01*
X151074666Y-97047390D02*
X151122285Y-96999771D01*
X151122285Y-96999771D02*
X151217523Y-96952152D01*
X151217523Y-96952152D02*
X151360380Y-96952152D01*
X151360380Y-96952152D02*
X151455618Y-96999771D01*
X151455618Y-96999771D02*
X151503237Y-97095009D01*
X151503237Y-97095009D02*
X151503237Y-97618819D01*
X151836571Y-96952152D02*
X152217523Y-96952152D01*
X151979428Y-96618819D02*
X151979428Y-97475961D01*
X151979428Y-97475961D02*
X152027047Y-97571200D01*
X152027047Y-97571200D02*
X152122285Y-97618819D01*
X152122285Y-97618819D02*
X152217523Y-97618819D01*
X152550857Y-97618819D02*
X152550857Y-96952152D01*
X152550857Y-96618819D02*
X152503238Y-96666438D01*
X152503238Y-96666438D02*
X152550857Y-96714057D01*
X152550857Y-96714057D02*
X152598476Y-96666438D01*
X152598476Y-96666438D02*
X152550857Y-96618819D01*
X152550857Y-96618819D02*
X152550857Y-96714057D01*
X153027047Y-96952152D02*
X153027047Y-97618819D01*
X153027047Y-97047390D02*
X153074666Y-96999771D01*
X153074666Y-96999771D02*
X153169904Y-96952152D01*
X153169904Y-96952152D02*
X153312761Y-96952152D01*
X153312761Y-96952152D02*
X153407999Y-96999771D01*
X153407999Y-96999771D02*
X153455618Y-97095009D01*
X153455618Y-97095009D02*
X153455618Y-97618819D01*
X154360380Y-96952152D02*
X154360380Y-97761676D01*
X154360380Y-97761676D02*
X154312761Y-97856914D01*
X154312761Y-97856914D02*
X154265142Y-97904533D01*
X154265142Y-97904533D02*
X154169904Y-97952152D01*
X154169904Y-97952152D02*
X154027047Y-97952152D01*
X154027047Y-97952152D02*
X153931809Y-97904533D01*
X154360380Y-97571200D02*
X154265142Y-97618819D01*
X154265142Y-97618819D02*
X154074666Y-97618819D01*
X154074666Y-97618819D02*
X153979428Y-97571200D01*
X153979428Y-97571200D02*
X153931809Y-97523580D01*
X153931809Y-97523580D02*
X153884190Y-97428342D01*
X153884190Y-97428342D02*
X153884190Y-97142628D01*
X153884190Y-97142628D02*
X153931809Y-97047390D01*
X153931809Y-97047390D02*
X153979428Y-96999771D01*
X153979428Y-96999771D02*
X154074666Y-96952152D01*
X154074666Y-96952152D02*
X154265142Y-96952152D01*
X154265142Y-96952152D02*
X154360380Y-96999771D01*
X154836571Y-97618819D02*
X154836571Y-96618819D01*
X154836571Y-97095009D02*
X155407999Y-97095009D01*
X155407999Y-97618819D02*
X155407999Y-96618819D01*
X156027047Y-97618819D02*
X155931809Y-97571200D01*
X155931809Y-97571200D02*
X155884190Y-97523580D01*
X155884190Y-97523580D02*
X155836571Y-97428342D01*
X155836571Y-97428342D02*
X155836571Y-97142628D01*
X155836571Y-97142628D02*
X155884190Y-97047390D01*
X155884190Y-97047390D02*
X155931809Y-96999771D01*
X155931809Y-96999771D02*
X156027047Y-96952152D01*
X156027047Y-96952152D02*
X156169904Y-96952152D01*
X156169904Y-96952152D02*
X156265142Y-96999771D01*
X156265142Y-96999771D02*
X156312761Y-97047390D01*
X156312761Y-97047390D02*
X156360380Y-97142628D01*
X156360380Y-97142628D02*
X156360380Y-97428342D01*
X156360380Y-97428342D02*
X156312761Y-97523580D01*
X156312761Y-97523580D02*
X156265142Y-97571200D01*
X156265142Y-97571200D02*
X156169904Y-97618819D01*
X156169904Y-97618819D02*
X156027047Y-97618819D01*
X156931809Y-97618819D02*
X156836571Y-97571200D01*
X156836571Y-97571200D02*
X156788952Y-97475961D01*
X156788952Y-97475961D02*
X156788952Y-96618819D01*
X157693714Y-97571200D02*
X157598476Y-97618819D01*
X157598476Y-97618819D02*
X157408000Y-97618819D01*
X157408000Y-97618819D02*
X157312762Y-97571200D01*
X157312762Y-97571200D02*
X157265143Y-97475961D01*
X157265143Y-97475961D02*
X157265143Y-97095009D01*
X157265143Y-97095009D02*
X157312762Y-96999771D01*
X157312762Y-96999771D02*
X157408000Y-96952152D01*
X157408000Y-96952152D02*
X157598476Y-96952152D01*
X157598476Y-96952152D02*
X157693714Y-96999771D01*
X157693714Y-96999771D02*
X157741333Y-97095009D01*
X157741333Y-97095009D02*
X157741333Y-97190247D01*
X157741333Y-97190247D02*
X157265143Y-97285485D01*
X151969905Y-93418819D02*
X151969905Y-92418819D01*
X151969905Y-92895009D02*
X152541333Y-92895009D01*
X152541333Y-93418819D02*
X152541333Y-92418819D01*
X153541333Y-93418819D02*
X152969905Y-93418819D01*
X153255619Y-93418819D02*
X153255619Y-92418819D01*
X153255619Y-92418819D02*
X153160381Y-92561676D01*
X153160381Y-92561676D02*
X153065143Y-92656914D01*
X153065143Y-92656914D02*
X152969905Y-92704533D01*
X154160381Y-92418819D02*
X154255619Y-92418819D01*
X154255619Y-92418819D02*
X154350857Y-92466438D01*
X154350857Y-92466438D02*
X154398476Y-92514057D01*
X154398476Y-92514057D02*
X154446095Y-92609295D01*
X154446095Y-92609295D02*
X154493714Y-92799771D01*
X154493714Y-92799771D02*
X154493714Y-93037866D01*
X154493714Y-93037866D02*
X154446095Y-93228342D01*
X154446095Y-93228342D02*
X154398476Y-93323580D01*
X154398476Y-93323580D02*
X154350857Y-93371200D01*
X154350857Y-93371200D02*
X154255619Y-93418819D01*
X154255619Y-93418819D02*
X154160381Y-93418819D01*
X154160381Y-93418819D02*
X154065143Y-93371200D01*
X154065143Y-93371200D02*
X154017524Y-93323580D01*
X154017524Y-93323580D02*
X153969905Y-93228342D01*
X153969905Y-93228342D02*
X153922286Y-93037866D01*
X153922286Y-93037866D02*
X153922286Y-92799771D01*
X153922286Y-92799771D02*
X153969905Y-92609295D01*
X153969905Y-92609295D02*
X154017524Y-92514057D01*
X154017524Y-92514057D02*
X154065143Y-92466438D01*
X154065143Y-92466438D02*
X154160381Y-92418819D01*
X268264285Y-62058819D02*
X268264285Y-61058819D01*
X268264285Y-61058819D02*
X268597618Y-61773104D01*
X268597618Y-61773104D02*
X268930951Y-61058819D01*
X268930951Y-61058819D02*
X268930951Y-62058819D01*
X269549999Y-62058819D02*
X269454761Y-62011200D01*
X269454761Y-62011200D02*
X269407142Y-61963580D01*
X269407142Y-61963580D02*
X269359523Y-61868342D01*
X269359523Y-61868342D02*
X269359523Y-61582628D01*
X269359523Y-61582628D02*
X269407142Y-61487390D01*
X269407142Y-61487390D02*
X269454761Y-61439771D01*
X269454761Y-61439771D02*
X269549999Y-61392152D01*
X269549999Y-61392152D02*
X269692856Y-61392152D01*
X269692856Y-61392152D02*
X269788094Y-61439771D01*
X269788094Y-61439771D02*
X269835713Y-61487390D01*
X269835713Y-61487390D02*
X269883332Y-61582628D01*
X269883332Y-61582628D02*
X269883332Y-61868342D01*
X269883332Y-61868342D02*
X269835713Y-61963580D01*
X269835713Y-61963580D02*
X269788094Y-62011200D01*
X269788094Y-62011200D02*
X269692856Y-62058819D01*
X269692856Y-62058819D02*
X269549999Y-62058819D01*
X270740475Y-61392152D02*
X270740475Y-62058819D01*
X270311904Y-61392152D02*
X270311904Y-61915961D01*
X270311904Y-61915961D02*
X270359523Y-62011200D01*
X270359523Y-62011200D02*
X270454761Y-62058819D01*
X270454761Y-62058819D02*
X270597618Y-62058819D01*
X270597618Y-62058819D02*
X270692856Y-62011200D01*
X270692856Y-62011200D02*
X270740475Y-61963580D01*
X271216666Y-61392152D02*
X271216666Y-62058819D01*
X271216666Y-61487390D02*
X271264285Y-61439771D01*
X271264285Y-61439771D02*
X271359523Y-61392152D01*
X271359523Y-61392152D02*
X271502380Y-61392152D01*
X271502380Y-61392152D02*
X271597618Y-61439771D01*
X271597618Y-61439771D02*
X271645237Y-61535009D01*
X271645237Y-61535009D02*
X271645237Y-62058819D01*
X271978571Y-61392152D02*
X272359523Y-61392152D01*
X272121428Y-61058819D02*
X272121428Y-61915961D01*
X272121428Y-61915961D02*
X272169047Y-62011200D01*
X272169047Y-62011200D02*
X272264285Y-62058819D01*
X272264285Y-62058819D02*
X272359523Y-62058819D01*
X272692857Y-62058819D02*
X272692857Y-61392152D01*
X272692857Y-61058819D02*
X272645238Y-61106438D01*
X272645238Y-61106438D02*
X272692857Y-61154057D01*
X272692857Y-61154057D02*
X272740476Y-61106438D01*
X272740476Y-61106438D02*
X272692857Y-61058819D01*
X272692857Y-61058819D02*
X272692857Y-61154057D01*
X273169047Y-61392152D02*
X273169047Y-62058819D01*
X273169047Y-61487390D02*
X273216666Y-61439771D01*
X273216666Y-61439771D02*
X273311904Y-61392152D01*
X273311904Y-61392152D02*
X273454761Y-61392152D01*
X273454761Y-61392152D02*
X273549999Y-61439771D01*
X273549999Y-61439771D02*
X273597618Y-61535009D01*
X273597618Y-61535009D02*
X273597618Y-62058819D01*
X274502380Y-61392152D02*
X274502380Y-62201676D01*
X274502380Y-62201676D02*
X274454761Y-62296914D01*
X274454761Y-62296914D02*
X274407142Y-62344533D01*
X274407142Y-62344533D02*
X274311904Y-62392152D01*
X274311904Y-62392152D02*
X274169047Y-62392152D01*
X274169047Y-62392152D02*
X274073809Y-62344533D01*
X274502380Y-62011200D02*
X274407142Y-62058819D01*
X274407142Y-62058819D02*
X274216666Y-62058819D01*
X274216666Y-62058819D02*
X274121428Y-62011200D01*
X274121428Y-62011200D02*
X274073809Y-61963580D01*
X274073809Y-61963580D02*
X274026190Y-61868342D01*
X274026190Y-61868342D02*
X274026190Y-61582628D01*
X274026190Y-61582628D02*
X274073809Y-61487390D01*
X274073809Y-61487390D02*
X274121428Y-61439771D01*
X274121428Y-61439771D02*
X274216666Y-61392152D01*
X274216666Y-61392152D02*
X274407142Y-61392152D01*
X274407142Y-61392152D02*
X274502380Y-61439771D01*
X274978571Y-62058819D02*
X274978571Y-61058819D01*
X274978571Y-61535009D02*
X275549999Y-61535009D01*
X275549999Y-62058819D02*
X275549999Y-61058819D01*
X276169047Y-62058819D02*
X276073809Y-62011200D01*
X276073809Y-62011200D02*
X276026190Y-61963580D01*
X276026190Y-61963580D02*
X275978571Y-61868342D01*
X275978571Y-61868342D02*
X275978571Y-61582628D01*
X275978571Y-61582628D02*
X276026190Y-61487390D01*
X276026190Y-61487390D02*
X276073809Y-61439771D01*
X276073809Y-61439771D02*
X276169047Y-61392152D01*
X276169047Y-61392152D02*
X276311904Y-61392152D01*
X276311904Y-61392152D02*
X276407142Y-61439771D01*
X276407142Y-61439771D02*
X276454761Y-61487390D01*
X276454761Y-61487390D02*
X276502380Y-61582628D01*
X276502380Y-61582628D02*
X276502380Y-61868342D01*
X276502380Y-61868342D02*
X276454761Y-61963580D01*
X276454761Y-61963580D02*
X276407142Y-62011200D01*
X276407142Y-62011200D02*
X276311904Y-62058819D01*
X276311904Y-62058819D02*
X276169047Y-62058819D01*
X277073809Y-62058819D02*
X276978571Y-62011200D01*
X276978571Y-62011200D02*
X276930952Y-61915961D01*
X276930952Y-61915961D02*
X276930952Y-61058819D01*
X277835714Y-62011200D02*
X277740476Y-62058819D01*
X277740476Y-62058819D02*
X277550000Y-62058819D01*
X277550000Y-62058819D02*
X277454762Y-62011200D01*
X277454762Y-62011200D02*
X277407143Y-61915961D01*
X277407143Y-61915961D02*
X277407143Y-61535009D01*
X277407143Y-61535009D02*
X277454762Y-61439771D01*
X277454762Y-61439771D02*
X277550000Y-61392152D01*
X277550000Y-61392152D02*
X277740476Y-61392152D01*
X277740476Y-61392152D02*
X277835714Y-61439771D01*
X277835714Y-61439771D02*
X277883333Y-61535009D01*
X277883333Y-61535009D02*
X277883333Y-61630247D01*
X277883333Y-61630247D02*
X277407143Y-61725485D01*
X272588095Y-57858819D02*
X272588095Y-56858819D01*
X272588095Y-57335009D02*
X273159523Y-57335009D01*
X273159523Y-57858819D02*
X273159523Y-56858819D01*
X273540476Y-56858819D02*
X274159523Y-56858819D01*
X274159523Y-56858819D02*
X273826190Y-57239771D01*
X273826190Y-57239771D02*
X273969047Y-57239771D01*
X273969047Y-57239771D02*
X274064285Y-57287390D01*
X274064285Y-57287390D02*
X274111904Y-57335009D01*
X274111904Y-57335009D02*
X274159523Y-57430247D01*
X274159523Y-57430247D02*
X274159523Y-57668342D01*
X274159523Y-57668342D02*
X274111904Y-57763580D01*
X274111904Y-57763580D02*
X274064285Y-57811200D01*
X274064285Y-57811200D02*
X273969047Y-57858819D01*
X273969047Y-57858819D02*
X273683333Y-57858819D01*
X273683333Y-57858819D02*
X273588095Y-57811200D01*
X273588095Y-57811200D02*
X273540476Y-57763580D01*
X117642285Y-62058819D02*
X117642285Y-61058819D01*
X117642285Y-61058819D02*
X117975618Y-61773104D01*
X117975618Y-61773104D02*
X118308951Y-61058819D01*
X118308951Y-61058819D02*
X118308951Y-62058819D01*
X118927999Y-62058819D02*
X118832761Y-62011200D01*
X118832761Y-62011200D02*
X118785142Y-61963580D01*
X118785142Y-61963580D02*
X118737523Y-61868342D01*
X118737523Y-61868342D02*
X118737523Y-61582628D01*
X118737523Y-61582628D02*
X118785142Y-61487390D01*
X118785142Y-61487390D02*
X118832761Y-61439771D01*
X118832761Y-61439771D02*
X118927999Y-61392152D01*
X118927999Y-61392152D02*
X119070856Y-61392152D01*
X119070856Y-61392152D02*
X119166094Y-61439771D01*
X119166094Y-61439771D02*
X119213713Y-61487390D01*
X119213713Y-61487390D02*
X119261332Y-61582628D01*
X119261332Y-61582628D02*
X119261332Y-61868342D01*
X119261332Y-61868342D02*
X119213713Y-61963580D01*
X119213713Y-61963580D02*
X119166094Y-62011200D01*
X119166094Y-62011200D02*
X119070856Y-62058819D01*
X119070856Y-62058819D02*
X118927999Y-62058819D01*
X120118475Y-61392152D02*
X120118475Y-62058819D01*
X119689904Y-61392152D02*
X119689904Y-61915961D01*
X119689904Y-61915961D02*
X119737523Y-62011200D01*
X119737523Y-62011200D02*
X119832761Y-62058819D01*
X119832761Y-62058819D02*
X119975618Y-62058819D01*
X119975618Y-62058819D02*
X120070856Y-62011200D01*
X120070856Y-62011200D02*
X120118475Y-61963580D01*
X120594666Y-61392152D02*
X120594666Y-62058819D01*
X120594666Y-61487390D02*
X120642285Y-61439771D01*
X120642285Y-61439771D02*
X120737523Y-61392152D01*
X120737523Y-61392152D02*
X120880380Y-61392152D01*
X120880380Y-61392152D02*
X120975618Y-61439771D01*
X120975618Y-61439771D02*
X121023237Y-61535009D01*
X121023237Y-61535009D02*
X121023237Y-62058819D01*
X121356571Y-61392152D02*
X121737523Y-61392152D01*
X121499428Y-61058819D02*
X121499428Y-61915961D01*
X121499428Y-61915961D02*
X121547047Y-62011200D01*
X121547047Y-62011200D02*
X121642285Y-62058819D01*
X121642285Y-62058819D02*
X121737523Y-62058819D01*
X122070857Y-62058819D02*
X122070857Y-61392152D01*
X122070857Y-61058819D02*
X122023238Y-61106438D01*
X122023238Y-61106438D02*
X122070857Y-61154057D01*
X122070857Y-61154057D02*
X122118476Y-61106438D01*
X122118476Y-61106438D02*
X122070857Y-61058819D01*
X122070857Y-61058819D02*
X122070857Y-61154057D01*
X122547047Y-61392152D02*
X122547047Y-62058819D01*
X122547047Y-61487390D02*
X122594666Y-61439771D01*
X122594666Y-61439771D02*
X122689904Y-61392152D01*
X122689904Y-61392152D02*
X122832761Y-61392152D01*
X122832761Y-61392152D02*
X122927999Y-61439771D01*
X122927999Y-61439771D02*
X122975618Y-61535009D01*
X122975618Y-61535009D02*
X122975618Y-62058819D01*
X123880380Y-61392152D02*
X123880380Y-62201676D01*
X123880380Y-62201676D02*
X123832761Y-62296914D01*
X123832761Y-62296914D02*
X123785142Y-62344533D01*
X123785142Y-62344533D02*
X123689904Y-62392152D01*
X123689904Y-62392152D02*
X123547047Y-62392152D01*
X123547047Y-62392152D02*
X123451809Y-62344533D01*
X123880380Y-62011200D02*
X123785142Y-62058819D01*
X123785142Y-62058819D02*
X123594666Y-62058819D01*
X123594666Y-62058819D02*
X123499428Y-62011200D01*
X123499428Y-62011200D02*
X123451809Y-61963580D01*
X123451809Y-61963580D02*
X123404190Y-61868342D01*
X123404190Y-61868342D02*
X123404190Y-61582628D01*
X123404190Y-61582628D02*
X123451809Y-61487390D01*
X123451809Y-61487390D02*
X123499428Y-61439771D01*
X123499428Y-61439771D02*
X123594666Y-61392152D01*
X123594666Y-61392152D02*
X123785142Y-61392152D01*
X123785142Y-61392152D02*
X123880380Y-61439771D01*
X124356571Y-62058819D02*
X124356571Y-61058819D01*
X124356571Y-61535009D02*
X124927999Y-61535009D01*
X124927999Y-62058819D02*
X124927999Y-61058819D01*
X125547047Y-62058819D02*
X125451809Y-62011200D01*
X125451809Y-62011200D02*
X125404190Y-61963580D01*
X125404190Y-61963580D02*
X125356571Y-61868342D01*
X125356571Y-61868342D02*
X125356571Y-61582628D01*
X125356571Y-61582628D02*
X125404190Y-61487390D01*
X125404190Y-61487390D02*
X125451809Y-61439771D01*
X125451809Y-61439771D02*
X125547047Y-61392152D01*
X125547047Y-61392152D02*
X125689904Y-61392152D01*
X125689904Y-61392152D02*
X125785142Y-61439771D01*
X125785142Y-61439771D02*
X125832761Y-61487390D01*
X125832761Y-61487390D02*
X125880380Y-61582628D01*
X125880380Y-61582628D02*
X125880380Y-61868342D01*
X125880380Y-61868342D02*
X125832761Y-61963580D01*
X125832761Y-61963580D02*
X125785142Y-62011200D01*
X125785142Y-62011200D02*
X125689904Y-62058819D01*
X125689904Y-62058819D02*
X125547047Y-62058819D01*
X126451809Y-62058819D02*
X126356571Y-62011200D01*
X126356571Y-62011200D02*
X126308952Y-61915961D01*
X126308952Y-61915961D02*
X126308952Y-61058819D01*
X127213714Y-62011200D02*
X127118476Y-62058819D01*
X127118476Y-62058819D02*
X126928000Y-62058819D01*
X126928000Y-62058819D02*
X126832762Y-62011200D01*
X126832762Y-62011200D02*
X126785143Y-61915961D01*
X126785143Y-61915961D02*
X126785143Y-61535009D01*
X126785143Y-61535009D02*
X126832762Y-61439771D01*
X126832762Y-61439771D02*
X126928000Y-61392152D01*
X126928000Y-61392152D02*
X127118476Y-61392152D01*
X127118476Y-61392152D02*
X127213714Y-61439771D01*
X127213714Y-61439771D02*
X127261333Y-61535009D01*
X127261333Y-61535009D02*
X127261333Y-61630247D01*
X127261333Y-61630247D02*
X126785143Y-61725485D01*
X121966095Y-57858819D02*
X121966095Y-56858819D01*
X121966095Y-57335009D02*
X122537523Y-57335009D01*
X122537523Y-57858819D02*
X122537523Y-56858819D01*
X123442285Y-56858819D02*
X123251809Y-56858819D01*
X123251809Y-56858819D02*
X123156571Y-56906438D01*
X123156571Y-56906438D02*
X123108952Y-56954057D01*
X123108952Y-56954057D02*
X123013714Y-57096914D01*
X123013714Y-57096914D02*
X122966095Y-57287390D01*
X122966095Y-57287390D02*
X122966095Y-57668342D01*
X122966095Y-57668342D02*
X123013714Y-57763580D01*
X123013714Y-57763580D02*
X123061333Y-57811200D01*
X123061333Y-57811200D02*
X123156571Y-57858819D01*
X123156571Y-57858819D02*
X123347047Y-57858819D01*
X123347047Y-57858819D02*
X123442285Y-57811200D01*
X123442285Y-57811200D02*
X123489904Y-57763580D01*
X123489904Y-57763580D02*
X123537523Y-57668342D01*
X123537523Y-57668342D02*
X123537523Y-57430247D01*
X123537523Y-57430247D02*
X123489904Y-57335009D01*
X123489904Y-57335009D02*
X123442285Y-57287390D01*
X123442285Y-57287390D02*
X123347047Y-57239771D01*
X123347047Y-57239771D02*
X123156571Y-57239771D01*
X123156571Y-57239771D02*
X123061333Y-57287390D01*
X123061333Y-57287390D02*
X123013714Y-57335009D01*
X123013714Y-57335009D02*
X122966095Y-57430247D01*
M02*
