M48
; DRILL file {KiCad (5.1.4)-1} date 04/12/2019 21:36:35
; FORMAT={-:-/ absolute / inch / decimal}
; #@! TF.CreationDate,2019-12-04T21:36:35+01:00
; #@! TF.GenerationSoftware,Kicad,Pcbnew,(5.1.4)-1
; #@! TF.FileFunction,Plated,1,2,PTH
FMAT,2
INCH
T1C0.0157
T2C0.0315
T3C0.0354
T4C0.0394
T5C0.0472
T6C0.0512
T7C0.0560
T8C0.0591
%
G90
G05
T1
X1.3Y-3.12
X2.0Y-2.42
X2.895Y-3.16
X3.455Y-2.68
X4.88Y-3.18
X5.1717Y-2.6007
X5.365Y-5.015
X5.95Y-4.83
X6.06Y-4.14
X6.1594Y-2.6716
X7.0Y-4.4
X7.9654Y-3.8209
X8.05Y-4.65
X8.457Y-2.9585
T2
X6.42Y-4.3
X6.82Y-4.3
X1.155Y-3.4
X1.155Y-3.8
X3.5Y-3.9
X3.5Y-4.0969
X7.22Y-4.24
X7.22Y-4.64
X8.79Y-2.5166
X8.79Y-2.615
X1.76Y-2.25
X1.76Y-2.65
X7.34Y-3.035
X7.34Y-3.435
X3.76Y-3.81
X4.16Y-3.81
X4.105Y-2.93
X4.105Y-3.33
X8.58Y-4.12
X8.58Y-4.52
X5.825Y-3.095
X5.825Y-3.495
X3.3Y-2.25
X3.3Y-2.65
X4.72Y-2.5
X5.12Y-2.5
X7.58Y-2.52
X7.98Y-2.52
X8.33Y-4.12
X8.33Y-4.52
X2.205Y-3.53
X2.4019Y-3.53
X1.5Y-2.25
X1.5Y-2.65
X2.3Y-3.8
X2.3Y-4.2
X7.48Y-3.66
X7.48Y-4.06
X1.97Y-4.325
X1.97Y-4.725
X3.81Y-3.515
X4.21Y-3.515
X2.9Y-2.25
X2.9Y-2.65
X2.55Y-3.21
X2.55Y-3.4069
X7.22Y-3.66
X7.22Y-4.06
X4.735Y-4.61
X5.135Y-4.61
X9.3012Y-3.8756
X9.3012Y-4.2756
X4.76Y-3.83
X5.16Y-3.83
X6.965Y-2.585
X7.365Y-2.585
X6.42Y-4.05
X6.82Y-4.05
X1.585Y-3.8
X1.585Y-4.2
X3.7Y-2.25
X3.7Y-2.65
X3.2Y-3.9031
X3.2Y-4.1
X2.9Y-3.8
X2.9Y-4.2
X7.48Y-4.24
X7.48Y-4.64
X2.75Y-3.0
X2.75Y-3.4
X7.52Y-3.035
X7.52Y-3.435
X4.375Y-3.09
X4.375Y-3.49
X5.605Y-3.095
X5.605Y-3.495
X1.24Y-2.555
X1.24Y-2.7519
X5.45Y-4.05
X5.45Y-4.45
T3
X9.1448Y-2.9643
X9.5448Y-2.9643
X9.1448Y-3.5143
X9.5448Y-3.5143
X9.1448Y-2.6893
X9.5448Y-2.6893
X9.1448Y-3.2393
X9.5448Y-3.2393
T4
X5.54Y-2.875
X5.8353Y-2.875
X2.345Y-3.31
X3.5Y-2.25
X5.84Y-2.305
X3.29Y-4.5
X5.85Y-4.105
X5.85Y-4.4003
X5.5Y-3.78
X5.7953Y-3.78
X2.0Y-3.86
X2.0Y-4.1553
X6.46Y-4.57
X6.7553Y-4.57
X5.64Y-2.305
X9.06Y-4.185
X5.05Y-4.1047
X5.05Y-4.4
X5.3Y-2.3
X4.65Y-4.1047
X4.65Y-4.4
X7.91Y-4.34
X7.91Y-4.6353
X2.6Y-3.74
X2.6Y-4.0353
X7.76Y-4.11
X8.0553Y-4.11
X3.83Y-2.835
X2.2797Y-3.02
X2.575Y-3.02
X10.94Y-4.7
T5
X10.3962Y-3.5806
X10.6915Y-3.5806
X9.98Y-3.355
X9.98Y-3.955
X10.195Y-2.515
X10.4903Y-2.515
X10.3969Y-4.355
X10.6921Y-4.355
X9.68Y-3.72
X9.68Y-4.32
X10.02Y-3.055
X10.82Y-3.055
X2.2Y-2.5
X2.4953Y-2.5
X4.1Y-2.5
X4.3953Y-2.5
X8.09Y-2.3
X8.69Y-2.3
T6
X7.9543Y-5.0091
X8.1512Y-5.0091
X8.348Y-5.0091
X10.1575Y-5.0079
X10.3543Y-5.0079
X10.5512Y-5.0079
X3.5449Y-5.0091
X3.7417Y-5.0091
X3.9386Y-5.0091
X1.0Y-2.9581
X1.0Y-3.155
X4.6472Y-5.0091
X4.8441Y-5.0091
X5.0409Y-5.0091
X7.04Y-2.31
X7.2369Y-2.31
X9.0551Y-5.0079
X9.252Y-5.0079
X9.4488Y-5.0079
X6.852Y-5.01
X7.0488Y-5.01
X7.2457Y-5.01
X5.75Y-5.0091
X5.9469Y-5.0091
X6.1437Y-5.0091
X9.0662Y-2.3206
X9.2631Y-2.3206
X9.5712Y-2.3206
X9.7681Y-2.3206
T7
X6.28Y-3.3278
X6.2849Y-3.1061
X6.395Y-3.49
X6.403Y-2.9485
X6.6Y-2.8894
X6.805Y-3.495
X6.807Y-2.9585
X6.9151Y-3.1111
X6.925Y-3.3228
X3.035Y-3.3278
X3.0399Y-3.1061
X3.15Y-3.49
X3.158Y-2.9485
X3.355Y-2.8894
X3.56Y-3.495
X3.562Y-2.9585
X3.6701Y-3.1111
X3.68Y-3.3228
X4.645Y-3.3278
X4.6499Y-3.1061
X4.76Y-3.49
X4.768Y-2.9485
X4.965Y-2.8894
X5.17Y-3.495
X5.172Y-2.9585
X5.2801Y-3.1111
X5.29Y-3.3228
X1.425Y-3.3278
X1.4299Y-3.1061
X1.54Y-3.49
X1.548Y-2.9485
X1.745Y-2.8894
X1.95Y-3.495
X1.952Y-2.9585
X2.0601Y-3.1111
X2.07Y-3.3228
X7.93Y-3.3278
X7.9349Y-3.1061
X8.045Y-3.49
X8.053Y-2.9485
X8.25Y-2.8894
X8.455Y-3.495
X8.457Y-2.9585
X8.5651Y-3.1111
X8.575Y-3.3228
T8
X1.0606Y-4.4657
X1.0606Y-4.7138
X1.0606Y-4.9618
X1.6984Y-4.4657
X1.6984Y-4.7138
X1.6984Y-4.9618
X2.2417Y-4.4657
X2.2417Y-4.7138
X2.2417Y-4.9618
X2.8795Y-4.4657
X2.8795Y-4.7138
X2.8795Y-4.9618
T0
M30
