G04 #@! TF.GenerationSoftware,KiCad,Pcbnew,(5.1.4)-1*
G04 #@! TF.CreationDate,2019-12-06T23:42:24+01:00*
G04 #@! TF.ProjectId,JCM800,4a434d38-3030-42e6-9b69-6361645f7063,rev?*
G04 #@! TF.SameCoordinates,Original*
G04 #@! TF.FileFunction,Copper,L1,Top*
G04 #@! TF.FilePolarity,Positive*
%FSLAX46Y46*%
G04 Gerber Fmt 4.6, Leading zero omitted, Abs format (unit mm)*
G04 Created by KiCad (PCBNEW (5.1.4)-1) date 2019-12-06 23:42:24*
%MOMM*%
%LPD*%
G04 APERTURE LIST*
%ADD10C,2.540000*%
%ADD11C,1.600000*%
%ADD12O,1.600000X1.600000*%
%ADD13C,2.400000*%
%ADD14O,2.400000X2.400000*%
%ADD15R,2.400000X2.400000*%
%ADD16C,3.000000*%
%ADD17C,2.000000*%
%ADD18R,2.600000X2.600000*%
%ADD19C,2.600000*%
%ADD20R,1.700000X1.700000*%
%ADD21O,1.800000X1.800000*%
%ADD22R,1.800000X1.800000*%
%ADD23C,2.340000*%
%ADD24R,2.000000X2.000000*%
%ADD25C,0.800000*%
%ADD26C,0.500000*%
%ADD27C,0.750000*%
%ADD28C,1.000000*%
G04 APERTURE END LIST*
D10*
X201295000Y-88646000D03*
X211709000Y-88773000D03*
X198375000Y-84526000D03*
X198498000Y-78895000D03*
X201498000Y-74891000D03*
X206502000Y-73391000D03*
X211760000Y-75145000D03*
X214756000Y-84399000D03*
X214506000Y-79022000D03*
D11*
X90932000Y-67310000D03*
D12*
X90932000Y-57150000D03*
D13*
X245872000Y-109220000D03*
D14*
X245872000Y-93980000D03*
D15*
X101092000Y-63500000D03*
D13*
X108592000Y-63500000D03*
D16*
X40092000Y-113430000D03*
X40092000Y-119730000D03*
X40092000Y-126030000D03*
X23892000Y-113430000D03*
X23892000Y-119730000D03*
X23892000Y-126030000D03*
X70092000Y-113430000D03*
X70092000Y-119730000D03*
X70092000Y-126030000D03*
X53892000Y-113430000D03*
X53892000Y-119730000D03*
X53892000Y-126030000D03*
D11*
X61722000Y-81534000D03*
X61722000Y-86534000D03*
X85852000Y-99060000D03*
X85852000Y-104060000D03*
D17*
X125222000Y-111760000D03*
X125222000Y-104260000D03*
X145542000Y-104267000D03*
X145542000Y-111767000D03*
X62357000Y-76708000D03*
X54857000Y-76708000D03*
X62992000Y-94996000D03*
X62992000Y-102496000D03*
X47752000Y-98044000D03*
X47752000Y-105544000D03*
X115062000Y-111760000D03*
X115062000Y-104260000D03*
D18*
X227234000Y-58436000D03*
D19*
X232234000Y-58436000D03*
D15*
X255270000Y-109220000D03*
D13*
X262770000Y-109220000D03*
D15*
X255016000Y-62992000D03*
D13*
X262516000Y-62992000D03*
D15*
X52832000Y-63500000D03*
D13*
X60332000Y-63500000D03*
D15*
X263017000Y-90297000D03*
D13*
X270517000Y-90297000D03*
D20*
X219837000Y-68834000D03*
D11*
X57959000Y-89662000D03*
X52959000Y-89662000D03*
X78232000Y-99140000D03*
X78232000Y-104140000D03*
D21*
X240405999Y-89772000D03*
D22*
X230245999Y-89772000D03*
X240405999Y-82787000D03*
D21*
X230245999Y-82787000D03*
X240405999Y-75802000D03*
D22*
X230245999Y-75802000D03*
X240405999Y-68817000D03*
D21*
X230245999Y-68817000D03*
D11*
X46990000Y-120015000D03*
D12*
X46990000Y-109855000D03*
D11*
X37211000Y-96520000D03*
D12*
X37211000Y-106680000D03*
D11*
X55372000Y-106680000D03*
D12*
X55372000Y-96520000D03*
D11*
X27686000Y-96647000D03*
D12*
X27686000Y-86487000D03*
X70612000Y-106680000D03*
D11*
X70612000Y-96520000D03*
X35052000Y-57150000D03*
D12*
X35052000Y-67310000D03*
D11*
X41656000Y-67310000D03*
D12*
X41656000Y-57150000D03*
X66802000Y-86360000D03*
D11*
X66802000Y-76200000D03*
D12*
X70612000Y-67310000D03*
D11*
X70612000Y-57150000D03*
X101219000Y-74422000D03*
D12*
X101219000Y-84582000D03*
D11*
X108077000Y-88646000D03*
D12*
X108077000Y-78486000D03*
D11*
X234696000Y-108601000D03*
D12*
X234696000Y-98441000D03*
X80772000Y-67310000D03*
D11*
X80772000Y-57150000D03*
D12*
X135382000Y-102870000D03*
D11*
X135382000Y-113030000D03*
X179832000Y-54610000D03*
D12*
X179832000Y-64770000D03*
D11*
X193040000Y-54610000D03*
D12*
X193040000Y-64770000D03*
D18*
X240061000Y-58436000D03*
D19*
X245061000Y-58436000D03*
X169338000Y-58420000D03*
D18*
X164338000Y-58420000D03*
D20*
X226187000Y-68834000D03*
X219837000Y-82804000D03*
X226187000Y-82804000D03*
X142367000Y-118110000D03*
D12*
X103886000Y-89281000D03*
D11*
X93726000Y-89281000D03*
D12*
X102616000Y-96774000D03*
D11*
X92456000Y-96774000D03*
D23*
X170992000Y-127254000D03*
X175992000Y-127254000D03*
X180992000Y-127254000D03*
X86992000Y-127230000D03*
X91992000Y-127230000D03*
X96992000Y-127230000D03*
X208992000Y-127230000D03*
X203992000Y-127230000D03*
X198992000Y-127230000D03*
X143002000Y-127230000D03*
X148002000Y-127230000D03*
X153002000Y-127230000D03*
X124992000Y-127230000D03*
X119992000Y-127230000D03*
X114992000Y-127230000D03*
D17*
X144152000Y-96012000D03*
X136652000Y-96012000D03*
X137160000Y-73025000D03*
X144660000Y-73025000D03*
X197866000Y-117736000D03*
X197866000Y-110236000D03*
X168536000Y-116078000D03*
X161036000Y-116078000D03*
X201556000Y-104394000D03*
X194056000Y-104394000D03*
D23*
X254952000Y-127200000D03*
X259952000Y-127200000D03*
X264952000Y-127200000D03*
X236952000Y-127200000D03*
X231952000Y-127200000D03*
X226952000Y-127200000D03*
D11*
X127381000Y-117094000D03*
D12*
X117221000Y-117094000D03*
X143256000Y-88773000D03*
D11*
X143256000Y-78613000D03*
X138303000Y-78613000D03*
D12*
X138303000Y-88773000D03*
X128016000Y-97282000D03*
D11*
X117856000Y-97282000D03*
X127000000Y-63500000D03*
D12*
X116840000Y-63500000D03*
X170180000Y-109220000D03*
D11*
X160020000Y-109220000D03*
D12*
X160020000Y-102870000D03*
D11*
X170180000Y-102870000D03*
X208534000Y-114808000D03*
D12*
X208534000Y-104648000D03*
D11*
X180340000Y-118364000D03*
D12*
X180340000Y-108204000D03*
X186944000Y-108204000D03*
D11*
X186944000Y-118364000D03*
D12*
X186944000Y-102616000D03*
D11*
X186944000Y-92456000D03*
D12*
X183388000Y-77089000D03*
D11*
X183388000Y-87249000D03*
X187960000Y-77089000D03*
D12*
X187960000Y-87249000D03*
X180340000Y-102616000D03*
D11*
X180340000Y-92456000D03*
X214884000Y-114808000D03*
D12*
X214884000Y-104648000D03*
D10*
X49279000Y-79022000D03*
X49529000Y-84399000D03*
X46533000Y-75145000D03*
X41275000Y-73391000D03*
X36271000Y-74891000D03*
X33271000Y-78895000D03*
X33148000Y-84526000D03*
X46482000Y-88773000D03*
X36068000Y-88646000D03*
X90173000Y-79022000D03*
X90423000Y-84399000D03*
X87427000Y-75145000D03*
X82169000Y-73391000D03*
X77165000Y-74891000D03*
X74165000Y-78895000D03*
X74042000Y-84526000D03*
X87376000Y-88773000D03*
X76962000Y-88646000D03*
X131067000Y-79022000D03*
X131317000Y-84399000D03*
X128321000Y-75145000D03*
X123063000Y-73391000D03*
X118059000Y-74891000D03*
X115059000Y-78895000D03*
X114936000Y-84526000D03*
X128270000Y-88773000D03*
X117856000Y-88646000D03*
X159385000Y-88646000D03*
X169799000Y-88773000D03*
X156465000Y-84526000D03*
X156588000Y-78895000D03*
X159588000Y-74891000D03*
X164592000Y-73391000D03*
X169850000Y-75145000D03*
X172846000Y-84399000D03*
X172596000Y-79022000D03*
D14*
X258826000Y-76708000D03*
D13*
X274066000Y-76708000D03*
D11*
X28448000Y-64897000D03*
X28448000Y-69897000D03*
D18*
X22352000Y-80137000D03*
D19*
X22352000Y-75137000D03*
D14*
X250444000Y-88138000D03*
D13*
X250444000Y-80518000D03*
X201168000Y-58420000D03*
D14*
X208788000Y-58420000D03*
D18*
X132414000Y-58420000D03*
D19*
X137414000Y-58420000D03*
X153082000Y-58420000D03*
D18*
X148082000Y-58420000D03*
D24*
X215392000Y-58928000D03*
D17*
X218892000Y-58928000D03*
D20*
X188214000Y-62992000D03*
D18*
X274066000Y-65024000D03*
D19*
X274066000Y-70024000D03*
D13*
X193040000Y-70612000D03*
D14*
X177800000Y-70612000D03*
D18*
X274066000Y-110236000D03*
D19*
X274066000Y-115236000D03*
D25*
X148082000Y-123317000D03*
X133223000Y-127381000D03*
X84709000Y-68072000D03*
X47752000Y-61468000D03*
X158519727Y-67311000D03*
X128313991Y-66059001D03*
X165862000Y-66083991D03*
X70485000Y-80264000D03*
X150876000Y-105156000D03*
X199273943Y-97051943D03*
X120904000Y-80772000D03*
X174262000Y-111040000D03*
X201422000Y-118110000D03*
X211760000Y-75145000D03*
X194056000Y-84836000D03*
X29210000Y-90805000D03*
D26*
X171168000Y-127230000D02*
X171192000Y-127254000D01*
X153002000Y-127230000D02*
X171168000Y-127230000D01*
D27*
X124992000Y-111990000D02*
X125222000Y-111760000D01*
D26*
X173268000Y-124530000D02*
X175992000Y-127254000D01*
X114992000Y-125559000D02*
X114992000Y-127230000D01*
X116021000Y-124530000D02*
X114992000Y-125559000D01*
X125152000Y-113244213D02*
X125152000Y-124530000D01*
X125222000Y-113174213D02*
X125152000Y-113244213D01*
X125222000Y-111760000D02*
X125222000Y-113174213D01*
X116021000Y-124530000D02*
X125152000Y-124530000D01*
X125152000Y-124530000D02*
X173268000Y-124530000D01*
X50800000Y-109347000D02*
X47752000Y-105544000D01*
X53892000Y-113430000D02*
X50800000Y-109347000D01*
X47752000Y-98044000D02*
X47751999Y-90042999D01*
X47751999Y-90042999D02*
X46482000Y-88773000D01*
X48132998Y-89662000D02*
X47751999Y-90042999D01*
X52959000Y-89662000D02*
X48132998Y-89662000D01*
X57912000Y-96520000D02*
X57912000Y-88773000D01*
X57912000Y-88773000D02*
X56388000Y-87249000D01*
X52606651Y-79022651D02*
X49279000Y-79022000D01*
X54102000Y-80010000D02*
X52606651Y-79022651D01*
X54102000Y-85852000D02*
X54102000Y-80010000D01*
X56388000Y-87249000D02*
X55499000Y-87249000D01*
X55499000Y-87249000D02*
X54102000Y-85852000D01*
X61468000Y-96520000D02*
X62992000Y-94996000D01*
X55372000Y-96520000D02*
X61468000Y-96520000D01*
X75692000Y-106680000D02*
X78232000Y-104140000D01*
X70612000Y-106680000D02*
X75692000Y-106680000D01*
X70612000Y-106680000D02*
X70302000Y-113430000D01*
X75612000Y-96520000D02*
X70612000Y-96520000D01*
X78232000Y-99140000D02*
X75612000Y-96520000D01*
X78312000Y-99060000D02*
X78232000Y-99140000D01*
X85852000Y-99060000D02*
X78312000Y-99060000D01*
X90424000Y-99060000D02*
X85852000Y-99060000D01*
X97234000Y-127230000D02*
X97234000Y-106124000D01*
X97234000Y-106124000D02*
X90424000Y-99060000D01*
X92122000Y-107649000D02*
X92122000Y-127230000D01*
X85852000Y-104013000D02*
X88519000Y-104013000D01*
X88519000Y-104046000D02*
X92122000Y-107649000D01*
X88519000Y-104013000D02*
X88519000Y-104046000D01*
X30861000Y-81305000D02*
X33271000Y-78895000D01*
X30861000Y-97282000D02*
X30861000Y-81305000D01*
X35179000Y-101600000D02*
X30861000Y-97282000D01*
X58674000Y-101600000D02*
X35179000Y-101600000D01*
X85852000Y-102928630D02*
X84523370Y-101600000D01*
X85852000Y-104060000D02*
X85852000Y-102928630D01*
X84523370Y-101600000D02*
X67437000Y-101600000D01*
X67437000Y-101600000D02*
X65913000Y-100076000D01*
X65913000Y-100076000D02*
X60198000Y-100076000D01*
X60198000Y-100076000D02*
X58674000Y-101600000D01*
X61722000Y-78105000D02*
X61722000Y-81280000D01*
X61722000Y-78105000D02*
X63119000Y-76708000D01*
X39497000Y-67310000D02*
X41402000Y-67310000D01*
X36195000Y-74892000D02*
X36195000Y-70612000D01*
X36195000Y-70612000D02*
X39497000Y-67310000D01*
X42533370Y-67310000D02*
X41402000Y-67310000D01*
X46873213Y-67310000D02*
X42533370Y-67310000D01*
X54857000Y-75293787D02*
X46873213Y-67310000D01*
X54857000Y-76708000D02*
X54857000Y-75293787D01*
X66802000Y-69850000D02*
X69342000Y-67310000D01*
X66802000Y-76200000D02*
X66802000Y-69850000D01*
X69342000Y-67310000D02*
X70612000Y-67310000D01*
X66802000Y-81200000D02*
X66802000Y-76200000D01*
X66508000Y-81494000D02*
X66802000Y-81200000D01*
X61722000Y-86534000D02*
X66508000Y-81494000D01*
X143764000Y-104902000D02*
X145542000Y-104267000D01*
X135382000Y-113030000D02*
X143764000Y-104902000D01*
X126636213Y-104902000D02*
X130175000Y-108440787D01*
X125222000Y-104260000D02*
X126636213Y-104902000D01*
X135382000Y-113030000D02*
X130175000Y-108458000D01*
X148082000Y-123317000D02*
X148082000Y-114300000D01*
X148082000Y-114300000D02*
X146548999Y-112766999D01*
X146548999Y-112766999D02*
X146541999Y-112766999D01*
X146541999Y-112766999D02*
X145542000Y-111767000D01*
X102616000Y-97028000D02*
X102616000Y-96774000D01*
X104001370Y-98413370D02*
X102616000Y-97028000D01*
X104013000Y-98413370D02*
X104001370Y-98413370D01*
X115062000Y-104260000D02*
X109859630Y-104260000D01*
X109859630Y-104260000D02*
X104013000Y-98413370D01*
X115062000Y-104260000D02*
X119768000Y-104260000D01*
X119768000Y-104260000D02*
X122936000Y-101092000D01*
X122936000Y-101092000D02*
X127727559Y-101092000D01*
X127727559Y-101092000D02*
X129286000Y-102650441D01*
X129794000Y-102870000D02*
X135382000Y-102870000D01*
X129286000Y-102650441D02*
X129297033Y-102650441D01*
X129516592Y-102870000D02*
X129794000Y-102870000D01*
X129297033Y-102650441D02*
X129516592Y-102870000D01*
D28*
X240405999Y-89772000D02*
X240405999Y-82787000D01*
X245061000Y-60782477D02*
X245061000Y-58436000D01*
X245061000Y-80031999D02*
X245061000Y-60782477D01*
X240405999Y-82787000D02*
X242305999Y-82787000D01*
X242305999Y-82787000D02*
X245061000Y-80031999D01*
X240405999Y-68817000D02*
X240405999Y-75802000D01*
X240061000Y-58944000D02*
X240405999Y-68817000D01*
D26*
X135059010Y-129354990D02*
X133223000Y-127381000D01*
X206814010Y-129354990D02*
X135059010Y-129354990D01*
X206883000Y-129286000D02*
X206814010Y-129354990D01*
X208992000Y-127230000D02*
X206936000Y-129286000D01*
X206936000Y-129286000D02*
X206883000Y-129286000D01*
X37648000Y-84399000D02*
X49529000Y-84399000D01*
X33682698Y-87149698D02*
X37648000Y-84399000D01*
X32893000Y-87939396D02*
X33682698Y-87149698D01*
X37211000Y-96520000D02*
X32893000Y-92202000D01*
X32893000Y-92202000D02*
X32893000Y-87939396D01*
X101092000Y-84455000D02*
X101219000Y-84582000D01*
X100203000Y-84455000D02*
X101092000Y-84455000D01*
X90173000Y-79023000D02*
X94771000Y-79023000D01*
X94771000Y-79023000D02*
X100203000Y-84455000D01*
X88645999Y-90043999D02*
X87376000Y-88774000D01*
X91851990Y-93249990D02*
X88645999Y-90043999D01*
X103886000Y-89281000D02*
X98710990Y-93249990D01*
X98710990Y-93249990D02*
X91851990Y-93249990D01*
X106045000Y-89281000D02*
X108077000Y-88646000D01*
X103886000Y-89281000D02*
X106045000Y-89281000D01*
X138303000Y-85979000D02*
X138303000Y-88773000D01*
X132863051Y-79022000D02*
X132865400Y-79019651D01*
X131067000Y-79022000D02*
X132863051Y-79022000D01*
X132865400Y-79019651D02*
X134231022Y-79019651D01*
X134231022Y-79019651D02*
X136144000Y-80932629D01*
X136144000Y-80932629D02*
X136144000Y-83820000D01*
X136144000Y-83820000D02*
X138303000Y-85979000D01*
X40492000Y-113030000D02*
X40092000Y-113430000D01*
X40092000Y-113430000D02*
X40092000Y-110450000D01*
X40132000Y-109855000D02*
X40092000Y-109815000D01*
X46990000Y-109855000D02*
X40132000Y-109855000D01*
X40092000Y-110450000D02*
X40092000Y-109815000D01*
X40092000Y-109815000D02*
X37211000Y-106680000D01*
D27*
X109220000Y-58801000D02*
X96520000Y-58801000D01*
X96520000Y-58801000D02*
X96393000Y-58801000D01*
X96393000Y-58801000D02*
X91948000Y-63246000D01*
X91948000Y-63246000D02*
X89535000Y-63246000D01*
X89535000Y-63246000D02*
X84709000Y-68072000D01*
X123063000Y-71594949D02*
X121920000Y-70451949D01*
X123063000Y-73391000D02*
X123063000Y-71594949D01*
X121920000Y-70451949D02*
X121920000Y-62484000D01*
X118237000Y-58801000D02*
X109220000Y-58801000D01*
X121920000Y-62484000D02*
X118237000Y-58801000D01*
X47752000Y-57912000D02*
X47752000Y-61468000D01*
X51431990Y-54232010D02*
X47752000Y-57912000D01*
X94999010Y-54232010D02*
X51431990Y-54232010D01*
X96520000Y-58801000D02*
X96520000Y-55753000D01*
X96520000Y-55753000D02*
X94999010Y-54232010D01*
X169338000Y-56581523D02*
X169338000Y-58420000D01*
X158519727Y-67311000D02*
X158496000Y-67287273D01*
X158496000Y-67287273D02*
X158496000Y-57150000D01*
X158496000Y-57150000D02*
X161290000Y-54356000D01*
X161290000Y-54356000D02*
X167112477Y-54356000D01*
X167112477Y-54356000D02*
X169338000Y-56581523D01*
X172132000Y-61214000D02*
X169338000Y-58420000D01*
X181610000Y-61214000D02*
X172132000Y-61214000D01*
X191908630Y-65024000D02*
X190892630Y-66040000D01*
X186436000Y-66040000D02*
X181610000Y-61214000D01*
X190892630Y-66040000D02*
X186436000Y-66040000D01*
X191908630Y-65024000D02*
X193040000Y-65024000D01*
X128321000Y-75145000D02*
X128321000Y-66066010D01*
X128321000Y-66066010D02*
X128313991Y-66059001D01*
X164338000Y-64559991D02*
X165862000Y-66083991D01*
X164338000Y-58420000D02*
X164338000Y-64559991D01*
X169418000Y-64770000D02*
X179832000Y-64770000D01*
X165862000Y-66083991D02*
X168104009Y-66083991D01*
X168104009Y-66083991D02*
X169418000Y-64770000D01*
D26*
X115708630Y-63500000D02*
X116840000Y-63500000D01*
X115059000Y-64149630D02*
X115708630Y-63500000D01*
X115059000Y-78895000D02*
X115059000Y-64149630D01*
X116855051Y-78895000D02*
X115059000Y-78895000D01*
X128300602Y-78895000D02*
X116855051Y-78895000D01*
X137160000Y-73025000D02*
X134170602Y-73025000D01*
X134170602Y-73025000D02*
X128300602Y-78895000D01*
X70485000Y-73914000D02*
X77089000Y-67310000D01*
X77089000Y-67310000D02*
X79640630Y-67310000D01*
X79640630Y-67310000D02*
X80772000Y-67310000D01*
X70485000Y-80264000D02*
X70485000Y-73914000D01*
X90297000Y-94615000D02*
X92456000Y-96774000D01*
X84836000Y-94615000D02*
X90297000Y-94615000D01*
X82042000Y-91821000D02*
X84836000Y-94615000D01*
X82042000Y-86868000D02*
X82042000Y-91821000D01*
X74042000Y-84527000D02*
X79701000Y-84527000D01*
X79701000Y-84527000D02*
X82042000Y-86868000D01*
D28*
X255016000Y-75946000D02*
X255016000Y-62992000D01*
X250444000Y-80518000D02*
X255016000Y-75946000D01*
X256239944Y-75946000D02*
X255016000Y-75946000D01*
X255016000Y-60792000D02*
X255016000Y-62992000D01*
X249081010Y-54857010D02*
X255016000Y-60792000D01*
X199038907Y-54857010D02*
X249081010Y-54857010D01*
X195580000Y-70612000D02*
X197104000Y-69088000D01*
X197104000Y-69088000D02*
X197104000Y-56622800D01*
X197104000Y-56622800D02*
X198713208Y-55013592D01*
X198713208Y-55013592D02*
X198882325Y-55013592D01*
X193040000Y-70612000D02*
X195580000Y-70612000D01*
X198882325Y-55013592D02*
X199038907Y-54857010D01*
X257001944Y-76708000D02*
X258826000Y-76708000D01*
X256239944Y-75946000D02*
X257001944Y-76708000D01*
X232266000Y-75802000D02*
X230245999Y-75802000D01*
X244047944Y-94234000D02*
X243793944Y-94488000D01*
X243793944Y-94488000D02*
X237744000Y-94488000D01*
X237744000Y-94488000D02*
X234696000Y-91440000D01*
X234696000Y-78232000D02*
X232266000Y-75802000D01*
X232289999Y-89916000D02*
X234696000Y-89916000D01*
X232145999Y-89772000D02*
X232289999Y-89916000D01*
X230245999Y-89772000D02*
X232145999Y-89772000D01*
X234696000Y-91440000D02*
X234696000Y-89916000D01*
X234696000Y-89916000D02*
X234696000Y-78232000D01*
X250444000Y-88138000D02*
X256159000Y-88138000D01*
X258318000Y-90297000D02*
X263017000Y-90297000D01*
X256159000Y-88138000D02*
X258318000Y-90297000D01*
X263271000Y-90297000D02*
X263017000Y-90297000D01*
X266192000Y-67564000D02*
X266192000Y-87376000D01*
X274066000Y-65024000D02*
X268732000Y-65024000D01*
X268732000Y-65024000D02*
X266192000Y-67564000D01*
X263271000Y-90297000D02*
X266192000Y-87376000D01*
X244174944Y-93980000D02*
X245872000Y-93980000D01*
X243793944Y-94361000D02*
X244174944Y-93980000D01*
X243793944Y-94488000D02*
X243793944Y-94361000D01*
X250048550Y-88533450D02*
X250444000Y-88138000D01*
X245872000Y-93980000D02*
X250048550Y-89803450D01*
X250048550Y-89803450D02*
X250048550Y-88533450D01*
D26*
X37592000Y-63500000D02*
X36322000Y-62230000D01*
X53632000Y-63500000D02*
X37592000Y-63500000D01*
X56172000Y-60960000D02*
X53632000Y-63500000D01*
X56172000Y-60922000D02*
X56172000Y-60960000D01*
X90932000Y-58801000D02*
X89281000Y-60452000D01*
X90932000Y-57150000D02*
X90932000Y-58801000D01*
X89281000Y-60452000D02*
X65278000Y-60452000D01*
X65278000Y-60452000D02*
X63881000Y-59055000D01*
X63881000Y-59055000D02*
X58039000Y-59055000D01*
X58039000Y-59055000D02*
X56172000Y-60922000D01*
X41402000Y-57150000D02*
X41656000Y-57150000D01*
X36322000Y-62230000D02*
X41402000Y-57150000D01*
X34798000Y-62230000D02*
X36322000Y-62230000D01*
X29845000Y-67183000D02*
X34798000Y-62230000D01*
X27305000Y-67183000D02*
X29845000Y-67183000D01*
X25527000Y-68961000D02*
X27305000Y-67183000D01*
X25527000Y-84328000D02*
X25527000Y-68961000D01*
X27686000Y-86487000D02*
X25527000Y-84328000D01*
X78638000Y-70104000D02*
X87122000Y-70104000D01*
X90932000Y-67310000D02*
X96520000Y-63500000D01*
X77165000Y-71323000D02*
X78638000Y-70104000D01*
X77165000Y-74892000D02*
X77165000Y-71323000D01*
X87122000Y-70104000D02*
X90932000Y-67310000D01*
X96520000Y-63500000D02*
X101092000Y-63500000D01*
X108077000Y-78486000D02*
X108077000Y-72517000D01*
X101092000Y-65532000D02*
X101092000Y-63500000D01*
X108077000Y-72517000D02*
X101092000Y-65532000D01*
X108077000Y-83185000D02*
X108077000Y-78486000D01*
X110627001Y-96911001D02*
X110627001Y-85735001D01*
X112807990Y-99091990D02*
X110627001Y-96911001D01*
X128555990Y-99091990D02*
X112807990Y-99091990D01*
X129540000Y-100076000D02*
X128555990Y-99091990D01*
X191516000Y-113284000D02*
X190500000Y-112268000D01*
X157734000Y-112268000D02*
X154432000Y-108966000D01*
X201676000Y-110744000D02*
X199136000Y-113284000D01*
X231060000Y-110744000D02*
X201676000Y-110744000D01*
X233203000Y-108601000D02*
X231060000Y-110744000D01*
X154432000Y-104648000D02*
X151384000Y-101600000D01*
X110627001Y-85735001D02*
X108077000Y-83185000D01*
X148844000Y-101600000D02*
X147320000Y-100076000D01*
X234696000Y-108601000D02*
X233203000Y-108601000D01*
X147320000Y-100076000D02*
X129540000Y-100076000D01*
X190500000Y-112268000D02*
X175902001Y-112268000D01*
X175902001Y-112268000D02*
X175902001Y-112312001D01*
X175304001Y-112910001D02*
X173362001Y-112910001D01*
X175902001Y-112312001D02*
X175304001Y-112910001D01*
X173362001Y-112910001D02*
X172720000Y-112268000D01*
X172720000Y-112268000D02*
X157734000Y-112268000D01*
X154432000Y-108966000D02*
X154432000Y-104648000D01*
X199136000Y-113284000D02*
X191516000Y-113284000D01*
X151384000Y-101600000D02*
X148844000Y-101600000D01*
D28*
X172350630Y-99568000D02*
X200152000Y-99568000D01*
X170180000Y-101738630D02*
X172350630Y-99568000D01*
X170180000Y-102870000D02*
X170180000Y-101738630D01*
X200152000Y-99568000D02*
X201279000Y-98441000D01*
X201279000Y-98441000D02*
X233203000Y-98441000D01*
X233203000Y-98441000D02*
X234696000Y-98441000D01*
X255270000Y-107020000D02*
X255270000Y-109220000D01*
X249596000Y-101346000D02*
X255270000Y-107020000D01*
X237601000Y-101346000D02*
X249596000Y-101346000D01*
X234696000Y-98441000D02*
X237601000Y-101346000D01*
X255270000Y-107020000D02*
X255270000Y-106934000D01*
X255270000Y-106934000D02*
X262636000Y-99568000D01*
X269761980Y-99568000D02*
X275596990Y-93732990D01*
X262636000Y-99568000D02*
X269761980Y-99568000D01*
X275596990Y-78365990D02*
X275596990Y-93732990D01*
X275596990Y-93732990D02*
X275596990Y-93852010D01*
X275596990Y-78238990D02*
X275596990Y-78365990D01*
X274066000Y-76708000D02*
X275596990Y-78238990D01*
D26*
X203992000Y-127230000D02*
X203992000Y-125252000D01*
X203992000Y-125252000D02*
X200152000Y-121412000D01*
X200152000Y-121412000D02*
X195072000Y-121412000D01*
X187987999Y-114327999D02*
X154459999Y-114327999D01*
X195072000Y-121412000D02*
X187987999Y-114327999D01*
X154459999Y-114327999D02*
X150876000Y-110744000D01*
X150876000Y-110744000D02*
X150876000Y-105156000D01*
X144907000Y-73286000D02*
X145168000Y-73025000D01*
X201556000Y-104394000D02*
X205366000Y-108204000D01*
X211328000Y-108204000D02*
X214884000Y-104648000D01*
X205366000Y-108204000D02*
X211328000Y-108204000D01*
X199273943Y-97051943D02*
X198158990Y-95936990D01*
X145168000Y-78606000D02*
X145161000Y-78613000D01*
X144780000Y-73025000D02*
X144780000Y-78606000D01*
X145161000Y-78613000D02*
X143256000Y-78613000D01*
X183820990Y-95936990D02*
X180340000Y-92456000D01*
X198158990Y-95936990D02*
X183820990Y-95936990D01*
X179825296Y-92970704D02*
X180340000Y-92456000D01*
X179407809Y-92970704D02*
X179825296Y-92970704D01*
X145669000Y-78613000D02*
X150622000Y-83566000D01*
X145161000Y-78613000D02*
X145669000Y-78613000D01*
X150622000Y-83566000D02*
X150622000Y-83693000D01*
X150622000Y-83693000D02*
X159893000Y-92964000D01*
X159893000Y-92964000D02*
X179401105Y-92964000D01*
X179401105Y-92964000D02*
X179407809Y-92970704D01*
X198865999Y-116736001D02*
X198865999Y-116602001D01*
X197866000Y-117736000D02*
X198865999Y-116736001D01*
X200660000Y-114808000D02*
X208534000Y-114808000D01*
X198865999Y-116602001D02*
X200660000Y-114808000D01*
X164084000Y-105156000D02*
X160020000Y-109220000D01*
X164084000Y-98044000D02*
X164084000Y-105156000D01*
X163068000Y-97028000D02*
X164084000Y-98044000D01*
X151384000Y-97028000D02*
X163068000Y-97028000D01*
X128270000Y-88773000D02*
X130444990Y-90947990D01*
X151384000Y-97028000D02*
X146304000Y-91948000D01*
X131445000Y-91948000D02*
X130444990Y-90947990D01*
X146304000Y-91948000D02*
X131445000Y-91948000D01*
X164592000Y-105664000D02*
X164084000Y-105156000D01*
X179105998Y-105664000D02*
X164592000Y-105664000D01*
X179603997Y-105166001D02*
X179105998Y-105664000D01*
X187680003Y-105166001D02*
X179603997Y-105166001D01*
X192750002Y-110236000D02*
X187680003Y-105166001D01*
X197866000Y-110236000D02*
X192750002Y-110236000D01*
X153924000Y-99568000D02*
X157226000Y-102870000D01*
X149352000Y-99568000D02*
X153924000Y-99568000D01*
X147546001Y-97762001D02*
X149352000Y-99568000D01*
X141450001Y-97762001D02*
X147546001Y-97762001D01*
X139700000Y-94996000D02*
X139700000Y-96012000D01*
X120904000Y-80772000D02*
X120904000Y-87376000D01*
X157226000Y-102870000D02*
X160020000Y-102870000D01*
X120904000Y-87376000D02*
X127000000Y-93472000D01*
X139700000Y-96012000D02*
X141450001Y-97762001D01*
X127000000Y-93472000D02*
X130140559Y-93472000D01*
X130140559Y-93472000D02*
X130648559Y-93980000D01*
X130648559Y-93980000D02*
X138684000Y-93980000D01*
X138684000Y-93980000D02*
X139700000Y-94996000D01*
X174262000Y-111040000D02*
X176590000Y-108712000D01*
X176590000Y-108712000D02*
X176618749Y-108712000D01*
X177126749Y-108204000D02*
X180340000Y-108204000D01*
X176618749Y-108712000D02*
X177126749Y-108204000D01*
X215775999Y-77752001D02*
X215775999Y-77721001D01*
X214506000Y-79022000D02*
X215775999Y-77752001D01*
X215775999Y-77752001D02*
X215775999Y-68963999D01*
X213233000Y-66421000D02*
X215775999Y-68963999D01*
X212026500Y-65214500D02*
X213233000Y-66421000D01*
X211836000Y-65024000D02*
X212026500Y-65214500D01*
X206074944Y-65024000D02*
X211836000Y-65024000D01*
X201168000Y-60117056D02*
X206074944Y-65024000D01*
X201168000Y-58420000D02*
X201168000Y-60117056D01*
X211836000Y-63984000D02*
X211836000Y-65024000D01*
X215392000Y-60428000D02*
X211836000Y-63984000D01*
X215392000Y-58928000D02*
X215392000Y-60428000D01*
X213236001Y-80291999D02*
X214506000Y-79022000D01*
X210030001Y-80291999D02*
X213236001Y-80291999D01*
X176346784Y-79022000D02*
X180382784Y-83058000D01*
X172596000Y-79022000D02*
X176346784Y-79022000D01*
X180382784Y-83058000D02*
X194818000Y-83058000D01*
X194818000Y-83058000D02*
X195580000Y-82296000D01*
X195580000Y-82296000D02*
X208026000Y-82296000D01*
X208026000Y-82296000D02*
X210030001Y-80291999D01*
X236952000Y-124490000D02*
X234382000Y-121920000D01*
X205232000Y-121920000D02*
X201422000Y-118110000D01*
X236952000Y-127200000D02*
X236952000Y-124490000D01*
X234382000Y-121920000D02*
X205232000Y-121920000D01*
X264952000Y-124350000D02*
X274066000Y-115236000D01*
X264952000Y-127200000D02*
X264952000Y-124350000D01*
X274066000Y-113397523D02*
X274066000Y-110236000D01*
X274066000Y-115236000D02*
X274066000Y-113397523D01*
D27*
X148082000Y-66802000D02*
X148082000Y-58420000D01*
X155318001Y-77625001D02*
X155318001Y-77594001D01*
X155318001Y-77594001D02*
X149352000Y-71628000D01*
X149352000Y-71628000D02*
X149352000Y-69088000D01*
X149352000Y-69088000D02*
X148082000Y-67818000D01*
X156588000Y-78895000D02*
X155318001Y-77625001D01*
X148082000Y-67818000D02*
X148082000Y-66802000D01*
X153082000Y-64690000D02*
X153082000Y-58420000D01*
X154940000Y-69596000D02*
X153082000Y-67738000D01*
X195679000Y-78895000D02*
X194056000Y-80518000D01*
X172212000Y-69596000D02*
X154940000Y-69596000D01*
X198498000Y-78895000D02*
X195679000Y-78895000D01*
X153082000Y-67738000D02*
X153082000Y-64690000D01*
X194056000Y-80518000D02*
X180848000Y-80518000D01*
X180848000Y-80518000D02*
X177038000Y-76708000D01*
X177038000Y-76708000D02*
X177038000Y-74422000D01*
X177038000Y-74422000D02*
X172212000Y-69596000D01*
D26*
X140118999Y-76797001D02*
X138303000Y-78613000D01*
X140118999Y-68490999D02*
X140118999Y-76797001D01*
X127000000Y-63500000D02*
X135128000Y-63500000D01*
X135128000Y-63500000D02*
X140118999Y-68490999D01*
X143256000Y-85471000D02*
X143256000Y-88773000D01*
X140081000Y-82296000D02*
X143256000Y-85471000D01*
X140081000Y-80391000D02*
X138303000Y-78613000D01*
X140081000Y-82296000D02*
X140081000Y-80391000D01*
X211003000Y-84399000D02*
X214756000Y-84399000D01*
X203962000Y-91440000D02*
X211003000Y-84399000D01*
X186944000Y-92456000D02*
X187960000Y-91440000D01*
X187960000Y-91440000D02*
X203962000Y-91440000D01*
X162179000Y-91440000D02*
X159385000Y-88646000D01*
X176022000Y-91440000D02*
X162179000Y-91440000D01*
X183388000Y-87249000D02*
X180213000Y-87249000D01*
X180213000Y-87249000D02*
X176022000Y-91440000D01*
X192786000Y-88646000D02*
X201295000Y-88646000D01*
X187960000Y-87249000D02*
X190881000Y-87249000D01*
X190881000Y-87249000D02*
X192786000Y-88646000D01*
X178816000Y-84836000D02*
X194056000Y-84836000D01*
X175648407Y-81668407D02*
X178816000Y-84836000D01*
X168267593Y-81668407D02*
X175648407Y-81668407D01*
X164592000Y-73391000D02*
X164592000Y-78232000D01*
X164592000Y-78232000D02*
X168267593Y-81668407D01*
X22352000Y-87630000D02*
X22352000Y-80137000D01*
X29210000Y-90805000D02*
X25527000Y-90805000D01*
X25527000Y-90805000D02*
X22352000Y-87630000D01*
X23495000Y-67183000D02*
X25781000Y-64897000D01*
X25781000Y-64897000D02*
X28448000Y-64897000D01*
X23495000Y-72155523D02*
X23495000Y-67183000D01*
X22352000Y-73298523D02*
X23495000Y-72155523D01*
X22352000Y-75137000D02*
X22352000Y-73298523D01*
D28*
X178816000Y-70612000D02*
X177800000Y-70612000D01*
X183388000Y-77089000D02*
X183388000Y-75184000D01*
X183388000Y-75184000D02*
X178816000Y-70612000D01*
X183388000Y-77089000D02*
X187960000Y-77089000D01*
D26*
X219456000Y-119380000D02*
X214884000Y-114808000D01*
X255016000Y-119380000D02*
X219456000Y-119380000D01*
X259954373Y-124318373D02*
X255016000Y-119380000D01*
X259954373Y-125542998D02*
X259954373Y-124318373D01*
X259952000Y-127200000D02*
X259952000Y-125545371D01*
X259952000Y-125545371D02*
X259954373Y-125542998D01*
M02*
