G04 #@! TF.GenerationSoftware,KiCad,Pcbnew,(5.1.4)-1*
G04 #@! TF.CreationDate,2020-03-08T21:51:10+01:00*
G04 #@! TF.ProjectId,JCM800,4a434d38-3030-42e6-9b69-6361645f7063,rev?*
G04 #@! TF.SameCoordinates,Original*
G04 #@! TF.FileFunction,Other,Fab,Top*
%FSLAX46Y46*%
G04 Gerber Fmt 4.6, Leading zero omitted, Abs format (unit mm)*
G04 Created by KiCad (PCBNEW (5.1.4)-1) date 2020-03-08 21:51:10*
%MOMM*%
%LPD*%
G04 APERTURE LIST*
%ADD10C,0.150000*%
G04 APERTURE END LIST*
D10*
X211114285Y-132160380D02*
X211114285Y-131160380D01*
X211447619Y-131874666D01*
X211780952Y-131160380D01*
X211780952Y-132160380D01*
X212400000Y-132160380D02*
X212304761Y-132112761D01*
X212257142Y-132065142D01*
X212209523Y-131969904D01*
X212209523Y-131684190D01*
X212257142Y-131588952D01*
X212304761Y-131541333D01*
X212400000Y-131493714D01*
X212542857Y-131493714D01*
X212638095Y-131541333D01*
X212685714Y-131588952D01*
X212733333Y-131684190D01*
X212733333Y-131969904D01*
X212685714Y-132065142D01*
X212638095Y-132112761D01*
X212542857Y-132160380D01*
X212400000Y-132160380D01*
X213590476Y-131493714D02*
X213590476Y-132160380D01*
X213161904Y-131493714D02*
X213161904Y-132017523D01*
X213209523Y-132112761D01*
X213304761Y-132160380D01*
X213447619Y-132160380D01*
X213542857Y-132112761D01*
X213590476Y-132065142D01*
X214066666Y-131493714D02*
X214066666Y-132160380D01*
X214066666Y-131588952D02*
X214114285Y-131541333D01*
X214209523Y-131493714D01*
X214352380Y-131493714D01*
X214447619Y-131541333D01*
X214495238Y-131636571D01*
X214495238Y-132160380D01*
X214828571Y-131493714D02*
X215209523Y-131493714D01*
X214971428Y-131160380D02*
X214971428Y-132017523D01*
X215019047Y-132112761D01*
X215114285Y-132160380D01*
X215209523Y-132160380D01*
X215542857Y-132160380D02*
X215542857Y-131493714D01*
X215542857Y-131160380D02*
X215495238Y-131208000D01*
X215542857Y-131255619D01*
X215590476Y-131208000D01*
X215542857Y-131160380D01*
X215542857Y-131255619D01*
X216019047Y-131493714D02*
X216019047Y-132160380D01*
X216019047Y-131588952D02*
X216066666Y-131541333D01*
X216161904Y-131493714D01*
X216304761Y-131493714D01*
X216400000Y-131541333D01*
X216447619Y-131636571D01*
X216447619Y-132160380D01*
X217352380Y-131493714D02*
X217352380Y-132303238D01*
X217304761Y-132398476D01*
X217257142Y-132446095D01*
X217161904Y-132493714D01*
X217019047Y-132493714D01*
X216923809Y-132446095D01*
X217352380Y-132112761D02*
X217257142Y-132160380D01*
X217066666Y-132160380D01*
X216971428Y-132112761D01*
X216923809Y-132065142D01*
X216876190Y-131969904D01*
X216876190Y-131684190D01*
X216923809Y-131588952D01*
X216971428Y-131541333D01*
X217066666Y-131493714D01*
X217257142Y-131493714D01*
X217352380Y-131541333D01*
X217828571Y-132160380D02*
X217828571Y-131160380D01*
X217828571Y-131636571D02*
X218400000Y-131636571D01*
X218400000Y-132160380D02*
X218400000Y-131160380D01*
X219019047Y-132160380D02*
X218923809Y-132112761D01*
X218876190Y-132065142D01*
X218828571Y-131969904D01*
X218828571Y-131684190D01*
X218876190Y-131588952D01*
X218923809Y-131541333D01*
X219019047Y-131493714D01*
X219161904Y-131493714D01*
X219257142Y-131541333D01*
X219304761Y-131588952D01*
X219352380Y-131684190D01*
X219352380Y-131969904D01*
X219304761Y-132065142D01*
X219257142Y-132112761D01*
X219161904Y-132160380D01*
X219019047Y-132160380D01*
X219923809Y-132160380D02*
X219828571Y-132112761D01*
X219780952Y-132017523D01*
X219780952Y-131160380D01*
X220685714Y-132112761D02*
X220590476Y-132160380D01*
X220400000Y-132160380D01*
X220304761Y-132112761D01*
X220257142Y-132017523D01*
X220257142Y-131636571D01*
X220304761Y-131541333D01*
X220400000Y-131493714D01*
X220590476Y-131493714D01*
X220685714Y-131541333D01*
X220733333Y-131636571D01*
X220733333Y-131731809D01*
X220257142Y-131827047D01*
X215438095Y-127960380D02*
X215438095Y-126960380D01*
X215438095Y-127436571D02*
X216009523Y-127436571D01*
X216009523Y-127960380D02*
X216009523Y-126960380D01*
X216390476Y-126960380D02*
X217057142Y-126960380D01*
X216628571Y-127960380D01*
X143169285Y-94187380D02*
X143169285Y-93187380D01*
X143502619Y-93901666D01*
X143835952Y-93187380D01*
X143835952Y-94187380D01*
X144455000Y-94187380D02*
X144359761Y-94139761D01*
X144312142Y-94092142D01*
X144264523Y-93996904D01*
X144264523Y-93711190D01*
X144312142Y-93615952D01*
X144359761Y-93568333D01*
X144455000Y-93520714D01*
X144597857Y-93520714D01*
X144693095Y-93568333D01*
X144740714Y-93615952D01*
X144788333Y-93711190D01*
X144788333Y-93996904D01*
X144740714Y-94092142D01*
X144693095Y-94139761D01*
X144597857Y-94187380D01*
X144455000Y-94187380D01*
X145645476Y-93520714D02*
X145645476Y-94187380D01*
X145216904Y-93520714D02*
X145216904Y-94044523D01*
X145264523Y-94139761D01*
X145359761Y-94187380D01*
X145502619Y-94187380D01*
X145597857Y-94139761D01*
X145645476Y-94092142D01*
X146121666Y-93520714D02*
X146121666Y-94187380D01*
X146121666Y-93615952D02*
X146169285Y-93568333D01*
X146264523Y-93520714D01*
X146407380Y-93520714D01*
X146502619Y-93568333D01*
X146550238Y-93663571D01*
X146550238Y-94187380D01*
X146883571Y-93520714D02*
X147264523Y-93520714D01*
X147026428Y-93187380D02*
X147026428Y-94044523D01*
X147074047Y-94139761D01*
X147169285Y-94187380D01*
X147264523Y-94187380D01*
X147597857Y-94187380D02*
X147597857Y-93520714D01*
X147597857Y-93187380D02*
X147550238Y-93235000D01*
X147597857Y-93282619D01*
X147645476Y-93235000D01*
X147597857Y-93187380D01*
X147597857Y-93282619D01*
X148074047Y-93520714D02*
X148074047Y-94187380D01*
X148074047Y-93615952D02*
X148121666Y-93568333D01*
X148216904Y-93520714D01*
X148359761Y-93520714D01*
X148455000Y-93568333D01*
X148502619Y-93663571D01*
X148502619Y-94187380D01*
X149407380Y-93520714D02*
X149407380Y-94330238D01*
X149359761Y-94425476D01*
X149312142Y-94473095D01*
X149216904Y-94520714D01*
X149074047Y-94520714D01*
X148978809Y-94473095D01*
X149407380Y-94139761D02*
X149312142Y-94187380D01*
X149121666Y-94187380D01*
X149026428Y-94139761D01*
X148978809Y-94092142D01*
X148931190Y-93996904D01*
X148931190Y-93711190D01*
X148978809Y-93615952D01*
X149026428Y-93568333D01*
X149121666Y-93520714D01*
X149312142Y-93520714D01*
X149407380Y-93568333D01*
X149883571Y-94187380D02*
X149883571Y-93187380D01*
X149883571Y-93663571D02*
X150455000Y-93663571D01*
X150455000Y-94187380D02*
X150455000Y-93187380D01*
X151074047Y-94187380D02*
X150978809Y-94139761D01*
X150931190Y-94092142D01*
X150883571Y-93996904D01*
X150883571Y-93711190D01*
X150931190Y-93615952D01*
X150978809Y-93568333D01*
X151074047Y-93520714D01*
X151216904Y-93520714D01*
X151312142Y-93568333D01*
X151359761Y-93615952D01*
X151407380Y-93711190D01*
X151407380Y-93996904D01*
X151359761Y-94092142D01*
X151312142Y-94139761D01*
X151216904Y-94187380D01*
X151074047Y-94187380D01*
X151978809Y-94187380D02*
X151883571Y-94139761D01*
X151835952Y-94044523D01*
X151835952Y-93187380D01*
X152740714Y-94139761D02*
X152645476Y-94187380D01*
X152455000Y-94187380D01*
X152359761Y-94139761D01*
X152312142Y-94044523D01*
X152312142Y-93663571D01*
X152359761Y-93568333D01*
X152455000Y-93520714D01*
X152645476Y-93520714D01*
X152740714Y-93568333D01*
X152788333Y-93663571D01*
X152788333Y-93758809D01*
X152312142Y-93854047D01*
X147493095Y-89987380D02*
X147493095Y-88987380D01*
X147493095Y-89463571D02*
X148064523Y-89463571D01*
X148064523Y-89987380D02*
X148064523Y-88987380D01*
X148969285Y-88987380D02*
X148778809Y-88987380D01*
X148683571Y-89035000D01*
X148635952Y-89082619D01*
X148540714Y-89225476D01*
X148493095Y-89415952D01*
X148493095Y-89796904D01*
X148540714Y-89892142D01*
X148588333Y-89939761D01*
X148683571Y-89987380D01*
X148874047Y-89987380D01*
X148969285Y-89939761D01*
X149016904Y-89892142D01*
X149064523Y-89796904D01*
X149064523Y-89558809D01*
X149016904Y-89463571D01*
X148969285Y-89415952D01*
X148874047Y-89368333D01*
X148683571Y-89368333D01*
X148588333Y-89415952D01*
X148540714Y-89463571D01*
X148493095Y-89558809D01*
X127040285Y-132160380D02*
X127040285Y-131160380D01*
X127373619Y-131874666D01*
X127706952Y-131160380D01*
X127706952Y-132160380D01*
X128326000Y-132160380D02*
X128230761Y-132112761D01*
X128183142Y-132065142D01*
X128135523Y-131969904D01*
X128135523Y-131684190D01*
X128183142Y-131588952D01*
X128230761Y-131541333D01*
X128326000Y-131493714D01*
X128468857Y-131493714D01*
X128564095Y-131541333D01*
X128611714Y-131588952D01*
X128659333Y-131684190D01*
X128659333Y-131969904D01*
X128611714Y-132065142D01*
X128564095Y-132112761D01*
X128468857Y-132160380D01*
X128326000Y-132160380D01*
X129516476Y-131493714D02*
X129516476Y-132160380D01*
X129087904Y-131493714D02*
X129087904Y-132017523D01*
X129135523Y-132112761D01*
X129230761Y-132160380D01*
X129373619Y-132160380D01*
X129468857Y-132112761D01*
X129516476Y-132065142D01*
X129992666Y-131493714D02*
X129992666Y-132160380D01*
X129992666Y-131588952D02*
X130040285Y-131541333D01*
X130135523Y-131493714D01*
X130278380Y-131493714D01*
X130373619Y-131541333D01*
X130421238Y-131636571D01*
X130421238Y-132160380D01*
X130754571Y-131493714D02*
X131135523Y-131493714D01*
X130897428Y-131160380D02*
X130897428Y-132017523D01*
X130945047Y-132112761D01*
X131040285Y-132160380D01*
X131135523Y-132160380D01*
X131468857Y-132160380D02*
X131468857Y-131493714D01*
X131468857Y-131160380D02*
X131421238Y-131208000D01*
X131468857Y-131255619D01*
X131516476Y-131208000D01*
X131468857Y-131160380D01*
X131468857Y-131255619D01*
X131945047Y-131493714D02*
X131945047Y-132160380D01*
X131945047Y-131588952D02*
X131992666Y-131541333D01*
X132087904Y-131493714D01*
X132230761Y-131493714D01*
X132326000Y-131541333D01*
X132373619Y-131636571D01*
X132373619Y-132160380D01*
X133278380Y-131493714D02*
X133278380Y-132303238D01*
X133230761Y-132398476D01*
X133183142Y-132446095D01*
X133087904Y-132493714D01*
X132945047Y-132493714D01*
X132849809Y-132446095D01*
X133278380Y-132112761D02*
X133183142Y-132160380D01*
X132992666Y-132160380D01*
X132897428Y-132112761D01*
X132849809Y-132065142D01*
X132802190Y-131969904D01*
X132802190Y-131684190D01*
X132849809Y-131588952D01*
X132897428Y-131541333D01*
X132992666Y-131493714D01*
X133183142Y-131493714D01*
X133278380Y-131541333D01*
X133754571Y-132160380D02*
X133754571Y-131160380D01*
X133754571Y-131636571D02*
X134326000Y-131636571D01*
X134326000Y-132160380D02*
X134326000Y-131160380D01*
X134945047Y-132160380D02*
X134849809Y-132112761D01*
X134802190Y-132065142D01*
X134754571Y-131969904D01*
X134754571Y-131684190D01*
X134802190Y-131588952D01*
X134849809Y-131541333D01*
X134945047Y-131493714D01*
X135087904Y-131493714D01*
X135183142Y-131541333D01*
X135230761Y-131588952D01*
X135278380Y-131684190D01*
X135278380Y-131969904D01*
X135230761Y-132065142D01*
X135183142Y-132112761D01*
X135087904Y-132160380D01*
X134945047Y-132160380D01*
X135849809Y-132160380D02*
X135754571Y-132112761D01*
X135706952Y-132017523D01*
X135706952Y-131160380D01*
X136611714Y-132112761D02*
X136516476Y-132160380D01*
X136326000Y-132160380D01*
X136230761Y-132112761D01*
X136183142Y-132017523D01*
X136183142Y-131636571D01*
X136230761Y-131541333D01*
X136326000Y-131493714D01*
X136516476Y-131493714D01*
X136611714Y-131541333D01*
X136659333Y-131636571D01*
X136659333Y-131731809D01*
X136183142Y-131827047D01*
X131364095Y-127960380D02*
X131364095Y-126960380D01*
X131364095Y-127436571D02*
X131935523Y-127436571D01*
X131935523Y-127960380D02*
X131935523Y-126960380D01*
X132887904Y-126960380D02*
X132411714Y-126960380D01*
X132364095Y-127436571D01*
X132411714Y-127388952D01*
X132506952Y-127341333D01*
X132745047Y-127341333D01*
X132840285Y-127388952D01*
X132887904Y-127436571D01*
X132935523Y-127531809D01*
X132935523Y-127769904D01*
X132887904Y-127865142D01*
X132840285Y-127912761D01*
X132745047Y-127960380D01*
X132506952Y-127960380D01*
X132411714Y-127912761D01*
X132364095Y-127865142D01*
X68112285Y-132160380D02*
X68112285Y-131160380D01*
X68445619Y-131874666D01*
X68778952Y-131160380D01*
X68778952Y-132160380D01*
X69398000Y-132160380D02*
X69302761Y-132112761D01*
X69255142Y-132065142D01*
X69207523Y-131969904D01*
X69207523Y-131684190D01*
X69255142Y-131588952D01*
X69302761Y-131541333D01*
X69398000Y-131493714D01*
X69540857Y-131493714D01*
X69636095Y-131541333D01*
X69683714Y-131588952D01*
X69731333Y-131684190D01*
X69731333Y-131969904D01*
X69683714Y-132065142D01*
X69636095Y-132112761D01*
X69540857Y-132160380D01*
X69398000Y-132160380D01*
X70588476Y-131493714D02*
X70588476Y-132160380D01*
X70159904Y-131493714D02*
X70159904Y-132017523D01*
X70207523Y-132112761D01*
X70302761Y-132160380D01*
X70445619Y-132160380D01*
X70540857Y-132112761D01*
X70588476Y-132065142D01*
X71064666Y-131493714D02*
X71064666Y-132160380D01*
X71064666Y-131588952D02*
X71112285Y-131541333D01*
X71207523Y-131493714D01*
X71350380Y-131493714D01*
X71445619Y-131541333D01*
X71493238Y-131636571D01*
X71493238Y-132160380D01*
X71826571Y-131493714D02*
X72207523Y-131493714D01*
X71969428Y-131160380D02*
X71969428Y-132017523D01*
X72017047Y-132112761D01*
X72112285Y-132160380D01*
X72207523Y-132160380D01*
X72540857Y-132160380D02*
X72540857Y-131493714D01*
X72540857Y-131160380D02*
X72493238Y-131208000D01*
X72540857Y-131255619D01*
X72588476Y-131208000D01*
X72540857Y-131160380D01*
X72540857Y-131255619D01*
X73017047Y-131493714D02*
X73017047Y-132160380D01*
X73017047Y-131588952D02*
X73064666Y-131541333D01*
X73159904Y-131493714D01*
X73302761Y-131493714D01*
X73398000Y-131541333D01*
X73445619Y-131636571D01*
X73445619Y-132160380D01*
X74350380Y-131493714D02*
X74350380Y-132303238D01*
X74302761Y-132398476D01*
X74255142Y-132446095D01*
X74159904Y-132493714D01*
X74017047Y-132493714D01*
X73921809Y-132446095D01*
X74350380Y-132112761D02*
X74255142Y-132160380D01*
X74064666Y-132160380D01*
X73969428Y-132112761D01*
X73921809Y-132065142D01*
X73874190Y-131969904D01*
X73874190Y-131684190D01*
X73921809Y-131588952D01*
X73969428Y-131541333D01*
X74064666Y-131493714D01*
X74255142Y-131493714D01*
X74350380Y-131541333D01*
X74826571Y-132160380D02*
X74826571Y-131160380D01*
X74826571Y-131636571D02*
X75398000Y-131636571D01*
X75398000Y-132160380D02*
X75398000Y-131160380D01*
X76017047Y-132160380D02*
X75921809Y-132112761D01*
X75874190Y-132065142D01*
X75826571Y-131969904D01*
X75826571Y-131684190D01*
X75874190Y-131588952D01*
X75921809Y-131541333D01*
X76017047Y-131493714D01*
X76159904Y-131493714D01*
X76255142Y-131541333D01*
X76302761Y-131588952D01*
X76350380Y-131684190D01*
X76350380Y-131969904D01*
X76302761Y-132065142D01*
X76255142Y-132112761D01*
X76159904Y-132160380D01*
X76017047Y-132160380D01*
X76921809Y-132160380D02*
X76826571Y-132112761D01*
X76778952Y-132017523D01*
X76778952Y-131160380D01*
X77683714Y-132112761D02*
X77588476Y-132160380D01*
X77398000Y-132160380D01*
X77302761Y-132112761D01*
X77255142Y-132017523D01*
X77255142Y-131636571D01*
X77302761Y-131541333D01*
X77398000Y-131493714D01*
X77588476Y-131493714D01*
X77683714Y-131541333D01*
X77731333Y-131636571D01*
X77731333Y-131731809D01*
X77255142Y-131827047D01*
X72436095Y-127960380D02*
X72436095Y-126960380D01*
X72436095Y-127436571D02*
X73007523Y-127436571D01*
X73007523Y-127960380D02*
X73007523Y-126960380D01*
X73912285Y-127293714D02*
X73912285Y-127960380D01*
X73674190Y-126912761D02*
X73436095Y-127627047D01*
X74055142Y-127627047D01*
X232196285Y-63326380D02*
X232196285Y-62326380D01*
X232529619Y-63040666D01*
X232862952Y-62326380D01*
X232862952Y-63326380D01*
X233482000Y-63326380D02*
X233386761Y-63278761D01*
X233339142Y-63231142D01*
X233291523Y-63135904D01*
X233291523Y-62850190D01*
X233339142Y-62754952D01*
X233386761Y-62707333D01*
X233482000Y-62659714D01*
X233624857Y-62659714D01*
X233720095Y-62707333D01*
X233767714Y-62754952D01*
X233815333Y-62850190D01*
X233815333Y-63135904D01*
X233767714Y-63231142D01*
X233720095Y-63278761D01*
X233624857Y-63326380D01*
X233482000Y-63326380D01*
X234672476Y-62659714D02*
X234672476Y-63326380D01*
X234243904Y-62659714D02*
X234243904Y-63183523D01*
X234291523Y-63278761D01*
X234386761Y-63326380D01*
X234529619Y-63326380D01*
X234624857Y-63278761D01*
X234672476Y-63231142D01*
X235148666Y-62659714D02*
X235148666Y-63326380D01*
X235148666Y-62754952D02*
X235196285Y-62707333D01*
X235291523Y-62659714D01*
X235434380Y-62659714D01*
X235529619Y-62707333D01*
X235577238Y-62802571D01*
X235577238Y-63326380D01*
X235910571Y-62659714D02*
X236291523Y-62659714D01*
X236053428Y-62326380D02*
X236053428Y-63183523D01*
X236101047Y-63278761D01*
X236196285Y-63326380D01*
X236291523Y-63326380D01*
X236624857Y-63326380D02*
X236624857Y-62659714D01*
X236624857Y-62326380D02*
X236577238Y-62374000D01*
X236624857Y-62421619D01*
X236672476Y-62374000D01*
X236624857Y-62326380D01*
X236624857Y-62421619D01*
X237101047Y-62659714D02*
X237101047Y-63326380D01*
X237101047Y-62754952D02*
X237148666Y-62707333D01*
X237243904Y-62659714D01*
X237386761Y-62659714D01*
X237482000Y-62707333D01*
X237529619Y-62802571D01*
X237529619Y-63326380D01*
X238434380Y-62659714D02*
X238434380Y-63469238D01*
X238386761Y-63564476D01*
X238339142Y-63612095D01*
X238243904Y-63659714D01*
X238101047Y-63659714D01*
X238005809Y-63612095D01*
X238434380Y-63278761D02*
X238339142Y-63326380D01*
X238148666Y-63326380D01*
X238053428Y-63278761D01*
X238005809Y-63231142D01*
X237958190Y-63135904D01*
X237958190Y-62850190D01*
X238005809Y-62754952D01*
X238053428Y-62707333D01*
X238148666Y-62659714D01*
X238339142Y-62659714D01*
X238434380Y-62707333D01*
X238910571Y-63326380D02*
X238910571Y-62326380D01*
X238910571Y-62802571D02*
X239482000Y-62802571D01*
X239482000Y-63326380D02*
X239482000Y-62326380D01*
X240101047Y-63326380D02*
X240005809Y-63278761D01*
X239958190Y-63231142D01*
X239910571Y-63135904D01*
X239910571Y-62850190D01*
X239958190Y-62754952D01*
X240005809Y-62707333D01*
X240101047Y-62659714D01*
X240243904Y-62659714D01*
X240339142Y-62707333D01*
X240386761Y-62754952D01*
X240434380Y-62850190D01*
X240434380Y-63135904D01*
X240386761Y-63231142D01*
X240339142Y-63278761D01*
X240243904Y-63326380D01*
X240101047Y-63326380D01*
X241005809Y-63326380D02*
X240910571Y-63278761D01*
X240862952Y-63183523D01*
X240862952Y-62326380D01*
X241767714Y-63278761D02*
X241672476Y-63326380D01*
X241482000Y-63326380D01*
X241386761Y-63278761D01*
X241339142Y-63183523D01*
X241339142Y-62802571D01*
X241386761Y-62707333D01*
X241482000Y-62659714D01*
X241672476Y-62659714D01*
X241767714Y-62707333D01*
X241815333Y-62802571D01*
X241815333Y-62897809D01*
X241339142Y-62993047D01*
X236520095Y-59126380D02*
X236520095Y-58126380D01*
X236520095Y-58602571D02*
X237091523Y-58602571D01*
X237091523Y-59126380D02*
X237091523Y-58126380D01*
X237472476Y-58126380D02*
X238091523Y-58126380D01*
X237758190Y-58507333D01*
X237901047Y-58507333D01*
X237996285Y-58554952D01*
X238043904Y-58602571D01*
X238091523Y-58697809D01*
X238091523Y-58935904D01*
X238043904Y-59031142D01*
X237996285Y-59078761D01*
X237901047Y-59126380D01*
X237615333Y-59126380D01*
X237520095Y-59078761D01*
X237472476Y-59031142D01*
X151297285Y-63326380D02*
X151297285Y-62326380D01*
X151630619Y-63040666D01*
X151963952Y-62326380D01*
X151963952Y-63326380D01*
X152583000Y-63326380D02*
X152487761Y-63278761D01*
X152440142Y-63231142D01*
X152392523Y-63135904D01*
X152392523Y-62850190D01*
X152440142Y-62754952D01*
X152487761Y-62707333D01*
X152583000Y-62659714D01*
X152725857Y-62659714D01*
X152821095Y-62707333D01*
X152868714Y-62754952D01*
X152916333Y-62850190D01*
X152916333Y-63135904D01*
X152868714Y-63231142D01*
X152821095Y-63278761D01*
X152725857Y-63326380D01*
X152583000Y-63326380D01*
X153773476Y-62659714D02*
X153773476Y-63326380D01*
X153344904Y-62659714D02*
X153344904Y-63183523D01*
X153392523Y-63278761D01*
X153487761Y-63326380D01*
X153630619Y-63326380D01*
X153725857Y-63278761D01*
X153773476Y-63231142D01*
X154249666Y-62659714D02*
X154249666Y-63326380D01*
X154249666Y-62754952D02*
X154297285Y-62707333D01*
X154392523Y-62659714D01*
X154535380Y-62659714D01*
X154630619Y-62707333D01*
X154678238Y-62802571D01*
X154678238Y-63326380D01*
X155011571Y-62659714D02*
X155392523Y-62659714D01*
X155154428Y-62326380D02*
X155154428Y-63183523D01*
X155202047Y-63278761D01*
X155297285Y-63326380D01*
X155392523Y-63326380D01*
X155725857Y-63326380D02*
X155725857Y-62659714D01*
X155725857Y-62326380D02*
X155678238Y-62374000D01*
X155725857Y-62421619D01*
X155773476Y-62374000D01*
X155725857Y-62326380D01*
X155725857Y-62421619D01*
X156202047Y-62659714D02*
X156202047Y-63326380D01*
X156202047Y-62754952D02*
X156249666Y-62707333D01*
X156344904Y-62659714D01*
X156487761Y-62659714D01*
X156583000Y-62707333D01*
X156630619Y-62802571D01*
X156630619Y-63326380D01*
X157535380Y-62659714D02*
X157535380Y-63469238D01*
X157487761Y-63564476D01*
X157440142Y-63612095D01*
X157344904Y-63659714D01*
X157202047Y-63659714D01*
X157106809Y-63612095D01*
X157535380Y-63278761D02*
X157440142Y-63326380D01*
X157249666Y-63326380D01*
X157154428Y-63278761D01*
X157106809Y-63231142D01*
X157059190Y-63135904D01*
X157059190Y-62850190D01*
X157106809Y-62754952D01*
X157154428Y-62707333D01*
X157249666Y-62659714D01*
X157440142Y-62659714D01*
X157535380Y-62707333D01*
X158011571Y-63326380D02*
X158011571Y-62326380D01*
X158011571Y-62802571D02*
X158583000Y-62802571D01*
X158583000Y-63326380D02*
X158583000Y-62326380D01*
X159202047Y-63326380D02*
X159106809Y-63278761D01*
X159059190Y-63231142D01*
X159011571Y-63135904D01*
X159011571Y-62850190D01*
X159059190Y-62754952D01*
X159106809Y-62707333D01*
X159202047Y-62659714D01*
X159344904Y-62659714D01*
X159440142Y-62707333D01*
X159487761Y-62754952D01*
X159535380Y-62850190D01*
X159535380Y-63135904D01*
X159487761Y-63231142D01*
X159440142Y-63278761D01*
X159344904Y-63326380D01*
X159202047Y-63326380D01*
X160106809Y-63326380D02*
X160011571Y-63278761D01*
X159963952Y-63183523D01*
X159963952Y-62326380D01*
X160868714Y-63278761D02*
X160773476Y-63326380D01*
X160583000Y-63326380D01*
X160487761Y-63278761D01*
X160440142Y-63183523D01*
X160440142Y-62802571D01*
X160487761Y-62707333D01*
X160583000Y-62659714D01*
X160773476Y-62659714D01*
X160868714Y-62707333D01*
X160916333Y-62802571D01*
X160916333Y-62897809D01*
X160440142Y-62993047D01*
X155321095Y-59126380D02*
X155321095Y-58126380D01*
X155321095Y-58602571D02*
X155892523Y-58602571D01*
X155892523Y-59126380D02*
X155892523Y-58126380D01*
X156321095Y-58221619D02*
X156368714Y-58174000D01*
X156463952Y-58126380D01*
X156702047Y-58126380D01*
X156797285Y-58174000D01*
X156844904Y-58221619D01*
X156892523Y-58316857D01*
X156892523Y-58412095D01*
X156844904Y-58554952D01*
X156273476Y-59126380D01*
X156892523Y-59126380D01*
X44236285Y-63326380D02*
X44236285Y-62326380D01*
X44569619Y-63040666D01*
X44902952Y-62326380D01*
X44902952Y-63326380D01*
X45522000Y-63326380D02*
X45426761Y-63278761D01*
X45379142Y-63231142D01*
X45331523Y-63135904D01*
X45331523Y-62850190D01*
X45379142Y-62754952D01*
X45426761Y-62707333D01*
X45522000Y-62659714D01*
X45664857Y-62659714D01*
X45760095Y-62707333D01*
X45807714Y-62754952D01*
X45855333Y-62850190D01*
X45855333Y-63135904D01*
X45807714Y-63231142D01*
X45760095Y-63278761D01*
X45664857Y-63326380D01*
X45522000Y-63326380D01*
X46712476Y-62659714D02*
X46712476Y-63326380D01*
X46283904Y-62659714D02*
X46283904Y-63183523D01*
X46331523Y-63278761D01*
X46426761Y-63326380D01*
X46569619Y-63326380D01*
X46664857Y-63278761D01*
X46712476Y-63231142D01*
X47188666Y-62659714D02*
X47188666Y-63326380D01*
X47188666Y-62754952D02*
X47236285Y-62707333D01*
X47331523Y-62659714D01*
X47474380Y-62659714D01*
X47569619Y-62707333D01*
X47617238Y-62802571D01*
X47617238Y-63326380D01*
X47950571Y-62659714D02*
X48331523Y-62659714D01*
X48093428Y-62326380D02*
X48093428Y-63183523D01*
X48141047Y-63278761D01*
X48236285Y-63326380D01*
X48331523Y-63326380D01*
X48664857Y-63326380D02*
X48664857Y-62659714D01*
X48664857Y-62326380D02*
X48617238Y-62374000D01*
X48664857Y-62421619D01*
X48712476Y-62374000D01*
X48664857Y-62326380D01*
X48664857Y-62421619D01*
X49141047Y-62659714D02*
X49141047Y-63326380D01*
X49141047Y-62754952D02*
X49188666Y-62707333D01*
X49283904Y-62659714D01*
X49426761Y-62659714D01*
X49522000Y-62707333D01*
X49569619Y-62802571D01*
X49569619Y-63326380D01*
X50474380Y-62659714D02*
X50474380Y-63469238D01*
X50426761Y-63564476D01*
X50379142Y-63612095D01*
X50283904Y-63659714D01*
X50141047Y-63659714D01*
X50045809Y-63612095D01*
X50474380Y-63278761D02*
X50379142Y-63326380D01*
X50188666Y-63326380D01*
X50093428Y-63278761D01*
X50045809Y-63231142D01*
X49998190Y-63135904D01*
X49998190Y-62850190D01*
X50045809Y-62754952D01*
X50093428Y-62707333D01*
X50188666Y-62659714D01*
X50379142Y-62659714D01*
X50474380Y-62707333D01*
X50950571Y-63326380D02*
X50950571Y-62326380D01*
X50950571Y-62802571D02*
X51522000Y-62802571D01*
X51522000Y-63326380D02*
X51522000Y-62326380D01*
X52141047Y-63326380D02*
X52045809Y-63278761D01*
X51998190Y-63231142D01*
X51950571Y-63135904D01*
X51950571Y-62850190D01*
X51998190Y-62754952D01*
X52045809Y-62707333D01*
X52141047Y-62659714D01*
X52283904Y-62659714D01*
X52379142Y-62707333D01*
X52426761Y-62754952D01*
X52474380Y-62850190D01*
X52474380Y-63135904D01*
X52426761Y-63231142D01*
X52379142Y-63278761D01*
X52283904Y-63326380D01*
X52141047Y-63326380D01*
X53045809Y-63326380D02*
X52950571Y-63278761D01*
X52902952Y-63183523D01*
X52902952Y-62326380D01*
X53807714Y-63278761D02*
X53712476Y-63326380D01*
X53522000Y-63326380D01*
X53426761Y-63278761D01*
X53379142Y-63183523D01*
X53379142Y-62802571D01*
X53426761Y-62707333D01*
X53522000Y-62659714D01*
X53712476Y-62659714D01*
X53807714Y-62707333D01*
X53855333Y-62802571D01*
X53855333Y-62897809D01*
X53379142Y-62993047D01*
X48560095Y-59126380D02*
X48560095Y-58126380D01*
X48560095Y-58602571D02*
X49131523Y-58602571D01*
X49131523Y-59126380D02*
X49131523Y-58126380D01*
X50131523Y-59126380D02*
X49560095Y-59126380D01*
X49845809Y-59126380D02*
X49845809Y-58126380D01*
X49750571Y-58269238D01*
X49655333Y-58364476D01*
X49560095Y-58412095D01*
M02*
