G04 #@! TF.GenerationSoftware,KiCad,Pcbnew,(5.1.4)-1*
G04 #@! TF.CreationDate,2020-03-08T21:51:10+01:00*
G04 #@! TF.ProjectId,JCM800,4a434d38-3030-42e6-9b69-6361645f7063,rev?*
G04 #@! TF.SameCoordinates,Original*
G04 #@! TF.FileFunction,Copper,L2,Bot*
G04 #@! TF.FilePolarity,Positive*
%FSLAX46Y46*%
G04 Gerber Fmt 4.6, Leading zero omitted, Abs format (unit mm)*
G04 Created by KiCad (PCBNEW (5.1.4)-1) date 2020-03-08 21:51:10*
%MOMM*%
%LPD*%
G04 APERTURE LIST*
%ADD10O,1.600000X1.600000*%
%ADD11C,1.600000*%
%ADD12O,2.400000X2.400000*%
%ADD13C,2.400000*%
%ADD14R,2.400000X2.400000*%
%ADD15C,3.000000*%
%ADD16C,2.000000*%
%ADD17C,2.540000*%
%ADD18R,2.600000X2.600000*%
%ADD19C,2.600000*%
%ADD20R,1.700000X1.700000*%
%ADD21R,1.800000X1.800000*%
%ADD22O,1.800000X1.800000*%
%ADD23C,2.340000*%
%ADD24R,1.600000X1.600000*%
%ADD25C,0.800000*%
%ADD26C,0.500000*%
%ADD27C,0.750000*%
%ADD28C,1.000000*%
G04 APERTURE END LIST*
D10*
X116840000Y-58420000D03*
D11*
X116840000Y-68580000D03*
D12*
X236982000Y-78867000D03*
D13*
X221742000Y-78867000D03*
D12*
X215138000Y-75184000D03*
D13*
X215138000Y-100584000D03*
D12*
X208153000Y-94615000D03*
D13*
X208153000Y-109855000D03*
D14*
X127000000Y-64770000D03*
D13*
X134500000Y-64770000D03*
D15*
X66000000Y-127300000D03*
X66000000Y-121000000D03*
X66000000Y-114700000D03*
X49800000Y-127300000D03*
X49800000Y-121000000D03*
X49800000Y-114700000D03*
X96000000Y-127300000D03*
X96000000Y-121000000D03*
X96000000Y-114700000D03*
X79800000Y-127300000D03*
X79800000Y-121000000D03*
X79800000Y-114700000D03*
D11*
X88138000Y-87804000D03*
X88138000Y-82804000D03*
X111760000Y-100330000D03*
X111760000Y-105330000D03*
D16*
X151130000Y-105530000D03*
X151130000Y-113030000D03*
X171450000Y-113037000D03*
X171450000Y-105537000D03*
X81273000Y-77978000D03*
X88773000Y-77978000D03*
X88900000Y-103766000D03*
X88900000Y-96266000D03*
X73660000Y-106814000D03*
X73660000Y-99314000D03*
X140970000Y-105530000D03*
X140970000Y-113030000D03*
D17*
X61976000Y-89916000D03*
X72390000Y-90043000D03*
X59056000Y-85796000D03*
X59179000Y-80165000D03*
X62179000Y-76161000D03*
X67183000Y-74661000D03*
X72441000Y-76415000D03*
X75437000Y-85669000D03*
X75187000Y-80292000D03*
D18*
X197485000Y-59944000D03*
D19*
X192485000Y-59944000D03*
D14*
X225044000Y-111760000D03*
D13*
X232544000Y-111760000D03*
D14*
X220345000Y-65024000D03*
D13*
X227845000Y-65024000D03*
D14*
X78740000Y-64770000D03*
D13*
X86240000Y-64770000D03*
X233941000Y-91948000D03*
D14*
X226441000Y-91948000D03*
D20*
X111760000Y-115570000D03*
X140970000Y-89662000D03*
D17*
X116081000Y-80293000D03*
X116331000Y-85670000D03*
X113335000Y-76416000D03*
X108077000Y-74662000D03*
X103073000Y-76162000D03*
X100073000Y-80166000D03*
X99950000Y-85797000D03*
X113284000Y-90044000D03*
X102870000Y-89917000D03*
D11*
X78867000Y-90932000D03*
X83867000Y-90932000D03*
X104140000Y-105410000D03*
X104140000Y-100410000D03*
D21*
X194019999Y-90264000D03*
D22*
X204179999Y-90264000D03*
X194019999Y-83279000D03*
D21*
X204179999Y-83279000D03*
X194019999Y-76294000D03*
D22*
X204179999Y-76294000D03*
X194019999Y-69309000D03*
D21*
X204179999Y-69309000D03*
D10*
X72898000Y-111125000D03*
D11*
X72898000Y-121285000D03*
D10*
X63119000Y-107950000D03*
D11*
X63119000Y-97790000D03*
D10*
X81280000Y-97790000D03*
D11*
X81280000Y-107950000D03*
X52197000Y-96520000D03*
D10*
X52197000Y-86360000D03*
D11*
X96520000Y-97790000D03*
D10*
X96520000Y-107950000D03*
X58420000Y-68580000D03*
D11*
X58420000Y-58420000D03*
D10*
X67310000Y-58420000D03*
D11*
X67310000Y-68580000D03*
X93218000Y-77470000D03*
D10*
X93218000Y-87630000D03*
D11*
X96520000Y-58420000D03*
D10*
X96520000Y-68580000D03*
X127127000Y-85852000D03*
D11*
X127127000Y-75692000D03*
D10*
X134239000Y-79756000D03*
D11*
X134239000Y-89916000D03*
D10*
X198501000Y-99441000D03*
D11*
X198501000Y-109601000D03*
X106680000Y-58420000D03*
D10*
X106680000Y-68580000D03*
D11*
X161290000Y-114300000D03*
D10*
X161290000Y-104140000D03*
D11*
X183388000Y-104267000D03*
D10*
X183388000Y-114427000D03*
X177165000Y-99187000D03*
D11*
X187325000Y-99187000D03*
D10*
X157861000Y-66929000D03*
D11*
X147701000Y-66929000D03*
X163068000Y-66929000D03*
D10*
X173228000Y-66929000D03*
D17*
X158623000Y-90170000D03*
X169037000Y-90297000D03*
X155703000Y-86050000D03*
X155826000Y-80419000D03*
X158826000Y-76415000D03*
X163830000Y-74915000D03*
X169088000Y-76669000D03*
X172084000Y-85923000D03*
X171834000Y-80546000D03*
D18*
X210312000Y-59944000D03*
D19*
X205312000Y-59944000D03*
X165180000Y-59944000D03*
D18*
X170180000Y-59944000D03*
D20*
X191262000Y-106045000D03*
X111760000Y-58420000D03*
X81661000Y-85344000D03*
X179578000Y-81153000D03*
D11*
X119634000Y-90551000D03*
D10*
X129794000Y-90551000D03*
D11*
X119761000Y-98044000D03*
D10*
X129921000Y-98044000D03*
D23*
X196900000Y-128500000D03*
X201900000Y-128500000D03*
X206900000Y-128500000D03*
X112936000Y-128500000D03*
X117936000Y-128500000D03*
X122936000Y-128500000D03*
X234900000Y-128500000D03*
X229900000Y-128500000D03*
X224900000Y-128500000D03*
X168900000Y-128500000D03*
X173900000Y-128500000D03*
X178900000Y-128500000D03*
X150900000Y-128500000D03*
X145900000Y-128500000D03*
X140900000Y-128500000D03*
D13*
X186563000Y-63881000D03*
D12*
X186563000Y-79121000D03*
D11*
X151130000Y-118110000D03*
D10*
X140970000Y-118110000D03*
D24*
X177546000Y-59817000D03*
D11*
X181046000Y-59817000D03*
D18*
X148463000Y-59944000D03*
D19*
X143463000Y-59944000D03*
D25*
X192297260Y-125253270D03*
X107950000Y-106680000D03*
X157599938Y-127902813D03*
X138032999Y-73541989D03*
X82550000Y-73025000D03*
X96393000Y-81534000D03*
D26*
X170069999Y-127330001D02*
X168900000Y-128500000D01*
X170820001Y-126579999D02*
X170069999Y-127330001D01*
X206900000Y-128524000D02*
X204955999Y-126579999D01*
X204955999Y-126579999D02*
X170820001Y-126579999D01*
D27*
X150900000Y-113260000D02*
X151130000Y-113030000D01*
D26*
X150900000Y-125960000D02*
X150900000Y-128500000D01*
X150130001Y-114029999D02*
X150130001Y-114069999D01*
X151130000Y-113030000D02*
X150130001Y-114029999D01*
X150130001Y-114069999D02*
X147700000Y-116500000D01*
X147700000Y-116500000D02*
X147700000Y-122440000D01*
X150880000Y-125620000D02*
X150900000Y-125960000D01*
X150546730Y-125253270D02*
X150530000Y-125270000D01*
X192297260Y-125253270D02*
X150546730Y-125253270D01*
X147700000Y-122440000D02*
X150530000Y-125270000D01*
X150530000Y-125270000D02*
X150880000Y-125620000D01*
X93878680Y-114700000D02*
X90738680Y-117840000D01*
X96000000Y-114700000D02*
X93878680Y-114700000D01*
X90738680Y-117840000D02*
X77520000Y-117840000D01*
X77520000Y-117840000D02*
X76380000Y-116700000D01*
X76380000Y-109534000D02*
X73660000Y-106814000D01*
X76380000Y-116700000D02*
X76380000Y-109534000D01*
X73660000Y-99314000D02*
X73659999Y-91312999D01*
X73659999Y-91312999D02*
X72390000Y-90043000D01*
X74040998Y-90932000D02*
X73659999Y-91312999D01*
X78867000Y-90932000D02*
X74040998Y-90932000D01*
X83820000Y-97790000D02*
X83820000Y-90043000D01*
X83820000Y-90043000D02*
X82296000Y-88519000D01*
X78514651Y-80292651D02*
X75187000Y-80292000D01*
X80010000Y-81280000D02*
X78514651Y-80292651D01*
X80010000Y-87122000D02*
X80010000Y-81280000D01*
X82296000Y-88519000D02*
X81407000Y-88519000D01*
X81407000Y-88519000D02*
X80010000Y-87122000D01*
X81280000Y-97790000D02*
X83820000Y-97790000D01*
X87376000Y-97790000D02*
X88900000Y-96266000D01*
X83820000Y-97790000D02*
X87376000Y-97790000D01*
X66400000Y-114300000D02*
X66000000Y-114700000D01*
X101600000Y-107950000D02*
X104140000Y-105410000D01*
X96520000Y-107950000D02*
X101600000Y-107950000D01*
X81299999Y-113200001D02*
X87869999Y-113200001D01*
X79800000Y-114700000D02*
X81299999Y-113200001D01*
X87869999Y-113200001D02*
X90920000Y-110150000D01*
X94320000Y-110150000D02*
X96520000Y-107950000D01*
X90920000Y-110150000D02*
X94320000Y-110150000D01*
X101520000Y-97790000D02*
X96520000Y-97790000D01*
X104140000Y-100410000D02*
X101520000Y-97790000D01*
X104220000Y-100330000D02*
X104140000Y-100410000D01*
X111680000Y-100410000D02*
X111760000Y-100330000D01*
X104140000Y-100410000D02*
X111680000Y-100410000D01*
X112936000Y-128500000D02*
X105410000Y-120974000D01*
X105410000Y-109220000D02*
X107950000Y-106680000D01*
X105410000Y-120974000D02*
X105410000Y-109220000D01*
X88138000Y-79375000D02*
X88138000Y-82550000D01*
X88138000Y-79375000D02*
X89535000Y-77978000D01*
X65405000Y-68580000D02*
X67310000Y-68580000D01*
X62103000Y-76162000D02*
X62103000Y-71882000D01*
X62103000Y-71882000D02*
X65405000Y-68580000D01*
X81273000Y-77018500D02*
X81273000Y-77978000D01*
X67310000Y-68580000D02*
X72834500Y-68580000D01*
X72834500Y-68580000D02*
X81273000Y-77018500D01*
D28*
X148428000Y-59817000D02*
X148428000Y-60763000D01*
X215138000Y-67310000D02*
X215138000Y-75184000D01*
X216027000Y-66421000D02*
X215138000Y-67310000D01*
X218059000Y-75184000D02*
X221742000Y-78867000D01*
X215138000Y-75184000D02*
X218059000Y-75184000D01*
X218145000Y-65024000D02*
X216027000Y-65024000D01*
X220345000Y-65024000D02*
X218145000Y-65024000D01*
X216027000Y-66421000D02*
X216027000Y-65024000D01*
X148463000Y-60071000D02*
X148463000Y-59944000D01*
X150666001Y-62274001D02*
X148463000Y-60071000D01*
X157811001Y-62274001D02*
X150666001Y-62274001D01*
X216027000Y-58166000D02*
X213868000Y-56127010D01*
X216027000Y-65024000D02*
X216027000Y-58166000D01*
X213868000Y-56127010D02*
X162439990Y-56127010D01*
X162439990Y-56127010D02*
X160782000Y-57785000D01*
X160782000Y-57785000D02*
X160782000Y-59303002D01*
X160782000Y-59303002D02*
X157811001Y-62274001D01*
D26*
X93218000Y-82470000D02*
X93218000Y-77470000D01*
X92924000Y-82764000D02*
X93218000Y-82470000D01*
X88138000Y-87804000D02*
X92924000Y-82764000D01*
X93218000Y-71882000D02*
X96520000Y-68580000D01*
X93218000Y-77470000D02*
X93218000Y-71882000D01*
D28*
X202322630Y-104394000D02*
X212598000Y-104394000D01*
X198501000Y-99441000D02*
X198501000Y-100572370D01*
X198501000Y-100572370D02*
X202322630Y-104394000D01*
X198247000Y-99187000D02*
X198501000Y-99441000D01*
X187325000Y-99187000D02*
X198247000Y-99187000D01*
X212598000Y-103124000D02*
X215138000Y-100584000D01*
X212598000Y-104394000D02*
X212598000Y-103124000D01*
X212598000Y-106299000D02*
X218059000Y-111760000D01*
X212598000Y-104394000D02*
X212598000Y-106299000D01*
X218059000Y-111760000D02*
X225044000Y-111760000D01*
D26*
X169672000Y-106172000D02*
X171450000Y-105537000D01*
X161290000Y-114300000D02*
X169672000Y-106172000D01*
X152544213Y-106172000D02*
X156083000Y-109710787D01*
X151130000Y-105530000D02*
X152544213Y-106172000D01*
X161290000Y-114300000D02*
X156083000Y-109728000D01*
X154813000Y-104140000D02*
X161290000Y-104140000D01*
X153162000Y-102235000D02*
X154813000Y-104140000D01*
X145535000Y-105530000D02*
X148463000Y-102235000D01*
X148463000Y-102235000D02*
X153162000Y-102235000D01*
X140970000Y-105530000D02*
X145535000Y-105530000D01*
X139555787Y-105530000D02*
X140970000Y-105530000D01*
X135767630Y-105530000D02*
X139555787Y-105530000D01*
X129921000Y-99683370D02*
X135767630Y-105530000D01*
X129921000Y-98552000D02*
X129921000Y-99683370D01*
X140900000Y-128500000D02*
X136800000Y-124400000D01*
X136800000Y-117200000D02*
X140970000Y-113030000D01*
X136800000Y-124400000D02*
X136800000Y-117200000D01*
D28*
X204179999Y-90264000D02*
X204179999Y-83279000D01*
X208186000Y-83279000D02*
X204179999Y-83279000D01*
X210359000Y-59944000D02*
X210359000Y-81106000D01*
X210359000Y-81106000D02*
X208186000Y-83279000D01*
X204179999Y-76294000D02*
X204179999Y-69309000D01*
X204179999Y-69309000D02*
X204179999Y-65187001D01*
X205359000Y-64008000D02*
X205359000Y-59944000D01*
X204179999Y-65187001D02*
X205359000Y-64008000D01*
X143383000Y-72136000D02*
X143383000Y-59817000D01*
X155826000Y-80419000D02*
X147061473Y-74680527D01*
X147061473Y-74680527D02*
X143383000Y-72136000D01*
D26*
X160253125Y-130556000D02*
X157599938Y-127902813D01*
X223144000Y-130556000D02*
X160253125Y-130556000D01*
X223730001Y-130169999D02*
X223144000Y-130556000D01*
X224900000Y-128500000D02*
X224000000Y-129900000D01*
X224000000Y-129900000D02*
X223730001Y-130169999D01*
X63918999Y-96990001D02*
X63918999Y-93815001D01*
X63119000Y-97790000D02*
X63918999Y-96990001D01*
X72065000Y-85669000D02*
X75437000Y-85669000D01*
X63918999Y-93815001D02*
X72065000Y-85669000D01*
X127000000Y-85725000D02*
X127127000Y-85852000D01*
X126111000Y-85725000D02*
X127000000Y-85725000D01*
X116081000Y-80293000D02*
X120679000Y-80293000D01*
X120679000Y-80293000D02*
X126111000Y-85725000D01*
X131953000Y-90551000D02*
X134239000Y-89916000D01*
X129794000Y-90551000D02*
X131953000Y-90551000D01*
X114553999Y-91313999D02*
X113284000Y-90044000D01*
X117759990Y-94519990D02*
X114553999Y-91313999D01*
X129794000Y-90551000D02*
X124618990Y-94519990D01*
X124618990Y-94519990D02*
X117759990Y-94519990D01*
X163576000Y-95123000D02*
X158623000Y-90170000D01*
X171704000Y-95123000D02*
X163576000Y-95123000D01*
X175768000Y-99187000D02*
X171704000Y-95123000D01*
X175768000Y-99187000D02*
X177165000Y-99187000D01*
X66040000Y-111125000D02*
X66000000Y-111085000D01*
X72898000Y-111125000D02*
X66040000Y-111125000D01*
X66000000Y-111085000D02*
X63119000Y-107950000D01*
X56550000Y-107950000D02*
X63119000Y-107950000D01*
X49800000Y-114700000D02*
X56550000Y-107950000D01*
D28*
X194019999Y-92164000D02*
X194019999Y-90264000D01*
X196216999Y-94361000D02*
X194019999Y-92164000D01*
X209169000Y-94361000D02*
X196216999Y-94361000D01*
X196055000Y-76294000D02*
X194019999Y-76294000D01*
X199136000Y-79375000D02*
X196055000Y-76294000D01*
X199136000Y-87047999D02*
X199136000Y-79375000D01*
X194019999Y-90264000D02*
X195919999Y-90264000D01*
X195919999Y-90264000D02*
X199136000Y-87047999D01*
X208153000Y-94615000D02*
X210185000Y-94615000D01*
X212852000Y-91948000D02*
X226441000Y-91948000D01*
X210185000Y-94615000D02*
X212852000Y-91948000D01*
X226441000Y-89408000D02*
X236982000Y-78867000D01*
X226441000Y-91948000D02*
X226441000Y-89408000D01*
D26*
X104546000Y-71374000D02*
X113030000Y-71374000D01*
X122428000Y-64770000D02*
X127000000Y-64770000D01*
X116840000Y-68580000D02*
X122428000Y-64770000D01*
X103073000Y-72593000D02*
X104546000Y-71374000D01*
X103073000Y-76162000D02*
X103073000Y-72593000D01*
X113030000Y-71374000D02*
X116840000Y-68580000D01*
X132158396Y-68755604D02*
X127000000Y-64770000D01*
X134239000Y-79756000D02*
X134239000Y-70836208D01*
X164592000Y-101854000D02*
X158559500Y-95758000D01*
X139954000Y-95758000D02*
X137414000Y-93218000D01*
X158559500Y-95758000D02*
X139954000Y-95758000D01*
X137414000Y-93218000D02*
X137414000Y-82931000D01*
X137414000Y-82931000D02*
X134239000Y-79756000D01*
X197369630Y-109601000D02*
X197242630Y-109474000D01*
X198501000Y-109601000D02*
X197369630Y-109601000D01*
X197242630Y-109474000D02*
X181610000Y-109474000D01*
X181610000Y-109474000D02*
X173990000Y-101854000D01*
X173990000Y-101854000D02*
X164592000Y-101854000D01*
X134239000Y-70836208D02*
X132158396Y-68755604D01*
X54737000Y-63500000D02*
X52197000Y-66040000D01*
X52197000Y-66040000D02*
X52197000Y-86360000D01*
X62230000Y-63500000D02*
X54737000Y-63500000D01*
X67310000Y-58420000D02*
X62230000Y-63500000D01*
X116840000Y-60071000D02*
X116840000Y-58420000D01*
X115189000Y-61722000D02*
X116840000Y-60071000D01*
X91186000Y-61722000D02*
X115189000Y-61722000D01*
X89789000Y-60325000D02*
X91186000Y-61722000D01*
X83947000Y-60325000D02*
X89789000Y-60325000D01*
X68580000Y-58420000D02*
X74930000Y-64770000D01*
X67310000Y-58420000D02*
X68580000Y-58420000D01*
X74930000Y-64770000D02*
X79540000Y-64770000D01*
X79540000Y-64770000D02*
X82080000Y-62230000D01*
X82080000Y-62230000D02*
X82080000Y-62192000D01*
X82080000Y-62192000D02*
X83947000Y-60325000D01*
D27*
X165180000Y-61782477D02*
X165100000Y-61862477D01*
X165180000Y-59944000D02*
X165180000Y-61782477D01*
X165100000Y-64897000D02*
X163068000Y-66929000D01*
X165100000Y-61862477D02*
X165100000Y-64897000D01*
X170180000Y-75577000D02*
X169088000Y-76669000D01*
X170180000Y-69342000D02*
X170180000Y-70993000D01*
X170180000Y-59944000D02*
X170180000Y-69342000D01*
X170180000Y-70866000D02*
X159639000Y-70866000D01*
X170180000Y-70866000D02*
X170180000Y-75577000D01*
X170180000Y-69342000D02*
X170180000Y-70866000D01*
X157861000Y-69088000D02*
X157861000Y-66929000D01*
X159639000Y-70866000D02*
X157861000Y-69088000D01*
X114820110Y-64389000D02*
X95885000Y-64389000D01*
X138032999Y-72332097D02*
X129575001Y-63874099D01*
X138032999Y-73541989D02*
X138032999Y-72332097D01*
X129575001Y-63874099D02*
X129575001Y-62469999D01*
X129575001Y-62469999D02*
X129300001Y-62194999D01*
X129300001Y-62194999D02*
X117014111Y-62194999D01*
X117014111Y-62194999D02*
X114820110Y-64389000D01*
X95885000Y-64389000D02*
X95758000Y-64389000D01*
X95758000Y-64389000D02*
X87122000Y-73025000D01*
X87122000Y-73025000D02*
X82550000Y-73025000D01*
D26*
X178760000Y-85923000D02*
X172084000Y-85923000D01*
X183388000Y-104267000D02*
X183388000Y-90551000D01*
X183388000Y-90551000D02*
X178760000Y-85923000D01*
D28*
X177546000Y-74834000D02*
X177546000Y-59817000D01*
X171834000Y-80546000D02*
X177546000Y-74834000D01*
X180633001Y-77921001D02*
X177546000Y-74834000D01*
X185363001Y-77921001D02*
X180633001Y-77921001D01*
X186563000Y-79121000D02*
X185363001Y-77921001D01*
D26*
X96393000Y-75184000D02*
X102997000Y-68580000D01*
X102997000Y-68580000D02*
X105548630Y-68580000D01*
X105548630Y-68580000D02*
X106680000Y-68580000D01*
X96393000Y-81534000D02*
X96393000Y-75184000D01*
X119507000Y-98298000D02*
X119761000Y-98552000D01*
X115951000Y-95885000D02*
X120015000Y-98298000D01*
X110744000Y-95885000D02*
X115951000Y-95885000D01*
X107950000Y-93091000D02*
X110744000Y-95885000D01*
X107950000Y-88138000D02*
X107950000Y-93091000D01*
X99950000Y-85797000D02*
X105609000Y-85797000D01*
X105609000Y-85797000D02*
X107950000Y-88138000D01*
X55880000Y-82550000D02*
X59250000Y-80166000D01*
X55880000Y-94996000D02*
X55880000Y-82550000D01*
X59436000Y-98552000D02*
X55880000Y-94996000D01*
X59436000Y-102108000D02*
X59436000Y-98552000D01*
X61468000Y-104140000D02*
X59436000Y-102108000D01*
X82804000Y-104140000D02*
X61468000Y-104140000D01*
X95758000Y-102870000D02*
X91440000Y-107188000D01*
X91440000Y-107188000D02*
X85852000Y-107188000D01*
X85852000Y-107188000D02*
X82804000Y-104140000D01*
X111760000Y-105330000D02*
X111760000Y-104198630D01*
X111760000Y-104198630D02*
X110431370Y-102870000D01*
X110431370Y-102870000D02*
X95758000Y-102870000D01*
X117936000Y-109013000D02*
X117936000Y-128500000D01*
X114427000Y-105316000D02*
X117936000Y-109013000D01*
X111760000Y-105283000D02*
X114427000Y-105283000D01*
X114427000Y-105283000D02*
X114427000Y-105316000D01*
X186379959Y-117418959D02*
X199898000Y-117418959D01*
X183388000Y-114427000D02*
X186379959Y-117418959D01*
X229900000Y-126845371D02*
X225355629Y-122301000D01*
X229900000Y-128500000D02*
X229900000Y-126845371D01*
X204780041Y-122301000D02*
X199898000Y-117418959D01*
X225355629Y-122301000D02*
X204780041Y-122301000D01*
M02*
