M48
; DRILL file {KiCad (5.1.4)-1} date 08/03/2020 21:51:12
; FORMAT={-:-/ absolute / inch / decimal}
; #@! TF.CreationDate,2020-03-08T21:51:12+01:00
; #@! TF.GenerationSoftware,Kicad,Pcbnew,(5.1.4)-1
; #@! TF.FileFunction,Plated,1,2,PTH
FMAT,2
INCH
T1C0.0157
T2C0.0315
T3C0.0354
T4C0.0394
T5C0.0472
T6C0.0512
T7C0.0560
T8C0.0591
%
G90
G05
T1
X3.25Y-2.875
X3.795Y-3.21
X4.25Y-4.2
X5.4344Y-2.8954
X6.2047Y-5.0355
X7.5708Y-4.9312
T2
X6.42Y-2.635
X6.82Y-2.635
X3.47Y-3.26
X3.47Y-3.4569
X2.65Y-2.3
X2.65Y-2.7
X5.005Y-2.98
X5.005Y-3.38
X4.2Y-2.3
X4.2Y-2.7
X4.6Y-2.3
X4.6Y-2.7
X4.715Y-3.86
X5.115Y-3.86
X6.35Y-4.1
X6.35Y-4.5
X3.2Y-3.85
X3.2Y-4.25
X5.55Y-4.65
X5.95Y-4.65
X5.815Y-2.635
X6.215Y-2.635
X2.3Y-2.3
X2.3Y-2.7
X3.8Y-2.3
X3.8Y-2.7
X7.815Y-3.915
X7.815Y-4.315
X4.71Y-3.565
X5.11Y-3.565
X2.485Y-3.85
X2.485Y-4.25
X6.975Y-3.905
X7.375Y-3.905
X3.8Y-3.85
X3.8Y-4.25
X4.1Y-3.9531
X4.1Y-4.15
X4.4Y-3.95
X4.4Y-4.1469
X3.67Y-3.05
X3.67Y-3.45
X5.285Y-3.14
X5.285Y-3.54
X2.87Y-4.375
X2.87Y-4.775
X7.22Y-4.105
X7.22Y-4.505
X2.055Y-3.4
X2.055Y-3.8
X3.105Y-3.58
X3.3019Y-3.58
X6.99Y-2.355
X7.1278Y-2.355
T3
X7.6386Y-3.5537
X8.0386Y-3.5537
X7.6386Y-2.7287
X8.0386Y-2.7287
X7.6386Y-3.0037
X8.0386Y-3.0037
X7.6386Y-3.2787
X8.0386Y-3.2787
T4
X6.75Y-4.155
X6.75Y-4.4503
X3.215Y-3.36
X2.9Y-3.91
X2.9Y-4.2053
X5.95Y-4.1547
X5.95Y-4.45
X4.4Y-2.3
X3.5Y-3.79
X3.5Y-4.0853
X5.55Y-3.53
X7.53Y-4.175
X3.1997Y-3.07
X3.495Y-3.07
X7.07Y-3.195
X5.55Y-4.1547
X5.55Y-4.45
X4.4Y-4.55
T5
X8.47Y-2.96
X8.47Y-3.96
X7.345Y-2.515
X7.345Y-3.115
X3.1Y-2.55
X3.3953Y-2.55
X8.73Y-3.105
X9.33Y-3.105
X5.0Y-2.55
X5.2953Y-2.55
X8.675Y-2.56
X8.9703Y-2.56
X8.195Y-3.725
X8.195Y-4.325
X8.86Y-4.4
X9.1553Y-4.4
X8.915Y-3.62
X9.2103Y-3.62
T6
X6.6496Y-5.0591
X6.8465Y-5.0591
X7.0433Y-5.0591
X8.8543Y-5.0591
X9.0512Y-5.0591
X9.248Y-5.0591
X8.0831Y-2.36
X8.28Y-2.36
X4.4463Y-5.0591
X4.6431Y-5.0591
X4.84Y-5.0591
X7.5781Y-2.36
X7.775Y-2.36
X5.6481Y-2.36
X5.845Y-2.36
X5.5472Y-5.0591
X5.7441Y-5.0591
X5.9409Y-5.0591
X7.752Y-5.0591
X7.9488Y-5.0591
X8.1457Y-5.0591
X6.5031Y-2.36
X6.7Y-2.36
T7
X3.935Y-3.3778
X3.9399Y-3.1561
X4.05Y-3.54
X4.058Y-2.9985
X4.255Y-2.9394
X4.46Y-3.545
X4.462Y-3.0085
X4.5701Y-3.1611
X4.58Y-3.3728
X2.325Y-3.3778
X2.3299Y-3.1561
X2.44Y-3.54
X2.448Y-2.9985
X2.645Y-2.9394
X2.85Y-3.545
X2.852Y-3.0085
X2.9601Y-3.1611
X2.97Y-3.3728
X6.13Y-3.3878
X6.1349Y-3.1661
X6.245Y-3.55
X6.253Y-3.0085
X6.45Y-2.9494
X6.655Y-3.555
X6.657Y-3.0185
X6.7651Y-3.1711
X6.775Y-3.3828
T8
X3.1417Y-4.5157
X3.1417Y-4.7638
X3.1417Y-5.0118
X3.7795Y-4.5157
X3.7795Y-4.7638
X3.7795Y-5.0118
X1.9606Y-4.5157
X1.9606Y-4.7638
X1.9606Y-5.0118
X2.5984Y-4.5157
X2.5984Y-4.7638
X2.5984Y-5.0118
T0
M30
