G04 #@! TF.GenerationSoftware,KiCad,Pcbnew,(5.1.4)-1*
G04 #@! TF.CreationDate,2020-09-09T00:44:47+02:00*
G04 #@! TF.ProjectId,JCM800,4a434d38-3030-42e6-9b69-6361645f7063,0.2*
G04 #@! TF.SameCoordinates,Original*
G04 #@! TF.FileFunction,Legend,Top*
G04 #@! TF.FilePolarity,Positive*
%FSLAX46Y46*%
G04 Gerber Fmt 4.6, Leading zero omitted, Abs format (unit mm)*
G04 Created by KiCad (PCBNEW (5.1.4)-1) date 2020-09-09 00:44:47*
%MOMM*%
%LPD*%
G04 APERTURE LIST*
%ADD10C,0.400000*%
%ADD11C,0.150000*%
%ADD12C,0.304800*%
%ADD13C,0.127000*%
%ADD14C,0.200000*%
%ADD15C,0.050000*%
G04 APERTURE END LIST*
D10*
X74551285Y-110585523D02*
X76837000Y-110585523D01*
X75694142Y-114585523D02*
X75694142Y-110585523D01*
X78170333Y-114585523D02*
X78170333Y-110585523D01*
X79884619Y-114585523D02*
X79884619Y-112490285D01*
X79694142Y-112109333D01*
X79313190Y-111918857D01*
X78741761Y-111918857D01*
X78360809Y-112109333D01*
X78170333Y-112299809D01*
X81789380Y-114585523D02*
X81789380Y-111918857D01*
X81789380Y-110585523D02*
X81598904Y-110776000D01*
X81789380Y-110966476D01*
X81979857Y-110776000D01*
X81789380Y-110585523D01*
X81789380Y-110966476D01*
X83503666Y-114395047D02*
X83884619Y-114585523D01*
X84646523Y-114585523D01*
X85027476Y-114395047D01*
X85217952Y-114014095D01*
X85217952Y-113823619D01*
X85027476Y-113442666D01*
X84646523Y-113252190D01*
X84075095Y-113252190D01*
X83694142Y-113061714D01*
X83503666Y-112680761D01*
X83503666Y-112490285D01*
X83694142Y-112109333D01*
X84075095Y-111918857D01*
X84646523Y-111918857D01*
X85027476Y-112109333D01*
X89789380Y-114395047D02*
X90170333Y-114585523D01*
X90932238Y-114585523D01*
X91313190Y-114395047D01*
X91503666Y-114014095D01*
X91503666Y-113823619D01*
X91313190Y-113442666D01*
X90932238Y-113252190D01*
X90360809Y-113252190D01*
X89979857Y-113061714D01*
X89789380Y-112680761D01*
X89789380Y-112490285D01*
X89979857Y-112109333D01*
X90360809Y-111918857D01*
X90932238Y-111918857D01*
X91313190Y-112109333D01*
X93217952Y-114585523D02*
X93217952Y-111918857D01*
X93217952Y-110585523D02*
X93027476Y-110776000D01*
X93217952Y-110966476D01*
X93408428Y-110776000D01*
X93217952Y-110585523D01*
X93217952Y-110966476D01*
X96837000Y-114585523D02*
X96837000Y-110585523D01*
X96837000Y-114395047D02*
X96456047Y-114585523D01*
X95694142Y-114585523D01*
X95313190Y-114395047D01*
X95122714Y-114204571D01*
X94932238Y-113823619D01*
X94932238Y-112680761D01*
X95122714Y-112299809D01*
X95313190Y-112109333D01*
X95694142Y-111918857D01*
X96456047Y-111918857D01*
X96837000Y-112109333D01*
X100265571Y-114395047D02*
X99884619Y-114585523D01*
X99122714Y-114585523D01*
X98741761Y-114395047D01*
X98551285Y-114014095D01*
X98551285Y-112490285D01*
X98741761Y-112109333D01*
X99122714Y-111918857D01*
X99884619Y-111918857D01*
X100265571Y-112109333D01*
X100456047Y-112490285D01*
X100456047Y-112871238D01*
X98551285Y-113252190D01*
X106932238Y-111918857D02*
X106932238Y-114585523D01*
X105217952Y-111918857D02*
X105217952Y-114014095D01*
X105408428Y-114395047D01*
X105789380Y-114585523D01*
X106360809Y-114585523D01*
X106741761Y-114395047D01*
X106932238Y-114204571D01*
X108837000Y-111918857D02*
X108837000Y-115918857D01*
X108837000Y-112109333D02*
X109217952Y-111918857D01*
X109979857Y-111918857D01*
X110360809Y-112109333D01*
X110551285Y-112299809D01*
X110741761Y-112680761D01*
X110741761Y-113823619D01*
X110551285Y-114204571D01*
X110360809Y-114395047D01*
X109979857Y-114585523D01*
X109217952Y-114585523D01*
X108837000Y-114395047D01*
D11*
X271724380Y-102298380D02*
X270724380Y-102298380D01*
X271724380Y-101822190D02*
X270724380Y-101822190D01*
X271724380Y-101250761D01*
X270724380Y-101250761D01*
X270724380Y-100917428D02*
X271724380Y-100584095D01*
X270724380Y-100250761D01*
D12*
X217932000Y-81915000D02*
G75*
G03X217932000Y-81915000I-11430000J0D01*
G01*
D13*
X216484230Y-81915000D02*
G75*
G03X216484230Y-81915000I-9982230J0D01*
G01*
X51257230Y-81915000D02*
G75*
G03X51257230Y-81915000I-9982230J0D01*
G01*
D12*
X52705000Y-81915000D02*
G75*
G03X52705000Y-81915000I-11430000J0D01*
G01*
D13*
X92151230Y-81915000D02*
G75*
G03X92151230Y-81915000I-9982230J0D01*
G01*
D12*
X93599000Y-81915000D02*
G75*
G03X93599000Y-81915000I-11430000J0D01*
G01*
D13*
X133045230Y-81915000D02*
G75*
G03X133045230Y-81915000I-9982230J0D01*
G01*
D12*
X134493000Y-81915000D02*
G75*
G03X134493000Y-81915000I-11430000J0D01*
G01*
X176022000Y-81915000D02*
G75*
G03X176022000Y-81915000I-11430000J0D01*
G01*
D13*
X174574230Y-81915000D02*
G75*
G03X174574230Y-81915000I-9982230J0D01*
G01*
D14*
X204851190Y-67865761D02*
X204851190Y-69484809D01*
X204946428Y-69675285D01*
X205041666Y-69770523D01*
X205232142Y-69865761D01*
X205613095Y-69865761D01*
X205803571Y-69770523D01*
X205898809Y-69675285D01*
X205994047Y-69484809D01*
X205994047Y-67865761D01*
X207898809Y-67865761D02*
X206946428Y-67865761D01*
X206851190Y-68818142D01*
X206946428Y-68722904D01*
X207136904Y-68627666D01*
X207613095Y-68627666D01*
X207803571Y-68722904D01*
X207898809Y-68818142D01*
X207994047Y-69008619D01*
X207994047Y-69484809D01*
X207898809Y-69675285D01*
X207803571Y-69770523D01*
X207613095Y-69865761D01*
X207136904Y-69865761D01*
X206946428Y-69770523D01*
X206851190Y-69675285D01*
X203740142Y-95234142D02*
X204406809Y-95234142D01*
X204692523Y-96281761D02*
X203740142Y-96281761D01*
X203740142Y-94281761D01*
X204692523Y-94281761D01*
X206502047Y-96281761D02*
X205549666Y-96281761D01*
X205549666Y-94281761D01*
X207454428Y-95138904D02*
X207263952Y-95043666D01*
X207168714Y-94948428D01*
X207073476Y-94757952D01*
X207073476Y-94662714D01*
X207168714Y-94472238D01*
X207263952Y-94377000D01*
X207454428Y-94281761D01*
X207835380Y-94281761D01*
X208025857Y-94377000D01*
X208121095Y-94472238D01*
X208216333Y-94662714D01*
X208216333Y-94757952D01*
X208121095Y-94948428D01*
X208025857Y-95043666D01*
X207835380Y-95138904D01*
X207454428Y-95138904D01*
X207263952Y-95234142D01*
X207168714Y-95329380D01*
X207073476Y-95519857D01*
X207073476Y-95900809D01*
X207168714Y-96091285D01*
X207263952Y-96186523D01*
X207454428Y-96281761D01*
X207835380Y-96281761D01*
X208025857Y-96186523D01*
X208121095Y-96091285D01*
X208216333Y-95900809D01*
X208216333Y-95519857D01*
X208121095Y-95329380D01*
X208025857Y-95234142D01*
X207835380Y-95138904D01*
X209930619Y-94948428D02*
X209930619Y-96281761D01*
X209454428Y-94186523D02*
X208978238Y-95615095D01*
X210216333Y-95615095D01*
D15*
X199580523Y-91409780D02*
X199771000Y-91409780D01*
X199866238Y-91362161D01*
X199913857Y-91314542D01*
X200009095Y-91171685D01*
X200056714Y-90981209D01*
X200056714Y-90600257D01*
X200009095Y-90505019D01*
X199961476Y-90457400D01*
X199866238Y-90409780D01*
X199675761Y-90409780D01*
X199580523Y-90457400D01*
X199532904Y-90505019D01*
X199485285Y-90600257D01*
X199485285Y-90838352D01*
X199532904Y-90933590D01*
X199580523Y-90981209D01*
X199675761Y-91028828D01*
X199866238Y-91028828D01*
X199961476Y-90981209D01*
X200009095Y-90933590D01*
X200056714Y-90838352D01*
X196094361Y-85961552D02*
X195999123Y-85913933D01*
X195951504Y-85866314D01*
X195903885Y-85771076D01*
X195903885Y-85723457D01*
X195951504Y-85628219D01*
X195999123Y-85580600D01*
X196094361Y-85532980D01*
X196284838Y-85532980D01*
X196380076Y-85580600D01*
X196427695Y-85628219D01*
X196475314Y-85723457D01*
X196475314Y-85771076D01*
X196427695Y-85866314D01*
X196380076Y-85913933D01*
X196284838Y-85961552D01*
X196094361Y-85961552D01*
X195999123Y-86009171D01*
X195951504Y-86056790D01*
X195903885Y-86152028D01*
X195903885Y-86342504D01*
X195951504Y-86437742D01*
X195999123Y-86485361D01*
X196094361Y-86532980D01*
X196284838Y-86532980D01*
X196380076Y-86485361D01*
X196427695Y-86437742D01*
X196475314Y-86342504D01*
X196475314Y-86152028D01*
X196427695Y-86056790D01*
X196380076Y-86009171D01*
X196284838Y-85961552D01*
X195907066Y-78243180D02*
X196573733Y-78243180D01*
X196145161Y-79243180D01*
X200037676Y-73290180D02*
X199847200Y-73290180D01*
X199751961Y-73337800D01*
X199704342Y-73385419D01*
X199609104Y-73528276D01*
X199561485Y-73718752D01*
X199561485Y-74099704D01*
X199609104Y-74194942D01*
X199656723Y-74242561D01*
X199751961Y-74290180D01*
X199942438Y-74290180D01*
X200037676Y-74242561D01*
X200085295Y-74194942D01*
X200132914Y-74099704D01*
X200132914Y-73861609D01*
X200085295Y-73766371D01*
X200037676Y-73718752D01*
X199942438Y-73671133D01*
X199751961Y-73671133D01*
X199656723Y-73718752D01*
X199609104Y-73766371D01*
X199561485Y-73861609D01*
X206308295Y-71181980D02*
X205832104Y-71181980D01*
X205784485Y-71658171D01*
X205832104Y-71610552D01*
X205927342Y-71562933D01*
X206165438Y-71562933D01*
X206260676Y-71610552D01*
X206308295Y-71658171D01*
X206355914Y-71753409D01*
X206355914Y-71991504D01*
X206308295Y-72086742D01*
X206260676Y-72134361D01*
X206165438Y-72181980D01*
X205927342Y-72181980D01*
X205832104Y-72134361D01*
X205784485Y-72086742D01*
X213093276Y-74080714D02*
X213093276Y-74747380D01*
X212855180Y-73699761D02*
X212617085Y-74414047D01*
X213236133Y-74414047D01*
X215871466Y-78471780D02*
X216490514Y-78471780D01*
X216157180Y-78852733D01*
X216300038Y-78852733D01*
X216395276Y-78900352D01*
X216442895Y-78947971D01*
X216490514Y-79043209D01*
X216490514Y-79281304D01*
X216442895Y-79376542D01*
X216395276Y-79424161D01*
X216300038Y-79471780D01*
X216014323Y-79471780D01*
X215919085Y-79424161D01*
X215871466Y-79376542D01*
X215995285Y-85399619D02*
X216042904Y-85352000D01*
X216138142Y-85304380D01*
X216376238Y-85304380D01*
X216471476Y-85352000D01*
X216519095Y-85399619D01*
X216566714Y-85494857D01*
X216566714Y-85590095D01*
X216519095Y-85732952D01*
X215947666Y-86304380D01*
X216566714Y-86304380D01*
X212782114Y-91435180D02*
X212210685Y-91435180D01*
X212496400Y-91435180D02*
X212496400Y-90435180D01*
X212401161Y-90578038D01*
X212305923Y-90673276D01*
X212210685Y-90720895D01*
D11*
X189230095Y-126182380D02*
X189230095Y-125182380D01*
X189230095Y-125658571D02*
X189801523Y-125658571D01*
X189801523Y-126182380D02*
X189801523Y-125182380D01*
X190182476Y-125182380D02*
X190849142Y-125182380D01*
X190420571Y-126182380D01*
X121666095Y-57780380D02*
X121666095Y-56780380D01*
X121666095Y-57256571D02*
X122237523Y-57256571D01*
X122237523Y-57780380D02*
X122237523Y-56780380D01*
X123142285Y-56780380D02*
X122951809Y-56780380D01*
X122856571Y-56828000D01*
X122808952Y-56875619D01*
X122713714Y-57018476D01*
X122666095Y-57208952D01*
X122666095Y-57589904D01*
X122713714Y-57685142D01*
X122761333Y-57732761D01*
X122856571Y-57780380D01*
X123047047Y-57780380D01*
X123142285Y-57732761D01*
X123189904Y-57685142D01*
X123237523Y-57589904D01*
X123237523Y-57351809D01*
X123189904Y-57256571D01*
X123142285Y-57208952D01*
X123047047Y-57161333D01*
X122856571Y-57161333D01*
X122761333Y-57208952D01*
X122713714Y-57256571D01*
X122666095Y-57351809D01*
X105156095Y-126182380D02*
X105156095Y-125182380D01*
X105156095Y-125658571D02*
X105727523Y-125658571D01*
X105727523Y-126182380D02*
X105727523Y-125182380D01*
X106679904Y-125182380D02*
X106203714Y-125182380D01*
X106156095Y-125658571D01*
X106203714Y-125610952D01*
X106298952Y-125563333D01*
X106537047Y-125563333D01*
X106632285Y-125610952D01*
X106679904Y-125658571D01*
X106727523Y-125753809D01*
X106727523Y-125991904D01*
X106679904Y-126087142D01*
X106632285Y-126134761D01*
X106537047Y-126182380D01*
X106298952Y-126182380D01*
X106203714Y-126134761D01*
X106156095Y-126087142D01*
X46228095Y-126690380D02*
X46228095Y-125690380D01*
X46228095Y-126166571D02*
X46799523Y-126166571D01*
X46799523Y-126690380D02*
X46799523Y-125690380D01*
X47704285Y-126023714D02*
X47704285Y-126690380D01*
X47466190Y-125642761D02*
X47228095Y-126357047D01*
X47847142Y-126357047D01*
X272288095Y-57856380D02*
X272288095Y-56856380D01*
X272288095Y-57332571D02*
X272859523Y-57332571D01*
X272859523Y-57856380D02*
X272859523Y-56856380D01*
X273240476Y-56856380D02*
X273859523Y-56856380D01*
X273526190Y-57237333D01*
X273669047Y-57237333D01*
X273764285Y-57284952D01*
X273811904Y-57332571D01*
X273859523Y-57427809D01*
X273859523Y-57665904D01*
X273811904Y-57761142D01*
X273764285Y-57808761D01*
X273669047Y-57856380D01*
X273383333Y-57856380D01*
X273288095Y-57808761D01*
X273240476Y-57761142D01*
X156464095Y-57856380D02*
X156464095Y-56856380D01*
X156464095Y-57332571D02*
X157035523Y-57332571D01*
X157035523Y-57856380D02*
X157035523Y-56856380D01*
X157464095Y-56951619D02*
X157511714Y-56904000D01*
X157606952Y-56856380D01*
X157845047Y-56856380D01*
X157940285Y-56904000D01*
X157987904Y-56951619D01*
X158035523Y-57046857D01*
X158035523Y-57142095D01*
X157987904Y-57284952D01*
X157416476Y-57856380D01*
X158035523Y-57856380D01*
X22987095Y-57856380D02*
X22987095Y-56856380D01*
X22987095Y-57332571D02*
X23558523Y-57332571D01*
X23558523Y-57856380D02*
X23558523Y-56856380D01*
X24558523Y-57856380D02*
X23987095Y-57856380D01*
X24272809Y-57856380D02*
X24272809Y-56856380D01*
X24177571Y-56999238D01*
X24082333Y-57094476D01*
X23987095Y-57142095D01*
D14*
X45085190Y-68627761D02*
X45085190Y-70246809D01*
X45180428Y-70437285D01*
X45275666Y-70532523D01*
X45466142Y-70627761D01*
X45847095Y-70627761D01*
X46037571Y-70532523D01*
X46132809Y-70437285D01*
X46228047Y-70246809D01*
X46228047Y-68627761D01*
X48228047Y-70627761D02*
X47085190Y-70627761D01*
X47656619Y-70627761D02*
X47656619Y-68627761D01*
X47466142Y-68913476D01*
X47275666Y-69103952D01*
X47085190Y-69199190D01*
X40560952Y-94154761D02*
X40180000Y-94154761D01*
X39989523Y-94250000D01*
X39894285Y-94345238D01*
X39703809Y-94630952D01*
X39608571Y-95011904D01*
X39608571Y-95773809D01*
X39703809Y-95964285D01*
X39799047Y-96059523D01*
X39989523Y-96154761D01*
X40370476Y-96154761D01*
X40560952Y-96059523D01*
X40656190Y-95964285D01*
X40751428Y-95773809D01*
X40751428Y-95297619D01*
X40656190Y-95107142D01*
X40560952Y-95011904D01*
X40370476Y-94916666D01*
X39989523Y-94916666D01*
X39799047Y-95011904D01*
X39703809Y-95107142D01*
X39608571Y-95297619D01*
X41608571Y-96154761D02*
X41608571Y-94154761D01*
X42751428Y-96154761D01*
X42751428Y-94154761D01*
X43608571Y-94345238D02*
X43703809Y-94250000D01*
X43894285Y-94154761D01*
X44370476Y-94154761D01*
X44560952Y-94250000D01*
X44656190Y-94345238D01*
X44751428Y-94535714D01*
X44751428Y-94726190D01*
X44656190Y-95011904D01*
X43513333Y-96154761D01*
X44751428Y-96154761D01*
X45608571Y-96154761D02*
X45608571Y-94154761D01*
X46370476Y-94154761D01*
X46560952Y-94250000D01*
X46656190Y-94345238D01*
X46751428Y-94535714D01*
X46751428Y-94821428D01*
X46656190Y-95011904D01*
X46560952Y-95107142D01*
X46370476Y-95202380D01*
X45608571Y-95202380D01*
D15*
X47555114Y-91435180D02*
X46983685Y-91435180D01*
X47269400Y-91435180D02*
X47269400Y-90435180D01*
X47174161Y-90578038D01*
X47078923Y-90673276D01*
X46983685Y-90720895D01*
X50768285Y-85399619D02*
X50815904Y-85352000D01*
X50911142Y-85304380D01*
X51149238Y-85304380D01*
X51244476Y-85352000D01*
X51292095Y-85399619D01*
X51339714Y-85494857D01*
X51339714Y-85590095D01*
X51292095Y-85732952D01*
X50720666Y-86304380D01*
X51339714Y-86304380D01*
X50644466Y-78471780D02*
X51263514Y-78471780D01*
X50930180Y-78852733D01*
X51073038Y-78852733D01*
X51168276Y-78900352D01*
X51215895Y-78947971D01*
X51263514Y-79043209D01*
X51263514Y-79281304D01*
X51215895Y-79376542D01*
X51168276Y-79424161D01*
X51073038Y-79471780D01*
X50787323Y-79471780D01*
X50692085Y-79424161D01*
X50644466Y-79376542D01*
X47866276Y-74080714D02*
X47866276Y-74747380D01*
X47628180Y-73699761D02*
X47390085Y-74414047D01*
X48009133Y-74414047D01*
X41081295Y-71181980D02*
X40605104Y-71181980D01*
X40557485Y-71658171D01*
X40605104Y-71610552D01*
X40700342Y-71562933D01*
X40938438Y-71562933D01*
X41033676Y-71610552D01*
X41081295Y-71658171D01*
X41128914Y-71753409D01*
X41128914Y-71991504D01*
X41081295Y-72086742D01*
X41033676Y-72134361D01*
X40938438Y-72181980D01*
X40700342Y-72181980D01*
X40605104Y-72134361D01*
X40557485Y-72086742D01*
X34810676Y-73290180D02*
X34620200Y-73290180D01*
X34524961Y-73337800D01*
X34477342Y-73385419D01*
X34382104Y-73528276D01*
X34334485Y-73718752D01*
X34334485Y-74099704D01*
X34382104Y-74194942D01*
X34429723Y-74242561D01*
X34524961Y-74290180D01*
X34715438Y-74290180D01*
X34810676Y-74242561D01*
X34858295Y-74194942D01*
X34905914Y-74099704D01*
X34905914Y-73861609D01*
X34858295Y-73766371D01*
X34810676Y-73718752D01*
X34715438Y-73671133D01*
X34524961Y-73671133D01*
X34429723Y-73718752D01*
X34382104Y-73766371D01*
X34334485Y-73861609D01*
X30680066Y-78243180D02*
X31346733Y-78243180D01*
X30918161Y-79243180D01*
X30867361Y-85961552D02*
X30772123Y-85913933D01*
X30724504Y-85866314D01*
X30676885Y-85771076D01*
X30676885Y-85723457D01*
X30724504Y-85628219D01*
X30772123Y-85580600D01*
X30867361Y-85532980D01*
X31057838Y-85532980D01*
X31153076Y-85580600D01*
X31200695Y-85628219D01*
X31248314Y-85723457D01*
X31248314Y-85771076D01*
X31200695Y-85866314D01*
X31153076Y-85913933D01*
X31057838Y-85961552D01*
X30867361Y-85961552D01*
X30772123Y-86009171D01*
X30724504Y-86056790D01*
X30676885Y-86152028D01*
X30676885Y-86342504D01*
X30724504Y-86437742D01*
X30772123Y-86485361D01*
X30867361Y-86532980D01*
X31057838Y-86532980D01*
X31153076Y-86485361D01*
X31200695Y-86437742D01*
X31248314Y-86342504D01*
X31248314Y-86152028D01*
X31200695Y-86056790D01*
X31153076Y-86009171D01*
X31057838Y-85961552D01*
X34353523Y-91409780D02*
X34544000Y-91409780D01*
X34639238Y-91362161D01*
X34686857Y-91314542D01*
X34782095Y-91171685D01*
X34829714Y-90981209D01*
X34829714Y-90600257D01*
X34782095Y-90505019D01*
X34734476Y-90457400D01*
X34639238Y-90409780D01*
X34448761Y-90409780D01*
X34353523Y-90457400D01*
X34305904Y-90505019D01*
X34258285Y-90600257D01*
X34258285Y-90838352D01*
X34305904Y-90933590D01*
X34353523Y-90981209D01*
X34448761Y-91028828D01*
X34639238Y-91028828D01*
X34734476Y-90981209D01*
X34782095Y-90933590D01*
X34829714Y-90838352D01*
D14*
X90678190Y-71167761D02*
X90678190Y-72786809D01*
X90773428Y-72977285D01*
X90868666Y-73072523D01*
X91059142Y-73167761D01*
X91440095Y-73167761D01*
X91630571Y-73072523D01*
X91725809Y-72977285D01*
X91821047Y-72786809D01*
X91821047Y-71167761D01*
X92678190Y-71358238D02*
X92773428Y-71263000D01*
X92963904Y-71167761D01*
X93440095Y-71167761D01*
X93630571Y-71263000D01*
X93725809Y-71358238D01*
X93821047Y-71548714D01*
X93821047Y-71739190D01*
X93725809Y-72024904D01*
X92582952Y-73167761D01*
X93821047Y-73167761D01*
X79168952Y-94027761D02*
X78788000Y-94027761D01*
X78597523Y-94123000D01*
X78502285Y-94218238D01*
X78311809Y-94503952D01*
X78216571Y-94884904D01*
X78216571Y-95646809D01*
X78311809Y-95837285D01*
X78407047Y-95932523D01*
X78597523Y-96027761D01*
X78978476Y-96027761D01*
X79168952Y-95932523D01*
X79264190Y-95837285D01*
X79359428Y-95646809D01*
X79359428Y-95170619D01*
X79264190Y-94980142D01*
X79168952Y-94884904D01*
X78978476Y-94789666D01*
X78597523Y-94789666D01*
X78407047Y-94884904D01*
X78311809Y-94980142D01*
X78216571Y-95170619D01*
X80216571Y-96027761D02*
X80216571Y-94027761D01*
X81359428Y-96027761D01*
X81359428Y-94027761D01*
X82216571Y-94218238D02*
X82311809Y-94123000D01*
X82502285Y-94027761D01*
X82978476Y-94027761D01*
X83168952Y-94123000D01*
X83264190Y-94218238D01*
X83359428Y-94408714D01*
X83359428Y-94599190D01*
X83264190Y-94884904D01*
X82121333Y-96027761D01*
X83359428Y-96027761D01*
X84216571Y-96027761D02*
X84216571Y-94027761D01*
X84978476Y-94027761D01*
X85168952Y-94123000D01*
X85264190Y-94218238D01*
X85359428Y-94408714D01*
X85359428Y-94694428D01*
X85264190Y-94884904D01*
X85168952Y-94980142D01*
X84978476Y-95075380D01*
X84216571Y-95075380D01*
D15*
X88449114Y-91435180D02*
X87877685Y-91435180D01*
X88163400Y-91435180D02*
X88163400Y-90435180D01*
X88068161Y-90578038D01*
X87972923Y-90673276D01*
X87877685Y-90720895D01*
X91662285Y-85399619D02*
X91709904Y-85352000D01*
X91805142Y-85304380D01*
X92043238Y-85304380D01*
X92138476Y-85352000D01*
X92186095Y-85399619D01*
X92233714Y-85494857D01*
X92233714Y-85590095D01*
X92186095Y-85732952D01*
X91614666Y-86304380D01*
X92233714Y-86304380D01*
X91538466Y-78471780D02*
X92157514Y-78471780D01*
X91824180Y-78852733D01*
X91967038Y-78852733D01*
X92062276Y-78900352D01*
X92109895Y-78947971D01*
X92157514Y-79043209D01*
X92157514Y-79281304D01*
X92109895Y-79376542D01*
X92062276Y-79424161D01*
X91967038Y-79471780D01*
X91681323Y-79471780D01*
X91586085Y-79424161D01*
X91538466Y-79376542D01*
X88760276Y-74080714D02*
X88760276Y-74747380D01*
X88522180Y-73699761D02*
X88284085Y-74414047D01*
X88903133Y-74414047D01*
X81975295Y-71181980D02*
X81499104Y-71181980D01*
X81451485Y-71658171D01*
X81499104Y-71610552D01*
X81594342Y-71562933D01*
X81832438Y-71562933D01*
X81927676Y-71610552D01*
X81975295Y-71658171D01*
X82022914Y-71753409D01*
X82022914Y-71991504D01*
X81975295Y-72086742D01*
X81927676Y-72134361D01*
X81832438Y-72181980D01*
X81594342Y-72181980D01*
X81499104Y-72134361D01*
X81451485Y-72086742D01*
X75704676Y-73290180D02*
X75514200Y-73290180D01*
X75418961Y-73337800D01*
X75371342Y-73385419D01*
X75276104Y-73528276D01*
X75228485Y-73718752D01*
X75228485Y-74099704D01*
X75276104Y-74194942D01*
X75323723Y-74242561D01*
X75418961Y-74290180D01*
X75609438Y-74290180D01*
X75704676Y-74242561D01*
X75752295Y-74194942D01*
X75799914Y-74099704D01*
X75799914Y-73861609D01*
X75752295Y-73766371D01*
X75704676Y-73718752D01*
X75609438Y-73671133D01*
X75418961Y-73671133D01*
X75323723Y-73718752D01*
X75276104Y-73766371D01*
X75228485Y-73861609D01*
X71574066Y-78243180D02*
X72240733Y-78243180D01*
X71812161Y-79243180D01*
X71761361Y-85961552D02*
X71666123Y-85913933D01*
X71618504Y-85866314D01*
X71570885Y-85771076D01*
X71570885Y-85723457D01*
X71618504Y-85628219D01*
X71666123Y-85580600D01*
X71761361Y-85532980D01*
X71951838Y-85532980D01*
X72047076Y-85580600D01*
X72094695Y-85628219D01*
X72142314Y-85723457D01*
X72142314Y-85771076D01*
X72094695Y-85866314D01*
X72047076Y-85913933D01*
X71951838Y-85961552D01*
X71761361Y-85961552D01*
X71666123Y-86009171D01*
X71618504Y-86056790D01*
X71570885Y-86152028D01*
X71570885Y-86342504D01*
X71618504Y-86437742D01*
X71666123Y-86485361D01*
X71761361Y-86532980D01*
X71951838Y-86532980D01*
X72047076Y-86485361D01*
X72094695Y-86437742D01*
X72142314Y-86342504D01*
X72142314Y-86152028D01*
X72094695Y-86056790D01*
X72047076Y-86009171D01*
X71951838Y-85961552D01*
X75247523Y-91409780D02*
X75438000Y-91409780D01*
X75533238Y-91362161D01*
X75580857Y-91314542D01*
X75676095Y-91171685D01*
X75723714Y-90981209D01*
X75723714Y-90600257D01*
X75676095Y-90505019D01*
X75628476Y-90457400D01*
X75533238Y-90409780D01*
X75342761Y-90409780D01*
X75247523Y-90457400D01*
X75199904Y-90505019D01*
X75152285Y-90600257D01*
X75152285Y-90838352D01*
X75199904Y-90933590D01*
X75247523Y-90981209D01*
X75342761Y-91028828D01*
X75533238Y-91028828D01*
X75628476Y-90981209D01*
X75676095Y-90933590D01*
X75723714Y-90838352D01*
D14*
X130429190Y-70532761D02*
X130429190Y-72151809D01*
X130524428Y-72342285D01*
X130619666Y-72437523D01*
X130810142Y-72532761D01*
X131191095Y-72532761D01*
X131381571Y-72437523D01*
X131476809Y-72342285D01*
X131572047Y-72151809D01*
X131572047Y-70532761D01*
X132333952Y-70532761D02*
X133572047Y-70532761D01*
X132905380Y-71294666D01*
X133191095Y-71294666D01*
X133381571Y-71389904D01*
X133476809Y-71485142D01*
X133572047Y-71675619D01*
X133572047Y-72151809D01*
X133476809Y-72342285D01*
X133381571Y-72437523D01*
X133191095Y-72532761D01*
X132619666Y-72532761D01*
X132429190Y-72437523D01*
X132333952Y-72342285D01*
X120697952Y-94027761D02*
X120317000Y-94027761D01*
X120126523Y-94123000D01*
X120031285Y-94218238D01*
X119840809Y-94503952D01*
X119745571Y-94884904D01*
X119745571Y-95646809D01*
X119840809Y-95837285D01*
X119936047Y-95932523D01*
X120126523Y-96027761D01*
X120507476Y-96027761D01*
X120697952Y-95932523D01*
X120793190Y-95837285D01*
X120888428Y-95646809D01*
X120888428Y-95170619D01*
X120793190Y-94980142D01*
X120697952Y-94884904D01*
X120507476Y-94789666D01*
X120126523Y-94789666D01*
X119936047Y-94884904D01*
X119840809Y-94980142D01*
X119745571Y-95170619D01*
X121745571Y-96027761D02*
X121745571Y-94027761D01*
X122888428Y-96027761D01*
X122888428Y-94027761D01*
X123745571Y-94218238D02*
X123840809Y-94123000D01*
X124031285Y-94027761D01*
X124507476Y-94027761D01*
X124697952Y-94123000D01*
X124793190Y-94218238D01*
X124888428Y-94408714D01*
X124888428Y-94599190D01*
X124793190Y-94884904D01*
X123650333Y-96027761D01*
X124888428Y-96027761D01*
X125745571Y-96027761D02*
X125745571Y-94027761D01*
X126507476Y-94027761D01*
X126697952Y-94123000D01*
X126793190Y-94218238D01*
X126888428Y-94408714D01*
X126888428Y-94694428D01*
X126793190Y-94884904D01*
X126697952Y-94980142D01*
X126507476Y-95075380D01*
X125745571Y-95075380D01*
D15*
X129343114Y-91435180D02*
X128771685Y-91435180D01*
X129057400Y-91435180D02*
X129057400Y-90435180D01*
X128962161Y-90578038D01*
X128866923Y-90673276D01*
X128771685Y-90720895D01*
X132556285Y-85399619D02*
X132603904Y-85352000D01*
X132699142Y-85304380D01*
X132937238Y-85304380D01*
X133032476Y-85352000D01*
X133080095Y-85399619D01*
X133127714Y-85494857D01*
X133127714Y-85590095D01*
X133080095Y-85732952D01*
X132508666Y-86304380D01*
X133127714Y-86304380D01*
X132432466Y-78471780D02*
X133051514Y-78471780D01*
X132718180Y-78852733D01*
X132861038Y-78852733D01*
X132956276Y-78900352D01*
X133003895Y-78947971D01*
X133051514Y-79043209D01*
X133051514Y-79281304D01*
X133003895Y-79376542D01*
X132956276Y-79424161D01*
X132861038Y-79471780D01*
X132575323Y-79471780D01*
X132480085Y-79424161D01*
X132432466Y-79376542D01*
X129654276Y-74080714D02*
X129654276Y-74747380D01*
X129416180Y-73699761D02*
X129178085Y-74414047D01*
X129797133Y-74414047D01*
X122869295Y-71181980D02*
X122393104Y-71181980D01*
X122345485Y-71658171D01*
X122393104Y-71610552D01*
X122488342Y-71562933D01*
X122726438Y-71562933D01*
X122821676Y-71610552D01*
X122869295Y-71658171D01*
X122916914Y-71753409D01*
X122916914Y-71991504D01*
X122869295Y-72086742D01*
X122821676Y-72134361D01*
X122726438Y-72181980D01*
X122488342Y-72181980D01*
X122393104Y-72134361D01*
X122345485Y-72086742D01*
X116598676Y-73290180D02*
X116408200Y-73290180D01*
X116312961Y-73337800D01*
X116265342Y-73385419D01*
X116170104Y-73528276D01*
X116122485Y-73718752D01*
X116122485Y-74099704D01*
X116170104Y-74194942D01*
X116217723Y-74242561D01*
X116312961Y-74290180D01*
X116503438Y-74290180D01*
X116598676Y-74242561D01*
X116646295Y-74194942D01*
X116693914Y-74099704D01*
X116693914Y-73861609D01*
X116646295Y-73766371D01*
X116598676Y-73718752D01*
X116503438Y-73671133D01*
X116312961Y-73671133D01*
X116217723Y-73718752D01*
X116170104Y-73766371D01*
X116122485Y-73861609D01*
X112468066Y-78243180D02*
X113134733Y-78243180D01*
X112706161Y-79243180D01*
X112655361Y-85961552D02*
X112560123Y-85913933D01*
X112512504Y-85866314D01*
X112464885Y-85771076D01*
X112464885Y-85723457D01*
X112512504Y-85628219D01*
X112560123Y-85580600D01*
X112655361Y-85532980D01*
X112845838Y-85532980D01*
X112941076Y-85580600D01*
X112988695Y-85628219D01*
X113036314Y-85723457D01*
X113036314Y-85771076D01*
X112988695Y-85866314D01*
X112941076Y-85913933D01*
X112845838Y-85961552D01*
X112655361Y-85961552D01*
X112560123Y-86009171D01*
X112512504Y-86056790D01*
X112464885Y-86152028D01*
X112464885Y-86342504D01*
X112512504Y-86437742D01*
X112560123Y-86485361D01*
X112655361Y-86532980D01*
X112845838Y-86532980D01*
X112941076Y-86485361D01*
X112988695Y-86437742D01*
X113036314Y-86342504D01*
X113036314Y-86152028D01*
X112988695Y-86056790D01*
X112941076Y-86009171D01*
X112845838Y-85961552D01*
X116141523Y-91409780D02*
X116332000Y-91409780D01*
X116427238Y-91362161D01*
X116474857Y-91314542D01*
X116570095Y-91171685D01*
X116617714Y-90981209D01*
X116617714Y-90600257D01*
X116570095Y-90505019D01*
X116522476Y-90457400D01*
X116427238Y-90409780D01*
X116236761Y-90409780D01*
X116141523Y-90457400D01*
X116093904Y-90505019D01*
X116046285Y-90600257D01*
X116046285Y-90838352D01*
X116093904Y-90933590D01*
X116141523Y-90981209D01*
X116236761Y-91028828D01*
X116427238Y-91028828D01*
X116522476Y-90981209D01*
X116570095Y-90933590D01*
X116617714Y-90838352D01*
D14*
X162941190Y-67992761D02*
X162941190Y-69611809D01*
X163036428Y-69802285D01*
X163131666Y-69897523D01*
X163322142Y-69992761D01*
X163703095Y-69992761D01*
X163893571Y-69897523D01*
X163988809Y-69802285D01*
X164084047Y-69611809D01*
X164084047Y-67992761D01*
X165893571Y-68659428D02*
X165893571Y-69992761D01*
X165417380Y-67897523D02*
X164941190Y-69326095D01*
X166179285Y-69326095D01*
X161830142Y-95107142D02*
X162496809Y-95107142D01*
X162782523Y-96154761D02*
X161830142Y-96154761D01*
X161830142Y-94154761D01*
X162782523Y-94154761D01*
X164592047Y-96154761D02*
X163639666Y-96154761D01*
X163639666Y-94154761D01*
X165544428Y-95011904D02*
X165353952Y-94916666D01*
X165258714Y-94821428D01*
X165163476Y-94630952D01*
X165163476Y-94535714D01*
X165258714Y-94345238D01*
X165353952Y-94250000D01*
X165544428Y-94154761D01*
X165925380Y-94154761D01*
X166115857Y-94250000D01*
X166211095Y-94345238D01*
X166306333Y-94535714D01*
X166306333Y-94630952D01*
X166211095Y-94821428D01*
X166115857Y-94916666D01*
X165925380Y-95011904D01*
X165544428Y-95011904D01*
X165353952Y-95107142D01*
X165258714Y-95202380D01*
X165163476Y-95392857D01*
X165163476Y-95773809D01*
X165258714Y-95964285D01*
X165353952Y-96059523D01*
X165544428Y-96154761D01*
X165925380Y-96154761D01*
X166115857Y-96059523D01*
X166211095Y-95964285D01*
X166306333Y-95773809D01*
X166306333Y-95392857D01*
X166211095Y-95202380D01*
X166115857Y-95107142D01*
X165925380Y-95011904D01*
X168020619Y-94821428D02*
X168020619Y-96154761D01*
X167544428Y-94059523D02*
X167068238Y-95488095D01*
X168306333Y-95488095D01*
D15*
X157670523Y-91409780D02*
X157861000Y-91409780D01*
X157956238Y-91362161D01*
X158003857Y-91314542D01*
X158099095Y-91171685D01*
X158146714Y-90981209D01*
X158146714Y-90600257D01*
X158099095Y-90505019D01*
X158051476Y-90457400D01*
X157956238Y-90409780D01*
X157765761Y-90409780D01*
X157670523Y-90457400D01*
X157622904Y-90505019D01*
X157575285Y-90600257D01*
X157575285Y-90838352D01*
X157622904Y-90933590D01*
X157670523Y-90981209D01*
X157765761Y-91028828D01*
X157956238Y-91028828D01*
X158051476Y-90981209D01*
X158099095Y-90933590D01*
X158146714Y-90838352D01*
X154184361Y-85961552D02*
X154089123Y-85913933D01*
X154041504Y-85866314D01*
X153993885Y-85771076D01*
X153993885Y-85723457D01*
X154041504Y-85628219D01*
X154089123Y-85580600D01*
X154184361Y-85532980D01*
X154374838Y-85532980D01*
X154470076Y-85580600D01*
X154517695Y-85628219D01*
X154565314Y-85723457D01*
X154565314Y-85771076D01*
X154517695Y-85866314D01*
X154470076Y-85913933D01*
X154374838Y-85961552D01*
X154184361Y-85961552D01*
X154089123Y-86009171D01*
X154041504Y-86056790D01*
X153993885Y-86152028D01*
X153993885Y-86342504D01*
X154041504Y-86437742D01*
X154089123Y-86485361D01*
X154184361Y-86532980D01*
X154374838Y-86532980D01*
X154470076Y-86485361D01*
X154517695Y-86437742D01*
X154565314Y-86342504D01*
X154565314Y-86152028D01*
X154517695Y-86056790D01*
X154470076Y-86009171D01*
X154374838Y-85961552D01*
X153997066Y-78243180D02*
X154663733Y-78243180D01*
X154235161Y-79243180D01*
X158127676Y-73290180D02*
X157937200Y-73290180D01*
X157841961Y-73337800D01*
X157794342Y-73385419D01*
X157699104Y-73528276D01*
X157651485Y-73718752D01*
X157651485Y-74099704D01*
X157699104Y-74194942D01*
X157746723Y-74242561D01*
X157841961Y-74290180D01*
X158032438Y-74290180D01*
X158127676Y-74242561D01*
X158175295Y-74194942D01*
X158222914Y-74099704D01*
X158222914Y-73861609D01*
X158175295Y-73766371D01*
X158127676Y-73718752D01*
X158032438Y-73671133D01*
X157841961Y-73671133D01*
X157746723Y-73718752D01*
X157699104Y-73766371D01*
X157651485Y-73861609D01*
X164398295Y-71181980D02*
X163922104Y-71181980D01*
X163874485Y-71658171D01*
X163922104Y-71610552D01*
X164017342Y-71562933D01*
X164255438Y-71562933D01*
X164350676Y-71610552D01*
X164398295Y-71658171D01*
X164445914Y-71753409D01*
X164445914Y-71991504D01*
X164398295Y-72086742D01*
X164350676Y-72134361D01*
X164255438Y-72181980D01*
X164017342Y-72181980D01*
X163922104Y-72134361D01*
X163874485Y-72086742D01*
X171183276Y-74080714D02*
X171183276Y-74747380D01*
X170945180Y-73699761D02*
X170707085Y-74414047D01*
X171326133Y-74414047D01*
X173961466Y-78471780D02*
X174580514Y-78471780D01*
X174247180Y-78852733D01*
X174390038Y-78852733D01*
X174485276Y-78900352D01*
X174532895Y-78947971D01*
X174580514Y-79043209D01*
X174580514Y-79281304D01*
X174532895Y-79376542D01*
X174485276Y-79424161D01*
X174390038Y-79471780D01*
X174104323Y-79471780D01*
X174009085Y-79424161D01*
X173961466Y-79376542D01*
X174085285Y-85399619D02*
X174132904Y-85352000D01*
X174228142Y-85304380D01*
X174466238Y-85304380D01*
X174561476Y-85352000D01*
X174609095Y-85399619D01*
X174656714Y-85494857D01*
X174656714Y-85590095D01*
X174609095Y-85732952D01*
X174037666Y-86304380D01*
X174656714Y-86304380D01*
X170872114Y-91435180D02*
X170300685Y-91435180D01*
X170586400Y-91435180D02*
X170586400Y-90435180D01*
X170491161Y-90578038D01*
X170395923Y-90673276D01*
X170300685Y-90720895D01*
D11*
X272161095Y-126182380D02*
X272161095Y-125182380D01*
X272161095Y-125658571D02*
X272732523Y-125658571D01*
X272732523Y-126182380D02*
X272732523Y-125182380D01*
X273351571Y-125610952D02*
X273256333Y-125563333D01*
X273208714Y-125515714D01*
X273161095Y-125420476D01*
X273161095Y-125372857D01*
X273208714Y-125277619D01*
X273256333Y-125230000D01*
X273351571Y-125182380D01*
X273542047Y-125182380D01*
X273637285Y-125230000D01*
X273684904Y-125277619D01*
X273732523Y-125372857D01*
X273732523Y-125420476D01*
X273684904Y-125515714D01*
X273637285Y-125563333D01*
X273542047Y-125610952D01*
X273351571Y-125610952D01*
X273256333Y-125658571D01*
X273208714Y-125706190D01*
X273161095Y-125801428D01*
X273161095Y-125991904D01*
X273208714Y-126087142D01*
X273256333Y-126134761D01*
X273351571Y-126182380D01*
X273542047Y-126182380D01*
X273637285Y-126134761D01*
X273684904Y-126087142D01*
X273732523Y-125991904D01*
X273732523Y-125801428D01*
X273684904Y-125706190D01*
X273637285Y-125658571D01*
X273542047Y-125610952D01*
X68326095Y-91892380D02*
X68326095Y-90892380D01*
X68326095Y-91368571D02*
X68897523Y-91368571D01*
X68897523Y-91892380D02*
X68897523Y-90892380D01*
X69421333Y-91892380D02*
X69611809Y-91892380D01*
X69707047Y-91844761D01*
X69754666Y-91797142D01*
X69849904Y-91654285D01*
X69897523Y-91463809D01*
X69897523Y-91082857D01*
X69849904Y-90987619D01*
X69802285Y-90940000D01*
X69707047Y-90892380D01*
X69516571Y-90892380D01*
X69421333Y-90940000D01*
X69373714Y-90987619D01*
X69326095Y-91082857D01*
X69326095Y-91320952D01*
X69373714Y-91416190D01*
X69421333Y-91463809D01*
X69516571Y-91511428D01*
X69707047Y-91511428D01*
X69802285Y-91463809D01*
X69849904Y-91416190D01*
X69897523Y-91320952D01*
X151669904Y-93543380D02*
X151669904Y-92543380D01*
X151669904Y-93019571D02*
X152241333Y-93019571D01*
X152241333Y-93543380D02*
X152241333Y-92543380D01*
X153241333Y-93543380D02*
X152669904Y-93543380D01*
X152955619Y-93543380D02*
X152955619Y-92543380D01*
X152860380Y-92686238D01*
X152765142Y-92781476D01*
X152669904Y-92829095D01*
X153860380Y-92543380D02*
X153955619Y-92543380D01*
X154050857Y-92591000D01*
X154098476Y-92638619D01*
X154146095Y-92733857D01*
X154193714Y-92924333D01*
X154193714Y-93162428D01*
X154146095Y-93352904D01*
X154098476Y-93448142D01*
X154050857Y-93495761D01*
X153955619Y-93543380D01*
X153860380Y-93543380D01*
X153765142Y-93495761D01*
X153717523Y-93448142D01*
X153669904Y-93352904D01*
X153622285Y-93162428D01*
X153622285Y-92924333D01*
X153669904Y-92733857D01*
X153717523Y-92638619D01*
X153765142Y-92591000D01*
X153860380Y-92543380D01*
X219106904Y-93670380D02*
X219106904Y-92670380D01*
X219106904Y-93146571D02*
X219678333Y-93146571D01*
X219678333Y-93670380D02*
X219678333Y-92670380D01*
X220678333Y-93670380D02*
X220106904Y-93670380D01*
X220392619Y-93670380D02*
X220392619Y-92670380D01*
X220297380Y-92813238D01*
X220202142Y-92908476D01*
X220106904Y-92956095D01*
X221630714Y-93670380D02*
X221059285Y-93670380D01*
X221345000Y-93670380D02*
X221345000Y-92670380D01*
X221249761Y-92813238D01*
X221154523Y-92908476D01*
X221059285Y-92956095D01*
M02*
