M48
; DRILL file {KiCad (5.1.4)-1} date 04/12/2019 16:20:34
; FORMAT={-:-/ absolute / inch / decimal}
; #@! TF.CreationDate,2019-12-04T16:20:34+01:00
; #@! TF.GenerationSoftware,Kicad,Pcbnew,(5.1.4)-1
; #@! TF.FileFunction,Plated,1,2,PTH
FMAT,2
INCH
T1C0.0157
T2C0.0315
T3C0.0354
T4C0.0394
T5C0.0472
T6C0.0512
T7C0.0560
T8C0.0591
%
G90
G05
T1
X1.87Y-2.42
X2.765Y-3.16
X3.325Y-2.68
X4.75Y-3.18
X5.0417Y-2.6007
X5.235Y-5.015
X5.82Y-4.83
X5.93Y-4.14
X6.0294Y-2.6716
X7.8354Y-3.8209
X7.92Y-4.65
X8.327Y-2.9585
T2
X3.17Y-2.25
X3.17Y-2.65
X4.59Y-2.5
X4.99Y-2.5
X7.45Y-2.52
X7.85Y-2.52
X8.2Y-4.12
X8.2Y-4.52
X2.075Y-3.53
X2.2719Y-3.53
X1.27Y-2.25
X1.27Y-2.65
X2.17Y-3.8
X2.17Y-4.2
X7.35Y-3.66
X7.35Y-4.06
X1.84Y-4.325
X1.84Y-4.725
X3.68Y-3.515
X4.08Y-3.515
X2.77Y-2.25
X2.77Y-2.65
X2.42Y-3.21
X2.42Y-3.4069
X7.09Y-3.66
X7.09Y-4.06
X4.605Y-4.61
X5.005Y-4.61
X9.1712Y-3.8756
X9.1712Y-4.2756
X4.63Y-3.83
X5.03Y-3.83
X6.835Y-2.585
X7.235Y-2.585
X6.29Y-4.05
X6.69Y-4.05
X1.455Y-3.8
X1.455Y-4.2
X3.57Y-2.25
X3.57Y-2.65
X3.07Y-3.9031
X3.07Y-4.1
X2.77Y-3.8
X2.77Y-4.2
X7.35Y-4.24
X7.35Y-4.64
X2.62Y-3.0
X2.62Y-3.4
X7.39Y-3.035
X7.39Y-3.435
X4.245Y-3.09
X4.245Y-3.49
X5.475Y-3.095
X5.475Y-3.495
X5.32Y-4.05
X5.32Y-4.45
X6.29Y-4.3
X6.69Y-4.3
X1.025Y-3.35
X1.025Y-3.75
X3.37Y-3.9
X3.37Y-4.0969
X7.09Y-4.24
X7.09Y-4.64
X8.66Y-2.5166
X8.66Y-2.615
X1.62Y-2.25
X1.62Y-2.65
X7.21Y-3.035
X7.21Y-3.435
X3.63Y-3.81
X4.03Y-3.81
X3.975Y-2.93
X3.975Y-3.33
X8.45Y-4.12
X8.45Y-4.52
X5.695Y-3.095
X5.695Y-3.495
T3
X9.0148Y-2.9643
X9.4148Y-2.9643
X9.0148Y-3.5143
X9.4148Y-3.5143
X9.0148Y-2.6893
X9.4148Y-2.6893
X9.0148Y-3.2393
X9.4148Y-3.2393
T4
X5.41Y-2.875
X5.7053Y-2.875
X2.215Y-3.31
X3.37Y-2.25
X5.71Y-2.305
X3.16Y-4.5
X5.72Y-4.105
X5.72Y-4.4003
X5.37Y-3.78
X5.6653Y-3.78
X1.87Y-3.86
X1.87Y-4.1553
X6.33Y-4.57
X6.6253Y-4.57
X5.51Y-2.305
X8.93Y-4.185
X4.92Y-4.1047
X4.92Y-4.4
X5.17Y-2.3
X4.52Y-4.1047
X4.52Y-4.4
X7.78Y-4.34
X7.78Y-4.6353
X2.47Y-3.74
X2.47Y-4.0353
X7.63Y-4.11
X7.9253Y-4.11
X3.7Y-2.835
X2.1497Y-3.02
X2.445Y-3.02
T5
X10.2662Y-3.5806
X10.5615Y-3.5806
X9.85Y-3.355
X9.85Y-3.955
X10.065Y-2.515
X10.3603Y-2.515
X10.2669Y-4.355
X10.5621Y-4.355
X9.55Y-3.72
X9.55Y-4.32
X9.89Y-3.055
X10.69Y-3.055
X2.07Y-2.5
X2.3653Y-2.5
X3.97Y-2.5
X4.2653Y-2.5
X7.96Y-2.3
X8.56Y-2.3
T6
X7.8243Y-5.0091
X8.0212Y-5.0091
X8.218Y-5.0091
X10.0275Y-5.0079
X10.2243Y-5.0079
X10.4212Y-5.0079
X3.4149Y-5.0091
X3.6117Y-5.0091
X3.8086Y-5.0091
X4.5172Y-5.0091
X4.7141Y-5.0091
X4.9109Y-5.0091
X6.91Y-2.31
X7.1069Y-2.31
X8.9251Y-5.0079
X9.122Y-5.0079
X9.3188Y-5.0079
X6.722Y-5.01
X6.9188Y-5.01
X7.1157Y-5.01
X5.62Y-5.0091
X5.8169Y-5.0091
X6.0137Y-5.0091
X8.9362Y-2.3206
X9.1331Y-2.3206
X9.4412Y-2.3206
X9.6381Y-2.3206
T7
X2.905Y-3.3278
X2.9099Y-3.1061
X3.02Y-3.49
X3.028Y-2.9485
X3.225Y-2.8894
X3.43Y-3.495
X3.432Y-2.9585
X3.5401Y-3.1111
X3.55Y-3.3228
X4.515Y-3.3278
X4.5199Y-3.1061
X4.63Y-3.49
X4.638Y-2.9485
X4.835Y-2.8894
X5.04Y-3.495
X5.042Y-2.9585
X5.1501Y-3.1111
X5.16Y-3.3228
X1.295Y-3.3278
X1.2999Y-3.1061
X1.41Y-3.49
X1.418Y-2.9485
X1.615Y-2.8894
X1.82Y-3.495
X1.822Y-2.9585
X1.9301Y-3.1111
X1.94Y-3.3228
X7.8Y-3.3278
X7.8049Y-3.1061
X7.915Y-3.49
X7.923Y-2.9485
X8.12Y-2.8894
X8.325Y-3.495
X8.327Y-2.9585
X8.4351Y-3.1111
X8.445Y-3.3228
X6.15Y-3.3278
X6.1549Y-3.1061
X6.265Y-3.49
X6.273Y-2.9485
X6.47Y-2.8894
X6.675Y-3.495
X6.677Y-2.9585
X6.7851Y-3.1111
X6.795Y-3.3228
T8
X0.9306Y-4.4657
X0.9306Y-4.7138
X0.9306Y-4.9618
X1.5684Y-4.4657
X1.5684Y-4.7138
X1.5684Y-4.9618
X2.1117Y-4.4657
X2.1117Y-4.7138
X2.1117Y-4.9618
X2.7495Y-4.4657
X2.7495Y-4.7138
X2.7495Y-4.9618
T0
M30
