G04 #@! TF.GenerationSoftware,KiCad,Pcbnew,(5.1.4)-1*
G04 #@! TF.CreationDate,2020-09-09T00:44:47+02:00*
G04 #@! TF.ProjectId,JCM800,4a434d38-3030-42e6-9b69-6361645f7063,0.2*
G04 #@! TF.SameCoordinates,Original*
G04 #@! TF.FileFunction,Copper,L1,Top*
G04 #@! TF.FilePolarity,Positive*
%FSLAX46Y46*%
G04 Gerber Fmt 4.6, Leading zero omitted, Abs format (unit mm)*
G04 Created by KiCad (PCBNEW (5.1.4)-1) date 2020-09-09 00:44:47*
%MOMM*%
%LPD*%
G04 APERTURE LIST*
%ADD10O,1.600000X1.600000*%
%ADD11C,1.600000*%
%ADD12C,2.540000*%
%ADD13R,2.400000X2.400000*%
%ADD14C,2.400000*%
%ADD15C,3.000000*%
%ADD16C,2.000000*%
%ADD17R,2.600000X2.600000*%
%ADD18C,2.600000*%
%ADD19R,1.700000X1.700000*%
%ADD20O,1.800000X1.800000*%
%ADD21R,1.800000X1.800000*%
%ADD22C,2.340000*%
%ADD23O,2.400000X2.400000*%
%ADD24C,1.440000*%
%ADD25R,1.600000X1.600000*%
%ADD26R,2.000000X2.000000*%
%ADD27C,0.800000*%
%ADD28C,1.000000*%
%ADD29C,0.500000*%
%ADD30C,0.750000*%
%ADD31C,1.000000*%
G04 APERTURE END LIST*
D10*
X173228000Y-109220000D03*
D11*
X163068000Y-109220000D03*
D12*
X201295000Y-88646000D03*
X211709000Y-88773000D03*
X198375000Y-84526000D03*
X198498000Y-78895000D03*
X201498000Y-74891000D03*
X206502000Y-73391000D03*
X211760000Y-75145000D03*
X214756000Y-84399000D03*
X214506000Y-79022000D03*
D11*
X90932000Y-67310000D03*
D10*
X90932000Y-57150000D03*
D13*
X100203000Y-63500000D03*
D14*
X107703000Y-63500000D03*
D15*
X23900000Y-113430000D03*
X23900000Y-119730000D03*
X23900000Y-126030000D03*
X40100000Y-113430000D03*
X40100000Y-119730000D03*
X40100000Y-126030000D03*
X53900000Y-113430000D03*
X53900000Y-119730000D03*
X53900000Y-126030000D03*
X70100000Y-113430000D03*
X70100000Y-119730000D03*
X70100000Y-126030000D03*
D11*
X62166500Y-81534000D03*
X62166500Y-86534000D03*
X85852000Y-99060000D03*
X85852000Y-104060000D03*
D16*
X125222000Y-111760000D03*
X125222000Y-104260000D03*
X145542000Y-104267000D03*
X145542000Y-111767000D03*
X62801500Y-76708000D03*
X55301500Y-76708000D03*
X62992000Y-94996000D03*
X62992000Y-102496000D03*
X47752000Y-98044000D03*
X47752000Y-105544000D03*
X115062000Y-111760000D03*
X115062000Y-104260000D03*
D17*
X233045000Y-58420000D03*
D18*
X228045000Y-58420000D03*
D14*
X262770000Y-109220000D03*
D13*
X255270000Y-109220000D03*
X255016000Y-62992000D03*
D14*
X262516000Y-62992000D03*
D13*
X52832000Y-63500000D03*
D14*
X60332000Y-63500000D03*
D13*
X263017000Y-90043000D03*
D14*
X270517000Y-90043000D03*
D19*
X216281000Y-69342000D03*
D11*
X57959000Y-89662000D03*
X52959000Y-89662000D03*
X78232000Y-99140000D03*
X78232000Y-104140000D03*
D20*
X240405999Y-89772000D03*
D21*
X230245999Y-89772000D03*
X240405999Y-82787000D03*
D20*
X230245999Y-82787000D03*
X240405999Y-75802000D03*
D21*
X230245999Y-75802000D03*
X240405999Y-68817000D03*
D20*
X230245999Y-68817000D03*
D11*
X46990000Y-120015000D03*
D10*
X46990000Y-109855000D03*
D11*
X37211000Y-96520000D03*
D10*
X37211000Y-106680000D03*
D11*
X55372000Y-106680000D03*
D10*
X55372000Y-96520000D03*
D11*
X27686000Y-96647000D03*
D10*
X27686000Y-86487000D03*
X70612000Y-106680000D03*
D11*
X70612000Y-96520000D03*
X35052000Y-57150000D03*
D10*
X35052000Y-67310000D03*
D11*
X41656000Y-67310000D03*
D10*
X41656000Y-57150000D03*
X67246500Y-86360000D03*
D11*
X67246500Y-76200000D03*
D10*
X70612000Y-67310000D03*
D11*
X70612000Y-57150000D03*
X101219000Y-74422000D03*
D10*
X101219000Y-84582000D03*
D11*
X108077000Y-88646000D03*
D10*
X108077000Y-78486000D03*
D11*
X155448000Y-113284000D03*
D10*
X155448000Y-103124000D03*
X80772000Y-67310000D03*
D11*
X80772000Y-57150000D03*
X135382000Y-113030000D03*
D10*
X135382000Y-102870000D03*
D17*
X245237000Y-58420000D03*
D18*
X240237000Y-58420000D03*
X164291000Y-58420000D03*
D17*
X169291000Y-58420000D03*
D19*
X226695000Y-69342000D03*
X227076000Y-99060000D03*
X238252000Y-108712000D03*
X238252000Y-118618000D03*
D10*
X103886000Y-89281000D03*
D11*
X93726000Y-89281000D03*
D10*
X102616000Y-96774000D03*
D11*
X92456000Y-96774000D03*
D22*
X181000000Y-127230000D03*
X176000000Y-127230000D03*
X171000000Y-127230000D03*
X97000000Y-127230000D03*
X92000000Y-127230000D03*
X87000000Y-127230000D03*
X199000000Y-127230000D03*
X204000000Y-127230000D03*
X209000000Y-127230000D03*
X153000000Y-127230000D03*
X148000000Y-127230000D03*
X143000000Y-127230000D03*
X115000000Y-127230000D03*
X120000000Y-127230000D03*
X125000000Y-127230000D03*
D16*
X144152000Y-96012000D03*
X136652000Y-96012000D03*
X137160000Y-73025000D03*
X144660000Y-73025000D03*
X197866000Y-117736000D03*
X197866000Y-110236000D03*
X171894500Y-116078000D03*
X164394500Y-116078000D03*
X197866000Y-96513000D03*
X197866000Y-104013000D03*
D22*
X265000000Y-127230000D03*
X260000000Y-127230000D03*
X255000000Y-127230000D03*
X227000000Y-127230000D03*
X232000000Y-127230000D03*
X237000000Y-127230000D03*
D11*
X124460000Y-117094000D03*
D10*
X114300000Y-117094000D03*
X143256000Y-88773000D03*
D11*
X143256000Y-78613000D03*
X138303000Y-78613000D03*
D10*
X138303000Y-88773000D03*
X128016000Y-97282000D03*
D11*
X117856000Y-97282000D03*
X127000000Y-63500000D03*
D10*
X116840000Y-63500000D03*
X163068000Y-102870000D03*
D11*
X173228000Y-102870000D03*
X208534000Y-109093000D03*
D10*
X208534000Y-98933000D03*
D11*
X214884000Y-98933000D03*
D10*
X214884000Y-109093000D03*
X186944000Y-108204000D03*
D11*
X186944000Y-118364000D03*
D10*
X186944000Y-102616000D03*
D11*
X186944000Y-92456000D03*
D10*
X183388000Y-77089000D03*
D11*
X183388000Y-87249000D03*
X188722000Y-77089000D03*
D10*
X188722000Y-87249000D03*
X180340000Y-102616000D03*
D11*
X180340000Y-92456000D03*
X180340000Y-118364000D03*
D10*
X180340000Y-108204000D03*
D12*
X49279000Y-79022000D03*
X49529000Y-84399000D03*
X46533000Y-75145000D03*
X41275000Y-73391000D03*
X36271000Y-74891000D03*
X33271000Y-78895000D03*
X33148000Y-84526000D03*
X46482000Y-88773000D03*
X36068000Y-88646000D03*
X90173000Y-79022000D03*
X90423000Y-84399000D03*
X87427000Y-75145000D03*
X82169000Y-73391000D03*
X77165000Y-74891000D03*
X74165000Y-78895000D03*
X74042000Y-84526000D03*
X87376000Y-88773000D03*
X76962000Y-88646000D03*
X131067000Y-79022000D03*
X131317000Y-84399000D03*
X128321000Y-75145000D03*
X123063000Y-73391000D03*
X118059000Y-74891000D03*
X115059000Y-78895000D03*
X114936000Y-84526000D03*
X128270000Y-88773000D03*
X117856000Y-88646000D03*
X159385000Y-88646000D03*
X169799000Y-88773000D03*
X156465000Y-84526000D03*
X156588000Y-78895000D03*
X159588000Y-74891000D03*
X164592000Y-73391000D03*
X169850000Y-75145000D03*
X172846000Y-84399000D03*
X172596000Y-79022000D03*
D23*
X258826000Y-76708000D03*
D14*
X274066000Y-76708000D03*
D11*
X28448000Y-64897000D03*
X28448000Y-69897000D03*
D17*
X22352000Y-75184000D03*
D18*
X22352000Y-80184000D03*
D23*
X250444000Y-88138000D03*
D14*
X250444000Y-80518000D03*
D17*
X137414000Y-58420000D03*
D18*
X132414000Y-58420000D03*
X144479000Y-58420000D03*
D17*
X149479000Y-58420000D03*
X274066000Y-69977000D03*
D18*
X274066000Y-64977000D03*
D14*
X193040000Y-70612000D03*
D23*
X177800000Y-70612000D03*
D18*
X274066000Y-107649000D03*
D17*
X274066000Y-112649000D03*
D19*
X218948000Y-99060000D03*
D24*
X214122000Y-61214000D03*
X214122000Y-58674000D03*
X214122000Y-56134000D03*
X220980000Y-56134000D03*
X220980000Y-58674000D03*
X220980000Y-61214000D03*
D25*
X176022000Y-62992000D03*
D11*
X178522000Y-62992000D03*
X192492000Y-57404000D03*
D25*
X189992000Y-57404000D03*
D20*
X185420000Y-56388000D03*
D21*
X175260000Y-56388000D03*
D11*
X182880000Y-64008000D03*
D10*
X193040000Y-64008000D03*
D11*
X198120000Y-55245000D03*
D10*
X198120000Y-65405000D03*
X208280000Y-65405000D03*
D11*
X208280000Y-55245000D03*
X203200000Y-55245000D03*
D10*
X203200000Y-65405000D03*
D19*
X274447000Y-101219000D03*
X116332000Y-57277000D03*
X45847000Y-57150000D03*
D26*
X227330000Y-106680000D03*
D16*
X232330000Y-106680000D03*
D14*
X232918000Y-97028000D03*
D23*
X240538000Y-97028000D03*
X246126000Y-108712000D03*
D14*
X246126000Y-101092000D03*
D27*
X173309280Y-124159999D03*
X82009747Y-104680253D03*
X148082000Y-122555000D03*
X133223000Y-127381000D03*
D28*
X267121000Y-70104000D03*
D27*
X177038000Y-93980000D03*
X120904000Y-80772000D03*
X183769000Y-110109000D03*
X202819000Y-118237000D03*
X29210000Y-88900000D03*
X29591000Y-80772000D03*
X211836000Y-70993000D03*
X205740000Y-67183000D03*
X217043000Y-63373000D03*
X219964000Y-70993000D03*
X87376000Y-70358000D03*
X52965000Y-68713000D03*
X167894000Y-67183000D03*
X87376000Y-65405000D03*
X134366000Y-68072000D03*
X117475000Y-68072000D03*
X207010000Y-85852000D03*
X185928000Y-89789000D03*
X222123000Y-75946000D03*
D29*
X144169999Y-126060001D02*
X143000000Y-127230000D01*
X177712001Y-125309999D02*
X144920001Y-125309999D01*
X144920001Y-125309999D02*
X144169999Y-126060001D01*
X179632002Y-127230000D02*
X177712001Y-125309999D01*
X181000000Y-127230000D02*
X179632002Y-127230000D01*
X125000000Y-124208998D02*
X125048999Y-124159999D01*
X125000000Y-127230000D02*
X125000000Y-124208998D01*
X173309280Y-124159999D02*
X125048999Y-124159999D01*
X122047000Y-114935000D02*
X125222000Y-111760000D01*
X125048999Y-124159999D02*
X122047000Y-121158000D01*
X122047000Y-121158000D02*
X122047000Y-114935000D01*
X50800000Y-109347000D02*
X47752000Y-105544000D01*
X50800000Y-109347000D02*
X50800000Y-115000000D01*
X50800000Y-115000000D02*
X52200000Y-116400000D01*
X67100000Y-116400000D02*
X70100000Y-113400000D01*
X52200000Y-116400000D02*
X67100000Y-116400000D01*
X47752000Y-98044000D02*
X47751999Y-90042999D01*
X47751999Y-90042999D02*
X46482000Y-88773000D01*
X48132998Y-89662000D02*
X47751999Y-90042999D01*
X52959000Y-89662000D02*
X48132998Y-89662000D01*
X57912000Y-96520000D02*
X57912000Y-88773000D01*
X57912000Y-88773000D02*
X56388000Y-87249000D01*
X52606651Y-79022651D02*
X49279000Y-79022000D01*
X54102000Y-80010000D02*
X52606651Y-79022651D01*
X54102000Y-85852000D02*
X54102000Y-80010000D01*
X56388000Y-87249000D02*
X55499000Y-87249000D01*
X55499000Y-87249000D02*
X54102000Y-85852000D01*
X61468000Y-96520000D02*
X62992000Y-94996000D01*
X55372000Y-96520000D02*
X61468000Y-96520000D01*
D30*
X246126000Y-101092000D02*
X245999000Y-101092000D01*
D29*
X75692000Y-106680000D02*
X78232000Y-104140000D01*
X70612000Y-106680000D02*
X75692000Y-106680000D01*
X60620000Y-106680000D02*
X70612000Y-106680000D01*
X53900000Y-113400000D02*
X60620000Y-106680000D01*
X75612000Y-96520000D02*
X70612000Y-96520000D01*
X78232000Y-99140000D02*
X75612000Y-96520000D01*
X78312000Y-99060000D02*
X78232000Y-99140000D01*
X85852000Y-99060000D02*
X78312000Y-99060000D01*
X82009747Y-122239747D02*
X87000000Y-127230000D01*
X82009747Y-104680253D02*
X82009747Y-122239747D01*
X92122000Y-107649000D02*
X92122000Y-127230000D01*
X85852000Y-104013000D02*
X88519000Y-104013000D01*
X88519000Y-104046000D02*
X92122000Y-107649000D01*
X88519000Y-104013000D02*
X88519000Y-104046000D01*
X30861000Y-81305000D02*
X33271000Y-78895000D01*
X30861000Y-97282000D02*
X30861000Y-81305000D01*
X35179000Y-101600000D02*
X30861000Y-97282000D01*
X58674000Y-101600000D02*
X35179000Y-101600000D01*
X85852000Y-102928630D02*
X84523370Y-101600000D01*
X85852000Y-104060000D02*
X85852000Y-102928630D01*
X84523370Y-101600000D02*
X67437000Y-101600000D01*
X67437000Y-101600000D02*
X65913000Y-100076000D01*
X65913000Y-100076000D02*
X60198000Y-100076000D01*
X60198000Y-100076000D02*
X58674000Y-101600000D01*
X62166500Y-77343000D02*
X62801500Y-76708000D01*
X62166500Y-81534000D02*
X62166500Y-77343000D01*
X55301500Y-75240500D02*
X55301500Y-76708000D01*
X47371000Y-67310000D02*
X55301500Y-75240500D01*
X39497000Y-67310000D02*
X47371000Y-67310000D01*
X36195000Y-74892000D02*
X36195000Y-70612000D01*
X36195000Y-70612000D02*
X39497000Y-67310000D01*
X67246500Y-81200000D02*
X67246500Y-76200000D01*
X66952500Y-81494000D02*
X67246500Y-81200000D01*
X62166500Y-86534000D02*
X66952500Y-81494000D01*
X67246500Y-70675500D02*
X70612000Y-67310000D01*
X67246500Y-76200000D02*
X67246500Y-70675500D01*
X143764000Y-104902000D02*
X145542000Y-104267000D01*
X135382000Y-113030000D02*
X143764000Y-104902000D01*
X126636213Y-104902000D02*
X130175000Y-108440787D01*
X125222000Y-104260000D02*
X126636213Y-104902000D01*
X135382000Y-113030000D02*
X130175000Y-108458000D01*
X146541999Y-112766999D02*
X146548999Y-112766999D01*
X145542000Y-111767000D02*
X146541999Y-112766999D01*
X146548999Y-112766999D02*
X148082000Y-114300000D01*
X148082000Y-114300000D02*
X148082000Y-122555000D01*
X102616000Y-97028000D02*
X102616000Y-96774000D01*
X104001370Y-98413370D02*
X102616000Y-97028000D01*
X104013000Y-98413370D02*
X104001370Y-98413370D01*
X115062000Y-104260000D02*
X109859630Y-104260000D01*
X109859630Y-104260000D02*
X104013000Y-98413370D01*
X115062000Y-104260000D02*
X119768000Y-104260000D01*
X119768000Y-104260000D02*
X122936000Y-101092000D01*
X122936000Y-101092000D02*
X127727559Y-101092000D01*
X127727559Y-101092000D02*
X129286000Y-102650441D01*
X129794000Y-102870000D02*
X135382000Y-102870000D01*
X129286000Y-102650441D02*
X129297033Y-102650441D01*
X129516592Y-102870000D02*
X129794000Y-102870000D01*
X129297033Y-102650441D02*
X129516592Y-102870000D01*
X115000000Y-125575371D02*
X111720000Y-122295371D01*
X115000000Y-127230000D02*
X115000000Y-125575371D01*
X111720000Y-115102000D02*
X115062000Y-111760000D01*
X111720000Y-122295371D02*
X111720000Y-115102000D01*
D31*
X240405999Y-89772000D02*
X240405999Y-82787000D01*
X242305999Y-82787000D02*
X240405999Y-82787000D01*
X245237000Y-79855999D02*
X242305999Y-82787000D01*
X245237000Y-60352477D02*
X245237000Y-79855999D01*
X245315000Y-60274477D02*
X245237000Y-60352477D01*
X245237000Y-60352477D02*
X245237000Y-58420000D01*
X240405999Y-68817000D02*
X240405999Y-75802000D01*
X240315000Y-68726001D02*
X240405999Y-68817000D01*
X240237000Y-68648001D02*
X240405999Y-68817000D01*
X240237000Y-58420000D02*
X240237000Y-68648001D01*
D29*
X196875010Y-129354990D02*
X199000000Y-127230000D01*
X133223000Y-127381000D02*
X135059010Y-129354990D01*
X135059010Y-129354990D02*
X196875010Y-129354990D01*
X37211000Y-96520000D02*
X37211000Y-95250000D01*
X37211000Y-95250000D02*
X40513000Y-91948000D01*
X40513000Y-91948000D02*
X40513000Y-85979000D01*
X42093000Y-84399000D02*
X49529000Y-84399000D01*
X40513000Y-85979000D02*
X42093000Y-84399000D01*
X101092000Y-84455000D02*
X101219000Y-84582000D01*
X100203000Y-84455000D02*
X101092000Y-84455000D01*
X90173000Y-79023000D02*
X94771000Y-79023000D01*
X94771000Y-79023000D02*
X100203000Y-84455000D01*
X106045000Y-89281000D02*
X108077000Y-88646000D01*
X103886000Y-89281000D02*
X106045000Y-89281000D01*
X138303000Y-85979000D02*
X138303000Y-88773000D01*
X132863051Y-79022000D02*
X132865400Y-79019651D01*
X131067000Y-79022000D02*
X132863051Y-79022000D01*
X132865400Y-79019651D02*
X134231022Y-79019651D01*
X134231022Y-79019651D02*
X136144000Y-80932629D01*
X136144000Y-80932629D02*
X136144000Y-83820000D01*
X136144000Y-83820000D02*
X138303000Y-85979000D01*
X40132000Y-109855000D02*
X40092000Y-109815000D01*
X46990000Y-109855000D02*
X40132000Y-109855000D01*
X40092000Y-109815000D02*
X37211000Y-106680000D01*
X30620000Y-106680000D02*
X37211000Y-106680000D01*
X23900000Y-113400000D02*
X30620000Y-106680000D01*
X115708630Y-63500000D02*
X116840000Y-63500000D01*
X115059000Y-64149630D02*
X115708630Y-63500000D01*
X115059000Y-78895000D02*
X115059000Y-64149630D01*
X137160000Y-73025000D02*
X137160000Y-71755000D01*
X137160000Y-71755000D02*
X142113000Y-66802000D01*
X142113000Y-66802000D02*
X142113000Y-65151000D01*
X142113000Y-65151000D02*
X140970000Y-64008000D01*
X140970000Y-64008000D02*
X129540000Y-64008000D01*
X129540000Y-64008000D02*
X128270000Y-65278000D01*
X128270000Y-65278000D02*
X123063000Y-65278000D01*
X121285000Y-63500000D02*
X116840000Y-63500000D01*
X123063000Y-65278000D02*
X121285000Y-63500000D01*
X77880000Y-78896000D02*
X74165000Y-78896000D01*
X91212999Y-91794001D02*
X84047001Y-91794001D01*
X93726000Y-89281000D02*
X91212999Y-91794001D01*
X84047001Y-91794001D02*
X81534000Y-89281000D01*
X81534000Y-89281000D02*
X81534000Y-82550000D01*
X81534000Y-82550000D02*
X77880000Y-78896000D01*
X79640630Y-67310000D02*
X80772000Y-67310000D01*
X74042000Y-84526000D02*
X72772001Y-83256001D01*
X72772001Y-83256001D02*
X72772001Y-83253775D01*
X72772001Y-83253775D02*
X70485000Y-80966774D01*
X70485000Y-80966774D02*
X70485000Y-73914000D01*
X70485000Y-73914000D02*
X77089000Y-67310000D01*
X77089000Y-67310000D02*
X79640630Y-67310000D01*
X79820399Y-95974001D02*
X73941999Y-90095601D01*
X92456000Y-96774000D02*
X91656001Y-95974001D01*
X91656001Y-95974001D02*
X79820399Y-95974001D01*
X73941999Y-90095601D02*
X73941999Y-86276182D01*
X74042000Y-86176181D02*
X74042000Y-84526000D01*
X73941999Y-86276182D02*
X74042000Y-86176181D01*
D31*
X250444000Y-80518000D02*
X255016000Y-75946000D01*
X256239944Y-75946000D02*
X255016000Y-75946000D01*
X257001944Y-76708000D02*
X258826000Y-76708000D01*
X256239944Y-75946000D02*
X257001944Y-76708000D01*
X255016000Y-60792000D02*
X255016000Y-62992000D01*
X249081010Y-54857010D02*
X255016000Y-60792000D01*
X225050990Y-54857010D02*
X249081010Y-54857010D01*
X224409000Y-55499000D02*
X225050990Y-54857010D01*
X193040000Y-70612000D02*
X199136000Y-70612000D01*
X224409000Y-63119000D02*
X224409000Y-55499000D01*
X199136000Y-70612000D02*
X200152000Y-69596000D01*
X221180999Y-66347001D02*
X224409000Y-63119000D01*
X209804000Y-69502998D02*
X209804000Y-69596000D01*
X212959997Y-66347001D02*
X209804000Y-69502998D01*
X221180999Y-66347001D02*
X212959997Y-66347001D01*
X200152000Y-69596000D02*
X209804000Y-69596000D01*
X255016000Y-75946000D02*
X255016000Y-71882000D01*
X255016000Y-71882000D02*
X255016000Y-62992000D01*
X258826000Y-76708000D02*
X260025999Y-75508001D01*
X260025999Y-75508001D02*
X265430000Y-70104000D01*
X265430000Y-70104000D02*
X267121000Y-70104000D01*
X232266000Y-75802000D02*
X230245999Y-75802000D01*
X234696000Y-78232000D02*
X232266000Y-75802000D01*
X232289999Y-89916000D02*
X234696000Y-89916000D01*
X232145999Y-89772000D02*
X232289999Y-89916000D01*
X230245999Y-89772000D02*
X232145999Y-89772000D01*
X234696000Y-89916000D02*
X234696000Y-78232000D01*
X250444000Y-88138000D02*
X256159000Y-88138000D01*
X263271000Y-90297000D02*
X263017000Y-90297000D01*
X250048550Y-88533450D02*
X250444000Y-88138000D01*
X258064000Y-90043000D02*
X263017000Y-90043000D01*
X256159000Y-88138000D02*
X258064000Y-90043000D01*
X272208000Y-64977000D02*
X274066000Y-64977000D01*
X269621000Y-67564000D02*
X272208000Y-64977000D01*
X263017000Y-90043000D02*
X269621000Y-83439000D01*
X269621000Y-83439000D02*
X269621000Y-67564000D01*
X234696000Y-91440000D02*
X234696000Y-89916000D01*
X237744000Y-94488000D02*
X234696000Y-91440000D01*
X239522000Y-94488000D02*
X237744000Y-94488000D01*
X250444000Y-90678000D02*
X250444000Y-88138000D01*
X246634000Y-94488000D02*
X250444000Y-90678000D01*
X240665000Y-96901000D02*
X240538000Y-97028000D01*
X240665000Y-94488000D02*
X240665000Y-96901000D01*
X240665000Y-94488000D02*
X246634000Y-94488000D01*
X239522000Y-94488000D02*
X240665000Y-94488000D01*
D29*
X41402000Y-57150000D02*
X41656000Y-57150000D01*
X36322000Y-62230000D02*
X41402000Y-57150000D01*
X34798000Y-62230000D02*
X36322000Y-62230000D01*
X29845000Y-67183000D02*
X34798000Y-62230000D01*
X27305000Y-67183000D02*
X29845000Y-67183000D01*
X25527000Y-68961000D02*
X27305000Y-67183000D01*
X25527000Y-84328000D02*
X25527000Y-68961000D01*
X27686000Y-86487000D02*
X25527000Y-84328000D01*
X45847000Y-57150000D02*
X45974000Y-57277000D01*
X41656000Y-57150000D02*
X45847000Y-57150000D01*
X37592000Y-63500000D02*
X53632000Y-63500000D01*
X36322000Y-62230000D02*
X37592000Y-63500000D01*
X53632000Y-63500000D02*
X56172000Y-60960000D01*
X56172000Y-60960000D02*
X56172000Y-60922000D01*
X56172000Y-60922000D02*
X62484000Y-54610000D01*
X88392000Y-54610000D02*
X90932000Y-57150000D01*
X62484000Y-54610000D02*
X88392000Y-54610000D01*
X77165000Y-71323000D02*
X78638000Y-70104000D01*
X77165000Y-74892000D02*
X77165000Y-71323000D01*
X151892000Y-113284000D02*
X153924000Y-113284000D01*
X149352000Y-110744000D02*
X151892000Y-113284000D01*
X149352000Y-102108000D02*
X149352000Y-110744000D01*
X147320000Y-100076000D02*
X149352000Y-102108000D01*
X129540000Y-100076000D02*
X147320000Y-100076000D01*
X108077000Y-83185000D02*
X110627001Y-85735001D01*
X108077000Y-78486000D02*
X108077000Y-83185000D01*
X110627001Y-85735001D02*
X110627001Y-96911001D01*
X110627001Y-96911001D02*
X112807990Y-99091990D01*
X112807990Y-99091990D02*
X128555990Y-99091990D01*
X128555990Y-99091990D02*
X129540000Y-100076000D01*
X153924000Y-113284000D02*
X155448000Y-113284000D01*
X78638000Y-70104000D02*
X83312000Y-70104000D01*
X86106000Y-67310000D02*
X90932000Y-67310000D01*
X83312000Y-70104000D02*
X86106000Y-67310000D01*
X96520000Y-63500000D02*
X100203000Y-63500000D01*
X90932000Y-67310000D02*
X96520000Y-63500000D01*
X100330000Y-63500000D02*
X100203000Y-63500000D01*
X108085003Y-71255003D02*
X100330000Y-63500000D01*
X108085003Y-71873997D02*
X108085003Y-71255003D01*
X108077000Y-78486000D02*
X108077000Y-71882000D01*
X108077000Y-71882000D02*
X108085003Y-71873997D01*
X114173000Y-57277000D02*
X116332000Y-57277000D01*
X111760000Y-59690000D02*
X114173000Y-57277000D01*
X111760000Y-67310000D02*
X111760000Y-59690000D01*
X108085003Y-71255003D02*
X108085003Y-70984997D01*
X108085003Y-70984997D02*
X111760000Y-67310000D01*
D31*
X255270000Y-107020000D02*
X255270000Y-109220000D01*
X255270000Y-107020000D02*
X255270000Y-106934000D01*
X255270000Y-106934000D02*
X255270000Y-106807000D01*
X260985000Y-101219000D02*
X274447000Y-101219000D01*
X255270000Y-106934000D02*
X260985000Y-101219000D01*
X274066000Y-77689049D02*
X274066000Y-76708000D01*
X274447000Y-101219000D02*
X274447000Y-78070049D01*
X274447000Y-78070049D02*
X274066000Y-77689049D01*
X176530000Y-99568000D02*
X173228000Y-102870000D01*
X201930000Y-99568000D02*
X176530000Y-99568000D01*
X206337009Y-103975009D02*
X201930000Y-99568000D01*
X250698000Y-113792000D02*
X223901000Y-113792000D01*
X255270000Y-109220000D02*
X250698000Y-113792000D01*
X223901000Y-113792000D02*
X221361000Y-111252000D01*
X221361000Y-111252000D02*
X221361000Y-107023010D01*
X221361000Y-107023010D02*
X218312999Y-103975009D01*
X218312999Y-103975009D02*
X206337009Y-103975009D01*
D29*
X203992000Y-125252000D02*
X203992000Y-127230000D01*
X201168000Y-122428000D02*
X203992000Y-125252000D01*
X177800000Y-122428000D02*
X201168000Y-122428000D01*
X174244000Y-118872000D02*
X177800000Y-122428000D01*
X170180000Y-118872000D02*
X174244000Y-118872000D01*
X168148000Y-116840000D02*
X170180000Y-118872000D01*
X168148000Y-114808000D02*
X168148000Y-116840000D01*
X145796000Y-96012000D02*
X150876000Y-101092000D01*
X144152000Y-96012000D02*
X145796000Y-96012000D01*
X150876000Y-101092000D02*
X150876000Y-105156000D01*
X150876000Y-105156000D02*
X159004000Y-113284000D01*
X159004000Y-113284000D02*
X166624000Y-113284000D01*
X166624000Y-113284000D02*
X168148000Y-114808000D01*
X144907000Y-73286000D02*
X145168000Y-73025000D01*
X145168000Y-78606000D02*
X145161000Y-78613000D01*
X144780000Y-73025000D02*
X144780000Y-78606000D01*
X145161000Y-78613000D02*
X143256000Y-78613000D01*
X145669000Y-78613000D02*
X145161000Y-78613000D01*
X150622000Y-83566000D02*
X145669000Y-78613000D01*
X150622000Y-83693000D02*
X150622000Y-83566000D01*
X160909000Y-93980000D02*
X150622000Y-83693000D01*
X180340000Y-92456000D02*
X178816000Y-93980000D01*
X178816000Y-93980000D02*
X177673000Y-93980000D01*
X184397000Y-96513000D02*
X180340000Y-92456000D01*
X197866000Y-96513000D02*
X184397000Y-96513000D01*
X177673000Y-93980000D02*
X177038000Y-93980000D01*
X177038000Y-93980000D02*
X160909000Y-93980000D01*
X206248000Y-111379000D02*
X208534000Y-109093000D01*
X204089000Y-111379000D02*
X206248000Y-111379000D01*
X198865999Y-116602001D02*
X204089000Y-111379000D01*
X197866000Y-117736000D02*
X198865999Y-116736001D01*
X198865999Y-116736001D02*
X198865999Y-116602001D01*
X187743999Y-109003999D02*
X186944000Y-108204000D01*
X195476001Y-116736001D02*
X187743999Y-109003999D01*
X196866001Y-116736001D02*
X195476001Y-116736001D01*
X197866000Y-117736000D02*
X196866001Y-116736001D01*
X192750002Y-110236000D02*
X187680003Y-105166001D01*
X197866000Y-110236000D02*
X192750002Y-110236000D01*
X187680003Y-105166001D02*
X179603997Y-105166001D01*
X179603997Y-105166001D02*
X179105998Y-105664000D01*
X179105998Y-105664000D02*
X169164000Y-105664000D01*
X165608000Y-109220000D02*
X169164000Y-105664000D01*
X163068000Y-109220000D02*
X165608000Y-109220000D01*
X130444990Y-90947990D02*
X128270000Y-88773000D01*
X131445000Y-91948000D02*
X130444990Y-90947990D01*
X146812000Y-91948000D02*
X131445000Y-91948000D01*
X169164000Y-105191998D02*
X167132000Y-103159998D01*
X169164000Y-105664000D02*
X169164000Y-105191998D01*
X167132000Y-103159998D02*
X167132000Y-101092000D01*
X167132000Y-101092000D02*
X162354001Y-96314001D01*
X162354001Y-96314001D02*
X151178001Y-96314001D01*
X151178001Y-96314001D02*
X146812000Y-91948000D01*
X157988000Y-99568000D02*
X161290000Y-102870000D01*
X161290000Y-102870000D02*
X163068000Y-102870000D01*
X151603560Y-99568000D02*
X157988000Y-99568000D01*
X120904000Y-87376000D02*
X127000000Y-93472000D01*
X120904000Y-80772000D02*
X120904000Y-87376000D01*
X127000000Y-93472000D02*
X130140559Y-93472000D01*
X130140559Y-93472000D02*
X130648559Y-93980000D01*
X130648559Y-93980000D02*
X146015560Y-93980000D01*
X146015560Y-93980000D02*
X151603560Y-99568000D01*
X173482000Y-116078000D02*
X171894500Y-116078000D01*
X178054000Y-111506000D02*
X173482000Y-116078000D01*
X183769000Y-110109000D02*
X182372000Y-111506000D01*
X182372000Y-111506000D02*
X178054000Y-111506000D01*
X187743936Y-101818010D02*
X200314990Y-101818010D01*
X186944000Y-102616000D02*
X186945946Y-102616000D01*
X186945946Y-102616000D02*
X187743936Y-101818010D01*
X214884000Y-109093000D02*
X214249000Y-109093000D01*
X214249000Y-109093000D02*
X211582000Y-106426000D01*
X204922980Y-106426000D02*
X200314990Y-101818010D01*
X211582000Y-106426000D02*
X204922980Y-106426000D01*
X202819000Y-120650000D02*
X202819000Y-118237000D01*
X205613000Y-123444000D02*
X202819000Y-120650000D01*
X227000000Y-127230000D02*
X223278700Y-123444000D01*
X223278700Y-123444000D02*
X205613000Y-123444000D01*
X274066000Y-110857523D02*
X274066000Y-107696000D01*
X274066000Y-112696000D02*
X274066000Y-110857523D01*
X272766001Y-113995999D02*
X272766001Y-115229159D01*
X274066000Y-112696000D02*
X272766001Y-113995999D01*
X272766001Y-115229159D02*
X268208760Y-119786400D01*
X268208760Y-126862842D02*
X265716612Y-129354990D01*
X268208760Y-119786400D02*
X268208760Y-126862842D01*
X257124990Y-129354990D02*
X255000000Y-127230000D01*
X265716612Y-129354990D02*
X257124990Y-129354990D01*
D30*
X144479000Y-60532000D02*
X144479000Y-58420000D01*
X149352000Y-65405000D02*
X144479000Y-60532000D01*
X149352000Y-71628000D02*
X149352000Y-65405000D01*
X155318001Y-77594001D02*
X149352000Y-71628000D01*
X156588000Y-78895000D02*
X155318001Y-77625001D01*
X155318001Y-77625001D02*
X155318001Y-77594001D01*
X149479000Y-61087000D02*
X149479000Y-58420000D01*
X153082000Y-64690000D02*
X149479000Y-61087000D01*
X153082000Y-67738000D02*
X153082000Y-64690000D01*
X154940000Y-69596000D02*
X153082000Y-67738000D01*
X172212000Y-69596000D02*
X154940000Y-69596000D01*
X198498000Y-77098949D02*
X195813050Y-74413999D01*
X198498000Y-78895000D02*
X198498000Y-77098949D01*
X195813050Y-74413999D02*
X190491999Y-74413999D01*
X190491999Y-74413999D02*
X183614999Y-67536999D01*
X183614999Y-67536999D02*
X174271001Y-67536999D01*
X174271001Y-67536999D02*
X172212000Y-69596000D01*
D29*
X143256000Y-85471000D02*
X143256000Y-88773000D01*
X140081000Y-82296000D02*
X143256000Y-85471000D01*
X140081000Y-80391000D02*
X138303000Y-78613000D01*
X140081000Y-82296000D02*
X140081000Y-80391000D01*
X138303000Y-78613000D02*
X141732000Y-75184000D01*
X141732000Y-75184000D02*
X141732000Y-69215000D01*
X141732000Y-69215000D02*
X143510000Y-67437000D01*
X143510000Y-67437000D02*
X143510000Y-64389000D01*
X143510000Y-64389000D02*
X140970000Y-61849000D01*
X128651000Y-61849000D02*
X127000000Y-63500000D01*
X140970000Y-61849000D02*
X128651000Y-61849000D01*
X211003000Y-84399000D02*
X214756000Y-84399000D01*
X201549000Y-92456000D02*
X205105000Y-88900000D01*
X186944000Y-92456000D02*
X201549000Y-92456000D01*
X205105000Y-88900000D02*
X207137000Y-88900000D01*
X207137000Y-88900000D02*
X209423000Y-86614000D01*
X209423000Y-86614000D02*
X209423000Y-85979000D01*
X209423000Y-85979000D02*
X211003000Y-84399000D01*
X162179000Y-91440000D02*
X159385000Y-88646000D01*
X176022000Y-91440000D02*
X162179000Y-91440000D01*
X183388000Y-87249000D02*
X180213000Y-87249000D01*
X180213000Y-87249000D02*
X176022000Y-91440000D01*
X192786000Y-88646000D02*
X201295000Y-88646000D01*
X187960000Y-87249000D02*
X190881000Y-87249000D01*
X190881000Y-87249000D02*
X192786000Y-88646000D01*
X23495000Y-67183000D02*
X25781000Y-64897000D01*
X23495000Y-72155523D02*
X23495000Y-67183000D01*
X22352000Y-73298523D02*
X23495000Y-72155523D01*
X22352000Y-75137000D02*
X22352000Y-73298523D01*
X25781000Y-64897000D02*
X28448000Y-64897000D01*
X24892000Y-88900000D02*
X29210000Y-88900000D01*
X22352000Y-80137000D02*
X22352000Y-86360000D01*
X22352000Y-86360000D02*
X24892000Y-88900000D01*
X29591000Y-80772000D02*
X29591000Y-75184000D01*
X29591000Y-75184000D02*
X33147000Y-71628000D01*
X33147000Y-69215000D02*
X35052000Y-67310000D01*
X33147000Y-71628000D02*
X33147000Y-69215000D01*
X40492000Y-113030000D02*
X40092000Y-113430000D01*
D31*
X178816000Y-70612000D02*
X177800000Y-70612000D01*
X183388000Y-77089000D02*
X183388000Y-75184000D01*
X183388000Y-75184000D02*
X178816000Y-70612000D01*
X183388000Y-77089000D02*
X188722000Y-77089000D01*
D29*
X260000000Y-125575371D02*
X260000000Y-127230000D01*
X207010000Y-121412000D02*
X255836629Y-121412000D01*
X205359000Y-119761000D02*
X207010000Y-121412000D01*
X180340000Y-119495370D02*
X181240630Y-120396000D01*
X181240630Y-120396000D02*
X199517000Y-120396000D01*
X255836629Y-121412000D02*
X260000000Y-125575371D01*
X199517000Y-120396000D02*
X200660000Y-119253000D01*
X180340000Y-118364000D02*
X180340000Y-119495370D01*
X200660000Y-119253000D02*
X200660000Y-117602000D01*
X200660000Y-117602000D02*
X201549000Y-116713000D01*
X201549000Y-116713000D02*
X203962000Y-116713000D01*
X205359000Y-118110000D02*
X205359000Y-119761000D01*
X203962000Y-116713000D02*
X205359000Y-118110000D01*
X213092137Y-58662370D02*
X200544630Y-58662370D01*
X213103767Y-58674000D02*
X213092137Y-58662370D01*
X214122000Y-58674000D02*
X213103767Y-58674000D01*
X200544630Y-58662370D02*
X200544630Y-58420000D01*
X218059000Y-76962000D02*
X218059000Y-86995000D01*
X218059000Y-86995000D02*
X208534000Y-96520000D01*
X208534000Y-96520000D02*
X208534000Y-98933000D01*
X211836000Y-70993000D02*
X218059000Y-76962000D01*
X200544630Y-57669630D02*
X198120000Y-55245000D01*
X200544630Y-58662370D02*
X200544630Y-57669630D01*
X200544630Y-65797630D02*
X200544630Y-58662370D01*
X201930000Y-67183000D02*
X200544630Y-65797630D01*
X205740000Y-67183000D02*
X201930000Y-67183000D01*
X217043000Y-63373000D02*
X216408000Y-64008000D01*
X216408000Y-64008000D02*
X209677000Y-64008000D01*
X217043000Y-61338767D02*
X217043000Y-63373000D01*
X220980000Y-58674000D02*
X219707767Y-58674000D01*
X219707767Y-58674000D02*
X217043000Y-61338767D01*
X209677000Y-64008000D02*
X208280000Y-65405000D01*
X214884000Y-92710000D02*
X214884000Y-98933000D01*
X219964000Y-87630000D02*
X214884000Y-92710000D01*
X219964000Y-70993000D02*
X219964000Y-87630000D01*
X185420000Y-56388000D02*
X183896000Y-57912000D01*
X182880000Y-58928000D02*
X183896000Y-57912000D01*
X182880000Y-64008000D02*
X182880000Y-58928000D01*
X179578000Y-64008000D02*
X178522000Y-62992000D01*
X182880000Y-64008000D02*
X179578000Y-64008000D01*
X164338000Y-56620000D02*
X166094000Y-54864000D01*
X173860000Y-56388000D02*
X175260000Y-56388000D01*
X172336000Y-54864000D02*
X173860000Y-56388000D01*
X166094000Y-54864000D02*
X172336000Y-54864000D01*
D30*
X164338000Y-58373000D02*
X164291000Y-58420000D01*
X164338000Y-56620000D02*
X164338000Y-58373000D01*
X52971000Y-68707000D02*
X60960000Y-68707000D01*
X67691000Y-61976000D02*
X84582000Y-61976000D01*
X60960000Y-68707000D02*
X67691000Y-61976000D01*
X164291000Y-58420000D02*
X164291000Y-60405000D01*
X164291000Y-60405000D02*
X167894000Y-64008000D01*
X167894000Y-64008000D02*
X167894000Y-67183000D01*
X87376000Y-64770000D02*
X84582000Y-61976000D01*
X87376000Y-65405000D02*
X87376000Y-64770000D01*
X87427000Y-75145000D02*
X87376000Y-70358000D01*
X134366000Y-68072000D02*
X128316167Y-68072000D01*
X117475000Y-68072000D02*
X123063000Y-68072000D01*
X123063000Y-68072000D02*
X128316167Y-68072000D01*
X211760000Y-75145000D02*
X211760000Y-75260000D01*
X207010000Y-79895000D02*
X211760000Y-75145000D01*
X207010000Y-85852000D02*
X207010000Y-79895000D01*
X128321000Y-68076833D02*
X128316167Y-68072000D01*
X128321000Y-75145000D02*
X128321000Y-68076833D01*
X185928000Y-85217000D02*
X175856000Y-75145000D01*
X175856000Y-75145000D02*
X169850000Y-75145000D01*
X185928000Y-89789000D02*
X185928000Y-85217000D01*
X246126000Y-108585000D02*
X246126000Y-108712000D01*
X240792000Y-103251000D02*
X246126000Y-108585000D01*
X227330000Y-106680000D02*
X227330000Y-105664000D01*
X227330000Y-105664000D02*
X229743000Y-103251000D01*
X232918000Y-103124000D02*
X233045000Y-103251000D01*
X232918000Y-97028000D02*
X232918000Y-103124000D01*
X229743000Y-103251000D02*
X233045000Y-103251000D01*
X233045000Y-103251000D02*
X240792000Y-103251000D01*
X231394000Y-95504000D02*
X232918000Y-97028000D01*
X225933000Y-95504000D02*
X231394000Y-95504000D01*
X225171000Y-94742000D02*
X225933000Y-95504000D01*
X225171000Y-92075000D02*
X225171000Y-94742000D01*
X222123000Y-75946000D02*
X222123000Y-89027000D01*
X222123000Y-89027000D02*
X225171000Y-92075000D01*
D29*
X203200000Y-64273630D02*
X205751630Y-61722000D01*
X205751630Y-61722000D02*
X205751630Y-61710370D01*
X206248000Y-61214000D02*
X214122000Y-61214000D01*
X205751630Y-61710370D02*
X206248000Y-61214000D01*
X203200000Y-64273630D02*
X203200000Y-65405000D01*
X192492000Y-63460000D02*
X193040000Y-64008000D01*
X192492000Y-57404000D02*
X192492000Y-63460000D01*
X193291999Y-56604001D02*
X192492000Y-57404000D01*
X196201001Y-53694999D02*
X193291999Y-56604001D01*
X206729999Y-53694999D02*
X196201001Y-53694999D01*
X193040000Y-64008000D02*
X194437000Y-65405000D01*
X208280000Y-55245000D02*
X206729999Y-53694999D01*
X194437000Y-65405000D02*
X198120000Y-65405000D01*
M02*
