G04 #@! TF.GenerationSoftware,KiCad,Pcbnew,(5.1.12)-1*
G04 #@! TF.CreationDate,2024-07-10T21:06:20+02:00*
G04 #@! TF.ProjectId,JCM800,4a434d38-3030-42e6-9b69-6361645f7063,0.2*
G04 #@! TF.SameCoordinates,Original*
G04 #@! TF.FileFunction,Soldermask,Bot*
G04 #@! TF.FilePolarity,Negative*
%FSLAX46Y46*%
G04 Gerber Fmt 4.6, Leading zero omitted, Abs format (unit mm)*
G04 Created by KiCad (PCBNEW (5.1.12)-1) date 2024-07-10 21:06:20*
%MOMM*%
%LPD*%
G01*
G04 APERTURE LIST*
%ADD10O,1.702000X1.702000*%
%ADD11C,1.702000*%
%ADD12C,2.642000*%
%ADD13C,2.502000*%
%ADD14O,2.502000X2.502000*%
%ADD15C,3.102000*%
%ADD16C,2.102000*%
%ADD17C,2.702000*%
%ADD18C,3.302000*%
%ADD19O,1.902000X1.902000*%
%ADD20C,2.442000*%
%ADD21C,1.542000*%
G04 APERTURE END LIST*
D10*
X173228000Y-109220000D03*
D11*
X163068000Y-109220000D03*
D12*
X201295000Y-88646000D03*
X211709000Y-88773000D03*
X198375000Y-84526000D03*
X198498000Y-78895000D03*
X201498000Y-74891000D03*
X206502000Y-73391000D03*
X211760000Y-75145000D03*
X214756000Y-84399000D03*
X214506000Y-79022000D03*
D11*
X90932000Y-67310000D03*
D10*
X90932000Y-57150000D03*
D13*
X245872000Y-109220000D03*
D14*
X245872000Y-93980000D03*
G36*
G01*
X98952000Y-64700000D02*
X98952000Y-62300000D01*
G75*
G02*
X99003000Y-62249000I51000J0D01*
G01*
X101403000Y-62249000D01*
G75*
G02*
X101454000Y-62300000I0J-51000D01*
G01*
X101454000Y-64700000D01*
G75*
G02*
X101403000Y-64751000I-51000J0D01*
G01*
X99003000Y-64751000D01*
G75*
G02*
X98952000Y-64700000I0J51000D01*
G01*
G37*
D13*
X107703000Y-63500000D03*
D15*
X23900000Y-113430000D03*
X23900000Y-119730000D03*
X23900000Y-126030000D03*
X40100000Y-113430000D03*
X40100000Y-119730000D03*
X40100000Y-126030000D03*
X53900000Y-113430000D03*
X53900000Y-119730000D03*
X53900000Y-126030000D03*
X70100000Y-113430000D03*
X70100000Y-119730000D03*
X70100000Y-126030000D03*
D11*
X62166500Y-81534000D03*
X62166500Y-86534000D03*
X85852000Y-99060000D03*
X85852000Y-104060000D03*
D16*
X125222000Y-111760000D03*
X125222000Y-104260000D03*
X145542000Y-104267000D03*
X145542000Y-111767000D03*
X62801500Y-76708000D03*
X55301500Y-76708000D03*
X62992000Y-94996000D03*
X62992000Y-102496000D03*
X47752000Y-98044000D03*
X47752000Y-105544000D03*
X115062000Y-111760000D03*
X115062000Y-104260000D03*
G36*
G01*
X234396000Y-57120000D02*
X234396000Y-59720000D01*
G75*
G02*
X234345000Y-59771000I-51000J0D01*
G01*
X231745000Y-59771000D01*
G75*
G02*
X231694000Y-59720000I0J51000D01*
G01*
X231694000Y-57120000D01*
G75*
G02*
X231745000Y-57069000I51000J0D01*
G01*
X234345000Y-57069000D01*
G75*
G02*
X234396000Y-57120000I0J-51000D01*
G01*
G37*
D17*
X228045000Y-58420000D03*
D13*
X262770000Y-109220000D03*
G36*
G01*
X254019000Y-110420000D02*
X254019000Y-108020000D01*
G75*
G02*
X254070000Y-107969000I51000J0D01*
G01*
X256470000Y-107969000D01*
G75*
G02*
X256521000Y-108020000I0J-51000D01*
G01*
X256521000Y-110420000D01*
G75*
G02*
X256470000Y-110471000I-51000J0D01*
G01*
X254070000Y-110471000D01*
G75*
G02*
X254019000Y-110420000I0J51000D01*
G01*
G37*
G36*
G01*
X253765000Y-64192000D02*
X253765000Y-61792000D01*
G75*
G02*
X253816000Y-61741000I51000J0D01*
G01*
X256216000Y-61741000D01*
G75*
G02*
X256267000Y-61792000I0J-51000D01*
G01*
X256267000Y-64192000D01*
G75*
G02*
X256216000Y-64243000I-51000J0D01*
G01*
X253816000Y-64243000D01*
G75*
G02*
X253765000Y-64192000I0J51000D01*
G01*
G37*
X262516000Y-62992000D03*
G36*
G01*
X51581000Y-64700000D02*
X51581000Y-62300000D01*
G75*
G02*
X51632000Y-62249000I51000J0D01*
G01*
X54032000Y-62249000D01*
G75*
G02*
X54083000Y-62300000I0J-51000D01*
G01*
X54083000Y-64700000D01*
G75*
G02*
X54032000Y-64751000I-51000J0D01*
G01*
X51632000Y-64751000D01*
G75*
G02*
X51581000Y-64700000I0J51000D01*
G01*
G37*
X60332000Y-63500000D03*
G36*
G01*
X261766000Y-91243000D02*
X261766000Y-88843000D01*
G75*
G02*
X261817000Y-88792000I51000J0D01*
G01*
X264217000Y-88792000D01*
G75*
G02*
X264268000Y-88843000I0J-51000D01*
G01*
X264268000Y-91243000D01*
G75*
G02*
X264217000Y-91294000I-51000J0D01*
G01*
X261817000Y-91294000D01*
G75*
G02*
X261766000Y-91243000I0J51000D01*
G01*
G37*
X270517000Y-90043000D03*
D18*
X189992000Y-125730000D03*
X122428000Y-57404000D03*
X105918000Y-125730000D03*
X46990000Y-126238000D03*
X273050000Y-57404000D03*
X156972000Y-57404000D03*
X23749000Y-57404000D03*
G36*
G01*
X197299000Y-69850000D02*
X197299000Y-68150000D01*
G75*
G02*
X197350000Y-68099000I51000J0D01*
G01*
X199050000Y-68099000D01*
G75*
G02*
X199101000Y-68150000I0J-51000D01*
G01*
X199101000Y-69850000D01*
G75*
G02*
X199050000Y-69901000I-51000J0D01*
G01*
X197350000Y-69901000D01*
G75*
G02*
X197299000Y-69850000I0J51000D01*
G01*
G37*
D11*
X57959000Y-89662000D03*
X52959000Y-89662000D03*
X78232000Y-99140000D03*
X78232000Y-104140000D03*
D19*
X242105999Y-89172000D03*
G36*
G01*
X230994999Y-90072000D02*
X230994999Y-88272000D01*
G75*
G02*
X231045999Y-88221000I51000J0D01*
G01*
X232845999Y-88221000D01*
G75*
G02*
X232896999Y-88272000I0J-51000D01*
G01*
X232896999Y-90072000D01*
G75*
G02*
X232845999Y-90123000I-51000J0D01*
G01*
X231045999Y-90123000D01*
G75*
G02*
X230994999Y-90072000I0J51000D01*
G01*
G37*
G36*
G01*
X243051000Y-74300000D02*
X243051000Y-76100000D01*
G75*
G02*
X243000000Y-76151000I-51000J0D01*
G01*
X241200000Y-76151000D01*
G75*
G02*
X241149000Y-76100000I0J51000D01*
G01*
X241149000Y-74300000D01*
G75*
G02*
X241200000Y-74249000I51000J0D01*
G01*
X243000000Y-74249000D01*
G75*
G02*
X243051000Y-74300000I0J-51000D01*
G01*
G37*
X231940000Y-75200000D03*
X242260000Y-81800000D03*
G36*
G01*
X231149000Y-82700000D02*
X231149000Y-80900000D01*
G75*
G02*
X231200000Y-80849000I51000J0D01*
G01*
X233000000Y-80849000D01*
G75*
G02*
X233051000Y-80900000I0J-51000D01*
G01*
X233051000Y-82700000D01*
G75*
G02*
X233000000Y-82751000I-51000J0D01*
G01*
X231200000Y-82751000D01*
G75*
G02*
X231149000Y-82700000I0J51000D01*
G01*
G37*
G36*
G01*
X243056999Y-67317000D02*
X243056999Y-69117000D01*
G75*
G02*
X243005999Y-69168000I-51000J0D01*
G01*
X241205999Y-69168000D01*
G75*
G02*
X241154999Y-69117000I0J51000D01*
G01*
X241154999Y-67317000D01*
G75*
G02*
X241205999Y-67266000I51000J0D01*
G01*
X243005999Y-67266000D01*
G75*
G02*
X243056999Y-67317000I0J-51000D01*
G01*
G37*
X231945999Y-68217000D03*
D11*
X46990000Y-120015000D03*
D10*
X46990000Y-109855000D03*
D11*
X37211000Y-96520000D03*
D10*
X37211000Y-106680000D03*
D11*
X55372000Y-106680000D03*
D10*
X55372000Y-96520000D03*
D11*
X27686000Y-96647000D03*
D10*
X27686000Y-86487000D03*
X70612000Y-106680000D03*
D11*
X70612000Y-96520000D03*
X35052000Y-57150000D03*
D10*
X35052000Y-67310000D03*
D11*
X41656000Y-67310000D03*
D10*
X41656000Y-57150000D03*
X67246500Y-86360000D03*
D11*
X67246500Y-76200000D03*
D10*
X70612000Y-67310000D03*
D11*
X70612000Y-57150000D03*
X101219000Y-74422000D03*
D10*
X101219000Y-84582000D03*
D11*
X108077000Y-88646000D03*
D10*
X108077000Y-78486000D03*
D11*
X155448000Y-113284000D03*
D10*
X155448000Y-103124000D03*
X80772000Y-67310000D03*
D11*
X80772000Y-57150000D03*
X135382000Y-113030000D03*
D10*
X135382000Y-102870000D03*
G36*
G01*
X246588000Y-57120000D02*
X246588000Y-59720000D01*
G75*
G02*
X246537000Y-59771000I-51000J0D01*
G01*
X243937000Y-59771000D01*
G75*
G02*
X243886000Y-59720000I0J51000D01*
G01*
X243886000Y-57120000D01*
G75*
G02*
X243937000Y-57069000I51000J0D01*
G01*
X246537000Y-57069000D01*
G75*
G02*
X246588000Y-57120000I0J-51000D01*
G01*
G37*
D17*
X240237000Y-58420000D03*
X164291000Y-58420000D03*
G36*
G01*
X170642000Y-57120000D02*
X170642000Y-59720000D01*
G75*
G02*
X170591000Y-59771000I-51000J0D01*
G01*
X167991000Y-59771000D01*
G75*
G02*
X167940000Y-59720000I0J51000D01*
G01*
X167940000Y-57120000D01*
G75*
G02*
X167991000Y-57069000I51000J0D01*
G01*
X170591000Y-57069000D01*
G75*
G02*
X170642000Y-57120000I0J-51000D01*
G01*
G37*
G36*
G01*
X224799000Y-70250000D02*
X224799000Y-68550000D01*
G75*
G02*
X224850000Y-68499000I51000J0D01*
G01*
X226550000Y-68499000D01*
G75*
G02*
X226601000Y-68550000I0J-51000D01*
G01*
X226601000Y-70250000D01*
G75*
G02*
X226550000Y-70301000I-51000J0D01*
G01*
X224850000Y-70301000D01*
G75*
G02*
X224799000Y-70250000I0J51000D01*
G01*
G37*
G36*
G01*
X226175000Y-105498000D02*
X226175000Y-103798000D01*
G75*
G02*
X226226000Y-103747000I51000J0D01*
G01*
X227926000Y-103747000D01*
G75*
G02*
X227977000Y-103798000I0J-51000D01*
G01*
X227977000Y-105498000D01*
G75*
G02*
X227926000Y-105549000I-51000J0D01*
G01*
X226226000Y-105549000D01*
G75*
G02*
X226175000Y-105498000I0J51000D01*
G01*
G37*
G36*
G01*
X234811000Y-109562000D02*
X234811000Y-107862000D01*
G75*
G02*
X234862000Y-107811000I51000J0D01*
G01*
X236562000Y-107811000D01*
G75*
G02*
X236613000Y-107862000I0J-51000D01*
G01*
X236613000Y-109562000D01*
G75*
G02*
X236562000Y-109613000I-51000J0D01*
G01*
X234862000Y-109613000D01*
G75*
G02*
X234811000Y-109562000I0J51000D01*
G01*
G37*
G36*
G01*
X234811000Y-119214000D02*
X234811000Y-117514000D01*
G75*
G02*
X234862000Y-117463000I51000J0D01*
G01*
X236562000Y-117463000D01*
G75*
G02*
X236613000Y-117514000I0J-51000D01*
G01*
X236613000Y-119214000D01*
G75*
G02*
X236562000Y-119265000I-51000J0D01*
G01*
X234862000Y-119265000D01*
G75*
G02*
X234811000Y-119214000I0J51000D01*
G01*
G37*
D10*
X103886000Y-89281000D03*
D11*
X93726000Y-89281000D03*
D10*
X102616000Y-96774000D03*
D11*
X92456000Y-96774000D03*
D20*
X181000000Y-127230000D03*
X176000000Y-127230000D03*
X171000000Y-127230000D03*
X97000000Y-127230000D03*
X92000000Y-127230000D03*
X87000000Y-127230000D03*
X199000000Y-127230000D03*
X204000000Y-127230000D03*
X209000000Y-127230000D03*
X153000000Y-127230000D03*
X148000000Y-127230000D03*
X143000000Y-127230000D03*
X115000000Y-127230000D03*
X120000000Y-127230000D03*
X125000000Y-127230000D03*
D16*
X144152000Y-96012000D03*
X136652000Y-96012000D03*
X137160000Y-73025000D03*
X144660000Y-73025000D03*
X197866000Y-117736000D03*
X197866000Y-110236000D03*
X171894500Y-116078000D03*
X164394500Y-116078000D03*
X197866000Y-96513000D03*
X197866000Y-104013000D03*
D20*
X265000000Y-127230000D03*
X260000000Y-127230000D03*
X255000000Y-127230000D03*
X227000000Y-127230000D03*
X232000000Y-127230000D03*
X237000000Y-127230000D03*
D11*
X124460000Y-117094000D03*
D10*
X114300000Y-117094000D03*
X143256000Y-88773000D03*
D11*
X143256000Y-78613000D03*
X138303000Y-78613000D03*
D10*
X138303000Y-88773000D03*
X128016000Y-97282000D03*
D11*
X117856000Y-97282000D03*
X127000000Y-63500000D03*
D10*
X116840000Y-63500000D03*
X163068000Y-102870000D03*
D11*
X173228000Y-102870000D03*
X208534000Y-109093000D03*
D10*
X208534000Y-98933000D03*
D11*
X214884000Y-98933000D03*
D10*
X214884000Y-109093000D03*
X186944000Y-108204000D03*
D11*
X186944000Y-118364000D03*
D10*
X186944000Y-102616000D03*
D11*
X186944000Y-92456000D03*
D10*
X183388000Y-77089000D03*
D11*
X183388000Y-87249000D03*
X188722000Y-77089000D03*
D10*
X188722000Y-87249000D03*
X180340000Y-102616000D03*
D11*
X180340000Y-92456000D03*
X180340000Y-118364000D03*
D10*
X180340000Y-108204000D03*
D12*
X49279000Y-79022000D03*
X49529000Y-84399000D03*
X46533000Y-75145000D03*
X41275000Y-73391000D03*
X36271000Y-74891000D03*
X33271000Y-78895000D03*
X33148000Y-84526000D03*
X46482000Y-88773000D03*
X36068000Y-88646000D03*
X90173000Y-79022000D03*
X90423000Y-84399000D03*
X87427000Y-75145000D03*
X82169000Y-73391000D03*
X77165000Y-74891000D03*
X74165000Y-78895000D03*
X74042000Y-84526000D03*
X87376000Y-88773000D03*
X76962000Y-88646000D03*
X131067000Y-79022000D03*
X131317000Y-84399000D03*
X128321000Y-75145000D03*
X123063000Y-73391000D03*
X118059000Y-74891000D03*
X115059000Y-78895000D03*
X114936000Y-84526000D03*
X128270000Y-88773000D03*
X117856000Y-88646000D03*
X159385000Y-88646000D03*
X169799000Y-88773000D03*
X156465000Y-84526000D03*
X156588000Y-78895000D03*
X159588000Y-74891000D03*
X164592000Y-73391000D03*
X169850000Y-75145000D03*
X172846000Y-84399000D03*
X172596000Y-79022000D03*
D14*
X258826000Y-76708000D03*
D13*
X274066000Y-76708000D03*
D18*
X273050000Y-125730000D03*
X69088000Y-91440000D03*
X152908000Y-92964000D03*
X222504000Y-93853000D03*
D11*
X28448000Y-64897000D03*
X28448000Y-69897000D03*
G36*
G01*
X21052000Y-73833000D02*
X23652000Y-73833000D01*
G75*
G02*
X23703000Y-73884000I0J-51000D01*
G01*
X23703000Y-76484000D01*
G75*
G02*
X23652000Y-76535000I-51000J0D01*
G01*
X21052000Y-76535000D01*
G75*
G02*
X21001000Y-76484000I0J51000D01*
G01*
X21001000Y-73884000D01*
G75*
G02*
X21052000Y-73833000I51000J0D01*
G01*
G37*
D17*
X22352000Y-80184000D03*
D14*
X250444000Y-88138000D03*
D13*
X250444000Y-80518000D03*
G36*
G01*
X138765000Y-57120000D02*
X138765000Y-59720000D01*
G75*
G02*
X138714000Y-59771000I-51000J0D01*
G01*
X136114000Y-59771000D01*
G75*
G02*
X136063000Y-59720000I0J51000D01*
G01*
X136063000Y-57120000D01*
G75*
G02*
X136114000Y-57069000I51000J0D01*
G01*
X138714000Y-57069000D01*
G75*
G02*
X138765000Y-57120000I0J-51000D01*
G01*
G37*
D17*
X132414000Y-58420000D03*
X144479000Y-58420000D03*
G36*
G01*
X150830000Y-57120000D02*
X150830000Y-59720000D01*
G75*
G02*
X150779000Y-59771000I-51000J0D01*
G01*
X148179000Y-59771000D01*
G75*
G02*
X148128000Y-59720000I0J51000D01*
G01*
X148128000Y-57120000D01*
G75*
G02*
X148179000Y-57069000I51000J0D01*
G01*
X150779000Y-57069000D01*
G75*
G02*
X150830000Y-57120000I0J-51000D01*
G01*
G37*
G36*
G01*
X275366000Y-71328000D02*
X272766000Y-71328000D01*
G75*
G02*
X272715000Y-71277000I0J51000D01*
G01*
X272715000Y-68677000D01*
G75*
G02*
X272766000Y-68626000I51000J0D01*
G01*
X275366000Y-68626000D01*
G75*
G02*
X275417000Y-68677000I0J-51000D01*
G01*
X275417000Y-71277000D01*
G75*
G02*
X275366000Y-71328000I-51000J0D01*
G01*
G37*
X274066000Y-64977000D03*
D13*
X193040000Y-70612000D03*
D14*
X177800000Y-70612000D03*
D17*
X274066000Y-107649000D03*
G36*
G01*
X275366000Y-114000000D02*
X272766000Y-114000000D01*
G75*
G02*
X272715000Y-113949000I0J51000D01*
G01*
X272715000Y-111349000D01*
G75*
G02*
X272766000Y-111298000I51000J0D01*
G01*
X275366000Y-111298000D01*
G75*
G02*
X275417000Y-111349000I0J-51000D01*
G01*
X275417000Y-113949000D01*
G75*
G02*
X275366000Y-114000000I-51000J0D01*
G01*
G37*
G36*
G01*
X218047000Y-105498000D02*
X218047000Y-103798000D01*
G75*
G02*
X218098000Y-103747000I51000J0D01*
G01*
X219798000Y-103747000D01*
G75*
G02*
X219849000Y-103798000I0J-51000D01*
G01*
X219849000Y-105498000D01*
G75*
G02*
X219798000Y-105549000I-51000J0D01*
G01*
X218098000Y-105549000D01*
G75*
G02*
X218047000Y-105498000I0J51000D01*
G01*
G37*
D21*
X214122000Y-61214000D03*
X214122000Y-58674000D03*
X214122000Y-56134000D03*
X220980000Y-56134000D03*
X220980000Y-58674000D03*
X220980000Y-61214000D03*
G36*
G01*
X175171000Y-63792000D02*
X175171000Y-62192000D01*
G75*
G02*
X175222000Y-62141000I51000J0D01*
G01*
X176822000Y-62141000D01*
G75*
G02*
X176873000Y-62192000I0J-51000D01*
G01*
X176873000Y-63792000D01*
G75*
G02*
X176822000Y-63843000I-51000J0D01*
G01*
X175222000Y-63843000D01*
G75*
G02*
X175171000Y-63792000I0J51000D01*
G01*
G37*
D11*
X178522000Y-62992000D03*
X192492000Y-57404000D03*
G36*
G01*
X189141000Y-58204000D02*
X189141000Y-56604000D01*
G75*
G02*
X189192000Y-56553000I51000J0D01*
G01*
X190792000Y-56553000D01*
G75*
G02*
X190843000Y-56604000I0J-51000D01*
G01*
X190843000Y-58204000D01*
G75*
G02*
X190792000Y-58255000I-51000J0D01*
G01*
X189192000Y-58255000D01*
G75*
G02*
X189141000Y-58204000I0J51000D01*
G01*
G37*
D19*
X174440000Y-56700000D03*
G36*
G01*
X185551000Y-55800000D02*
X185551000Y-57600000D01*
G75*
G02*
X185500000Y-57651000I-51000J0D01*
G01*
X183700000Y-57651000D01*
G75*
G02*
X183649000Y-57600000I0J51000D01*
G01*
X183649000Y-55800000D01*
G75*
G02*
X183700000Y-55749000I51000J0D01*
G01*
X185500000Y-55749000D01*
G75*
G02*
X185551000Y-55800000I0J-51000D01*
G01*
G37*
D11*
X182880000Y-64008000D03*
D10*
X193040000Y-64008000D03*
D11*
X198120000Y-55245000D03*
D10*
X198120000Y-65405000D03*
X208280000Y-65405000D03*
D11*
X208280000Y-55245000D03*
X203200000Y-55245000D03*
D10*
X203200000Y-65405000D03*
G36*
G01*
X273546000Y-102069000D02*
X273546000Y-100369000D01*
G75*
G02*
X273597000Y-100318000I51000J0D01*
G01*
X275297000Y-100318000D01*
G75*
G02*
X275348000Y-100369000I0J-51000D01*
G01*
X275348000Y-102069000D01*
G75*
G02*
X275297000Y-102120000I-51000J0D01*
G01*
X273597000Y-102120000D01*
G75*
G02*
X273546000Y-102069000I0J51000D01*
G01*
G37*
G36*
G01*
X115431000Y-58127000D02*
X115431000Y-56427000D01*
G75*
G02*
X115482000Y-56376000I51000J0D01*
G01*
X117182000Y-56376000D01*
G75*
G02*
X117233000Y-56427000I0J-51000D01*
G01*
X117233000Y-58127000D01*
G75*
G02*
X117182000Y-58178000I-51000J0D01*
G01*
X115482000Y-58178000D01*
G75*
G02*
X115431000Y-58127000I0J51000D01*
G01*
G37*
G36*
G01*
X44946000Y-58000000D02*
X44946000Y-56300000D01*
G75*
G02*
X44997000Y-56249000I51000J0D01*
G01*
X46697000Y-56249000D01*
G75*
G02*
X46748000Y-56300000I0J-51000D01*
G01*
X46748000Y-58000000D01*
G75*
G02*
X46697000Y-58051000I-51000J0D01*
G01*
X44997000Y-58051000D01*
G75*
G02*
X44946000Y-58000000I0J51000D01*
G01*
G37*
M02*
