G04 #@! TF.GenerationSoftware,KiCad,Pcbnew,(5.1.4)-1*
G04 #@! TF.CreationDate,2019-12-04T16:20:32+01:00*
G04 #@! TF.ProjectId,JCM800,4a434d38-3030-42e6-9b69-6361645f7063,rev?*
G04 #@! TF.SameCoordinates,Original*
G04 #@! TF.FileFunction,Copper,L1,Top*
G04 #@! TF.FilePolarity,Positive*
%FSLAX46Y46*%
G04 Gerber Fmt 4.6, Leading zero omitted, Abs format (unit mm)*
G04 Created by KiCad (PCBNEW (5.1.4)-1) date 2019-12-04 16:20:32*
%MOMM*%
%LPD*%
G04 APERTURE LIST*
%ADD10C,2.540000*%
%ADD11O,1.600000X1.600000*%
%ADD12C,1.600000*%
%ADD13O,2.400000X2.400000*%
%ADD14C,2.400000*%
%ADD15R,2.400000X2.400000*%
%ADD16C,3.000000*%
%ADD17C,2.000000*%
%ADD18C,2.600000*%
%ADD19R,2.600000X2.600000*%
%ADD20R,1.700000X1.700000*%
%ADD21R,1.800000X1.800000*%
%ADD22O,1.800000X1.800000*%
%ADD23C,2.340000*%
%ADD24R,1.600000X1.600000*%
%ADD25C,0.800000*%
%ADD26C,0.500000*%
%ADD27C,0.750000*%
%ADD28C,1.000000*%
G04 APERTURE END LIST*
D10*
X214252000Y-79022000D03*
X214502000Y-84399000D03*
X211506000Y-75145000D03*
X206248000Y-73391000D03*
X201244000Y-74891000D03*
X198244000Y-78895000D03*
X198121000Y-84526000D03*
X211455000Y-88773000D03*
X201041000Y-88646000D03*
D11*
X90678000Y-57150000D03*
D12*
X90678000Y-67310000D03*
D13*
X242570000Y-94488000D03*
D14*
X242570000Y-109728000D03*
X108338000Y-63500000D03*
D15*
X100838000Y-63500000D03*
D16*
X23638000Y-126030000D03*
X23638000Y-119730000D03*
X23638000Y-113430000D03*
X39838000Y-126030000D03*
X39838000Y-119730000D03*
X39838000Y-113430000D03*
X53638000Y-126030000D03*
X53638000Y-119730000D03*
X53638000Y-113430000D03*
X69838000Y-126030000D03*
X69838000Y-119730000D03*
X69838000Y-113430000D03*
D12*
X61468000Y-86534000D03*
X61468000Y-81534000D03*
X85598000Y-104060000D03*
X85598000Y-99060000D03*
D17*
X124968000Y-104260000D03*
X124968000Y-111760000D03*
X145288000Y-111767000D03*
X145288000Y-104267000D03*
X54603000Y-76708000D03*
X62103000Y-76708000D03*
X62738000Y-102496000D03*
X62738000Y-94996000D03*
X47498000Y-105544000D03*
X47498000Y-98044000D03*
X114808000Y-104260000D03*
X114808000Y-111760000D03*
D18*
X231980000Y-58944000D03*
D19*
X226980000Y-58944000D03*
D14*
X268278000Y-110617000D03*
D15*
X260778000Y-110617000D03*
D14*
X263151000Y-63881000D03*
D15*
X255651000Y-63881000D03*
D14*
X60078000Y-63500000D03*
D15*
X52578000Y-63500000D03*
D14*
X268262000Y-90948000D03*
D15*
X260762000Y-90948000D03*
D20*
X139954000Y-58547000D03*
X80264000Y-114300000D03*
X131318000Y-58420000D03*
D12*
X52705000Y-89662000D03*
X57705000Y-89662000D03*
X77978000Y-104140000D03*
X77978000Y-99140000D03*
D21*
X228975999Y-89264000D03*
D22*
X239135999Y-89264000D03*
X228975999Y-82279000D03*
D21*
X239135999Y-82279000D03*
X228975999Y-75294000D03*
D22*
X239135999Y-75294000D03*
X228975999Y-68309000D03*
D21*
X239135999Y-68309000D03*
D11*
X46736000Y-109855000D03*
D12*
X46736000Y-120015000D03*
D11*
X36957000Y-106680000D03*
D12*
X36957000Y-96520000D03*
D11*
X55118000Y-96520000D03*
D12*
X55118000Y-106680000D03*
X26035000Y-95250000D03*
D11*
X26035000Y-85090000D03*
D12*
X70358000Y-96520000D03*
D11*
X70358000Y-106680000D03*
X32258000Y-67310000D03*
D12*
X32258000Y-57150000D03*
D11*
X41148000Y-57150000D03*
D12*
X41148000Y-67310000D03*
X66548000Y-76200000D03*
D11*
X66548000Y-86360000D03*
D12*
X70358000Y-57150000D03*
D11*
X70358000Y-67310000D03*
X100965000Y-84582000D03*
D12*
X100965000Y-74422000D03*
D11*
X107823000Y-78486000D03*
D12*
X107823000Y-88646000D03*
D11*
X232949000Y-98441000D03*
D12*
X232949000Y-108601000D03*
X80518000Y-57150000D03*
D11*
X80518000Y-67310000D03*
D12*
X135128000Y-113030000D03*
D11*
X135128000Y-102870000D03*
X173609000Y-65659000D03*
D12*
X183769000Y-65659000D03*
X189230000Y-64008000D03*
D11*
X199390000Y-64008000D03*
D18*
X244807000Y-58944000D03*
D19*
X239807000Y-58944000D03*
X175514000Y-58674000D03*
D18*
X180514000Y-58674000D03*
D20*
X226822000Y-106299000D03*
X85598000Y-57150000D03*
X56261000Y-84074000D03*
X93980000Y-72009000D03*
D12*
X93472000Y-89281000D03*
D11*
X103632000Y-89281000D03*
D12*
X92202000Y-96774000D03*
D11*
X102362000Y-96774000D03*
D23*
X180738000Y-127254000D03*
X175738000Y-127254000D03*
X170738000Y-127254000D03*
X96738000Y-127230000D03*
X91738000Y-127230000D03*
X86738000Y-127230000D03*
X198738000Y-127230000D03*
X203738000Y-127230000D03*
X208738000Y-127230000D03*
X152748000Y-127230000D03*
X147748000Y-127230000D03*
X142748000Y-127230000D03*
X114738000Y-127230000D03*
X119738000Y-127230000D03*
X124738000Y-127230000D03*
D17*
X136398000Y-96012000D03*
X143898000Y-96012000D03*
X144914000Y-73025000D03*
X137414000Y-73025000D03*
X197612000Y-110236000D03*
X197612000Y-117736000D03*
X160782000Y-116078000D03*
X168282000Y-116078000D03*
D24*
X219964000Y-66421000D03*
D12*
X219964000Y-63921000D03*
D17*
X193802000Y-104394000D03*
X201302000Y-104394000D03*
D23*
X264698000Y-127200000D03*
X259698000Y-127200000D03*
X254698000Y-127200000D03*
D20*
X145034000Y-58547000D03*
D23*
X226698000Y-127200000D03*
X231698000Y-127200000D03*
X236698000Y-127200000D03*
D11*
X116967000Y-117094000D03*
D12*
X127127000Y-117094000D03*
X144653000Y-78613000D03*
D11*
X144653000Y-88773000D03*
X139065000Y-88773000D03*
D12*
X139065000Y-78613000D03*
X117602000Y-97282000D03*
D11*
X127762000Y-97282000D03*
X116586000Y-63500000D03*
D12*
X126746000Y-63500000D03*
X159766000Y-109220000D03*
D11*
X169926000Y-109220000D03*
D12*
X169926000Y-102870000D03*
D11*
X159766000Y-102870000D03*
X208280000Y-104648000D03*
D12*
X208280000Y-114808000D03*
D11*
X180086000Y-107696000D03*
D12*
X180086000Y-117856000D03*
X186690000Y-117856000D03*
D11*
X186690000Y-107696000D03*
D12*
X186690000Y-92964000D03*
D11*
X186690000Y-103124000D03*
D12*
X183134000Y-87249000D03*
D11*
X183134000Y-77089000D03*
X187706000Y-87249000D03*
D12*
X187706000Y-77089000D03*
X180086000Y-92964000D03*
D11*
X180086000Y-103124000D03*
X214630000Y-104648000D03*
D12*
X214630000Y-114808000D03*
D10*
X35814000Y-88646000D03*
X46228000Y-88773000D03*
X32894000Y-84526000D03*
X33017000Y-78895000D03*
X36017000Y-74891000D03*
X41021000Y-73391000D03*
X46279000Y-75145000D03*
X49275000Y-84399000D03*
X49025000Y-79022000D03*
X76708000Y-88646000D03*
X87122000Y-88773000D03*
X73788000Y-84526000D03*
X73911000Y-78895000D03*
X76911000Y-74891000D03*
X81915000Y-73391000D03*
X87173000Y-75145000D03*
X90169000Y-84399000D03*
X89919000Y-79022000D03*
X117602000Y-88646000D03*
X128016000Y-88773000D03*
X114682000Y-84526000D03*
X114805000Y-78895000D03*
X117805000Y-74891000D03*
X122809000Y-73391000D03*
X128067000Y-75145000D03*
X131063000Y-84399000D03*
X130813000Y-79022000D03*
X172342000Y-79022000D03*
X172592000Y-84399000D03*
X169596000Y-75145000D03*
X164338000Y-73391000D03*
X159334000Y-74891000D03*
X156334000Y-78895000D03*
X156211000Y-84526000D03*
X169545000Y-88773000D03*
X159131000Y-88646000D03*
D14*
X250190000Y-100457000D03*
D13*
X250190000Y-85217000D03*
D14*
X202184000Y-58420000D03*
D13*
X217424000Y-58420000D03*
D14*
X251206000Y-77597000D03*
D13*
X271526000Y-77597000D03*
D25*
X147828000Y-122682000D03*
X132969000Y-127381000D03*
X84455000Y-68072000D03*
X47498000Y-61468000D03*
X153145999Y-67858991D03*
X128059991Y-66059001D03*
X70231000Y-80264000D03*
X150622000Y-105156000D03*
X199019943Y-97051943D03*
X120650000Y-80772000D03*
X201168000Y-118110000D03*
X211506000Y-75145000D03*
D26*
X170914000Y-127230000D02*
X170938000Y-127254000D01*
X152748000Y-127230000D02*
X170914000Y-127230000D01*
D27*
X124738000Y-111990000D02*
X124968000Y-111760000D01*
D26*
X173014000Y-124530000D02*
X175738000Y-127254000D01*
X114738000Y-125559000D02*
X114738000Y-127230000D01*
X115767000Y-124530000D02*
X114738000Y-125559000D01*
X124898000Y-113244213D02*
X124898000Y-124530000D01*
X124968000Y-113174213D02*
X124898000Y-113244213D01*
X124968000Y-111760000D02*
X124968000Y-113174213D01*
X115767000Y-124530000D02*
X124898000Y-124530000D01*
X124898000Y-124530000D02*
X173014000Y-124530000D01*
X50546000Y-109347000D02*
X47498000Y-105544000D01*
X53638000Y-113430000D02*
X50546000Y-109347000D01*
X47498000Y-98044000D02*
X47497999Y-90042999D01*
X47497999Y-90042999D02*
X46228000Y-88773000D01*
X47878998Y-89662000D02*
X47497999Y-90042999D01*
X52705000Y-89662000D02*
X47878998Y-89662000D01*
X57658000Y-96520000D02*
X57658000Y-88773000D01*
X57658000Y-88773000D02*
X56134000Y-87249000D01*
X52352651Y-79022651D02*
X49025000Y-79022000D01*
X53848000Y-80010000D02*
X52352651Y-79022651D01*
X53848000Y-85852000D02*
X53848000Y-80010000D01*
X56134000Y-87249000D02*
X55245000Y-87249000D01*
X55245000Y-87249000D02*
X53848000Y-85852000D01*
X61214000Y-96520000D02*
X62738000Y-94996000D01*
X55118000Y-96520000D02*
X61214000Y-96520000D01*
X75438000Y-106680000D02*
X77978000Y-104140000D01*
X70358000Y-106680000D02*
X75438000Y-106680000D01*
X70358000Y-106680000D02*
X70048000Y-113430000D01*
X75358000Y-96520000D02*
X70358000Y-96520000D01*
X77978000Y-99140000D02*
X75358000Y-96520000D01*
X78058000Y-99060000D02*
X77978000Y-99140000D01*
X85598000Y-99060000D02*
X78058000Y-99060000D01*
X90170000Y-99060000D02*
X85598000Y-99060000D01*
X96980000Y-127230000D02*
X96980000Y-106124000D01*
X96980000Y-106124000D02*
X90170000Y-99060000D01*
X91868000Y-107649000D02*
X91868000Y-127230000D01*
X85598000Y-104013000D02*
X88265000Y-104013000D01*
X88265000Y-104046000D02*
X91868000Y-107649000D01*
X88265000Y-104013000D02*
X88265000Y-104046000D01*
X85598000Y-102928630D02*
X85598000Y-104060000D01*
X84269370Y-101600000D02*
X85598000Y-102928630D01*
X67183000Y-101600000D02*
X84269370Y-101600000D01*
X65659000Y-100076000D02*
X67183000Y-101600000D01*
X29718000Y-81280000D02*
X29718000Y-96520000D01*
X33088000Y-78896000D02*
X29718000Y-81280000D01*
X29718000Y-96520000D02*
X35433000Y-101600000D01*
X35433000Y-101600000D02*
X58420000Y-101600000D01*
X58420000Y-101600000D02*
X59944000Y-100076000D01*
X59944000Y-100076000D02*
X65659000Y-100076000D01*
X61468000Y-78105000D02*
X61468000Y-81280000D01*
X61468000Y-78105000D02*
X62865000Y-76708000D01*
X39243000Y-67310000D02*
X41148000Y-67310000D01*
X35941000Y-74892000D02*
X35941000Y-70612000D01*
X35941000Y-70612000D02*
X39243000Y-67310000D01*
X42279370Y-67310000D02*
X41148000Y-67310000D01*
X46619213Y-67310000D02*
X42279370Y-67310000D01*
X54603000Y-75293787D02*
X46619213Y-67310000D01*
X54603000Y-76708000D02*
X54603000Y-75293787D01*
X66548000Y-69850000D02*
X69088000Y-67310000D01*
X66548000Y-76200000D02*
X66548000Y-69850000D01*
X69088000Y-67310000D02*
X70358000Y-67310000D01*
X66548000Y-81200000D02*
X66548000Y-76200000D01*
X66254000Y-81494000D02*
X66548000Y-81200000D01*
X61468000Y-86534000D02*
X66254000Y-81494000D01*
X143510000Y-104902000D02*
X145288000Y-104267000D01*
X135128000Y-113030000D02*
X143510000Y-104902000D01*
X126382213Y-104902000D02*
X129921000Y-108440787D01*
X124968000Y-104260000D02*
X126382213Y-104902000D01*
X135128000Y-113030000D02*
X129921000Y-108458000D01*
X146287999Y-112766999D02*
X146294999Y-112766999D01*
X145288000Y-111767000D02*
X146287999Y-112766999D01*
X146294999Y-112766999D02*
X147828000Y-114300000D01*
X147828000Y-114300000D02*
X147828000Y-122682000D01*
X128651000Y-102870000D02*
X135128000Y-102870000D01*
X127000000Y-100965000D02*
X128651000Y-102870000D01*
X119373000Y-104260000D02*
X122301000Y-100965000D01*
X122301000Y-100965000D02*
X127000000Y-100965000D01*
X114808000Y-104260000D02*
X119373000Y-104260000D01*
X102362000Y-97028000D02*
X102362000Y-96774000D01*
X103747370Y-98413370D02*
X102362000Y-97028000D01*
X103759000Y-98413370D02*
X103747370Y-98413370D01*
X114808000Y-104260000D02*
X109605630Y-104260000D01*
X109605630Y-104260000D02*
X103759000Y-98413370D01*
D28*
X239014000Y-89264000D02*
X239014000Y-82279000D01*
X242634000Y-82279000D02*
X239135999Y-82279000D01*
X244807000Y-58944000D02*
X244807000Y-80106000D01*
X244807000Y-80106000D02*
X242634000Y-82279000D01*
X239135999Y-75294000D02*
X239135999Y-68309000D01*
X239135999Y-68309000D02*
X239135999Y-64187001D01*
X239807000Y-63516000D02*
X239807000Y-58944000D01*
X239135999Y-64187001D02*
X239807000Y-63516000D01*
D26*
X134805010Y-129354990D02*
X132969000Y-127381000D01*
X206560010Y-129354990D02*
X134805010Y-129354990D01*
X206629000Y-129286000D02*
X206560010Y-129354990D01*
X208738000Y-127230000D02*
X206682000Y-129286000D01*
X206682000Y-129286000D02*
X206629000Y-129286000D01*
X36957000Y-96520000D02*
X32004000Y-91567000D01*
X37394000Y-84399000D02*
X49275000Y-84399000D01*
X32004000Y-88138000D02*
X37394000Y-84399000D01*
X32004000Y-91567000D02*
X32004000Y-88138000D01*
X100838000Y-84455000D02*
X100965000Y-84582000D01*
X99949000Y-84455000D02*
X100838000Y-84455000D01*
X89919000Y-79023000D02*
X94517000Y-79023000D01*
X94517000Y-79023000D02*
X99949000Y-84455000D01*
X88391999Y-90043999D02*
X87122000Y-88774000D01*
X91597990Y-93249990D02*
X88391999Y-90043999D01*
X103632000Y-89281000D02*
X98456990Y-93249990D01*
X98456990Y-93249990D02*
X91597990Y-93249990D01*
X105791000Y-89281000D02*
X107823000Y-88646000D01*
X103632000Y-89281000D02*
X105791000Y-89281000D01*
X130813000Y-79022000D02*
X132609051Y-79022000D01*
X132611400Y-79019651D02*
X133977022Y-79019651D01*
X135890000Y-83820000D02*
X139065000Y-86995000D01*
X132609051Y-79022000D02*
X132611400Y-79019651D01*
X139065000Y-86995000D02*
X139065000Y-88773000D01*
X133977022Y-79019651D02*
X135890000Y-80932629D01*
X135890000Y-80932629D02*
X135890000Y-83820000D01*
X40238000Y-113030000D02*
X39838000Y-113430000D01*
X39838000Y-113430000D02*
X39838000Y-110450000D01*
X39878000Y-109855000D02*
X39838000Y-109815000D01*
X46736000Y-109855000D02*
X39878000Y-109855000D01*
X39838000Y-110450000D02*
X39838000Y-109815000D01*
X39838000Y-109815000D02*
X36957000Y-106680000D01*
D27*
X108966000Y-58801000D02*
X96266000Y-58801000D01*
X96266000Y-58801000D02*
X96139000Y-58801000D01*
X96139000Y-58801000D02*
X91694000Y-63246000D01*
X91694000Y-63246000D02*
X89281000Y-63246000D01*
X89281000Y-63246000D02*
X84455000Y-68072000D01*
X122809000Y-71594949D02*
X121666000Y-70451949D01*
X122809000Y-73391000D02*
X122809000Y-71594949D01*
X121666000Y-70451949D02*
X121666000Y-62484000D01*
X117983000Y-58801000D02*
X108966000Y-58801000D01*
X121666000Y-62484000D02*
X117983000Y-58801000D01*
X47498000Y-57912000D02*
X47498000Y-61468000D01*
X51177990Y-54232010D02*
X47498000Y-57912000D01*
X94745010Y-54232010D02*
X51177990Y-54232010D01*
X96266000Y-58801000D02*
X96266000Y-55753000D01*
X96266000Y-55753000D02*
X94745010Y-54232010D01*
X180514000Y-58674000D02*
X181991000Y-58674000D01*
X181991000Y-58674000D02*
X182626000Y-59055000D01*
X153797000Y-67207990D02*
X153145999Y-67858991D01*
X180514000Y-58674000D02*
X180514000Y-56087000D01*
X180514000Y-56087000D02*
X178659010Y-54232010D01*
X178659010Y-54232010D02*
X161159990Y-54232010D01*
X161159990Y-54232010D02*
X153797000Y-61595000D01*
X153797000Y-61595000D02*
X153797000Y-67207990D01*
X186779001Y-63208001D02*
X182626000Y-59055000D01*
X188430001Y-63208001D02*
X186779001Y-63208001D01*
X189230000Y-64008000D02*
X188430001Y-63208001D01*
X128067000Y-75145000D02*
X128067000Y-66066010D01*
X128067000Y-66066010D02*
X128059991Y-66059001D01*
X173609000Y-65659000D02*
X173609000Y-64135000D01*
X175514000Y-62230000D02*
X175514000Y-58674000D01*
X173609000Y-64135000D02*
X175514000Y-62230000D01*
D26*
X115454630Y-63500000D02*
X116586000Y-63500000D01*
X114805000Y-64149630D02*
X115454630Y-63500000D01*
X114805000Y-78895000D02*
X114805000Y-64149630D01*
X116601051Y-78895000D02*
X114805000Y-78895000D01*
X128046602Y-78895000D02*
X116601051Y-78895000D01*
X137414000Y-73025000D02*
X133916602Y-73025000D01*
X133916602Y-73025000D02*
X128046602Y-78895000D01*
X70231000Y-73914000D02*
X76835000Y-67310000D01*
X76835000Y-67310000D02*
X79386630Y-67310000D01*
X79386630Y-67310000D02*
X80518000Y-67310000D01*
X70231000Y-80264000D02*
X70231000Y-73914000D01*
X90043000Y-94615000D02*
X92202000Y-96774000D01*
X84582000Y-94615000D02*
X90043000Y-94615000D01*
X81788000Y-91821000D02*
X84582000Y-94615000D01*
X81788000Y-86868000D02*
X81788000Y-91821000D01*
X73788000Y-84527000D02*
X79447000Y-84527000D01*
X79447000Y-84527000D02*
X81788000Y-86868000D01*
D28*
X255651000Y-73152000D02*
X251206000Y-77597000D01*
X255651000Y-63881000D02*
X255651000Y-73152000D01*
X250190000Y-78613000D02*
X251206000Y-77597000D01*
X250190000Y-85217000D02*
X250190000Y-78613000D01*
X255651000Y-61681000D02*
X255651000Y-63881000D01*
X248827010Y-54857010D02*
X255651000Y-61681000D01*
X199396990Y-54857010D02*
X248827010Y-54857010D01*
X195072000Y-73025000D02*
X195072000Y-59182000D01*
X195072000Y-59182000D02*
X199396990Y-54857010D01*
X183134000Y-77089000D02*
X187706000Y-77089000D01*
X192151000Y-77089000D02*
X187706000Y-77089000D01*
X195072000Y-73025000D02*
X192151000Y-77089000D01*
X231011000Y-75294000D02*
X228975999Y-75294000D01*
X234092000Y-78375000D02*
X231011000Y-75294000D01*
X234092000Y-86047999D02*
X234092000Y-78375000D01*
X228975999Y-89264000D02*
X230875999Y-89264000D01*
X230875999Y-89264000D02*
X234092000Y-86047999D01*
X228975999Y-91164000D02*
X228975999Y-89264000D01*
X242570000Y-94488000D02*
X232299999Y-94488000D01*
X232299999Y-94488000D02*
X228975999Y-91164000D01*
X260762000Y-88361000D02*
X271526000Y-77597000D01*
X260762000Y-90948000D02*
X260762000Y-88361000D01*
X242570000Y-94488000D02*
X245618000Y-94488000D01*
X245618000Y-94488000D02*
X247269000Y-92837000D01*
X247269000Y-92837000D02*
X255778000Y-92837000D01*
X257667000Y-90948000D02*
X260762000Y-90948000D01*
X255778000Y-92837000D02*
X257667000Y-90948000D01*
D26*
X28575000Y-62230000D02*
X26035000Y-64770000D01*
X26035000Y-64770000D02*
X26035000Y-85090000D01*
X36068000Y-62230000D02*
X28575000Y-62230000D01*
X41148000Y-57150000D02*
X36068000Y-62230000D01*
X41148000Y-57150000D02*
X42418000Y-57150000D01*
X37338000Y-63500000D02*
X36068000Y-62230000D01*
X53378000Y-63500000D02*
X37338000Y-63500000D01*
X55918000Y-60960000D02*
X53378000Y-63500000D01*
X55918000Y-60922000D02*
X55918000Y-60960000D01*
X90678000Y-58801000D02*
X89027000Y-60452000D01*
X90678000Y-57150000D02*
X90678000Y-58801000D01*
X89027000Y-60452000D02*
X65024000Y-60452000D01*
X65024000Y-60452000D02*
X63627000Y-59055000D01*
X63627000Y-59055000D02*
X57785000Y-59055000D01*
X57785000Y-59055000D02*
X55918000Y-60922000D01*
X78384000Y-70104000D02*
X86868000Y-70104000D01*
X90678000Y-67310000D02*
X96266000Y-63500000D01*
X76911000Y-71323000D02*
X78384000Y-70104000D01*
X76911000Y-74892000D02*
X76911000Y-71323000D01*
X86868000Y-70104000D02*
X90678000Y-67310000D01*
X96266000Y-63500000D02*
X100838000Y-63500000D01*
X107823000Y-78486000D02*
X107823000Y-72517000D01*
X100838000Y-65532000D02*
X100838000Y-63500000D01*
X107823000Y-72517000D02*
X100838000Y-65532000D01*
X107823000Y-83185000D02*
X107823000Y-78486000D01*
X146132992Y-98964990D02*
X112426990Y-98964990D01*
X112426990Y-98964990D02*
X110373001Y-96911001D01*
X148768002Y-101600000D02*
X146132992Y-98964990D01*
X110373001Y-85735001D02*
X107823000Y-83185000D01*
X151130000Y-101600000D02*
X148768002Y-101600000D01*
X154178000Y-104648000D02*
X151130000Y-101600000D01*
X230806000Y-110744000D02*
X201422000Y-110744000D01*
X232949000Y-108601000D02*
X230806000Y-110744000D01*
X201422000Y-110744000D02*
X198882000Y-113284000D01*
X110373001Y-96911001D02*
X110373001Y-85735001D01*
X198882000Y-113284000D02*
X158496000Y-113284000D01*
X158496000Y-113284000D02*
X154178000Y-108966000D01*
X154178000Y-108966000D02*
X154178000Y-104648000D01*
D28*
X232949000Y-98441000D02*
X232695000Y-98187000D01*
X250190000Y-103759000D02*
X250190000Y-100457000D01*
X260778000Y-110617000D02*
X257048000Y-110617000D01*
X257048000Y-110617000D02*
X250190000Y-103759000D01*
X234965000Y-100457000D02*
X232949000Y-98441000D01*
X250190000Y-100457000D02*
X234965000Y-100457000D01*
X201025000Y-98441000D02*
X232949000Y-98441000D01*
X199898000Y-99568000D02*
X201025000Y-98441000D01*
X172096630Y-99568000D02*
X199898000Y-99568000D01*
X169926000Y-101738630D02*
X172096630Y-99568000D01*
X169926000Y-102870000D02*
X169926000Y-101738630D01*
D26*
X203738000Y-125575371D02*
X200082629Y-121920000D01*
X203738000Y-127230000D02*
X203738000Y-125575371D01*
X200082629Y-121920000D02*
X193294000Y-121920000D01*
X193294000Y-121920000D02*
X191770000Y-120396000D01*
X191770000Y-120396000D02*
X171450000Y-120396000D01*
X171450000Y-120396000D02*
X169418000Y-118364000D01*
X169418000Y-118364000D02*
X156718000Y-118364000D01*
X150622000Y-112268000D02*
X150622000Y-105156000D01*
X156718000Y-118364000D02*
X150622000Y-112268000D01*
X144914000Y-78239000D02*
X145288000Y-78613000D01*
X159639000Y-92964000D02*
X150368000Y-83693000D01*
X180086000Y-92964000D02*
X159639000Y-92964000D01*
X144653000Y-73286000D02*
X144914000Y-73025000D01*
X144653000Y-78613000D02*
X144653000Y-73286000D01*
X149733000Y-83693000D02*
X150368000Y-83693000D01*
X144653000Y-78613000D02*
X149733000Y-83693000D01*
X183058990Y-95936990D02*
X180086000Y-92964000D01*
X193088725Y-95936990D02*
X183058990Y-95936990D01*
X201302000Y-104394000D02*
X205112000Y-108204000D01*
X211074000Y-108204000D02*
X214630000Y-104648000D01*
X205112000Y-108204000D02*
X211074000Y-108204000D01*
X193088725Y-95936990D02*
X197904990Y-95936990D01*
X197904990Y-95936990D02*
X199019943Y-97051943D01*
X198611999Y-116736001D02*
X198611999Y-116602001D01*
X197612000Y-117736000D02*
X198611999Y-116736001D01*
X200406000Y-114808000D02*
X208280000Y-114808000D01*
X198611999Y-116602001D02*
X200406000Y-114808000D01*
X163830000Y-105156000D02*
X159766000Y-109220000D01*
X130190990Y-90947990D02*
X145049990Y-90947990D01*
X128016000Y-88773000D02*
X130190990Y-90947990D01*
X145049990Y-90947990D02*
X151130000Y-97028000D01*
X151130000Y-97028000D02*
X162814000Y-97028000D01*
X162814000Y-97028000D02*
X163830000Y-98044000D01*
X163830000Y-98044000D02*
X163830000Y-105156000D01*
X164338000Y-105664000D02*
X163830000Y-105156000D01*
X174244000Y-105664000D02*
X164338000Y-105664000D01*
X177826001Y-109246001D02*
X174244000Y-105664000D01*
X185945999Y-109246001D02*
X177826001Y-109246001D01*
X197612000Y-110236000D02*
X186935998Y-110236000D01*
X186935998Y-110236000D02*
X185945999Y-109246001D01*
X156972000Y-102870000D02*
X159766000Y-102870000D01*
X120650000Y-87376000D02*
X126238000Y-92964000D01*
X120650000Y-80772000D02*
X120650000Y-87376000D01*
X126238000Y-92964000D02*
X144635774Y-92964000D01*
X144635774Y-92964000D02*
X151239774Y-99568000D01*
X151239774Y-99568000D02*
X153670000Y-99568000D01*
X153670000Y-99568000D02*
X156972000Y-102870000D01*
X175108000Y-81788000D02*
X172342000Y-79022000D01*
X215646000Y-66421000D02*
X219964000Y-66421000D01*
X208844999Y-59619999D02*
X215646000Y-66421000D01*
X202184000Y-58420000D02*
X203383999Y-59619999D01*
X203383999Y-59619999D02*
X208844999Y-59619999D01*
X215521999Y-77752001D02*
X215521999Y-77721001D01*
X214252000Y-79022000D02*
X215521999Y-77752001D01*
X219964000Y-73279000D02*
X219964000Y-66421000D01*
X215521999Y-77721001D02*
X219964000Y-73279000D01*
X212982001Y-80291999D02*
X209776001Y-80291999D01*
X214252000Y-79022000D02*
X212982001Y-80291999D01*
X209776001Y-80291999D02*
X208280000Y-81788000D01*
X208280000Y-81788000D02*
X195834000Y-81788000D01*
X195834000Y-81788000D02*
X194564000Y-83058000D01*
X176378000Y-83058000D02*
X175108000Y-81788000D01*
X194564000Y-83058000D02*
X176378000Y-83058000D01*
X234128000Y-121920000D02*
X204978000Y-121920000D01*
X236698000Y-127200000D02*
X236698000Y-124490000D01*
X204978000Y-121920000D02*
X201168000Y-118110000D01*
X236698000Y-124490000D02*
X234128000Y-121920000D01*
X261352629Y-127200000D02*
X264698000Y-127200000D01*
X259698000Y-127200000D02*
X261352629Y-127200000D01*
X219202000Y-119380000D02*
X214630000Y-114808000D01*
X241808000Y-119380000D02*
X219202000Y-119380000D01*
X254698000Y-127200000D02*
X249628000Y-127200000D01*
X249628000Y-127200000D02*
X241808000Y-119380000D01*
X139954000Y-62515000D02*
X139954000Y-58547000D01*
X156334000Y-78895000D02*
X139954000Y-62515000D01*
X145034000Y-60833000D02*
X145034000Y-58547000D01*
X145034000Y-63754000D02*
X145034000Y-60833000D01*
X155321000Y-71120000D02*
X152400000Y-71120000D01*
X157480000Y-68961000D02*
X155321000Y-71120000D01*
X171577000Y-68961000D02*
X157480000Y-68961000D01*
X195425000Y-78895000D02*
X193802000Y-80518000D01*
X198244000Y-78895000D02*
X195425000Y-78895000D01*
X193802000Y-80518000D02*
X180594000Y-80518000D01*
X180594000Y-80518000D02*
X176784000Y-76708000D01*
X152400000Y-71120000D02*
X145034000Y-63754000D01*
X176784000Y-76708000D02*
X176784000Y-74168000D01*
X176784000Y-74168000D02*
X171577000Y-68961000D01*
X134874000Y-63500000D02*
X126746000Y-63500000D01*
X139864999Y-68490999D02*
X134874000Y-63500000D01*
X139065000Y-78613000D02*
X139864999Y-77813001D01*
X139864999Y-77813001D02*
X139864999Y-68490999D01*
X144653000Y-86741000D02*
X139065000Y-81153000D01*
X144653000Y-88773000D02*
X144653000Y-86741000D01*
X139065000Y-81153000D02*
X139065000Y-78613000D01*
X210749000Y-84399000D02*
X214502000Y-84399000D01*
X203708000Y-91440000D02*
X210749000Y-84399000D01*
X192278000Y-91440000D02*
X203708000Y-91440000D01*
X186690000Y-92964000D02*
X190754000Y-92964000D01*
X190754000Y-92964000D02*
X192278000Y-91440000D01*
X161925000Y-91440000D02*
X159131000Y-88646000D01*
X175768000Y-91440000D02*
X161925000Y-91440000D01*
X183134000Y-87249000D02*
X179959000Y-87249000D01*
X179959000Y-87249000D02*
X175768000Y-91440000D01*
X192532000Y-88646000D02*
X201041000Y-88646000D01*
X187706000Y-87249000D02*
X190627000Y-87249000D01*
X190627000Y-87249000D02*
X192532000Y-88646000D01*
M02*
