M48
; DRILL file {KiCad (5.1.4)-1} date 09/09/2020 0:44:49
; FORMAT={-:-/ absolute / inch / decimal}
; #@! TF.CreationDate,2020-09-09T00:44:49+02:00
; #@! TF.GenerationSoftware,Kicad,Pcbnew,(5.1.4)-1
; #@! TF.FileFunction,Plated,1,2,PTH
FMAT,2
INCH
T1C0.0157
T2C0.0315
T3C0.0354
T4C0.0394
T5C0.0472
T6C0.0512
T7C0.0560
T8C0.0591
%
G90
G05
T1
X1.15Y-3.5
X1.165Y-3.18
X2.0852Y-2.7052
X3.2287Y-4.1213
X3.44Y-2.575
X3.44Y-2.77
X4.625Y-2.68
X4.76Y-3.18
X5.245Y-5.015
X5.29Y-2.68
X5.83Y-4.825
X6.61Y-2.645
X6.8232Y-4.8882
X6.97Y-3.7
X7.235Y-4.335
X7.32Y-3.535
X7.985Y-4.655
X8.1Y-2.645
X8.15Y-3.38
X8.34Y-2.795
X8.545Y-2.495
X8.66Y-2.795
X8.745Y-2.99
X10.5166Y-2.76
T2
X7.22Y-3.035
X7.22Y-3.435
X3.69Y-3.515
X4.09Y-3.515
X4.255Y-3.09
X4.255Y-3.49
X7.8Y-2.175
X7.8Y-2.575
X7.1Y-4.26
X7.1Y-4.66
X4.5Y-4.61
X4.9Y-4.61
X5.33Y-4.05
X5.33Y-4.45
X1.85Y-4.325
X1.85Y-4.725
X4.64Y-3.83
X5.04Y-3.83
X1.09Y-3.405
X1.09Y-3.805
X8.21Y-3.895
X8.21Y-4.295
X1.12Y-2.555
X1.12Y-2.7519
X1.64Y-2.25
X1.64Y-2.65
X6.93Y-2.48
X7.0284Y-2.48
X7.36Y-3.64
X7.36Y-4.04
X3.08Y-3.9031
X3.08Y-4.1
X3.985Y-2.93
X3.985Y-3.33
X7.2Y-2.52
X7.6Y-2.52
X3.38Y-3.9
X3.38Y-4.0969
X7.1Y-3.64
X7.1Y-4.04
X3.18Y-2.25
X3.18Y-2.65
X8.0Y-2.175
X8.0Y-2.575
X5.445Y-3.095
X5.445Y-3.495
X2.18Y-3.8
X2.18Y-4.2
X6.42Y-4.3
X6.82Y-4.3
X6.42Y-4.05
X6.82Y-4.05
X1.38Y-2.25
X1.38Y-2.65
X8.7Y-2.21
X8.7Y-2.31
X8.7Y-2.41
X7.36Y-4.26
X7.36Y-4.66
X2.085Y-3.53
X2.2819Y-3.53
X2.78Y-2.25
X2.78Y-2.65
X2.4475Y-3.21
X2.4475Y-3.4069
X7.43Y-3.035
X7.43Y-3.435
X3.64Y-3.81
X4.04Y-3.81
X6.12Y-4.06
X6.12Y-4.46
X8.2Y-2.175
X8.2Y-2.575
X5.64Y-3.095
X5.64Y-3.495
X1.465Y-3.8
X1.465Y-4.2
X4.6Y-2.5
X5.0Y-2.5
X2.78Y-3.8
X2.78Y-4.2
X8.43Y-2.21
X8.43Y-2.31
X8.43Y-2.41
X3.58Y-2.25
X3.58Y-2.65
X8.46Y-3.895
X8.46Y-4.295
X2.6475Y-3.0
X2.6475Y-3.4
X7.48Y-2.26
X7.5784Y-2.26
T3
X9.0648Y-2.9843
X9.4648Y-2.9843
X9.0648Y-2.7093
X9.4648Y-2.7093
X6.9Y-2.22
X7.3Y-2.22
X9.0648Y-3.2593
X9.4648Y-3.2593
X9.0648Y-3.5343
X9.4648Y-3.5343
T4
X7.79Y-3.7997
X7.79Y-4.095
X9.38Y-4.28
X5.73Y-4.105
X5.73Y-4.4003
X8.62Y-3.9
X4.58Y-2.255
X1.88Y-3.86
X1.88Y-4.1553
X5.38Y-3.78
X5.6753Y-3.78
X6.4722Y-4.57
X6.7675Y-4.57
X8.515Y-2.73
X8.94Y-3.9
X4.93Y-4.1047
X4.93Y-4.4
X10.805Y-3.985
X2.48Y-3.74
X2.48Y-4.0353
X8.95Y-4.2
X9.1469Y-4.2
X7.79Y-4.34
X7.79Y-4.6353
X8.925Y-2.73
X9.38Y-4.67
X2.1772Y-3.02
X2.4725Y-3.02
X1.805Y-2.25
X4.53Y-4.1047
X4.53Y-4.4
X5.4Y-2.875
X5.6953Y-2.875
T5
X10.05Y-4.3
X10.3453Y-4.3
X7.0Y-2.78
X7.6Y-2.78
X10.355Y-3.545
X10.6503Y-3.545
X9.69Y-3.98
X9.69Y-4.28
X3.945Y-2.5
X4.2403Y-2.5
X9.86Y-3.17
X9.86Y-3.47
X2.08Y-2.5
X2.3753Y-2.5
X10.19Y-3.02
X10.79Y-3.02
X9.17Y-3.82
X9.47Y-3.82
X10.04Y-2.48
X10.3353Y-2.48
T6
X0.88Y-2.96
X0.88Y-3.1569
X5.6881Y-2.3
X5.885Y-2.3
X10.79Y-4.2381
X10.79Y-4.435
X3.4252Y-5.0091
X3.622Y-5.0091
X3.8189Y-5.0091
X4.5276Y-5.0091
X4.7244Y-5.0091
X4.9213Y-5.0091
X8.9781Y-2.3
X9.175Y-2.3
X10.0394Y-5.0091
X10.2362Y-5.0091
X10.4331Y-5.0091
X5.2131Y-2.3
X5.41Y-2.3
X6.7323Y-5.0091
X6.9291Y-5.0091
X7.126Y-5.0091
X8.937Y-5.0091
X9.1339Y-5.0091
X9.3307Y-5.0091
X5.6299Y-5.0091
X5.8268Y-5.0091
X6.0236Y-5.0091
X6.4681Y-2.3
X6.665Y-2.3
X10.79Y-2.5581
X10.79Y-2.755
X7.8346Y-5.0091
X8.0315Y-5.0091
X8.2283Y-5.0091
X9.4581Y-2.3
X9.655Y-2.3
T7
X1.305Y-3.3278
X1.3099Y-3.1061
X1.42Y-3.49
X1.428Y-2.9485
X1.625Y-2.8894
X1.83Y-3.495
X1.832Y-2.9585
X1.9401Y-3.1111
X1.95Y-3.3228
X6.16Y-3.3278
X6.1649Y-3.1061
X6.275Y-3.49
X6.283Y-2.9485
X6.48Y-2.8894
X6.685Y-3.495
X6.687Y-2.9585
X6.7951Y-3.1111
X6.805Y-3.3228
X7.81Y-3.3278
X7.8149Y-3.1061
X7.925Y-3.49
X7.933Y-2.9485
X8.13Y-2.8894
X8.335Y-3.495
X8.337Y-2.9585
X8.4451Y-3.1111
X8.455Y-3.3228
X4.525Y-3.3278
X4.5299Y-3.1061
X4.64Y-3.49
X4.648Y-2.9485
X4.845Y-2.8894
X5.05Y-3.495
X5.052Y-2.9585
X5.1601Y-3.1111
X5.17Y-3.3228
X2.915Y-3.3278
X2.9199Y-3.1061
X3.03Y-3.49
X3.038Y-2.9485
X3.235Y-2.8894
X3.44Y-3.495
X3.442Y-2.9585
X3.5501Y-3.1111
X3.56Y-3.3228
T8
X2.122Y-4.4657
X2.122Y-4.7138
X2.122Y-4.9618
X2.7598Y-4.4657
X2.7598Y-4.7138
X2.7598Y-4.9618
X0.9409Y-4.4657
X0.9409Y-4.7138
X0.9409Y-4.9618
X1.5787Y-4.4657
X1.5787Y-4.7138
X1.5787Y-4.9618
T0
M30
