G04 #@! TF.GenerationSoftware,KiCad,Pcbnew,(5.1.4)-1*
G04 #@! TF.CreationDate,2020-03-08T21:51:10+01:00*
G04 #@! TF.ProjectId,JCM800,4a434d38-3030-42e6-9b69-6361645f7063,rev?*
G04 #@! TF.SameCoordinates,Original*
G04 #@! TF.FileFunction,Other,Fab,Bot*
%FSLAX46Y46*%
G04 Gerber Fmt 4.6, Leading zero omitted, Abs format (unit mm)*
G04 Created by KiCad (PCBNEW (5.1.4)-1) date 2020-03-08 21:51:10*
%MOMM*%
%LPD*%
G04 APERTURE LIST*
%ADD10C,0.100000*%
%ADD11C,0.150000*%
G04 APERTURE END LIST*
D10*
X116840000Y-58420000D02*
X116840000Y-60350000D01*
X116840000Y-68580000D02*
X116840000Y-66650000D01*
X118090000Y-60350000D02*
X118090000Y-66650000D01*
X115590000Y-60350000D02*
X118090000Y-60350000D01*
X115590000Y-66650000D02*
X115590000Y-60350000D01*
X118090000Y-66650000D02*
X115590000Y-66650000D01*
X236982000Y-78867000D02*
X235312000Y-78867000D01*
X221742000Y-78867000D02*
X223412000Y-78867000D01*
X235312000Y-81117000D02*
X223412000Y-81117000D01*
X235312000Y-76617000D02*
X235312000Y-81117000D01*
X223412000Y-76617000D02*
X235312000Y-76617000D01*
X223412000Y-81117000D02*
X223412000Y-76617000D01*
X215138000Y-75184000D02*
X215138000Y-79384000D01*
X215138000Y-100584000D02*
X215138000Y-96384000D01*
X218138000Y-79384000D02*
X218138000Y-96384000D01*
X212138000Y-79384000D02*
X218138000Y-79384000D01*
X212138000Y-96384000D02*
X212138000Y-79384000D01*
X218138000Y-96384000D02*
X212138000Y-96384000D01*
X208153000Y-94615000D02*
X208153000Y-96285000D01*
X208153000Y-109855000D02*
X208153000Y-108185000D01*
X210403000Y-96285000D02*
X210403000Y-108185000D01*
X205903000Y-96285000D02*
X210403000Y-96285000D01*
X205903000Y-108185000D02*
X205903000Y-96285000D01*
X210403000Y-108185000D02*
X205903000Y-108185000D01*
X139750000Y-64770000D02*
G75*
G03X139750000Y-64770000I-9000000J0D01*
G01*
X123012729Y-68717500D02*
X124812729Y-68717500D01*
X123912729Y-69617500D02*
X123912729Y-67817500D01*
X86388000Y-88804000D02*
X86388000Y-81804000D01*
X89888000Y-88804000D02*
X86388000Y-88804000D01*
X89888000Y-81804000D02*
X89888000Y-88804000D01*
X86388000Y-81804000D02*
X89888000Y-81804000D01*
X113510000Y-99330000D02*
X113510000Y-106330000D01*
X110010000Y-99330000D02*
X113510000Y-99330000D01*
X110010000Y-106330000D02*
X110010000Y-99330000D01*
X113510000Y-106330000D02*
X110010000Y-106330000D01*
X153630000Y-104130000D02*
X153630000Y-114430000D01*
X148630000Y-104130000D02*
X153630000Y-104130000D01*
X148630000Y-114430000D02*
X148630000Y-104130000D01*
X153630000Y-114430000D02*
X148630000Y-114430000D01*
X168950000Y-114437000D02*
X168950000Y-104137000D01*
X173950000Y-114437000D02*
X168950000Y-114437000D01*
X173950000Y-104137000D02*
X173950000Y-114437000D01*
X168950000Y-104137000D02*
X173950000Y-104137000D01*
X79873000Y-75478000D02*
X90173000Y-75478000D01*
X79873000Y-80478000D02*
X79873000Y-75478000D01*
X90173000Y-80478000D02*
X79873000Y-80478000D01*
X90173000Y-75478000D02*
X90173000Y-80478000D01*
X86400000Y-105166000D02*
X86400000Y-94866000D01*
X91400000Y-105166000D02*
X86400000Y-105166000D01*
X91400000Y-94866000D02*
X91400000Y-105166000D01*
X86400000Y-94866000D02*
X91400000Y-94866000D01*
X71160000Y-108214000D02*
X71160000Y-97914000D01*
X76160000Y-108214000D02*
X71160000Y-108214000D01*
X76160000Y-97914000D02*
X76160000Y-108214000D01*
X71160000Y-97914000D02*
X76160000Y-97914000D01*
X142970000Y-104280000D02*
X142970000Y-114280000D01*
X138970000Y-104280000D02*
X142970000Y-104280000D01*
X138970000Y-114280000D02*
X138970000Y-104280000D01*
X142970000Y-114280000D02*
X138970000Y-114280000D01*
X198985000Y-59944000D02*
G75*
G03X198985000Y-59944000I-1500000J0D01*
G01*
X193985000Y-59944000D02*
G75*
G03X193985000Y-59944000I-1500000J0D01*
G01*
X199985000Y-55644000D02*
X189985000Y-55644000D01*
X189985000Y-55644000D02*
X189985000Y-63944000D01*
X189985000Y-63944000D02*
X199485000Y-63944000D01*
X199485000Y-63944000D02*
X199985000Y-63444000D01*
X199985000Y-63444000D02*
X199985000Y-55644000D01*
X199985000Y-63444000D02*
X189985000Y-63444000D01*
X199985000Y-61944000D02*
X189985000Y-61944000D01*
X199985000Y-57644000D02*
X189985000Y-57644000D01*
X196347000Y-58989000D02*
X198440000Y-61082000D01*
X196530000Y-58806000D02*
X198623000Y-60899000D01*
X198485000Y-55644000D02*
X198485000Y-56644000D01*
X198485000Y-56644000D02*
X196485000Y-56644000D01*
X196485000Y-56644000D02*
X196485000Y-55644000D01*
X196485000Y-55644000D02*
X198485000Y-55644000D01*
X191347000Y-58989000D02*
X193439000Y-61082000D01*
X191530000Y-58806000D02*
X193622000Y-60899000D01*
X193485000Y-55644000D02*
X193485000Y-56644000D01*
X193485000Y-56644000D02*
X191485000Y-56644000D01*
X191485000Y-56644000D02*
X191485000Y-55644000D01*
X191485000Y-55644000D02*
X193485000Y-55644000D01*
X237794000Y-111760000D02*
G75*
G03X237794000Y-111760000I-9000000J0D01*
G01*
X221056729Y-115707500D02*
X222856729Y-115707500D01*
X221956729Y-116607500D02*
X221956729Y-114807500D01*
X233095000Y-65024000D02*
G75*
G03X233095000Y-65024000I-9000000J0D01*
G01*
X216357729Y-68971500D02*
X218157729Y-68971500D01*
X217257729Y-69871500D02*
X217257729Y-68071500D01*
X91490000Y-64770000D02*
G75*
G03X91490000Y-64770000I-9000000J0D01*
G01*
X74752729Y-68717500D02*
X76552729Y-68717500D01*
X75652729Y-69617500D02*
X75652729Y-67817500D01*
X223353729Y-96795500D02*
X223353729Y-94995500D01*
X222453729Y-95895500D02*
X224253729Y-95895500D01*
X239191000Y-91948000D02*
G75*
G03X239191000Y-91948000I-9000000J0D01*
G01*
X110490000Y-116205000D02*
X111125000Y-116840000D01*
X110490000Y-114300000D02*
X110490000Y-116205000D01*
X113030000Y-114300000D02*
X110490000Y-114300000D01*
X113030000Y-116840000D02*
X113030000Y-114300000D01*
X111125000Y-116840000D02*
X113030000Y-116840000D01*
X139700000Y-90297000D02*
X140335000Y-90932000D01*
X139700000Y-88392000D02*
X139700000Y-90297000D01*
X142240000Y-88392000D02*
X139700000Y-88392000D01*
X142240000Y-90932000D02*
X142240000Y-88392000D01*
X140335000Y-90932000D02*
X142240000Y-90932000D01*
X78867000Y-92182000D02*
X78867000Y-89682000D01*
X78867000Y-89682000D02*
X83867000Y-89682000D01*
X83867000Y-89682000D02*
X83867000Y-92182000D01*
X83867000Y-92182000D02*
X78867000Y-92182000D01*
X105390000Y-105410000D02*
X102890000Y-105410000D01*
X102890000Y-105410000D02*
X102890000Y-100410000D01*
X102890000Y-100410000D02*
X105390000Y-100410000D01*
X105390000Y-100410000D02*
X105390000Y-105410000D01*
X196499999Y-91614000D02*
X196499999Y-88914000D01*
X196499999Y-88914000D02*
X201699999Y-88914000D01*
X201699999Y-88914000D02*
X201699999Y-91614000D01*
X201699999Y-91614000D02*
X196499999Y-91614000D01*
X194019999Y-90264000D02*
X196499999Y-90264000D01*
X204179999Y-90264000D02*
X201699999Y-90264000D01*
X197279999Y-91614000D02*
X197279999Y-88914000D01*
X197379999Y-91614000D02*
X197379999Y-88914000D01*
X197179999Y-91614000D02*
X197179999Y-88914000D01*
X201019999Y-81929000D02*
X201019999Y-84629000D01*
X200819999Y-81929000D02*
X200819999Y-84629000D01*
X200919999Y-81929000D02*
X200919999Y-84629000D01*
X194019999Y-83279000D02*
X196499999Y-83279000D01*
X204179999Y-83279000D02*
X201699999Y-83279000D01*
X196499999Y-81929000D02*
X201699999Y-81929000D01*
X196499999Y-84629000D02*
X196499999Y-81929000D01*
X201699999Y-84629000D02*
X196499999Y-84629000D01*
X201699999Y-81929000D02*
X201699999Y-84629000D01*
X196499999Y-77644000D02*
X196499999Y-74944000D01*
X196499999Y-74944000D02*
X201699999Y-74944000D01*
X201699999Y-74944000D02*
X201699999Y-77644000D01*
X201699999Y-77644000D02*
X196499999Y-77644000D01*
X194019999Y-76294000D02*
X196499999Y-76294000D01*
X204179999Y-76294000D02*
X201699999Y-76294000D01*
X197279999Y-77644000D02*
X197279999Y-74944000D01*
X197379999Y-77644000D02*
X197379999Y-74944000D01*
X197179999Y-77644000D02*
X197179999Y-74944000D01*
X201019999Y-67959000D02*
X201019999Y-70659000D01*
X200819999Y-67959000D02*
X200819999Y-70659000D01*
X200919999Y-67959000D02*
X200919999Y-70659000D01*
X194019999Y-69309000D02*
X196499999Y-69309000D01*
X204179999Y-69309000D02*
X201699999Y-69309000D01*
X196499999Y-67959000D02*
X201699999Y-67959000D01*
X196499999Y-70659000D02*
X196499999Y-67959000D01*
X201699999Y-70659000D02*
X196499999Y-70659000D01*
X201699999Y-67959000D02*
X201699999Y-70659000D01*
X72898000Y-111125000D02*
X72898000Y-113055000D01*
X72898000Y-121285000D02*
X72898000Y-119355000D01*
X74148000Y-113055000D02*
X74148000Y-119355000D01*
X71648000Y-113055000D02*
X74148000Y-113055000D01*
X71648000Y-119355000D02*
X71648000Y-113055000D01*
X74148000Y-119355000D02*
X71648000Y-119355000D01*
X63119000Y-107950000D02*
X63119000Y-106020000D01*
X63119000Y-97790000D02*
X63119000Y-99720000D01*
X61869000Y-106020000D02*
X61869000Y-99720000D01*
X64369000Y-106020000D02*
X61869000Y-106020000D01*
X64369000Y-99720000D02*
X64369000Y-106020000D01*
X61869000Y-99720000D02*
X64369000Y-99720000D01*
X81280000Y-97790000D02*
X81280000Y-99720000D01*
X81280000Y-107950000D02*
X81280000Y-106020000D01*
X82530000Y-99720000D02*
X82530000Y-106020000D01*
X80030000Y-99720000D02*
X82530000Y-99720000D01*
X80030000Y-106020000D02*
X80030000Y-99720000D01*
X82530000Y-106020000D02*
X80030000Y-106020000D01*
X53447000Y-94590000D02*
X50947000Y-94590000D01*
X50947000Y-94590000D02*
X50947000Y-88290000D01*
X50947000Y-88290000D02*
X53447000Y-88290000D01*
X53447000Y-88290000D02*
X53447000Y-94590000D01*
X52197000Y-96520000D02*
X52197000Y-94590000D01*
X52197000Y-86360000D02*
X52197000Y-88290000D01*
X95270000Y-99720000D02*
X97770000Y-99720000D01*
X97770000Y-99720000D02*
X97770000Y-106020000D01*
X97770000Y-106020000D02*
X95270000Y-106020000D01*
X95270000Y-106020000D02*
X95270000Y-99720000D01*
X96520000Y-97790000D02*
X96520000Y-99720000D01*
X96520000Y-107950000D02*
X96520000Y-106020000D01*
X58420000Y-68580000D02*
X58420000Y-66650000D01*
X58420000Y-58420000D02*
X58420000Y-60350000D01*
X57170000Y-66650000D02*
X57170000Y-60350000D01*
X59670000Y-66650000D02*
X57170000Y-66650000D01*
X59670000Y-60350000D02*
X59670000Y-66650000D01*
X57170000Y-60350000D02*
X59670000Y-60350000D01*
X67310000Y-58420000D02*
X67310000Y-60350000D01*
X67310000Y-68580000D02*
X67310000Y-66650000D01*
X68560000Y-60350000D02*
X68560000Y-66650000D01*
X66060000Y-60350000D02*
X68560000Y-60350000D01*
X66060000Y-66650000D02*
X66060000Y-60350000D01*
X68560000Y-66650000D02*
X66060000Y-66650000D01*
X91968000Y-79400000D02*
X94468000Y-79400000D01*
X94468000Y-79400000D02*
X94468000Y-85700000D01*
X94468000Y-85700000D02*
X91968000Y-85700000D01*
X91968000Y-85700000D02*
X91968000Y-79400000D01*
X93218000Y-77470000D02*
X93218000Y-79400000D01*
X93218000Y-87630000D02*
X93218000Y-85700000D01*
X95270000Y-60350000D02*
X97770000Y-60350000D01*
X97770000Y-60350000D02*
X97770000Y-66650000D01*
X97770000Y-66650000D02*
X95270000Y-66650000D01*
X95270000Y-66650000D02*
X95270000Y-60350000D01*
X96520000Y-58420000D02*
X96520000Y-60350000D01*
X96520000Y-68580000D02*
X96520000Y-66650000D01*
X127127000Y-85852000D02*
X127127000Y-83922000D01*
X127127000Y-75692000D02*
X127127000Y-77622000D01*
X125877000Y-83922000D02*
X125877000Y-77622000D01*
X128377000Y-83922000D02*
X125877000Y-83922000D01*
X128377000Y-77622000D02*
X128377000Y-83922000D01*
X125877000Y-77622000D02*
X128377000Y-77622000D01*
X134239000Y-79756000D02*
X134239000Y-81686000D01*
X134239000Y-89916000D02*
X134239000Y-87986000D01*
X135489000Y-81686000D02*
X135489000Y-87986000D01*
X132989000Y-81686000D02*
X135489000Y-81686000D01*
X132989000Y-87986000D02*
X132989000Y-81686000D01*
X135489000Y-87986000D02*
X132989000Y-87986000D01*
X198501000Y-99441000D02*
X198501000Y-101371000D01*
X198501000Y-109601000D02*
X198501000Y-107671000D01*
X199751000Y-101371000D02*
X199751000Y-107671000D01*
X197251000Y-101371000D02*
X199751000Y-101371000D01*
X197251000Y-107671000D02*
X197251000Y-101371000D01*
X199751000Y-107671000D02*
X197251000Y-107671000D01*
X105430000Y-60350000D02*
X107930000Y-60350000D01*
X107930000Y-60350000D02*
X107930000Y-66650000D01*
X107930000Y-66650000D02*
X105430000Y-66650000D01*
X105430000Y-66650000D02*
X105430000Y-60350000D01*
X106680000Y-58420000D02*
X106680000Y-60350000D01*
X106680000Y-68580000D02*
X106680000Y-66650000D01*
X162540000Y-112370000D02*
X160040000Y-112370000D01*
X160040000Y-112370000D02*
X160040000Y-106070000D01*
X160040000Y-106070000D02*
X162540000Y-106070000D01*
X162540000Y-106070000D02*
X162540000Y-112370000D01*
X161290000Y-114300000D02*
X161290000Y-112370000D01*
X161290000Y-104140000D02*
X161290000Y-106070000D01*
X182138000Y-106197000D02*
X184638000Y-106197000D01*
X184638000Y-106197000D02*
X184638000Y-112497000D01*
X184638000Y-112497000D02*
X182138000Y-112497000D01*
X182138000Y-112497000D02*
X182138000Y-106197000D01*
X183388000Y-104267000D02*
X183388000Y-106197000D01*
X183388000Y-114427000D02*
X183388000Y-112497000D01*
X177165000Y-99187000D02*
X179095000Y-99187000D01*
X187325000Y-99187000D02*
X185395000Y-99187000D01*
X179095000Y-97937000D02*
X185395000Y-97937000D01*
X179095000Y-100437000D02*
X179095000Y-97937000D01*
X185395000Y-100437000D02*
X179095000Y-100437000D01*
X185395000Y-97937000D02*
X185395000Y-100437000D01*
X157861000Y-66929000D02*
X155931000Y-66929000D01*
X147701000Y-66929000D02*
X149631000Y-66929000D01*
X155931000Y-68179000D02*
X149631000Y-68179000D01*
X155931000Y-65679000D02*
X155931000Y-68179000D01*
X149631000Y-65679000D02*
X155931000Y-65679000D01*
X149631000Y-68179000D02*
X149631000Y-65679000D01*
X164998000Y-68179000D02*
X164998000Y-65679000D01*
X164998000Y-65679000D02*
X171298000Y-65679000D01*
X171298000Y-65679000D02*
X171298000Y-68179000D01*
X171298000Y-68179000D02*
X164998000Y-68179000D01*
X163068000Y-66929000D02*
X164998000Y-66929000D01*
X173228000Y-66929000D02*
X171298000Y-66929000D01*
X211812000Y-59944000D02*
G75*
G03X211812000Y-59944000I-1500000J0D01*
G01*
X206812000Y-59944000D02*
G75*
G03X206812000Y-59944000I-1500000J0D01*
G01*
X212812000Y-55644000D02*
X202812000Y-55644000D01*
X202812000Y-55644000D02*
X202812000Y-63944000D01*
X202812000Y-63944000D02*
X212312000Y-63944000D01*
X212312000Y-63944000D02*
X212812000Y-63444000D01*
X212812000Y-63444000D02*
X212812000Y-55644000D01*
X212812000Y-63444000D02*
X202812000Y-63444000D01*
X212812000Y-61944000D02*
X202812000Y-61944000D01*
X212812000Y-57644000D02*
X202812000Y-57644000D01*
X209174000Y-58989000D02*
X211267000Y-61082000D01*
X209357000Y-58806000D02*
X211450000Y-60899000D01*
X211312000Y-55644000D02*
X211312000Y-56644000D01*
X211312000Y-56644000D02*
X209312000Y-56644000D01*
X209312000Y-56644000D02*
X209312000Y-55644000D01*
X209312000Y-55644000D02*
X211312000Y-55644000D01*
X204174000Y-58989000D02*
X206266000Y-61082000D01*
X204357000Y-58806000D02*
X206449000Y-60899000D01*
X206312000Y-55644000D02*
X206312000Y-56644000D01*
X206312000Y-56644000D02*
X204312000Y-56644000D01*
X204312000Y-56644000D02*
X204312000Y-55644000D01*
X204312000Y-55644000D02*
X206312000Y-55644000D01*
X164180000Y-55644000D02*
X166180000Y-55644000D01*
X164180000Y-56644000D02*
X164180000Y-55644000D01*
X166180000Y-56644000D02*
X164180000Y-56644000D01*
X166180000Y-55644000D02*
X166180000Y-56644000D01*
X164225000Y-58806000D02*
X166317000Y-60899000D01*
X164042000Y-58989000D02*
X166134000Y-61082000D01*
X169180000Y-55644000D02*
X171180000Y-55644000D01*
X169180000Y-56644000D02*
X169180000Y-55644000D01*
X171180000Y-56644000D02*
X169180000Y-56644000D01*
X171180000Y-55644000D02*
X171180000Y-56644000D01*
X169225000Y-58806000D02*
X171318000Y-60899000D01*
X169042000Y-58989000D02*
X171135000Y-61082000D01*
X172680000Y-57644000D02*
X162680000Y-57644000D01*
X172680000Y-61944000D02*
X162680000Y-61944000D01*
X172680000Y-63444000D02*
X162680000Y-63444000D01*
X172680000Y-63444000D02*
X172680000Y-55644000D01*
X172180000Y-63944000D02*
X172680000Y-63444000D01*
X162680000Y-63944000D02*
X172180000Y-63944000D01*
X162680000Y-55644000D02*
X162680000Y-63944000D01*
X172680000Y-55644000D02*
X162680000Y-55644000D01*
X166680000Y-59944000D02*
G75*
G03X166680000Y-59944000I-1500000J0D01*
G01*
X171680000Y-59944000D02*
G75*
G03X171680000Y-59944000I-1500000J0D01*
G01*
X190627000Y-107315000D02*
X192532000Y-107315000D01*
X192532000Y-107315000D02*
X192532000Y-104775000D01*
X192532000Y-104775000D02*
X189992000Y-104775000D01*
X189992000Y-104775000D02*
X189992000Y-106680000D01*
X189992000Y-106680000D02*
X190627000Y-107315000D01*
X110490000Y-59055000D02*
X111125000Y-59690000D01*
X110490000Y-57150000D02*
X110490000Y-59055000D01*
X113030000Y-57150000D02*
X110490000Y-57150000D01*
X113030000Y-59690000D02*
X113030000Y-57150000D01*
X111125000Y-59690000D02*
X113030000Y-59690000D01*
X80391000Y-85979000D02*
X81026000Y-86614000D01*
X80391000Y-84074000D02*
X80391000Y-85979000D01*
X82931000Y-84074000D02*
X80391000Y-84074000D01*
X82931000Y-86614000D02*
X82931000Y-84074000D01*
X81026000Y-86614000D02*
X82931000Y-86614000D01*
X178308000Y-81788000D02*
X178943000Y-82423000D01*
X178308000Y-79883000D02*
X178308000Y-81788000D01*
X180848000Y-79883000D02*
X178308000Y-79883000D01*
X180848000Y-82423000D02*
X180848000Y-79883000D01*
X178943000Y-82423000D02*
X180848000Y-82423000D01*
X121564000Y-91801000D02*
X121564000Y-89301000D01*
X121564000Y-89301000D02*
X127864000Y-89301000D01*
X127864000Y-89301000D02*
X127864000Y-91801000D01*
X127864000Y-91801000D02*
X121564000Y-91801000D01*
X119634000Y-90551000D02*
X121564000Y-90551000D01*
X129794000Y-90551000D02*
X127864000Y-90551000D01*
X121691000Y-99294000D02*
X121691000Y-96794000D01*
X121691000Y-96794000D02*
X127991000Y-96794000D01*
X127991000Y-96794000D02*
X127991000Y-99294000D01*
X127991000Y-99294000D02*
X121691000Y-99294000D01*
X119761000Y-98044000D02*
X121691000Y-98044000D01*
X129921000Y-98044000D02*
X127991000Y-98044000D01*
X193900000Y-122500000D02*
X209900000Y-122500000D01*
X209900000Y-122500000D02*
X209900000Y-130000000D01*
X209900000Y-130000000D02*
X193900000Y-130000000D01*
X193900000Y-130000000D02*
X193900000Y-122500000D01*
X198400000Y-130000000D02*
X205400000Y-130000000D01*
X205400000Y-130000000D02*
X205400000Y-135000000D01*
X205400000Y-135000000D02*
X198400000Y-135000000D01*
X198400000Y-135000000D02*
X198400000Y-130000000D01*
X199900000Y-135000000D02*
X203900000Y-135000000D01*
X203900000Y-135000000D02*
X203900000Y-145000000D01*
X203900000Y-145000000D02*
X199900000Y-145000000D01*
X199900000Y-145000000D02*
X199900000Y-135000000D01*
X109936000Y-122500000D02*
X125936000Y-122500000D01*
X125936000Y-122500000D02*
X125936000Y-130000000D01*
X125936000Y-130000000D02*
X109936000Y-130000000D01*
X109936000Y-130000000D02*
X109936000Y-122500000D01*
X114436000Y-130000000D02*
X121436000Y-130000000D01*
X121436000Y-130000000D02*
X121436000Y-135000000D01*
X121436000Y-135000000D02*
X114436000Y-135000000D01*
X114436000Y-135000000D02*
X114436000Y-130000000D01*
X115936000Y-135000000D02*
X119936000Y-135000000D01*
X119936000Y-135000000D02*
X119936000Y-145000000D01*
X119936000Y-145000000D02*
X115936000Y-145000000D01*
X115936000Y-145000000D02*
X115936000Y-135000000D01*
X227900000Y-145000000D02*
X227900000Y-135000000D01*
X231900000Y-145000000D02*
X227900000Y-145000000D01*
X231900000Y-135000000D02*
X231900000Y-145000000D01*
X227900000Y-135000000D02*
X231900000Y-135000000D01*
X226400000Y-135000000D02*
X226400000Y-130000000D01*
X233400000Y-135000000D02*
X226400000Y-135000000D01*
X233400000Y-130000000D02*
X233400000Y-135000000D01*
X226400000Y-130000000D02*
X233400000Y-130000000D01*
X221900000Y-130000000D02*
X221900000Y-122500000D01*
X237900000Y-130000000D02*
X221900000Y-130000000D01*
X237900000Y-122500000D02*
X237900000Y-130000000D01*
X221900000Y-122500000D02*
X237900000Y-122500000D01*
X165900000Y-122500000D02*
X181900000Y-122500000D01*
X181900000Y-122500000D02*
X181900000Y-130000000D01*
X181900000Y-130000000D02*
X165900000Y-130000000D01*
X165900000Y-130000000D02*
X165900000Y-122500000D01*
X170400000Y-130000000D02*
X177400000Y-130000000D01*
X177400000Y-130000000D02*
X177400000Y-135000000D01*
X177400000Y-135000000D02*
X170400000Y-135000000D01*
X170400000Y-135000000D02*
X170400000Y-130000000D01*
X171900000Y-135000000D02*
X175900000Y-135000000D01*
X175900000Y-135000000D02*
X175900000Y-145000000D01*
X175900000Y-145000000D02*
X171900000Y-145000000D01*
X171900000Y-145000000D02*
X171900000Y-135000000D01*
X143900000Y-145000000D02*
X143900000Y-135000000D01*
X147900000Y-145000000D02*
X143900000Y-145000000D01*
X147900000Y-135000000D02*
X147900000Y-145000000D01*
X143900000Y-135000000D02*
X147900000Y-135000000D01*
X142400000Y-135000000D02*
X142400000Y-130000000D01*
X149400000Y-135000000D02*
X142400000Y-135000000D01*
X149400000Y-130000000D02*
X149400000Y-135000000D01*
X142400000Y-130000000D02*
X149400000Y-130000000D01*
X137900000Y-130000000D02*
X137900000Y-122500000D01*
X153900000Y-130000000D02*
X137900000Y-130000000D01*
X153900000Y-122500000D02*
X153900000Y-130000000D01*
X137900000Y-122500000D02*
X153900000Y-122500000D01*
X184313000Y-65551000D02*
X188813000Y-65551000D01*
X188813000Y-65551000D02*
X188813000Y-77451000D01*
X188813000Y-77451000D02*
X184313000Y-77451000D01*
X184313000Y-77451000D02*
X184313000Y-65551000D01*
X186563000Y-63881000D02*
X186563000Y-65551000D01*
X186563000Y-79121000D02*
X186563000Y-77451000D01*
X149200000Y-116860000D02*
X149200000Y-119360000D01*
X149200000Y-119360000D02*
X142900000Y-119360000D01*
X142900000Y-119360000D02*
X142900000Y-116860000D01*
X142900000Y-116860000D02*
X149200000Y-116860000D01*
X151130000Y-118110000D02*
X149200000Y-118110000D01*
X140970000Y-118110000D02*
X142900000Y-118110000D01*
X183296000Y-59817000D02*
G75*
G03X183296000Y-59817000I-4000000J0D01*
G01*
X175869241Y-61564500D02*
X176669241Y-61564500D01*
X176269241Y-61964500D02*
X176269241Y-61164500D01*
X149963000Y-59944000D02*
G75*
G03X149963000Y-59944000I-1500000J0D01*
G01*
X144963000Y-59944000D02*
G75*
G03X144963000Y-59944000I-1500000J0D01*
G01*
X150963000Y-55644000D02*
X140963000Y-55644000D01*
X140963000Y-55644000D02*
X140963000Y-63944000D01*
X140963000Y-63944000D02*
X150463000Y-63944000D01*
X150463000Y-63944000D02*
X150963000Y-63444000D01*
X150963000Y-63444000D02*
X150963000Y-55644000D01*
X150963000Y-63444000D02*
X140963000Y-63444000D01*
X150963000Y-61944000D02*
X140963000Y-61944000D01*
X150963000Y-57644000D02*
X140963000Y-57644000D01*
X147325000Y-58989000D02*
X149418000Y-61082000D01*
X147508000Y-58806000D02*
X149601000Y-60899000D01*
X149463000Y-55644000D02*
X149463000Y-56644000D01*
X149463000Y-56644000D02*
X147463000Y-56644000D01*
X147463000Y-56644000D02*
X147463000Y-55644000D01*
X147463000Y-55644000D02*
X149463000Y-55644000D01*
X142325000Y-58989000D02*
X144417000Y-61082000D01*
X142508000Y-58806000D02*
X144600000Y-60899000D01*
X144463000Y-55644000D02*
X144463000Y-56644000D01*
X144463000Y-56644000D02*
X142463000Y-56644000D01*
X142463000Y-56644000D02*
X142463000Y-55644000D01*
X142463000Y-55644000D02*
X144463000Y-55644000D01*
D11*
X119832380Y-62809523D02*
X119832380Y-62238095D01*
X119832380Y-62523809D02*
X118832380Y-62523809D01*
X118975238Y-62428571D01*
X119070476Y-62333333D01*
X119118095Y-62238095D01*
X118832380Y-63428571D02*
X118832380Y-63523809D01*
X118880000Y-63619047D01*
X118927619Y-63666666D01*
X119022857Y-63714285D01*
X119213333Y-63761904D01*
X119451428Y-63761904D01*
X119641904Y-63714285D01*
X119737142Y-63666666D01*
X119784761Y-63619047D01*
X119832380Y-63523809D01*
X119832380Y-63428571D01*
X119784761Y-63333333D01*
X119737142Y-63285714D01*
X119641904Y-63238095D01*
X119451428Y-63190476D01*
X119213333Y-63190476D01*
X119022857Y-63238095D01*
X118927619Y-63285714D01*
X118880000Y-63333333D01*
X118832380Y-63428571D01*
X119832380Y-64190476D02*
X118832380Y-64190476D01*
X119832380Y-64761904D02*
X119260952Y-64333333D01*
X118832380Y-64761904D02*
X119403809Y-64190476D01*
X117292380Y-62857142D02*
X116816190Y-62523809D01*
X117292380Y-62285714D02*
X116292380Y-62285714D01*
X116292380Y-62666666D01*
X116340000Y-62761904D01*
X116387619Y-62809523D01*
X116482857Y-62857142D01*
X116625714Y-62857142D01*
X116720952Y-62809523D01*
X116768571Y-62761904D01*
X116816190Y-62666666D01*
X116816190Y-62285714D01*
X117292380Y-63809523D02*
X117292380Y-63238095D01*
X117292380Y-63523809D02*
X116292380Y-63523809D01*
X116435238Y-63428571D01*
X116530476Y-63333333D01*
X116578095Y-63238095D01*
X116387619Y-64190476D02*
X116340000Y-64238095D01*
X116292380Y-64333333D01*
X116292380Y-64571428D01*
X116340000Y-64666666D01*
X116387619Y-64714285D01*
X116482857Y-64761904D01*
X116578095Y-64761904D01*
X116720952Y-64714285D01*
X117292380Y-64142857D01*
X117292380Y-64761904D01*
X232671523Y-75494619D02*
X232623904Y-75447000D01*
X232528666Y-75399380D01*
X232290571Y-75399380D01*
X232195333Y-75447000D01*
X232147714Y-75494619D01*
X232100095Y-75589857D01*
X232100095Y-75685095D01*
X232147714Y-75827952D01*
X232719142Y-76399380D01*
X232100095Y-76399380D01*
X231719142Y-75494619D02*
X231671523Y-75447000D01*
X231576285Y-75399380D01*
X231338190Y-75399380D01*
X231242952Y-75447000D01*
X231195333Y-75494619D01*
X231147714Y-75589857D01*
X231147714Y-75685095D01*
X231195333Y-75827952D01*
X231766761Y-76399380D01*
X231147714Y-76399380D01*
X230528666Y-75399380D02*
X230433428Y-75399380D01*
X230338190Y-75447000D01*
X230290571Y-75494619D01*
X230242952Y-75589857D01*
X230195333Y-75780333D01*
X230195333Y-76018428D01*
X230242952Y-76208904D01*
X230290571Y-76304142D01*
X230338190Y-76351761D01*
X230433428Y-76399380D01*
X230528666Y-76399380D01*
X230623904Y-76351761D01*
X230671523Y-76304142D01*
X230719142Y-76208904D01*
X230766761Y-76018428D01*
X230766761Y-75780333D01*
X230719142Y-75589857D01*
X230671523Y-75494619D01*
X230623904Y-75447000D01*
X230528666Y-75399380D01*
X229195333Y-76399380D02*
X229528666Y-75923190D01*
X229766761Y-76399380D02*
X229766761Y-75399380D01*
X229385809Y-75399380D01*
X229290571Y-75447000D01*
X229242952Y-75494619D01*
X229195333Y-75589857D01*
X229195333Y-75732714D01*
X229242952Y-75827952D01*
X229290571Y-75875571D01*
X229385809Y-75923190D01*
X229766761Y-75923190D01*
X228052476Y-75351761D02*
X228909619Y-76637476D01*
X227766761Y-75494619D02*
X227719142Y-75447000D01*
X227623904Y-75399380D01*
X227385809Y-75399380D01*
X227290571Y-75447000D01*
X227242952Y-75494619D01*
X227195333Y-75589857D01*
X227195333Y-75685095D01*
X227242952Y-75827952D01*
X227814380Y-76399380D01*
X227195333Y-76399380D01*
X226862000Y-75399380D02*
X226623904Y-76399380D01*
X226433428Y-75685095D01*
X226242952Y-76399380D01*
X226004857Y-75399380D01*
X230004857Y-79319380D02*
X230338190Y-78843190D01*
X230576285Y-79319380D02*
X230576285Y-78319380D01*
X230195333Y-78319380D01*
X230100095Y-78367000D01*
X230052476Y-78414619D01*
X230004857Y-78509857D01*
X230004857Y-78652714D01*
X230052476Y-78747952D01*
X230100095Y-78795571D01*
X230195333Y-78843190D01*
X230576285Y-78843190D01*
X229052476Y-79319380D02*
X229623904Y-79319380D01*
X229338190Y-79319380D02*
X229338190Y-78319380D01*
X229433428Y-78462238D01*
X229528666Y-78557476D01*
X229623904Y-78605095D01*
X228100095Y-79319380D02*
X228671523Y-79319380D01*
X228385809Y-79319380D02*
X228385809Y-78319380D01*
X228481047Y-78462238D01*
X228576285Y-78557476D01*
X228671523Y-78605095D01*
X212003714Y-90606857D02*
X212670380Y-90606857D01*
X211622761Y-90368761D02*
X212337047Y-90130666D01*
X212337047Y-90749714D01*
X212670380Y-91130666D02*
X211670380Y-91130666D01*
X212670380Y-91702095D02*
X212098952Y-91273523D01*
X211670380Y-91702095D02*
X212241809Y-91130666D01*
X211670380Y-92035428D02*
X211670380Y-92702095D01*
X212670380Y-92273523D01*
X211622761Y-93797333D02*
X212908476Y-92940190D01*
X211670380Y-94035428D02*
X211670380Y-94654476D01*
X212051333Y-94321142D01*
X212051333Y-94464000D01*
X212098952Y-94559238D01*
X212146571Y-94606857D01*
X212241809Y-94654476D01*
X212479904Y-94654476D01*
X212575142Y-94606857D01*
X212622761Y-94559238D01*
X212670380Y-94464000D01*
X212670380Y-94178285D01*
X212622761Y-94083047D01*
X212575142Y-94035428D01*
X211670380Y-94987809D02*
X212670380Y-95225904D01*
X211956095Y-95416380D01*
X212670380Y-95606857D01*
X211670380Y-95844952D01*
X215590380Y-92321142D02*
X215114190Y-91987809D01*
X215590380Y-91749714D02*
X214590380Y-91749714D01*
X214590380Y-92130666D01*
X214638000Y-92225904D01*
X214685619Y-92273523D01*
X214780857Y-92321142D01*
X214923714Y-92321142D01*
X215018952Y-92273523D01*
X215066571Y-92225904D01*
X215114190Y-92130666D01*
X215114190Y-91749714D01*
X215590380Y-93273523D02*
X215590380Y-92702095D01*
X215590380Y-92987809D02*
X214590380Y-92987809D01*
X214733238Y-92892571D01*
X214828476Y-92797333D01*
X214876095Y-92702095D01*
X214590380Y-93606857D02*
X214590380Y-94225904D01*
X214971333Y-93892571D01*
X214971333Y-94035428D01*
X215018952Y-94130666D01*
X215066571Y-94178285D01*
X215161809Y-94225904D01*
X215399904Y-94225904D01*
X215495142Y-94178285D01*
X215542761Y-94130666D01*
X215590380Y-94035428D01*
X215590380Y-93749714D01*
X215542761Y-93654476D01*
X215495142Y-93606857D01*
X205330619Y-103036904D02*
X205283000Y-103084523D01*
X205235380Y-103179761D01*
X205235380Y-103417857D01*
X205283000Y-103513095D01*
X205330619Y-103560714D01*
X205425857Y-103608333D01*
X205521095Y-103608333D01*
X205663952Y-103560714D01*
X206235380Y-102989285D01*
X206235380Y-103608333D01*
X205330619Y-103989285D02*
X205283000Y-104036904D01*
X205235380Y-104132142D01*
X205235380Y-104370238D01*
X205283000Y-104465476D01*
X205330619Y-104513095D01*
X205425857Y-104560714D01*
X205521095Y-104560714D01*
X205663952Y-104513095D01*
X206235380Y-103941666D01*
X206235380Y-104560714D01*
X205235380Y-105179761D02*
X205235380Y-105275000D01*
X205283000Y-105370238D01*
X205330619Y-105417857D01*
X205425857Y-105465476D01*
X205616333Y-105513095D01*
X205854428Y-105513095D01*
X206044904Y-105465476D01*
X206140142Y-105417857D01*
X206187761Y-105370238D01*
X206235380Y-105275000D01*
X206235380Y-105179761D01*
X206187761Y-105084523D01*
X206140142Y-105036904D01*
X206044904Y-104989285D01*
X205854428Y-104941666D01*
X205616333Y-104941666D01*
X205425857Y-104989285D01*
X205330619Y-105036904D01*
X205283000Y-105084523D01*
X205235380Y-105179761D01*
X206235380Y-105941666D02*
X205235380Y-105941666D01*
X206235380Y-106513095D02*
X205663952Y-106084523D01*
X205235380Y-106513095D02*
X205806809Y-105941666D01*
X208605380Y-104608333D02*
X208129190Y-104275000D01*
X208605380Y-104036904D02*
X207605380Y-104036904D01*
X207605380Y-104417857D01*
X207653000Y-104513095D01*
X207700619Y-104560714D01*
X207795857Y-104608333D01*
X207938714Y-104608333D01*
X208033952Y-104560714D01*
X208081571Y-104513095D01*
X208129190Y-104417857D01*
X208129190Y-104036904D01*
X208033952Y-105179761D02*
X207986333Y-105084523D01*
X207938714Y-105036904D01*
X207843476Y-104989285D01*
X207795857Y-104989285D01*
X207700619Y-105036904D01*
X207653000Y-105084523D01*
X207605380Y-105179761D01*
X207605380Y-105370238D01*
X207653000Y-105465476D01*
X207700619Y-105513095D01*
X207795857Y-105560714D01*
X207843476Y-105560714D01*
X207938714Y-105513095D01*
X207986333Y-105465476D01*
X208033952Y-105370238D01*
X208033952Y-105179761D01*
X208081571Y-105084523D01*
X208129190Y-105036904D01*
X208224428Y-104989285D01*
X208414904Y-104989285D01*
X208510142Y-105036904D01*
X208557761Y-105084523D01*
X208605380Y-105179761D01*
X208605380Y-105370238D01*
X208557761Y-105465476D01*
X208510142Y-105513095D01*
X208414904Y-105560714D01*
X208224428Y-105560714D01*
X208129190Y-105513095D01*
X208081571Y-105465476D01*
X208033952Y-105370238D01*
X131488095Y-54305714D02*
X131488095Y-54972380D01*
X131726190Y-53924761D02*
X131964285Y-54639047D01*
X131345238Y-54639047D01*
X131059523Y-53972380D02*
X130392857Y-53972380D01*
X130821428Y-54972380D01*
X129583333Y-54305714D02*
X129583333Y-54972380D01*
X130011904Y-54305714D02*
X130011904Y-54829523D01*
X129964285Y-54924761D01*
X129869047Y-54972380D01*
X129726190Y-54972380D01*
X129630952Y-54924761D01*
X129583333Y-54877142D01*
X130916666Y-65127142D02*
X130964285Y-65174761D01*
X131107142Y-65222380D01*
X131202380Y-65222380D01*
X131345238Y-65174761D01*
X131440476Y-65079523D01*
X131488095Y-64984285D01*
X131535714Y-64793809D01*
X131535714Y-64650952D01*
X131488095Y-64460476D01*
X131440476Y-64365238D01*
X131345238Y-64270000D01*
X131202380Y-64222380D01*
X131107142Y-64222380D01*
X130964285Y-64270000D01*
X130916666Y-64317619D01*
X130440476Y-65222380D02*
X130250000Y-65222380D01*
X130154761Y-65174761D01*
X130107142Y-65127142D01*
X130011904Y-64984285D01*
X129964285Y-64793809D01*
X129964285Y-64412857D01*
X130011904Y-64317619D01*
X130059523Y-64270000D01*
X130154761Y-64222380D01*
X130345238Y-64222380D01*
X130440476Y-64270000D01*
X130488095Y-64317619D01*
X130535714Y-64412857D01*
X130535714Y-64650952D01*
X130488095Y-64746190D01*
X130440476Y-64793809D01*
X130345238Y-64841428D01*
X130154761Y-64841428D01*
X130059523Y-64793809D01*
X130011904Y-64746190D01*
X129964285Y-64650952D01*
X60790476Y-112212380D02*
X60790476Y-111212380D01*
X60314285Y-112212380D02*
X60314285Y-111212380D01*
X59742857Y-112212380D01*
X59742857Y-111212380D01*
X59504761Y-112307619D02*
X58742857Y-112307619D01*
X58504761Y-112212380D02*
X58504761Y-111212380D01*
X58504761Y-111688571D02*
X57933333Y-111688571D01*
X57933333Y-112212380D02*
X57933333Y-111212380D01*
X57457142Y-112212380D02*
X57457142Y-111212380D01*
X56457142Y-111260000D02*
X56552380Y-111212380D01*
X56695238Y-111212380D01*
X56838095Y-111260000D01*
X56933333Y-111355238D01*
X56980952Y-111450476D01*
X57028571Y-111640952D01*
X57028571Y-111783809D01*
X56980952Y-111974285D01*
X56933333Y-112069523D01*
X56838095Y-112164761D01*
X56695238Y-112212380D01*
X56600000Y-112212380D01*
X56457142Y-112164761D01*
X56409523Y-112117142D01*
X56409523Y-111783809D01*
X56600000Y-111783809D01*
X55980952Y-112212380D02*
X55980952Y-111212380D01*
X55980952Y-111688571D02*
X55409523Y-111688571D01*
X55409523Y-112212380D02*
X55409523Y-111212380D01*
X90574761Y-112212380D02*
X90574761Y-111212380D01*
X90098571Y-112212380D02*
X90098571Y-111212380D01*
X89527142Y-112212380D01*
X89527142Y-111212380D01*
X89289047Y-112307619D02*
X88527142Y-112307619D01*
X87812857Y-112212380D02*
X88289047Y-112212380D01*
X88289047Y-111212380D01*
X87289047Y-111212380D02*
X87098571Y-111212380D01*
X87003333Y-111260000D01*
X86908095Y-111355238D01*
X86860476Y-111545714D01*
X86860476Y-111879047D01*
X86908095Y-112069523D01*
X87003333Y-112164761D01*
X87098571Y-112212380D01*
X87289047Y-112212380D01*
X87384285Y-112164761D01*
X87479523Y-112069523D01*
X87527142Y-111879047D01*
X87527142Y-111545714D01*
X87479523Y-111355238D01*
X87384285Y-111260000D01*
X87289047Y-111212380D01*
X86527142Y-111212380D02*
X86289047Y-112212380D01*
X86098571Y-111498095D01*
X85908095Y-112212380D01*
X85670000Y-111212380D01*
X90923714Y-84089714D02*
X91590380Y-84089714D01*
X90542761Y-83851619D02*
X91257047Y-83613523D01*
X91257047Y-84232571D01*
X90590380Y-84518285D02*
X90590380Y-85184952D01*
X91590380Y-84756380D01*
X90590380Y-85756380D02*
X90590380Y-85851619D01*
X90638000Y-85946857D01*
X90685619Y-85994476D01*
X90780857Y-86042095D01*
X90971333Y-86089714D01*
X91209428Y-86089714D01*
X91399904Y-86042095D01*
X91495142Y-85994476D01*
X91542761Y-85946857D01*
X91590380Y-85851619D01*
X91590380Y-85756380D01*
X91542761Y-85661142D01*
X91495142Y-85613523D01*
X91399904Y-85565904D01*
X91209428Y-85518285D01*
X90971333Y-85518285D01*
X90780857Y-85565904D01*
X90685619Y-85613523D01*
X90638000Y-85661142D01*
X90590380Y-85756380D01*
X90923714Y-86518285D02*
X91923714Y-86518285D01*
X90971333Y-86518285D02*
X90923714Y-86613523D01*
X90923714Y-86804000D01*
X90971333Y-86899238D01*
X91018952Y-86946857D01*
X91114190Y-86994476D01*
X91399904Y-86994476D01*
X91495142Y-86946857D01*
X91542761Y-86899238D01*
X91590380Y-86804000D01*
X91590380Y-86613523D01*
X91542761Y-86518285D01*
X88495142Y-84661142D02*
X88542761Y-84613523D01*
X88590380Y-84470666D01*
X88590380Y-84375428D01*
X88542761Y-84232571D01*
X88447523Y-84137333D01*
X88352285Y-84089714D01*
X88161809Y-84042095D01*
X88018952Y-84042095D01*
X87828476Y-84089714D01*
X87733238Y-84137333D01*
X87638000Y-84232571D01*
X87590380Y-84375428D01*
X87590380Y-84470666D01*
X87638000Y-84613523D01*
X87685619Y-84661142D01*
X88590380Y-85613523D02*
X88590380Y-85042095D01*
X88590380Y-85327809D02*
X87590380Y-85327809D01*
X87733238Y-85232571D01*
X87828476Y-85137333D01*
X87876095Y-85042095D01*
X88590380Y-86565904D02*
X88590380Y-85994476D01*
X88590380Y-86280190D02*
X87590380Y-86280190D01*
X87733238Y-86184952D01*
X87828476Y-86089714D01*
X87876095Y-85994476D01*
X109212380Y-102663333D02*
X109212380Y-102091904D01*
X109212380Y-102377619D02*
X108212380Y-102377619D01*
X108355238Y-102282380D01*
X108450476Y-102187142D01*
X108498095Y-102091904D01*
X108545714Y-103091904D02*
X109212380Y-103091904D01*
X108640952Y-103091904D02*
X108593333Y-103139523D01*
X108545714Y-103234761D01*
X108545714Y-103377619D01*
X108593333Y-103472857D01*
X108688571Y-103520476D01*
X109212380Y-103520476D01*
X112117142Y-102663333D02*
X112164761Y-102615714D01*
X112212380Y-102472857D01*
X112212380Y-102377619D01*
X112164761Y-102234761D01*
X112069523Y-102139523D01*
X111974285Y-102091904D01*
X111783809Y-102044285D01*
X111640952Y-102044285D01*
X111450476Y-102091904D01*
X111355238Y-102139523D01*
X111260000Y-102234761D01*
X111212380Y-102377619D01*
X111212380Y-102472857D01*
X111260000Y-102615714D01*
X111307619Y-102663333D01*
X111212380Y-103568095D02*
X111212380Y-103091904D01*
X111688571Y-103044285D01*
X111640952Y-103091904D01*
X111593333Y-103187142D01*
X111593333Y-103425238D01*
X111640952Y-103520476D01*
X111688571Y-103568095D01*
X111783809Y-103615714D01*
X112021904Y-103615714D01*
X112117142Y-103568095D01*
X112164761Y-103520476D01*
X112212380Y-103425238D01*
X112212380Y-103187142D01*
X112164761Y-103091904D01*
X112117142Y-103044285D01*
X146927619Y-108065714D02*
X146880000Y-108113333D01*
X146832380Y-108208571D01*
X146832380Y-108446666D01*
X146880000Y-108541904D01*
X146927619Y-108589523D01*
X147022857Y-108637142D01*
X147118095Y-108637142D01*
X147260952Y-108589523D01*
X147832380Y-108018095D01*
X147832380Y-108637142D01*
X146927619Y-109018095D02*
X146880000Y-109065714D01*
X146832380Y-109160952D01*
X146832380Y-109399047D01*
X146880000Y-109494285D01*
X146927619Y-109541904D01*
X147022857Y-109589523D01*
X147118095Y-109589523D01*
X147260952Y-109541904D01*
X147832380Y-108970476D01*
X147832380Y-109589523D01*
X147165714Y-110018095D02*
X147832380Y-110018095D01*
X147260952Y-110018095D02*
X147213333Y-110065714D01*
X147165714Y-110160952D01*
X147165714Y-110303809D01*
X147213333Y-110399047D01*
X147308571Y-110446666D01*
X147832380Y-110446666D01*
X151487142Y-108637142D02*
X151534761Y-108589523D01*
X151582380Y-108446666D01*
X151582380Y-108351428D01*
X151534761Y-108208571D01*
X151439523Y-108113333D01*
X151344285Y-108065714D01*
X151153809Y-108018095D01*
X151010952Y-108018095D01*
X150820476Y-108065714D01*
X150725238Y-108113333D01*
X150630000Y-108208571D01*
X150582380Y-108351428D01*
X150582380Y-108446666D01*
X150630000Y-108589523D01*
X150677619Y-108637142D01*
X151582380Y-109589523D02*
X151582380Y-109018095D01*
X151582380Y-109303809D02*
X150582380Y-109303809D01*
X150725238Y-109208571D01*
X150820476Y-109113333D01*
X150868095Y-109018095D01*
X150582380Y-110494285D02*
X150582380Y-110018095D01*
X151058571Y-109970476D01*
X151010952Y-110018095D01*
X150963333Y-110113333D01*
X150963333Y-110351428D01*
X151010952Y-110446666D01*
X151058571Y-110494285D01*
X151153809Y-110541904D01*
X151391904Y-110541904D01*
X151487142Y-110494285D01*
X151534761Y-110446666D01*
X151582380Y-110351428D01*
X151582380Y-110113333D01*
X151534761Y-110018095D01*
X151487142Y-109970476D01*
X167187619Y-108005714D02*
X167140000Y-108053333D01*
X167092380Y-108148571D01*
X167092380Y-108386666D01*
X167140000Y-108481904D01*
X167187619Y-108529523D01*
X167282857Y-108577142D01*
X167378095Y-108577142D01*
X167520952Y-108529523D01*
X168092380Y-107958095D01*
X168092380Y-108577142D01*
X167187619Y-108958095D02*
X167140000Y-109005714D01*
X167092380Y-109100952D01*
X167092380Y-109339047D01*
X167140000Y-109434285D01*
X167187619Y-109481904D01*
X167282857Y-109529523D01*
X167378095Y-109529523D01*
X167520952Y-109481904D01*
X168092380Y-108910476D01*
X168092380Y-109529523D01*
X167425714Y-109958095D02*
X168092380Y-109958095D01*
X167520952Y-109958095D02*
X167473333Y-110005714D01*
X167425714Y-110100952D01*
X167425714Y-110243809D01*
X167473333Y-110339047D01*
X167568571Y-110386666D01*
X168092380Y-110386666D01*
X171807142Y-108644142D02*
X171854761Y-108596523D01*
X171902380Y-108453666D01*
X171902380Y-108358428D01*
X171854761Y-108215571D01*
X171759523Y-108120333D01*
X171664285Y-108072714D01*
X171473809Y-108025095D01*
X171330952Y-108025095D01*
X171140476Y-108072714D01*
X171045238Y-108120333D01*
X170950000Y-108215571D01*
X170902380Y-108358428D01*
X170902380Y-108453666D01*
X170950000Y-108596523D01*
X170997619Y-108644142D01*
X171902380Y-109596523D02*
X171902380Y-109025095D01*
X171902380Y-109310809D02*
X170902380Y-109310809D01*
X171045238Y-109215571D01*
X171140476Y-109120333D01*
X171188095Y-109025095D01*
X170902380Y-109929857D02*
X170902380Y-110548904D01*
X171283333Y-110215571D01*
X171283333Y-110358428D01*
X171330952Y-110453666D01*
X171378571Y-110501285D01*
X171473809Y-110548904D01*
X171711904Y-110548904D01*
X171807142Y-110501285D01*
X171854761Y-110453666D01*
X171902380Y-110358428D01*
X171902380Y-110072714D01*
X171854761Y-109977476D01*
X171807142Y-109929857D01*
X86237285Y-81275619D02*
X86189666Y-81228000D01*
X86094428Y-81180380D01*
X85856333Y-81180380D01*
X85761095Y-81228000D01*
X85713476Y-81275619D01*
X85665857Y-81370857D01*
X85665857Y-81466095D01*
X85713476Y-81608952D01*
X86284904Y-82180380D01*
X85665857Y-82180380D01*
X85284904Y-81275619D02*
X85237285Y-81228000D01*
X85142047Y-81180380D01*
X84903952Y-81180380D01*
X84808714Y-81228000D01*
X84761095Y-81275619D01*
X84713476Y-81370857D01*
X84713476Y-81466095D01*
X84761095Y-81608952D01*
X85332523Y-82180380D01*
X84713476Y-82180380D01*
X84284904Y-81513714D02*
X84284904Y-82180380D01*
X84284904Y-81608952D02*
X84237285Y-81561333D01*
X84142047Y-81513714D01*
X83999190Y-81513714D01*
X83903952Y-81561333D01*
X83856333Y-81656571D01*
X83856333Y-82180380D01*
X85189666Y-78335142D02*
X85237285Y-78382761D01*
X85380142Y-78430380D01*
X85475380Y-78430380D01*
X85618238Y-78382761D01*
X85713476Y-78287523D01*
X85761095Y-78192285D01*
X85808714Y-78001809D01*
X85808714Y-77858952D01*
X85761095Y-77668476D01*
X85713476Y-77573238D01*
X85618238Y-77478000D01*
X85475380Y-77430380D01*
X85380142Y-77430380D01*
X85237285Y-77478000D01*
X85189666Y-77525619D01*
X84332523Y-77430380D02*
X84523000Y-77430380D01*
X84618238Y-77478000D01*
X84665857Y-77525619D01*
X84761095Y-77668476D01*
X84808714Y-77858952D01*
X84808714Y-78239904D01*
X84761095Y-78335142D01*
X84713476Y-78382761D01*
X84618238Y-78430380D01*
X84427761Y-78430380D01*
X84332523Y-78382761D01*
X84284904Y-78335142D01*
X84237285Y-78239904D01*
X84237285Y-78001809D01*
X84284904Y-77906571D01*
X84332523Y-77858952D01*
X84427761Y-77811333D01*
X84618238Y-77811333D01*
X84713476Y-77858952D01*
X84761095Y-77906571D01*
X84808714Y-78001809D01*
X92102380Y-98801714D02*
X92102380Y-98611238D01*
X92150000Y-98516000D01*
X92197619Y-98468380D01*
X92340476Y-98373142D01*
X92530952Y-98325523D01*
X92911904Y-98325523D01*
X93007142Y-98373142D01*
X93054761Y-98420761D01*
X93102380Y-98516000D01*
X93102380Y-98706476D01*
X93054761Y-98801714D01*
X93007142Y-98849333D01*
X92911904Y-98896952D01*
X92673809Y-98896952D01*
X92578571Y-98849333D01*
X92530952Y-98801714D01*
X92483333Y-98706476D01*
X92483333Y-98516000D01*
X92530952Y-98420761D01*
X92578571Y-98373142D01*
X92673809Y-98325523D01*
X92530952Y-99468380D02*
X92483333Y-99373142D01*
X92435714Y-99325523D01*
X92340476Y-99277904D01*
X92292857Y-99277904D01*
X92197619Y-99325523D01*
X92150000Y-99373142D01*
X92102380Y-99468380D01*
X92102380Y-99658857D01*
X92150000Y-99754095D01*
X92197619Y-99801714D01*
X92292857Y-99849333D01*
X92340476Y-99849333D01*
X92435714Y-99801714D01*
X92483333Y-99754095D01*
X92530952Y-99658857D01*
X92530952Y-99468380D01*
X92578571Y-99373142D01*
X92626190Y-99325523D01*
X92721428Y-99277904D01*
X92911904Y-99277904D01*
X93007142Y-99325523D01*
X93054761Y-99373142D01*
X93102380Y-99468380D01*
X93102380Y-99658857D01*
X93054761Y-99754095D01*
X93007142Y-99801714D01*
X92911904Y-99849333D01*
X92721428Y-99849333D01*
X92626190Y-99801714D01*
X92578571Y-99754095D01*
X92530952Y-99658857D01*
X92102380Y-100468380D02*
X92102380Y-100563619D01*
X92150000Y-100658857D01*
X92197619Y-100706476D01*
X92292857Y-100754095D01*
X92483333Y-100801714D01*
X92721428Y-100801714D01*
X92911904Y-100754095D01*
X93007142Y-100706476D01*
X93054761Y-100658857D01*
X93102380Y-100563619D01*
X93102380Y-100468380D01*
X93054761Y-100373142D01*
X93007142Y-100325523D01*
X92911904Y-100277904D01*
X92721428Y-100230285D01*
X92483333Y-100230285D01*
X92292857Y-100277904D01*
X92197619Y-100325523D01*
X92150000Y-100373142D01*
X92102380Y-100468380D01*
X92435714Y-101230285D02*
X93102380Y-101230285D01*
X92530952Y-101230285D02*
X92483333Y-101277904D01*
X92435714Y-101373142D01*
X92435714Y-101516000D01*
X92483333Y-101611238D01*
X92578571Y-101658857D01*
X93102380Y-101658857D01*
X89257142Y-99849333D02*
X89304761Y-99801714D01*
X89352380Y-99658857D01*
X89352380Y-99563619D01*
X89304761Y-99420761D01*
X89209523Y-99325523D01*
X89114285Y-99277904D01*
X88923809Y-99230285D01*
X88780952Y-99230285D01*
X88590476Y-99277904D01*
X88495238Y-99325523D01*
X88400000Y-99420761D01*
X88352380Y-99563619D01*
X88352380Y-99658857D01*
X88400000Y-99801714D01*
X88447619Y-99849333D01*
X88352380Y-100182666D02*
X88352380Y-100801714D01*
X88733333Y-100468380D01*
X88733333Y-100611238D01*
X88780952Y-100706476D01*
X88828571Y-100754095D01*
X88923809Y-100801714D01*
X89161904Y-100801714D01*
X89257142Y-100754095D01*
X89304761Y-100706476D01*
X89352380Y-100611238D01*
X89352380Y-100325523D01*
X89304761Y-100230285D01*
X89257142Y-100182666D01*
X76957619Y-101849714D02*
X76910000Y-101897333D01*
X76862380Y-101992571D01*
X76862380Y-102230666D01*
X76910000Y-102325904D01*
X76957619Y-102373523D01*
X77052857Y-102421142D01*
X77148095Y-102421142D01*
X77290952Y-102373523D01*
X77862380Y-101802095D01*
X77862380Y-102421142D01*
X76957619Y-102802095D02*
X76910000Y-102849714D01*
X76862380Y-102944952D01*
X76862380Y-103183047D01*
X76910000Y-103278285D01*
X76957619Y-103325904D01*
X77052857Y-103373523D01*
X77148095Y-103373523D01*
X77290952Y-103325904D01*
X77862380Y-102754476D01*
X77862380Y-103373523D01*
X77195714Y-103802095D02*
X77862380Y-103802095D01*
X77290952Y-103802095D02*
X77243333Y-103849714D01*
X77195714Y-103944952D01*
X77195714Y-104087809D01*
X77243333Y-104183047D01*
X77338571Y-104230666D01*
X77862380Y-104230666D01*
X74017142Y-102897333D02*
X74064761Y-102849714D01*
X74112380Y-102706857D01*
X74112380Y-102611619D01*
X74064761Y-102468761D01*
X73969523Y-102373523D01*
X73874285Y-102325904D01*
X73683809Y-102278285D01*
X73540952Y-102278285D01*
X73350476Y-102325904D01*
X73255238Y-102373523D01*
X73160000Y-102468761D01*
X73112380Y-102611619D01*
X73112380Y-102706857D01*
X73160000Y-102849714D01*
X73207619Y-102897333D01*
X74112380Y-103849714D02*
X74112380Y-103278285D01*
X74112380Y-103564000D02*
X73112380Y-103564000D01*
X73255238Y-103468761D01*
X73350476Y-103373523D01*
X73398095Y-103278285D01*
X137505714Y-108065714D02*
X138172380Y-108065714D01*
X137124761Y-107827619D02*
X137839047Y-107589523D01*
X137839047Y-108208571D01*
X137172380Y-108494285D02*
X137172380Y-109160952D01*
X138172380Y-108732380D01*
X137172380Y-109732380D02*
X137172380Y-109827619D01*
X137220000Y-109922857D01*
X137267619Y-109970476D01*
X137362857Y-110018095D01*
X137553333Y-110065714D01*
X137791428Y-110065714D01*
X137981904Y-110018095D01*
X138077142Y-109970476D01*
X138124761Y-109922857D01*
X138172380Y-109827619D01*
X138172380Y-109732380D01*
X138124761Y-109637142D01*
X138077142Y-109589523D01*
X137981904Y-109541904D01*
X137791428Y-109494285D01*
X137553333Y-109494285D01*
X137362857Y-109541904D01*
X137267619Y-109589523D01*
X137220000Y-109637142D01*
X137172380Y-109732380D01*
X137505714Y-110494285D02*
X138505714Y-110494285D01*
X137553333Y-110494285D02*
X137505714Y-110589523D01*
X137505714Y-110780000D01*
X137553333Y-110875238D01*
X137600952Y-110922857D01*
X137696190Y-110970476D01*
X137981904Y-110970476D01*
X138077142Y-110922857D01*
X138124761Y-110875238D01*
X138172380Y-110780000D01*
X138172380Y-110589523D01*
X138124761Y-110494285D01*
X141327142Y-108637142D02*
X141374761Y-108589523D01*
X141422380Y-108446666D01*
X141422380Y-108351428D01*
X141374761Y-108208571D01*
X141279523Y-108113333D01*
X141184285Y-108065714D01*
X140993809Y-108018095D01*
X140850952Y-108018095D01*
X140660476Y-108065714D01*
X140565238Y-108113333D01*
X140470000Y-108208571D01*
X140422380Y-108351428D01*
X140422380Y-108446666D01*
X140470000Y-108589523D01*
X140517619Y-108637142D01*
X141422380Y-109589523D02*
X141422380Y-109018095D01*
X141422380Y-109303809D02*
X140422380Y-109303809D01*
X140565238Y-109208571D01*
X140660476Y-109113333D01*
X140708095Y-109018095D01*
X140755714Y-110446666D02*
X141422380Y-110446666D01*
X140374761Y-110208571D02*
X141089047Y-109970476D01*
X141089047Y-110589523D01*
X195746904Y-64504000D02*
X195842142Y-64456380D01*
X195985000Y-64456380D01*
X196127857Y-64504000D01*
X196223095Y-64599238D01*
X196270714Y-64694476D01*
X196318333Y-64884952D01*
X196318333Y-65027809D01*
X196270714Y-65218285D01*
X196223095Y-65313523D01*
X196127857Y-65408761D01*
X195985000Y-65456380D01*
X195889761Y-65456380D01*
X195746904Y-65408761D01*
X195699285Y-65361142D01*
X195699285Y-65027809D01*
X195889761Y-65027809D01*
X195270714Y-65456380D02*
X195270714Y-64456380D01*
X194699285Y-65456380D01*
X194699285Y-64456380D01*
X194223095Y-65456380D02*
X194223095Y-64456380D01*
X193985000Y-64456380D01*
X193842142Y-64504000D01*
X193746904Y-64599238D01*
X193699285Y-64694476D01*
X193651666Y-64884952D01*
X193651666Y-65027809D01*
X193699285Y-65218285D01*
X193746904Y-65313523D01*
X193842142Y-65408761D01*
X193985000Y-65456380D01*
X194223095Y-65456380D01*
X196223095Y-62194000D02*
X196318333Y-62146380D01*
X196461190Y-62146380D01*
X196604047Y-62194000D01*
X196699285Y-62289238D01*
X196746904Y-62384476D01*
X196794523Y-62574952D01*
X196794523Y-62717809D01*
X196746904Y-62908285D01*
X196699285Y-63003523D01*
X196604047Y-63098761D01*
X196461190Y-63146380D01*
X196365952Y-63146380D01*
X196223095Y-63098761D01*
X196175476Y-63051142D01*
X196175476Y-62717809D01*
X196365952Y-62717809D01*
X195746904Y-63146380D02*
X195746904Y-62146380D01*
X195175476Y-63146380D01*
X195175476Y-62146380D01*
X194699285Y-63146380D02*
X194699285Y-62146380D01*
X194461190Y-62146380D01*
X194318333Y-62194000D01*
X194223095Y-62289238D01*
X194175476Y-62384476D01*
X194127857Y-62574952D01*
X194127857Y-62717809D01*
X194175476Y-62908285D01*
X194223095Y-63003523D01*
X194318333Y-63098761D01*
X194461190Y-63146380D01*
X194699285Y-63146380D01*
X193270714Y-62479714D02*
X193270714Y-63146380D01*
X193508809Y-62098761D02*
X193746904Y-62813047D01*
X193127857Y-62813047D01*
X229532095Y-101295714D02*
X229532095Y-101962380D01*
X229770190Y-100914761D02*
X230008285Y-101629047D01*
X229389238Y-101629047D01*
X229103523Y-100962380D02*
X228436857Y-100962380D01*
X228865428Y-101962380D01*
X227627333Y-101295714D02*
X227627333Y-101962380D01*
X228055904Y-101295714D02*
X228055904Y-101819523D01*
X228008285Y-101914761D01*
X227913047Y-101962380D01*
X227770190Y-101962380D01*
X227674952Y-101914761D01*
X227627333Y-101867142D01*
X229436857Y-112117142D02*
X229484476Y-112164761D01*
X229627333Y-112212380D01*
X229722571Y-112212380D01*
X229865428Y-112164761D01*
X229960666Y-112069523D01*
X230008285Y-111974285D01*
X230055904Y-111783809D01*
X230055904Y-111640952D01*
X230008285Y-111450476D01*
X229960666Y-111355238D01*
X229865428Y-111260000D01*
X229722571Y-111212380D01*
X229627333Y-111212380D01*
X229484476Y-111260000D01*
X229436857Y-111307619D01*
X228484476Y-112212380D02*
X229055904Y-112212380D01*
X228770190Y-112212380D02*
X228770190Y-111212380D01*
X228865428Y-111355238D01*
X228960666Y-111450476D01*
X229055904Y-111498095D01*
X228103523Y-111307619D02*
X228055904Y-111260000D01*
X227960666Y-111212380D01*
X227722571Y-111212380D01*
X227627333Y-111260000D01*
X227579714Y-111307619D01*
X227532095Y-111402857D01*
X227532095Y-111498095D01*
X227579714Y-111640952D01*
X228151142Y-112212380D01*
X227532095Y-112212380D01*
X224833095Y-54559714D02*
X224833095Y-55226380D01*
X225071190Y-54178761D02*
X225309285Y-54893047D01*
X224690238Y-54893047D01*
X224404523Y-54226380D02*
X223737857Y-54226380D01*
X224166428Y-55226380D01*
X222928333Y-54559714D02*
X222928333Y-55226380D01*
X223356904Y-54559714D02*
X223356904Y-55083523D01*
X223309285Y-55178761D01*
X223214047Y-55226380D01*
X223071190Y-55226380D01*
X222975952Y-55178761D01*
X222928333Y-55131142D01*
X224737857Y-65381142D02*
X224785476Y-65428761D01*
X224928333Y-65476380D01*
X225023571Y-65476380D01*
X225166428Y-65428761D01*
X225261666Y-65333523D01*
X225309285Y-65238285D01*
X225356904Y-65047809D01*
X225356904Y-64904952D01*
X225309285Y-64714476D01*
X225261666Y-64619238D01*
X225166428Y-64524000D01*
X225023571Y-64476380D01*
X224928333Y-64476380D01*
X224785476Y-64524000D01*
X224737857Y-64571619D01*
X223785476Y-65476380D02*
X224356904Y-65476380D01*
X224071190Y-65476380D02*
X224071190Y-64476380D01*
X224166428Y-64619238D01*
X224261666Y-64714476D01*
X224356904Y-64762095D01*
X223166428Y-64476380D02*
X223071190Y-64476380D01*
X222975952Y-64524000D01*
X222928333Y-64571619D01*
X222880714Y-64666857D01*
X222833095Y-64857333D01*
X222833095Y-65095428D01*
X222880714Y-65285904D01*
X222928333Y-65381142D01*
X222975952Y-65428761D01*
X223071190Y-65476380D01*
X223166428Y-65476380D01*
X223261666Y-65428761D01*
X223309285Y-65381142D01*
X223356904Y-65285904D01*
X223404523Y-65095428D01*
X223404523Y-64857333D01*
X223356904Y-64666857D01*
X223309285Y-64571619D01*
X223261666Y-64524000D01*
X223166428Y-64476380D01*
X83228095Y-54305714D02*
X83228095Y-54972380D01*
X83466190Y-53924761D02*
X83704285Y-54639047D01*
X83085238Y-54639047D01*
X82799523Y-53972380D02*
X82132857Y-53972380D01*
X82561428Y-54972380D01*
X81323333Y-54305714D02*
X81323333Y-54972380D01*
X81751904Y-54305714D02*
X81751904Y-54829523D01*
X81704285Y-54924761D01*
X81609047Y-54972380D01*
X81466190Y-54972380D01*
X81370952Y-54924761D01*
X81323333Y-54877142D01*
X82656666Y-65127142D02*
X82704285Y-65174761D01*
X82847142Y-65222380D01*
X82942380Y-65222380D01*
X83085238Y-65174761D01*
X83180476Y-65079523D01*
X83228095Y-64984285D01*
X83275714Y-64793809D01*
X83275714Y-64650952D01*
X83228095Y-64460476D01*
X83180476Y-64365238D01*
X83085238Y-64270000D01*
X82942380Y-64222380D01*
X82847142Y-64222380D01*
X82704285Y-64270000D01*
X82656666Y-64317619D01*
X82085238Y-64650952D02*
X82180476Y-64603333D01*
X82228095Y-64555714D01*
X82275714Y-64460476D01*
X82275714Y-64412857D01*
X82228095Y-64317619D01*
X82180476Y-64270000D01*
X82085238Y-64222380D01*
X81894761Y-64222380D01*
X81799523Y-64270000D01*
X81751904Y-64317619D01*
X81704285Y-64412857D01*
X81704285Y-64460476D01*
X81751904Y-64555714D01*
X81799523Y-64603333D01*
X81894761Y-64650952D01*
X82085238Y-64650952D01*
X82180476Y-64698571D01*
X82228095Y-64746190D01*
X82275714Y-64841428D01*
X82275714Y-65031904D01*
X82228095Y-65127142D01*
X82180476Y-65174761D01*
X82085238Y-65222380D01*
X81894761Y-65222380D01*
X81799523Y-65174761D01*
X81751904Y-65127142D01*
X81704285Y-65031904D01*
X81704285Y-64841428D01*
X81751904Y-64746190D01*
X81799523Y-64698571D01*
X81894761Y-64650952D01*
X230929095Y-81483714D02*
X230929095Y-82150380D01*
X231167190Y-81102761D02*
X231405285Y-81817047D01*
X230786238Y-81817047D01*
X230500523Y-81150380D02*
X229833857Y-81150380D01*
X230262428Y-82150380D01*
X229024333Y-81483714D02*
X229024333Y-82150380D01*
X229452904Y-81483714D02*
X229452904Y-82007523D01*
X229405285Y-82102761D01*
X229310047Y-82150380D01*
X229167190Y-82150380D01*
X229071952Y-82102761D01*
X229024333Y-82055142D01*
X230357666Y-92305142D02*
X230405285Y-92352761D01*
X230548142Y-92400380D01*
X230643380Y-92400380D01*
X230786238Y-92352761D01*
X230881476Y-92257523D01*
X230929095Y-92162285D01*
X230976714Y-91971809D01*
X230976714Y-91828952D01*
X230929095Y-91638476D01*
X230881476Y-91543238D01*
X230786238Y-91448000D01*
X230643380Y-91400380D01*
X230548142Y-91400380D01*
X230405285Y-91448000D01*
X230357666Y-91495619D01*
X230024333Y-91400380D02*
X229357666Y-91400380D01*
X229786238Y-92400380D01*
X112521904Y-112403000D02*
X112617142Y-112355380D01*
X112760000Y-112355380D01*
X112902857Y-112403000D01*
X112998095Y-112498238D01*
X113045714Y-112593476D01*
X113093333Y-112783952D01*
X113093333Y-112926809D01*
X113045714Y-113117285D01*
X112998095Y-113212523D01*
X112902857Y-113307761D01*
X112760000Y-113355380D01*
X112664761Y-113355380D01*
X112521904Y-113307761D01*
X112474285Y-113260142D01*
X112474285Y-112926809D01*
X112664761Y-112926809D01*
X112045714Y-113355380D02*
X112045714Y-112355380D01*
X111474285Y-113355380D01*
X111474285Y-112355380D01*
X110998095Y-113355380D02*
X110998095Y-112355380D01*
X110760000Y-112355380D01*
X110617142Y-112403000D01*
X110521904Y-112498238D01*
X110474285Y-112593476D01*
X110426666Y-112783952D01*
X110426666Y-112926809D01*
X110474285Y-113117285D01*
X110521904Y-113212523D01*
X110617142Y-113307761D01*
X110760000Y-113355380D01*
X110998095Y-113355380D01*
X112260000Y-116808095D02*
X112307619Y-116903333D01*
X112307619Y-117046190D01*
X112260000Y-117189047D01*
X112164761Y-117284285D01*
X112069523Y-117331904D01*
X111879047Y-117379523D01*
X111736190Y-117379523D01*
X111545714Y-117331904D01*
X111450476Y-117284285D01*
X111355238Y-117189047D01*
X111307619Y-117046190D01*
X111307619Y-116950952D01*
X111355238Y-116808095D01*
X111402857Y-116760476D01*
X111736190Y-116760476D01*
X111736190Y-116950952D01*
X111307619Y-116331904D02*
X112307619Y-116331904D01*
X111307619Y-115760476D01*
X112307619Y-115760476D01*
X111307619Y-115284285D02*
X112307619Y-115284285D01*
X112307619Y-115046190D01*
X112260000Y-114903333D01*
X112164761Y-114808095D01*
X112069523Y-114760476D01*
X111879047Y-114712857D01*
X111736190Y-114712857D01*
X111545714Y-114760476D01*
X111450476Y-114808095D01*
X111355238Y-114903333D01*
X111307619Y-115046190D01*
X111307619Y-115284285D01*
X112307619Y-114379523D02*
X112307619Y-113760476D01*
X111926666Y-114093809D01*
X111926666Y-113950952D01*
X111879047Y-113855714D01*
X111831428Y-113808095D01*
X111736190Y-113760476D01*
X111498095Y-113760476D01*
X111402857Y-113808095D01*
X111355238Y-113855714D01*
X111307619Y-113950952D01*
X111307619Y-114236666D01*
X111355238Y-114331904D01*
X111402857Y-114379523D01*
X141731904Y-86241000D02*
X141827142Y-86193380D01*
X141970000Y-86193380D01*
X142112857Y-86241000D01*
X142208095Y-86336238D01*
X142255714Y-86431476D01*
X142303333Y-86621952D01*
X142303333Y-86764809D01*
X142255714Y-86955285D01*
X142208095Y-87050523D01*
X142112857Y-87145761D01*
X141970000Y-87193380D01*
X141874761Y-87193380D01*
X141731904Y-87145761D01*
X141684285Y-87098142D01*
X141684285Y-86764809D01*
X141874761Y-86764809D01*
X141255714Y-87193380D02*
X141255714Y-86193380D01*
X140684285Y-87193380D01*
X140684285Y-86193380D01*
X140208095Y-87193380D02*
X140208095Y-86193380D01*
X139970000Y-86193380D01*
X139827142Y-86241000D01*
X139731904Y-86336238D01*
X139684285Y-86431476D01*
X139636666Y-86621952D01*
X139636666Y-86764809D01*
X139684285Y-86955285D01*
X139731904Y-87050523D01*
X139827142Y-87145761D01*
X139970000Y-87193380D01*
X140208095Y-87193380D01*
X141470000Y-90900095D02*
X141517619Y-90995333D01*
X141517619Y-91138190D01*
X141470000Y-91281047D01*
X141374761Y-91376285D01*
X141279523Y-91423904D01*
X141089047Y-91471523D01*
X140946190Y-91471523D01*
X140755714Y-91423904D01*
X140660476Y-91376285D01*
X140565238Y-91281047D01*
X140517619Y-91138190D01*
X140517619Y-91042952D01*
X140565238Y-90900095D01*
X140612857Y-90852476D01*
X140946190Y-90852476D01*
X140946190Y-91042952D01*
X140517619Y-90423904D02*
X141517619Y-90423904D01*
X140517619Y-89852476D01*
X141517619Y-89852476D01*
X140517619Y-89376285D02*
X141517619Y-89376285D01*
X141517619Y-89138190D01*
X141470000Y-88995333D01*
X141374761Y-88900095D01*
X141279523Y-88852476D01*
X141089047Y-88804857D01*
X140946190Y-88804857D01*
X140755714Y-88852476D01*
X140660476Y-88900095D01*
X140565238Y-88995333D01*
X140517619Y-89138190D01*
X140517619Y-89376285D01*
X141422380Y-88423904D02*
X141470000Y-88376285D01*
X141517619Y-88281047D01*
X141517619Y-88042952D01*
X141470000Y-87947714D01*
X141422380Y-87900095D01*
X141327142Y-87852476D01*
X141231904Y-87852476D01*
X141089047Y-87900095D01*
X140517619Y-88471523D01*
X140517619Y-87852476D01*
X82446047Y-93924380D02*
X83017476Y-93924380D01*
X82731761Y-93924380D02*
X82731761Y-92924380D01*
X82826999Y-93067238D01*
X82922238Y-93162476D01*
X83017476Y-93210095D01*
X81826999Y-92924380D02*
X81731761Y-92924380D01*
X81636523Y-92972000D01*
X81588904Y-93019619D01*
X81541285Y-93114857D01*
X81493666Y-93305333D01*
X81493666Y-93543428D01*
X81541285Y-93733904D01*
X81588904Y-93829142D01*
X81636523Y-93876761D01*
X81731761Y-93924380D01*
X81826999Y-93924380D01*
X81922238Y-93876761D01*
X81969857Y-93829142D01*
X82017476Y-93733904D01*
X82065095Y-93543428D01*
X82065095Y-93305333D01*
X82017476Y-93114857D01*
X81969857Y-93019619D01*
X81922238Y-92972000D01*
X81826999Y-92924380D01*
X80874619Y-92924380D02*
X80779380Y-92924380D01*
X80684142Y-92972000D01*
X80636523Y-93019619D01*
X80588904Y-93114857D01*
X80541285Y-93305333D01*
X80541285Y-93543428D01*
X80588904Y-93733904D01*
X80636523Y-93829142D01*
X80684142Y-93876761D01*
X80779380Y-93924380D01*
X80874619Y-93924380D01*
X80969857Y-93876761D01*
X81017476Y-93829142D01*
X81065095Y-93733904D01*
X81112714Y-93543428D01*
X81112714Y-93305333D01*
X81065095Y-93114857D01*
X81017476Y-93019619D01*
X80969857Y-92972000D01*
X80874619Y-92924380D01*
X80112714Y-93257714D02*
X80112714Y-94257714D01*
X80112714Y-93305333D02*
X80017476Y-93257714D01*
X79826999Y-93257714D01*
X79731761Y-93305333D01*
X79684142Y-93352952D01*
X79636523Y-93448190D01*
X79636523Y-93733904D01*
X79684142Y-93829142D01*
X79731761Y-93876761D01*
X79826999Y-93924380D01*
X80017476Y-93924380D01*
X80112714Y-93876761D01*
X81533666Y-91289142D02*
X81581285Y-91336761D01*
X81724142Y-91384380D01*
X81819380Y-91384380D01*
X81962238Y-91336761D01*
X82057476Y-91241523D01*
X82105095Y-91146285D01*
X82152714Y-90955809D01*
X82152714Y-90812952D01*
X82105095Y-90622476D01*
X82057476Y-90527238D01*
X81962238Y-90432000D01*
X81819380Y-90384380D01*
X81724142Y-90384380D01*
X81581285Y-90432000D01*
X81533666Y-90479619D01*
X81152714Y-90479619D02*
X81105095Y-90432000D01*
X81009857Y-90384380D01*
X80771761Y-90384380D01*
X80676523Y-90432000D01*
X80628904Y-90479619D01*
X80581285Y-90574857D01*
X80581285Y-90670095D01*
X80628904Y-90812952D01*
X81200333Y-91384380D01*
X80581285Y-91384380D01*
X106465714Y-101401714D02*
X107132380Y-101401714D01*
X106084761Y-101163619D02*
X106799047Y-100925523D01*
X106799047Y-101544571D01*
X106132380Y-101830285D02*
X106132380Y-102496952D01*
X107132380Y-102068380D01*
X106132380Y-103068380D02*
X106132380Y-103163619D01*
X106180000Y-103258857D01*
X106227619Y-103306476D01*
X106322857Y-103354095D01*
X106513333Y-103401714D01*
X106751428Y-103401714D01*
X106941904Y-103354095D01*
X107037142Y-103306476D01*
X107084761Y-103258857D01*
X107132380Y-103163619D01*
X107132380Y-103068380D01*
X107084761Y-102973142D01*
X107037142Y-102925523D01*
X106941904Y-102877904D01*
X106751428Y-102830285D01*
X106513333Y-102830285D01*
X106322857Y-102877904D01*
X106227619Y-102925523D01*
X106180000Y-102973142D01*
X106132380Y-103068380D01*
X106465714Y-103830285D02*
X107465714Y-103830285D01*
X106513333Y-103830285D02*
X106465714Y-103925523D01*
X106465714Y-104116000D01*
X106513333Y-104211238D01*
X106560952Y-104258857D01*
X106656190Y-104306476D01*
X106941904Y-104306476D01*
X107037142Y-104258857D01*
X107084761Y-104211238D01*
X107132380Y-104116000D01*
X107132380Y-103925523D01*
X107084761Y-103830285D01*
X104497142Y-102743333D02*
X104544761Y-102695714D01*
X104592380Y-102552857D01*
X104592380Y-102457619D01*
X104544761Y-102314761D01*
X104449523Y-102219523D01*
X104354285Y-102171904D01*
X104163809Y-102124285D01*
X104020952Y-102124285D01*
X103830476Y-102171904D01*
X103735238Y-102219523D01*
X103640000Y-102314761D01*
X103592380Y-102457619D01*
X103592380Y-102552857D01*
X103640000Y-102695714D01*
X103687619Y-102743333D01*
X103925714Y-103600476D02*
X104592380Y-103600476D01*
X103544761Y-103362380D02*
X104259047Y-103124285D01*
X104259047Y-103743333D01*
X199361903Y-88246380D02*
X199361903Y-87246380D01*
X199123808Y-87246380D01*
X198980951Y-87294000D01*
X198885713Y-87389238D01*
X198838094Y-87484476D01*
X198790475Y-87674952D01*
X198790475Y-87817809D01*
X198838094Y-88008285D01*
X198885713Y-88103523D01*
X198980951Y-88198761D01*
X199123808Y-88246380D01*
X199361903Y-88246380D01*
X200228094Y-90716380D02*
X200228094Y-89716380D01*
X199989999Y-89716380D01*
X199847141Y-89764000D01*
X199751903Y-89859238D01*
X199704284Y-89954476D01*
X199656665Y-90144952D01*
X199656665Y-90287809D01*
X199704284Y-90478285D01*
X199751903Y-90573523D01*
X199847141Y-90668761D01*
X199989999Y-90716380D01*
X200228094Y-90716380D01*
X198704284Y-90716380D02*
X199275713Y-90716380D01*
X198989999Y-90716380D02*
X198989999Y-89716380D01*
X199085237Y-89859238D01*
X199180475Y-89954476D01*
X199275713Y-90002095D01*
X194281903Y-92616380D02*
X194281903Y-91616380D01*
X193710475Y-92616380D02*
X194139046Y-92044952D01*
X193710475Y-91616380D02*
X194281903Y-92187809D01*
X199361903Y-86201380D02*
X199361903Y-85201380D01*
X199123808Y-85201380D01*
X198980951Y-85249000D01*
X198885713Y-85344238D01*
X198838094Y-85439476D01*
X198790475Y-85629952D01*
X198790475Y-85772809D01*
X198838094Y-85963285D01*
X198885713Y-86058523D01*
X198980951Y-86153761D01*
X199123808Y-86201380D01*
X199361903Y-86201380D01*
X204441903Y-81831380D02*
X204441903Y-80831380D01*
X203870475Y-81831380D02*
X204299046Y-81259952D01*
X203870475Y-80831380D02*
X204441903Y-81402809D01*
X199448094Y-83731380D02*
X199448094Y-82731380D01*
X199209999Y-82731380D01*
X199067141Y-82779000D01*
X198971903Y-82874238D01*
X198924284Y-82969476D01*
X198876665Y-83159952D01*
X198876665Y-83302809D01*
X198924284Y-83493285D01*
X198971903Y-83588523D01*
X199067141Y-83683761D01*
X199209999Y-83731380D01*
X199448094Y-83731380D01*
X198495713Y-82826619D02*
X198448094Y-82779000D01*
X198352856Y-82731380D01*
X198114760Y-82731380D01*
X198019522Y-82779000D01*
X197971903Y-82826619D01*
X197924284Y-82921857D01*
X197924284Y-83017095D01*
X197971903Y-83159952D01*
X198543332Y-83731380D01*
X197924284Y-83731380D01*
X199361903Y-74276380D02*
X199361903Y-73276380D01*
X199123808Y-73276380D01*
X198980951Y-73324000D01*
X198885713Y-73419238D01*
X198838094Y-73514476D01*
X198790475Y-73704952D01*
X198790475Y-73847809D01*
X198838094Y-74038285D01*
X198885713Y-74133523D01*
X198980951Y-74228761D01*
X199123808Y-74276380D01*
X199361903Y-74276380D01*
X200228094Y-76746380D02*
X200228094Y-75746380D01*
X199989999Y-75746380D01*
X199847141Y-75794000D01*
X199751903Y-75889238D01*
X199704284Y-75984476D01*
X199656665Y-76174952D01*
X199656665Y-76317809D01*
X199704284Y-76508285D01*
X199751903Y-76603523D01*
X199847141Y-76698761D01*
X199989999Y-76746380D01*
X200228094Y-76746380D01*
X199323332Y-75746380D02*
X198704284Y-75746380D01*
X199037618Y-76127333D01*
X198894760Y-76127333D01*
X198799522Y-76174952D01*
X198751903Y-76222571D01*
X198704284Y-76317809D01*
X198704284Y-76555904D01*
X198751903Y-76651142D01*
X198799522Y-76698761D01*
X198894760Y-76746380D01*
X199180475Y-76746380D01*
X199275713Y-76698761D01*
X199323332Y-76651142D01*
X194281903Y-78646380D02*
X194281903Y-77646380D01*
X193710475Y-78646380D02*
X194139046Y-78074952D01*
X193710475Y-77646380D02*
X194281903Y-78217809D01*
X199361903Y-72231380D02*
X199361903Y-71231380D01*
X199123808Y-71231380D01*
X198980951Y-71279000D01*
X198885713Y-71374238D01*
X198838094Y-71469476D01*
X198790475Y-71659952D01*
X198790475Y-71802809D01*
X198838094Y-71993285D01*
X198885713Y-72088523D01*
X198980951Y-72183761D01*
X199123808Y-72231380D01*
X199361903Y-72231380D01*
X204441903Y-67861380D02*
X204441903Y-66861380D01*
X203870475Y-67861380D02*
X204299046Y-67289952D01*
X203870475Y-66861380D02*
X204441903Y-67432809D01*
X199448094Y-69761380D02*
X199448094Y-68761380D01*
X199209999Y-68761380D01*
X199067141Y-68809000D01*
X198971903Y-68904238D01*
X198924284Y-68999476D01*
X198876665Y-69189952D01*
X198876665Y-69332809D01*
X198924284Y-69523285D01*
X198971903Y-69618523D01*
X199067141Y-69713761D01*
X199209999Y-69761380D01*
X199448094Y-69761380D01*
X198019522Y-69094714D02*
X198019522Y-69761380D01*
X198257618Y-68713761D02*
X198495713Y-69428047D01*
X197876665Y-69428047D01*
X70980380Y-115919285D02*
X70980380Y-115347857D01*
X70980380Y-115633571D02*
X69980380Y-115633571D01*
X70123238Y-115538333D01*
X70218476Y-115443095D01*
X70266095Y-115347857D01*
X70980380Y-116347857D02*
X69980380Y-116347857D01*
X70694666Y-116681190D01*
X69980380Y-117014523D01*
X70980380Y-117014523D01*
X73350380Y-116038333D02*
X72874190Y-115705000D01*
X73350380Y-115466904D02*
X72350380Y-115466904D01*
X72350380Y-115847857D01*
X72398000Y-115943095D01*
X72445619Y-115990714D01*
X72540857Y-116038333D01*
X72683714Y-116038333D01*
X72778952Y-115990714D01*
X72826571Y-115943095D01*
X72874190Y-115847857D01*
X72874190Y-115466904D01*
X73350380Y-116990714D02*
X73350380Y-116419285D01*
X73350380Y-116705000D02*
X72350380Y-116705000D01*
X72493238Y-116609761D01*
X72588476Y-116514523D01*
X72636095Y-116419285D01*
X64941380Y-102084285D02*
X64941380Y-101893809D01*
X64989000Y-101798571D01*
X65036619Y-101750952D01*
X65179476Y-101655714D01*
X65369952Y-101608095D01*
X65750904Y-101608095D01*
X65846142Y-101655714D01*
X65893761Y-101703333D01*
X65941380Y-101798571D01*
X65941380Y-101989047D01*
X65893761Y-102084285D01*
X65846142Y-102131904D01*
X65750904Y-102179523D01*
X65512809Y-102179523D01*
X65417571Y-102131904D01*
X65369952Y-102084285D01*
X65322333Y-101989047D01*
X65322333Y-101798571D01*
X65369952Y-101703333D01*
X65417571Y-101655714D01*
X65512809Y-101608095D01*
X65369952Y-102750952D02*
X65322333Y-102655714D01*
X65274714Y-102608095D01*
X65179476Y-102560476D01*
X65131857Y-102560476D01*
X65036619Y-102608095D01*
X64989000Y-102655714D01*
X64941380Y-102750952D01*
X64941380Y-102941428D01*
X64989000Y-103036666D01*
X65036619Y-103084285D01*
X65131857Y-103131904D01*
X65179476Y-103131904D01*
X65274714Y-103084285D01*
X65322333Y-103036666D01*
X65369952Y-102941428D01*
X65369952Y-102750952D01*
X65417571Y-102655714D01*
X65465190Y-102608095D01*
X65560428Y-102560476D01*
X65750904Y-102560476D01*
X65846142Y-102608095D01*
X65893761Y-102655714D01*
X65941380Y-102750952D01*
X65941380Y-102941428D01*
X65893761Y-103036666D01*
X65846142Y-103084285D01*
X65750904Y-103131904D01*
X65560428Y-103131904D01*
X65465190Y-103084285D01*
X65417571Y-103036666D01*
X65369952Y-102941428D01*
X65941380Y-103560476D02*
X64941380Y-103560476D01*
X65941380Y-104131904D02*
X65369952Y-103703333D01*
X64941380Y-104131904D02*
X65512809Y-103560476D01*
X63571380Y-102703333D02*
X63095190Y-102370000D01*
X63571380Y-102131904D02*
X62571380Y-102131904D01*
X62571380Y-102512857D01*
X62619000Y-102608095D01*
X62666619Y-102655714D01*
X62761857Y-102703333D01*
X62904714Y-102703333D01*
X62999952Y-102655714D01*
X63047571Y-102608095D01*
X63095190Y-102512857D01*
X63095190Y-102131904D01*
X62666619Y-103084285D02*
X62619000Y-103131904D01*
X62571380Y-103227142D01*
X62571380Y-103465238D01*
X62619000Y-103560476D01*
X62666619Y-103608095D01*
X62761857Y-103655714D01*
X62857095Y-103655714D01*
X62999952Y-103608095D01*
X63571380Y-103036666D01*
X63571380Y-103655714D01*
X83367619Y-101608095D02*
X83320000Y-101655714D01*
X83272380Y-101750952D01*
X83272380Y-101989047D01*
X83320000Y-102084285D01*
X83367619Y-102131904D01*
X83462857Y-102179523D01*
X83558095Y-102179523D01*
X83700952Y-102131904D01*
X84272380Y-101560476D01*
X84272380Y-102179523D01*
X84272380Y-102608095D02*
X83272380Y-102608095D01*
X84272380Y-103179523D02*
X83700952Y-102750952D01*
X83272380Y-103179523D02*
X83843809Y-102608095D01*
X83272380Y-103512857D02*
X83272380Y-104179523D01*
X84272380Y-103750952D01*
X81732380Y-102703333D02*
X81256190Y-102370000D01*
X81732380Y-102131904D02*
X80732380Y-102131904D01*
X80732380Y-102512857D01*
X80780000Y-102608095D01*
X80827619Y-102655714D01*
X80922857Y-102703333D01*
X81065714Y-102703333D01*
X81160952Y-102655714D01*
X81208571Y-102608095D01*
X81256190Y-102512857D01*
X81256190Y-102131904D01*
X80732380Y-103036666D02*
X80732380Y-103655714D01*
X81113333Y-103322380D01*
X81113333Y-103465238D01*
X81160952Y-103560476D01*
X81208571Y-103608095D01*
X81303809Y-103655714D01*
X81541904Y-103655714D01*
X81637142Y-103608095D01*
X81684761Y-103560476D01*
X81732380Y-103465238D01*
X81732380Y-103179523D01*
X81684761Y-103084285D01*
X81637142Y-103036666D01*
X50279380Y-90273333D02*
X50279380Y-89701904D01*
X50279380Y-89987619D02*
X49279380Y-89987619D01*
X49422238Y-89892380D01*
X49517476Y-89797142D01*
X49565095Y-89701904D01*
X49279380Y-90892380D02*
X49279380Y-90987619D01*
X49327000Y-91082857D01*
X49374619Y-91130476D01*
X49469857Y-91178095D01*
X49660333Y-91225714D01*
X49898428Y-91225714D01*
X50088904Y-91178095D01*
X50184142Y-91130476D01*
X50231761Y-91082857D01*
X50279380Y-90987619D01*
X50279380Y-90892380D01*
X50231761Y-90797142D01*
X50184142Y-90749523D01*
X50088904Y-90701904D01*
X49898428Y-90654285D01*
X49660333Y-90654285D01*
X49469857Y-90701904D01*
X49374619Y-90749523D01*
X49327000Y-90797142D01*
X49279380Y-90892380D01*
X49279380Y-91844761D02*
X49279380Y-91940000D01*
X49327000Y-92035238D01*
X49374619Y-92082857D01*
X49469857Y-92130476D01*
X49660333Y-92178095D01*
X49898428Y-92178095D01*
X50088904Y-92130476D01*
X50184142Y-92082857D01*
X50231761Y-92035238D01*
X50279380Y-91940000D01*
X50279380Y-91844761D01*
X50231761Y-91749523D01*
X50184142Y-91701904D01*
X50088904Y-91654285D01*
X49898428Y-91606666D01*
X49660333Y-91606666D01*
X49469857Y-91654285D01*
X49374619Y-91701904D01*
X49327000Y-91749523D01*
X49279380Y-91844761D01*
X50279380Y-92606666D02*
X49279380Y-92606666D01*
X50279380Y-93178095D02*
X49707952Y-92749523D01*
X49279380Y-93178095D02*
X49850809Y-92606666D01*
X52649380Y-91273333D02*
X52173190Y-90940000D01*
X52649380Y-90701904D02*
X51649380Y-90701904D01*
X51649380Y-91082857D01*
X51697000Y-91178095D01*
X51744619Y-91225714D01*
X51839857Y-91273333D01*
X51982714Y-91273333D01*
X52077952Y-91225714D01*
X52125571Y-91178095D01*
X52173190Y-91082857D01*
X52173190Y-90701904D01*
X51982714Y-92130476D02*
X52649380Y-92130476D01*
X51601761Y-91892380D02*
X52316047Y-91654285D01*
X52316047Y-92273333D01*
X98675714Y-101608095D02*
X99342380Y-101608095D01*
X98294761Y-101370000D02*
X99009047Y-101131904D01*
X99009047Y-101750952D01*
X98342380Y-102036666D02*
X98342380Y-102703333D01*
X99342380Y-102274761D01*
X98342380Y-103274761D02*
X98342380Y-103370000D01*
X98390000Y-103465238D01*
X98437619Y-103512857D01*
X98532857Y-103560476D01*
X98723333Y-103608095D01*
X98961428Y-103608095D01*
X99151904Y-103560476D01*
X99247142Y-103512857D01*
X99294761Y-103465238D01*
X99342380Y-103370000D01*
X99342380Y-103274761D01*
X99294761Y-103179523D01*
X99247142Y-103131904D01*
X99151904Y-103084285D01*
X98961428Y-103036666D01*
X98723333Y-103036666D01*
X98532857Y-103084285D01*
X98437619Y-103131904D01*
X98390000Y-103179523D01*
X98342380Y-103274761D01*
X99342380Y-104036666D02*
X98342380Y-104036666D01*
X99342380Y-104608095D02*
X98770952Y-104179523D01*
X98342380Y-104608095D02*
X98913809Y-104036666D01*
X96972380Y-102703333D02*
X96496190Y-102370000D01*
X96972380Y-102131904D02*
X95972380Y-102131904D01*
X95972380Y-102512857D01*
X96020000Y-102608095D01*
X96067619Y-102655714D01*
X96162857Y-102703333D01*
X96305714Y-102703333D01*
X96400952Y-102655714D01*
X96448571Y-102608095D01*
X96496190Y-102512857D01*
X96496190Y-102131904D01*
X95972380Y-103608095D02*
X95972380Y-103131904D01*
X96448571Y-103084285D01*
X96400952Y-103131904D01*
X96353333Y-103227142D01*
X96353333Y-103465238D01*
X96400952Y-103560476D01*
X96448571Y-103608095D01*
X96543809Y-103655714D01*
X96781904Y-103655714D01*
X96877142Y-103608095D01*
X96924761Y-103560476D01*
X96972380Y-103465238D01*
X96972380Y-103227142D01*
X96924761Y-103131904D01*
X96877142Y-103084285D01*
X61242380Y-62809523D02*
X61242380Y-62238095D01*
X61242380Y-62523809D02*
X60242380Y-62523809D01*
X60385238Y-62428571D01*
X60480476Y-62333333D01*
X60528095Y-62238095D01*
X60242380Y-63428571D02*
X60242380Y-63523809D01*
X60290000Y-63619047D01*
X60337619Y-63666666D01*
X60432857Y-63714285D01*
X60623333Y-63761904D01*
X60861428Y-63761904D01*
X61051904Y-63714285D01*
X61147142Y-63666666D01*
X61194761Y-63619047D01*
X61242380Y-63523809D01*
X61242380Y-63428571D01*
X61194761Y-63333333D01*
X61147142Y-63285714D01*
X61051904Y-63238095D01*
X60861428Y-63190476D01*
X60623333Y-63190476D01*
X60432857Y-63238095D01*
X60337619Y-63285714D01*
X60290000Y-63333333D01*
X60242380Y-63428571D01*
X61242380Y-64190476D02*
X60242380Y-64190476D01*
X61242380Y-64761904D02*
X60670952Y-64333333D01*
X60242380Y-64761904D02*
X60813809Y-64190476D01*
X58872380Y-63333333D02*
X58396190Y-63000000D01*
X58872380Y-62761904D02*
X57872380Y-62761904D01*
X57872380Y-63142857D01*
X57920000Y-63238095D01*
X57967619Y-63285714D01*
X58062857Y-63333333D01*
X58205714Y-63333333D01*
X58300952Y-63285714D01*
X58348571Y-63238095D01*
X58396190Y-63142857D01*
X58396190Y-62761904D01*
X57872380Y-64190476D02*
X57872380Y-64000000D01*
X57920000Y-63904761D01*
X57967619Y-63857142D01*
X58110476Y-63761904D01*
X58300952Y-63714285D01*
X58681904Y-63714285D01*
X58777142Y-63761904D01*
X58824761Y-63809523D01*
X58872380Y-63904761D01*
X58872380Y-64095238D01*
X58824761Y-64190476D01*
X58777142Y-64238095D01*
X58681904Y-64285714D01*
X58443809Y-64285714D01*
X58348571Y-64238095D01*
X58300952Y-64190476D01*
X58253333Y-64095238D01*
X58253333Y-63904761D01*
X58300952Y-63809523D01*
X58348571Y-63761904D01*
X58443809Y-63714285D01*
X70302380Y-62333333D02*
X70302380Y-61761904D01*
X70302380Y-62047619D02*
X69302380Y-62047619D01*
X69445238Y-61952380D01*
X69540476Y-61857142D01*
X69588095Y-61761904D01*
X69302380Y-62952380D02*
X69302380Y-63047619D01*
X69350000Y-63142857D01*
X69397619Y-63190476D01*
X69492857Y-63238095D01*
X69683333Y-63285714D01*
X69921428Y-63285714D01*
X70111904Y-63238095D01*
X70207142Y-63190476D01*
X70254761Y-63142857D01*
X70302380Y-63047619D01*
X70302380Y-62952380D01*
X70254761Y-62857142D01*
X70207142Y-62809523D01*
X70111904Y-62761904D01*
X69921428Y-62714285D01*
X69683333Y-62714285D01*
X69492857Y-62761904D01*
X69397619Y-62809523D01*
X69350000Y-62857142D01*
X69302380Y-62952380D01*
X69302380Y-63904761D02*
X69302380Y-64000000D01*
X69350000Y-64095238D01*
X69397619Y-64142857D01*
X69492857Y-64190476D01*
X69683333Y-64238095D01*
X69921428Y-64238095D01*
X70111904Y-64190476D01*
X70207142Y-64142857D01*
X70254761Y-64095238D01*
X70302380Y-64000000D01*
X70302380Y-63904761D01*
X70254761Y-63809523D01*
X70207142Y-63761904D01*
X70111904Y-63714285D01*
X69921428Y-63666666D01*
X69683333Y-63666666D01*
X69492857Y-63714285D01*
X69397619Y-63761904D01*
X69350000Y-63809523D01*
X69302380Y-63904761D01*
X70302380Y-64666666D02*
X69302380Y-64666666D01*
X70302380Y-65238095D02*
X69730952Y-64809523D01*
X69302380Y-65238095D02*
X69873809Y-64666666D01*
X67762380Y-63333333D02*
X67286190Y-63000000D01*
X67762380Y-62761904D02*
X66762380Y-62761904D01*
X66762380Y-63142857D01*
X66810000Y-63238095D01*
X66857619Y-63285714D01*
X66952857Y-63333333D01*
X67095714Y-63333333D01*
X67190952Y-63285714D01*
X67238571Y-63238095D01*
X67286190Y-63142857D01*
X67286190Y-62761904D01*
X66762380Y-63666666D02*
X66762380Y-64333333D01*
X67762380Y-63904761D01*
X95373714Y-81288095D02*
X96040380Y-81288095D01*
X94992761Y-81050000D02*
X95707047Y-80811904D01*
X95707047Y-81430952D01*
X95040380Y-81716666D02*
X95040380Y-82383333D01*
X96040380Y-81954761D01*
X95040380Y-82954761D02*
X95040380Y-83050000D01*
X95088000Y-83145238D01*
X95135619Y-83192857D01*
X95230857Y-83240476D01*
X95421333Y-83288095D01*
X95659428Y-83288095D01*
X95849904Y-83240476D01*
X95945142Y-83192857D01*
X95992761Y-83145238D01*
X96040380Y-83050000D01*
X96040380Y-82954761D01*
X95992761Y-82859523D01*
X95945142Y-82811904D01*
X95849904Y-82764285D01*
X95659428Y-82716666D01*
X95421333Y-82716666D01*
X95230857Y-82764285D01*
X95135619Y-82811904D01*
X95088000Y-82859523D01*
X95040380Y-82954761D01*
X96040380Y-83716666D02*
X95040380Y-83716666D01*
X96040380Y-84288095D02*
X95468952Y-83859523D01*
X95040380Y-84288095D02*
X95611809Y-83716666D01*
X93670380Y-82383333D02*
X93194190Y-82050000D01*
X93670380Y-81811904D02*
X92670380Y-81811904D01*
X92670380Y-82192857D01*
X92718000Y-82288095D01*
X92765619Y-82335714D01*
X92860857Y-82383333D01*
X93003714Y-82383333D01*
X93098952Y-82335714D01*
X93146571Y-82288095D01*
X93194190Y-82192857D01*
X93194190Y-81811904D01*
X93670380Y-82859523D02*
X93670380Y-83050000D01*
X93622761Y-83145238D01*
X93575142Y-83192857D01*
X93432285Y-83288095D01*
X93241809Y-83335714D01*
X92860857Y-83335714D01*
X92765619Y-83288095D01*
X92718000Y-83240476D01*
X92670380Y-83145238D01*
X92670380Y-82954761D01*
X92718000Y-82859523D01*
X92765619Y-82811904D01*
X92860857Y-82764285D01*
X93098952Y-82764285D01*
X93194190Y-82811904D01*
X93241809Y-82859523D01*
X93289428Y-82954761D01*
X93289428Y-83145238D01*
X93241809Y-83240476D01*
X93194190Y-83288095D01*
X93098952Y-83335714D01*
X98675714Y-62238095D02*
X99342380Y-62238095D01*
X98294761Y-62000000D02*
X99009047Y-61761904D01*
X99009047Y-62380952D01*
X98342380Y-62666666D02*
X98342380Y-63333333D01*
X99342380Y-62904761D01*
X98342380Y-63904761D02*
X98342380Y-64000000D01*
X98390000Y-64095238D01*
X98437619Y-64142857D01*
X98532857Y-64190476D01*
X98723333Y-64238095D01*
X98961428Y-64238095D01*
X99151904Y-64190476D01*
X99247142Y-64142857D01*
X99294761Y-64095238D01*
X99342380Y-64000000D01*
X99342380Y-63904761D01*
X99294761Y-63809523D01*
X99247142Y-63761904D01*
X99151904Y-63714285D01*
X98961428Y-63666666D01*
X98723333Y-63666666D01*
X98532857Y-63714285D01*
X98437619Y-63761904D01*
X98390000Y-63809523D01*
X98342380Y-63904761D01*
X99342380Y-64666666D02*
X98342380Y-64666666D01*
X99342380Y-65238095D02*
X98770952Y-64809523D01*
X98342380Y-65238095D02*
X98913809Y-64666666D01*
X96972380Y-62857142D02*
X96496190Y-62523809D01*
X96972380Y-62285714D02*
X95972380Y-62285714D01*
X95972380Y-62666666D01*
X96020000Y-62761904D01*
X96067619Y-62809523D01*
X96162857Y-62857142D01*
X96305714Y-62857142D01*
X96400952Y-62809523D01*
X96448571Y-62761904D01*
X96496190Y-62666666D01*
X96496190Y-62285714D01*
X96972380Y-63809523D02*
X96972380Y-63238095D01*
X96972380Y-63523809D02*
X95972380Y-63523809D01*
X96115238Y-63428571D01*
X96210476Y-63333333D01*
X96258095Y-63238095D01*
X95972380Y-64428571D02*
X95972380Y-64523809D01*
X96020000Y-64619047D01*
X96067619Y-64666666D01*
X96162857Y-64714285D01*
X96353333Y-64761904D01*
X96591428Y-64761904D01*
X96781904Y-64714285D01*
X96877142Y-64666666D01*
X96924761Y-64619047D01*
X96972380Y-64523809D01*
X96972380Y-64428571D01*
X96924761Y-64333333D01*
X96877142Y-64285714D01*
X96781904Y-64238095D01*
X96591428Y-64190476D01*
X96353333Y-64190476D01*
X96162857Y-64238095D01*
X96067619Y-64285714D01*
X96020000Y-64333333D01*
X95972380Y-64428571D01*
X129377952Y-79224380D02*
X129330333Y-79129142D01*
X129282714Y-79081523D01*
X129187476Y-79033904D01*
X129139857Y-79033904D01*
X129044619Y-79081523D01*
X128997000Y-79129142D01*
X128949380Y-79224380D01*
X128949380Y-79414857D01*
X128997000Y-79510095D01*
X129044619Y-79557714D01*
X129139857Y-79605333D01*
X129187476Y-79605333D01*
X129282714Y-79557714D01*
X129330333Y-79510095D01*
X129377952Y-79414857D01*
X129377952Y-79224380D01*
X129425571Y-79129142D01*
X129473190Y-79081523D01*
X129568428Y-79033904D01*
X129758904Y-79033904D01*
X129854142Y-79081523D01*
X129901761Y-79129142D01*
X129949380Y-79224380D01*
X129949380Y-79414857D01*
X129901761Y-79510095D01*
X129854142Y-79557714D01*
X129758904Y-79605333D01*
X129568428Y-79605333D01*
X129473190Y-79557714D01*
X129425571Y-79510095D01*
X129377952Y-79414857D01*
X129044619Y-79986285D02*
X128997000Y-80033904D01*
X128949380Y-80129142D01*
X128949380Y-80367238D01*
X128997000Y-80462476D01*
X129044619Y-80510095D01*
X129139857Y-80557714D01*
X129235095Y-80557714D01*
X129377952Y-80510095D01*
X129949380Y-79938666D01*
X129949380Y-80557714D01*
X128949380Y-81176761D02*
X128949380Y-81272000D01*
X128997000Y-81367238D01*
X129044619Y-81414857D01*
X129139857Y-81462476D01*
X129330333Y-81510095D01*
X129568428Y-81510095D01*
X129758904Y-81462476D01*
X129854142Y-81414857D01*
X129901761Y-81367238D01*
X129949380Y-81272000D01*
X129949380Y-81176761D01*
X129901761Y-81081523D01*
X129854142Y-81033904D01*
X129758904Y-80986285D01*
X129568428Y-80938666D01*
X129330333Y-80938666D01*
X129139857Y-80986285D01*
X129044619Y-81033904D01*
X128997000Y-81081523D01*
X128949380Y-81176761D01*
X129949380Y-82510095D02*
X129473190Y-82176761D01*
X129949380Y-81938666D02*
X128949380Y-81938666D01*
X128949380Y-82319619D01*
X128997000Y-82414857D01*
X129044619Y-82462476D01*
X129139857Y-82510095D01*
X129282714Y-82510095D01*
X129377952Y-82462476D01*
X129425571Y-82414857D01*
X129473190Y-82319619D01*
X129473190Y-81938666D01*
X127579380Y-80129142D02*
X127103190Y-79795809D01*
X127579380Y-79557714D02*
X126579380Y-79557714D01*
X126579380Y-79938666D01*
X126627000Y-80033904D01*
X126674619Y-80081523D01*
X126769857Y-80129142D01*
X126912714Y-80129142D01*
X127007952Y-80081523D01*
X127055571Y-80033904D01*
X127103190Y-79938666D01*
X127103190Y-79557714D01*
X127579380Y-81081523D02*
X127579380Y-80510095D01*
X127579380Y-80795809D02*
X126579380Y-80795809D01*
X126722238Y-80700571D01*
X126817476Y-80605333D01*
X126865095Y-80510095D01*
X126912714Y-81938666D02*
X127579380Y-81938666D01*
X126531761Y-81700571D02*
X127246047Y-81462476D01*
X127246047Y-82081523D01*
X132321380Y-83669333D02*
X132321380Y-83097904D01*
X132321380Y-83383619D02*
X131321380Y-83383619D01*
X131464238Y-83288380D01*
X131559476Y-83193142D01*
X131607095Y-83097904D01*
X131321380Y-84288380D02*
X131321380Y-84383619D01*
X131369000Y-84478857D01*
X131416619Y-84526476D01*
X131511857Y-84574095D01*
X131702333Y-84621714D01*
X131940428Y-84621714D01*
X132130904Y-84574095D01*
X132226142Y-84526476D01*
X132273761Y-84478857D01*
X132321380Y-84383619D01*
X132321380Y-84288380D01*
X132273761Y-84193142D01*
X132226142Y-84145523D01*
X132130904Y-84097904D01*
X131940428Y-84050285D01*
X131702333Y-84050285D01*
X131511857Y-84097904D01*
X131416619Y-84145523D01*
X131369000Y-84193142D01*
X131321380Y-84288380D01*
X131321380Y-85240761D02*
X131321380Y-85336000D01*
X131369000Y-85431238D01*
X131416619Y-85478857D01*
X131511857Y-85526476D01*
X131702333Y-85574095D01*
X131940428Y-85574095D01*
X132130904Y-85526476D01*
X132226142Y-85478857D01*
X132273761Y-85431238D01*
X132321380Y-85336000D01*
X132321380Y-85240761D01*
X132273761Y-85145523D01*
X132226142Y-85097904D01*
X132130904Y-85050285D01*
X131940428Y-85002666D01*
X131702333Y-85002666D01*
X131511857Y-85050285D01*
X131416619Y-85097904D01*
X131369000Y-85145523D01*
X131321380Y-85240761D01*
X132321380Y-86002666D02*
X131321380Y-86002666D01*
X132321380Y-86574095D02*
X131749952Y-86145523D01*
X131321380Y-86574095D02*
X131892809Y-86002666D01*
X134691380Y-84193142D02*
X134215190Y-83859809D01*
X134691380Y-83621714D02*
X133691380Y-83621714D01*
X133691380Y-84002666D01*
X133739000Y-84097904D01*
X133786619Y-84145523D01*
X133881857Y-84193142D01*
X134024714Y-84193142D01*
X134119952Y-84145523D01*
X134167571Y-84097904D01*
X134215190Y-84002666D01*
X134215190Y-83621714D01*
X134691380Y-85145523D02*
X134691380Y-84574095D01*
X134691380Y-84859809D02*
X133691380Y-84859809D01*
X133834238Y-84764571D01*
X133929476Y-84669333D01*
X133977095Y-84574095D01*
X133691380Y-86050285D02*
X133691380Y-85574095D01*
X134167571Y-85526476D01*
X134119952Y-85574095D01*
X134072333Y-85669333D01*
X134072333Y-85907428D01*
X134119952Y-86002666D01*
X134167571Y-86050285D01*
X134262809Y-86097904D01*
X134500904Y-86097904D01*
X134596142Y-86050285D01*
X134643761Y-86002666D01*
X134691380Y-85907428D01*
X134691380Y-85669333D01*
X134643761Y-85574095D01*
X134596142Y-85526476D01*
X196583380Y-103830523D02*
X196583380Y-103259095D01*
X196583380Y-103544809D02*
X195583380Y-103544809D01*
X195726238Y-103449571D01*
X195821476Y-103354333D01*
X195869095Y-103259095D01*
X195583380Y-104449571D02*
X195583380Y-104544809D01*
X195631000Y-104640047D01*
X195678619Y-104687666D01*
X195773857Y-104735285D01*
X195964333Y-104782904D01*
X196202428Y-104782904D01*
X196392904Y-104735285D01*
X196488142Y-104687666D01*
X196535761Y-104640047D01*
X196583380Y-104544809D01*
X196583380Y-104449571D01*
X196535761Y-104354333D01*
X196488142Y-104306714D01*
X196392904Y-104259095D01*
X196202428Y-104211476D01*
X195964333Y-104211476D01*
X195773857Y-104259095D01*
X195678619Y-104306714D01*
X195631000Y-104354333D01*
X195583380Y-104449571D01*
X196583380Y-105211476D02*
X195583380Y-105211476D01*
X196583380Y-105782904D02*
X196011952Y-105354333D01*
X195583380Y-105782904D02*
X196154809Y-105211476D01*
X198953380Y-103878142D02*
X198477190Y-103544809D01*
X198953380Y-103306714D02*
X197953380Y-103306714D01*
X197953380Y-103687666D01*
X198001000Y-103782904D01*
X198048619Y-103830523D01*
X198143857Y-103878142D01*
X198286714Y-103878142D01*
X198381952Y-103830523D01*
X198429571Y-103782904D01*
X198477190Y-103687666D01*
X198477190Y-103306714D01*
X198953380Y-104830523D02*
X198953380Y-104259095D01*
X198953380Y-104544809D02*
X197953380Y-104544809D01*
X198096238Y-104449571D01*
X198191476Y-104354333D01*
X198239095Y-104259095D01*
X197953380Y-105687666D02*
X197953380Y-105497190D01*
X198001000Y-105401952D01*
X198048619Y-105354333D01*
X198191476Y-105259095D01*
X198381952Y-105211476D01*
X198762904Y-105211476D01*
X198858142Y-105259095D01*
X198905761Y-105306714D01*
X198953380Y-105401952D01*
X198953380Y-105592428D01*
X198905761Y-105687666D01*
X198858142Y-105735285D01*
X198762904Y-105782904D01*
X198524809Y-105782904D01*
X198429571Y-105735285D01*
X198381952Y-105687666D01*
X198334333Y-105592428D01*
X198334333Y-105401952D01*
X198381952Y-105306714D01*
X198429571Y-105259095D01*
X198524809Y-105211476D01*
X109502380Y-62333333D02*
X109502380Y-61761904D01*
X109502380Y-62047619D02*
X108502380Y-62047619D01*
X108645238Y-61952380D01*
X108740476Y-61857142D01*
X108788095Y-61761904D01*
X108502380Y-62952380D02*
X108502380Y-63047619D01*
X108550000Y-63142857D01*
X108597619Y-63190476D01*
X108692857Y-63238095D01*
X108883333Y-63285714D01*
X109121428Y-63285714D01*
X109311904Y-63238095D01*
X109407142Y-63190476D01*
X109454761Y-63142857D01*
X109502380Y-63047619D01*
X109502380Y-62952380D01*
X109454761Y-62857142D01*
X109407142Y-62809523D01*
X109311904Y-62761904D01*
X109121428Y-62714285D01*
X108883333Y-62714285D01*
X108692857Y-62761904D01*
X108597619Y-62809523D01*
X108550000Y-62857142D01*
X108502380Y-62952380D01*
X108502380Y-63904761D02*
X108502380Y-64000000D01*
X108550000Y-64095238D01*
X108597619Y-64142857D01*
X108692857Y-64190476D01*
X108883333Y-64238095D01*
X109121428Y-64238095D01*
X109311904Y-64190476D01*
X109407142Y-64142857D01*
X109454761Y-64095238D01*
X109502380Y-64000000D01*
X109502380Y-63904761D01*
X109454761Y-63809523D01*
X109407142Y-63761904D01*
X109311904Y-63714285D01*
X109121428Y-63666666D01*
X108883333Y-63666666D01*
X108692857Y-63714285D01*
X108597619Y-63761904D01*
X108550000Y-63809523D01*
X108502380Y-63904761D01*
X109502380Y-64666666D02*
X108502380Y-64666666D01*
X109502380Y-65238095D02*
X108930952Y-64809523D01*
X108502380Y-65238095D02*
X109073809Y-64666666D01*
X107132380Y-62857142D02*
X106656190Y-62523809D01*
X107132380Y-62285714D02*
X106132380Y-62285714D01*
X106132380Y-62666666D01*
X106180000Y-62761904D01*
X106227619Y-62809523D01*
X106322857Y-62857142D01*
X106465714Y-62857142D01*
X106560952Y-62809523D01*
X106608571Y-62761904D01*
X106656190Y-62666666D01*
X106656190Y-62285714D01*
X107132380Y-63809523D02*
X107132380Y-63238095D01*
X107132380Y-63523809D02*
X106132380Y-63523809D01*
X106275238Y-63428571D01*
X106370476Y-63333333D01*
X106418095Y-63238095D01*
X106132380Y-64142857D02*
X106132380Y-64809523D01*
X107132380Y-64380952D01*
X158372380Y-107910476D02*
X158372380Y-108529523D01*
X158753333Y-108196190D01*
X158753333Y-108339047D01*
X158800952Y-108434285D01*
X158848571Y-108481904D01*
X158943809Y-108529523D01*
X159181904Y-108529523D01*
X159277142Y-108481904D01*
X159324761Y-108434285D01*
X159372380Y-108339047D01*
X159372380Y-108053333D01*
X159324761Y-107958095D01*
X159277142Y-107910476D01*
X158372380Y-108862857D02*
X158372380Y-109481904D01*
X158753333Y-109148571D01*
X158753333Y-109291428D01*
X158800952Y-109386666D01*
X158848571Y-109434285D01*
X158943809Y-109481904D01*
X159181904Y-109481904D01*
X159277142Y-109434285D01*
X159324761Y-109386666D01*
X159372380Y-109291428D01*
X159372380Y-109005714D01*
X159324761Y-108910476D01*
X159277142Y-108862857D01*
X159372380Y-109910476D02*
X158372380Y-109910476D01*
X159372380Y-110481904D02*
X158800952Y-110053333D01*
X158372380Y-110481904D02*
X158943809Y-109910476D01*
X161742380Y-108577142D02*
X161266190Y-108243809D01*
X161742380Y-108005714D02*
X160742380Y-108005714D01*
X160742380Y-108386666D01*
X160790000Y-108481904D01*
X160837619Y-108529523D01*
X160932857Y-108577142D01*
X161075714Y-108577142D01*
X161170952Y-108529523D01*
X161218571Y-108481904D01*
X161266190Y-108386666D01*
X161266190Y-108005714D01*
X161742380Y-109529523D02*
X161742380Y-108958095D01*
X161742380Y-109243809D02*
X160742380Y-109243809D01*
X160885238Y-109148571D01*
X160980476Y-109053333D01*
X161028095Y-108958095D01*
X161170952Y-110100952D02*
X161123333Y-110005714D01*
X161075714Y-109958095D01*
X160980476Y-109910476D01*
X160932857Y-109910476D01*
X160837619Y-109958095D01*
X160790000Y-110005714D01*
X160742380Y-110100952D01*
X160742380Y-110291428D01*
X160790000Y-110386666D01*
X160837619Y-110434285D01*
X160932857Y-110481904D01*
X160980476Y-110481904D01*
X161075714Y-110434285D01*
X161123333Y-110386666D01*
X161170952Y-110291428D01*
X161170952Y-110100952D01*
X161218571Y-110005714D01*
X161266190Y-109958095D01*
X161361428Y-109910476D01*
X161551904Y-109910476D01*
X161647142Y-109958095D01*
X161694761Y-110005714D01*
X161742380Y-110100952D01*
X161742380Y-110291428D01*
X161694761Y-110386666D01*
X161647142Y-110434285D01*
X161551904Y-110481904D01*
X161361428Y-110481904D01*
X161266190Y-110434285D01*
X161218571Y-110386666D01*
X161170952Y-110291428D01*
X186210380Y-108656523D02*
X186210380Y-108085095D01*
X186210380Y-108370809D02*
X185210380Y-108370809D01*
X185353238Y-108275571D01*
X185448476Y-108180333D01*
X185496095Y-108085095D01*
X185210380Y-109275571D02*
X185210380Y-109370809D01*
X185258000Y-109466047D01*
X185305619Y-109513666D01*
X185400857Y-109561285D01*
X185591333Y-109608904D01*
X185829428Y-109608904D01*
X186019904Y-109561285D01*
X186115142Y-109513666D01*
X186162761Y-109466047D01*
X186210380Y-109370809D01*
X186210380Y-109275571D01*
X186162761Y-109180333D01*
X186115142Y-109132714D01*
X186019904Y-109085095D01*
X185829428Y-109037476D01*
X185591333Y-109037476D01*
X185400857Y-109085095D01*
X185305619Y-109132714D01*
X185258000Y-109180333D01*
X185210380Y-109275571D01*
X186210380Y-110037476D02*
X185210380Y-110037476D01*
X186210380Y-110608904D02*
X185638952Y-110180333D01*
X185210380Y-110608904D02*
X185781809Y-110037476D01*
X183840380Y-108704142D02*
X183364190Y-108370809D01*
X183840380Y-108132714D02*
X182840380Y-108132714D01*
X182840380Y-108513666D01*
X182888000Y-108608904D01*
X182935619Y-108656523D01*
X183030857Y-108704142D01*
X183173714Y-108704142D01*
X183268952Y-108656523D01*
X183316571Y-108608904D01*
X183364190Y-108513666D01*
X183364190Y-108132714D01*
X183840380Y-109656523D02*
X183840380Y-109085095D01*
X183840380Y-109370809D02*
X182840380Y-109370809D01*
X182983238Y-109275571D01*
X183078476Y-109180333D01*
X183126095Y-109085095D01*
X183840380Y-110132714D02*
X183840380Y-110323190D01*
X183792761Y-110418428D01*
X183745142Y-110466047D01*
X183602285Y-110561285D01*
X183411809Y-110608904D01*
X183030857Y-110608904D01*
X182935619Y-110561285D01*
X182888000Y-110513666D01*
X182840380Y-110418428D01*
X182840380Y-110227952D01*
X182888000Y-110132714D01*
X182935619Y-110085095D01*
X183030857Y-110037476D01*
X183268952Y-110037476D01*
X183364190Y-110085095D01*
X183411809Y-110132714D01*
X183459428Y-110227952D01*
X183459428Y-110418428D01*
X183411809Y-110513666D01*
X183364190Y-110561285D01*
X183268952Y-110608904D01*
X182459285Y-102009380D02*
X183030714Y-102009380D01*
X182745000Y-102009380D02*
X182745000Y-101009380D01*
X182840238Y-101152238D01*
X182935476Y-101247476D01*
X183030714Y-101295095D01*
X182030714Y-102009380D02*
X182030714Y-101009380D01*
X181459285Y-102009380D02*
X181887857Y-101437952D01*
X181459285Y-101009380D02*
X182030714Y-101580809D01*
X182887857Y-99639380D02*
X183221190Y-99163190D01*
X183459285Y-99639380D02*
X183459285Y-98639380D01*
X183078333Y-98639380D01*
X182983095Y-98687000D01*
X182935476Y-98734619D01*
X182887857Y-98829857D01*
X182887857Y-98972714D01*
X182935476Y-99067952D01*
X182983095Y-99115571D01*
X183078333Y-99163190D01*
X183459285Y-99163190D01*
X182506904Y-98734619D02*
X182459285Y-98687000D01*
X182364047Y-98639380D01*
X182125952Y-98639380D01*
X182030714Y-98687000D01*
X181983095Y-98734619D01*
X181935476Y-98829857D01*
X181935476Y-98925095D01*
X181983095Y-99067952D01*
X182554523Y-99639380D01*
X181935476Y-99639380D01*
X180983095Y-99639380D02*
X181554523Y-99639380D01*
X181268809Y-99639380D02*
X181268809Y-98639380D01*
X181364047Y-98782238D01*
X181459285Y-98877476D01*
X181554523Y-98925095D01*
X153947666Y-65011380D02*
X154519095Y-65011380D01*
X154233380Y-65011380D02*
X154233380Y-64011380D01*
X154328619Y-64154238D01*
X154423857Y-64249476D01*
X154519095Y-64297095D01*
X153328619Y-64011380D02*
X153233380Y-64011380D01*
X153138142Y-64059000D01*
X153090523Y-64106619D01*
X153042904Y-64201857D01*
X152995285Y-64392333D01*
X152995285Y-64630428D01*
X153042904Y-64820904D01*
X153090523Y-64916142D01*
X153138142Y-64963761D01*
X153233380Y-65011380D01*
X153328619Y-65011380D01*
X153423857Y-64963761D01*
X153471476Y-64916142D01*
X153519095Y-64820904D01*
X153566714Y-64630428D01*
X153566714Y-64392333D01*
X153519095Y-64201857D01*
X153471476Y-64106619D01*
X153423857Y-64059000D01*
X153328619Y-64011380D01*
X152376238Y-64011380D02*
X152281000Y-64011380D01*
X152185761Y-64059000D01*
X152138142Y-64106619D01*
X152090523Y-64201857D01*
X152042904Y-64392333D01*
X152042904Y-64630428D01*
X152090523Y-64820904D01*
X152138142Y-64916142D01*
X152185761Y-64963761D01*
X152281000Y-65011380D01*
X152376238Y-65011380D01*
X152471476Y-64963761D01*
X152519095Y-64916142D01*
X152566714Y-64820904D01*
X152614333Y-64630428D01*
X152614333Y-64392333D01*
X152566714Y-64201857D01*
X152519095Y-64106619D01*
X152471476Y-64059000D01*
X152376238Y-64011380D01*
X151042904Y-65011380D02*
X151376238Y-64535190D01*
X151614333Y-65011380D02*
X151614333Y-64011380D01*
X151233380Y-64011380D01*
X151138142Y-64059000D01*
X151090523Y-64106619D01*
X151042904Y-64201857D01*
X151042904Y-64344714D01*
X151090523Y-64439952D01*
X151138142Y-64487571D01*
X151233380Y-64535190D01*
X151614333Y-64535190D01*
X153423857Y-67381380D02*
X153757190Y-66905190D01*
X153995285Y-67381380D02*
X153995285Y-66381380D01*
X153614333Y-66381380D01*
X153519095Y-66429000D01*
X153471476Y-66476619D01*
X153423857Y-66571857D01*
X153423857Y-66714714D01*
X153471476Y-66809952D01*
X153519095Y-66857571D01*
X153614333Y-66905190D01*
X153995285Y-66905190D01*
X153042904Y-66476619D02*
X152995285Y-66429000D01*
X152900047Y-66381380D01*
X152661952Y-66381380D01*
X152566714Y-66429000D01*
X152519095Y-66476619D01*
X152471476Y-66571857D01*
X152471476Y-66667095D01*
X152519095Y-66809952D01*
X153090523Y-67381380D01*
X152471476Y-67381380D01*
X152090523Y-66476619D02*
X152042904Y-66429000D01*
X151947666Y-66381380D01*
X151709571Y-66381380D01*
X151614333Y-66429000D01*
X151566714Y-66476619D01*
X151519095Y-66571857D01*
X151519095Y-66667095D01*
X151566714Y-66809952D01*
X152138142Y-67381380D01*
X151519095Y-67381380D01*
X169314666Y-65011380D02*
X169886095Y-65011380D01*
X169600380Y-65011380D02*
X169600380Y-64011380D01*
X169695619Y-64154238D01*
X169790857Y-64249476D01*
X169886095Y-64297095D01*
X168695619Y-64011380D02*
X168600380Y-64011380D01*
X168505142Y-64059000D01*
X168457523Y-64106619D01*
X168409904Y-64201857D01*
X168362285Y-64392333D01*
X168362285Y-64630428D01*
X168409904Y-64820904D01*
X168457523Y-64916142D01*
X168505142Y-64963761D01*
X168600380Y-65011380D01*
X168695619Y-65011380D01*
X168790857Y-64963761D01*
X168838476Y-64916142D01*
X168886095Y-64820904D01*
X168933714Y-64630428D01*
X168933714Y-64392333D01*
X168886095Y-64201857D01*
X168838476Y-64106619D01*
X168790857Y-64059000D01*
X168695619Y-64011380D01*
X167743238Y-64011380D02*
X167648000Y-64011380D01*
X167552761Y-64059000D01*
X167505142Y-64106619D01*
X167457523Y-64201857D01*
X167409904Y-64392333D01*
X167409904Y-64630428D01*
X167457523Y-64820904D01*
X167505142Y-64916142D01*
X167552761Y-64963761D01*
X167648000Y-65011380D01*
X167743238Y-65011380D01*
X167838476Y-64963761D01*
X167886095Y-64916142D01*
X167933714Y-64820904D01*
X167981333Y-64630428D01*
X167981333Y-64392333D01*
X167933714Y-64201857D01*
X167886095Y-64106619D01*
X167838476Y-64059000D01*
X167743238Y-64011380D01*
X166409904Y-65011380D02*
X166743238Y-64535190D01*
X166981333Y-65011380D02*
X166981333Y-64011380D01*
X166600380Y-64011380D01*
X166505142Y-64059000D01*
X166457523Y-64106619D01*
X166409904Y-64201857D01*
X166409904Y-64344714D01*
X166457523Y-64439952D01*
X166505142Y-64487571D01*
X166600380Y-64535190D01*
X166981333Y-64535190D01*
X168790857Y-67381380D02*
X169124190Y-66905190D01*
X169362285Y-67381380D02*
X169362285Y-66381380D01*
X168981333Y-66381380D01*
X168886095Y-66429000D01*
X168838476Y-66476619D01*
X168790857Y-66571857D01*
X168790857Y-66714714D01*
X168838476Y-66809952D01*
X168886095Y-66857571D01*
X168981333Y-66905190D01*
X169362285Y-66905190D01*
X168409904Y-66476619D02*
X168362285Y-66429000D01*
X168267047Y-66381380D01*
X168028952Y-66381380D01*
X167933714Y-66429000D01*
X167886095Y-66476619D01*
X167838476Y-66571857D01*
X167838476Y-66667095D01*
X167886095Y-66809952D01*
X168457523Y-67381380D01*
X167838476Y-67381380D01*
X167505142Y-66381380D02*
X166886095Y-66381380D01*
X167219428Y-66762333D01*
X167076571Y-66762333D01*
X166981333Y-66809952D01*
X166933714Y-66857571D01*
X166886095Y-66952809D01*
X166886095Y-67190904D01*
X166933714Y-67286142D01*
X166981333Y-67333761D01*
X167076571Y-67381380D01*
X167362285Y-67381380D01*
X167457523Y-67333761D01*
X167505142Y-67286142D01*
X209692952Y-65170666D02*
X209216761Y-65170666D01*
X209788190Y-65456380D02*
X209454857Y-64456380D01*
X209121523Y-65456380D01*
X208216761Y-65361142D02*
X208264380Y-65408761D01*
X208407238Y-65456380D01*
X208502476Y-65456380D01*
X208645333Y-65408761D01*
X208740571Y-65313523D01*
X208788190Y-65218285D01*
X208835809Y-65027809D01*
X208835809Y-64884952D01*
X208788190Y-64694476D01*
X208740571Y-64599238D01*
X208645333Y-64504000D01*
X208502476Y-64456380D01*
X208407238Y-64456380D01*
X208264380Y-64504000D01*
X208216761Y-64551619D01*
X208026285Y-65551619D02*
X207264380Y-65551619D01*
X207026285Y-65456380D02*
X207026285Y-64456380D01*
X206550095Y-65456380D02*
X206550095Y-64456380D01*
X205978666Y-65456380D01*
X205978666Y-64456380D01*
X209026285Y-62860666D02*
X208550095Y-62860666D01*
X209121523Y-63146380D02*
X208788190Y-62146380D01*
X208454857Y-63146380D01*
X207550095Y-63051142D02*
X207597714Y-63098761D01*
X207740571Y-63146380D01*
X207835809Y-63146380D01*
X207978666Y-63098761D01*
X208073904Y-63003523D01*
X208121523Y-62908285D01*
X208169142Y-62717809D01*
X208169142Y-62574952D01*
X208121523Y-62384476D01*
X208073904Y-62289238D01*
X207978666Y-62194000D01*
X207835809Y-62146380D01*
X207740571Y-62146380D01*
X207597714Y-62194000D01*
X207550095Y-62241619D01*
X206597714Y-63146380D02*
X207169142Y-63146380D01*
X206883428Y-63146380D02*
X206883428Y-62146380D01*
X206978666Y-62289238D01*
X207073904Y-62384476D01*
X207169142Y-62432095D01*
X168180000Y-64932571D02*
X168513333Y-64932571D01*
X168513333Y-65456380D02*
X168513333Y-64456380D01*
X168037142Y-64456380D01*
X167656190Y-65456380D02*
X167656190Y-64456380D01*
X166703809Y-65456380D02*
X167180000Y-65456380D01*
X167180000Y-64456380D01*
X168656190Y-62622571D02*
X168989523Y-62622571D01*
X168989523Y-63146380D02*
X168989523Y-62146380D01*
X168513333Y-62146380D01*
X168132380Y-63146380D02*
X168132380Y-62146380D01*
X167180000Y-63146380D02*
X167656190Y-63146380D01*
X167656190Y-62146380D01*
X166322857Y-63146380D02*
X166894285Y-63146380D01*
X166608571Y-63146380D02*
X166608571Y-62146380D01*
X166703809Y-62289238D01*
X166799047Y-62384476D01*
X166894285Y-62432095D01*
X192023904Y-103215000D02*
X192119142Y-103167380D01*
X192262000Y-103167380D01*
X192404857Y-103215000D01*
X192500095Y-103310238D01*
X192547714Y-103405476D01*
X192595333Y-103595952D01*
X192595333Y-103738809D01*
X192547714Y-103929285D01*
X192500095Y-104024523D01*
X192404857Y-104119761D01*
X192262000Y-104167380D01*
X192166761Y-104167380D01*
X192023904Y-104119761D01*
X191976285Y-104072142D01*
X191976285Y-103738809D01*
X192166761Y-103738809D01*
X191547714Y-104167380D02*
X191547714Y-103167380D01*
X190976285Y-104167380D01*
X190976285Y-103167380D01*
X190500095Y-104167380D02*
X190500095Y-103167380D01*
X190262000Y-103167380D01*
X190119142Y-103215000D01*
X190023904Y-103310238D01*
X189976285Y-103405476D01*
X189928666Y-103595952D01*
X189928666Y-103738809D01*
X189976285Y-103929285D01*
X190023904Y-104024523D01*
X190119142Y-104119761D01*
X190262000Y-104167380D01*
X190500095Y-104167380D01*
X191762000Y-107283095D02*
X191809619Y-107378333D01*
X191809619Y-107521190D01*
X191762000Y-107664047D01*
X191666761Y-107759285D01*
X191571523Y-107806904D01*
X191381047Y-107854523D01*
X191238190Y-107854523D01*
X191047714Y-107806904D01*
X190952476Y-107759285D01*
X190857238Y-107664047D01*
X190809619Y-107521190D01*
X190809619Y-107425952D01*
X190857238Y-107283095D01*
X190904857Y-107235476D01*
X191238190Y-107235476D01*
X191238190Y-107425952D01*
X190809619Y-106806904D02*
X191809619Y-106806904D01*
X190809619Y-106235476D01*
X191809619Y-106235476D01*
X190809619Y-105759285D02*
X191809619Y-105759285D01*
X191809619Y-105521190D01*
X191762000Y-105378333D01*
X191666761Y-105283095D01*
X191571523Y-105235476D01*
X191381047Y-105187857D01*
X191238190Y-105187857D01*
X191047714Y-105235476D01*
X190952476Y-105283095D01*
X190857238Y-105378333D01*
X190809619Y-105521190D01*
X190809619Y-105759285D01*
X190809619Y-104235476D02*
X190809619Y-104806904D01*
X190809619Y-104521190D02*
X191809619Y-104521190D01*
X191666761Y-104616428D01*
X191571523Y-104711666D01*
X191523904Y-104806904D01*
X112521904Y-55590000D02*
X112617142Y-55542380D01*
X112760000Y-55542380D01*
X112902857Y-55590000D01*
X112998095Y-55685238D01*
X113045714Y-55780476D01*
X113093333Y-55970952D01*
X113093333Y-56113809D01*
X113045714Y-56304285D01*
X112998095Y-56399523D01*
X112902857Y-56494761D01*
X112760000Y-56542380D01*
X112664761Y-56542380D01*
X112521904Y-56494761D01*
X112474285Y-56447142D01*
X112474285Y-56113809D01*
X112664761Y-56113809D01*
X112045714Y-56542380D02*
X112045714Y-55542380D01*
X111474285Y-56542380D01*
X111474285Y-55542380D01*
X110998095Y-56542380D02*
X110998095Y-55542380D01*
X110760000Y-55542380D01*
X110617142Y-55590000D01*
X110521904Y-55685238D01*
X110474285Y-55780476D01*
X110426666Y-55970952D01*
X110426666Y-56113809D01*
X110474285Y-56304285D01*
X110521904Y-56399523D01*
X110617142Y-56494761D01*
X110760000Y-56542380D01*
X110998095Y-56542380D01*
X112260000Y-59658095D02*
X112307619Y-59753333D01*
X112307619Y-59896190D01*
X112260000Y-60039047D01*
X112164761Y-60134285D01*
X112069523Y-60181904D01*
X111879047Y-60229523D01*
X111736190Y-60229523D01*
X111545714Y-60181904D01*
X111450476Y-60134285D01*
X111355238Y-60039047D01*
X111307619Y-59896190D01*
X111307619Y-59800952D01*
X111355238Y-59658095D01*
X111402857Y-59610476D01*
X111736190Y-59610476D01*
X111736190Y-59800952D01*
X111307619Y-59181904D02*
X112307619Y-59181904D01*
X111307619Y-58610476D01*
X112307619Y-58610476D01*
X111307619Y-58134285D02*
X112307619Y-58134285D01*
X112307619Y-57896190D01*
X112260000Y-57753333D01*
X112164761Y-57658095D01*
X112069523Y-57610476D01*
X111879047Y-57562857D01*
X111736190Y-57562857D01*
X111545714Y-57610476D01*
X111450476Y-57658095D01*
X111355238Y-57753333D01*
X111307619Y-57896190D01*
X111307619Y-58134285D01*
X112307619Y-56658095D02*
X112307619Y-57134285D01*
X111831428Y-57181904D01*
X111879047Y-57134285D01*
X111926666Y-57039047D01*
X111926666Y-56800952D01*
X111879047Y-56705714D01*
X111831428Y-56658095D01*
X111736190Y-56610476D01*
X111498095Y-56610476D01*
X111402857Y-56658095D01*
X111355238Y-56705714D01*
X111307619Y-56800952D01*
X111307619Y-57039047D01*
X111355238Y-57134285D01*
X111402857Y-57181904D01*
X82422904Y-82514000D02*
X82518142Y-82466380D01*
X82661000Y-82466380D01*
X82803857Y-82514000D01*
X82899095Y-82609238D01*
X82946714Y-82704476D01*
X82994333Y-82894952D01*
X82994333Y-83037809D01*
X82946714Y-83228285D01*
X82899095Y-83323523D01*
X82803857Y-83418761D01*
X82661000Y-83466380D01*
X82565761Y-83466380D01*
X82422904Y-83418761D01*
X82375285Y-83371142D01*
X82375285Y-83037809D01*
X82565761Y-83037809D01*
X81946714Y-83466380D02*
X81946714Y-82466380D01*
X81375285Y-83466380D01*
X81375285Y-82466380D01*
X80899095Y-83466380D02*
X80899095Y-82466380D01*
X80661000Y-82466380D01*
X80518142Y-82514000D01*
X80422904Y-82609238D01*
X80375285Y-82704476D01*
X80327666Y-82894952D01*
X80327666Y-83037809D01*
X80375285Y-83228285D01*
X80422904Y-83323523D01*
X80518142Y-83418761D01*
X80661000Y-83466380D01*
X80899095Y-83466380D01*
X82161000Y-86582095D02*
X82208619Y-86677333D01*
X82208619Y-86820190D01*
X82161000Y-86963047D01*
X82065761Y-87058285D01*
X81970523Y-87105904D01*
X81780047Y-87153523D01*
X81637190Y-87153523D01*
X81446714Y-87105904D01*
X81351476Y-87058285D01*
X81256238Y-86963047D01*
X81208619Y-86820190D01*
X81208619Y-86724952D01*
X81256238Y-86582095D01*
X81303857Y-86534476D01*
X81637190Y-86534476D01*
X81637190Y-86724952D01*
X81208619Y-86105904D02*
X82208619Y-86105904D01*
X81208619Y-85534476D01*
X82208619Y-85534476D01*
X81208619Y-85058285D02*
X82208619Y-85058285D01*
X82208619Y-84820190D01*
X82161000Y-84677333D01*
X82065761Y-84582095D01*
X81970523Y-84534476D01*
X81780047Y-84486857D01*
X81637190Y-84486857D01*
X81446714Y-84534476D01*
X81351476Y-84582095D01*
X81256238Y-84677333D01*
X81208619Y-84820190D01*
X81208619Y-85058285D01*
X82208619Y-83629714D02*
X82208619Y-83820190D01*
X82161000Y-83915428D01*
X82113380Y-83963047D01*
X81970523Y-84058285D01*
X81780047Y-84105904D01*
X81399095Y-84105904D01*
X81303857Y-84058285D01*
X81256238Y-84010666D01*
X81208619Y-83915428D01*
X81208619Y-83724952D01*
X81256238Y-83629714D01*
X81303857Y-83582095D01*
X81399095Y-83534476D01*
X81637190Y-83534476D01*
X81732428Y-83582095D01*
X81780047Y-83629714D01*
X81827666Y-83724952D01*
X81827666Y-83915428D01*
X81780047Y-84010666D01*
X81732428Y-84058285D01*
X81637190Y-84105904D01*
X180339904Y-78323000D02*
X180435142Y-78275380D01*
X180578000Y-78275380D01*
X180720857Y-78323000D01*
X180816095Y-78418238D01*
X180863714Y-78513476D01*
X180911333Y-78703952D01*
X180911333Y-78846809D01*
X180863714Y-79037285D01*
X180816095Y-79132523D01*
X180720857Y-79227761D01*
X180578000Y-79275380D01*
X180482761Y-79275380D01*
X180339904Y-79227761D01*
X180292285Y-79180142D01*
X180292285Y-78846809D01*
X180482761Y-78846809D01*
X179863714Y-79275380D02*
X179863714Y-78275380D01*
X179292285Y-79275380D01*
X179292285Y-78275380D01*
X178816095Y-79275380D02*
X178816095Y-78275380D01*
X178578000Y-78275380D01*
X178435142Y-78323000D01*
X178339904Y-78418238D01*
X178292285Y-78513476D01*
X178244666Y-78703952D01*
X178244666Y-78846809D01*
X178292285Y-79037285D01*
X178339904Y-79132523D01*
X178435142Y-79227761D01*
X178578000Y-79275380D01*
X178816095Y-79275380D01*
X180078000Y-82391095D02*
X180125619Y-82486333D01*
X180125619Y-82629190D01*
X180078000Y-82772047D01*
X179982761Y-82867285D01*
X179887523Y-82914904D01*
X179697047Y-82962523D01*
X179554190Y-82962523D01*
X179363714Y-82914904D01*
X179268476Y-82867285D01*
X179173238Y-82772047D01*
X179125619Y-82629190D01*
X179125619Y-82533952D01*
X179173238Y-82391095D01*
X179220857Y-82343476D01*
X179554190Y-82343476D01*
X179554190Y-82533952D01*
X179125619Y-81914904D02*
X180125619Y-81914904D01*
X179125619Y-81343476D01*
X180125619Y-81343476D01*
X179125619Y-80867285D02*
X180125619Y-80867285D01*
X180125619Y-80629190D01*
X180078000Y-80486333D01*
X179982761Y-80391095D01*
X179887523Y-80343476D01*
X179697047Y-80295857D01*
X179554190Y-80295857D01*
X179363714Y-80343476D01*
X179268476Y-80391095D01*
X179173238Y-80486333D01*
X179125619Y-80629190D01*
X179125619Y-80867285D01*
X180125619Y-79962523D02*
X180125619Y-79295857D01*
X179125619Y-79724428D01*
X125880666Y-88633380D02*
X126452095Y-88633380D01*
X126166380Y-88633380D02*
X126166380Y-87633380D01*
X126261619Y-87776238D01*
X126356857Y-87871476D01*
X126452095Y-87919095D01*
X125261619Y-87633380D02*
X125166380Y-87633380D01*
X125071142Y-87681000D01*
X125023523Y-87728619D01*
X124975904Y-87823857D01*
X124928285Y-88014333D01*
X124928285Y-88252428D01*
X124975904Y-88442904D01*
X125023523Y-88538142D01*
X125071142Y-88585761D01*
X125166380Y-88633380D01*
X125261619Y-88633380D01*
X125356857Y-88585761D01*
X125404476Y-88538142D01*
X125452095Y-88442904D01*
X125499714Y-88252428D01*
X125499714Y-88014333D01*
X125452095Y-87823857D01*
X125404476Y-87728619D01*
X125356857Y-87681000D01*
X125261619Y-87633380D01*
X124309238Y-87633380D02*
X124214000Y-87633380D01*
X124118761Y-87681000D01*
X124071142Y-87728619D01*
X124023523Y-87823857D01*
X123975904Y-88014333D01*
X123975904Y-88252428D01*
X124023523Y-88442904D01*
X124071142Y-88538142D01*
X124118761Y-88585761D01*
X124214000Y-88633380D01*
X124309238Y-88633380D01*
X124404476Y-88585761D01*
X124452095Y-88538142D01*
X124499714Y-88442904D01*
X124547333Y-88252428D01*
X124547333Y-88014333D01*
X124499714Y-87823857D01*
X124452095Y-87728619D01*
X124404476Y-87681000D01*
X124309238Y-87633380D01*
X122975904Y-88633380D02*
X123309238Y-88157190D01*
X123547333Y-88633380D02*
X123547333Y-87633380D01*
X123166380Y-87633380D01*
X123071142Y-87681000D01*
X123023523Y-87728619D01*
X122975904Y-87823857D01*
X122975904Y-87966714D01*
X123023523Y-88061952D01*
X123071142Y-88109571D01*
X123166380Y-88157190D01*
X123547333Y-88157190D01*
X125356857Y-91003380D02*
X125690190Y-90527190D01*
X125928285Y-91003380D02*
X125928285Y-90003380D01*
X125547333Y-90003380D01*
X125452095Y-90051000D01*
X125404476Y-90098619D01*
X125356857Y-90193857D01*
X125356857Y-90336714D01*
X125404476Y-90431952D01*
X125452095Y-90479571D01*
X125547333Y-90527190D01*
X125928285Y-90527190D01*
X124975904Y-90098619D02*
X124928285Y-90051000D01*
X124833047Y-90003380D01*
X124594952Y-90003380D01*
X124499714Y-90051000D01*
X124452095Y-90098619D01*
X124404476Y-90193857D01*
X124404476Y-90289095D01*
X124452095Y-90431952D01*
X125023523Y-91003380D01*
X124404476Y-91003380D01*
X123547333Y-90336714D02*
X123547333Y-91003380D01*
X123785428Y-89955761D02*
X124023523Y-90670047D01*
X123404476Y-90670047D01*
X126007666Y-96126380D02*
X126579095Y-96126380D01*
X126293380Y-96126380D02*
X126293380Y-95126380D01*
X126388619Y-95269238D01*
X126483857Y-95364476D01*
X126579095Y-95412095D01*
X125388619Y-95126380D02*
X125293380Y-95126380D01*
X125198142Y-95174000D01*
X125150523Y-95221619D01*
X125102904Y-95316857D01*
X125055285Y-95507333D01*
X125055285Y-95745428D01*
X125102904Y-95935904D01*
X125150523Y-96031142D01*
X125198142Y-96078761D01*
X125293380Y-96126380D01*
X125388619Y-96126380D01*
X125483857Y-96078761D01*
X125531476Y-96031142D01*
X125579095Y-95935904D01*
X125626714Y-95745428D01*
X125626714Y-95507333D01*
X125579095Y-95316857D01*
X125531476Y-95221619D01*
X125483857Y-95174000D01*
X125388619Y-95126380D01*
X124436238Y-95126380D02*
X124341000Y-95126380D01*
X124245761Y-95174000D01*
X124198142Y-95221619D01*
X124150523Y-95316857D01*
X124102904Y-95507333D01*
X124102904Y-95745428D01*
X124150523Y-95935904D01*
X124198142Y-96031142D01*
X124245761Y-96078761D01*
X124341000Y-96126380D01*
X124436238Y-96126380D01*
X124531476Y-96078761D01*
X124579095Y-96031142D01*
X124626714Y-95935904D01*
X124674333Y-95745428D01*
X124674333Y-95507333D01*
X124626714Y-95316857D01*
X124579095Y-95221619D01*
X124531476Y-95174000D01*
X124436238Y-95126380D01*
X123102904Y-96126380D02*
X123436238Y-95650190D01*
X123674333Y-96126380D02*
X123674333Y-95126380D01*
X123293380Y-95126380D01*
X123198142Y-95174000D01*
X123150523Y-95221619D01*
X123102904Y-95316857D01*
X123102904Y-95459714D01*
X123150523Y-95554952D01*
X123198142Y-95602571D01*
X123293380Y-95650190D01*
X123674333Y-95650190D01*
X125483857Y-98496380D02*
X125817190Y-98020190D01*
X126055285Y-98496380D02*
X126055285Y-97496380D01*
X125674333Y-97496380D01*
X125579095Y-97544000D01*
X125531476Y-97591619D01*
X125483857Y-97686857D01*
X125483857Y-97829714D01*
X125531476Y-97924952D01*
X125579095Y-97972571D01*
X125674333Y-98020190D01*
X126055285Y-98020190D01*
X125102904Y-97591619D02*
X125055285Y-97544000D01*
X124960047Y-97496380D01*
X124721952Y-97496380D01*
X124626714Y-97544000D01*
X124579095Y-97591619D01*
X124531476Y-97686857D01*
X124531476Y-97782095D01*
X124579095Y-97924952D01*
X125150523Y-98496380D01*
X124531476Y-98496380D01*
X123626714Y-97496380D02*
X124102904Y-97496380D01*
X124150523Y-97972571D01*
X124102904Y-97924952D01*
X124007666Y-97877333D01*
X123769571Y-97877333D01*
X123674333Y-97924952D01*
X123626714Y-97972571D01*
X123579095Y-98067809D01*
X123579095Y-98305904D01*
X123626714Y-98401142D01*
X123674333Y-98448761D01*
X123769571Y-98496380D01*
X124007666Y-98496380D01*
X124102904Y-98448761D01*
X124150523Y-98401142D01*
X211316666Y-127214285D02*
X211316666Y-127690476D01*
X211602380Y-127119047D02*
X210602380Y-127452380D01*
X211602380Y-127785714D01*
X211602380Y-128642857D02*
X211602380Y-128071428D01*
X211602380Y-128357142D02*
X210602380Y-128357142D01*
X210745238Y-128261904D01*
X210840476Y-128166666D01*
X210888095Y-128071428D01*
X211602380Y-129071428D02*
X210602380Y-129071428D01*
X211316666Y-129404761D01*
X210602380Y-129738095D01*
X211602380Y-129738095D01*
X201828571Y-124464285D02*
X201876190Y-124607142D01*
X201923809Y-124654761D01*
X202019047Y-124702380D01*
X202161904Y-124702380D01*
X202257142Y-124654761D01*
X202304761Y-124607142D01*
X202352380Y-124511904D01*
X202352380Y-124130952D01*
X201352380Y-124130952D01*
X201352380Y-124464285D01*
X201400000Y-124559523D01*
X201447619Y-124607142D01*
X201542857Y-124654761D01*
X201638095Y-124654761D01*
X201733333Y-124607142D01*
X201780952Y-124559523D01*
X201828571Y-124464285D01*
X201828571Y-124130952D01*
X202066666Y-125083333D02*
X202066666Y-125559523D01*
X202352380Y-124988095D02*
X201352380Y-125321428D01*
X202352380Y-125654761D01*
X202304761Y-125940476D02*
X202352380Y-126083333D01*
X202352380Y-126321428D01*
X202304761Y-126416666D01*
X202257142Y-126464285D01*
X202161904Y-126511904D01*
X202066666Y-126511904D01*
X201971428Y-126464285D01*
X201923809Y-126416666D01*
X201876190Y-126321428D01*
X201828571Y-126130952D01*
X201780952Y-126035714D01*
X201733333Y-125988095D01*
X201638095Y-125940476D01*
X201542857Y-125940476D01*
X201447619Y-125988095D01*
X201400000Y-126035714D01*
X201352380Y-126130952D01*
X201352380Y-126369047D01*
X201400000Y-126511904D01*
X202304761Y-126892857D02*
X202352380Y-127035714D01*
X202352380Y-127273809D01*
X202304761Y-127369047D01*
X202257142Y-127416666D01*
X202161904Y-127464285D01*
X202066666Y-127464285D01*
X201971428Y-127416666D01*
X201923809Y-127369047D01*
X201876190Y-127273809D01*
X201828571Y-127083333D01*
X201780952Y-126988095D01*
X201733333Y-126940476D01*
X201638095Y-126892857D01*
X201542857Y-126892857D01*
X201447619Y-126940476D01*
X201400000Y-126988095D01*
X201352380Y-127083333D01*
X201352380Y-127321428D01*
X201400000Y-127464285D01*
X202352380Y-128416666D02*
X202352380Y-127845238D01*
X202352380Y-128130952D02*
X201352380Y-128130952D01*
X201495238Y-128035714D01*
X201590476Y-127940476D01*
X201638095Y-127845238D01*
X127352666Y-127214285D02*
X127352666Y-127690476D01*
X127638380Y-127119047D02*
X126638380Y-127452380D01*
X127638380Y-127785714D01*
X127638380Y-128642857D02*
X127638380Y-128071428D01*
X127638380Y-128357142D02*
X126638380Y-128357142D01*
X126781238Y-128261904D01*
X126876476Y-128166666D01*
X126924095Y-128071428D01*
X127638380Y-129071428D02*
X126638380Y-129071428D01*
X127352666Y-129404761D01*
X126638380Y-129738095D01*
X127638380Y-129738095D01*
X117436000Y-124845238D02*
X117388380Y-124750000D01*
X117388380Y-124607142D01*
X117436000Y-124464285D01*
X117531238Y-124369047D01*
X117626476Y-124321428D01*
X117816952Y-124273809D01*
X117959809Y-124273809D01*
X118150285Y-124321428D01*
X118245523Y-124369047D01*
X118340761Y-124464285D01*
X118388380Y-124607142D01*
X118388380Y-124702380D01*
X118340761Y-124845238D01*
X118293142Y-124892857D01*
X117959809Y-124892857D01*
X117959809Y-124702380D01*
X118102666Y-125273809D02*
X118102666Y-125750000D01*
X118388380Y-125178571D02*
X117388380Y-125511904D01*
X118388380Y-125845238D01*
X118388380Y-126178571D02*
X117388380Y-126178571D01*
X118388380Y-126654761D02*
X117388380Y-126654761D01*
X118388380Y-127226190D01*
X117388380Y-127226190D01*
X118388380Y-128226190D02*
X118388380Y-127654761D01*
X118388380Y-127940476D02*
X117388380Y-127940476D01*
X117531238Y-127845238D01*
X117626476Y-127750000D01*
X117674095Y-127654761D01*
X239316666Y-127214285D02*
X239316666Y-127690476D01*
X239602380Y-127119047D02*
X238602380Y-127452380D01*
X239602380Y-127785714D01*
X239602380Y-128642857D02*
X239602380Y-128071428D01*
X239602380Y-128357142D02*
X238602380Y-128357142D01*
X238745238Y-128261904D01*
X238840476Y-128166666D01*
X238888095Y-128071428D01*
X239602380Y-129071428D02*
X238602380Y-129071428D01*
X239316666Y-129404761D01*
X238602380Y-129738095D01*
X239602380Y-129738095D01*
X230352380Y-124345238D02*
X230352380Y-123869047D01*
X229352380Y-123869047D01*
X229828571Y-124678571D02*
X229828571Y-125011904D01*
X230352380Y-125154761D02*
X230352380Y-124678571D01*
X229352380Y-124678571D01*
X229352380Y-125154761D01*
X229352380Y-125440476D02*
X230352380Y-125773809D01*
X229352380Y-126107142D01*
X229828571Y-126440476D02*
X229828571Y-126773809D01*
X230352380Y-126916666D02*
X230352380Y-126440476D01*
X229352380Y-126440476D01*
X229352380Y-126916666D01*
X230352380Y-127821428D02*
X230352380Y-127345238D01*
X229352380Y-127345238D01*
X230352380Y-128678571D02*
X230352380Y-128107142D01*
X230352380Y-128392857D02*
X229352380Y-128392857D01*
X229495238Y-128297619D01*
X229590476Y-128202380D01*
X229638095Y-128107142D01*
X183078571Y-126889047D02*
X183126190Y-127031904D01*
X183173809Y-127079523D01*
X183269047Y-127127142D01*
X183411904Y-127127142D01*
X183507142Y-127079523D01*
X183554761Y-127031904D01*
X183602380Y-126936666D01*
X183602380Y-126555714D01*
X182602380Y-126555714D01*
X182602380Y-126889047D01*
X182650000Y-126984285D01*
X182697619Y-127031904D01*
X182792857Y-127079523D01*
X182888095Y-127079523D01*
X182983333Y-127031904D01*
X183030952Y-126984285D01*
X183078571Y-126889047D01*
X183078571Y-126555714D01*
X182697619Y-127508095D02*
X182650000Y-127555714D01*
X182602380Y-127650952D01*
X182602380Y-127889047D01*
X182650000Y-127984285D01*
X182697619Y-128031904D01*
X182792857Y-128079523D01*
X182888095Y-128079523D01*
X183030952Y-128031904D01*
X183602380Y-127460476D01*
X183602380Y-128079523D01*
X182602380Y-128984285D02*
X182602380Y-128508095D01*
X183078571Y-128460476D01*
X183030952Y-128508095D01*
X182983333Y-128603333D01*
X182983333Y-128841428D01*
X183030952Y-128936666D01*
X183078571Y-128984285D01*
X183173809Y-129031904D01*
X183411904Y-129031904D01*
X183507142Y-128984285D01*
X183554761Y-128936666D01*
X183602380Y-128841428D01*
X183602380Y-128603333D01*
X183554761Y-128508095D01*
X183507142Y-128460476D01*
X183602380Y-129460476D02*
X182602380Y-129460476D01*
X183602380Y-130031904D02*
X183030952Y-129603333D01*
X182602380Y-130031904D02*
X183173809Y-129460476D01*
X174352380Y-124702380D02*
X173352380Y-124702380D01*
X174066666Y-125035714D01*
X173352380Y-125369047D01*
X174352380Y-125369047D01*
X174352380Y-125845238D02*
X173352380Y-125845238D01*
X174352380Y-126321428D02*
X173352380Y-126321428D01*
X173352380Y-126559523D01*
X173400000Y-126702380D01*
X173495238Y-126797619D01*
X173590476Y-126845238D01*
X173780952Y-126892857D01*
X173923809Y-126892857D01*
X174114285Y-126845238D01*
X174209523Y-126797619D01*
X174304761Y-126702380D01*
X174352380Y-126559523D01*
X174352380Y-126321428D01*
X174352380Y-127845238D02*
X174352380Y-127273809D01*
X174352380Y-127559523D02*
X173352380Y-127559523D01*
X173495238Y-127464285D01*
X173590476Y-127369047D01*
X173638095Y-127273809D01*
X155076571Y-125904857D02*
X155124190Y-126047714D01*
X155171809Y-126095333D01*
X155267047Y-126142952D01*
X155409904Y-126142952D01*
X155505142Y-126095333D01*
X155552761Y-126047714D01*
X155600380Y-125952476D01*
X155600380Y-125571523D01*
X154600380Y-125571523D01*
X154600380Y-125904857D01*
X154648000Y-126000095D01*
X154695619Y-126047714D01*
X154790857Y-126095333D01*
X154886095Y-126095333D01*
X154981333Y-126047714D01*
X155028952Y-126000095D01*
X155076571Y-125904857D01*
X155076571Y-125571523D01*
X154695619Y-126523904D02*
X154648000Y-126571523D01*
X154600380Y-126666761D01*
X154600380Y-126904857D01*
X154648000Y-127000095D01*
X154695619Y-127047714D01*
X154790857Y-127095333D01*
X154886095Y-127095333D01*
X155028952Y-127047714D01*
X155600380Y-126476285D01*
X155600380Y-127095333D01*
X154600380Y-128000095D02*
X154600380Y-127523904D01*
X155076571Y-127476285D01*
X155028952Y-127523904D01*
X154981333Y-127619142D01*
X154981333Y-127857238D01*
X155028952Y-127952476D01*
X155076571Y-128000095D01*
X155171809Y-128047714D01*
X155409904Y-128047714D01*
X155505142Y-128000095D01*
X155552761Y-127952476D01*
X155600380Y-127857238D01*
X155600380Y-127619142D01*
X155552761Y-127523904D01*
X155505142Y-127476285D01*
X154600380Y-128666761D02*
X154600380Y-128762000D01*
X154648000Y-128857238D01*
X154695619Y-128904857D01*
X154790857Y-128952476D01*
X154981333Y-129000095D01*
X155219428Y-129000095D01*
X155409904Y-128952476D01*
X155505142Y-128904857D01*
X155552761Y-128857238D01*
X155600380Y-128762000D01*
X155600380Y-128666761D01*
X155552761Y-128571523D01*
X155505142Y-128523904D01*
X155409904Y-128476285D01*
X155219428Y-128428666D01*
X154981333Y-128428666D01*
X154790857Y-128476285D01*
X154695619Y-128523904D01*
X154648000Y-128571523D01*
X154600380Y-128666761D01*
X155600380Y-129428666D02*
X154600380Y-129428666D01*
X155600380Y-130000095D02*
X155028952Y-129571523D01*
X154600380Y-130000095D02*
X155171809Y-129428666D01*
X145352380Y-123178571D02*
X145352380Y-123750000D01*
X146352380Y-123464285D02*
X145352380Y-123464285D01*
X146352380Y-124654761D02*
X145876190Y-124321428D01*
X146352380Y-124083333D02*
X145352380Y-124083333D01*
X145352380Y-124464285D01*
X145400000Y-124559523D01*
X145447619Y-124607142D01*
X145542857Y-124654761D01*
X145685714Y-124654761D01*
X145780952Y-124607142D01*
X145828571Y-124559523D01*
X145876190Y-124464285D01*
X145876190Y-124083333D01*
X145828571Y-125083333D02*
X145828571Y-125416666D01*
X146352380Y-125559523D02*
X146352380Y-125083333D01*
X145352380Y-125083333D01*
X145352380Y-125559523D01*
X145828571Y-126321428D02*
X145876190Y-126464285D01*
X145923809Y-126511904D01*
X146019047Y-126559523D01*
X146161904Y-126559523D01*
X146257142Y-126511904D01*
X146304761Y-126464285D01*
X146352380Y-126369047D01*
X146352380Y-125988095D01*
X145352380Y-125988095D01*
X145352380Y-126321428D01*
X145400000Y-126416666D01*
X145447619Y-126464285D01*
X145542857Y-126511904D01*
X145638095Y-126511904D01*
X145733333Y-126464285D01*
X145780952Y-126416666D01*
X145828571Y-126321428D01*
X145828571Y-125988095D01*
X146352380Y-127464285D02*
X146352380Y-126988095D01*
X145352380Y-126988095D01*
X145828571Y-127797619D02*
X145828571Y-128130952D01*
X146352380Y-128273809D02*
X146352380Y-127797619D01*
X145352380Y-127797619D01*
X145352380Y-128273809D01*
X146352380Y-129226190D02*
X146352380Y-128654761D01*
X146352380Y-128940476D02*
X145352380Y-128940476D01*
X145495238Y-128845238D01*
X145590476Y-128750000D01*
X145638095Y-128654761D01*
X189480619Y-69762904D02*
X189433000Y-69810523D01*
X189385380Y-69905761D01*
X189385380Y-70143857D01*
X189433000Y-70239095D01*
X189480619Y-70286714D01*
X189575857Y-70334333D01*
X189671095Y-70334333D01*
X189813952Y-70286714D01*
X190385380Y-69715285D01*
X190385380Y-70334333D01*
X189480619Y-70715285D02*
X189433000Y-70762904D01*
X189385380Y-70858142D01*
X189385380Y-71096238D01*
X189433000Y-71191476D01*
X189480619Y-71239095D01*
X189575857Y-71286714D01*
X189671095Y-71286714D01*
X189813952Y-71239095D01*
X190385380Y-70667666D01*
X190385380Y-71286714D01*
X189385380Y-71905761D02*
X189385380Y-72001000D01*
X189433000Y-72096238D01*
X189480619Y-72143857D01*
X189575857Y-72191476D01*
X189766333Y-72239095D01*
X190004428Y-72239095D01*
X190194904Y-72191476D01*
X190290142Y-72143857D01*
X190337761Y-72096238D01*
X190385380Y-72001000D01*
X190385380Y-71905761D01*
X190337761Y-71810523D01*
X190290142Y-71762904D01*
X190194904Y-71715285D01*
X190004428Y-71667666D01*
X189766333Y-71667666D01*
X189575857Y-71715285D01*
X189480619Y-71762904D01*
X189433000Y-71810523D01*
X189385380Y-71905761D01*
X190385380Y-73239095D02*
X189909190Y-72905761D01*
X190385380Y-72667666D02*
X189385380Y-72667666D01*
X189385380Y-73048619D01*
X189433000Y-73143857D01*
X189480619Y-73191476D01*
X189575857Y-73239095D01*
X189718714Y-73239095D01*
X189813952Y-73191476D01*
X189861571Y-73143857D01*
X189909190Y-73048619D01*
X189909190Y-72667666D01*
X187015380Y-69786714D02*
X186539190Y-69453380D01*
X187015380Y-69215285D02*
X186015380Y-69215285D01*
X186015380Y-69596238D01*
X186063000Y-69691476D01*
X186110619Y-69739095D01*
X186205857Y-69786714D01*
X186348714Y-69786714D01*
X186443952Y-69739095D01*
X186491571Y-69691476D01*
X186539190Y-69596238D01*
X186539190Y-69215285D01*
X187015380Y-70215285D02*
X186015380Y-70215285D01*
X186396333Y-70215285D02*
X186348714Y-70310523D01*
X186348714Y-70501000D01*
X186396333Y-70596238D01*
X186443952Y-70643857D01*
X186539190Y-70691476D01*
X186824904Y-70691476D01*
X186920142Y-70643857D01*
X186967761Y-70596238D01*
X187015380Y-70501000D01*
X187015380Y-70310523D01*
X186967761Y-70215285D01*
X187015380Y-71120047D02*
X186348714Y-71120047D01*
X186015380Y-71120047D02*
X186063000Y-71072428D01*
X186110619Y-71120047D01*
X186063000Y-71167666D01*
X186015380Y-71120047D01*
X186110619Y-71120047D01*
X187015380Y-72024809D02*
X186491571Y-72024809D01*
X186396333Y-71977190D01*
X186348714Y-71881952D01*
X186348714Y-71691476D01*
X186396333Y-71596238D01*
X186967761Y-72024809D02*
X187015380Y-71929571D01*
X187015380Y-71691476D01*
X186967761Y-71596238D01*
X186872523Y-71548619D01*
X186777285Y-71548619D01*
X186682047Y-71596238D01*
X186634428Y-71691476D01*
X186634428Y-71929571D01*
X186586809Y-72024809D01*
X186967761Y-72453380D02*
X187015380Y-72548619D01*
X187015380Y-72739095D01*
X186967761Y-72834333D01*
X186872523Y-72881952D01*
X186824904Y-72881952D01*
X186729666Y-72834333D01*
X186682047Y-72739095D01*
X186682047Y-72596238D01*
X186634428Y-72501000D01*
X186539190Y-72453380D01*
X186491571Y-72453380D01*
X186396333Y-72501000D01*
X186348714Y-72596238D01*
X186348714Y-72739095D01*
X186396333Y-72834333D01*
X187015380Y-73834333D02*
X187015380Y-73262904D01*
X187015380Y-73548619D02*
X186015380Y-73548619D01*
X186158238Y-73453380D01*
X186253476Y-73358142D01*
X186301095Y-73262904D01*
X146597619Y-120837142D02*
X146550000Y-120884761D01*
X146597619Y-120932380D01*
X146645238Y-120884761D01*
X146597619Y-120837142D01*
X146597619Y-120932380D01*
X146788095Y-119980000D02*
X146692857Y-119932380D01*
X146454761Y-119932380D01*
X146359523Y-119980000D01*
X146311904Y-120075238D01*
X146311904Y-120170476D01*
X146359523Y-120265714D01*
X146407142Y-120313333D01*
X146502380Y-120360952D01*
X146550000Y-120408571D01*
X146597619Y-120503809D01*
X146597619Y-120551428D01*
X145311904Y-120932380D02*
X145645238Y-120456190D01*
X145883333Y-120932380D02*
X145883333Y-119932380D01*
X145502380Y-119932380D01*
X145407142Y-119980000D01*
X145359523Y-120027619D01*
X145311904Y-120122857D01*
X145311904Y-120265714D01*
X145359523Y-120360952D01*
X145407142Y-120408571D01*
X145502380Y-120456190D01*
X145883333Y-120456190D01*
X146692857Y-118562380D02*
X147026190Y-118086190D01*
X147264285Y-118562380D02*
X147264285Y-117562380D01*
X146883333Y-117562380D01*
X146788095Y-117610000D01*
X146740476Y-117657619D01*
X146692857Y-117752857D01*
X146692857Y-117895714D01*
X146740476Y-117990952D01*
X146788095Y-118038571D01*
X146883333Y-118086190D01*
X147264285Y-118086190D01*
X146311904Y-117657619D02*
X146264285Y-117610000D01*
X146169047Y-117562380D01*
X145930952Y-117562380D01*
X145835714Y-117610000D01*
X145788095Y-117657619D01*
X145740476Y-117752857D01*
X145740476Y-117848095D01*
X145788095Y-117990952D01*
X146359523Y-118562380D01*
X145740476Y-118562380D01*
X144883333Y-117562380D02*
X145073809Y-117562380D01*
X145169047Y-117610000D01*
X145216666Y-117657619D01*
X145311904Y-117800476D01*
X145359523Y-117990952D01*
X145359523Y-118371904D01*
X145311904Y-118467142D01*
X145264285Y-118514761D01*
X145169047Y-118562380D01*
X144978571Y-118562380D01*
X144883333Y-118514761D01*
X144835714Y-118467142D01*
X144788095Y-118371904D01*
X144788095Y-118133809D01*
X144835714Y-118038571D01*
X144883333Y-117990952D01*
X144978571Y-117943333D01*
X145169047Y-117943333D01*
X145264285Y-117990952D01*
X145311904Y-118038571D01*
X145359523Y-118133809D01*
X180510285Y-54114619D02*
X180462666Y-54067000D01*
X180367428Y-54019380D01*
X180129333Y-54019380D01*
X180034095Y-54067000D01*
X179986476Y-54114619D01*
X179938857Y-54209857D01*
X179938857Y-54305095D01*
X179986476Y-54447952D01*
X180557904Y-55019380D01*
X179938857Y-55019380D01*
X179557904Y-54114619D02*
X179510285Y-54067000D01*
X179415047Y-54019380D01*
X179176952Y-54019380D01*
X179081714Y-54067000D01*
X179034095Y-54114619D01*
X178986476Y-54209857D01*
X178986476Y-54305095D01*
X179034095Y-54447952D01*
X179605523Y-55019380D01*
X178986476Y-55019380D01*
X178129333Y-54352714D02*
X178129333Y-55019380D01*
X178557904Y-54352714D02*
X178557904Y-54876523D01*
X178510285Y-54971761D01*
X178415047Y-55019380D01*
X178272190Y-55019380D01*
X178176952Y-54971761D01*
X178129333Y-54924142D01*
X179938857Y-60174142D02*
X179986476Y-60221761D01*
X180129333Y-60269380D01*
X180224571Y-60269380D01*
X180367428Y-60221761D01*
X180462666Y-60126523D01*
X180510285Y-60031285D01*
X180557904Y-59840809D01*
X180557904Y-59697952D01*
X180510285Y-59507476D01*
X180462666Y-59412238D01*
X180367428Y-59317000D01*
X180224571Y-59269380D01*
X180129333Y-59269380D01*
X179986476Y-59317000D01*
X179938857Y-59364619D01*
X178986476Y-60269380D02*
X179557904Y-60269380D01*
X179272190Y-60269380D02*
X179272190Y-59269380D01*
X179367428Y-59412238D01*
X179462666Y-59507476D01*
X179557904Y-59555095D01*
X178129333Y-59269380D02*
X178319809Y-59269380D01*
X178415047Y-59317000D01*
X178462666Y-59364619D01*
X178557904Y-59507476D01*
X178605523Y-59697952D01*
X178605523Y-60078904D01*
X178557904Y-60174142D01*
X178510285Y-60221761D01*
X178415047Y-60269380D01*
X178224571Y-60269380D01*
X178129333Y-60221761D01*
X178081714Y-60174142D01*
X178034095Y-60078904D01*
X178034095Y-59840809D01*
X178081714Y-59745571D01*
X178129333Y-59697952D01*
X178224571Y-59650333D01*
X178415047Y-59650333D01*
X178510285Y-59697952D01*
X178557904Y-59745571D01*
X178605523Y-59840809D01*
X146963000Y-64456380D02*
X146772523Y-64456380D01*
X146677285Y-64504000D01*
X146582047Y-64599238D01*
X146534428Y-64789714D01*
X146534428Y-65123047D01*
X146582047Y-65313523D01*
X146677285Y-65408761D01*
X146772523Y-65456380D01*
X146963000Y-65456380D01*
X147058238Y-65408761D01*
X147153476Y-65313523D01*
X147201095Y-65123047D01*
X147201095Y-64789714D01*
X147153476Y-64599238D01*
X147058238Y-64504000D01*
X146963000Y-64456380D01*
X146105857Y-64456380D02*
X146105857Y-65265904D01*
X146058238Y-65361142D01*
X146010619Y-65408761D01*
X145915380Y-65456380D01*
X145724904Y-65456380D01*
X145629666Y-65408761D01*
X145582047Y-65361142D01*
X145534428Y-65265904D01*
X145534428Y-64456380D01*
X145201095Y-64456380D02*
X144629666Y-64456380D01*
X144915380Y-65456380D02*
X144915380Y-64456380D01*
X147439190Y-62146380D02*
X147248714Y-62146380D01*
X147153476Y-62194000D01*
X147058238Y-62289238D01*
X147010619Y-62479714D01*
X147010619Y-62813047D01*
X147058238Y-63003523D01*
X147153476Y-63098761D01*
X147248714Y-63146380D01*
X147439190Y-63146380D01*
X147534428Y-63098761D01*
X147629666Y-63003523D01*
X147677285Y-62813047D01*
X147677285Y-62479714D01*
X147629666Y-62289238D01*
X147534428Y-62194000D01*
X147439190Y-62146380D01*
X146582047Y-62146380D02*
X146582047Y-62955904D01*
X146534428Y-63051142D01*
X146486809Y-63098761D01*
X146391571Y-63146380D01*
X146201095Y-63146380D01*
X146105857Y-63098761D01*
X146058238Y-63051142D01*
X146010619Y-62955904D01*
X146010619Y-62146380D01*
X145677285Y-62146380D02*
X145105857Y-62146380D01*
X145391571Y-63146380D02*
X145391571Y-62146380D01*
X144248714Y-63146380D02*
X144820142Y-63146380D01*
X144534428Y-63146380D02*
X144534428Y-62146380D01*
X144629666Y-62289238D01*
X144724904Y-62384476D01*
X144820142Y-62432095D01*
M02*
