G04 #@! TF.GenerationSoftware,KiCad,Pcbnew,(5.1.4)-1*
G04 #@! TF.CreationDate,2019-12-04T21:35:04+01:00*
G04 #@! TF.ProjectId,JCM800,4a434d38-3030-42e6-9b69-6361645f7063,rev?*
G04 #@! TF.SameCoordinates,Original*
G04 #@! TF.FileFunction,Soldermask,Top*
G04 #@! TF.FilePolarity,Negative*
%FSLAX46Y46*%
G04 Gerber Fmt 4.6, Leading zero omitted, Abs format (unit mm)*
G04 Created by KiCad (PCBNEW (5.1.4)-1) date 2019-12-04 21:35:04*
%MOMM*%
%LPD*%
G04 APERTURE LIST*
%ADD10C,0.100000*%
G04 APERTURE END LIST*
D10*
G36*
X207135496Y-127325922D02*
G01*
X207256153Y-127349922D01*
X207348194Y-127388047D01*
X207478359Y-127441963D01*
X207678342Y-127575587D01*
X207848413Y-127745658D01*
X207982037Y-127945641D01*
X208035953Y-128075806D01*
X208064137Y-128143847D01*
X208074078Y-128167848D01*
X208121000Y-128403741D01*
X208121000Y-128644259D01*
X208074078Y-128880152D01*
X207982037Y-129102359D01*
X207848413Y-129302342D01*
X207678342Y-129472413D01*
X207478359Y-129606037D01*
X207348194Y-129659953D01*
X207256153Y-129698078D01*
X207140915Y-129721000D01*
X207020259Y-129745000D01*
X206779741Y-129745000D01*
X206659085Y-129721000D01*
X206543847Y-129698078D01*
X206451806Y-129659953D01*
X206321641Y-129606037D01*
X206121658Y-129472413D01*
X205951587Y-129302342D01*
X205817963Y-129102359D01*
X205725922Y-128880152D01*
X205679000Y-128644259D01*
X205679000Y-128403741D01*
X205725922Y-128167848D01*
X205735864Y-128143847D01*
X205764047Y-128075806D01*
X205817963Y-127945641D01*
X205951587Y-127745658D01*
X206121658Y-127575587D01*
X206321641Y-127441963D01*
X206451806Y-127388047D01*
X206543847Y-127349922D01*
X206664504Y-127325922D01*
X206779741Y-127303000D01*
X207020259Y-127303000D01*
X207135496Y-127325922D01*
X207135496Y-127325922D01*
G37*
G36*
X202135496Y-127325922D02*
G01*
X202256153Y-127349922D01*
X202348194Y-127388047D01*
X202478359Y-127441963D01*
X202678342Y-127575587D01*
X202848413Y-127745658D01*
X202982037Y-127945641D01*
X203035953Y-128075806D01*
X203064137Y-128143847D01*
X203074078Y-128167848D01*
X203121000Y-128403741D01*
X203121000Y-128644259D01*
X203074078Y-128880152D01*
X202982037Y-129102359D01*
X202848413Y-129302342D01*
X202678342Y-129472413D01*
X202478359Y-129606037D01*
X202348194Y-129659953D01*
X202256153Y-129698078D01*
X202140915Y-129721000D01*
X202020259Y-129745000D01*
X201779741Y-129745000D01*
X201659085Y-129721000D01*
X201543847Y-129698078D01*
X201451806Y-129659953D01*
X201321641Y-129606037D01*
X201121658Y-129472413D01*
X200951587Y-129302342D01*
X200817963Y-129102359D01*
X200725922Y-128880152D01*
X200679000Y-128644259D01*
X200679000Y-128403741D01*
X200725922Y-128167848D01*
X200735864Y-128143847D01*
X200764047Y-128075806D01*
X200817963Y-127945641D01*
X200951587Y-127745658D01*
X201121658Y-127575587D01*
X201321641Y-127441963D01*
X201451806Y-127388047D01*
X201543847Y-127349922D01*
X201664504Y-127325922D01*
X201779741Y-127303000D01*
X202020259Y-127303000D01*
X202135496Y-127325922D01*
X202135496Y-127325922D01*
G37*
G36*
X197135496Y-127325922D02*
G01*
X197256153Y-127349922D01*
X197348194Y-127388047D01*
X197478359Y-127441963D01*
X197678342Y-127575587D01*
X197848413Y-127745658D01*
X197982037Y-127945641D01*
X198035953Y-128075806D01*
X198064137Y-128143847D01*
X198074078Y-128167848D01*
X198121000Y-128403741D01*
X198121000Y-128644259D01*
X198074078Y-128880152D01*
X197982037Y-129102359D01*
X197848413Y-129302342D01*
X197678342Y-129472413D01*
X197478359Y-129606037D01*
X197348194Y-129659953D01*
X197256153Y-129698078D01*
X197140915Y-129721000D01*
X197020259Y-129745000D01*
X196779741Y-129745000D01*
X196659085Y-129721000D01*
X196543847Y-129698078D01*
X196451806Y-129659953D01*
X196321641Y-129606037D01*
X196121658Y-129472413D01*
X195951587Y-129302342D01*
X195817963Y-129102359D01*
X195725922Y-128880152D01*
X195679000Y-128644259D01*
X195679000Y-128403741D01*
X195725922Y-128167848D01*
X195735864Y-128143847D01*
X195764047Y-128075806D01*
X195817963Y-127945641D01*
X195951587Y-127745658D01*
X196121658Y-127575587D01*
X196321641Y-127441963D01*
X196451806Y-127388047D01*
X196543847Y-127349922D01*
X196664504Y-127325922D01*
X196779741Y-127303000D01*
X197020259Y-127303000D01*
X197135496Y-127325922D01*
X197135496Y-127325922D01*
G37*
G36*
X235256153Y-127325922D02*
G01*
X235348194Y-127364047D01*
X235478359Y-127417963D01*
X235678342Y-127551587D01*
X235848413Y-127721658D01*
X235982037Y-127921641D01*
X235991978Y-127945641D01*
X236074078Y-128143847D01*
X236121000Y-128379742D01*
X236121000Y-128620258D01*
X236074078Y-128856153D01*
X236035953Y-128948194D01*
X235982037Y-129078359D01*
X235848413Y-129278342D01*
X235678342Y-129448413D01*
X235478359Y-129582037D01*
X235348194Y-129635953D01*
X235256153Y-129674078D01*
X235138205Y-129697539D01*
X235020259Y-129721000D01*
X234779741Y-129721000D01*
X234661795Y-129697539D01*
X234543847Y-129674078D01*
X234451806Y-129635953D01*
X234321641Y-129582037D01*
X234121658Y-129448413D01*
X233951587Y-129278342D01*
X233817963Y-129078359D01*
X233764047Y-128948194D01*
X233725922Y-128856153D01*
X233679000Y-128620258D01*
X233679000Y-128379742D01*
X233725922Y-128143847D01*
X233808022Y-127945641D01*
X233817963Y-127921641D01*
X233951587Y-127721658D01*
X234121658Y-127551587D01*
X234321641Y-127417963D01*
X234451806Y-127364047D01*
X234543847Y-127325922D01*
X234779741Y-127279000D01*
X235020259Y-127279000D01*
X235256153Y-127325922D01*
X235256153Y-127325922D01*
G37*
G36*
X113256153Y-127325922D02*
G01*
X113348194Y-127364047D01*
X113478359Y-127417963D01*
X113678342Y-127551587D01*
X113848413Y-127721658D01*
X113982037Y-127921641D01*
X113991978Y-127945641D01*
X114074078Y-128143847D01*
X114121000Y-128379742D01*
X114121000Y-128620258D01*
X114074078Y-128856153D01*
X114035953Y-128948194D01*
X113982037Y-129078359D01*
X113848413Y-129278342D01*
X113678342Y-129448413D01*
X113478359Y-129582037D01*
X113348194Y-129635953D01*
X113256153Y-129674078D01*
X113138205Y-129697539D01*
X113020259Y-129721000D01*
X112779741Y-129721000D01*
X112661795Y-129697539D01*
X112543847Y-129674078D01*
X112451806Y-129635953D01*
X112321641Y-129582037D01*
X112121658Y-129448413D01*
X111951587Y-129278342D01*
X111817963Y-129078359D01*
X111764047Y-128948194D01*
X111725922Y-128856153D01*
X111679000Y-128620258D01*
X111679000Y-128379742D01*
X111725922Y-128143847D01*
X111808022Y-127945641D01*
X111817963Y-127921641D01*
X111951587Y-127721658D01*
X112121658Y-127551587D01*
X112321641Y-127417963D01*
X112451806Y-127364047D01*
X112543847Y-127325922D01*
X112779741Y-127279000D01*
X113020259Y-127279000D01*
X113256153Y-127325922D01*
X113256153Y-127325922D01*
G37*
G36*
X225256153Y-127325922D02*
G01*
X225348194Y-127364047D01*
X225478359Y-127417963D01*
X225678342Y-127551587D01*
X225848413Y-127721658D01*
X225982037Y-127921641D01*
X225991978Y-127945641D01*
X226074078Y-128143847D01*
X226121000Y-128379742D01*
X226121000Y-128620258D01*
X226074078Y-128856153D01*
X226035953Y-128948194D01*
X225982037Y-129078359D01*
X225848413Y-129278342D01*
X225678342Y-129448413D01*
X225478359Y-129582037D01*
X225348194Y-129635953D01*
X225256153Y-129674078D01*
X225138205Y-129697539D01*
X225020259Y-129721000D01*
X224779741Y-129721000D01*
X224661795Y-129697539D01*
X224543847Y-129674078D01*
X224451806Y-129635953D01*
X224321641Y-129582037D01*
X224121658Y-129448413D01*
X223951587Y-129278342D01*
X223817963Y-129078359D01*
X223764047Y-128948194D01*
X223725922Y-128856153D01*
X223679000Y-128620258D01*
X223679000Y-128379742D01*
X223725922Y-128143847D01*
X223808022Y-127945641D01*
X223817963Y-127921641D01*
X223951587Y-127721658D01*
X224121658Y-127551587D01*
X224321641Y-127417963D01*
X224451806Y-127364047D01*
X224543847Y-127325922D01*
X224779741Y-127279000D01*
X225020259Y-127279000D01*
X225256153Y-127325922D01*
X225256153Y-127325922D01*
G37*
G36*
X123256153Y-127325922D02*
G01*
X123348194Y-127364047D01*
X123478359Y-127417963D01*
X123678342Y-127551587D01*
X123848413Y-127721658D01*
X123982037Y-127921641D01*
X123991978Y-127945641D01*
X124074078Y-128143847D01*
X124121000Y-128379742D01*
X124121000Y-128620258D01*
X124074078Y-128856153D01*
X124035953Y-128948194D01*
X123982037Y-129078359D01*
X123848413Y-129278342D01*
X123678342Y-129448413D01*
X123478359Y-129582037D01*
X123348194Y-129635953D01*
X123256153Y-129674078D01*
X123138205Y-129697539D01*
X123020259Y-129721000D01*
X122779741Y-129721000D01*
X122661795Y-129697539D01*
X122543847Y-129674078D01*
X122451806Y-129635953D01*
X122321641Y-129582037D01*
X122121658Y-129448413D01*
X121951587Y-129278342D01*
X121817963Y-129078359D01*
X121764047Y-128948194D01*
X121725922Y-128856153D01*
X121679000Y-128620258D01*
X121679000Y-128379742D01*
X121725922Y-128143847D01*
X121808022Y-127945641D01*
X121817963Y-127921641D01*
X121951587Y-127721658D01*
X122121658Y-127551587D01*
X122321641Y-127417963D01*
X122451806Y-127364047D01*
X122543847Y-127325922D01*
X122779741Y-127279000D01*
X123020259Y-127279000D01*
X123256153Y-127325922D01*
X123256153Y-127325922D01*
G37*
G36*
X230256153Y-127325922D02*
G01*
X230348194Y-127364047D01*
X230478359Y-127417963D01*
X230678342Y-127551587D01*
X230848413Y-127721658D01*
X230982037Y-127921641D01*
X230991978Y-127945641D01*
X231074078Y-128143847D01*
X231121000Y-128379742D01*
X231121000Y-128620258D01*
X231074078Y-128856153D01*
X231035953Y-128948194D01*
X230982037Y-129078359D01*
X230848413Y-129278342D01*
X230678342Y-129448413D01*
X230478359Y-129582037D01*
X230348194Y-129635953D01*
X230256153Y-129674078D01*
X230138205Y-129697539D01*
X230020259Y-129721000D01*
X229779741Y-129721000D01*
X229661795Y-129697539D01*
X229543847Y-129674078D01*
X229451806Y-129635953D01*
X229321641Y-129582037D01*
X229121658Y-129448413D01*
X228951587Y-129278342D01*
X228817963Y-129078359D01*
X228764047Y-128948194D01*
X228725922Y-128856153D01*
X228679000Y-128620258D01*
X228679000Y-128379742D01*
X228725922Y-128143847D01*
X228808022Y-127945641D01*
X228817963Y-127921641D01*
X228951587Y-127721658D01*
X229121658Y-127551587D01*
X229321641Y-127417963D01*
X229451806Y-127364047D01*
X229543847Y-127325922D01*
X229779741Y-127279000D01*
X230020259Y-127279000D01*
X230256153Y-127325922D01*
X230256153Y-127325922D01*
G37*
G36*
X118256153Y-127325922D02*
G01*
X118348194Y-127364047D01*
X118478359Y-127417963D01*
X118678342Y-127551587D01*
X118848413Y-127721658D01*
X118982037Y-127921641D01*
X118991978Y-127945641D01*
X119074078Y-128143847D01*
X119121000Y-128379742D01*
X119121000Y-128620258D01*
X119074078Y-128856153D01*
X119035953Y-128948194D01*
X118982037Y-129078359D01*
X118848413Y-129278342D01*
X118678342Y-129448413D01*
X118478359Y-129582037D01*
X118348194Y-129635953D01*
X118256153Y-129674078D01*
X118138205Y-129697539D01*
X118020259Y-129721000D01*
X117779741Y-129721000D01*
X117661795Y-129697539D01*
X117543847Y-129674078D01*
X117451806Y-129635953D01*
X117321641Y-129582037D01*
X117121658Y-129448413D01*
X116951587Y-129278342D01*
X116817963Y-129078359D01*
X116764047Y-128948194D01*
X116725922Y-128856153D01*
X116679000Y-128620258D01*
X116679000Y-128379742D01*
X116725922Y-128143847D01*
X116808022Y-127945641D01*
X116817963Y-127921641D01*
X116951587Y-127721658D01*
X117121658Y-127551587D01*
X117321641Y-127417963D01*
X117451806Y-127364047D01*
X117543847Y-127325922D01*
X117779741Y-127279000D01*
X118020259Y-127279000D01*
X118256153Y-127325922D01*
X118256153Y-127325922D01*
G37*
G36*
X146256153Y-127325922D02*
G01*
X146348194Y-127364047D01*
X146478359Y-127417963D01*
X146678342Y-127551587D01*
X146848413Y-127721658D01*
X146982037Y-127921641D01*
X146991978Y-127945641D01*
X147074078Y-128143847D01*
X147121000Y-128379742D01*
X147121000Y-128620258D01*
X147074078Y-128856153D01*
X147035953Y-128948194D01*
X146982037Y-129078359D01*
X146848413Y-129278342D01*
X146678342Y-129448413D01*
X146478359Y-129582037D01*
X146348194Y-129635953D01*
X146256153Y-129674078D01*
X146138205Y-129697539D01*
X146020259Y-129721000D01*
X145779741Y-129721000D01*
X145661795Y-129697539D01*
X145543847Y-129674078D01*
X145451806Y-129635953D01*
X145321641Y-129582037D01*
X145121658Y-129448413D01*
X144951587Y-129278342D01*
X144817963Y-129078359D01*
X144764047Y-128948194D01*
X144725922Y-128856153D01*
X144679000Y-128620258D01*
X144679000Y-128379742D01*
X144725922Y-128143847D01*
X144808022Y-127945641D01*
X144817963Y-127921641D01*
X144951587Y-127721658D01*
X145121658Y-127551587D01*
X145321641Y-127417963D01*
X145451806Y-127364047D01*
X145543847Y-127325922D01*
X145779741Y-127279000D01*
X146020259Y-127279000D01*
X146256153Y-127325922D01*
X146256153Y-127325922D01*
G37*
G36*
X151256153Y-127325922D02*
G01*
X151348194Y-127364047D01*
X151478359Y-127417963D01*
X151678342Y-127551587D01*
X151848413Y-127721658D01*
X151982037Y-127921641D01*
X151991978Y-127945641D01*
X152074078Y-128143847D01*
X152121000Y-128379742D01*
X152121000Y-128620258D01*
X152074078Y-128856153D01*
X152035953Y-128948194D01*
X151982037Y-129078359D01*
X151848413Y-129278342D01*
X151678342Y-129448413D01*
X151478359Y-129582037D01*
X151348194Y-129635953D01*
X151256153Y-129674078D01*
X151138205Y-129697539D01*
X151020259Y-129721000D01*
X150779741Y-129721000D01*
X150661795Y-129697539D01*
X150543847Y-129674078D01*
X150451806Y-129635953D01*
X150321641Y-129582037D01*
X150121658Y-129448413D01*
X149951587Y-129278342D01*
X149817963Y-129078359D01*
X149764047Y-128948194D01*
X149725922Y-128856153D01*
X149679000Y-128620258D01*
X149679000Y-128379742D01*
X149725922Y-128143847D01*
X149808022Y-127945641D01*
X149817963Y-127921641D01*
X149951587Y-127721658D01*
X150121658Y-127551587D01*
X150321641Y-127417963D01*
X150451806Y-127364047D01*
X150543847Y-127325922D01*
X150779741Y-127279000D01*
X151020259Y-127279000D01*
X151256153Y-127325922D01*
X151256153Y-127325922D01*
G37*
G36*
X179266153Y-127325922D02*
G01*
X179358194Y-127364047D01*
X179488359Y-127417963D01*
X179688342Y-127551587D01*
X179858413Y-127721658D01*
X179992037Y-127921641D01*
X180001978Y-127945641D01*
X180084078Y-128143847D01*
X180131000Y-128379742D01*
X180131000Y-128620258D01*
X180084078Y-128856153D01*
X180045953Y-128948194D01*
X179992037Y-129078359D01*
X179858413Y-129278342D01*
X179688342Y-129448413D01*
X179488359Y-129582037D01*
X179358194Y-129635953D01*
X179266153Y-129674078D01*
X179148205Y-129697539D01*
X179030259Y-129721000D01*
X178789741Y-129721000D01*
X178671795Y-129697539D01*
X178553847Y-129674078D01*
X178461806Y-129635953D01*
X178331641Y-129582037D01*
X178131658Y-129448413D01*
X177961587Y-129278342D01*
X177827963Y-129078359D01*
X177774047Y-128948194D01*
X177735922Y-128856153D01*
X177689000Y-128620258D01*
X177689000Y-128379742D01*
X177735922Y-128143847D01*
X177818022Y-127945641D01*
X177827963Y-127921641D01*
X177961587Y-127721658D01*
X178131658Y-127551587D01*
X178331641Y-127417963D01*
X178461806Y-127364047D01*
X178553847Y-127325922D01*
X178789741Y-127279000D01*
X179030259Y-127279000D01*
X179266153Y-127325922D01*
X179266153Y-127325922D01*
G37*
G36*
X174266153Y-127325922D02*
G01*
X174358194Y-127364047D01*
X174488359Y-127417963D01*
X174688342Y-127551587D01*
X174858413Y-127721658D01*
X174992037Y-127921641D01*
X175001978Y-127945641D01*
X175084078Y-128143847D01*
X175131000Y-128379742D01*
X175131000Y-128620258D01*
X175084078Y-128856153D01*
X175045953Y-128948194D01*
X174992037Y-129078359D01*
X174858413Y-129278342D01*
X174688342Y-129448413D01*
X174488359Y-129582037D01*
X174358194Y-129635953D01*
X174266153Y-129674078D01*
X174148205Y-129697539D01*
X174030259Y-129721000D01*
X173789741Y-129721000D01*
X173671795Y-129697539D01*
X173553847Y-129674078D01*
X173461806Y-129635953D01*
X173331641Y-129582037D01*
X173131658Y-129448413D01*
X172961587Y-129278342D01*
X172827963Y-129078359D01*
X172774047Y-128948194D01*
X172735922Y-128856153D01*
X172689000Y-128620258D01*
X172689000Y-128379742D01*
X172735922Y-128143847D01*
X172818022Y-127945641D01*
X172827963Y-127921641D01*
X172961587Y-127721658D01*
X173131658Y-127551587D01*
X173331641Y-127417963D01*
X173461806Y-127364047D01*
X173553847Y-127325922D01*
X173789741Y-127279000D01*
X174030259Y-127279000D01*
X174266153Y-127325922D01*
X174266153Y-127325922D01*
G37*
G36*
X169266153Y-127325922D02*
G01*
X169358194Y-127364047D01*
X169488359Y-127417963D01*
X169688342Y-127551587D01*
X169858413Y-127721658D01*
X169992037Y-127921641D01*
X170001978Y-127945641D01*
X170084078Y-128143847D01*
X170131000Y-128379742D01*
X170131000Y-128620258D01*
X170084078Y-128856153D01*
X170045953Y-128948194D01*
X169992037Y-129078359D01*
X169858413Y-129278342D01*
X169688342Y-129448413D01*
X169488359Y-129582037D01*
X169358194Y-129635953D01*
X169266153Y-129674078D01*
X169148205Y-129697539D01*
X169030259Y-129721000D01*
X168789741Y-129721000D01*
X168671795Y-129697539D01*
X168553847Y-129674078D01*
X168461806Y-129635953D01*
X168331641Y-129582037D01*
X168131658Y-129448413D01*
X167961587Y-129278342D01*
X167827963Y-129078359D01*
X167774047Y-128948194D01*
X167735922Y-128856153D01*
X167689000Y-128620258D01*
X167689000Y-128379742D01*
X167735922Y-128143847D01*
X167818022Y-127945641D01*
X167827963Y-127921641D01*
X167961587Y-127721658D01*
X168131658Y-127551587D01*
X168331641Y-127417963D01*
X168461806Y-127364047D01*
X168553847Y-127325922D01*
X168789741Y-127279000D01*
X169030259Y-127279000D01*
X169266153Y-127325922D01*
X169266153Y-127325922D01*
G37*
G36*
X141256153Y-127325922D02*
G01*
X141348194Y-127364047D01*
X141478359Y-127417963D01*
X141678342Y-127551587D01*
X141848413Y-127721658D01*
X141982037Y-127921641D01*
X141991978Y-127945641D01*
X142074078Y-128143847D01*
X142121000Y-128379742D01*
X142121000Y-128620258D01*
X142074078Y-128856153D01*
X142035953Y-128948194D01*
X141982037Y-129078359D01*
X141848413Y-129278342D01*
X141678342Y-129448413D01*
X141478359Y-129582037D01*
X141348194Y-129635953D01*
X141256153Y-129674078D01*
X141138205Y-129697539D01*
X141020259Y-129721000D01*
X140779741Y-129721000D01*
X140661795Y-129697539D01*
X140543847Y-129674078D01*
X140451806Y-129635953D01*
X140321641Y-129582037D01*
X140121658Y-129448413D01*
X139951587Y-129278342D01*
X139817963Y-129078359D01*
X139764047Y-128948194D01*
X139725922Y-128856153D01*
X139679000Y-128620258D01*
X139679000Y-128379742D01*
X139725922Y-128143847D01*
X139808022Y-127945641D01*
X139817963Y-127921641D01*
X139951587Y-127721658D01*
X140121658Y-127551587D01*
X140321641Y-127417963D01*
X140451806Y-127364047D01*
X140543847Y-127325922D01*
X140779741Y-127279000D01*
X141020259Y-127279000D01*
X141256153Y-127325922D01*
X141256153Y-127325922D01*
G37*
G36*
X216275256Y-125899298D02*
G01*
X216381579Y-125920447D01*
X216682042Y-126044903D01*
X216952451Y-126225585D01*
X217182415Y-126455549D01*
X217182416Y-126455551D01*
X217363098Y-126725960D01*
X217487553Y-127026422D01*
X217547128Y-127325922D01*
X217551000Y-127345391D01*
X217551000Y-127670609D01*
X217487553Y-127989579D01*
X217363097Y-128290042D01*
X217182415Y-128560451D01*
X216952451Y-128790415D01*
X216682042Y-128971097D01*
X216381579Y-129095553D01*
X216275256Y-129116702D01*
X216062611Y-129159000D01*
X215737389Y-129159000D01*
X215524744Y-129116702D01*
X215418421Y-129095553D01*
X215117958Y-128971097D01*
X214847549Y-128790415D01*
X214617585Y-128560451D01*
X214436903Y-128290042D01*
X214312447Y-127989579D01*
X214249000Y-127670609D01*
X214249000Y-127345391D01*
X214252873Y-127325922D01*
X214312447Y-127026422D01*
X214436902Y-126725960D01*
X214617584Y-126455551D01*
X214617585Y-126455549D01*
X214847549Y-126225585D01*
X215117958Y-126044903D01*
X215418421Y-125920447D01*
X215524744Y-125899298D01*
X215737389Y-125857000D01*
X216062611Y-125857000D01*
X216275256Y-125899298D01*
X216275256Y-125899298D01*
G37*
G36*
X132201256Y-125899298D02*
G01*
X132307579Y-125920447D01*
X132608042Y-126044903D01*
X132878451Y-126225585D01*
X133108415Y-126455549D01*
X133108416Y-126455551D01*
X133289098Y-126725960D01*
X133413553Y-127026422D01*
X133473128Y-127325922D01*
X133477000Y-127345391D01*
X133477000Y-127670609D01*
X133413553Y-127989579D01*
X133289097Y-128290042D01*
X133108415Y-128560451D01*
X132878451Y-128790415D01*
X132608042Y-128971097D01*
X132307579Y-129095553D01*
X132201256Y-129116702D01*
X131988611Y-129159000D01*
X131663389Y-129159000D01*
X131450744Y-129116702D01*
X131344421Y-129095553D01*
X131043958Y-128971097D01*
X130773549Y-128790415D01*
X130543585Y-128560451D01*
X130362903Y-128290042D01*
X130238447Y-127989579D01*
X130175000Y-127670609D01*
X130175000Y-127345391D01*
X130178873Y-127325922D01*
X130238447Y-127026422D01*
X130362902Y-126725960D01*
X130543584Y-126455551D01*
X130543585Y-126455549D01*
X130773549Y-126225585D01*
X131043958Y-126044903D01*
X131344421Y-125920447D01*
X131450744Y-125899298D01*
X131663389Y-125857000D01*
X131988611Y-125857000D01*
X132201256Y-125899298D01*
X132201256Y-125899298D01*
G37*
G36*
X73273256Y-125899298D02*
G01*
X73379579Y-125920447D01*
X73680042Y-126044903D01*
X73950451Y-126225585D01*
X74180415Y-126455549D01*
X74180416Y-126455551D01*
X74361098Y-126725960D01*
X74485553Y-127026422D01*
X74545128Y-127325922D01*
X74549000Y-127345391D01*
X74549000Y-127670609D01*
X74485553Y-127989579D01*
X74361097Y-128290042D01*
X74180415Y-128560451D01*
X73950451Y-128790415D01*
X73680042Y-128971097D01*
X73379579Y-129095553D01*
X73273256Y-129116702D01*
X73060611Y-129159000D01*
X72735389Y-129159000D01*
X72522744Y-129116702D01*
X72416421Y-129095553D01*
X72115958Y-128971097D01*
X71845549Y-128790415D01*
X71615585Y-128560451D01*
X71434903Y-128290042D01*
X71310447Y-127989579D01*
X71247000Y-127670609D01*
X71247000Y-127345391D01*
X71250873Y-127325922D01*
X71310447Y-127026422D01*
X71434902Y-126725960D01*
X71615584Y-126455551D01*
X71615585Y-126455549D01*
X71845549Y-126225585D01*
X72115958Y-126044903D01*
X72416421Y-125920447D01*
X72522744Y-125899298D01*
X72735389Y-125857000D01*
X73060611Y-125857000D01*
X73273256Y-125899298D01*
X73273256Y-125899298D01*
G37*
G36*
X50102585Y-125778802D02*
G01*
X50252410Y-125808604D01*
X50534674Y-125925521D01*
X50788705Y-126095259D01*
X51004741Y-126311295D01*
X51174479Y-126565326D01*
X51291396Y-126847590D01*
X51351000Y-127147240D01*
X51351000Y-127452760D01*
X51291396Y-127752410D01*
X51174479Y-128034674D01*
X51004741Y-128288705D01*
X50788705Y-128504741D01*
X50534674Y-128674479D01*
X50252410Y-128791396D01*
X50102585Y-128821198D01*
X49952761Y-128851000D01*
X49647239Y-128851000D01*
X49497415Y-128821198D01*
X49347590Y-128791396D01*
X49065326Y-128674479D01*
X48811295Y-128504741D01*
X48595259Y-128288705D01*
X48425521Y-128034674D01*
X48308604Y-127752410D01*
X48249000Y-127452760D01*
X48249000Y-127147240D01*
X48308604Y-126847590D01*
X48425521Y-126565326D01*
X48595259Y-126311295D01*
X48811295Y-126095259D01*
X49065326Y-125925521D01*
X49347590Y-125808604D01*
X49497415Y-125778802D01*
X49647239Y-125749000D01*
X49952761Y-125749000D01*
X50102585Y-125778802D01*
X50102585Y-125778802D01*
G37*
G36*
X66302585Y-125778802D02*
G01*
X66452410Y-125808604D01*
X66734674Y-125925521D01*
X66988705Y-126095259D01*
X67204741Y-126311295D01*
X67374479Y-126565326D01*
X67491396Y-126847590D01*
X67551000Y-127147240D01*
X67551000Y-127452760D01*
X67491396Y-127752410D01*
X67374479Y-128034674D01*
X67204741Y-128288705D01*
X66988705Y-128504741D01*
X66734674Y-128674479D01*
X66452410Y-128791396D01*
X66302585Y-128821198D01*
X66152761Y-128851000D01*
X65847239Y-128851000D01*
X65697415Y-128821198D01*
X65547590Y-128791396D01*
X65265326Y-128674479D01*
X65011295Y-128504741D01*
X64795259Y-128288705D01*
X64625521Y-128034674D01*
X64508604Y-127752410D01*
X64449000Y-127452760D01*
X64449000Y-127147240D01*
X64508604Y-126847590D01*
X64625521Y-126565326D01*
X64795259Y-126311295D01*
X65011295Y-126095259D01*
X65265326Y-125925521D01*
X65547590Y-125808604D01*
X65697415Y-125778802D01*
X65847239Y-125749000D01*
X66152761Y-125749000D01*
X66302585Y-125778802D01*
X66302585Y-125778802D01*
G37*
G36*
X96302585Y-125778802D02*
G01*
X96452410Y-125808604D01*
X96734674Y-125925521D01*
X96988705Y-126095259D01*
X97204741Y-126311295D01*
X97374479Y-126565326D01*
X97491396Y-126847590D01*
X97551000Y-127147240D01*
X97551000Y-127452760D01*
X97491396Y-127752410D01*
X97374479Y-128034674D01*
X97204741Y-128288705D01*
X96988705Y-128504741D01*
X96734674Y-128674479D01*
X96452410Y-128791396D01*
X96302585Y-128821198D01*
X96152761Y-128851000D01*
X95847239Y-128851000D01*
X95697415Y-128821198D01*
X95547590Y-128791396D01*
X95265326Y-128674479D01*
X95011295Y-128504741D01*
X94795259Y-128288705D01*
X94625521Y-128034674D01*
X94508604Y-127752410D01*
X94449000Y-127452760D01*
X94449000Y-127147240D01*
X94508604Y-126847590D01*
X94625521Y-126565326D01*
X94795259Y-126311295D01*
X95011295Y-126095259D01*
X95265326Y-125925521D01*
X95547590Y-125808604D01*
X95697415Y-125778802D01*
X95847239Y-125749000D01*
X96152761Y-125749000D01*
X96302585Y-125778802D01*
X96302585Y-125778802D01*
G37*
G36*
X80102585Y-125778802D02*
G01*
X80252410Y-125808604D01*
X80534674Y-125925521D01*
X80788705Y-126095259D01*
X81004741Y-126311295D01*
X81174479Y-126565326D01*
X81291396Y-126847590D01*
X81351000Y-127147240D01*
X81351000Y-127452760D01*
X81291396Y-127752410D01*
X81174479Y-128034674D01*
X81004741Y-128288705D01*
X80788705Y-128504741D01*
X80534674Y-128674479D01*
X80252410Y-128791396D01*
X80102585Y-128821198D01*
X79952761Y-128851000D01*
X79647239Y-128851000D01*
X79497415Y-128821198D01*
X79347590Y-128791396D01*
X79065326Y-128674479D01*
X78811295Y-128504741D01*
X78595259Y-128288705D01*
X78425521Y-128034674D01*
X78308604Y-127752410D01*
X78249000Y-127452760D01*
X78249000Y-127147240D01*
X78308604Y-126847590D01*
X78425521Y-126565326D01*
X78595259Y-126311295D01*
X78811295Y-126095259D01*
X79065326Y-125925521D01*
X79347590Y-125808604D01*
X79497415Y-125778802D01*
X79647239Y-125749000D01*
X79952761Y-125749000D01*
X80102585Y-125778802D01*
X80102585Y-125778802D01*
G37*
G36*
X50102585Y-119478802D02*
G01*
X50252410Y-119508604D01*
X50534674Y-119625521D01*
X50788705Y-119795259D01*
X51004741Y-120011295D01*
X51174479Y-120265326D01*
X51291396Y-120547590D01*
X51351000Y-120847240D01*
X51351000Y-121152760D01*
X51291396Y-121452410D01*
X51174479Y-121734674D01*
X51004741Y-121988705D01*
X50788705Y-122204741D01*
X50534674Y-122374479D01*
X50252410Y-122491396D01*
X50102585Y-122521198D01*
X49952761Y-122551000D01*
X49647239Y-122551000D01*
X49497415Y-122521198D01*
X49347590Y-122491396D01*
X49065326Y-122374479D01*
X48811295Y-122204741D01*
X48595259Y-121988705D01*
X48425521Y-121734674D01*
X48308604Y-121452410D01*
X48249000Y-121152760D01*
X48249000Y-120847240D01*
X48308604Y-120547590D01*
X48425521Y-120265326D01*
X48595259Y-120011295D01*
X48811295Y-119795259D01*
X49065326Y-119625521D01*
X49347590Y-119508604D01*
X49497415Y-119478802D01*
X49647239Y-119449000D01*
X49952761Y-119449000D01*
X50102585Y-119478802D01*
X50102585Y-119478802D01*
G37*
G36*
X66302585Y-119478802D02*
G01*
X66452410Y-119508604D01*
X66734674Y-119625521D01*
X66988705Y-119795259D01*
X67204741Y-120011295D01*
X67374479Y-120265326D01*
X67491396Y-120547590D01*
X67551000Y-120847240D01*
X67551000Y-121152760D01*
X67491396Y-121452410D01*
X67374479Y-121734674D01*
X67204741Y-121988705D01*
X66988705Y-122204741D01*
X66734674Y-122374479D01*
X66452410Y-122491396D01*
X66302585Y-122521198D01*
X66152761Y-122551000D01*
X65847239Y-122551000D01*
X65697415Y-122521198D01*
X65547590Y-122491396D01*
X65265326Y-122374479D01*
X65011295Y-122204741D01*
X64795259Y-121988705D01*
X64625521Y-121734674D01*
X64508604Y-121452410D01*
X64449000Y-121152760D01*
X64449000Y-120847240D01*
X64508604Y-120547590D01*
X64625521Y-120265326D01*
X64795259Y-120011295D01*
X65011295Y-119795259D01*
X65265326Y-119625521D01*
X65547590Y-119508604D01*
X65697415Y-119478802D01*
X65847239Y-119449000D01*
X66152761Y-119449000D01*
X66302585Y-119478802D01*
X66302585Y-119478802D01*
G37*
G36*
X80102585Y-119478802D02*
G01*
X80252410Y-119508604D01*
X80534674Y-119625521D01*
X80788705Y-119795259D01*
X81004741Y-120011295D01*
X81174479Y-120265326D01*
X81291396Y-120547590D01*
X81351000Y-120847240D01*
X81351000Y-121152760D01*
X81291396Y-121452410D01*
X81174479Y-121734674D01*
X81004741Y-121988705D01*
X80788705Y-122204741D01*
X80534674Y-122374479D01*
X80252410Y-122491396D01*
X80102585Y-122521198D01*
X79952761Y-122551000D01*
X79647239Y-122551000D01*
X79497415Y-122521198D01*
X79347590Y-122491396D01*
X79065326Y-122374479D01*
X78811295Y-122204741D01*
X78595259Y-121988705D01*
X78425521Y-121734674D01*
X78308604Y-121452410D01*
X78249000Y-121152760D01*
X78249000Y-120847240D01*
X78308604Y-120547590D01*
X78425521Y-120265326D01*
X78595259Y-120011295D01*
X78811295Y-119795259D01*
X79065326Y-119625521D01*
X79347590Y-119508604D01*
X79497415Y-119478802D01*
X79647239Y-119449000D01*
X79952761Y-119449000D01*
X80102585Y-119478802D01*
X80102585Y-119478802D01*
G37*
G36*
X96302585Y-119478802D02*
G01*
X96452410Y-119508604D01*
X96734674Y-119625521D01*
X96988705Y-119795259D01*
X97204741Y-120011295D01*
X97374479Y-120265326D01*
X97491396Y-120547590D01*
X97551000Y-120847240D01*
X97551000Y-121152760D01*
X97491396Y-121452410D01*
X97374479Y-121734674D01*
X97204741Y-121988705D01*
X96988705Y-122204741D01*
X96734674Y-122374479D01*
X96452410Y-122491396D01*
X96302585Y-122521198D01*
X96152761Y-122551000D01*
X95847239Y-122551000D01*
X95697415Y-122521198D01*
X95547590Y-122491396D01*
X95265326Y-122374479D01*
X95011295Y-122204741D01*
X94795259Y-121988705D01*
X94625521Y-121734674D01*
X94508604Y-121452410D01*
X94449000Y-121152760D01*
X94449000Y-120847240D01*
X94508604Y-120547590D01*
X94625521Y-120265326D01*
X94795259Y-120011295D01*
X95011295Y-119795259D01*
X95265326Y-119625521D01*
X95547590Y-119508604D01*
X95697415Y-119478802D01*
X95847239Y-119449000D01*
X96152761Y-119449000D01*
X96302585Y-119478802D01*
X96302585Y-119478802D01*
G37*
G36*
X73146228Y-120466703D02*
G01*
X73301100Y-120530853D01*
X73440481Y-120623985D01*
X73559015Y-120742519D01*
X73652147Y-120881900D01*
X73716297Y-121036772D01*
X73749000Y-121201184D01*
X73749000Y-121368816D01*
X73716297Y-121533228D01*
X73652147Y-121688100D01*
X73559015Y-121827481D01*
X73440481Y-121946015D01*
X73301100Y-122039147D01*
X73146228Y-122103297D01*
X72981816Y-122136000D01*
X72814184Y-122136000D01*
X72649772Y-122103297D01*
X72494900Y-122039147D01*
X72355519Y-121946015D01*
X72236985Y-121827481D01*
X72143853Y-121688100D01*
X72079703Y-121533228D01*
X72047000Y-121368816D01*
X72047000Y-121201184D01*
X72079703Y-121036772D01*
X72143853Y-120881900D01*
X72236985Y-120742519D01*
X72355519Y-120623985D01*
X72494900Y-120530853D01*
X72649772Y-120466703D01*
X72814184Y-120434000D01*
X72981816Y-120434000D01*
X73146228Y-120466703D01*
X73146228Y-120466703D01*
G37*
G36*
X238011072Y-117365918D02*
G01*
X238211615Y-117448985D01*
X238256939Y-117467759D01*
X238313184Y-117505341D01*
X238478211Y-117615609D01*
X238666391Y-117803789D01*
X238814242Y-118025063D01*
X238916082Y-118270928D01*
X238968000Y-118531937D01*
X238968000Y-118798063D01*
X238916082Y-119059072D01*
X238814242Y-119304937D01*
X238678156Y-119508604D01*
X238666390Y-119526212D01*
X238478212Y-119714390D01*
X238256939Y-119862241D01*
X238256938Y-119862242D01*
X238256937Y-119862242D01*
X238011072Y-119964082D01*
X237750063Y-120016000D01*
X237483937Y-120016000D01*
X237222928Y-119964082D01*
X236977063Y-119862242D01*
X236977062Y-119862242D01*
X236977061Y-119862241D01*
X236755788Y-119714390D01*
X236567610Y-119526212D01*
X236555845Y-119508604D01*
X236419758Y-119304937D01*
X236317918Y-119059072D01*
X236266000Y-118798063D01*
X236266000Y-118531937D01*
X236317918Y-118270928D01*
X236419758Y-118025063D01*
X236567609Y-117803789D01*
X236755789Y-117615609D01*
X236920816Y-117505341D01*
X236977061Y-117467759D01*
X237022386Y-117448985D01*
X237222928Y-117365918D01*
X237483937Y-117314000D01*
X237750063Y-117314000D01*
X238011072Y-117365918D01*
X238011072Y-117365918D01*
G37*
G36*
X151378228Y-117291703D02*
G01*
X151533100Y-117355853D01*
X151672481Y-117448985D01*
X151791015Y-117567519D01*
X151884147Y-117706900D01*
X151948297Y-117861772D01*
X151981000Y-118026184D01*
X151981000Y-118193816D01*
X151948297Y-118358228D01*
X151884147Y-118513100D01*
X151791015Y-118652481D01*
X151672481Y-118771015D01*
X151533100Y-118864147D01*
X151378228Y-118928297D01*
X151213816Y-118961000D01*
X151046184Y-118961000D01*
X150881772Y-118928297D01*
X150726900Y-118864147D01*
X150587519Y-118771015D01*
X150468985Y-118652481D01*
X150375853Y-118513100D01*
X150311703Y-118358228D01*
X150279000Y-118193816D01*
X150279000Y-118026184D01*
X150311703Y-117861772D01*
X150375853Y-117706900D01*
X150468985Y-117567519D01*
X150587519Y-117448985D01*
X150726900Y-117355853D01*
X150881772Y-117291703D01*
X151046184Y-117259000D01*
X151213816Y-117259000D01*
X151378228Y-117291703D01*
X151378228Y-117291703D01*
G37*
G36*
X141136823Y-117271313D02*
G01*
X141267380Y-117310917D01*
X141282306Y-117315445D01*
X141297242Y-117319976D01*
X141364361Y-117355852D01*
X141445078Y-117398996D01*
X141574659Y-117505341D01*
X141681004Y-117634922D01*
X141681005Y-117634924D01*
X141760024Y-117782758D01*
X141808687Y-117943177D01*
X141825117Y-118110000D01*
X141808687Y-118276823D01*
X141760024Y-118437242D01*
X141719477Y-118513100D01*
X141681004Y-118585078D01*
X141574659Y-118714659D01*
X141445078Y-118821004D01*
X141445076Y-118821005D01*
X141297242Y-118900024D01*
X141136823Y-118948687D01*
X141011804Y-118961000D01*
X140928196Y-118961000D01*
X140803177Y-118948687D01*
X140642758Y-118900024D01*
X140494924Y-118821005D01*
X140494922Y-118821004D01*
X140365341Y-118714659D01*
X140258996Y-118585078D01*
X140220523Y-118513100D01*
X140179976Y-118437242D01*
X140131313Y-118276823D01*
X140114883Y-118110000D01*
X140131313Y-117943177D01*
X140179976Y-117782758D01*
X140258995Y-117634924D01*
X140258996Y-117634922D01*
X140365341Y-117505341D01*
X140494922Y-117398996D01*
X140575639Y-117355852D01*
X140642758Y-117319976D01*
X140657695Y-117315445D01*
X140672620Y-117310917D01*
X140803177Y-117271313D01*
X140928196Y-117259000D01*
X141011804Y-117259000D01*
X141136823Y-117271313D01*
X141136823Y-117271313D01*
G37*
G36*
X207704564Y-116408348D02*
G01*
X207895833Y-116487574D01*
X207895835Y-116487575D01*
X208067973Y-116602594D01*
X208214365Y-116748986D01*
X208329385Y-116921126D01*
X208408611Y-117112395D01*
X208449000Y-117315443D01*
X208449000Y-117522475D01*
X208408611Y-117725523D01*
X208376192Y-117803789D01*
X208329384Y-117916794D01*
X208214365Y-118088932D01*
X208067973Y-118235324D01*
X207895835Y-118350343D01*
X207895834Y-118350344D01*
X207895833Y-118350344D01*
X207704564Y-118429570D01*
X207501516Y-118469959D01*
X207294484Y-118469959D01*
X207091436Y-118429570D01*
X206900167Y-118350344D01*
X206900166Y-118350344D01*
X206900165Y-118350343D01*
X206728027Y-118235324D01*
X206581635Y-118088932D01*
X206466616Y-117916794D01*
X206419808Y-117803789D01*
X206387389Y-117725523D01*
X206347000Y-117522475D01*
X206347000Y-117315443D01*
X206387389Y-117112395D01*
X206466615Y-116921126D01*
X206581635Y-116748986D01*
X206728027Y-116602594D01*
X206900165Y-116487575D01*
X206900167Y-116487574D01*
X207091436Y-116408348D01*
X207294484Y-116367959D01*
X207501516Y-116367959D01*
X207704564Y-116408348D01*
X207704564Y-116408348D01*
G37*
G36*
X200204564Y-116408348D02*
G01*
X200395833Y-116487574D01*
X200395835Y-116487575D01*
X200567973Y-116602594D01*
X200714365Y-116748986D01*
X200829385Y-116921126D01*
X200908611Y-117112395D01*
X200949000Y-117315443D01*
X200949000Y-117522475D01*
X200908611Y-117725523D01*
X200876192Y-117803789D01*
X200829384Y-117916794D01*
X200714365Y-118088932D01*
X200567973Y-118235324D01*
X200395835Y-118350343D01*
X200395834Y-118350344D01*
X200395833Y-118350344D01*
X200204564Y-118429570D01*
X200001516Y-118469959D01*
X199794484Y-118469959D01*
X199591436Y-118429570D01*
X199400167Y-118350344D01*
X199400166Y-118350344D01*
X199400165Y-118350343D01*
X199228027Y-118235324D01*
X199081635Y-118088932D01*
X198966616Y-117916794D01*
X198919808Y-117803789D01*
X198887389Y-117725523D01*
X198847000Y-117522475D01*
X198847000Y-117315443D01*
X198887389Y-117112395D01*
X198966615Y-116921126D01*
X199081635Y-116748986D01*
X199228027Y-116602594D01*
X199400165Y-116487575D01*
X199400167Y-116487574D01*
X199591436Y-116408348D01*
X199794484Y-116367959D01*
X200001516Y-116367959D01*
X200204564Y-116408348D01*
X200204564Y-116408348D01*
G37*
G36*
X112661000Y-116471000D02*
G01*
X110859000Y-116471000D01*
X110859000Y-114669000D01*
X112661000Y-114669000D01*
X112661000Y-116471000D01*
X112661000Y-116471000D01*
G37*
G36*
X80102585Y-113178802D02*
G01*
X80252410Y-113208604D01*
X80534674Y-113325521D01*
X80788705Y-113495259D01*
X81004741Y-113711295D01*
X81174479Y-113965326D01*
X81291396Y-114247590D01*
X81291396Y-114247591D01*
X81351000Y-114547239D01*
X81351000Y-114852761D01*
X81341190Y-114902078D01*
X81291396Y-115152410D01*
X81174479Y-115434674D01*
X81004741Y-115688705D01*
X80788705Y-115904741D01*
X80534674Y-116074479D01*
X80252410Y-116191396D01*
X80102585Y-116221198D01*
X79952761Y-116251000D01*
X79647239Y-116251000D01*
X79497415Y-116221198D01*
X79347590Y-116191396D01*
X79065326Y-116074479D01*
X78811295Y-115904741D01*
X78595259Y-115688705D01*
X78425521Y-115434674D01*
X78308604Y-115152410D01*
X78258810Y-114902078D01*
X78249000Y-114852761D01*
X78249000Y-114547239D01*
X78308604Y-114247591D01*
X78308604Y-114247590D01*
X78425521Y-113965326D01*
X78595259Y-113711295D01*
X78811295Y-113495259D01*
X79065326Y-113325521D01*
X79347590Y-113208604D01*
X79497415Y-113178802D01*
X79647239Y-113149000D01*
X79952761Y-113149000D01*
X80102585Y-113178802D01*
X80102585Y-113178802D01*
G37*
G36*
X96302585Y-113178802D02*
G01*
X96452410Y-113208604D01*
X96734674Y-113325521D01*
X96988705Y-113495259D01*
X97204741Y-113711295D01*
X97374479Y-113965326D01*
X97491396Y-114247590D01*
X97491396Y-114247591D01*
X97551000Y-114547239D01*
X97551000Y-114852761D01*
X97541190Y-114902078D01*
X97491396Y-115152410D01*
X97374479Y-115434674D01*
X97204741Y-115688705D01*
X96988705Y-115904741D01*
X96734674Y-116074479D01*
X96452410Y-116191396D01*
X96302585Y-116221198D01*
X96152761Y-116251000D01*
X95847239Y-116251000D01*
X95697415Y-116221198D01*
X95547590Y-116191396D01*
X95265326Y-116074479D01*
X95011295Y-115904741D01*
X94795259Y-115688705D01*
X94625521Y-115434674D01*
X94508604Y-115152410D01*
X94458810Y-114902078D01*
X94449000Y-114852761D01*
X94449000Y-114547239D01*
X94508604Y-114247591D01*
X94508604Y-114247590D01*
X94625521Y-113965326D01*
X94795259Y-113711295D01*
X95011295Y-113495259D01*
X95265326Y-113325521D01*
X95547590Y-113208604D01*
X95697415Y-113178802D01*
X95847239Y-113149000D01*
X96152761Y-113149000D01*
X96302585Y-113178802D01*
X96302585Y-113178802D01*
G37*
G36*
X66302585Y-113178802D02*
G01*
X66452410Y-113208604D01*
X66734674Y-113325521D01*
X66988705Y-113495259D01*
X67204741Y-113711295D01*
X67374479Y-113965326D01*
X67491396Y-114247590D01*
X67491396Y-114247591D01*
X67551000Y-114547239D01*
X67551000Y-114852761D01*
X67541190Y-114902078D01*
X67491396Y-115152410D01*
X67374479Y-115434674D01*
X67204741Y-115688705D01*
X66988705Y-115904741D01*
X66734674Y-116074479D01*
X66452410Y-116191396D01*
X66302585Y-116221198D01*
X66152761Y-116251000D01*
X65847239Y-116251000D01*
X65697415Y-116221198D01*
X65547590Y-116191396D01*
X65265326Y-116074479D01*
X65011295Y-115904741D01*
X64795259Y-115688705D01*
X64625521Y-115434674D01*
X64508604Y-115152410D01*
X64458810Y-114902078D01*
X64449000Y-114852761D01*
X64449000Y-114547239D01*
X64508604Y-114247591D01*
X64508604Y-114247590D01*
X64625521Y-113965326D01*
X64795259Y-113711295D01*
X65011295Y-113495259D01*
X65265326Y-113325521D01*
X65547590Y-113208604D01*
X65697415Y-113178802D01*
X65847239Y-113149000D01*
X66152761Y-113149000D01*
X66302585Y-113178802D01*
X66302585Y-113178802D01*
G37*
G36*
X50102585Y-113178802D02*
G01*
X50252410Y-113208604D01*
X50534674Y-113325521D01*
X50788705Y-113495259D01*
X51004741Y-113711295D01*
X51174479Y-113965326D01*
X51291396Y-114247590D01*
X51291396Y-114247591D01*
X51351000Y-114547239D01*
X51351000Y-114852761D01*
X51341190Y-114902078D01*
X51291396Y-115152410D01*
X51174479Y-115434674D01*
X51004741Y-115688705D01*
X50788705Y-115904741D01*
X50534674Y-116074479D01*
X50252410Y-116191396D01*
X50102585Y-116221198D01*
X49952761Y-116251000D01*
X49647239Y-116251000D01*
X49497415Y-116221198D01*
X49347590Y-116191396D01*
X49065326Y-116074479D01*
X48811295Y-115904741D01*
X48595259Y-115688705D01*
X48425521Y-115434674D01*
X48308604Y-115152410D01*
X48258810Y-114902078D01*
X48249000Y-114852761D01*
X48249000Y-114547239D01*
X48308604Y-114247591D01*
X48308604Y-114247590D01*
X48425521Y-113965326D01*
X48595259Y-113711295D01*
X48811295Y-113495259D01*
X49065326Y-113325521D01*
X49347590Y-113208604D01*
X49497415Y-113178802D01*
X49647239Y-113149000D01*
X49952761Y-113149000D01*
X50102585Y-113178802D01*
X50102585Y-113178802D01*
G37*
G36*
X183554823Y-113588313D02*
G01*
X183715242Y-113636976D01*
X183833101Y-113699973D01*
X183863078Y-113715996D01*
X183992659Y-113822341D01*
X184099004Y-113951922D01*
X184104062Y-113961385D01*
X184178024Y-114099758D01*
X184226687Y-114260177D01*
X184243117Y-114427000D01*
X184226687Y-114593823D01*
X184178024Y-114754242D01*
X184130860Y-114842480D01*
X184099004Y-114902078D01*
X183992659Y-115031659D01*
X183863078Y-115138004D01*
X183863076Y-115138005D01*
X183715242Y-115217024D01*
X183554823Y-115265687D01*
X183429804Y-115278000D01*
X183346196Y-115278000D01*
X183221177Y-115265687D01*
X183060758Y-115217024D01*
X182912924Y-115138005D01*
X182912922Y-115138004D01*
X182783341Y-115031659D01*
X182676996Y-114902078D01*
X182645140Y-114842480D01*
X182597976Y-114754242D01*
X182549313Y-114593823D01*
X182532883Y-114427000D01*
X182549313Y-114260177D01*
X182597976Y-114099758D01*
X182671938Y-113961385D01*
X182676996Y-113951922D01*
X182783341Y-113822341D01*
X182912922Y-113715996D01*
X182942899Y-113699973D01*
X183060758Y-113636976D01*
X183221177Y-113588313D01*
X183346196Y-113576000D01*
X183429804Y-113576000D01*
X183554823Y-113588313D01*
X183554823Y-113588313D01*
G37*
G36*
X161538228Y-113481703D02*
G01*
X161693100Y-113545853D01*
X161832481Y-113638985D01*
X161951015Y-113757519D01*
X162044147Y-113896900D01*
X162108297Y-114051772D01*
X162141000Y-114216184D01*
X162141000Y-114383816D01*
X162108297Y-114548228D01*
X162044147Y-114703100D01*
X161951015Y-114842481D01*
X161832481Y-114961015D01*
X161693100Y-115054147D01*
X161538228Y-115118297D01*
X161373816Y-115151000D01*
X161206184Y-115151000D01*
X161041772Y-115118297D01*
X160886900Y-115054147D01*
X160747519Y-114961015D01*
X160628985Y-114842481D01*
X160535853Y-114703100D01*
X160471703Y-114548228D01*
X160439000Y-114383816D01*
X160439000Y-114216184D01*
X160471703Y-114051772D01*
X160535853Y-113896900D01*
X160628985Y-113757519D01*
X160747519Y-113638985D01*
X160886900Y-113545853D01*
X161041772Y-113481703D01*
X161206184Y-113449000D01*
X161373816Y-113449000D01*
X161538228Y-113481703D01*
X161538228Y-113481703D01*
G37*
G36*
X238968000Y-115016000D02*
G01*
X236266000Y-115016000D01*
X236266000Y-112314000D01*
X238968000Y-112314000D01*
X238968000Y-115016000D01*
X238968000Y-115016000D01*
G37*
G36*
X171756564Y-112026389D02*
G01*
X171947833Y-112105615D01*
X171947835Y-112105616D01*
X172119973Y-112220635D01*
X172266365Y-112367027D01*
X172376707Y-112532165D01*
X172381385Y-112539167D01*
X172460611Y-112730436D01*
X172501000Y-112933484D01*
X172501000Y-113140516D01*
X172460611Y-113343564D01*
X172381385Y-113534833D01*
X172381384Y-113534835D01*
X172266365Y-113706973D01*
X172119973Y-113853365D01*
X171947835Y-113968384D01*
X171947834Y-113968385D01*
X171947833Y-113968385D01*
X171756564Y-114047611D01*
X171553516Y-114088000D01*
X171346484Y-114088000D01*
X171143436Y-114047611D01*
X170952167Y-113968385D01*
X170952166Y-113968385D01*
X170952165Y-113968384D01*
X170780027Y-113853365D01*
X170633635Y-113706973D01*
X170518616Y-113534835D01*
X170518615Y-113534833D01*
X170439389Y-113343564D01*
X170399000Y-113140516D01*
X170399000Y-112933484D01*
X170439389Y-112730436D01*
X170518615Y-112539167D01*
X170523294Y-112532165D01*
X170633635Y-112367027D01*
X170780027Y-112220635D01*
X170952165Y-112105616D01*
X170952167Y-112105615D01*
X171143436Y-112026389D01*
X171346484Y-111986000D01*
X171553516Y-111986000D01*
X171756564Y-112026389D01*
X171756564Y-112026389D01*
G37*
G36*
X141276564Y-112019389D02*
G01*
X141467833Y-112098615D01*
X141467835Y-112098616D01*
X141478311Y-112105616D01*
X141639973Y-112213635D01*
X141786365Y-112360027D01*
X141901385Y-112532167D01*
X141980611Y-112723436D01*
X142021000Y-112926484D01*
X142021000Y-113133516D01*
X141980611Y-113336564D01*
X141914877Y-113495260D01*
X141901384Y-113527835D01*
X141786365Y-113699973D01*
X141639973Y-113846365D01*
X141467835Y-113961384D01*
X141467834Y-113961385D01*
X141467833Y-113961385D01*
X141276564Y-114040611D01*
X141073516Y-114081000D01*
X140866484Y-114081000D01*
X140663436Y-114040611D01*
X140472167Y-113961385D01*
X140472166Y-113961385D01*
X140472165Y-113961384D01*
X140300027Y-113846365D01*
X140153635Y-113699973D01*
X140038616Y-113527835D01*
X140025123Y-113495260D01*
X139959389Y-113336564D01*
X139919000Y-113133516D01*
X139919000Y-112926484D01*
X139959389Y-112723436D01*
X140038615Y-112532167D01*
X140153635Y-112360027D01*
X140300027Y-112213635D01*
X140461689Y-112105616D01*
X140472165Y-112098616D01*
X140472167Y-112098615D01*
X140663436Y-112019389D01*
X140866484Y-111979000D01*
X141073516Y-111979000D01*
X141276564Y-112019389D01*
X141276564Y-112019389D01*
G37*
G36*
X151436564Y-112019389D02*
G01*
X151627833Y-112098615D01*
X151627835Y-112098616D01*
X151638311Y-112105616D01*
X151799973Y-112213635D01*
X151946365Y-112360027D01*
X152061385Y-112532167D01*
X152140611Y-112723436D01*
X152181000Y-112926484D01*
X152181000Y-113133516D01*
X152140611Y-113336564D01*
X152074877Y-113495260D01*
X152061384Y-113527835D01*
X151946365Y-113699973D01*
X151799973Y-113846365D01*
X151627835Y-113961384D01*
X151627834Y-113961385D01*
X151627833Y-113961385D01*
X151436564Y-114040611D01*
X151233516Y-114081000D01*
X151026484Y-114081000D01*
X150823436Y-114040611D01*
X150632167Y-113961385D01*
X150632166Y-113961385D01*
X150632165Y-113961384D01*
X150460027Y-113846365D01*
X150313635Y-113699973D01*
X150198616Y-113527835D01*
X150185123Y-113495260D01*
X150119389Y-113336564D01*
X150079000Y-113133516D01*
X150079000Y-112926484D01*
X150119389Y-112723436D01*
X150198615Y-112532167D01*
X150313635Y-112360027D01*
X150460027Y-112213635D01*
X150621689Y-112105616D01*
X150632165Y-112098616D01*
X150632167Y-112098615D01*
X150823436Y-112019389D01*
X151026484Y-111979000D01*
X151233516Y-111979000D01*
X151436564Y-112019389D01*
X151436564Y-112019389D01*
G37*
G36*
X219310000Y-113011000D02*
G01*
X216808000Y-113011000D01*
X216808000Y-110509000D01*
X219310000Y-110509000D01*
X219310000Y-113011000D01*
X219310000Y-113011000D01*
G37*
G36*
X225923903Y-110557075D02*
G01*
X226151571Y-110651378D01*
X226356466Y-110788285D01*
X226530715Y-110962534D01*
X226667622Y-111167429D01*
X226667623Y-111167431D01*
X226761925Y-111395097D01*
X226810000Y-111636786D01*
X226810000Y-111883214D01*
X226782913Y-112019389D01*
X226761925Y-112124903D01*
X226667622Y-112352571D01*
X226530715Y-112557466D01*
X226356466Y-112731715D01*
X226151571Y-112868622D01*
X226151570Y-112868623D01*
X226151569Y-112868623D01*
X225923903Y-112962925D01*
X225682214Y-113011000D01*
X225435786Y-113011000D01*
X225194097Y-112962925D01*
X224966431Y-112868623D01*
X224966430Y-112868623D01*
X224966429Y-112868622D01*
X224761534Y-112731715D01*
X224587285Y-112557466D01*
X224450378Y-112352571D01*
X224356075Y-112124903D01*
X224335087Y-112019389D01*
X224308000Y-111883214D01*
X224308000Y-111636786D01*
X224356075Y-111395097D01*
X224450377Y-111167431D01*
X224450378Y-111167429D01*
X224587285Y-110962534D01*
X224761534Y-110788285D01*
X224966429Y-110651378D01*
X225194097Y-110557075D01*
X225435786Y-110509000D01*
X225682214Y-110509000D01*
X225923903Y-110557075D01*
X225923903Y-110557075D01*
G37*
G36*
X73064823Y-110286313D02*
G01*
X73225242Y-110334976D01*
X73357906Y-110405886D01*
X73373078Y-110413996D01*
X73502659Y-110520341D01*
X73609004Y-110649922D01*
X73609005Y-110649924D01*
X73688024Y-110797758D01*
X73736687Y-110958177D01*
X73753117Y-111125000D01*
X73736687Y-111291823D01*
X73688024Y-111452242D01*
X73617114Y-111584906D01*
X73609004Y-111600078D01*
X73502659Y-111729659D01*
X73373078Y-111836004D01*
X73373076Y-111836005D01*
X73225242Y-111915024D01*
X73064823Y-111963687D01*
X72939804Y-111976000D01*
X72856196Y-111976000D01*
X72731177Y-111963687D01*
X72570758Y-111915024D01*
X72422924Y-111836005D01*
X72422922Y-111836004D01*
X72293341Y-111729659D01*
X72186996Y-111600078D01*
X72178886Y-111584906D01*
X72107976Y-111452242D01*
X72059313Y-111291823D01*
X72042883Y-111125000D01*
X72059313Y-110958177D01*
X72107976Y-110797758D01*
X72186995Y-110649924D01*
X72186996Y-110649922D01*
X72293341Y-110520341D01*
X72422922Y-110413996D01*
X72438094Y-110405886D01*
X72570758Y-110334976D01*
X72731177Y-110286313D01*
X72856196Y-110274000D01*
X72939804Y-110274000D01*
X73064823Y-110286313D01*
X73064823Y-110286313D01*
G37*
G36*
X208517903Y-108652075D02*
G01*
X208730234Y-108740025D01*
X208745571Y-108746378D01*
X208950466Y-108883285D01*
X209124715Y-109057534D01*
X209218505Y-109197900D01*
X209261623Y-109262431D01*
X209355925Y-109490097D01*
X209404000Y-109731786D01*
X209404000Y-109978214D01*
X209355925Y-110219903D01*
X209273334Y-110419297D01*
X209261622Y-110447571D01*
X209124715Y-110652466D01*
X208950466Y-110826715D01*
X208745571Y-110963622D01*
X208745570Y-110963623D01*
X208745569Y-110963623D01*
X208517903Y-111057925D01*
X208276214Y-111106000D01*
X208029786Y-111106000D01*
X207788097Y-111057925D01*
X207560431Y-110963623D01*
X207560430Y-110963623D01*
X207560429Y-110963622D01*
X207355534Y-110826715D01*
X207181285Y-110652466D01*
X207044378Y-110447571D01*
X207032667Y-110419297D01*
X206950075Y-110219903D01*
X206902000Y-109978214D01*
X206902000Y-109731786D01*
X206950075Y-109490097D01*
X207044377Y-109262431D01*
X207087495Y-109197900D01*
X207181285Y-109057534D01*
X207355534Y-108883285D01*
X207560429Y-108746378D01*
X207575767Y-108740025D01*
X207788097Y-108652075D01*
X208029786Y-108604000D01*
X208276214Y-108604000D01*
X208517903Y-108652075D01*
X208517903Y-108652075D01*
G37*
G36*
X198749228Y-108782703D02*
G01*
X198904100Y-108846853D01*
X199043481Y-108939985D01*
X199162015Y-109058519D01*
X199255147Y-109197900D01*
X199319297Y-109352772D01*
X199352000Y-109517184D01*
X199352000Y-109684816D01*
X199319297Y-109849228D01*
X199255147Y-110004100D01*
X199162015Y-110143481D01*
X199043481Y-110262015D01*
X198904100Y-110355147D01*
X198749228Y-110419297D01*
X198584816Y-110452000D01*
X198417184Y-110452000D01*
X198252772Y-110419297D01*
X198097900Y-110355147D01*
X197958519Y-110262015D01*
X197839985Y-110143481D01*
X197746853Y-110004100D01*
X197682703Y-109849228D01*
X197650000Y-109684816D01*
X197650000Y-109517184D01*
X197682703Y-109352772D01*
X197746853Y-109197900D01*
X197839985Y-109058519D01*
X197958519Y-108939985D01*
X198097900Y-108846853D01*
X198252772Y-108782703D01*
X198417184Y-108750000D01*
X198584816Y-108750000D01*
X198749228Y-108782703D01*
X198749228Y-108782703D01*
G37*
G36*
X81528228Y-107131703D02*
G01*
X81683100Y-107195853D01*
X81822481Y-107288985D01*
X81941015Y-107407519D01*
X82034147Y-107546900D01*
X82098297Y-107701772D01*
X82131000Y-107866184D01*
X82131000Y-108033816D01*
X82098297Y-108198228D01*
X82034147Y-108353100D01*
X81941015Y-108492481D01*
X81822481Y-108611015D01*
X81683100Y-108704147D01*
X81528228Y-108768297D01*
X81363816Y-108801000D01*
X81196184Y-108801000D01*
X81031772Y-108768297D01*
X80876900Y-108704147D01*
X80737519Y-108611015D01*
X80618985Y-108492481D01*
X80525853Y-108353100D01*
X80461703Y-108198228D01*
X80429000Y-108033816D01*
X80429000Y-107866184D01*
X80461703Y-107701772D01*
X80525853Y-107546900D01*
X80618985Y-107407519D01*
X80737519Y-107288985D01*
X80876900Y-107195853D01*
X81031772Y-107131703D01*
X81196184Y-107099000D01*
X81363816Y-107099000D01*
X81528228Y-107131703D01*
X81528228Y-107131703D01*
G37*
G36*
X96686823Y-107111313D02*
G01*
X96847242Y-107159976D01*
X96914361Y-107195852D01*
X96995078Y-107238996D01*
X97124659Y-107345341D01*
X97231004Y-107474922D01*
X97231005Y-107474924D01*
X97310024Y-107622758D01*
X97358687Y-107783177D01*
X97375117Y-107950000D01*
X97358687Y-108116823D01*
X97310024Y-108277242D01*
X97269477Y-108353100D01*
X97231004Y-108425078D01*
X97124659Y-108554659D01*
X96995078Y-108661004D01*
X96995076Y-108661005D01*
X96847242Y-108740024D01*
X96686823Y-108788687D01*
X96561804Y-108801000D01*
X96478196Y-108801000D01*
X96353177Y-108788687D01*
X96192758Y-108740024D01*
X96044924Y-108661005D01*
X96044922Y-108661004D01*
X95915341Y-108554659D01*
X95808996Y-108425078D01*
X95770523Y-108353100D01*
X95729976Y-108277242D01*
X95681313Y-108116823D01*
X95664883Y-107950000D01*
X95681313Y-107783177D01*
X95729976Y-107622758D01*
X95808995Y-107474924D01*
X95808996Y-107474922D01*
X95915341Y-107345341D01*
X96044922Y-107238996D01*
X96125639Y-107195852D01*
X96192758Y-107159976D01*
X96353177Y-107111313D01*
X96478196Y-107099000D01*
X96561804Y-107099000D01*
X96686823Y-107111313D01*
X96686823Y-107111313D01*
G37*
G36*
X63285823Y-107111313D02*
G01*
X63446242Y-107159976D01*
X63513361Y-107195852D01*
X63594078Y-107238996D01*
X63723659Y-107345341D01*
X63830004Y-107474922D01*
X63830005Y-107474924D01*
X63909024Y-107622758D01*
X63957687Y-107783177D01*
X63974117Y-107950000D01*
X63957687Y-108116823D01*
X63909024Y-108277242D01*
X63868477Y-108353100D01*
X63830004Y-108425078D01*
X63723659Y-108554659D01*
X63594078Y-108661004D01*
X63594076Y-108661005D01*
X63446242Y-108740024D01*
X63285823Y-108788687D01*
X63160804Y-108801000D01*
X63077196Y-108801000D01*
X62952177Y-108788687D01*
X62791758Y-108740024D01*
X62643924Y-108661005D01*
X62643922Y-108661004D01*
X62514341Y-108554659D01*
X62407996Y-108425078D01*
X62369523Y-108353100D01*
X62328976Y-108277242D01*
X62280313Y-108116823D01*
X62263883Y-107950000D01*
X62280313Y-107783177D01*
X62328976Y-107622758D01*
X62407995Y-107474924D01*
X62407996Y-107474922D01*
X62514341Y-107345341D01*
X62643922Y-107238996D01*
X62724639Y-107195852D01*
X62791758Y-107159976D01*
X62952177Y-107111313D01*
X63077196Y-107099000D01*
X63160804Y-107099000D01*
X63285823Y-107111313D01*
X63285823Y-107111313D01*
G37*
G36*
X73966564Y-105803389D02*
G01*
X74133367Y-105872481D01*
X74157835Y-105882616D01*
X74262394Y-105952480D01*
X74329973Y-105997635D01*
X74476365Y-106144027D01*
X74591385Y-106316167D01*
X74670611Y-106507436D01*
X74711000Y-106710484D01*
X74711000Y-106917516D01*
X74670611Y-107120564D01*
X74639425Y-107195853D01*
X74591384Y-107311835D01*
X74476365Y-107483973D01*
X74329973Y-107630365D01*
X74157835Y-107745384D01*
X74157834Y-107745385D01*
X74157833Y-107745385D01*
X73966564Y-107824611D01*
X73763516Y-107865000D01*
X73556484Y-107865000D01*
X73353436Y-107824611D01*
X73162167Y-107745385D01*
X73162166Y-107745385D01*
X73162165Y-107745384D01*
X72990027Y-107630365D01*
X72843635Y-107483973D01*
X72728616Y-107311835D01*
X72680575Y-107195853D01*
X72649389Y-107120564D01*
X72609000Y-106917516D01*
X72609000Y-106710484D01*
X72649389Y-106507436D01*
X72728615Y-106316167D01*
X72843635Y-106144027D01*
X72990027Y-105997635D01*
X73057606Y-105952480D01*
X73162165Y-105882616D01*
X73186633Y-105872481D01*
X73353436Y-105803389D01*
X73556484Y-105763000D01*
X73763516Y-105763000D01*
X73966564Y-105803389D01*
X73966564Y-105803389D01*
G37*
G36*
X192163000Y-106946000D02*
G01*
X190361000Y-106946000D01*
X190361000Y-105144000D01*
X192163000Y-105144000D01*
X192163000Y-106946000D01*
X192163000Y-106946000D01*
G37*
G36*
X171756564Y-104526389D02*
G01*
X171947833Y-104605615D01*
X171947835Y-104605616D01*
X172119973Y-104720635D01*
X172266365Y-104867027D01*
X172376707Y-105032165D01*
X172381385Y-105039167D01*
X172460611Y-105230436D01*
X172501000Y-105433484D01*
X172501000Y-105640516D01*
X172460611Y-105843564D01*
X172381385Y-106034833D01*
X172381384Y-106034835D01*
X172266365Y-106206973D01*
X172119973Y-106353365D01*
X171947835Y-106468384D01*
X171947834Y-106468385D01*
X171947833Y-106468385D01*
X171756564Y-106547611D01*
X171553516Y-106588000D01*
X171346484Y-106588000D01*
X171143436Y-106547611D01*
X170952167Y-106468385D01*
X170952166Y-106468385D01*
X170952165Y-106468384D01*
X170780027Y-106353365D01*
X170633635Y-106206973D01*
X170518616Y-106034835D01*
X170518615Y-106034833D01*
X170439389Y-105843564D01*
X170399000Y-105640516D01*
X170399000Y-105433484D01*
X170439389Y-105230436D01*
X170518615Y-105039167D01*
X170523294Y-105032165D01*
X170633635Y-104867027D01*
X170780027Y-104720635D01*
X170952165Y-104605616D01*
X170952167Y-104605615D01*
X171143436Y-104526389D01*
X171346484Y-104486000D01*
X171553516Y-104486000D01*
X171756564Y-104526389D01*
X171756564Y-104526389D01*
G37*
G36*
X141276564Y-104519389D02*
G01*
X141467833Y-104598615D01*
X141467835Y-104598616D01*
X141639973Y-104713635D01*
X141786365Y-104860027D01*
X141894023Y-105021148D01*
X141901385Y-105032167D01*
X141980611Y-105223436D01*
X142021000Y-105426484D01*
X142021000Y-105633516D01*
X141980611Y-105836564D01*
X141916635Y-105991015D01*
X141901384Y-106027835D01*
X141786365Y-106199973D01*
X141639973Y-106346365D01*
X141467835Y-106461384D01*
X141467834Y-106461385D01*
X141467833Y-106461385D01*
X141276564Y-106540611D01*
X141073516Y-106581000D01*
X140866484Y-106581000D01*
X140663436Y-106540611D01*
X140472167Y-106461385D01*
X140472166Y-106461385D01*
X140472165Y-106461384D01*
X140300027Y-106346365D01*
X140153635Y-106199973D01*
X140038616Y-106027835D01*
X140023365Y-105991015D01*
X139959389Y-105836564D01*
X139919000Y-105633516D01*
X139919000Y-105426484D01*
X139959389Y-105223436D01*
X140038615Y-105032167D01*
X140045978Y-105021148D01*
X140153635Y-104860027D01*
X140300027Y-104713635D01*
X140472165Y-104598616D01*
X140472167Y-104598615D01*
X140663436Y-104519389D01*
X140866484Y-104479000D01*
X141073516Y-104479000D01*
X141276564Y-104519389D01*
X141276564Y-104519389D01*
G37*
G36*
X151436564Y-104519389D02*
G01*
X151627833Y-104598615D01*
X151627835Y-104598616D01*
X151799973Y-104713635D01*
X151946365Y-104860027D01*
X152054023Y-105021148D01*
X152061385Y-105032167D01*
X152140611Y-105223436D01*
X152181000Y-105426484D01*
X152181000Y-105633516D01*
X152140611Y-105836564D01*
X152076635Y-105991015D01*
X152061384Y-106027835D01*
X151946365Y-106199973D01*
X151799973Y-106346365D01*
X151627835Y-106461384D01*
X151627834Y-106461385D01*
X151627833Y-106461385D01*
X151436564Y-106540611D01*
X151233516Y-106581000D01*
X151026484Y-106581000D01*
X150823436Y-106540611D01*
X150632167Y-106461385D01*
X150632166Y-106461385D01*
X150632165Y-106461384D01*
X150460027Y-106346365D01*
X150313635Y-106199973D01*
X150198616Y-106027835D01*
X150183365Y-105991015D01*
X150119389Y-105836564D01*
X150079000Y-105633516D01*
X150079000Y-105426484D01*
X150119389Y-105223436D01*
X150198615Y-105032167D01*
X150205978Y-105021148D01*
X150313635Y-104860027D01*
X150460027Y-104713635D01*
X150632165Y-104598616D01*
X150632167Y-104598615D01*
X150823436Y-104519389D01*
X151026484Y-104479000D01*
X151233516Y-104479000D01*
X151436564Y-104519389D01*
X151436564Y-104519389D01*
G37*
G36*
X104388228Y-104591703D02*
G01*
X104543100Y-104655853D01*
X104682481Y-104748985D01*
X104801015Y-104867519D01*
X104894147Y-105006900D01*
X104958297Y-105161772D01*
X104991000Y-105326184D01*
X104991000Y-105493816D01*
X104958297Y-105658228D01*
X104894147Y-105813100D01*
X104801015Y-105952481D01*
X104682481Y-106071015D01*
X104543100Y-106164147D01*
X104388228Y-106228297D01*
X104223816Y-106261000D01*
X104056184Y-106261000D01*
X103891772Y-106228297D01*
X103736900Y-106164147D01*
X103597519Y-106071015D01*
X103478985Y-105952481D01*
X103385853Y-105813100D01*
X103321703Y-105658228D01*
X103289000Y-105493816D01*
X103289000Y-105326184D01*
X103321703Y-105161772D01*
X103385853Y-105006900D01*
X103478985Y-104867519D01*
X103597519Y-104748985D01*
X103736900Y-104655853D01*
X103891772Y-104591703D01*
X104056184Y-104559000D01*
X104223816Y-104559000D01*
X104388228Y-104591703D01*
X104388228Y-104591703D01*
G37*
G36*
X112008228Y-104511703D02*
G01*
X112163100Y-104575853D01*
X112302481Y-104668985D01*
X112421015Y-104787519D01*
X112514147Y-104926900D01*
X112578297Y-105081772D01*
X112611000Y-105246184D01*
X112611000Y-105413816D01*
X112578297Y-105578228D01*
X112514147Y-105733100D01*
X112421015Y-105872481D01*
X112302481Y-105991015D01*
X112163100Y-106084147D01*
X112008228Y-106148297D01*
X111843816Y-106181000D01*
X111676184Y-106181000D01*
X111511772Y-106148297D01*
X111356900Y-106084147D01*
X111217519Y-105991015D01*
X111098985Y-105872481D01*
X111005853Y-105733100D01*
X110941703Y-105578228D01*
X110909000Y-105413816D01*
X110909000Y-105246184D01*
X110941703Y-105081772D01*
X111005853Y-104926900D01*
X111098985Y-104787519D01*
X111217519Y-104668985D01*
X111356900Y-104575853D01*
X111511772Y-104511703D01*
X111676184Y-104479000D01*
X111843816Y-104479000D01*
X112008228Y-104511703D01*
X112008228Y-104511703D01*
G37*
G36*
X183636228Y-103448703D02*
G01*
X183791100Y-103512853D01*
X183930481Y-103605985D01*
X184049015Y-103724519D01*
X184142147Y-103863900D01*
X184206297Y-104018772D01*
X184239000Y-104183184D01*
X184239000Y-104350816D01*
X184206297Y-104515228D01*
X184142147Y-104670100D01*
X184049015Y-104809481D01*
X183930481Y-104928015D01*
X183791100Y-105021147D01*
X183636228Y-105085297D01*
X183471816Y-105118000D01*
X183304184Y-105118000D01*
X183139772Y-105085297D01*
X182984900Y-105021147D01*
X182845519Y-104928015D01*
X182726985Y-104809481D01*
X182633853Y-104670100D01*
X182569703Y-104515228D01*
X182537000Y-104350816D01*
X182537000Y-104183184D01*
X182569703Y-104018772D01*
X182633853Y-103863900D01*
X182726985Y-103724519D01*
X182845519Y-103605985D01*
X182984900Y-103512853D01*
X183139772Y-103448703D01*
X183304184Y-103416000D01*
X183471816Y-103416000D01*
X183636228Y-103448703D01*
X183636228Y-103448703D01*
G37*
G36*
X161456823Y-103301313D02*
G01*
X161617242Y-103349976D01*
X161740764Y-103416000D01*
X161765078Y-103428996D01*
X161894659Y-103535341D01*
X162001004Y-103664922D01*
X162001005Y-103664924D01*
X162080024Y-103812758D01*
X162128687Y-103973177D01*
X162145117Y-104140000D01*
X162128687Y-104306823D01*
X162080024Y-104467242D01*
X162030978Y-104559000D01*
X162001004Y-104615078D01*
X161894659Y-104744659D01*
X161765078Y-104851004D01*
X161765076Y-104851005D01*
X161617242Y-104930024D01*
X161456823Y-104978687D01*
X161331804Y-104991000D01*
X161248196Y-104991000D01*
X161123177Y-104978687D01*
X160962758Y-104930024D01*
X160814924Y-104851005D01*
X160814922Y-104851004D01*
X160685341Y-104744659D01*
X160578996Y-104615078D01*
X160549022Y-104559000D01*
X160499976Y-104467242D01*
X160451313Y-104306823D01*
X160434883Y-104140000D01*
X160451313Y-103973177D01*
X160499976Y-103812758D01*
X160578995Y-103664924D01*
X160578996Y-103664922D01*
X160685341Y-103535341D01*
X160814922Y-103428996D01*
X160839236Y-103416000D01*
X160962758Y-103349976D01*
X161123177Y-103301313D01*
X161248196Y-103289000D01*
X161331804Y-103289000D01*
X161456823Y-103301313D01*
X161456823Y-103301313D01*
G37*
G36*
X89206564Y-102755389D02*
G01*
X89397833Y-102834615D01*
X89397835Y-102834616D01*
X89569973Y-102949635D01*
X89716365Y-103096027D01*
X89831385Y-103268167D01*
X89910611Y-103459436D01*
X89951000Y-103662484D01*
X89951000Y-103869516D01*
X89910611Y-104072564D01*
X89864790Y-104183185D01*
X89831384Y-104263835D01*
X89716365Y-104435973D01*
X89569973Y-104582365D01*
X89397835Y-104697384D01*
X89397834Y-104697385D01*
X89397833Y-104697385D01*
X89206564Y-104776611D01*
X89003516Y-104817000D01*
X88796484Y-104817000D01*
X88593436Y-104776611D01*
X88402167Y-104697385D01*
X88402166Y-104697385D01*
X88402165Y-104697384D01*
X88230027Y-104582365D01*
X88083635Y-104435973D01*
X87968616Y-104263835D01*
X87935210Y-104183185D01*
X87889389Y-104072564D01*
X87849000Y-103869516D01*
X87849000Y-103662484D01*
X87889389Y-103459436D01*
X87968615Y-103268167D01*
X88083635Y-103096027D01*
X88230027Y-102949635D01*
X88402165Y-102834616D01*
X88402167Y-102834615D01*
X88593436Y-102755389D01*
X88796484Y-102715000D01*
X89003516Y-102715000D01*
X89206564Y-102755389D01*
X89206564Y-102755389D01*
G37*
G36*
X215365898Y-99353823D02*
G01*
X215502903Y-99381075D01*
X215730571Y-99475378D01*
X215935466Y-99612285D01*
X216109715Y-99786534D01*
X216241640Y-99983973D01*
X216246623Y-99991431D01*
X216340925Y-100219097D01*
X216389000Y-100460786D01*
X216389000Y-100707214D01*
X216340925Y-100948903D01*
X216258334Y-101148297D01*
X216246622Y-101176571D01*
X216109715Y-101381466D01*
X215935466Y-101555715D01*
X215730571Y-101692622D01*
X215730570Y-101692623D01*
X215730569Y-101692623D01*
X215502903Y-101786925D01*
X215261214Y-101835000D01*
X215014786Y-101835000D01*
X214773097Y-101786925D01*
X214545431Y-101692623D01*
X214545430Y-101692623D01*
X214545429Y-101692622D01*
X214340534Y-101555715D01*
X214166285Y-101381466D01*
X214029378Y-101176571D01*
X214017667Y-101148297D01*
X213935075Y-100948903D01*
X213887000Y-100707214D01*
X213887000Y-100460786D01*
X213935075Y-100219097D01*
X214029377Y-99991431D01*
X214034360Y-99983973D01*
X214166285Y-99786534D01*
X214340534Y-99612285D01*
X214545429Y-99475378D01*
X214773097Y-99381075D01*
X214910102Y-99353823D01*
X215014786Y-99333000D01*
X215261214Y-99333000D01*
X215365898Y-99353823D01*
X215365898Y-99353823D01*
G37*
G36*
X104388228Y-99591703D02*
G01*
X104543100Y-99655853D01*
X104682481Y-99748985D01*
X104801015Y-99867519D01*
X104894147Y-100006900D01*
X104958297Y-100161772D01*
X104991000Y-100326184D01*
X104991000Y-100493816D01*
X104958297Y-100658228D01*
X104894147Y-100813100D01*
X104801015Y-100952481D01*
X104682481Y-101071015D01*
X104543100Y-101164147D01*
X104388228Y-101228297D01*
X104223816Y-101261000D01*
X104056184Y-101261000D01*
X103891772Y-101228297D01*
X103736900Y-101164147D01*
X103597519Y-101071015D01*
X103478985Y-100952481D01*
X103385853Y-100813100D01*
X103321703Y-100658228D01*
X103289000Y-100493816D01*
X103289000Y-100326184D01*
X103321703Y-100161772D01*
X103385853Y-100006900D01*
X103478985Y-99867519D01*
X103597519Y-99748985D01*
X103736900Y-99655853D01*
X103891772Y-99591703D01*
X104056184Y-99559000D01*
X104223816Y-99559000D01*
X104388228Y-99591703D01*
X104388228Y-99591703D01*
G37*
G36*
X112008228Y-99511703D02*
G01*
X112163100Y-99575853D01*
X112302481Y-99668985D01*
X112421015Y-99787519D01*
X112514147Y-99926900D01*
X112578297Y-100081772D01*
X112611000Y-100246184D01*
X112611000Y-100413816D01*
X112578297Y-100578228D01*
X112514147Y-100733100D01*
X112421015Y-100872481D01*
X112302481Y-100991015D01*
X112163100Y-101084147D01*
X112008228Y-101148297D01*
X111843816Y-101181000D01*
X111676184Y-101181000D01*
X111511772Y-101148297D01*
X111356900Y-101084147D01*
X111217519Y-100991015D01*
X111098985Y-100872481D01*
X111005853Y-100733100D01*
X110941703Y-100578228D01*
X110909000Y-100413816D01*
X110909000Y-100246184D01*
X110941703Y-100081772D01*
X111005853Y-99926900D01*
X111098985Y-99787519D01*
X111217519Y-99668985D01*
X111356900Y-99575853D01*
X111511772Y-99511703D01*
X111676184Y-99479000D01*
X111843816Y-99479000D01*
X112008228Y-99511703D01*
X112008228Y-99511703D01*
G37*
G36*
X73966564Y-98303389D02*
G01*
X74130376Y-98371242D01*
X74157835Y-98382616D01*
X74329973Y-98497635D01*
X74476365Y-98644027D01*
X74579345Y-98798147D01*
X74591385Y-98816167D01*
X74670611Y-99007436D01*
X74711000Y-99210484D01*
X74711000Y-99417516D01*
X74670611Y-99620564D01*
X74625496Y-99729481D01*
X74591384Y-99811835D01*
X74476365Y-99983973D01*
X74329973Y-100130365D01*
X74157835Y-100245384D01*
X74157834Y-100245385D01*
X74157833Y-100245385D01*
X73966564Y-100324611D01*
X73763516Y-100365000D01*
X73556484Y-100365000D01*
X73353436Y-100324611D01*
X73162167Y-100245385D01*
X73162166Y-100245385D01*
X73162165Y-100245384D01*
X72990027Y-100130365D01*
X72843635Y-99983973D01*
X72728616Y-99811835D01*
X72694504Y-99729481D01*
X72649389Y-99620564D01*
X72609000Y-99417516D01*
X72609000Y-99210484D01*
X72649389Y-99007436D01*
X72728615Y-98816167D01*
X72740656Y-98798147D01*
X72843635Y-98644027D01*
X72990027Y-98497635D01*
X73162165Y-98382616D01*
X73189624Y-98371242D01*
X73353436Y-98303389D01*
X73556484Y-98263000D01*
X73763516Y-98263000D01*
X73966564Y-98303389D01*
X73966564Y-98303389D01*
G37*
G36*
X198667823Y-98602313D02*
G01*
X198828242Y-98650976D01*
X198960906Y-98721886D01*
X198976078Y-98729996D01*
X199105659Y-98836341D01*
X199212004Y-98965922D01*
X199212005Y-98965924D01*
X199291024Y-99113758D01*
X199339687Y-99274177D01*
X199356117Y-99441000D01*
X199339687Y-99607823D01*
X199291024Y-99768242D01*
X199278507Y-99791659D01*
X199212004Y-99916078D01*
X199105659Y-100045659D01*
X198976078Y-100152004D01*
X198976076Y-100152005D01*
X198828242Y-100231024D01*
X198667823Y-100279687D01*
X198542804Y-100292000D01*
X198459196Y-100292000D01*
X198334177Y-100279687D01*
X198173758Y-100231024D01*
X198025924Y-100152005D01*
X198025922Y-100152004D01*
X197896341Y-100045659D01*
X197789996Y-99916078D01*
X197723493Y-99791659D01*
X197710976Y-99768242D01*
X197662313Y-99607823D01*
X197645883Y-99441000D01*
X197662313Y-99274177D01*
X197710976Y-99113758D01*
X197789995Y-98965924D01*
X197789996Y-98965922D01*
X197896341Y-98836341D01*
X198025922Y-98729996D01*
X198041094Y-98721886D01*
X198173758Y-98650976D01*
X198334177Y-98602313D01*
X198459196Y-98590000D01*
X198542804Y-98590000D01*
X198667823Y-98602313D01*
X198667823Y-98602313D01*
G37*
G36*
X177331823Y-98348313D02*
G01*
X177492242Y-98396976D01*
X177624906Y-98467886D01*
X177640078Y-98475996D01*
X177769659Y-98582341D01*
X177876004Y-98711922D01*
X177876005Y-98711924D01*
X177955024Y-98859758D01*
X177955025Y-98859761D01*
X177964083Y-98889620D01*
X178003687Y-99020177D01*
X178020117Y-99187000D01*
X178003687Y-99353823D01*
X177955024Y-99514242D01*
X177914477Y-99590100D01*
X177876004Y-99662078D01*
X177769659Y-99791659D01*
X177640078Y-99898004D01*
X177640076Y-99898005D01*
X177492242Y-99977024D01*
X177331823Y-100025687D01*
X177206804Y-100038000D01*
X177123196Y-100038000D01*
X176998177Y-100025687D01*
X176837758Y-99977024D01*
X176689924Y-99898005D01*
X176689922Y-99898004D01*
X176560341Y-99791659D01*
X176453996Y-99662078D01*
X176415523Y-99590100D01*
X176374976Y-99514242D01*
X176326313Y-99353823D01*
X176309883Y-99187000D01*
X176326313Y-99020177D01*
X176365917Y-98889620D01*
X176374975Y-98859761D01*
X176374976Y-98859758D01*
X176453995Y-98711924D01*
X176453996Y-98711922D01*
X176560341Y-98582341D01*
X176689922Y-98475996D01*
X176705094Y-98467886D01*
X176837758Y-98396976D01*
X176998177Y-98348313D01*
X177123196Y-98336000D01*
X177206804Y-98336000D01*
X177331823Y-98348313D01*
X177331823Y-98348313D01*
G37*
G36*
X187573228Y-98368703D02*
G01*
X187728100Y-98432853D01*
X187867481Y-98525985D01*
X187986015Y-98644519D01*
X188079147Y-98783900D01*
X188143297Y-98938772D01*
X188176000Y-99103184D01*
X188176000Y-99270816D01*
X188143297Y-99435228D01*
X188079147Y-99590100D01*
X187986015Y-99729481D01*
X187867481Y-99848015D01*
X187728100Y-99941147D01*
X187573228Y-100005297D01*
X187408816Y-100038000D01*
X187241184Y-100038000D01*
X187076772Y-100005297D01*
X186921900Y-99941147D01*
X186782519Y-99848015D01*
X186663985Y-99729481D01*
X186570853Y-99590100D01*
X186506703Y-99435228D01*
X186474000Y-99270816D01*
X186474000Y-99103184D01*
X186506703Y-98938772D01*
X186570853Y-98783900D01*
X186663985Y-98644519D01*
X186782519Y-98525985D01*
X186921900Y-98432853D01*
X187076772Y-98368703D01*
X187241184Y-98336000D01*
X187408816Y-98336000D01*
X187573228Y-98368703D01*
X187573228Y-98368703D01*
G37*
G36*
X120009228Y-97225703D02*
G01*
X120164100Y-97289853D01*
X120303481Y-97382985D01*
X120422015Y-97501519D01*
X120515147Y-97640900D01*
X120579297Y-97795772D01*
X120612000Y-97960184D01*
X120612000Y-98127816D01*
X120579297Y-98292228D01*
X120515147Y-98447100D01*
X120422015Y-98586481D01*
X120303481Y-98705015D01*
X120164100Y-98798147D01*
X120009228Y-98862297D01*
X119844816Y-98895000D01*
X119677184Y-98895000D01*
X119512772Y-98862297D01*
X119357900Y-98798147D01*
X119218519Y-98705015D01*
X119099985Y-98586481D01*
X119006853Y-98447100D01*
X118942703Y-98292228D01*
X118910000Y-98127816D01*
X118910000Y-97960184D01*
X118942703Y-97795772D01*
X119006853Y-97640900D01*
X119099985Y-97501519D01*
X119218519Y-97382985D01*
X119357900Y-97289853D01*
X119512772Y-97225703D01*
X119677184Y-97193000D01*
X119844816Y-97193000D01*
X120009228Y-97225703D01*
X120009228Y-97225703D01*
G37*
G36*
X130087823Y-97205313D02*
G01*
X130248242Y-97253976D01*
X130366151Y-97317000D01*
X130396078Y-97332996D01*
X130525659Y-97439341D01*
X130632004Y-97568922D01*
X130632005Y-97568924D01*
X130711024Y-97716758D01*
X130759687Y-97877177D01*
X130776117Y-98044000D01*
X130759687Y-98210823D01*
X130731607Y-98303389D01*
X130717980Y-98348313D01*
X130711024Y-98371242D01*
X130670477Y-98447100D01*
X130632004Y-98519078D01*
X130525659Y-98648659D01*
X130396078Y-98755004D01*
X130396076Y-98755005D01*
X130248242Y-98834024D01*
X130087823Y-98882687D01*
X129962804Y-98895000D01*
X129879196Y-98895000D01*
X129754177Y-98882687D01*
X129593758Y-98834024D01*
X129445924Y-98755005D01*
X129445922Y-98755004D01*
X129316341Y-98648659D01*
X129209996Y-98519078D01*
X129171523Y-98447100D01*
X129130976Y-98371242D01*
X129124021Y-98348313D01*
X129110393Y-98303389D01*
X129082313Y-98210823D01*
X129065883Y-98044000D01*
X129082313Y-97877177D01*
X129130976Y-97716758D01*
X129209995Y-97568924D01*
X129209996Y-97568922D01*
X129316341Y-97439341D01*
X129445922Y-97332996D01*
X129475849Y-97317000D01*
X129593758Y-97253976D01*
X129754177Y-97205313D01*
X129879196Y-97193000D01*
X129962804Y-97193000D01*
X130087823Y-97205313D01*
X130087823Y-97205313D01*
G37*
G36*
X96768228Y-96971703D02*
G01*
X96923100Y-97035853D01*
X97062481Y-97128985D01*
X97181015Y-97247519D01*
X97274147Y-97386900D01*
X97338297Y-97541772D01*
X97371000Y-97706184D01*
X97371000Y-97873816D01*
X97338297Y-98038228D01*
X97274147Y-98193100D01*
X97181015Y-98332481D01*
X97062481Y-98451015D01*
X96923100Y-98544147D01*
X96768228Y-98608297D01*
X96603816Y-98641000D01*
X96436184Y-98641000D01*
X96271772Y-98608297D01*
X96116900Y-98544147D01*
X95977519Y-98451015D01*
X95858985Y-98332481D01*
X95765853Y-98193100D01*
X95701703Y-98038228D01*
X95669000Y-97873816D01*
X95669000Y-97706184D01*
X95701703Y-97541772D01*
X95765853Y-97386900D01*
X95858985Y-97247519D01*
X95977519Y-97128985D01*
X96116900Y-97035853D01*
X96271772Y-96971703D01*
X96436184Y-96939000D01*
X96603816Y-96939000D01*
X96768228Y-96971703D01*
X96768228Y-96971703D01*
G37*
G36*
X81446823Y-96951313D02*
G01*
X81607242Y-96999976D01*
X81739906Y-97070886D01*
X81755078Y-97078996D01*
X81884659Y-97185341D01*
X81991004Y-97314922D01*
X81991005Y-97314924D01*
X82070024Y-97462758D01*
X82118687Y-97623177D01*
X82135117Y-97790000D01*
X82118687Y-97956823D01*
X82070024Y-98117242D01*
X82029477Y-98193100D01*
X81991004Y-98265078D01*
X81884659Y-98394659D01*
X81755078Y-98501004D01*
X81755076Y-98501005D01*
X81607242Y-98580024D01*
X81446823Y-98628687D01*
X81321804Y-98641000D01*
X81238196Y-98641000D01*
X81113177Y-98628687D01*
X80952758Y-98580024D01*
X80804924Y-98501005D01*
X80804922Y-98501004D01*
X80675341Y-98394659D01*
X80568996Y-98265078D01*
X80530523Y-98193100D01*
X80489976Y-98117242D01*
X80441313Y-97956823D01*
X80424883Y-97790000D01*
X80441313Y-97623177D01*
X80489976Y-97462758D01*
X80568995Y-97314924D01*
X80568996Y-97314922D01*
X80675341Y-97185341D01*
X80804922Y-97078996D01*
X80820094Y-97070886D01*
X80952758Y-96999976D01*
X81113177Y-96951313D01*
X81238196Y-96939000D01*
X81321804Y-96939000D01*
X81446823Y-96951313D01*
X81446823Y-96951313D01*
G37*
G36*
X63367228Y-96971703D02*
G01*
X63522100Y-97035853D01*
X63661481Y-97128985D01*
X63780015Y-97247519D01*
X63873147Y-97386900D01*
X63937297Y-97541772D01*
X63970000Y-97706184D01*
X63970000Y-97873816D01*
X63937297Y-98038228D01*
X63873147Y-98193100D01*
X63780015Y-98332481D01*
X63661481Y-98451015D01*
X63522100Y-98544147D01*
X63367228Y-98608297D01*
X63202816Y-98641000D01*
X63035184Y-98641000D01*
X62870772Y-98608297D01*
X62715900Y-98544147D01*
X62576519Y-98451015D01*
X62457985Y-98332481D01*
X62364853Y-98193100D01*
X62300703Y-98038228D01*
X62268000Y-97873816D01*
X62268000Y-97706184D01*
X62300703Y-97541772D01*
X62364853Y-97386900D01*
X62457985Y-97247519D01*
X62576519Y-97128985D01*
X62715900Y-97035853D01*
X62870772Y-96971703D01*
X63035184Y-96939000D01*
X63202816Y-96939000D01*
X63367228Y-96971703D01*
X63367228Y-96971703D01*
G37*
G36*
X52445228Y-95701703D02*
G01*
X52600100Y-95765853D01*
X52739481Y-95858985D01*
X52858015Y-95977519D01*
X52951147Y-96116900D01*
X53015297Y-96271772D01*
X53048000Y-96436184D01*
X53048000Y-96603816D01*
X53015297Y-96768228D01*
X52951147Y-96923100D01*
X52858015Y-97062481D01*
X52739481Y-97181015D01*
X52600100Y-97274147D01*
X52445228Y-97338297D01*
X52280816Y-97371000D01*
X52113184Y-97371000D01*
X51948772Y-97338297D01*
X51793900Y-97274147D01*
X51654519Y-97181015D01*
X51535985Y-97062481D01*
X51442853Y-96923100D01*
X51378703Y-96768228D01*
X51346000Y-96603816D01*
X51346000Y-96436184D01*
X51378703Y-96271772D01*
X51442853Y-96116900D01*
X51535985Y-95977519D01*
X51654519Y-95858985D01*
X51793900Y-95765853D01*
X51948772Y-95701703D01*
X52113184Y-95669000D01*
X52280816Y-95669000D01*
X52445228Y-95701703D01*
X52445228Y-95701703D01*
G37*
G36*
X89206564Y-95255389D02*
G01*
X89346569Y-95313381D01*
X89397835Y-95334616D01*
X89569973Y-95449635D01*
X89716365Y-95596027D01*
X89829839Y-95765852D01*
X89831385Y-95768167D01*
X89910611Y-95959436D01*
X89951000Y-96162484D01*
X89951000Y-96369516D01*
X89910611Y-96572564D01*
X89897666Y-96603815D01*
X89831384Y-96763835D01*
X89716365Y-96935973D01*
X89569973Y-97082365D01*
X89397835Y-97197384D01*
X89397834Y-97197385D01*
X89397833Y-97197385D01*
X89206564Y-97276611D01*
X89003516Y-97317000D01*
X88796484Y-97317000D01*
X88593436Y-97276611D01*
X88402167Y-97197385D01*
X88402166Y-97197385D01*
X88402165Y-97197384D01*
X88230027Y-97082365D01*
X88083635Y-96935973D01*
X87968616Y-96763835D01*
X87902334Y-96603815D01*
X87889389Y-96572564D01*
X87849000Y-96369516D01*
X87849000Y-96162484D01*
X87889389Y-95959436D01*
X87968615Y-95768167D01*
X87970162Y-95765852D01*
X88083635Y-95596027D01*
X88230027Y-95449635D01*
X88402165Y-95334616D01*
X88453431Y-95313381D01*
X88593436Y-95255389D01*
X88796484Y-95215000D01*
X89003516Y-95215000D01*
X89206564Y-95255389D01*
X89206564Y-95255389D01*
G37*
G36*
X208398239Y-93382101D02*
G01*
X208634053Y-93453634D01*
X208851381Y-93569799D01*
X209041871Y-93726129D01*
X209198201Y-93916619D01*
X209314366Y-94133947D01*
X209385899Y-94369761D01*
X209410053Y-94615000D01*
X209385899Y-94860239D01*
X209314366Y-95096053D01*
X209198201Y-95313381D01*
X209041871Y-95503871D01*
X208851381Y-95660201D01*
X208634053Y-95776366D01*
X208398239Y-95847899D01*
X208214457Y-95866000D01*
X208091543Y-95866000D01*
X207907761Y-95847899D01*
X207671947Y-95776366D01*
X207454619Y-95660201D01*
X207264129Y-95503871D01*
X207107799Y-95313381D01*
X206991634Y-95096053D01*
X206920101Y-94860239D01*
X206895947Y-94615000D01*
X206920101Y-94369761D01*
X206991634Y-94133947D01*
X207107799Y-93916619D01*
X207264129Y-93726129D01*
X207454619Y-93569799D01*
X207671947Y-93453634D01*
X207907761Y-93382101D01*
X208091543Y-93364000D01*
X208214457Y-93364000D01*
X208398239Y-93382101D01*
X208398239Y-93382101D01*
G37*
G36*
X227692000Y-93199000D02*
G01*
X225190000Y-93199000D01*
X225190000Y-90697000D01*
X227692000Y-90697000D01*
X227692000Y-93199000D01*
X227692000Y-93199000D01*
G37*
G36*
X234305903Y-90745075D02*
G01*
X234428191Y-90795728D01*
X234533571Y-90839378D01*
X234738466Y-90976285D01*
X234912715Y-91150534D01*
X235049622Y-91355429D01*
X235049623Y-91355431D01*
X235098935Y-91474481D01*
X235143925Y-91583097D01*
X235192000Y-91824787D01*
X235192000Y-92071213D01*
X235143925Y-92312903D01*
X235049622Y-92540571D01*
X234912715Y-92745466D01*
X234738466Y-92919715D01*
X234533571Y-93056622D01*
X234533570Y-93056623D01*
X234533569Y-93056623D01*
X234305903Y-93150925D01*
X234064214Y-93199000D01*
X233817786Y-93199000D01*
X233576097Y-93150925D01*
X233348431Y-93056623D01*
X233348430Y-93056623D01*
X233348429Y-93056622D01*
X233143534Y-92919715D01*
X232969285Y-92745466D01*
X232832378Y-92540571D01*
X232738075Y-92312903D01*
X232690000Y-92071213D01*
X232690000Y-91824787D01*
X232738075Y-91583097D01*
X232783065Y-91474481D01*
X232832377Y-91355431D01*
X232832378Y-91355429D01*
X232969285Y-91150534D01*
X233143534Y-90976285D01*
X233348429Y-90839378D01*
X233453810Y-90795728D01*
X233576097Y-90745075D01*
X233817786Y-90697000D01*
X234064214Y-90697000D01*
X234305903Y-90745075D01*
X234305903Y-90745075D01*
G37*
G36*
X79115228Y-90113703D02*
G01*
X79270100Y-90177853D01*
X79409481Y-90270985D01*
X79528015Y-90389519D01*
X79621147Y-90528900D01*
X79685297Y-90683772D01*
X79718000Y-90848184D01*
X79718000Y-91015816D01*
X79685297Y-91180228D01*
X79621147Y-91335100D01*
X79528015Y-91474481D01*
X79409481Y-91593015D01*
X79270100Y-91686147D01*
X79115228Y-91750297D01*
X78950816Y-91783000D01*
X78783184Y-91783000D01*
X78618772Y-91750297D01*
X78463900Y-91686147D01*
X78324519Y-91593015D01*
X78205985Y-91474481D01*
X78112853Y-91335100D01*
X78048703Y-91180228D01*
X78016000Y-91015816D01*
X78016000Y-90848184D01*
X78048703Y-90683772D01*
X78112853Y-90528900D01*
X78205985Y-90389519D01*
X78324519Y-90270985D01*
X78463900Y-90177853D01*
X78618772Y-90113703D01*
X78783184Y-90081000D01*
X78950816Y-90081000D01*
X79115228Y-90113703D01*
X79115228Y-90113703D01*
G37*
G36*
X84115228Y-90113703D02*
G01*
X84270100Y-90177853D01*
X84409481Y-90270985D01*
X84528015Y-90389519D01*
X84621147Y-90528900D01*
X84685297Y-90683772D01*
X84718000Y-90848184D01*
X84718000Y-91015816D01*
X84685297Y-91180228D01*
X84621147Y-91335100D01*
X84528015Y-91474481D01*
X84409481Y-91593015D01*
X84270100Y-91686147D01*
X84115228Y-91750297D01*
X83950816Y-91783000D01*
X83783184Y-91783000D01*
X83618772Y-91750297D01*
X83463900Y-91686147D01*
X83324519Y-91593015D01*
X83205985Y-91474481D01*
X83112853Y-91335100D01*
X83048703Y-91180228D01*
X83016000Y-91015816D01*
X83016000Y-90848184D01*
X83048703Y-90683772D01*
X83112853Y-90528900D01*
X83205985Y-90389519D01*
X83324519Y-90270985D01*
X83463900Y-90177853D01*
X83618772Y-90113703D01*
X83783184Y-90081000D01*
X83950816Y-90081000D01*
X84115228Y-90113703D01*
X84115228Y-90113703D01*
G37*
G36*
X169284466Y-88999344D02*
G01*
X169422322Y-89026765D01*
X169536144Y-89073912D01*
X169662727Y-89126344D01*
X169662728Y-89126345D01*
X169879089Y-89270912D01*
X170063088Y-89454911D01*
X170114383Y-89531680D01*
X170207656Y-89671273D01*
X170233101Y-89732703D01*
X170307235Y-89911678D01*
X170326498Y-90008519D01*
X170358000Y-90166891D01*
X170358000Y-90427109D01*
X170350028Y-90467185D01*
X170307235Y-90682322D01*
X170275851Y-90758089D01*
X170207656Y-90922727D01*
X170207655Y-90922728D01*
X170063088Y-91139089D01*
X169879089Y-91323088D01*
X169779417Y-91389686D01*
X169662727Y-91467656D01*
X169606369Y-91491000D01*
X169422322Y-91567235D01*
X169294715Y-91592617D01*
X169167109Y-91618000D01*
X168906891Y-91618000D01*
X168779285Y-91592617D01*
X168651678Y-91567235D01*
X168467631Y-91491000D01*
X168411273Y-91467656D01*
X168294583Y-91389686D01*
X168194911Y-91323088D01*
X168010912Y-91139089D01*
X167866345Y-90922728D01*
X167866344Y-90922727D01*
X167798149Y-90758089D01*
X167766765Y-90682322D01*
X167723972Y-90467185D01*
X167716000Y-90427109D01*
X167716000Y-90166891D01*
X167747502Y-90008519D01*
X167766765Y-89911678D01*
X167840899Y-89732703D01*
X167866344Y-89671273D01*
X167959617Y-89531680D01*
X168010912Y-89454911D01*
X168194911Y-89270912D01*
X168411272Y-89126345D01*
X168411273Y-89126344D01*
X168537856Y-89073912D01*
X168651678Y-89026765D01*
X168789534Y-88999344D01*
X168906891Y-88976000D01*
X169167109Y-88976000D01*
X169284466Y-88999344D01*
X169284466Y-88999344D01*
G37*
G36*
X158870466Y-88872344D02*
G01*
X159008322Y-88899765D01*
X159149148Y-88958097D01*
X159248727Y-88999344D01*
X159248728Y-88999345D01*
X159465089Y-89143912D01*
X159649088Y-89327911D01*
X159733946Y-89454911D01*
X159793656Y-89544273D01*
X159811887Y-89588288D01*
X159893235Y-89784678D01*
X159904238Y-89839995D01*
X159944000Y-90039891D01*
X159944000Y-90300109D01*
X159940223Y-90319097D01*
X159893235Y-90555322D01*
X159840029Y-90683771D01*
X159793656Y-90795727D01*
X159779164Y-90817416D01*
X159649088Y-91012089D01*
X159465089Y-91196088D01*
X159320521Y-91292685D01*
X159248727Y-91340656D01*
X159149148Y-91381903D01*
X159008322Y-91440235D01*
X158880714Y-91465618D01*
X158753109Y-91491000D01*
X158492891Y-91491000D01*
X158365286Y-91465618D01*
X158237678Y-91440235D01*
X158096852Y-91381903D01*
X157997273Y-91340656D01*
X157925479Y-91292685D01*
X157780911Y-91196088D01*
X157596912Y-91012089D01*
X157466836Y-90817416D01*
X157452344Y-90795727D01*
X157405971Y-90683771D01*
X157352765Y-90555322D01*
X157305777Y-90319097D01*
X157302000Y-90300109D01*
X157302000Y-90039891D01*
X157341762Y-89839995D01*
X157352765Y-89784678D01*
X157434113Y-89588288D01*
X157452344Y-89544273D01*
X157512054Y-89454911D01*
X157596912Y-89327911D01*
X157780911Y-89143912D01*
X157997272Y-88999345D01*
X157997273Y-88999344D01*
X158096852Y-88958097D01*
X158237678Y-88899765D01*
X158375534Y-88872344D01*
X158492891Y-88849000D01*
X158753109Y-88849000D01*
X158870466Y-88872344D01*
X158870466Y-88872344D01*
G37*
G36*
X129960823Y-89712313D02*
G01*
X130121242Y-89760976D01*
X130169729Y-89786893D01*
X130269078Y-89839996D01*
X130398659Y-89946341D01*
X130505004Y-90075922D01*
X130507718Y-90081000D01*
X130584024Y-90223758D01*
X130632687Y-90384177D01*
X130649117Y-90551000D01*
X130632687Y-90717823D01*
X130584024Y-90878242D01*
X130543477Y-90954100D01*
X130505004Y-91026078D01*
X130398659Y-91155659D01*
X130269078Y-91262004D01*
X130269076Y-91262005D01*
X130121242Y-91341024D01*
X129960823Y-91389687D01*
X129835804Y-91402000D01*
X129752196Y-91402000D01*
X129627177Y-91389687D01*
X129466758Y-91341024D01*
X129318924Y-91262005D01*
X129318922Y-91262004D01*
X129189341Y-91155659D01*
X129082996Y-91026078D01*
X129044523Y-90954100D01*
X129003976Y-90878242D01*
X128955313Y-90717823D01*
X128938883Y-90551000D01*
X128955313Y-90384177D01*
X129003976Y-90223758D01*
X129080282Y-90081000D01*
X129082996Y-90075922D01*
X129189341Y-89946341D01*
X129318922Y-89839996D01*
X129418271Y-89786893D01*
X129466758Y-89760976D01*
X129627177Y-89712313D01*
X129752196Y-89700000D01*
X129835804Y-89700000D01*
X129960823Y-89712313D01*
X129960823Y-89712313D01*
G37*
G36*
X119882228Y-89732703D02*
G01*
X120037100Y-89796853D01*
X120176481Y-89889985D01*
X120295015Y-90008519D01*
X120388147Y-90147900D01*
X120452297Y-90302772D01*
X120485000Y-90467184D01*
X120485000Y-90634816D01*
X120452297Y-90799228D01*
X120388147Y-90954100D01*
X120295015Y-91093481D01*
X120176481Y-91212015D01*
X120037100Y-91305147D01*
X119882228Y-91369297D01*
X119717816Y-91402000D01*
X119550184Y-91402000D01*
X119385772Y-91369297D01*
X119230900Y-91305147D01*
X119091519Y-91212015D01*
X118972985Y-91093481D01*
X118879853Y-90954100D01*
X118815703Y-90799228D01*
X118783000Y-90634816D01*
X118783000Y-90467184D01*
X118815703Y-90302772D01*
X118879853Y-90147900D01*
X118972985Y-90008519D01*
X119091519Y-89889985D01*
X119230900Y-89796853D01*
X119385772Y-89732703D01*
X119550184Y-89700000D01*
X119717816Y-89700000D01*
X119882228Y-89732703D01*
X119882228Y-89732703D01*
G37*
G36*
X113526439Y-88745344D02*
G01*
X113669322Y-88773765D01*
X113810148Y-88832097D01*
X113909727Y-88873344D01*
X113936019Y-88890912D01*
X114126089Y-89017912D01*
X114310088Y-89201911D01*
X114369129Y-89290273D01*
X114454656Y-89418273D01*
X114469832Y-89454912D01*
X114554235Y-89658678D01*
X114564904Y-89712314D01*
X114605000Y-89913891D01*
X114605000Y-90174109D01*
X114587119Y-90264000D01*
X114554235Y-90429322D01*
X114507261Y-90542727D01*
X114454656Y-90669727D01*
X114446240Y-90682322D01*
X114310088Y-90886089D01*
X114126089Y-91070088D01*
X114022821Y-91139089D01*
X113909727Y-91214656D01*
X113855783Y-91237000D01*
X113669322Y-91314235D01*
X113541715Y-91339617D01*
X113414109Y-91365000D01*
X113153891Y-91365000D01*
X113026285Y-91339617D01*
X112898678Y-91314235D01*
X112712217Y-91237000D01*
X112658273Y-91214656D01*
X112545179Y-91139089D01*
X112441911Y-91070088D01*
X112257912Y-90886089D01*
X112121760Y-90682322D01*
X112113344Y-90669727D01*
X112060739Y-90542727D01*
X112013765Y-90429322D01*
X111980881Y-90264000D01*
X111963000Y-90174109D01*
X111963000Y-89913891D01*
X112003096Y-89712314D01*
X112013765Y-89658678D01*
X112098168Y-89454912D01*
X112113344Y-89418273D01*
X112198871Y-89290273D01*
X112257912Y-89201911D01*
X112441911Y-89017912D01*
X112631981Y-88890912D01*
X112658273Y-88873344D01*
X112757852Y-88832097D01*
X112898678Y-88773765D01*
X113041561Y-88745344D01*
X113153891Y-88723000D01*
X113414109Y-88723000D01*
X113526439Y-88745344D01*
X113526439Y-88745344D01*
G37*
G36*
X72637466Y-88745344D02*
G01*
X72775322Y-88772765D01*
X72916148Y-88831097D01*
X73015727Y-88872344D01*
X73017225Y-88873345D01*
X73232089Y-89016912D01*
X73416088Y-89200911D01*
X73490983Y-89313000D01*
X73560656Y-89417273D01*
X73582267Y-89469447D01*
X73660235Y-89657678D01*
X73680782Y-89760975D01*
X73711000Y-89912891D01*
X73711000Y-90173109D01*
X73691531Y-90270985D01*
X73660235Y-90428322D01*
X73601903Y-90569148D01*
X73560656Y-90668727D01*
X73527851Y-90717823D01*
X73416088Y-90885089D01*
X73232089Y-91069088D01*
X73115697Y-91146858D01*
X73015727Y-91213656D01*
X72916148Y-91254903D01*
X72775322Y-91313235D01*
X72665413Y-91335097D01*
X72520109Y-91364000D01*
X72259891Y-91364000D01*
X72114587Y-91335097D01*
X72004678Y-91313235D01*
X71863852Y-91254903D01*
X71764273Y-91213656D01*
X71664303Y-91146858D01*
X71547911Y-91069088D01*
X71363912Y-90885089D01*
X71252149Y-90717823D01*
X71219344Y-90668727D01*
X71178097Y-90569148D01*
X71119765Y-90428322D01*
X71088469Y-90270985D01*
X71069000Y-90173109D01*
X71069000Y-89912891D01*
X71099218Y-89760975D01*
X71119765Y-89657678D01*
X71197733Y-89469447D01*
X71219344Y-89417273D01*
X71289017Y-89313000D01*
X71363912Y-89200911D01*
X71547911Y-89016912D01*
X71762775Y-88873345D01*
X71764273Y-88872344D01*
X71863852Y-88831097D01*
X72004678Y-88772765D01*
X72142534Y-88745344D01*
X72259891Y-88722000D01*
X72520109Y-88722000D01*
X72637466Y-88745344D01*
X72637466Y-88745344D01*
G37*
G36*
X103127714Y-88621382D02*
G01*
X103255322Y-88646765D01*
X103396148Y-88705097D01*
X103495727Y-88746344D01*
X103535269Y-88772765D01*
X103712089Y-88890912D01*
X103896088Y-89074911D01*
X103954180Y-89161852D01*
X104040656Y-89291273D01*
X104077880Y-89381140D01*
X104140235Y-89531678D01*
X104140235Y-89531680D01*
X104191000Y-89786891D01*
X104191000Y-90047109D01*
X104177753Y-90113705D01*
X104140235Y-90302322D01*
X104081903Y-90443148D01*
X104040656Y-90542727D01*
X104032240Y-90555322D01*
X103896088Y-90759089D01*
X103712089Y-90943088D01*
X103608821Y-91012089D01*
X103495727Y-91087656D01*
X103411477Y-91122553D01*
X103255322Y-91187235D01*
X103130743Y-91212015D01*
X103000109Y-91238000D01*
X102739891Y-91238000D01*
X102609257Y-91212015D01*
X102484678Y-91187235D01*
X102328523Y-91122553D01*
X102244273Y-91087656D01*
X102131179Y-91012089D01*
X102027911Y-90943088D01*
X101843912Y-90759089D01*
X101707760Y-90555322D01*
X101699344Y-90542727D01*
X101658097Y-90443148D01*
X101599765Y-90302322D01*
X101562247Y-90113705D01*
X101549000Y-90047109D01*
X101549000Y-89786891D01*
X101599765Y-89531680D01*
X101599765Y-89531678D01*
X101662120Y-89381140D01*
X101699344Y-89291273D01*
X101785820Y-89161852D01*
X101843912Y-89074911D01*
X102027911Y-88890912D01*
X102204731Y-88772765D01*
X102244273Y-88746344D01*
X102343852Y-88705097D01*
X102484678Y-88646765D01*
X102612286Y-88621382D01*
X102739891Y-88596000D01*
X103000109Y-88596000D01*
X103127714Y-88621382D01*
X103127714Y-88621382D01*
G37*
G36*
X62233714Y-88620382D02*
G01*
X62361322Y-88645765D01*
X62502148Y-88704097D01*
X62601727Y-88745344D01*
X62603225Y-88746345D01*
X62818089Y-88889912D01*
X63002088Y-89073911D01*
X63086946Y-89200911D01*
X63146656Y-89290273D01*
X63162246Y-89327911D01*
X63246235Y-89530678D01*
X63246235Y-89530680D01*
X63297000Y-89785891D01*
X63297000Y-90046109D01*
X63283554Y-90113705D01*
X63246235Y-90301322D01*
X63193216Y-90429320D01*
X63146656Y-90541727D01*
X63145987Y-90542728D01*
X63002088Y-90758089D01*
X62818089Y-90942088D01*
X62692391Y-91026076D01*
X62601727Y-91086656D01*
X62515063Y-91122553D01*
X62361322Y-91186235D01*
X62233715Y-91211617D01*
X62106109Y-91237000D01*
X61845891Y-91237000D01*
X61718285Y-91211617D01*
X61590678Y-91186235D01*
X61436937Y-91122553D01*
X61350273Y-91086656D01*
X61259609Y-91026076D01*
X61133911Y-90942088D01*
X60949912Y-90758089D01*
X60806013Y-90542728D01*
X60805344Y-90541727D01*
X60758784Y-90429320D01*
X60705765Y-90301322D01*
X60668446Y-90113705D01*
X60655000Y-90046109D01*
X60655000Y-89785891D01*
X60705765Y-89530680D01*
X60705765Y-89530678D01*
X60789754Y-89327911D01*
X60805344Y-89290273D01*
X60865054Y-89200911D01*
X60949912Y-89073911D01*
X61133911Y-88889912D01*
X61348775Y-88746345D01*
X61350273Y-88745344D01*
X61449852Y-88704097D01*
X61590678Y-88645765D01*
X61718286Y-88620382D01*
X61845891Y-88595000D01*
X62106109Y-88595000D01*
X62233714Y-88620382D01*
X62233714Y-88620382D01*
G37*
G36*
X194970999Y-91215000D02*
G01*
X193068999Y-91215000D01*
X193068999Y-89313000D01*
X194970999Y-89313000D01*
X194970999Y-91215000D01*
X194970999Y-91215000D01*
G37*
G36*
X204366424Y-89326760D02*
G01*
X204366427Y-89326761D01*
X204366428Y-89326761D01*
X204545692Y-89381140D01*
X204545695Y-89381142D01*
X204545696Y-89381142D01*
X204710902Y-89469446D01*
X204855711Y-89588288D01*
X204974553Y-89733097D01*
X205031691Y-89839996D01*
X205062859Y-89898307D01*
X205107694Y-90046109D01*
X205117239Y-90077575D01*
X205135600Y-90264000D01*
X205117239Y-90450425D01*
X205117238Y-90450428D01*
X205117238Y-90450429D01*
X205062859Y-90629693D01*
X205062857Y-90629696D01*
X205062857Y-90629697D01*
X204974553Y-90794903D01*
X204855711Y-90939712D01*
X204710902Y-91058554D01*
X204545696Y-91146858D01*
X204545692Y-91146860D01*
X204366428Y-91201239D01*
X204366427Y-91201239D01*
X204366424Y-91201240D01*
X204226717Y-91215000D01*
X204133281Y-91215000D01*
X203993574Y-91201240D01*
X203993571Y-91201239D01*
X203993570Y-91201239D01*
X203814306Y-91146860D01*
X203814302Y-91146858D01*
X203649096Y-91058554D01*
X203504287Y-90939712D01*
X203385445Y-90794903D01*
X203297141Y-90629697D01*
X203297141Y-90629696D01*
X203297139Y-90629693D01*
X203242760Y-90450429D01*
X203242760Y-90450428D01*
X203242759Y-90450425D01*
X203224398Y-90264000D01*
X203242759Y-90077575D01*
X203252304Y-90046109D01*
X203297139Y-89898307D01*
X203328307Y-89839996D01*
X203385445Y-89733097D01*
X203504287Y-89588288D01*
X203649096Y-89469446D01*
X203814302Y-89381142D01*
X203814303Y-89381142D01*
X203814306Y-89381140D01*
X203993570Y-89326761D01*
X203993571Y-89326761D01*
X203993574Y-89326760D01*
X204133281Y-89313000D01*
X204226717Y-89313000D01*
X204366424Y-89326760D01*
X204366424Y-89326760D01*
G37*
G36*
X148330256Y-87926298D02*
G01*
X148436579Y-87947447D01*
X148649037Y-88035450D01*
X148689543Y-88052228D01*
X148737042Y-88071903D01*
X149007451Y-88252585D01*
X149237415Y-88482549D01*
X149418097Y-88752958D01*
X149542553Y-89053421D01*
X149546828Y-89074912D01*
X149606000Y-89372389D01*
X149606000Y-89697611D01*
X149567734Y-89889985D01*
X149542553Y-90016579D01*
X149515869Y-90081000D01*
X149424609Y-90301322D01*
X149418097Y-90317042D01*
X149237415Y-90587451D01*
X149007451Y-90817415D01*
X148737042Y-90998097D01*
X148737041Y-90998098D01*
X148737040Y-90998098D01*
X148694267Y-91015815D01*
X148436579Y-91122553D01*
X148353452Y-91139088D01*
X148117611Y-91186000D01*
X147792389Y-91186000D01*
X147556548Y-91139088D01*
X147473421Y-91122553D01*
X147215733Y-91015815D01*
X147172960Y-90998098D01*
X147172959Y-90998098D01*
X147172958Y-90998097D01*
X146902549Y-90817415D01*
X146672585Y-90587451D01*
X146491903Y-90317042D01*
X146485392Y-90301322D01*
X146394131Y-90081000D01*
X146367447Y-90016579D01*
X146342266Y-89889985D01*
X146304000Y-89697611D01*
X146304000Y-89372389D01*
X146363172Y-89074912D01*
X146367447Y-89053421D01*
X146491903Y-88752958D01*
X146672585Y-88482549D01*
X146902549Y-88252585D01*
X147172958Y-88071903D01*
X147220458Y-88052228D01*
X147260963Y-88035450D01*
X147473421Y-87947447D01*
X147579744Y-87926298D01*
X147792389Y-87884000D01*
X148117611Y-87884000D01*
X148330256Y-87926298D01*
X148330256Y-87926298D01*
G37*
G36*
X134487228Y-89097703D02*
G01*
X134642100Y-89161853D01*
X134781481Y-89254985D01*
X134900015Y-89373519D01*
X134993147Y-89512900D01*
X135057297Y-89667772D01*
X135090000Y-89832184D01*
X135090000Y-89999816D01*
X135057297Y-90164228D01*
X134993147Y-90319100D01*
X134900015Y-90458481D01*
X134781481Y-90577015D01*
X134642100Y-90670147D01*
X134487228Y-90734297D01*
X134322816Y-90767000D01*
X134155184Y-90767000D01*
X133990772Y-90734297D01*
X133835900Y-90670147D01*
X133696519Y-90577015D01*
X133577985Y-90458481D01*
X133484853Y-90319100D01*
X133420703Y-90164228D01*
X133388000Y-89999816D01*
X133388000Y-89832184D01*
X133420703Y-89667772D01*
X133484853Y-89512900D01*
X133577985Y-89373519D01*
X133696519Y-89254985D01*
X133835900Y-89161853D01*
X133990772Y-89097703D01*
X134155184Y-89065000D01*
X134322816Y-89065000D01*
X134487228Y-89097703D01*
X134487228Y-89097703D01*
G37*
G36*
X141744000Y-90309000D02*
G01*
X139942000Y-90309000D01*
X139942000Y-88507000D01*
X141744000Y-88507000D01*
X141744000Y-90309000D01*
X141744000Y-90309000D01*
G37*
G36*
X87878228Y-86985703D02*
G01*
X88033100Y-87049853D01*
X88172481Y-87142985D01*
X88291015Y-87261519D01*
X88384147Y-87400900D01*
X88448297Y-87555772D01*
X88481000Y-87720184D01*
X88481000Y-87887816D01*
X88448297Y-88052228D01*
X88384147Y-88207100D01*
X88291015Y-88346481D01*
X88172481Y-88465015D01*
X88033100Y-88558147D01*
X87878228Y-88622297D01*
X87713816Y-88655000D01*
X87546184Y-88655000D01*
X87381772Y-88622297D01*
X87226900Y-88558147D01*
X87087519Y-88465015D01*
X86968985Y-88346481D01*
X86875853Y-88207100D01*
X86811703Y-88052228D01*
X86779000Y-87887816D01*
X86779000Y-87720184D01*
X86811703Y-87555772D01*
X86875853Y-87400900D01*
X86968985Y-87261519D01*
X87087519Y-87142985D01*
X87226900Y-87049853D01*
X87381772Y-86985703D01*
X87546184Y-86953000D01*
X87713816Y-86953000D01*
X87878228Y-86985703D01*
X87878228Y-86985703D01*
G37*
G36*
X92876823Y-86791313D02*
G01*
X93037242Y-86839976D01*
X93134738Y-86892089D01*
X93185078Y-86918996D01*
X93314659Y-87025341D01*
X93421004Y-87154922D01*
X93421005Y-87154924D01*
X93500024Y-87302758D01*
X93548687Y-87463177D01*
X93565117Y-87630000D01*
X93548687Y-87796823D01*
X93500024Y-87957242D01*
X93449253Y-88052228D01*
X93421004Y-88105078D01*
X93314659Y-88234659D01*
X93185078Y-88341004D01*
X93185076Y-88341005D01*
X93037242Y-88420024D01*
X92876823Y-88468687D01*
X92751804Y-88481000D01*
X92668196Y-88481000D01*
X92543177Y-88468687D01*
X92382758Y-88420024D01*
X92234924Y-88341005D01*
X92234922Y-88341004D01*
X92105341Y-88234659D01*
X91998996Y-88105078D01*
X91970747Y-88052228D01*
X91919976Y-87957242D01*
X91871313Y-87796823D01*
X91854883Y-87630000D01*
X91871313Y-87463177D01*
X91919976Y-87302758D01*
X91998995Y-87154924D01*
X91998996Y-87154922D01*
X92105341Y-87025341D01*
X92234922Y-86918996D01*
X92285262Y-86892089D01*
X92382758Y-86839976D01*
X92543177Y-86791313D01*
X92668196Y-86779000D01*
X92751804Y-86779000D01*
X92876823Y-86791313D01*
X92876823Y-86791313D01*
G37*
G36*
X155950466Y-84752344D02*
G01*
X156088322Y-84779765D01*
X156202144Y-84826912D01*
X156328727Y-84879344D01*
X156328728Y-84879345D01*
X156545089Y-85023912D01*
X156729088Y-85207911D01*
X156780383Y-85284680D01*
X156873656Y-85424273D01*
X156908751Y-85509000D01*
X156973235Y-85664678D01*
X156977312Y-85685175D01*
X157024000Y-85919891D01*
X157024000Y-86180109D01*
X157011092Y-86245000D01*
X156973235Y-86435322D01*
X156941851Y-86511089D01*
X156873656Y-86675727D01*
X156863660Y-86690687D01*
X156729088Y-86892089D01*
X156545089Y-87076088D01*
X156444970Y-87142985D01*
X156328727Y-87220656D01*
X156272369Y-87244000D01*
X156088322Y-87320235D01*
X155960714Y-87345618D01*
X155833109Y-87371000D01*
X155572891Y-87371000D01*
X155445286Y-87345618D01*
X155317678Y-87320235D01*
X155133631Y-87244000D01*
X155077273Y-87220656D01*
X154961030Y-87142985D01*
X154860911Y-87076088D01*
X154676912Y-86892089D01*
X154542340Y-86690687D01*
X154532344Y-86675727D01*
X154464149Y-86511089D01*
X154432765Y-86435322D01*
X154394908Y-86245000D01*
X154382000Y-86180109D01*
X154382000Y-85919891D01*
X154428688Y-85685175D01*
X154432765Y-85664678D01*
X154497249Y-85509000D01*
X154532344Y-85424273D01*
X154625617Y-85284680D01*
X154676912Y-85207911D01*
X154860911Y-85023912D01*
X155077272Y-84879345D01*
X155077273Y-84879344D01*
X155203856Y-84826912D01*
X155317678Y-84779765D01*
X155455534Y-84752344D01*
X155572891Y-84729000D01*
X155833109Y-84729000D01*
X155950466Y-84752344D01*
X155950466Y-84752344D01*
G37*
G36*
X172331466Y-84625344D02*
G01*
X172469322Y-84652765D01*
X172610148Y-84711097D01*
X172709727Y-84752344D01*
X172709728Y-84752345D01*
X172926089Y-84896912D01*
X173110088Y-85080911D01*
X173194946Y-85207911D01*
X173254656Y-85297273D01*
X173287647Y-85376922D01*
X173354235Y-85537678D01*
X173360659Y-85569975D01*
X173405000Y-85792891D01*
X173405000Y-86053109D01*
X173379911Y-86179239D01*
X173354235Y-86308322D01*
X173295903Y-86449148D01*
X173254656Y-86548727D01*
X173206685Y-86620521D01*
X173110088Y-86765089D01*
X172926089Y-86949088D01*
X172781521Y-87045685D01*
X172709727Y-87093656D01*
X172610148Y-87134903D01*
X172469322Y-87193235D01*
X172341715Y-87218617D01*
X172214109Y-87244000D01*
X171953891Y-87244000D01*
X171826285Y-87218617D01*
X171698678Y-87193235D01*
X171557852Y-87134903D01*
X171458273Y-87093656D01*
X171386479Y-87045685D01*
X171241911Y-86949088D01*
X171057912Y-86765089D01*
X170961315Y-86620521D01*
X170913344Y-86548727D01*
X170872097Y-86449148D01*
X170813765Y-86308322D01*
X170788089Y-86179239D01*
X170763000Y-86053109D01*
X170763000Y-85792891D01*
X170807341Y-85569975D01*
X170813765Y-85537678D01*
X170880353Y-85376922D01*
X170913344Y-85297273D01*
X170973054Y-85207911D01*
X171057912Y-85080911D01*
X171241911Y-84896912D01*
X171458272Y-84752345D01*
X171458273Y-84752344D01*
X171557852Y-84711097D01*
X171698678Y-84652765D01*
X171836534Y-84625344D01*
X171953891Y-84602000D01*
X172214109Y-84602000D01*
X172331466Y-84625344D01*
X172331466Y-84625344D01*
G37*
G36*
X52363823Y-85521313D02*
G01*
X52524242Y-85569976D01*
X52656906Y-85640886D01*
X52672078Y-85648996D01*
X52801659Y-85755341D01*
X52908004Y-85884922D01*
X52908005Y-85884924D01*
X52987024Y-86032758D01*
X53035687Y-86193177D01*
X53052117Y-86360000D01*
X53035687Y-86526823D01*
X52987024Y-86687242D01*
X52978601Y-86703000D01*
X52908004Y-86835078D01*
X52801659Y-86964659D01*
X52672078Y-87071004D01*
X52672076Y-87071005D01*
X52524242Y-87150024D01*
X52363823Y-87198687D01*
X52238804Y-87211000D01*
X52155196Y-87211000D01*
X52030177Y-87198687D01*
X51869758Y-87150024D01*
X51721924Y-87071005D01*
X51721922Y-87071004D01*
X51592341Y-86964659D01*
X51485996Y-86835078D01*
X51415399Y-86703000D01*
X51406976Y-86687242D01*
X51358313Y-86526823D01*
X51341883Y-86360000D01*
X51358313Y-86193177D01*
X51406976Y-86032758D01*
X51485995Y-85884924D01*
X51485996Y-85884922D01*
X51592341Y-85755341D01*
X51721922Y-85648996D01*
X51737094Y-85640886D01*
X51869758Y-85569976D01*
X52030177Y-85521313D01*
X52155196Y-85509000D01*
X52238804Y-85509000D01*
X52363823Y-85521313D01*
X52363823Y-85521313D01*
G37*
G36*
X100192439Y-84498344D02*
G01*
X100335322Y-84526765D01*
X100476148Y-84585097D01*
X100575727Y-84626344D01*
X100602019Y-84643912D01*
X100792089Y-84770912D01*
X100976088Y-84954911D01*
X101035129Y-85043273D01*
X101120656Y-85171273D01*
X101135832Y-85207912D01*
X101220235Y-85411678D01*
X101220235Y-85411680D01*
X101270560Y-85664678D01*
X101271000Y-85666893D01*
X101271000Y-85927107D01*
X101220235Y-86182322D01*
X101173261Y-86295727D01*
X101120656Y-86422727D01*
X101112240Y-86435322D01*
X100976088Y-86639089D01*
X100792089Y-86823088D01*
X100688821Y-86892089D01*
X100575727Y-86967656D01*
X100532157Y-86985703D01*
X100335322Y-87067235D01*
X100207715Y-87092617D01*
X100080109Y-87118000D01*
X99819891Y-87118000D01*
X99692286Y-87092618D01*
X99564678Y-87067235D01*
X99367843Y-86985703D01*
X99324273Y-86967656D01*
X99211179Y-86892089D01*
X99107911Y-86823088D01*
X98923912Y-86639089D01*
X98787760Y-86435322D01*
X98779344Y-86422727D01*
X98726739Y-86295727D01*
X98679765Y-86182322D01*
X98629000Y-85927107D01*
X98629000Y-85666893D01*
X98629441Y-85664678D01*
X98679765Y-85411680D01*
X98679765Y-85411678D01*
X98764168Y-85207912D01*
X98779344Y-85171273D01*
X98864871Y-85043273D01*
X98923912Y-84954911D01*
X99107911Y-84770912D01*
X99297981Y-84643912D01*
X99324273Y-84626344D01*
X99423852Y-84585097D01*
X99564678Y-84526765D01*
X99707561Y-84498344D01*
X99819891Y-84476000D01*
X100080109Y-84476000D01*
X100192439Y-84498344D01*
X100192439Y-84498344D01*
G37*
G36*
X59303466Y-84498344D02*
G01*
X59441322Y-84525765D01*
X59582148Y-84584097D01*
X59681727Y-84625344D01*
X59683225Y-84626345D01*
X59898089Y-84769912D01*
X60082088Y-84953911D01*
X60154294Y-85061976D01*
X60226656Y-85170273D01*
X60227070Y-85171273D01*
X60326235Y-85410678D01*
X60326235Y-85410680D01*
X60377000Y-85665891D01*
X60377000Y-85926109D01*
X60355786Y-86032758D01*
X60326235Y-86181322D01*
X60267903Y-86322148D01*
X60226656Y-86421727D01*
X60225987Y-86422728D01*
X60082088Y-86638089D01*
X59898089Y-86822088D01*
X59753521Y-86918685D01*
X59681727Y-86966656D01*
X59582148Y-87007903D01*
X59441322Y-87066235D01*
X59313715Y-87091617D01*
X59186109Y-87117000D01*
X58925891Y-87117000D01*
X58798285Y-87091617D01*
X58670678Y-87066235D01*
X58529852Y-87007903D01*
X58430273Y-86966656D01*
X58358479Y-86918685D01*
X58213911Y-86822088D01*
X58029912Y-86638089D01*
X57886013Y-86422728D01*
X57885344Y-86421727D01*
X57844097Y-86322148D01*
X57785765Y-86181322D01*
X57756214Y-86032758D01*
X57735000Y-85926109D01*
X57735000Y-85665891D01*
X57785765Y-85410680D01*
X57785765Y-85410678D01*
X57884930Y-85171273D01*
X57885344Y-85170273D01*
X57957706Y-85061976D01*
X58029912Y-84953911D01*
X58213911Y-84769912D01*
X58428775Y-84626345D01*
X58430273Y-84625344D01*
X58529852Y-84584097D01*
X58670678Y-84525765D01*
X58808534Y-84498344D01*
X58925891Y-84475000D01*
X59186109Y-84475000D01*
X59303466Y-84498344D01*
X59303466Y-84498344D01*
G37*
G36*
X116588715Y-84374383D02*
G01*
X116716322Y-84399765D01*
X116857148Y-84458097D01*
X116956727Y-84499344D01*
X116956728Y-84499345D01*
X117173089Y-84643912D01*
X117357088Y-84827911D01*
X117441278Y-84953911D01*
X117501656Y-85044273D01*
X117516832Y-85080912D01*
X117601235Y-85284678D01*
X117601235Y-85284680D01*
X117652000Y-85539891D01*
X117652000Y-85800109D01*
X117635129Y-85884924D01*
X117601235Y-86055322D01*
X117544134Y-86193175D01*
X117501656Y-86295727D01*
X117493240Y-86308322D01*
X117357088Y-86512089D01*
X117173089Y-86696088D01*
X117069821Y-86765089D01*
X116956727Y-86840656D01*
X116857148Y-86881903D01*
X116716322Y-86940235D01*
X116593533Y-86964659D01*
X116461109Y-86991000D01*
X116200891Y-86991000D01*
X116068467Y-86964659D01*
X115945678Y-86940235D01*
X115804852Y-86881903D01*
X115705273Y-86840656D01*
X115592179Y-86765089D01*
X115488911Y-86696088D01*
X115304912Y-86512089D01*
X115168760Y-86308322D01*
X115160344Y-86295727D01*
X115117866Y-86193175D01*
X115060765Y-86055322D01*
X115026871Y-85884924D01*
X115010000Y-85800109D01*
X115010000Y-85539891D01*
X115060765Y-85284680D01*
X115060765Y-85284678D01*
X115145168Y-85080912D01*
X115160344Y-85044273D01*
X115220722Y-84953911D01*
X115304912Y-84827911D01*
X115488911Y-84643912D01*
X115705272Y-84499345D01*
X115705273Y-84499344D01*
X115804852Y-84458097D01*
X115945678Y-84399765D01*
X116073285Y-84374383D01*
X116200891Y-84349000D01*
X116461109Y-84349000D01*
X116588715Y-84374383D01*
X116588715Y-84374383D01*
G37*
G36*
X75694714Y-84373382D02*
G01*
X75822322Y-84398765D01*
X75929114Y-84443000D01*
X76062727Y-84498344D01*
X76064225Y-84499345D01*
X76279089Y-84642912D01*
X76463088Y-84826911D01*
X76498122Y-84879344D01*
X76607656Y-85043273D01*
X76623246Y-85080911D01*
X76707235Y-85283678D01*
X76707235Y-85283680D01*
X76758000Y-85538891D01*
X76758000Y-85799109D01*
X76740930Y-85884924D01*
X76707235Y-86054322D01*
X76654216Y-86182320D01*
X76607656Y-86294727D01*
X76606987Y-86295728D01*
X76463088Y-86511089D01*
X76279089Y-86695088D01*
X76153505Y-86779000D01*
X76062727Y-86839656D01*
X75963148Y-86880903D01*
X75822322Y-86939235D01*
X75694714Y-86964618D01*
X75567109Y-86990000D01*
X75306891Y-86990000D01*
X75179286Y-86964618D01*
X75051678Y-86939235D01*
X74910852Y-86880903D01*
X74811273Y-86839656D01*
X74720495Y-86779000D01*
X74594911Y-86695088D01*
X74410912Y-86511089D01*
X74267013Y-86295728D01*
X74266344Y-86294727D01*
X74219784Y-86182320D01*
X74166765Y-86054322D01*
X74133070Y-85884924D01*
X74116000Y-85799109D01*
X74116000Y-85538891D01*
X74166765Y-85283680D01*
X74166765Y-85283678D01*
X74250754Y-85080911D01*
X74266344Y-85043273D01*
X74375878Y-84879344D01*
X74410912Y-84826911D01*
X74594911Y-84642912D01*
X74809775Y-84499345D01*
X74811273Y-84498344D01*
X74944886Y-84443000D01*
X75051678Y-84398765D01*
X75179286Y-84373382D01*
X75306891Y-84348000D01*
X75567109Y-84348000D01*
X75694714Y-84373382D01*
X75694714Y-84373382D01*
G37*
G36*
X127293823Y-85013313D02*
G01*
X127454242Y-85061976D01*
X127586906Y-85132886D01*
X127602078Y-85140996D01*
X127731659Y-85247341D01*
X127838004Y-85376922D01*
X127838005Y-85376924D01*
X127917024Y-85524758D01*
X127965687Y-85685177D01*
X127982117Y-85852000D01*
X127965687Y-86018823D01*
X127917024Y-86179242D01*
X127855296Y-86294727D01*
X127838004Y-86327078D01*
X127731659Y-86456659D01*
X127602078Y-86563004D01*
X127602076Y-86563005D01*
X127454242Y-86642024D01*
X127293823Y-86690687D01*
X127168804Y-86703000D01*
X127085196Y-86703000D01*
X126960177Y-86690687D01*
X126799758Y-86642024D01*
X126651924Y-86563005D01*
X126651922Y-86563004D01*
X126522341Y-86456659D01*
X126415996Y-86327078D01*
X126398704Y-86294727D01*
X126336976Y-86179242D01*
X126288313Y-86018823D01*
X126271883Y-85852000D01*
X126288313Y-85685177D01*
X126336976Y-85524758D01*
X126415995Y-85376924D01*
X126415996Y-85376922D01*
X126522341Y-85247341D01*
X126651922Y-85140996D01*
X126667094Y-85132886D01*
X126799758Y-85061976D01*
X126960177Y-85013313D01*
X127085196Y-85001000D01*
X127168804Y-85001000D01*
X127293823Y-85013313D01*
X127293823Y-85013313D01*
G37*
G36*
X83324000Y-86245000D02*
G01*
X81522000Y-86245000D01*
X81522000Y-84443000D01*
X83324000Y-84443000D01*
X83324000Y-86245000D01*
X83324000Y-86245000D01*
G37*
G36*
X205130999Y-84230000D02*
G01*
X203228999Y-84230000D01*
X203228999Y-82328000D01*
X205130999Y-82328000D01*
X205130999Y-84230000D01*
X205130999Y-84230000D01*
G37*
G36*
X194206424Y-82341760D02*
G01*
X194206427Y-82341761D01*
X194206428Y-82341761D01*
X194385692Y-82396140D01*
X194385695Y-82396142D01*
X194385696Y-82396142D01*
X194550902Y-82484446D01*
X194695711Y-82603288D01*
X194814553Y-82748097D01*
X194889233Y-82887815D01*
X194902859Y-82913307D01*
X194945000Y-83052228D01*
X194957239Y-83092575D01*
X194975600Y-83279000D01*
X194957239Y-83465425D01*
X194957238Y-83465428D01*
X194957238Y-83465429D01*
X194902859Y-83644693D01*
X194902857Y-83644696D01*
X194902857Y-83644697D01*
X194814553Y-83809903D01*
X194695711Y-83954712D01*
X194550902Y-84073554D01*
X194385696Y-84161858D01*
X194385692Y-84161860D01*
X194206428Y-84216239D01*
X194206427Y-84216239D01*
X194206424Y-84216240D01*
X194066717Y-84230000D01*
X193973281Y-84230000D01*
X193833574Y-84216240D01*
X193833571Y-84216239D01*
X193833570Y-84216239D01*
X193654306Y-84161860D01*
X193654302Y-84161858D01*
X193489096Y-84073554D01*
X193344287Y-83954712D01*
X193225445Y-83809903D01*
X193137141Y-83644697D01*
X193137141Y-83644696D01*
X193137139Y-83644693D01*
X193082760Y-83465429D01*
X193082760Y-83465428D01*
X193082759Y-83465425D01*
X193064398Y-83279000D01*
X193082759Y-83092575D01*
X193094998Y-83052228D01*
X193137139Y-82913307D01*
X193150765Y-82887815D01*
X193225445Y-82748097D01*
X193344287Y-82603288D01*
X193489096Y-82484446D01*
X193654302Y-82396142D01*
X193654303Y-82396142D01*
X193654306Y-82396140D01*
X193833570Y-82341761D01*
X193833571Y-82341761D01*
X193833574Y-82341760D01*
X193973281Y-82328000D01*
X194066717Y-82328000D01*
X194206424Y-82341760D01*
X194206424Y-82341760D01*
G37*
G36*
X87878228Y-81985703D02*
G01*
X88033100Y-82049853D01*
X88172481Y-82142985D01*
X88291015Y-82261519D01*
X88384147Y-82400900D01*
X88448297Y-82555772D01*
X88481000Y-82720184D01*
X88481000Y-82887816D01*
X88448297Y-83052228D01*
X88384147Y-83207100D01*
X88291015Y-83346481D01*
X88172481Y-83465015D01*
X88033100Y-83558147D01*
X87878228Y-83622297D01*
X87713816Y-83655000D01*
X87546184Y-83655000D01*
X87381772Y-83622297D01*
X87226900Y-83558147D01*
X87087519Y-83465015D01*
X86968985Y-83346481D01*
X86875853Y-83207100D01*
X86811703Y-83052228D01*
X86779000Y-82887816D01*
X86779000Y-82720184D01*
X86811703Y-82555772D01*
X86875853Y-82400900D01*
X86968985Y-82261519D01*
X87087519Y-82142985D01*
X87226900Y-82049853D01*
X87381772Y-81985703D01*
X87546184Y-81953000D01*
X87713816Y-81953000D01*
X87878228Y-81985703D01*
X87878228Y-81985703D01*
G37*
G36*
X172081466Y-79248344D02*
G01*
X172219322Y-79275765D01*
X172333144Y-79322912D01*
X172459727Y-79375344D01*
X172459728Y-79375345D01*
X172676089Y-79519912D01*
X172860088Y-79703911D01*
X172911383Y-79780680D01*
X173004656Y-79920273D01*
X173041768Y-80009870D01*
X173104235Y-80160678D01*
X173118238Y-80231076D01*
X173155000Y-80415891D01*
X173155000Y-80676109D01*
X173132201Y-80790727D01*
X173104235Y-80931322D01*
X173072851Y-81007089D01*
X173004656Y-81171727D01*
X173004655Y-81171728D01*
X172860088Y-81388089D01*
X172676089Y-81572088D01*
X172531521Y-81668685D01*
X172459727Y-81716656D01*
X172403369Y-81740000D01*
X172219322Y-81816235D01*
X172091714Y-81841618D01*
X171964109Y-81867000D01*
X171703891Y-81867000D01*
X171576286Y-81841618D01*
X171448678Y-81816235D01*
X171264631Y-81740000D01*
X171208273Y-81716656D01*
X171136479Y-81668685D01*
X170991911Y-81572088D01*
X170807912Y-81388089D01*
X170663345Y-81171728D01*
X170663344Y-81171727D01*
X170595149Y-81007089D01*
X170563765Y-80931322D01*
X170535799Y-80790727D01*
X170513000Y-80676109D01*
X170513000Y-80415891D01*
X170549762Y-80231076D01*
X170563765Y-80160678D01*
X170626232Y-80009870D01*
X170663344Y-79920273D01*
X170756617Y-79780680D01*
X170807912Y-79703911D01*
X170991911Y-79519912D01*
X171208272Y-79375345D01*
X171208273Y-79375344D01*
X171334856Y-79322912D01*
X171448678Y-79275765D01*
X171586534Y-79248344D01*
X171703891Y-79225000D01*
X171964109Y-79225000D01*
X172081466Y-79248344D01*
X172081466Y-79248344D01*
G37*
G36*
X156071737Y-79121000D02*
G01*
X156211322Y-79148765D01*
X156352148Y-79207097D01*
X156451727Y-79248344D01*
X156451728Y-79248345D01*
X156668089Y-79392912D01*
X156852088Y-79576911D01*
X156936946Y-79703911D01*
X156996656Y-79793273D01*
X157015479Y-79838716D01*
X157096235Y-80033678D01*
X157121497Y-80160678D01*
X157147000Y-80288891D01*
X157147000Y-80549109D01*
X157121738Y-80676107D01*
X157096235Y-80804322D01*
X157037903Y-80945148D01*
X156996656Y-81044727D01*
X156996655Y-81044728D01*
X156852088Y-81261089D01*
X156668089Y-81445088D01*
X156523521Y-81541685D01*
X156451727Y-81589656D01*
X156352148Y-81630903D01*
X156211322Y-81689235D01*
X156083715Y-81714617D01*
X155956109Y-81740000D01*
X155695891Y-81740000D01*
X155568285Y-81714617D01*
X155440678Y-81689235D01*
X155299852Y-81630903D01*
X155200273Y-81589656D01*
X155128479Y-81541685D01*
X154983911Y-81445088D01*
X154799912Y-81261089D01*
X154655345Y-81044728D01*
X154655344Y-81044727D01*
X154614097Y-80945148D01*
X154555765Y-80804322D01*
X154530262Y-80676107D01*
X154505000Y-80549109D01*
X154505000Y-80288891D01*
X154530503Y-80160678D01*
X154555765Y-80033678D01*
X154636521Y-79838716D01*
X154655344Y-79793273D01*
X154715054Y-79703911D01*
X154799912Y-79576911D01*
X154983911Y-79392912D01*
X155200272Y-79248345D01*
X155200273Y-79248344D01*
X155299852Y-79207097D01*
X155440678Y-79148765D01*
X155580263Y-79121000D01*
X155695891Y-79098000D01*
X155956109Y-79098000D01*
X156071737Y-79121000D01*
X156071737Y-79121000D01*
G37*
G36*
X116302671Y-78990213D02*
G01*
X116466322Y-79022765D01*
X116607148Y-79081097D01*
X116706727Y-79122344D01*
X116733019Y-79139912D01*
X116923089Y-79266912D01*
X117107088Y-79450911D01*
X117166129Y-79539273D01*
X117251656Y-79667273D01*
X117266832Y-79703912D01*
X117351235Y-79907678D01*
X117354248Y-79922825D01*
X117402000Y-80162891D01*
X117402000Y-80423109D01*
X117377550Y-80546025D01*
X117351235Y-80678322D01*
X117304261Y-80791727D01*
X117251656Y-80918727D01*
X117243240Y-80931322D01*
X117107088Y-81135089D01*
X116923089Y-81319088D01*
X116819821Y-81388089D01*
X116706727Y-81463656D01*
X116652783Y-81486000D01*
X116466322Y-81563235D01*
X116338715Y-81588617D01*
X116211109Y-81614000D01*
X115950891Y-81614000D01*
X115823285Y-81588617D01*
X115695678Y-81563235D01*
X115509217Y-81486000D01*
X115455273Y-81463656D01*
X115342179Y-81388089D01*
X115238911Y-81319088D01*
X115054912Y-81135089D01*
X114918760Y-80931322D01*
X114910344Y-80918727D01*
X114857739Y-80791727D01*
X114810765Y-80678322D01*
X114784450Y-80546025D01*
X114760000Y-80423109D01*
X114760000Y-80162891D01*
X114807752Y-79922825D01*
X114810765Y-79907678D01*
X114895168Y-79703912D01*
X114910344Y-79667273D01*
X114995871Y-79539273D01*
X115054912Y-79450911D01*
X115238911Y-79266912D01*
X115428981Y-79139912D01*
X115455273Y-79122344D01*
X115554852Y-79081097D01*
X115695678Y-79022765D01*
X115859329Y-78990213D01*
X115950891Y-78972000D01*
X116211109Y-78972000D01*
X116302671Y-78990213D01*
X116302671Y-78990213D01*
G37*
G36*
X75434466Y-78994344D02*
G01*
X75572322Y-79021765D01*
X75713148Y-79080097D01*
X75812727Y-79121344D01*
X75884521Y-79169315D01*
X76029089Y-79265912D01*
X76213088Y-79449911D01*
X76290241Y-79565380D01*
X76357656Y-79666273D01*
X76358070Y-79667273D01*
X76457235Y-79906678D01*
X76470949Y-79975622D01*
X76508000Y-80161891D01*
X76508000Y-80422109D01*
X76483352Y-80546024D01*
X76457235Y-80677322D01*
X76398903Y-80818148D01*
X76357656Y-80917727D01*
X76356987Y-80918728D01*
X76213088Y-81134089D01*
X76029089Y-81318088D01*
X75884521Y-81414685D01*
X75812727Y-81462656D01*
X75713148Y-81503903D01*
X75572322Y-81562235D01*
X75444714Y-81587618D01*
X75317109Y-81613000D01*
X75056891Y-81613000D01*
X74929286Y-81587618D01*
X74801678Y-81562235D01*
X74660852Y-81503903D01*
X74561273Y-81462656D01*
X74489479Y-81414685D01*
X74344911Y-81318088D01*
X74160912Y-81134089D01*
X74017013Y-80918728D01*
X74016344Y-80917727D01*
X73975097Y-80818148D01*
X73916765Y-80677322D01*
X73890648Y-80546024D01*
X73866000Y-80422109D01*
X73866000Y-80161891D01*
X73903051Y-79975622D01*
X73916765Y-79906678D01*
X74015930Y-79667273D01*
X74016344Y-79666273D01*
X74083759Y-79565380D01*
X74160912Y-79449911D01*
X74344911Y-79265912D01*
X74489479Y-79169315D01*
X74561273Y-79121344D01*
X74660852Y-79080097D01*
X74801678Y-79021765D01*
X74939534Y-78994344D01*
X75056891Y-78971000D01*
X75317109Y-78971000D01*
X75434466Y-78994344D01*
X75434466Y-78994344D01*
G37*
G36*
X100330714Y-78870382D02*
G01*
X100458322Y-78895765D01*
X100599148Y-78954097D01*
X100698727Y-78995344D01*
X100698728Y-78995345D01*
X100915089Y-79139912D01*
X101099088Y-79323911D01*
X101169144Y-79428758D01*
X101243656Y-79540273D01*
X101269246Y-79602053D01*
X101343235Y-79780678D01*
X101343235Y-79780680D01*
X101393560Y-80033678D01*
X101394000Y-80035893D01*
X101394000Y-80296107D01*
X101343235Y-80551322D01*
X101284903Y-80692148D01*
X101243656Y-80791727D01*
X101235240Y-80804322D01*
X101099088Y-81008089D01*
X100915089Y-81192088D01*
X100811821Y-81261089D01*
X100698727Y-81336656D01*
X100599148Y-81377903D01*
X100458322Y-81436235D01*
X100330714Y-81461618D01*
X100203109Y-81487000D01*
X99942891Y-81487000D01*
X99815286Y-81461618D01*
X99687678Y-81436235D01*
X99546852Y-81377903D01*
X99447273Y-81336656D01*
X99334179Y-81261089D01*
X99230911Y-81192088D01*
X99046912Y-81008089D01*
X98910760Y-80804322D01*
X98902344Y-80791727D01*
X98861097Y-80692148D01*
X98802765Y-80551322D01*
X98752000Y-80296107D01*
X98752000Y-80035893D01*
X98752441Y-80033678D01*
X98802765Y-79780680D01*
X98802765Y-79780678D01*
X98876754Y-79602053D01*
X98902344Y-79540273D01*
X98976856Y-79428758D01*
X99046912Y-79323911D01*
X99230911Y-79139912D01*
X99447272Y-78995345D01*
X99447273Y-78995344D01*
X99546852Y-78954097D01*
X99687678Y-78895765D01*
X99815286Y-78870382D01*
X99942891Y-78845000D01*
X100203109Y-78845000D01*
X100330714Y-78870382D01*
X100330714Y-78870382D01*
G37*
G36*
X59424737Y-78867000D02*
G01*
X59564322Y-78894765D01*
X59705148Y-78953097D01*
X59804727Y-78994344D01*
X59806225Y-78995345D01*
X60021089Y-79138912D01*
X60205088Y-79322911D01*
X60240122Y-79375344D01*
X60349656Y-79539273D01*
X60375660Y-79602053D01*
X60449235Y-79779678D01*
X60449235Y-79779680D01*
X60499759Y-80033678D01*
X60500000Y-80034893D01*
X60500000Y-80295107D01*
X60449235Y-80550322D01*
X60396216Y-80678320D01*
X60349656Y-80790727D01*
X60348987Y-80791728D01*
X60205088Y-81007089D01*
X60021089Y-81191088D01*
X59876521Y-81287685D01*
X59804727Y-81335656D01*
X59705148Y-81376903D01*
X59564322Y-81435235D01*
X59436715Y-81460617D01*
X59309109Y-81486000D01*
X59048891Y-81486000D01*
X58921285Y-81460617D01*
X58793678Y-81435235D01*
X58652852Y-81376903D01*
X58553273Y-81335656D01*
X58481479Y-81287685D01*
X58336911Y-81191088D01*
X58152912Y-81007089D01*
X58009013Y-80791728D01*
X58008344Y-80790727D01*
X57961784Y-80678320D01*
X57908765Y-80550322D01*
X57858000Y-80295107D01*
X57858000Y-80034893D01*
X57858242Y-80033678D01*
X57908765Y-79779680D01*
X57908765Y-79779678D01*
X57982340Y-79602053D01*
X58008344Y-79539273D01*
X58117878Y-79375344D01*
X58152912Y-79322911D01*
X58336911Y-79138912D01*
X58551775Y-78995345D01*
X58553273Y-78994344D01*
X58652852Y-78953097D01*
X58793678Y-78894765D01*
X58933263Y-78867000D01*
X59048891Y-78844000D01*
X59309109Y-78844000D01*
X59424737Y-78867000D01*
X59424737Y-78867000D01*
G37*
G36*
X134405823Y-78917313D02*
G01*
X134566242Y-78965976D01*
X134684151Y-79029000D01*
X134714078Y-79044996D01*
X134843659Y-79151341D01*
X134950004Y-79280922D01*
X134950005Y-79280924D01*
X135029024Y-79428758D01*
X135077687Y-79589177D01*
X135094117Y-79756000D01*
X135077687Y-79922823D01*
X135029024Y-80083242D01*
X134984681Y-80166201D01*
X134950004Y-80231078D01*
X134843659Y-80360659D01*
X134714078Y-80467004D01*
X134714076Y-80467005D01*
X134566242Y-80546024D01*
X134405823Y-80594687D01*
X134280804Y-80607000D01*
X134197196Y-80607000D01*
X134072177Y-80594687D01*
X133911758Y-80546024D01*
X133763924Y-80467005D01*
X133763922Y-80467004D01*
X133634341Y-80360659D01*
X133527996Y-80231078D01*
X133493319Y-80166201D01*
X133448976Y-80083242D01*
X133400313Y-79922823D01*
X133383883Y-79756000D01*
X133400313Y-79589177D01*
X133448976Y-79428758D01*
X133527995Y-79280924D01*
X133527996Y-79280922D01*
X133634341Y-79151341D01*
X133763922Y-79044996D01*
X133793849Y-79029000D01*
X133911758Y-78965976D01*
X134072177Y-78917313D01*
X134197196Y-78905000D01*
X134280804Y-78905000D01*
X134405823Y-78917313D01*
X134405823Y-78917313D01*
G37*
G36*
X186427239Y-77888101D02*
G01*
X186663053Y-77959634D01*
X186880381Y-78075799D01*
X187070871Y-78232129D01*
X187227201Y-78422619D01*
X187343366Y-78639947D01*
X187414899Y-78875761D01*
X187439053Y-79121000D01*
X187414899Y-79366239D01*
X187343366Y-79602053D01*
X187227201Y-79819381D01*
X187070871Y-80009871D01*
X186880381Y-80166201D01*
X186663053Y-80282366D01*
X186427239Y-80353899D01*
X186243457Y-80372000D01*
X186120543Y-80372000D01*
X185936761Y-80353899D01*
X185700947Y-80282366D01*
X185483619Y-80166201D01*
X185293129Y-80009871D01*
X185136799Y-79819381D01*
X185020634Y-79602053D01*
X184949101Y-79366239D01*
X184924947Y-79121000D01*
X184949101Y-78875761D01*
X185020634Y-78639947D01*
X185136799Y-78422619D01*
X185293129Y-78232129D01*
X185483619Y-78075799D01*
X185700947Y-77959634D01*
X185936761Y-77888101D01*
X186120543Y-77870000D01*
X186243457Y-77870000D01*
X186427239Y-77888101D01*
X186427239Y-77888101D01*
G37*
G36*
X222106903Y-77664075D02*
G01*
X222207236Y-77705634D01*
X222334571Y-77758378D01*
X222539466Y-77895285D01*
X222713715Y-78069534D01*
X222850622Y-78274429D01*
X222850623Y-78274431D01*
X222944925Y-78502097D01*
X222993000Y-78743786D01*
X222993000Y-78990214D01*
X222944925Y-79231903D01*
X222885510Y-79375345D01*
X222850622Y-79459571D01*
X222713715Y-79664466D01*
X222539466Y-79838715D01*
X222334571Y-79975622D01*
X222334570Y-79975623D01*
X222334569Y-79975623D01*
X222106903Y-80069925D01*
X221865214Y-80118000D01*
X221618786Y-80118000D01*
X221377097Y-80069925D01*
X221149431Y-79975623D01*
X221149430Y-79975623D01*
X221149429Y-79975622D01*
X220944534Y-79838715D01*
X220770285Y-79664466D01*
X220633378Y-79459571D01*
X220598491Y-79375345D01*
X220539075Y-79231903D01*
X220491000Y-78990214D01*
X220491000Y-78743786D01*
X220539075Y-78502097D01*
X220633377Y-78274431D01*
X220633378Y-78274429D01*
X220770285Y-78069534D01*
X220944534Y-77895285D01*
X221149429Y-77758378D01*
X221276765Y-77705634D01*
X221377097Y-77664075D01*
X221618786Y-77616000D01*
X221865214Y-77616000D01*
X222106903Y-77664075D01*
X222106903Y-77664075D01*
G37*
G36*
X237227239Y-77634101D02*
G01*
X237463053Y-77705634D01*
X237680381Y-77821799D01*
X237870871Y-77978129D01*
X238027201Y-78168619D01*
X238143366Y-78385947D01*
X238214899Y-78621761D01*
X238239053Y-78867000D01*
X238214899Y-79112239D01*
X238143366Y-79348053D01*
X238027201Y-79565381D01*
X237870871Y-79755871D01*
X237680381Y-79912201D01*
X237463053Y-80028366D01*
X237227239Y-80099899D01*
X237043457Y-80118000D01*
X236920543Y-80118000D01*
X236736761Y-80099899D01*
X236500947Y-80028366D01*
X236283619Y-79912201D01*
X236093129Y-79755871D01*
X235936799Y-79565381D01*
X235820634Y-79348053D01*
X235749101Y-79112239D01*
X235724947Y-78867000D01*
X235749101Y-78621761D01*
X235820634Y-78385947D01*
X235936799Y-78168619D01*
X236093129Y-77978129D01*
X236283619Y-77821799D01*
X236500947Y-77705634D01*
X236736761Y-77634101D01*
X236920543Y-77616000D01*
X237043457Y-77616000D01*
X237227239Y-77634101D01*
X237227239Y-77634101D01*
G37*
G36*
X88571564Y-76967389D02*
G01*
X88762833Y-77046615D01*
X88762835Y-77046616D01*
X88934973Y-77161635D01*
X89081365Y-77308027D01*
X89170942Y-77442088D01*
X89196385Y-77480167D01*
X89275611Y-77671436D01*
X89316000Y-77874484D01*
X89316000Y-78081516D01*
X89275611Y-78284564D01*
X89233618Y-78385944D01*
X89196384Y-78475835D01*
X89081365Y-78647973D01*
X88934973Y-78794365D01*
X88762835Y-78909384D01*
X88762834Y-78909385D01*
X88762833Y-78909385D01*
X88571564Y-78988611D01*
X88368516Y-79029000D01*
X88161484Y-79029000D01*
X87958436Y-78988611D01*
X87767167Y-78909385D01*
X87767166Y-78909385D01*
X87767165Y-78909384D01*
X87595027Y-78794365D01*
X87448635Y-78647973D01*
X87333616Y-78475835D01*
X87296382Y-78385944D01*
X87254389Y-78284564D01*
X87214000Y-78081516D01*
X87214000Y-77874484D01*
X87254389Y-77671436D01*
X87333615Y-77480167D01*
X87359059Y-77442088D01*
X87448635Y-77308027D01*
X87595027Y-77161635D01*
X87767165Y-77046616D01*
X87767167Y-77046615D01*
X87958436Y-76967389D01*
X88161484Y-76927000D01*
X88368516Y-76927000D01*
X88571564Y-76967389D01*
X88571564Y-76967389D01*
G37*
G36*
X81071564Y-76967389D02*
G01*
X81262833Y-77046615D01*
X81262835Y-77046616D01*
X81434973Y-77161635D01*
X81581365Y-77308027D01*
X81670942Y-77442088D01*
X81696385Y-77480167D01*
X81775611Y-77671436D01*
X81816000Y-77874484D01*
X81816000Y-78081516D01*
X81775611Y-78284564D01*
X81733618Y-78385944D01*
X81696384Y-78475835D01*
X81581365Y-78647973D01*
X81434973Y-78794365D01*
X81262835Y-78909384D01*
X81262834Y-78909385D01*
X81262833Y-78909385D01*
X81071564Y-78988611D01*
X80868516Y-79029000D01*
X80661484Y-79029000D01*
X80458436Y-78988611D01*
X80267167Y-78909385D01*
X80267166Y-78909385D01*
X80267165Y-78909384D01*
X80095027Y-78794365D01*
X79948635Y-78647973D01*
X79833616Y-78475835D01*
X79796382Y-78385944D01*
X79754389Y-78284564D01*
X79714000Y-78081516D01*
X79714000Y-77874484D01*
X79754389Y-77671436D01*
X79833615Y-77480167D01*
X79859059Y-77442088D01*
X79948635Y-77308027D01*
X80095027Y-77161635D01*
X80267165Y-77046616D01*
X80267167Y-77046615D01*
X80458436Y-76967389D01*
X80661484Y-76927000D01*
X80868516Y-76927000D01*
X81071564Y-76967389D01*
X81071564Y-76967389D01*
G37*
G36*
X92958228Y-76651703D02*
G01*
X93113100Y-76715853D01*
X93252481Y-76808985D01*
X93371015Y-76927519D01*
X93464147Y-77066900D01*
X93528297Y-77221772D01*
X93561000Y-77386184D01*
X93561000Y-77553816D01*
X93528297Y-77718228D01*
X93464147Y-77873100D01*
X93371015Y-78012481D01*
X93252481Y-78131015D01*
X93113100Y-78224147D01*
X92958228Y-78288297D01*
X92793816Y-78321000D01*
X92626184Y-78321000D01*
X92461772Y-78288297D01*
X92306900Y-78224147D01*
X92167519Y-78131015D01*
X92048985Y-78012481D01*
X91955853Y-77873100D01*
X91891703Y-77718228D01*
X91859000Y-77553816D01*
X91859000Y-77386184D01*
X91891703Y-77221772D01*
X91955853Y-77066900D01*
X92048985Y-76927519D01*
X92167519Y-76808985D01*
X92306900Y-76715853D01*
X92461772Y-76651703D01*
X92626184Y-76619000D01*
X92793816Y-76619000D01*
X92958228Y-76651703D01*
X92958228Y-76651703D01*
G37*
G36*
X169345714Y-75373382D02*
G01*
X169473322Y-75398765D01*
X169614148Y-75457097D01*
X169713727Y-75498344D01*
X169777159Y-75540728D01*
X169930089Y-75642912D01*
X170114088Y-75826911D01*
X170189804Y-75940229D01*
X170258656Y-76043273D01*
X170299903Y-76142852D01*
X170358235Y-76283678D01*
X170359912Y-76292109D01*
X170409000Y-76538891D01*
X170409000Y-76799109D01*
X170403869Y-76824903D01*
X170358235Y-77054322D01*
X170313784Y-77161635D01*
X170258656Y-77294727D01*
X170210685Y-77366521D01*
X170114088Y-77511089D01*
X169930089Y-77695088D01*
X169835368Y-77758378D01*
X169713727Y-77839656D01*
X169632985Y-77873100D01*
X169473322Y-77939235D01*
X169370768Y-77959634D01*
X169218109Y-77990000D01*
X168957891Y-77990000D01*
X168805232Y-77959634D01*
X168702678Y-77939235D01*
X168543015Y-77873100D01*
X168462273Y-77839656D01*
X168340632Y-77758378D01*
X168245911Y-77695088D01*
X168061912Y-77511089D01*
X167965315Y-77366521D01*
X167917344Y-77294727D01*
X167862216Y-77161635D01*
X167817765Y-77054322D01*
X167772131Y-76824903D01*
X167767000Y-76799109D01*
X167767000Y-76538891D01*
X167816088Y-76292109D01*
X167817765Y-76283678D01*
X167876097Y-76142852D01*
X167917344Y-76043273D01*
X167986196Y-75940229D01*
X168061912Y-75826911D01*
X168245911Y-75642912D01*
X168398841Y-75540728D01*
X168462273Y-75498344D01*
X168561852Y-75457097D01*
X168702678Y-75398765D01*
X168830285Y-75373383D01*
X168957891Y-75348000D01*
X169218109Y-75348000D01*
X169345714Y-75373382D01*
X169345714Y-75373382D01*
G37*
G36*
X113592714Y-75120382D02*
G01*
X113720322Y-75145765D01*
X113861148Y-75204097D01*
X113960727Y-75245344D01*
X114024159Y-75287728D01*
X114177089Y-75389912D01*
X114361088Y-75573911D01*
X114421987Y-75665053D01*
X114505656Y-75790273D01*
X114522797Y-75831656D01*
X114605235Y-76030678D01*
X114630617Y-76158285D01*
X114656000Y-76285891D01*
X114656000Y-76546109D01*
X114641501Y-76619000D01*
X114605235Y-76801322D01*
X114595467Y-76824903D01*
X114505656Y-77041727D01*
X114497240Y-77054322D01*
X114361088Y-77258089D01*
X114177089Y-77442088D01*
X114073821Y-77511089D01*
X113960727Y-77586656D01*
X113861148Y-77627903D01*
X113720322Y-77686235D01*
X113592715Y-77711617D01*
X113465109Y-77737000D01*
X113204891Y-77737000D01*
X113077285Y-77711617D01*
X112949678Y-77686235D01*
X112808852Y-77627903D01*
X112709273Y-77586656D01*
X112596179Y-77511089D01*
X112492911Y-77442088D01*
X112308912Y-77258089D01*
X112172760Y-77054322D01*
X112164344Y-77041727D01*
X112074533Y-76824903D01*
X112064765Y-76801322D01*
X112028499Y-76619000D01*
X112014000Y-76546109D01*
X112014000Y-76285891D01*
X112039383Y-76158285D01*
X112064765Y-76030678D01*
X112147203Y-75831656D01*
X112164344Y-75790273D01*
X112248013Y-75665053D01*
X112308912Y-75573911D01*
X112492911Y-75389912D01*
X112645841Y-75287728D01*
X112709273Y-75245344D01*
X112808852Y-75204097D01*
X112949678Y-75145765D01*
X113077286Y-75120382D01*
X113204891Y-75095000D01*
X113465109Y-75095000D01*
X113592714Y-75120382D01*
X113592714Y-75120382D01*
G37*
G36*
X72698715Y-75119383D02*
G01*
X72826322Y-75144765D01*
X72967148Y-75203097D01*
X73066727Y-75244344D01*
X73130159Y-75286728D01*
X73283089Y-75388912D01*
X73467088Y-75572911D01*
X73513861Y-75642912D01*
X73611656Y-75789273D01*
X73650222Y-75882380D01*
X73711235Y-76029678D01*
X73736617Y-76157285D01*
X73762000Y-76284891D01*
X73762000Y-76545109D01*
X73747302Y-76619000D01*
X73711235Y-76800322D01*
X73652903Y-76941148D01*
X73611656Y-77040727D01*
X73607721Y-77046616D01*
X73467088Y-77257089D01*
X73283089Y-77441088D01*
X73138521Y-77537685D01*
X73066727Y-77585656D01*
X72993469Y-77616000D01*
X72826322Y-77685235D01*
X72723768Y-77705634D01*
X72571109Y-77736000D01*
X72310891Y-77736000D01*
X72158232Y-77705634D01*
X72055678Y-77685235D01*
X71888531Y-77616000D01*
X71815273Y-77585656D01*
X71743479Y-77537685D01*
X71598911Y-77441088D01*
X71414912Y-77257089D01*
X71274279Y-77046616D01*
X71270344Y-77040727D01*
X71229097Y-76941148D01*
X71170765Y-76800322D01*
X71134698Y-76619000D01*
X71120000Y-76545109D01*
X71120000Y-76284891D01*
X71145382Y-76157286D01*
X71170765Y-76029678D01*
X71231778Y-75882380D01*
X71270344Y-75789273D01*
X71368139Y-75642912D01*
X71414912Y-75572911D01*
X71598911Y-75388912D01*
X71751841Y-75286728D01*
X71815273Y-75244344D01*
X71914852Y-75203097D01*
X72055678Y-75144765D01*
X72183285Y-75119383D01*
X72310891Y-75094000D01*
X72571109Y-75094000D01*
X72698715Y-75119383D01*
X72698715Y-75119383D01*
G37*
G36*
X159083715Y-75119383D02*
G01*
X159211322Y-75144765D01*
X159352148Y-75203097D01*
X159451727Y-75244344D01*
X159515159Y-75286728D01*
X159668089Y-75388912D01*
X159852088Y-75572911D01*
X159898861Y-75642912D01*
X159996656Y-75789273D01*
X160035222Y-75882380D01*
X160096235Y-76029678D01*
X160121618Y-76157286D01*
X160147000Y-76284891D01*
X160147000Y-76545109D01*
X160132302Y-76619000D01*
X160096235Y-76800322D01*
X160037903Y-76941148D01*
X159996656Y-77040727D01*
X159992721Y-77046616D01*
X159852088Y-77257089D01*
X159668089Y-77441088D01*
X159523521Y-77537685D01*
X159451727Y-77585656D01*
X159378469Y-77616000D01*
X159211322Y-77685235D01*
X159108768Y-77705634D01*
X158956109Y-77736000D01*
X158695891Y-77736000D01*
X158543232Y-77705634D01*
X158440678Y-77685235D01*
X158273531Y-77616000D01*
X158200273Y-77585656D01*
X158128479Y-77537685D01*
X157983911Y-77441088D01*
X157799912Y-77257089D01*
X157659279Y-77046616D01*
X157655344Y-77040727D01*
X157614097Y-76941148D01*
X157555765Y-76800322D01*
X157519698Y-76619000D01*
X157505000Y-76545109D01*
X157505000Y-76284891D01*
X157530382Y-76157286D01*
X157555765Y-76029678D01*
X157616778Y-75882380D01*
X157655344Y-75789273D01*
X157753139Y-75642912D01*
X157799912Y-75572911D01*
X157983911Y-75388912D01*
X158136841Y-75286728D01*
X158200273Y-75244344D01*
X158299852Y-75203097D01*
X158440678Y-75144765D01*
X158568285Y-75119383D01*
X158695891Y-75094000D01*
X158956109Y-75094000D01*
X159083715Y-75119383D01*
X159083715Y-75119383D01*
G37*
G36*
X103330715Y-74866383D02*
G01*
X103458322Y-74891765D01*
X103599148Y-74950097D01*
X103698727Y-74991344D01*
X103698728Y-74991345D01*
X103915089Y-75135912D01*
X104099088Y-75319911D01*
X104145861Y-75389912D01*
X104243656Y-75536273D01*
X104258832Y-75572912D01*
X104343235Y-75776678D01*
X104364260Y-75882380D01*
X104394000Y-76031891D01*
X104394000Y-76292109D01*
X104383407Y-76345364D01*
X104343235Y-76547322D01*
X104299999Y-76651703D01*
X104243656Y-76787727D01*
X104235240Y-76800322D01*
X104099088Y-77004089D01*
X103915089Y-77188088D01*
X103770521Y-77284685D01*
X103698727Y-77332656D01*
X103599148Y-77373903D01*
X103458322Y-77432235D01*
X103330714Y-77457618D01*
X103203109Y-77483000D01*
X102942891Y-77483000D01*
X102815286Y-77457618D01*
X102687678Y-77432235D01*
X102546852Y-77373903D01*
X102447273Y-77332656D01*
X102375479Y-77284685D01*
X102230911Y-77188088D01*
X102046912Y-77004089D01*
X101910760Y-76800322D01*
X101902344Y-76787727D01*
X101846001Y-76651703D01*
X101802765Y-76547322D01*
X101762593Y-76345364D01*
X101752000Y-76292109D01*
X101752000Y-76031891D01*
X101781740Y-75882380D01*
X101802765Y-75776678D01*
X101887168Y-75572912D01*
X101902344Y-75536273D01*
X102000139Y-75389912D01*
X102046912Y-75319911D01*
X102230911Y-75135912D01*
X102447272Y-74991345D01*
X102447273Y-74991344D01*
X102546852Y-74950097D01*
X102687678Y-74891765D01*
X102815285Y-74866383D01*
X102942891Y-74841000D01*
X103203109Y-74841000D01*
X103330715Y-74866383D01*
X103330715Y-74866383D01*
G37*
G36*
X62436714Y-74865382D02*
G01*
X62564322Y-74890765D01*
X62705148Y-74949097D01*
X62804727Y-74990344D01*
X62806225Y-74991345D01*
X63021089Y-75134912D01*
X63205088Y-75318911D01*
X63230378Y-75356761D01*
X63349656Y-75535273D01*
X63379856Y-75608184D01*
X63449235Y-75775678D01*
X63470459Y-75882380D01*
X63500000Y-76030891D01*
X63500000Y-76291109D01*
X63487686Y-76353015D01*
X63449235Y-76546322D01*
X63402275Y-76659693D01*
X63349656Y-76786727D01*
X63301685Y-76858521D01*
X63205088Y-77003089D01*
X63021089Y-77187088D01*
X62914829Y-77258088D01*
X62804727Y-77331656D01*
X62705148Y-77372903D01*
X62564322Y-77431235D01*
X62436714Y-77456618D01*
X62309109Y-77482000D01*
X62048891Y-77482000D01*
X61921286Y-77456618D01*
X61793678Y-77431235D01*
X61652852Y-77372903D01*
X61553273Y-77331656D01*
X61443171Y-77258088D01*
X61336911Y-77187088D01*
X61152912Y-77003089D01*
X61056315Y-76858521D01*
X61008344Y-76786727D01*
X60955725Y-76659693D01*
X60908765Y-76546322D01*
X60870314Y-76353015D01*
X60858000Y-76291109D01*
X60858000Y-76030891D01*
X60887541Y-75882380D01*
X60908765Y-75775678D01*
X60978144Y-75608184D01*
X61008344Y-75535273D01*
X61127622Y-75356761D01*
X61152912Y-75318911D01*
X61336911Y-75134912D01*
X61551775Y-74991345D01*
X61553273Y-74990344D01*
X61652852Y-74949097D01*
X61793678Y-74890765D01*
X61921286Y-74865382D01*
X62048891Y-74840000D01*
X62309109Y-74840000D01*
X62436714Y-74865382D01*
X62436714Y-74865382D01*
G37*
G36*
X194970999Y-77245000D02*
G01*
X193068999Y-77245000D01*
X193068999Y-75343000D01*
X194970999Y-75343000D01*
X194970999Y-77245000D01*
X194970999Y-77245000D01*
G37*
G36*
X204366424Y-75356760D02*
G01*
X204366427Y-75356761D01*
X204366428Y-75356761D01*
X204545692Y-75411140D01*
X204545695Y-75411142D01*
X204545696Y-75411142D01*
X204710902Y-75499446D01*
X204855711Y-75618288D01*
X204974553Y-75763097D01*
X205038311Y-75882381D01*
X205062859Y-75928307D01*
X205106712Y-76072871D01*
X205117239Y-76107575D01*
X205135600Y-76294000D01*
X205117239Y-76480425D01*
X205117238Y-76480428D01*
X205117238Y-76480429D01*
X205062859Y-76659693D01*
X205062857Y-76659696D01*
X205062857Y-76659697D01*
X204974553Y-76824903D01*
X204855711Y-76969712D01*
X204710902Y-77088554D01*
X204574176Y-77161635D01*
X204545692Y-77176860D01*
X204366428Y-77231239D01*
X204366427Y-77231239D01*
X204366424Y-77231240D01*
X204226717Y-77245000D01*
X204133281Y-77245000D01*
X203993574Y-77231240D01*
X203993571Y-77231239D01*
X203993570Y-77231239D01*
X203814306Y-77176860D01*
X203785822Y-77161635D01*
X203649096Y-77088554D01*
X203504287Y-76969712D01*
X203385445Y-76824903D01*
X203297141Y-76659697D01*
X203297141Y-76659696D01*
X203297139Y-76659693D01*
X203242760Y-76480429D01*
X203242760Y-76480428D01*
X203242759Y-76480425D01*
X203224398Y-76294000D01*
X203242759Y-76107575D01*
X203253286Y-76072871D01*
X203297139Y-75928307D01*
X203321687Y-75882381D01*
X203385445Y-75763097D01*
X203504287Y-75618288D01*
X203649096Y-75499446D01*
X203814302Y-75411142D01*
X203814303Y-75411142D01*
X203814306Y-75411140D01*
X203993570Y-75356761D01*
X203993571Y-75356761D01*
X203993574Y-75356760D01*
X204133281Y-75343000D01*
X204226717Y-75343000D01*
X204366424Y-75356760D01*
X204366424Y-75356760D01*
G37*
G36*
X127375228Y-74873703D02*
G01*
X127530100Y-74937853D01*
X127669481Y-75030985D01*
X127788015Y-75149519D01*
X127881147Y-75288900D01*
X127945297Y-75443772D01*
X127978000Y-75608184D01*
X127978000Y-75775816D01*
X127945297Y-75940228D01*
X127881147Y-76095100D01*
X127788015Y-76234481D01*
X127669481Y-76353015D01*
X127530100Y-76446147D01*
X127375228Y-76510297D01*
X127210816Y-76543000D01*
X127043184Y-76543000D01*
X126878772Y-76510297D01*
X126723900Y-76446147D01*
X126584519Y-76353015D01*
X126465985Y-76234481D01*
X126372853Y-76095100D01*
X126308703Y-75940228D01*
X126276000Y-75775816D01*
X126276000Y-75608184D01*
X126308703Y-75443772D01*
X126372853Y-75288900D01*
X126465985Y-75149519D01*
X126584519Y-75030985D01*
X126723900Y-74937853D01*
X126878772Y-74873703D01*
X127043184Y-74841000D01*
X127210816Y-74841000D01*
X127375228Y-74873703D01*
X127375228Y-74873703D01*
G37*
G36*
X215383239Y-73951101D02*
G01*
X215619053Y-74022634D01*
X215836381Y-74138799D01*
X216026871Y-74295129D01*
X216183201Y-74485619D01*
X216299366Y-74702947D01*
X216370899Y-74938761D01*
X216395053Y-75184000D01*
X216370899Y-75429239D01*
X216299366Y-75665053D01*
X216183201Y-75882381D01*
X216026871Y-76072871D01*
X215836381Y-76229201D01*
X215619053Y-76345366D01*
X215383239Y-76416899D01*
X215199457Y-76435000D01*
X215076543Y-76435000D01*
X214892761Y-76416899D01*
X214656947Y-76345366D01*
X214439619Y-76229201D01*
X214249129Y-76072871D01*
X214092799Y-75882381D01*
X213976634Y-75665053D01*
X213905101Y-75429239D01*
X213880947Y-75184000D01*
X213905101Y-74938761D01*
X213976634Y-74702947D01*
X214092799Y-74485619D01*
X214249129Y-74295129D01*
X214439619Y-74138799D01*
X214656947Y-74022634D01*
X214892761Y-73951101D01*
X215076543Y-73933000D01*
X215199457Y-73933000D01*
X215383239Y-73951101D01*
X215383239Y-73951101D01*
G37*
G36*
X164087714Y-73619382D02*
G01*
X164215322Y-73644765D01*
X164356148Y-73703097D01*
X164455727Y-73744344D01*
X164455728Y-73744345D01*
X164672089Y-73888912D01*
X164856088Y-74072911D01*
X164927642Y-74180000D01*
X165000656Y-74289273D01*
X165041903Y-74388852D01*
X165100235Y-74529678D01*
X165125617Y-74657285D01*
X165151000Y-74784891D01*
X165151000Y-75045109D01*
X165141275Y-75094000D01*
X165100235Y-75300322D01*
X165041903Y-75441148D01*
X165000656Y-75540727D01*
X164978483Y-75573911D01*
X164856088Y-75757089D01*
X164672089Y-75941088D01*
X164539504Y-76029678D01*
X164455727Y-76085656D01*
X164402809Y-76107575D01*
X164215322Y-76185235D01*
X164087714Y-76210618D01*
X163960109Y-76236000D01*
X163699891Y-76236000D01*
X163572285Y-76210617D01*
X163444678Y-76185235D01*
X163257191Y-76107575D01*
X163204273Y-76085656D01*
X163120496Y-76029678D01*
X162987911Y-75941088D01*
X162803912Y-75757089D01*
X162681517Y-75573911D01*
X162659344Y-75540727D01*
X162618097Y-75441148D01*
X162559765Y-75300322D01*
X162518725Y-75094000D01*
X162509000Y-75045109D01*
X162509000Y-74784891D01*
X162534383Y-74657285D01*
X162559765Y-74529678D01*
X162618097Y-74388852D01*
X162659344Y-74289273D01*
X162732358Y-74180000D01*
X162803912Y-74072911D01*
X162987911Y-73888912D01*
X163204272Y-73744345D01*
X163204273Y-73744344D01*
X163303852Y-73703097D01*
X163444678Y-73644765D01*
X163572286Y-73619382D01*
X163699891Y-73594000D01*
X163960109Y-73594000D01*
X164087714Y-73619382D01*
X164087714Y-73619382D01*
G37*
G36*
X108334715Y-73366383D02*
G01*
X108462322Y-73391765D01*
X108603148Y-73450097D01*
X108702727Y-73491344D01*
X108702728Y-73491345D01*
X108919089Y-73635912D01*
X109103088Y-73819911D01*
X109178651Y-73933000D01*
X109247656Y-74036273D01*
X109262832Y-74072912D01*
X109347235Y-74276678D01*
X109347235Y-74276680D01*
X109397560Y-74529678D01*
X109398000Y-74531893D01*
X109398000Y-74792107D01*
X109347235Y-75047322D01*
X109306458Y-75145765D01*
X109247656Y-75287727D01*
X109210724Y-75343000D01*
X109103088Y-75504089D01*
X108919089Y-75688088D01*
X108787794Y-75775816D01*
X108702727Y-75832656D01*
X108603148Y-75873903D01*
X108462322Y-75932235D01*
X108334715Y-75957617D01*
X108207109Y-75983000D01*
X107946891Y-75983000D01*
X107819285Y-75957617D01*
X107691678Y-75932235D01*
X107550852Y-75873903D01*
X107451273Y-75832656D01*
X107366206Y-75775816D01*
X107234911Y-75688088D01*
X107050912Y-75504089D01*
X106943276Y-75343000D01*
X106906344Y-75287727D01*
X106847542Y-75145765D01*
X106806765Y-75047322D01*
X106756000Y-74792107D01*
X106756000Y-74531893D01*
X106756441Y-74529678D01*
X106806765Y-74276680D01*
X106806765Y-74276678D01*
X106891168Y-74072912D01*
X106906344Y-74036273D01*
X106975349Y-73933000D01*
X107050912Y-73819911D01*
X107234911Y-73635912D01*
X107451272Y-73491345D01*
X107451273Y-73491344D01*
X107550852Y-73450097D01*
X107691678Y-73391765D01*
X107819285Y-73366383D01*
X107946891Y-73341000D01*
X108207109Y-73341000D01*
X108334715Y-73366383D01*
X108334715Y-73366383D01*
G37*
G36*
X67440714Y-73365382D02*
G01*
X67568322Y-73390765D01*
X67709148Y-73449097D01*
X67808727Y-73490344D01*
X67810225Y-73491345D01*
X68025089Y-73634912D01*
X68209088Y-73818911D01*
X68255861Y-73888912D01*
X68353656Y-74035273D01*
X68354070Y-74036273D01*
X68453235Y-74275678D01*
X68453235Y-74275680D01*
X68504000Y-74530891D01*
X68504000Y-74791109D01*
X68484177Y-74890765D01*
X68453235Y-75046322D01*
X68416125Y-75135912D01*
X68353656Y-75286727D01*
X68312715Y-75348000D01*
X68209088Y-75503089D01*
X68025089Y-75687088D01*
X67911333Y-75763097D01*
X67808727Y-75831656D01*
X67709148Y-75872903D01*
X67568322Y-75931235D01*
X67440714Y-75956618D01*
X67313109Y-75982000D01*
X67052891Y-75982000D01*
X66925286Y-75956618D01*
X66797678Y-75931235D01*
X66656852Y-75872903D01*
X66557273Y-75831656D01*
X66454667Y-75763097D01*
X66340911Y-75687088D01*
X66156912Y-75503089D01*
X66053285Y-75348000D01*
X66012344Y-75286727D01*
X65949875Y-75135912D01*
X65912765Y-75046322D01*
X65881823Y-74890765D01*
X65862000Y-74791109D01*
X65862000Y-74530891D01*
X65912765Y-74275680D01*
X65912765Y-74275678D01*
X66011930Y-74036273D01*
X66012344Y-74035273D01*
X66110139Y-73888912D01*
X66156912Y-73818911D01*
X66340911Y-73634912D01*
X66555775Y-73491345D01*
X66557273Y-73490344D01*
X66656852Y-73449097D01*
X66797678Y-73390765D01*
X66925286Y-73365382D01*
X67052891Y-73340000D01*
X67313109Y-73340000D01*
X67440714Y-73365382D01*
X67440714Y-73365382D01*
G37*
G36*
X121043000Y-74180000D02*
G01*
X119241000Y-74180000D01*
X119241000Y-72378000D01*
X121043000Y-72378000D01*
X121043000Y-74180000D01*
X121043000Y-74180000D01*
G37*
G36*
X194206424Y-68371760D02*
G01*
X194206427Y-68371761D01*
X194206428Y-68371761D01*
X194385692Y-68426140D01*
X194385695Y-68426142D01*
X194385696Y-68426142D01*
X194550902Y-68514446D01*
X194695711Y-68633288D01*
X194814553Y-68778097D01*
X194883580Y-68907239D01*
X194902859Y-68943307D01*
X194957238Y-69122571D01*
X194957239Y-69122575D01*
X194975600Y-69309000D01*
X194957239Y-69495425D01*
X194957238Y-69495428D01*
X194957238Y-69495429D01*
X194902859Y-69674693D01*
X194902857Y-69674696D01*
X194902857Y-69674697D01*
X194814553Y-69839903D01*
X194695711Y-69984712D01*
X194550902Y-70103554D01*
X194385696Y-70191858D01*
X194385692Y-70191860D01*
X194206428Y-70246239D01*
X194206427Y-70246239D01*
X194206424Y-70246240D01*
X194066717Y-70260000D01*
X193973281Y-70260000D01*
X193833574Y-70246240D01*
X193833571Y-70246239D01*
X193833570Y-70246239D01*
X193654306Y-70191860D01*
X193654302Y-70191858D01*
X193489096Y-70103554D01*
X193344287Y-69984712D01*
X193225445Y-69839903D01*
X193137141Y-69674697D01*
X193137141Y-69674696D01*
X193137139Y-69674693D01*
X193082760Y-69495429D01*
X193082760Y-69495428D01*
X193082759Y-69495425D01*
X193064398Y-69309000D01*
X193082759Y-69122575D01*
X193082760Y-69122571D01*
X193137139Y-68943307D01*
X193156418Y-68907239D01*
X193225445Y-68778097D01*
X193344287Y-68633288D01*
X193489096Y-68514446D01*
X193654302Y-68426142D01*
X193654303Y-68426142D01*
X193654306Y-68426140D01*
X193833570Y-68371761D01*
X193833571Y-68371761D01*
X193833574Y-68371760D01*
X193973281Y-68358000D01*
X194066717Y-68358000D01*
X194206424Y-68371760D01*
X194206424Y-68371760D01*
G37*
G36*
X205130999Y-70260000D02*
G01*
X203228999Y-70260000D01*
X203228999Y-68358000D01*
X205130999Y-68358000D01*
X205130999Y-70260000D01*
X205130999Y-70260000D01*
G37*
G36*
X96686823Y-67741313D02*
G01*
X96847242Y-67789976D01*
X96914361Y-67825852D01*
X96995078Y-67868996D01*
X97124659Y-67975341D01*
X97231004Y-68104922D01*
X97231005Y-68104924D01*
X97310024Y-68252758D01*
X97358687Y-68413177D01*
X97375117Y-68580000D01*
X97358687Y-68746823D01*
X97310024Y-68907242D01*
X97269477Y-68983100D01*
X97231004Y-69055078D01*
X97124659Y-69184659D01*
X96995078Y-69291004D01*
X96995076Y-69291005D01*
X96847242Y-69370024D01*
X96686823Y-69418687D01*
X96561804Y-69431000D01*
X96478196Y-69431000D01*
X96353177Y-69418687D01*
X96192758Y-69370024D01*
X96044924Y-69291005D01*
X96044922Y-69291004D01*
X95915341Y-69184659D01*
X95808996Y-69055078D01*
X95770523Y-68983100D01*
X95729976Y-68907242D01*
X95681313Y-68746823D01*
X95664883Y-68580000D01*
X95681313Y-68413177D01*
X95729976Y-68252758D01*
X95808995Y-68104924D01*
X95808996Y-68104922D01*
X95915341Y-67975341D01*
X96044922Y-67868996D01*
X96125639Y-67825852D01*
X96192758Y-67789976D01*
X96353177Y-67741313D01*
X96478196Y-67729000D01*
X96561804Y-67729000D01*
X96686823Y-67741313D01*
X96686823Y-67741313D01*
G37*
G36*
X117088228Y-67761703D02*
G01*
X117243100Y-67825853D01*
X117382481Y-67918985D01*
X117501015Y-68037519D01*
X117594147Y-68176900D01*
X117658297Y-68331772D01*
X117691000Y-68496184D01*
X117691000Y-68663816D01*
X117658297Y-68828228D01*
X117594147Y-68983100D01*
X117501015Y-69122481D01*
X117382481Y-69241015D01*
X117243100Y-69334147D01*
X117088228Y-69398297D01*
X116923816Y-69431000D01*
X116756184Y-69431000D01*
X116591772Y-69398297D01*
X116436900Y-69334147D01*
X116297519Y-69241015D01*
X116178985Y-69122481D01*
X116085853Y-68983100D01*
X116021703Y-68828228D01*
X115989000Y-68663816D01*
X115989000Y-68496184D01*
X116021703Y-68331772D01*
X116085853Y-68176900D01*
X116178985Y-68037519D01*
X116297519Y-67918985D01*
X116436900Y-67825853D01*
X116591772Y-67761703D01*
X116756184Y-67729000D01*
X116923816Y-67729000D01*
X117088228Y-67761703D01*
X117088228Y-67761703D01*
G37*
G36*
X58586823Y-67741313D02*
G01*
X58747242Y-67789976D01*
X58814361Y-67825852D01*
X58895078Y-67868996D01*
X59024659Y-67975341D01*
X59131004Y-68104922D01*
X59131005Y-68104924D01*
X59210024Y-68252758D01*
X59258687Y-68413177D01*
X59275117Y-68580000D01*
X59258687Y-68746823D01*
X59210024Y-68907242D01*
X59169477Y-68983100D01*
X59131004Y-69055078D01*
X59024659Y-69184659D01*
X58895078Y-69291004D01*
X58895076Y-69291005D01*
X58747242Y-69370024D01*
X58586823Y-69418687D01*
X58461804Y-69431000D01*
X58378196Y-69431000D01*
X58253177Y-69418687D01*
X58092758Y-69370024D01*
X57944924Y-69291005D01*
X57944922Y-69291004D01*
X57815341Y-69184659D01*
X57708996Y-69055078D01*
X57670523Y-68983100D01*
X57629976Y-68907242D01*
X57581313Y-68746823D01*
X57564883Y-68580000D01*
X57581313Y-68413177D01*
X57629976Y-68252758D01*
X57708995Y-68104924D01*
X57708996Y-68104922D01*
X57815341Y-67975341D01*
X57944922Y-67868996D01*
X58025639Y-67825852D01*
X58092758Y-67789976D01*
X58253177Y-67741313D01*
X58378196Y-67729000D01*
X58461804Y-67729000D01*
X58586823Y-67741313D01*
X58586823Y-67741313D01*
G37*
G36*
X106846823Y-67741313D02*
G01*
X107007242Y-67789976D01*
X107074361Y-67825852D01*
X107155078Y-67868996D01*
X107284659Y-67975341D01*
X107391004Y-68104922D01*
X107391005Y-68104924D01*
X107470024Y-68252758D01*
X107518687Y-68413177D01*
X107535117Y-68580000D01*
X107518687Y-68746823D01*
X107470024Y-68907242D01*
X107429477Y-68983100D01*
X107391004Y-69055078D01*
X107284659Y-69184659D01*
X107155078Y-69291004D01*
X107155076Y-69291005D01*
X107007242Y-69370024D01*
X106846823Y-69418687D01*
X106721804Y-69431000D01*
X106638196Y-69431000D01*
X106513177Y-69418687D01*
X106352758Y-69370024D01*
X106204924Y-69291005D01*
X106204922Y-69291004D01*
X106075341Y-69184659D01*
X105968996Y-69055078D01*
X105930523Y-68983100D01*
X105889976Y-68907242D01*
X105841313Y-68746823D01*
X105824883Y-68580000D01*
X105841313Y-68413177D01*
X105889976Y-68252758D01*
X105968995Y-68104924D01*
X105968996Y-68104922D01*
X106075341Y-67975341D01*
X106204922Y-67868996D01*
X106285639Y-67825852D01*
X106352758Y-67789976D01*
X106513177Y-67741313D01*
X106638196Y-67729000D01*
X106721804Y-67729000D01*
X106846823Y-67741313D01*
X106846823Y-67741313D01*
G37*
G36*
X67558228Y-67761703D02*
G01*
X67713100Y-67825853D01*
X67852481Y-67918985D01*
X67971015Y-68037519D01*
X68064147Y-68176900D01*
X68128297Y-68331772D01*
X68161000Y-68496184D01*
X68161000Y-68663816D01*
X68128297Y-68828228D01*
X68064147Y-68983100D01*
X67971015Y-69122481D01*
X67852481Y-69241015D01*
X67713100Y-69334147D01*
X67558228Y-69398297D01*
X67393816Y-69431000D01*
X67226184Y-69431000D01*
X67061772Y-69398297D01*
X66906900Y-69334147D01*
X66767519Y-69241015D01*
X66648985Y-69122481D01*
X66555853Y-68983100D01*
X66491703Y-68828228D01*
X66459000Y-68663816D01*
X66459000Y-68496184D01*
X66491703Y-68331772D01*
X66555853Y-68176900D01*
X66648985Y-68037519D01*
X66767519Y-67918985D01*
X66906900Y-67825853D01*
X67061772Y-67761703D01*
X67226184Y-67729000D01*
X67393816Y-67729000D01*
X67558228Y-67761703D01*
X67558228Y-67761703D01*
G37*
G36*
X180302000Y-68415000D02*
G01*
X178600000Y-68415000D01*
X178600000Y-66713000D01*
X180302000Y-66713000D01*
X180302000Y-68415000D01*
X180302000Y-68415000D01*
G37*
G36*
X173394823Y-66090313D02*
G01*
X173555242Y-66138976D01*
X173622361Y-66174852D01*
X173703078Y-66217996D01*
X173832659Y-66324341D01*
X173939004Y-66453922D01*
X173939005Y-66453924D01*
X174018024Y-66601758D01*
X174066687Y-66762177D01*
X174083117Y-66929000D01*
X174066687Y-67095823D01*
X174018024Y-67256242D01*
X173977477Y-67332100D01*
X173939004Y-67404078D01*
X173832659Y-67533659D01*
X173703078Y-67640004D01*
X173703076Y-67640005D01*
X173555242Y-67719024D01*
X173394823Y-67767687D01*
X173269804Y-67780000D01*
X173186196Y-67780000D01*
X173061177Y-67767687D01*
X172900758Y-67719024D01*
X172752924Y-67640005D01*
X172752922Y-67640004D01*
X172623341Y-67533659D01*
X172516996Y-67404078D01*
X172478523Y-67332100D01*
X172437976Y-67256242D01*
X172389313Y-67095823D01*
X172372883Y-66929000D01*
X172389313Y-66762177D01*
X172437976Y-66601758D01*
X172516995Y-66453924D01*
X172516996Y-66453922D01*
X172623341Y-66324341D01*
X172752922Y-66217996D01*
X172833639Y-66174852D01*
X172900758Y-66138976D01*
X173061177Y-66090313D01*
X173186196Y-66078000D01*
X173269804Y-66078000D01*
X173394823Y-66090313D01*
X173394823Y-66090313D01*
G37*
G36*
X163316228Y-66110703D02*
G01*
X163471100Y-66174853D01*
X163610481Y-66267985D01*
X163729015Y-66386519D01*
X163822147Y-66525900D01*
X163886297Y-66680772D01*
X163919000Y-66845184D01*
X163919000Y-67012816D01*
X163886297Y-67177228D01*
X163822147Y-67332100D01*
X163729015Y-67471481D01*
X163610481Y-67590015D01*
X163471100Y-67683147D01*
X163316228Y-67747297D01*
X163151816Y-67780000D01*
X162984184Y-67780000D01*
X162819772Y-67747297D01*
X162664900Y-67683147D01*
X162525519Y-67590015D01*
X162406985Y-67471481D01*
X162313853Y-67332100D01*
X162249703Y-67177228D01*
X162217000Y-67012816D01*
X162217000Y-66845184D01*
X162249703Y-66680772D01*
X162313853Y-66525900D01*
X162406985Y-66386519D01*
X162525519Y-66267985D01*
X162664900Y-66174853D01*
X162819772Y-66110703D01*
X162984184Y-66078000D01*
X163151816Y-66078000D01*
X163316228Y-66110703D01*
X163316228Y-66110703D01*
G37*
G36*
X147949228Y-66110703D02*
G01*
X148104100Y-66174853D01*
X148243481Y-66267985D01*
X148362015Y-66386519D01*
X148455147Y-66525900D01*
X148519297Y-66680772D01*
X148552000Y-66845184D01*
X148552000Y-67012816D01*
X148519297Y-67177228D01*
X148455147Y-67332100D01*
X148362015Y-67471481D01*
X148243481Y-67590015D01*
X148104100Y-67683147D01*
X147949228Y-67747297D01*
X147784816Y-67780000D01*
X147617184Y-67780000D01*
X147452772Y-67747297D01*
X147297900Y-67683147D01*
X147158519Y-67590015D01*
X147039985Y-67471481D01*
X146946853Y-67332100D01*
X146882703Y-67177228D01*
X146850000Y-67012816D01*
X146850000Y-66845184D01*
X146882703Y-66680772D01*
X146946853Y-66525900D01*
X147039985Y-66386519D01*
X147158519Y-66267985D01*
X147297900Y-66174853D01*
X147452772Y-66110703D01*
X147617184Y-66078000D01*
X147784816Y-66078000D01*
X147949228Y-66110703D01*
X147949228Y-66110703D01*
G37*
G36*
X158027823Y-66090313D02*
G01*
X158188242Y-66138976D01*
X158255361Y-66174852D01*
X158336078Y-66217996D01*
X158465659Y-66324341D01*
X158572004Y-66453922D01*
X158572005Y-66453924D01*
X158651024Y-66601758D01*
X158699687Y-66762177D01*
X158716117Y-66929000D01*
X158699687Y-67095823D01*
X158651024Y-67256242D01*
X158610477Y-67332100D01*
X158572004Y-67404078D01*
X158465659Y-67533659D01*
X158336078Y-67640004D01*
X158336076Y-67640005D01*
X158188242Y-67719024D01*
X158027823Y-67767687D01*
X157902804Y-67780000D01*
X157819196Y-67780000D01*
X157694177Y-67767687D01*
X157533758Y-67719024D01*
X157385924Y-67640005D01*
X157385922Y-67640004D01*
X157256341Y-67533659D01*
X157149996Y-67404078D01*
X157111523Y-67332100D01*
X157070976Y-67256242D01*
X157022313Y-67095823D01*
X157005883Y-66929000D01*
X157022313Y-66762177D01*
X157070976Y-66601758D01*
X157149995Y-66453924D01*
X157149996Y-66453922D01*
X157256341Y-66324341D01*
X157385922Y-66217996D01*
X157466639Y-66174852D01*
X157533758Y-66138976D01*
X157694177Y-66090313D01*
X157819196Y-66078000D01*
X157902804Y-66078000D01*
X158027823Y-66090313D01*
X158027823Y-66090313D01*
G37*
G36*
X221596000Y-66275000D02*
G01*
X219094000Y-66275000D01*
X219094000Y-63773000D01*
X221596000Y-63773000D01*
X221596000Y-66275000D01*
X221596000Y-66275000D01*
G37*
G36*
X228095325Y-63798284D02*
G01*
X228209903Y-63821075D01*
X228437571Y-63915378D01*
X228642466Y-64052285D01*
X228816715Y-64226534D01*
X228872387Y-64309853D01*
X228953623Y-64431431D01*
X229047925Y-64659097D01*
X229096000Y-64900786D01*
X229096000Y-65147214D01*
X229047925Y-65388903D01*
X228957802Y-65606481D01*
X228953622Y-65616571D01*
X228816715Y-65821466D01*
X228642466Y-65995715D01*
X228437571Y-66132622D01*
X228437570Y-66132623D01*
X228437569Y-66132623D01*
X228209903Y-66226925D01*
X227968214Y-66275000D01*
X227721786Y-66275000D01*
X227480097Y-66226925D01*
X227252431Y-66132623D01*
X227252430Y-66132623D01*
X227252429Y-66132622D01*
X227047534Y-65995715D01*
X226873285Y-65821466D01*
X226736378Y-65616571D01*
X226732199Y-65606481D01*
X226642075Y-65388903D01*
X226594000Y-65147214D01*
X226594000Y-64900786D01*
X226642075Y-64659097D01*
X226736377Y-64431431D01*
X226817613Y-64309853D01*
X226873285Y-64226534D01*
X227047534Y-64052285D01*
X227252429Y-63915378D01*
X227480097Y-63821075D01*
X227594675Y-63798284D01*
X227721786Y-63773000D01*
X227968214Y-63773000D01*
X228095325Y-63798284D01*
X228095325Y-63798284D01*
G37*
G36*
X86604903Y-63567075D02*
G01*
X86832571Y-63661378D01*
X87037466Y-63798285D01*
X87211715Y-63972534D01*
X87211716Y-63972536D01*
X87348623Y-64177431D01*
X87442925Y-64405097D01*
X87491000Y-64646786D01*
X87491000Y-64893214D01*
X87473700Y-64980185D01*
X87442925Y-65134903D01*
X87348622Y-65362571D01*
X87211715Y-65567466D01*
X87037466Y-65741715D01*
X86832571Y-65878622D01*
X86832570Y-65878623D01*
X86832569Y-65878623D01*
X86604903Y-65972925D01*
X86363214Y-66021000D01*
X86116786Y-66021000D01*
X85875097Y-65972925D01*
X85647431Y-65878623D01*
X85647430Y-65878623D01*
X85647429Y-65878622D01*
X85442534Y-65741715D01*
X85268285Y-65567466D01*
X85131378Y-65362571D01*
X85037075Y-65134903D01*
X85006300Y-64980185D01*
X84989000Y-64893214D01*
X84989000Y-64646786D01*
X85037075Y-64405097D01*
X85131377Y-64177431D01*
X85268284Y-63972536D01*
X85268285Y-63972534D01*
X85442534Y-63798285D01*
X85647429Y-63661378D01*
X85875097Y-63567075D01*
X86116786Y-63519000D01*
X86363214Y-63519000D01*
X86604903Y-63567075D01*
X86604903Y-63567075D01*
G37*
G36*
X128251000Y-66021000D02*
G01*
X125749000Y-66021000D01*
X125749000Y-63519000D01*
X128251000Y-63519000D01*
X128251000Y-66021000D01*
X128251000Y-66021000D01*
G37*
G36*
X79991000Y-66021000D02*
G01*
X77489000Y-66021000D01*
X77489000Y-63519000D01*
X79991000Y-63519000D01*
X79991000Y-66021000D01*
X79991000Y-66021000D01*
G37*
G36*
X134864903Y-63567075D02*
G01*
X135092571Y-63661378D01*
X135297466Y-63798285D01*
X135471715Y-63972534D01*
X135471716Y-63972536D01*
X135608623Y-64177431D01*
X135702925Y-64405097D01*
X135751000Y-64646786D01*
X135751000Y-64893214D01*
X135733700Y-64980185D01*
X135702925Y-65134903D01*
X135608622Y-65362571D01*
X135471715Y-65567466D01*
X135297466Y-65741715D01*
X135092571Y-65878622D01*
X135092570Y-65878623D01*
X135092569Y-65878623D01*
X134864903Y-65972925D01*
X134623214Y-66021000D01*
X134376786Y-66021000D01*
X134135097Y-65972925D01*
X133907431Y-65878623D01*
X133907430Y-65878623D01*
X133907429Y-65878622D01*
X133702534Y-65741715D01*
X133528285Y-65567466D01*
X133391378Y-65362571D01*
X133297075Y-65134903D01*
X133266300Y-64980185D01*
X133249000Y-64893214D01*
X133249000Y-64646786D01*
X133297075Y-64405097D01*
X133391377Y-64177431D01*
X133528284Y-63972536D01*
X133528285Y-63972534D01*
X133702534Y-63798285D01*
X133907429Y-63661378D01*
X134135097Y-63567075D01*
X134376786Y-63519000D01*
X134623214Y-63519000D01*
X134864903Y-63567075D01*
X134864903Y-63567075D01*
G37*
G36*
X179699228Y-64245703D02*
G01*
X179854100Y-64309853D01*
X179993481Y-64402985D01*
X180112015Y-64521519D01*
X180205147Y-64660900D01*
X180269297Y-64815772D01*
X180302000Y-64980184D01*
X180302000Y-65147816D01*
X180269297Y-65312228D01*
X180205147Y-65467100D01*
X180112015Y-65606481D01*
X179993481Y-65725015D01*
X179854100Y-65818147D01*
X179699228Y-65882297D01*
X179534816Y-65915000D01*
X179367184Y-65915000D01*
X179202772Y-65882297D01*
X179047900Y-65818147D01*
X178908519Y-65725015D01*
X178789985Y-65606481D01*
X178696853Y-65467100D01*
X178632703Y-65312228D01*
X178600000Y-65147816D01*
X178600000Y-64980184D01*
X178632703Y-64815772D01*
X178696853Y-64660900D01*
X178789985Y-64521519D01*
X178908519Y-64402985D01*
X179047900Y-64309853D01*
X179202772Y-64245703D01*
X179367184Y-64213000D01*
X179534816Y-64213000D01*
X179699228Y-64245703D01*
X179699228Y-64245703D01*
G37*
G36*
X186546903Y-62678075D02*
G01*
X186774571Y-62772378D01*
X186979466Y-62909285D01*
X187153715Y-63083534D01*
X187290622Y-63288429D01*
X187384925Y-63516097D01*
X187433000Y-63757787D01*
X187433000Y-64004213D01*
X187384925Y-64245903D01*
X187290622Y-64473571D01*
X187153715Y-64678466D01*
X186979466Y-64852715D01*
X186774571Y-64989622D01*
X186774570Y-64989623D01*
X186774569Y-64989623D01*
X186546903Y-65083925D01*
X186305214Y-65132000D01*
X186058786Y-65132000D01*
X185817097Y-65083925D01*
X185589431Y-64989623D01*
X185589430Y-64989623D01*
X185589429Y-64989622D01*
X185384534Y-64852715D01*
X185210285Y-64678466D01*
X185073378Y-64473571D01*
X184979075Y-64245903D01*
X184931000Y-64004213D01*
X184931000Y-63757787D01*
X184979075Y-63516097D01*
X185073378Y-63288429D01*
X185210285Y-63083534D01*
X185384534Y-62909285D01*
X185589429Y-62772378D01*
X185817097Y-62678075D01*
X186058786Y-62630000D01*
X186305214Y-62630000D01*
X186546903Y-62678075D01*
X186546903Y-62678075D01*
G37*
G36*
X166578000Y-61295000D02*
G01*
X163876000Y-61295000D01*
X163876000Y-58593000D01*
X166578000Y-58593000D01*
X166578000Y-61295000D01*
X166578000Y-61295000D01*
G37*
G36*
X170621072Y-58644918D02*
G01*
X170866939Y-58746759D01*
X171088212Y-58894610D01*
X171276390Y-59082788D01*
X171380299Y-59238297D01*
X171424242Y-59304063D01*
X171487193Y-59456042D01*
X171526082Y-59549928D01*
X171578000Y-59810938D01*
X171578000Y-60077062D01*
X171526082Y-60338072D01*
X171424241Y-60583939D01*
X171276390Y-60805212D01*
X171088212Y-60993390D01*
X170866939Y-61141241D01*
X170866938Y-61141242D01*
X170866937Y-61141242D01*
X170621072Y-61243082D01*
X170360063Y-61295000D01*
X170093937Y-61295000D01*
X169832928Y-61243082D01*
X169587063Y-61141242D01*
X169587062Y-61141242D01*
X169587061Y-61141241D01*
X169365788Y-60993390D01*
X169177610Y-60805212D01*
X169029759Y-60583939D01*
X168927918Y-60338072D01*
X168876000Y-60077062D01*
X168876000Y-59810938D01*
X168927918Y-59549928D01*
X168966807Y-59456042D01*
X169029758Y-59304063D01*
X169073702Y-59238297D01*
X169177610Y-59082788D01*
X169365788Y-58894610D01*
X169587061Y-58746759D01*
X169832928Y-58644918D01*
X170093937Y-58593000D01*
X170360063Y-58593000D01*
X170621072Y-58644918D01*
X170621072Y-58644918D01*
G37*
G36*
X206710000Y-61295000D02*
G01*
X204008000Y-61295000D01*
X204008000Y-58593000D01*
X206710000Y-58593000D01*
X206710000Y-61295000D01*
X206710000Y-61295000D01*
G37*
G36*
X210753072Y-58644918D02*
G01*
X210998939Y-58746759D01*
X211220212Y-58894610D01*
X211408390Y-59082788D01*
X211512299Y-59238297D01*
X211556242Y-59304063D01*
X211619193Y-59456042D01*
X211658082Y-59549928D01*
X211710000Y-59810938D01*
X211710000Y-60077062D01*
X211658082Y-60338072D01*
X211556241Y-60583939D01*
X211408390Y-60805212D01*
X211220212Y-60993390D01*
X210998939Y-61141241D01*
X210998938Y-61141242D01*
X210998937Y-61141242D01*
X210753072Y-61243082D01*
X210492063Y-61295000D01*
X210225937Y-61295000D01*
X209964928Y-61243082D01*
X209719063Y-61141242D01*
X209719062Y-61141242D01*
X209719061Y-61141241D01*
X209497788Y-60993390D01*
X209309610Y-60805212D01*
X209161759Y-60583939D01*
X209059918Y-60338072D01*
X209008000Y-60077062D01*
X209008000Y-59810938D01*
X209059918Y-59549928D01*
X209098807Y-59456042D01*
X209161758Y-59304063D01*
X209205702Y-59238297D01*
X209309610Y-59082788D01*
X209497788Y-58894610D01*
X209719061Y-58746759D01*
X209964928Y-58644918D01*
X210225937Y-58593000D01*
X210492063Y-58593000D01*
X210753072Y-58644918D01*
X210753072Y-58644918D01*
G37*
G36*
X197926072Y-58644918D02*
G01*
X198171939Y-58746759D01*
X198393212Y-58894610D01*
X198581390Y-59082788D01*
X198685299Y-59238297D01*
X198729242Y-59304063D01*
X198792193Y-59456042D01*
X198831082Y-59549928D01*
X198883000Y-59810938D01*
X198883000Y-60077062D01*
X198831082Y-60338072D01*
X198729241Y-60583939D01*
X198581390Y-60805212D01*
X198393212Y-60993390D01*
X198171939Y-61141241D01*
X198171938Y-61141242D01*
X198171937Y-61141242D01*
X197926072Y-61243082D01*
X197665063Y-61295000D01*
X197398937Y-61295000D01*
X197137928Y-61243082D01*
X196892063Y-61141242D01*
X196892062Y-61141242D01*
X196892061Y-61141241D01*
X196670788Y-60993390D01*
X196482610Y-60805212D01*
X196334759Y-60583939D01*
X196232918Y-60338072D01*
X196181000Y-60077062D01*
X196181000Y-59810938D01*
X196232918Y-59549928D01*
X196271807Y-59456042D01*
X196334758Y-59304063D01*
X196378702Y-59238297D01*
X196482610Y-59082788D01*
X196670788Y-58894610D01*
X196892061Y-58746759D01*
X197137928Y-58644918D01*
X197398937Y-58593000D01*
X197665063Y-58593000D01*
X197926072Y-58644918D01*
X197926072Y-58644918D01*
G37*
G36*
X193883000Y-61295000D02*
G01*
X191181000Y-61295000D01*
X191181000Y-58593000D01*
X193883000Y-58593000D01*
X193883000Y-61295000D01*
X193883000Y-61295000D01*
G37*
G36*
X144284000Y-60718000D02*
G01*
X142482000Y-60718000D01*
X142482000Y-58916000D01*
X144284000Y-58916000D01*
X144284000Y-60718000D01*
X144284000Y-60718000D01*
G37*
G36*
X149329000Y-60718000D02*
G01*
X147527000Y-60718000D01*
X147527000Y-58916000D01*
X149329000Y-58916000D01*
X149329000Y-60718000D01*
X149329000Y-60718000D01*
G37*
G36*
X237357256Y-57065298D02*
G01*
X237463579Y-57086447D01*
X237764042Y-57210903D01*
X238034451Y-57391585D01*
X238264415Y-57621549D01*
X238445097Y-57891958D01*
X238445098Y-57891960D01*
X238569553Y-58192422D01*
X238631494Y-58503816D01*
X238633000Y-58511391D01*
X238633000Y-58836609D01*
X238569553Y-59155579D01*
X238445097Y-59456042D01*
X238264415Y-59726451D01*
X238034451Y-59956415D01*
X237764042Y-60137097D01*
X237463579Y-60261553D01*
X237357256Y-60282702D01*
X237144611Y-60325000D01*
X236819389Y-60325000D01*
X236606744Y-60282702D01*
X236500421Y-60261553D01*
X236199958Y-60137097D01*
X235929549Y-59956415D01*
X235699585Y-59726451D01*
X235518903Y-59456042D01*
X235394447Y-59155579D01*
X235331000Y-58836609D01*
X235331000Y-58511391D01*
X235332507Y-58503816D01*
X235394447Y-58192422D01*
X235518902Y-57891960D01*
X235518903Y-57891958D01*
X235699585Y-57621549D01*
X235929549Y-57391585D01*
X236199958Y-57210903D01*
X236500421Y-57086447D01*
X236606744Y-57065298D01*
X236819389Y-57023000D01*
X237144611Y-57023000D01*
X237357256Y-57065298D01*
X237357256Y-57065298D01*
G37*
G36*
X49397256Y-57065298D02*
G01*
X49503579Y-57086447D01*
X49804042Y-57210903D01*
X50074451Y-57391585D01*
X50304415Y-57621549D01*
X50485097Y-57891958D01*
X50485098Y-57891960D01*
X50609553Y-58192422D01*
X50671494Y-58503816D01*
X50673000Y-58511391D01*
X50673000Y-58836609D01*
X50609553Y-59155579D01*
X50485097Y-59456042D01*
X50304415Y-59726451D01*
X50074451Y-59956415D01*
X49804042Y-60137097D01*
X49503579Y-60261553D01*
X49397256Y-60282702D01*
X49184611Y-60325000D01*
X48859389Y-60325000D01*
X48646744Y-60282702D01*
X48540421Y-60261553D01*
X48239958Y-60137097D01*
X47969549Y-59956415D01*
X47739585Y-59726451D01*
X47558903Y-59456042D01*
X47434447Y-59155579D01*
X47371000Y-58836609D01*
X47371000Y-58511391D01*
X47372507Y-58503816D01*
X47434447Y-58192422D01*
X47558902Y-57891960D01*
X47558903Y-57891958D01*
X47739585Y-57621549D01*
X47969549Y-57391585D01*
X48239958Y-57210903D01*
X48540421Y-57086447D01*
X48646744Y-57065298D01*
X48859389Y-57023000D01*
X49184611Y-57023000D01*
X49397256Y-57065298D01*
X49397256Y-57065298D01*
G37*
G36*
X156458256Y-57065298D02*
G01*
X156564579Y-57086447D01*
X156865042Y-57210903D01*
X157135451Y-57391585D01*
X157365415Y-57621549D01*
X157546097Y-57891958D01*
X157546098Y-57891960D01*
X157670553Y-58192422D01*
X157732494Y-58503816D01*
X157734000Y-58511391D01*
X157734000Y-58836609D01*
X157670553Y-59155579D01*
X157546097Y-59456042D01*
X157365415Y-59726451D01*
X157135451Y-59956415D01*
X156865042Y-60137097D01*
X156564579Y-60261553D01*
X156458256Y-60282702D01*
X156245611Y-60325000D01*
X155920389Y-60325000D01*
X155707744Y-60282702D01*
X155601421Y-60261553D01*
X155300958Y-60137097D01*
X155030549Y-59956415D01*
X154800585Y-59726451D01*
X154619903Y-59456042D01*
X154495447Y-59155579D01*
X154432000Y-58836609D01*
X154432000Y-58511391D01*
X154433507Y-58503816D01*
X154495447Y-58192422D01*
X154619902Y-57891960D01*
X154619903Y-57891958D01*
X154800585Y-57621549D01*
X155030549Y-57391585D01*
X155300958Y-57210903D01*
X155601421Y-57086447D01*
X155707744Y-57065298D01*
X155920389Y-57023000D01*
X156245611Y-57023000D01*
X156458256Y-57065298D01*
X156458256Y-57065298D01*
G37*
G36*
X112661000Y-59321000D02*
G01*
X110859000Y-59321000D01*
X110859000Y-57519000D01*
X112661000Y-57519000D01*
X112661000Y-59321000D01*
X112661000Y-59321000D01*
G37*
G36*
X106928228Y-57601703D02*
G01*
X107083100Y-57665853D01*
X107222481Y-57758985D01*
X107341015Y-57877519D01*
X107434147Y-58016900D01*
X107498297Y-58171772D01*
X107531000Y-58336184D01*
X107531000Y-58503816D01*
X107498297Y-58668228D01*
X107434147Y-58823100D01*
X107341015Y-58962481D01*
X107222481Y-59081015D01*
X107083100Y-59174147D01*
X106928228Y-59238297D01*
X106763816Y-59271000D01*
X106596184Y-59271000D01*
X106431772Y-59238297D01*
X106276900Y-59174147D01*
X106137519Y-59081015D01*
X106018985Y-58962481D01*
X105925853Y-58823100D01*
X105861703Y-58668228D01*
X105829000Y-58503816D01*
X105829000Y-58336184D01*
X105861703Y-58171772D01*
X105925853Y-58016900D01*
X106018985Y-57877519D01*
X106137519Y-57758985D01*
X106276900Y-57665853D01*
X106431772Y-57601703D01*
X106596184Y-57569000D01*
X106763816Y-57569000D01*
X106928228Y-57601703D01*
X106928228Y-57601703D01*
G37*
G36*
X96768228Y-57601703D02*
G01*
X96923100Y-57665853D01*
X97062481Y-57758985D01*
X97181015Y-57877519D01*
X97274147Y-58016900D01*
X97338297Y-58171772D01*
X97371000Y-58336184D01*
X97371000Y-58503816D01*
X97338297Y-58668228D01*
X97274147Y-58823100D01*
X97181015Y-58962481D01*
X97062481Y-59081015D01*
X96923100Y-59174147D01*
X96768228Y-59238297D01*
X96603816Y-59271000D01*
X96436184Y-59271000D01*
X96271772Y-59238297D01*
X96116900Y-59174147D01*
X95977519Y-59081015D01*
X95858985Y-58962481D01*
X95765853Y-58823100D01*
X95701703Y-58668228D01*
X95669000Y-58503816D01*
X95669000Y-58336184D01*
X95701703Y-58171772D01*
X95765853Y-58016900D01*
X95858985Y-57877519D01*
X95977519Y-57758985D01*
X96116900Y-57665853D01*
X96271772Y-57601703D01*
X96436184Y-57569000D01*
X96603816Y-57569000D01*
X96768228Y-57601703D01*
X96768228Y-57601703D01*
G37*
G36*
X67476823Y-57581313D02*
G01*
X67637242Y-57629976D01*
X67704361Y-57665852D01*
X67785078Y-57708996D01*
X67914659Y-57815341D01*
X68021004Y-57944922D01*
X68021005Y-57944924D01*
X68100024Y-58092758D01*
X68148687Y-58253177D01*
X68165117Y-58420000D01*
X68148687Y-58586823D01*
X68100024Y-58747242D01*
X68059477Y-58823100D01*
X68021004Y-58895078D01*
X67914659Y-59024659D01*
X67785078Y-59131004D01*
X67785076Y-59131005D01*
X67637242Y-59210024D01*
X67476823Y-59258687D01*
X67351804Y-59271000D01*
X67268196Y-59271000D01*
X67143177Y-59258687D01*
X66982758Y-59210024D01*
X66834924Y-59131005D01*
X66834922Y-59131004D01*
X66705341Y-59024659D01*
X66598996Y-58895078D01*
X66560523Y-58823100D01*
X66519976Y-58747242D01*
X66471313Y-58586823D01*
X66454883Y-58420000D01*
X66471313Y-58253177D01*
X66519976Y-58092758D01*
X66598995Y-57944924D01*
X66598996Y-57944922D01*
X66705341Y-57815341D01*
X66834922Y-57708996D01*
X66915639Y-57665852D01*
X66982758Y-57629976D01*
X67143177Y-57581313D01*
X67268196Y-57569000D01*
X67351804Y-57569000D01*
X67476823Y-57581313D01*
X67476823Y-57581313D01*
G37*
G36*
X58668228Y-57601703D02*
G01*
X58823100Y-57665853D01*
X58962481Y-57758985D01*
X59081015Y-57877519D01*
X59174147Y-58016900D01*
X59238297Y-58171772D01*
X59271000Y-58336184D01*
X59271000Y-58503816D01*
X59238297Y-58668228D01*
X59174147Y-58823100D01*
X59081015Y-58962481D01*
X58962481Y-59081015D01*
X58823100Y-59174147D01*
X58668228Y-59238297D01*
X58503816Y-59271000D01*
X58336184Y-59271000D01*
X58171772Y-59238297D01*
X58016900Y-59174147D01*
X57877519Y-59081015D01*
X57758985Y-58962481D01*
X57665853Y-58823100D01*
X57601703Y-58668228D01*
X57569000Y-58503816D01*
X57569000Y-58336184D01*
X57601703Y-58171772D01*
X57665853Y-58016900D01*
X57758985Y-57877519D01*
X57877519Y-57758985D01*
X58016900Y-57665853D01*
X58171772Y-57601703D01*
X58336184Y-57569000D01*
X58503816Y-57569000D01*
X58668228Y-57601703D01*
X58668228Y-57601703D01*
G37*
G36*
X117006823Y-57581313D02*
G01*
X117167242Y-57629976D01*
X117234361Y-57665852D01*
X117315078Y-57708996D01*
X117444659Y-57815341D01*
X117551004Y-57944922D01*
X117551005Y-57944924D01*
X117630024Y-58092758D01*
X117678687Y-58253177D01*
X117695117Y-58420000D01*
X117678687Y-58586823D01*
X117630024Y-58747242D01*
X117589477Y-58823100D01*
X117551004Y-58895078D01*
X117444659Y-59024659D01*
X117315078Y-59131004D01*
X117315076Y-59131005D01*
X117167242Y-59210024D01*
X117006823Y-59258687D01*
X116881804Y-59271000D01*
X116798196Y-59271000D01*
X116673177Y-59258687D01*
X116512758Y-59210024D01*
X116364924Y-59131005D01*
X116364922Y-59131004D01*
X116235341Y-59024659D01*
X116128996Y-58895078D01*
X116090523Y-58823100D01*
X116049976Y-58747242D01*
X116001313Y-58586823D01*
X115984883Y-58420000D01*
X116001313Y-58253177D01*
X116049976Y-58092758D01*
X116128995Y-57944924D01*
X116128996Y-57944922D01*
X116235341Y-57815341D01*
X116364922Y-57708996D01*
X116445639Y-57665852D01*
X116512758Y-57629976D01*
X116673177Y-57581313D01*
X116798196Y-57569000D01*
X116881804Y-57569000D01*
X117006823Y-57581313D01*
X117006823Y-57581313D01*
G37*
M02*
