G04 #@! TF.GenerationSoftware,KiCad,Pcbnew,(5.1.4)-1*
G04 #@! TF.CreationDate,2019-12-03T00:22:22+01:00*
G04 #@! TF.ProjectId,pp,70702e6b-6963-4616-945f-706362585858,rev?*
G04 #@! TF.SameCoordinates,Original*
G04 #@! TF.FileFunction,Other,Fab,Top*
%FSLAX46Y46*%
G04 Gerber Fmt 4.6, Leading zero omitted, Abs format (unit mm)*
G04 Created by KiCad (PCBNEW (5.1.4)-1) date 2019-12-03 00:22:22*
%MOMM*%
%LPD*%
G04 APERTURE LIST*
%ADD10C,0.100000*%
%ADD11C,0.150000*%
G04 APERTURE END LIST*
D10*
X294000000Y-122500000D02*
X278000000Y-122500000D01*
X278000000Y-122500000D02*
X278000000Y-130000000D01*
X278000000Y-130000000D02*
X294000000Y-130000000D01*
X294000000Y-130000000D02*
X294000000Y-122500000D01*
X289500000Y-130000000D02*
X282500000Y-130000000D01*
X282500000Y-130000000D02*
X282500000Y-135000000D01*
X282500000Y-135000000D02*
X289500000Y-135000000D01*
X289500000Y-135000000D02*
X289500000Y-130000000D01*
X288000000Y-135000000D02*
X284000000Y-135000000D01*
X284000000Y-135000000D02*
X284000000Y-145000000D01*
X284000000Y-145000000D02*
X288000000Y-145000000D01*
X288000000Y-145000000D02*
X288000000Y-135000000D01*
X266000000Y-122500000D02*
X250000000Y-122500000D01*
X250000000Y-122500000D02*
X250000000Y-130000000D01*
X250000000Y-130000000D02*
X266000000Y-130000000D01*
X266000000Y-130000000D02*
X266000000Y-122500000D01*
X261500000Y-130000000D02*
X254500000Y-130000000D01*
X254500000Y-130000000D02*
X254500000Y-135000000D01*
X254500000Y-135000000D02*
X261500000Y-135000000D01*
X261500000Y-135000000D02*
X261500000Y-130000000D01*
X260000000Y-135000000D02*
X256000000Y-135000000D01*
X256000000Y-135000000D02*
X256000000Y-145000000D01*
X256000000Y-145000000D02*
X260000000Y-145000000D01*
X260000000Y-145000000D02*
X260000000Y-135000000D01*
X116840000Y-58420000D02*
X116840000Y-60350000D01*
X116840000Y-68580000D02*
X116840000Y-66650000D01*
X115590000Y-60350000D02*
X115590000Y-66650000D01*
X118090000Y-60350000D02*
X115590000Y-60350000D01*
X118090000Y-66650000D02*
X118090000Y-60350000D01*
X115590000Y-66650000D02*
X118090000Y-66650000D01*
X301752000Y-78867000D02*
X300082000Y-78867000D01*
X286512000Y-78867000D02*
X288182000Y-78867000D01*
X300082000Y-76617000D02*
X288182000Y-76617000D01*
X300082000Y-81117000D02*
X300082000Y-76617000D01*
X288182000Y-81117000D02*
X300082000Y-81117000D01*
X288182000Y-76617000D02*
X288182000Y-81117000D01*
X279908000Y-75184000D02*
X279908000Y-79384000D01*
X279908000Y-100584000D02*
X279908000Y-96384000D01*
X276908000Y-79384000D02*
X276908000Y-96384000D01*
X282908000Y-79384000D02*
X276908000Y-79384000D01*
X282908000Y-96384000D02*
X282908000Y-79384000D01*
X276908000Y-96384000D02*
X282908000Y-96384000D01*
X272923000Y-94615000D02*
X272923000Y-96285000D01*
X272923000Y-109855000D02*
X272923000Y-108185000D01*
X270673000Y-96285000D02*
X270673000Y-108185000D01*
X275173000Y-96285000D02*
X270673000Y-96285000D01*
X275173000Y-108185000D02*
X275173000Y-96285000D01*
X270673000Y-108185000D02*
X275173000Y-108185000D01*
X123912729Y-59922500D02*
X123912729Y-61722500D01*
X123012729Y-60822500D02*
X124812729Y-60822500D01*
X139750000Y-64770000D02*
G75*
G03X139750000Y-64770000I-9000000J0D01*
G01*
X89380000Y-88804000D02*
X89380000Y-81804000D01*
X85880000Y-88804000D02*
X89380000Y-88804000D01*
X85880000Y-81804000D02*
X85880000Y-88804000D01*
X89380000Y-81804000D02*
X85880000Y-81804000D01*
X113510000Y-106330000D02*
X113510000Y-99330000D01*
X110010000Y-106330000D02*
X113510000Y-106330000D01*
X110010000Y-99330000D02*
X110010000Y-106330000D01*
X113510000Y-99330000D02*
X110010000Y-99330000D01*
X148630000Y-104130000D02*
X148630000Y-114430000D01*
X153630000Y-104130000D02*
X148630000Y-104130000D01*
X153630000Y-114430000D02*
X153630000Y-104130000D01*
X148630000Y-114430000D02*
X153630000Y-114430000D01*
X173950000Y-114437000D02*
X173950000Y-104137000D01*
X168950000Y-114437000D02*
X173950000Y-114437000D01*
X168950000Y-104137000D02*
X168950000Y-114437000D01*
X173950000Y-104137000D02*
X168950000Y-104137000D01*
X79365000Y-80478000D02*
X89665000Y-80478000D01*
X79365000Y-75478000D02*
X79365000Y-80478000D01*
X89665000Y-75478000D02*
X79365000Y-75478000D01*
X89665000Y-80478000D02*
X89665000Y-75478000D01*
X91400000Y-105166000D02*
X91400000Y-94866000D01*
X86400000Y-105166000D02*
X91400000Y-105166000D01*
X86400000Y-94866000D02*
X86400000Y-105166000D01*
X91400000Y-94866000D02*
X86400000Y-94866000D01*
X76160000Y-108214000D02*
X76160000Y-97914000D01*
X71160000Y-108214000D02*
X76160000Y-108214000D01*
X71160000Y-97914000D02*
X71160000Y-108214000D01*
X76160000Y-97914000D02*
X71160000Y-97914000D01*
X138970000Y-104280000D02*
X138970000Y-114280000D01*
X142970000Y-104280000D02*
X138970000Y-104280000D01*
X142970000Y-114280000D02*
X142970000Y-104280000D01*
X138970000Y-114280000D02*
X142970000Y-114280000D01*
X263302000Y-55644000D02*
X261302000Y-55644000D01*
X263302000Y-56644000D02*
X263302000Y-55644000D01*
X261302000Y-56644000D02*
X263302000Y-56644000D01*
X261302000Y-55644000D02*
X261302000Y-56644000D01*
X263257000Y-58806000D02*
X261165000Y-60899000D01*
X263440000Y-58989000D02*
X261348000Y-61082000D01*
X258302000Y-55644000D02*
X256302000Y-55644000D01*
X258302000Y-56644000D02*
X258302000Y-55644000D01*
X256302000Y-56644000D02*
X258302000Y-56644000D01*
X256302000Y-55644000D02*
X256302000Y-56644000D01*
X258257000Y-58806000D02*
X256164000Y-60899000D01*
X258440000Y-58989000D02*
X256347000Y-61082000D01*
X254802000Y-57644000D02*
X264802000Y-57644000D01*
X254802000Y-61944000D02*
X264802000Y-61944000D01*
X254802000Y-63444000D02*
X264802000Y-63444000D01*
X254802000Y-63444000D02*
X254802000Y-55644000D01*
X255302000Y-63944000D02*
X254802000Y-63444000D01*
X264802000Y-63944000D02*
X255302000Y-63944000D01*
X264802000Y-55644000D02*
X264802000Y-63944000D01*
X254802000Y-55644000D02*
X264802000Y-55644000D01*
X263802000Y-59944000D02*
G75*
G03X263802000Y-59944000I-1500000J0D01*
G01*
X258802000Y-59944000D02*
G75*
G03X258802000Y-59944000I-1500000J0D01*
G01*
X279741729Y-106912500D02*
X279741729Y-108712500D01*
X278841729Y-107812500D02*
X280641729Y-107812500D01*
X295579000Y-111760000D02*
G75*
G03X295579000Y-111760000I-9000000J0D01*
G01*
X282027729Y-60049500D02*
X282027729Y-61849500D01*
X281127729Y-60949500D02*
X282927729Y-60949500D01*
X297865000Y-64897000D02*
G75*
G03X297865000Y-64897000I-9000000J0D01*
G01*
X75652729Y-59922500D02*
X75652729Y-61722500D01*
X74752729Y-60822500D02*
X76552729Y-60822500D01*
X91490000Y-64770000D02*
G75*
G03X91490000Y-64770000I-9000000J0D01*
G01*
X287996729Y-87100500D02*
X287996729Y-88900500D01*
X287096729Y-88000500D02*
X288896729Y-88000500D01*
X303834000Y-91948000D02*
G75*
G03X303834000Y-91948000I-9000000J0D01*
G01*
X142113000Y-59182000D02*
X142748000Y-58547000D01*
X142113000Y-61087000D02*
X142113000Y-59182000D01*
X144653000Y-61087000D02*
X142113000Y-61087000D01*
X144653000Y-58547000D02*
X144653000Y-61087000D01*
X142748000Y-58547000D02*
X144653000Y-58547000D01*
X110490000Y-114935000D02*
X111125000Y-114300000D01*
X110490000Y-116840000D02*
X110490000Y-114935000D01*
X113030000Y-116840000D02*
X110490000Y-116840000D01*
X113030000Y-114300000D02*
X113030000Y-116840000D01*
X111125000Y-114300000D02*
X113030000Y-114300000D01*
X139573000Y-88773000D02*
X140208000Y-88138000D01*
X139573000Y-90678000D02*
X139573000Y-88773000D01*
X142113000Y-90678000D02*
X139573000Y-90678000D01*
X142113000Y-88138000D02*
X142113000Y-90678000D01*
X140208000Y-88138000D02*
X142113000Y-88138000D01*
X147793000Y-58547000D02*
X149698000Y-58547000D01*
X149698000Y-58547000D02*
X149698000Y-61087000D01*
X149698000Y-61087000D02*
X147158000Y-61087000D01*
X147158000Y-61087000D02*
X147158000Y-59182000D01*
X147158000Y-59182000D02*
X147793000Y-58547000D01*
X78867000Y-89682000D02*
X78867000Y-92182000D01*
X78867000Y-92182000D02*
X83867000Y-92182000D01*
X83867000Y-92182000D02*
X83867000Y-89682000D01*
X83867000Y-89682000D02*
X78867000Y-89682000D01*
X102890000Y-105410000D02*
X105390000Y-105410000D01*
X105390000Y-105410000D02*
X105390000Y-100410000D01*
X105390000Y-100410000D02*
X102890000Y-100410000D01*
X102890000Y-100410000D02*
X102890000Y-105410000D01*
X261269999Y-88914000D02*
X261269999Y-91614000D01*
X261269999Y-91614000D02*
X266469999Y-91614000D01*
X266469999Y-91614000D02*
X266469999Y-88914000D01*
X266469999Y-88914000D02*
X261269999Y-88914000D01*
X258789999Y-90264000D02*
X261269999Y-90264000D01*
X268949999Y-90264000D02*
X266469999Y-90264000D01*
X262049999Y-88914000D02*
X262049999Y-91614000D01*
X262149999Y-88914000D02*
X262149999Y-91614000D01*
X261949999Y-88914000D02*
X261949999Y-91614000D01*
X265789999Y-84629000D02*
X265789999Y-81929000D01*
X265589999Y-84629000D02*
X265589999Y-81929000D01*
X265689999Y-84629000D02*
X265689999Y-81929000D01*
X258789999Y-83279000D02*
X261269999Y-83279000D01*
X268949999Y-83279000D02*
X266469999Y-83279000D01*
X261269999Y-84629000D02*
X266469999Y-84629000D01*
X261269999Y-81929000D02*
X261269999Y-84629000D01*
X266469999Y-81929000D02*
X261269999Y-81929000D01*
X266469999Y-84629000D02*
X266469999Y-81929000D01*
X261269999Y-74944000D02*
X261269999Y-77644000D01*
X261269999Y-77644000D02*
X266469999Y-77644000D01*
X266469999Y-77644000D02*
X266469999Y-74944000D01*
X266469999Y-74944000D02*
X261269999Y-74944000D01*
X258789999Y-76294000D02*
X261269999Y-76294000D01*
X268949999Y-76294000D02*
X266469999Y-76294000D01*
X262049999Y-74944000D02*
X262049999Y-77644000D01*
X262149999Y-74944000D02*
X262149999Y-77644000D01*
X261949999Y-74944000D02*
X261949999Y-77644000D01*
X265789999Y-70659000D02*
X265789999Y-67959000D01*
X265589999Y-70659000D02*
X265589999Y-67959000D01*
X265689999Y-70659000D02*
X265689999Y-67959000D01*
X258789999Y-69309000D02*
X261269999Y-69309000D01*
X268949999Y-69309000D02*
X266469999Y-69309000D01*
X261269999Y-70659000D02*
X266469999Y-70659000D01*
X261269999Y-67959000D02*
X261269999Y-70659000D01*
X266469999Y-67959000D02*
X261269999Y-67959000D01*
X266469999Y-70659000D02*
X266469999Y-67959000D01*
X72898000Y-111125000D02*
X72898000Y-113055000D01*
X72898000Y-121285000D02*
X72898000Y-119355000D01*
X71648000Y-113055000D02*
X71648000Y-119355000D01*
X74148000Y-113055000D02*
X71648000Y-113055000D01*
X74148000Y-119355000D02*
X74148000Y-113055000D01*
X71648000Y-119355000D02*
X74148000Y-119355000D01*
X63119000Y-107950000D02*
X63119000Y-106020000D01*
X63119000Y-97790000D02*
X63119000Y-99720000D01*
X64369000Y-106020000D02*
X64369000Y-99720000D01*
X61869000Y-106020000D02*
X64369000Y-106020000D01*
X61869000Y-99720000D02*
X61869000Y-106020000D01*
X64369000Y-99720000D02*
X61869000Y-99720000D01*
X81280000Y-97790000D02*
X81280000Y-99720000D01*
X81280000Y-107950000D02*
X81280000Y-106020000D01*
X80030000Y-99720000D02*
X80030000Y-106020000D01*
X82530000Y-99720000D02*
X80030000Y-99720000D01*
X82530000Y-106020000D02*
X82530000Y-99720000D01*
X80030000Y-106020000D02*
X82530000Y-106020000D01*
X50947000Y-94590000D02*
X53447000Y-94590000D01*
X53447000Y-94590000D02*
X53447000Y-88290000D01*
X53447000Y-88290000D02*
X50947000Y-88290000D01*
X50947000Y-88290000D02*
X50947000Y-94590000D01*
X52197000Y-96520000D02*
X52197000Y-94590000D01*
X52197000Y-86360000D02*
X52197000Y-88290000D01*
X97770000Y-99720000D02*
X95270000Y-99720000D01*
X95270000Y-99720000D02*
X95270000Y-106020000D01*
X95270000Y-106020000D02*
X97770000Y-106020000D01*
X97770000Y-106020000D02*
X97770000Y-99720000D01*
X96520000Y-97790000D02*
X96520000Y-99720000D01*
X96520000Y-107950000D02*
X96520000Y-106020000D01*
X58420000Y-68580000D02*
X58420000Y-66650000D01*
X58420000Y-58420000D02*
X58420000Y-60350000D01*
X59670000Y-66650000D02*
X59670000Y-60350000D01*
X57170000Y-66650000D02*
X59670000Y-66650000D01*
X57170000Y-60350000D02*
X57170000Y-66650000D01*
X59670000Y-60350000D02*
X57170000Y-60350000D01*
X67310000Y-58420000D02*
X67310000Y-60350000D01*
X67310000Y-68580000D02*
X67310000Y-66650000D01*
X66060000Y-60350000D02*
X66060000Y-66650000D01*
X68560000Y-60350000D02*
X66060000Y-60350000D01*
X68560000Y-66650000D02*
X68560000Y-60350000D01*
X66060000Y-66650000D02*
X68560000Y-66650000D01*
X93960000Y-79400000D02*
X91460000Y-79400000D01*
X91460000Y-79400000D02*
X91460000Y-85700000D01*
X91460000Y-85700000D02*
X93960000Y-85700000D01*
X93960000Y-85700000D02*
X93960000Y-79400000D01*
X92710000Y-77470000D02*
X92710000Y-79400000D01*
X92710000Y-87630000D02*
X92710000Y-85700000D01*
X97770000Y-60350000D02*
X95270000Y-60350000D01*
X95270000Y-60350000D02*
X95270000Y-66650000D01*
X95270000Y-66650000D02*
X97770000Y-66650000D01*
X97770000Y-66650000D02*
X97770000Y-60350000D01*
X96520000Y-58420000D02*
X96520000Y-60350000D01*
X96520000Y-68580000D02*
X96520000Y-66650000D01*
X127127000Y-85852000D02*
X127127000Y-83922000D01*
X127127000Y-75692000D02*
X127127000Y-77622000D01*
X128377000Y-83922000D02*
X128377000Y-77622000D01*
X125877000Y-83922000D02*
X128377000Y-83922000D01*
X125877000Y-77622000D02*
X125877000Y-83922000D01*
X128377000Y-77622000D02*
X125877000Y-77622000D01*
X134239000Y-79756000D02*
X134239000Y-81686000D01*
X134239000Y-89916000D02*
X134239000Y-87986000D01*
X132989000Y-81686000D02*
X132989000Y-87986000D01*
X135489000Y-81686000D02*
X132989000Y-81686000D01*
X135489000Y-87986000D02*
X135489000Y-81686000D01*
X132989000Y-87986000D02*
X135489000Y-87986000D01*
X263271000Y-99441000D02*
X263271000Y-101371000D01*
X263271000Y-109601000D02*
X263271000Y-107671000D01*
X262021000Y-101371000D02*
X262021000Y-107671000D01*
X264521000Y-101371000D02*
X262021000Y-101371000D01*
X264521000Y-107671000D02*
X264521000Y-101371000D01*
X262021000Y-107671000D02*
X264521000Y-107671000D01*
X107930000Y-60350000D02*
X105430000Y-60350000D01*
X105430000Y-60350000D02*
X105430000Y-66650000D01*
X105430000Y-66650000D02*
X107930000Y-66650000D01*
X107930000Y-66650000D02*
X107930000Y-60350000D01*
X106680000Y-58420000D02*
X106680000Y-60350000D01*
X106680000Y-68580000D02*
X106680000Y-66650000D01*
X160040000Y-112370000D02*
X162540000Y-112370000D01*
X162540000Y-112370000D02*
X162540000Y-106070000D01*
X162540000Y-106070000D02*
X160040000Y-106070000D01*
X160040000Y-106070000D02*
X160040000Y-112370000D01*
X161290000Y-114300000D02*
X161290000Y-112370000D01*
X161290000Y-104140000D02*
X161290000Y-106070000D01*
X249408000Y-106197000D02*
X246908000Y-106197000D01*
X246908000Y-106197000D02*
X246908000Y-112497000D01*
X246908000Y-112497000D02*
X249408000Y-112497000D01*
X249408000Y-112497000D02*
X249408000Y-106197000D01*
X248158000Y-104267000D02*
X248158000Y-106197000D01*
X248158000Y-114427000D02*
X248158000Y-112497000D01*
X236855000Y-99187000D02*
X238785000Y-99187000D01*
X247015000Y-99187000D02*
X245085000Y-99187000D01*
X238785000Y-100437000D02*
X245085000Y-100437000D01*
X238785000Y-97937000D02*
X238785000Y-100437000D01*
X245085000Y-97937000D02*
X238785000Y-97937000D01*
X245085000Y-100437000D02*
X245085000Y-97937000D01*
X157861000Y-66929000D02*
X155931000Y-66929000D01*
X147701000Y-66929000D02*
X149631000Y-66929000D01*
X155931000Y-65679000D02*
X149631000Y-65679000D01*
X155931000Y-68179000D02*
X155931000Y-65679000D01*
X149631000Y-68179000D02*
X155931000Y-68179000D01*
X149631000Y-65679000D02*
X149631000Y-68179000D01*
X164998000Y-65679000D02*
X164998000Y-68179000D01*
X164998000Y-68179000D02*
X171298000Y-68179000D01*
X171298000Y-68179000D02*
X171298000Y-65679000D01*
X171298000Y-65679000D02*
X164998000Y-65679000D01*
X163068000Y-66929000D02*
X164998000Y-66929000D01*
X173228000Y-66929000D02*
X171298000Y-66929000D01*
X276129000Y-55644000D02*
X274129000Y-55644000D01*
X276129000Y-56644000D02*
X276129000Y-55644000D01*
X274129000Y-56644000D02*
X276129000Y-56644000D01*
X274129000Y-55644000D02*
X274129000Y-56644000D01*
X276084000Y-58806000D02*
X273992000Y-60899000D01*
X276267000Y-58989000D02*
X274175000Y-61082000D01*
X271129000Y-55644000D02*
X269129000Y-55644000D01*
X271129000Y-56644000D02*
X271129000Y-55644000D01*
X269129000Y-56644000D02*
X271129000Y-56644000D01*
X269129000Y-55644000D02*
X269129000Y-56644000D01*
X271084000Y-58806000D02*
X268991000Y-60899000D01*
X271267000Y-58989000D02*
X269174000Y-61082000D01*
X267629000Y-57644000D02*
X277629000Y-57644000D01*
X267629000Y-61944000D02*
X277629000Y-61944000D01*
X267629000Y-63444000D02*
X277629000Y-63444000D01*
X267629000Y-63444000D02*
X267629000Y-55644000D01*
X268129000Y-63944000D02*
X267629000Y-63444000D01*
X277629000Y-63944000D02*
X268129000Y-63944000D01*
X277629000Y-55644000D02*
X277629000Y-63944000D01*
X267629000Y-55644000D02*
X277629000Y-55644000D01*
X276629000Y-59944000D02*
G75*
G03X276629000Y-59944000I-1500000J0D01*
G01*
X271629000Y-59944000D02*
G75*
G03X271629000Y-59944000I-1500000J0D01*
G01*
X166727000Y-59944000D02*
G75*
G03X166727000Y-59944000I-1500000J0D01*
G01*
X171727000Y-59944000D02*
G75*
G03X171727000Y-59944000I-1500000J0D01*
G01*
X162727000Y-55644000D02*
X172727000Y-55644000D01*
X172727000Y-55644000D02*
X172727000Y-63944000D01*
X172727000Y-63944000D02*
X163227000Y-63944000D01*
X163227000Y-63944000D02*
X162727000Y-63444000D01*
X162727000Y-63444000D02*
X162727000Y-55644000D01*
X162727000Y-63444000D02*
X172727000Y-63444000D01*
X162727000Y-61944000D02*
X172727000Y-61944000D01*
X162727000Y-57644000D02*
X172727000Y-57644000D01*
X166365000Y-58989000D02*
X164272000Y-61082000D01*
X166182000Y-58806000D02*
X164089000Y-60899000D01*
X164227000Y-55644000D02*
X164227000Y-56644000D01*
X164227000Y-56644000D02*
X166227000Y-56644000D01*
X166227000Y-56644000D02*
X166227000Y-55644000D01*
X166227000Y-55644000D02*
X164227000Y-55644000D01*
X171365000Y-58989000D02*
X169273000Y-61082000D01*
X171182000Y-58806000D02*
X169090000Y-60899000D01*
X169227000Y-55644000D02*
X169227000Y-56644000D01*
X169227000Y-56644000D02*
X171227000Y-56644000D01*
X171227000Y-56644000D02*
X171227000Y-55644000D01*
X171227000Y-55644000D02*
X169227000Y-55644000D01*
X255397000Y-104775000D02*
X257302000Y-104775000D01*
X257302000Y-104775000D02*
X257302000Y-107315000D01*
X257302000Y-107315000D02*
X254762000Y-107315000D01*
X254762000Y-107315000D02*
X254762000Y-105410000D01*
X254762000Y-105410000D02*
X255397000Y-104775000D01*
X263268000Y-114918959D02*
X263268000Y-119918959D01*
X263268000Y-119918959D02*
X273568000Y-119918959D01*
X273568000Y-119918959D02*
X273568000Y-114918959D01*
X273568000Y-114918959D02*
X263268000Y-114918959D01*
X110490000Y-57785000D02*
X111125000Y-57150000D01*
X110490000Y-59690000D02*
X110490000Y-57785000D01*
X113030000Y-59690000D02*
X110490000Y-59690000D01*
X113030000Y-57150000D02*
X113030000Y-59690000D01*
X111125000Y-57150000D02*
X113030000Y-57150000D01*
X81153000Y-84709000D02*
X81788000Y-84074000D01*
X81153000Y-86614000D02*
X81153000Y-84709000D01*
X83693000Y-86614000D02*
X81153000Y-86614000D01*
X83693000Y-84074000D02*
X83693000Y-86614000D01*
X81788000Y-84074000D02*
X83693000Y-84074000D01*
X118872000Y-72644000D02*
X119507000Y-72009000D01*
X118872000Y-74549000D02*
X118872000Y-72644000D01*
X121412000Y-74549000D02*
X118872000Y-74549000D01*
X121412000Y-72009000D02*
X121412000Y-74549000D01*
X119507000Y-72009000D02*
X121412000Y-72009000D01*
X121564000Y-89301000D02*
X121564000Y-91801000D01*
X121564000Y-91801000D02*
X127864000Y-91801000D01*
X127864000Y-91801000D02*
X127864000Y-89301000D01*
X127864000Y-89301000D02*
X121564000Y-89301000D01*
X119634000Y-90551000D02*
X121564000Y-90551000D01*
X129794000Y-90551000D02*
X127864000Y-90551000D01*
X121691000Y-96794000D02*
X121691000Y-99294000D01*
X121691000Y-99294000D02*
X127991000Y-99294000D01*
X127991000Y-99294000D02*
X127991000Y-96794000D01*
X127991000Y-96794000D02*
X121691000Y-96794000D01*
X119761000Y-98044000D02*
X121691000Y-98044000D01*
X129921000Y-98044000D02*
X127991000Y-98044000D01*
X209900000Y-122524000D02*
X193900000Y-122524000D01*
X193900000Y-122524000D02*
X193900000Y-130024000D01*
X193900000Y-130024000D02*
X209900000Y-130024000D01*
X209900000Y-130024000D02*
X209900000Y-122524000D01*
X205400000Y-130024000D02*
X198400000Y-130024000D01*
X198400000Y-130024000D02*
X198400000Y-135024000D01*
X198400000Y-135024000D02*
X205400000Y-135024000D01*
X205400000Y-135024000D02*
X205400000Y-130024000D01*
X203900000Y-135024000D02*
X199900000Y-135024000D01*
X199900000Y-135024000D02*
X199900000Y-145024000D01*
X199900000Y-145024000D02*
X203900000Y-145024000D01*
X203900000Y-145024000D02*
X203900000Y-135024000D01*
X125900000Y-122500000D02*
X109900000Y-122500000D01*
X109900000Y-122500000D02*
X109900000Y-130000000D01*
X109900000Y-130000000D02*
X125900000Y-130000000D01*
X125900000Y-130000000D02*
X125900000Y-122500000D01*
X121400000Y-130000000D02*
X114400000Y-130000000D01*
X114400000Y-130000000D02*
X114400000Y-135000000D01*
X114400000Y-135000000D02*
X121400000Y-135000000D01*
X121400000Y-135000000D02*
X121400000Y-130000000D01*
X119900000Y-135000000D02*
X115900000Y-135000000D01*
X115900000Y-135000000D02*
X115900000Y-145000000D01*
X115900000Y-145000000D02*
X119900000Y-145000000D01*
X119900000Y-145000000D02*
X119900000Y-135000000D01*
X231900000Y-145000000D02*
X231900000Y-135000000D01*
X227900000Y-145000000D02*
X231900000Y-145000000D01*
X227900000Y-135000000D02*
X227900000Y-145000000D01*
X231900000Y-135000000D02*
X227900000Y-135000000D01*
X233400000Y-135000000D02*
X233400000Y-130000000D01*
X226400000Y-135000000D02*
X233400000Y-135000000D01*
X226400000Y-130000000D02*
X226400000Y-135000000D01*
X233400000Y-130000000D02*
X226400000Y-130000000D01*
X237900000Y-130000000D02*
X237900000Y-122500000D01*
X221900000Y-130000000D02*
X237900000Y-130000000D01*
X221900000Y-122500000D02*
X221900000Y-130000000D01*
X237900000Y-122500000D02*
X221900000Y-122500000D01*
X181910000Y-122500000D02*
X165910000Y-122500000D01*
X165910000Y-122500000D02*
X165910000Y-130000000D01*
X165910000Y-130000000D02*
X181910000Y-130000000D01*
X181910000Y-130000000D02*
X181910000Y-122500000D01*
X177410000Y-130000000D02*
X170410000Y-130000000D01*
X170410000Y-130000000D02*
X170410000Y-135000000D01*
X170410000Y-135000000D02*
X177410000Y-135000000D01*
X177410000Y-135000000D02*
X177410000Y-130000000D01*
X175910000Y-135000000D02*
X171910000Y-135000000D01*
X171910000Y-135000000D02*
X171910000Y-145000000D01*
X171910000Y-145000000D02*
X175910000Y-145000000D01*
X175910000Y-145000000D02*
X175910000Y-135000000D01*
X147900000Y-145000000D02*
X147900000Y-135000000D01*
X143900000Y-145000000D02*
X147900000Y-145000000D01*
X143900000Y-135000000D02*
X143900000Y-145000000D01*
X147900000Y-135000000D02*
X143900000Y-135000000D01*
X149400000Y-135000000D02*
X149400000Y-130000000D01*
X142400000Y-135000000D02*
X149400000Y-135000000D01*
X142400000Y-130000000D02*
X142400000Y-135000000D01*
X149400000Y-130000000D02*
X142400000Y-130000000D01*
X153900000Y-130000000D02*
X153900000Y-122500000D01*
X137900000Y-130000000D02*
X153900000Y-130000000D01*
X137900000Y-122500000D02*
X137900000Y-130000000D01*
X153900000Y-122500000D02*
X137900000Y-122500000D01*
X246721000Y-66314000D02*
G75*
G03X246721000Y-66314000I-2500000J0D01*
G01*
X243133500Y-68447605D02*
X243133500Y-67947605D01*
X242883500Y-68197605D02*
X243383500Y-68197605D01*
X253202000Y-65551000D02*
X248702000Y-65551000D01*
X248702000Y-65551000D02*
X248702000Y-77451000D01*
X248702000Y-77451000D02*
X253202000Y-77451000D01*
X253202000Y-77451000D02*
X253202000Y-65551000D01*
X250952000Y-63881000D02*
X250952000Y-65551000D01*
X250952000Y-79121000D02*
X250952000Y-77451000D01*
D11*
X276916666Y-129785714D02*
X276916666Y-129309523D01*
X277202380Y-129880952D02*
X276202380Y-129547619D01*
X277202380Y-129214285D01*
X277202380Y-128357142D02*
X277202380Y-128928571D01*
X277202380Y-128642857D02*
X276202380Y-128642857D01*
X276345238Y-128738095D01*
X276440476Y-128833333D01*
X276488095Y-128928571D01*
X277202380Y-127928571D02*
X276202380Y-127928571D01*
X276916666Y-127595238D01*
X276202380Y-127261904D01*
X277202380Y-127261904D01*
X286452380Y-128154761D02*
X286452380Y-128630952D01*
X285452380Y-128630952D01*
X285928571Y-127821428D02*
X285928571Y-127488095D01*
X286452380Y-127345238D02*
X286452380Y-127821428D01*
X285452380Y-127821428D01*
X285452380Y-127345238D01*
X285452380Y-127059523D02*
X286452380Y-126726190D01*
X285452380Y-126392857D01*
X285928571Y-126059523D02*
X285928571Y-125726190D01*
X286452380Y-125583333D02*
X286452380Y-126059523D01*
X285452380Y-126059523D01*
X285452380Y-125583333D01*
X286452380Y-124678571D02*
X286452380Y-125154761D01*
X285452380Y-125154761D01*
X286452380Y-123821428D02*
X286452380Y-124392857D01*
X286452380Y-124107142D02*
X285452380Y-124107142D01*
X285595238Y-124202380D01*
X285690476Y-124297619D01*
X285738095Y-124392857D01*
X248916666Y-129785714D02*
X248916666Y-129309523D01*
X249202380Y-129880952D02*
X248202380Y-129547619D01*
X249202380Y-129214285D01*
X249202380Y-128357142D02*
X249202380Y-128928571D01*
X249202380Y-128642857D02*
X248202380Y-128642857D01*
X248345238Y-128738095D01*
X248440476Y-128833333D01*
X248488095Y-128928571D01*
X249202380Y-127928571D02*
X248202380Y-127928571D01*
X248916666Y-127595238D01*
X248202380Y-127261904D01*
X249202380Y-127261904D01*
X258452380Y-128154761D02*
X258452380Y-128630952D01*
X257452380Y-128630952D01*
X257928571Y-127821428D02*
X257928571Y-127488095D01*
X258452380Y-127345238D02*
X258452380Y-127821428D01*
X257452380Y-127821428D01*
X257452380Y-127345238D01*
X257452380Y-127059523D02*
X258452380Y-126726190D01*
X257452380Y-126392857D01*
X257928571Y-126059523D02*
X257928571Y-125726190D01*
X258452380Y-125583333D02*
X258452380Y-126059523D01*
X257452380Y-126059523D01*
X257452380Y-125583333D01*
X258452380Y-124678571D02*
X258452380Y-125154761D01*
X257452380Y-125154761D01*
X258452380Y-123821428D02*
X258452380Y-124392857D01*
X258452380Y-124107142D02*
X257452380Y-124107142D01*
X257595238Y-124202380D01*
X257690476Y-124297619D01*
X257738095Y-124392857D01*
X114752380Y-64190476D02*
X114752380Y-64761904D01*
X114752380Y-64476190D02*
X113752380Y-64476190D01*
X113895238Y-64571428D01*
X113990476Y-64666666D01*
X114038095Y-64761904D01*
X113752380Y-63571428D02*
X113752380Y-63476190D01*
X113800000Y-63380952D01*
X113847619Y-63333333D01*
X113942857Y-63285714D01*
X114133333Y-63238095D01*
X114371428Y-63238095D01*
X114561904Y-63285714D01*
X114657142Y-63333333D01*
X114704761Y-63380952D01*
X114752380Y-63476190D01*
X114752380Y-63571428D01*
X114704761Y-63666666D01*
X114657142Y-63714285D01*
X114561904Y-63761904D01*
X114371428Y-63809523D01*
X114133333Y-63809523D01*
X113942857Y-63761904D01*
X113847619Y-63714285D01*
X113800000Y-63666666D01*
X113752380Y-63571428D01*
X114752380Y-62809523D02*
X113752380Y-62809523D01*
X114752380Y-62238095D02*
X114180952Y-62666666D01*
X113752380Y-62238095D02*
X114323809Y-62809523D01*
X117292380Y-64142857D02*
X116816190Y-64476190D01*
X117292380Y-64714285D02*
X116292380Y-64714285D01*
X116292380Y-64333333D01*
X116340000Y-64238095D01*
X116387619Y-64190476D01*
X116482857Y-64142857D01*
X116625714Y-64142857D01*
X116720952Y-64190476D01*
X116768571Y-64238095D01*
X116816190Y-64333333D01*
X116816190Y-64714285D01*
X117292380Y-63190476D02*
X117292380Y-63761904D01*
X117292380Y-63476190D02*
X116292380Y-63476190D01*
X116435238Y-63571428D01*
X116530476Y-63666666D01*
X116578095Y-63761904D01*
X116387619Y-62809523D02*
X116340000Y-62761904D01*
X116292380Y-62666666D01*
X116292380Y-62428571D01*
X116340000Y-62333333D01*
X116387619Y-62285714D01*
X116482857Y-62238095D01*
X116578095Y-62238095D01*
X116720952Y-62285714D01*
X117292380Y-62857142D01*
X117292380Y-62238095D01*
X290822476Y-81334619D02*
X290870095Y-81287000D01*
X290965333Y-81239380D01*
X291203428Y-81239380D01*
X291298666Y-81287000D01*
X291346285Y-81334619D01*
X291393904Y-81429857D01*
X291393904Y-81525095D01*
X291346285Y-81667952D01*
X290774857Y-82239380D01*
X291393904Y-82239380D01*
X291774857Y-81334619D02*
X291822476Y-81287000D01*
X291917714Y-81239380D01*
X292155809Y-81239380D01*
X292251047Y-81287000D01*
X292298666Y-81334619D01*
X292346285Y-81429857D01*
X292346285Y-81525095D01*
X292298666Y-81667952D01*
X291727238Y-82239380D01*
X292346285Y-82239380D01*
X292965333Y-81239380D02*
X293060571Y-81239380D01*
X293155809Y-81287000D01*
X293203428Y-81334619D01*
X293251047Y-81429857D01*
X293298666Y-81620333D01*
X293298666Y-81858428D01*
X293251047Y-82048904D01*
X293203428Y-82144142D01*
X293155809Y-82191761D01*
X293060571Y-82239380D01*
X292965333Y-82239380D01*
X292870095Y-82191761D01*
X292822476Y-82144142D01*
X292774857Y-82048904D01*
X292727238Y-81858428D01*
X292727238Y-81620333D01*
X292774857Y-81429857D01*
X292822476Y-81334619D01*
X292870095Y-81287000D01*
X292965333Y-81239380D01*
X294298666Y-82239380D02*
X293965333Y-81763190D01*
X293727238Y-82239380D02*
X293727238Y-81239380D01*
X294108190Y-81239380D01*
X294203428Y-81287000D01*
X294251047Y-81334619D01*
X294298666Y-81429857D01*
X294298666Y-81572714D01*
X294251047Y-81667952D01*
X294203428Y-81715571D01*
X294108190Y-81763190D01*
X293727238Y-81763190D01*
X295441523Y-81191761D02*
X294584380Y-82477476D01*
X295727238Y-81334619D02*
X295774857Y-81287000D01*
X295870095Y-81239380D01*
X296108190Y-81239380D01*
X296203428Y-81287000D01*
X296251047Y-81334619D01*
X296298666Y-81429857D01*
X296298666Y-81525095D01*
X296251047Y-81667952D01*
X295679619Y-82239380D01*
X296298666Y-82239380D01*
X296632000Y-81239380D02*
X296870095Y-82239380D01*
X297060571Y-81525095D01*
X297251047Y-82239380D01*
X297489142Y-81239380D01*
X293489142Y-79319380D02*
X293155809Y-78843190D01*
X292917714Y-79319380D02*
X292917714Y-78319380D01*
X293298666Y-78319380D01*
X293393904Y-78367000D01*
X293441523Y-78414619D01*
X293489142Y-78509857D01*
X293489142Y-78652714D01*
X293441523Y-78747952D01*
X293393904Y-78795571D01*
X293298666Y-78843190D01*
X292917714Y-78843190D01*
X294441523Y-79319380D02*
X293870095Y-79319380D01*
X294155809Y-79319380D02*
X294155809Y-78319380D01*
X294060571Y-78462238D01*
X293965333Y-78557476D01*
X293870095Y-78605095D01*
X295393904Y-79319380D02*
X294822476Y-79319380D01*
X295108190Y-79319380D02*
X295108190Y-78319380D01*
X295012952Y-78462238D01*
X294917714Y-78557476D01*
X294822476Y-78605095D01*
X282613714Y-95321142D02*
X283280380Y-95321142D01*
X282232761Y-95559238D02*
X282947047Y-95797333D01*
X282947047Y-95178285D01*
X283280380Y-94797333D02*
X282280380Y-94797333D01*
X283280380Y-94225904D02*
X282708952Y-94654476D01*
X282280380Y-94225904D02*
X282851809Y-94797333D01*
X282280380Y-93892571D02*
X282280380Y-93225904D01*
X283280380Y-93654476D01*
X282232761Y-92130666D02*
X283518476Y-92987809D01*
X282280380Y-91892571D02*
X282280380Y-91273523D01*
X282661333Y-91606857D01*
X282661333Y-91464000D01*
X282708952Y-91368761D01*
X282756571Y-91321142D01*
X282851809Y-91273523D01*
X283089904Y-91273523D01*
X283185142Y-91321142D01*
X283232761Y-91368761D01*
X283280380Y-91464000D01*
X283280380Y-91749714D01*
X283232761Y-91844952D01*
X283185142Y-91892571D01*
X282280380Y-90940190D02*
X283280380Y-90702095D01*
X282566095Y-90511619D01*
X283280380Y-90321142D01*
X282280380Y-90083047D01*
X280360380Y-93606857D02*
X279884190Y-93940190D01*
X280360380Y-94178285D02*
X279360380Y-94178285D01*
X279360380Y-93797333D01*
X279408000Y-93702095D01*
X279455619Y-93654476D01*
X279550857Y-93606857D01*
X279693714Y-93606857D01*
X279788952Y-93654476D01*
X279836571Y-93702095D01*
X279884190Y-93797333D01*
X279884190Y-94178285D01*
X280360380Y-92654476D02*
X280360380Y-93225904D01*
X280360380Y-92940190D02*
X279360380Y-92940190D01*
X279503238Y-93035428D01*
X279598476Y-93130666D01*
X279646095Y-93225904D01*
X279360380Y-92321142D02*
X279360380Y-91702095D01*
X279741333Y-92035428D01*
X279741333Y-91892571D01*
X279788952Y-91797333D01*
X279836571Y-91749714D01*
X279931809Y-91702095D01*
X280169904Y-91702095D01*
X280265142Y-91749714D01*
X280312761Y-91797333D01*
X280360380Y-91892571D01*
X280360380Y-92178285D01*
X280312761Y-92273523D01*
X280265142Y-92321142D01*
X274840619Y-106513095D02*
X274793000Y-106465476D01*
X274745380Y-106370238D01*
X274745380Y-106132142D01*
X274793000Y-106036904D01*
X274840619Y-105989285D01*
X274935857Y-105941666D01*
X275031095Y-105941666D01*
X275173952Y-105989285D01*
X275745380Y-106560714D01*
X275745380Y-105941666D01*
X274840619Y-105560714D02*
X274793000Y-105513095D01*
X274745380Y-105417857D01*
X274745380Y-105179761D01*
X274793000Y-105084523D01*
X274840619Y-105036904D01*
X274935857Y-104989285D01*
X275031095Y-104989285D01*
X275173952Y-105036904D01*
X275745380Y-105608333D01*
X275745380Y-104989285D01*
X274745380Y-104370238D02*
X274745380Y-104275000D01*
X274793000Y-104179761D01*
X274840619Y-104132142D01*
X274935857Y-104084523D01*
X275126333Y-104036904D01*
X275364428Y-104036904D01*
X275554904Y-104084523D01*
X275650142Y-104132142D01*
X275697761Y-104179761D01*
X275745380Y-104275000D01*
X275745380Y-104370238D01*
X275697761Y-104465476D01*
X275650142Y-104513095D01*
X275554904Y-104560714D01*
X275364428Y-104608333D01*
X275126333Y-104608333D01*
X274935857Y-104560714D01*
X274840619Y-104513095D01*
X274793000Y-104465476D01*
X274745380Y-104370238D01*
X275745380Y-103608333D02*
X274745380Y-103608333D01*
X275745380Y-103036904D02*
X275173952Y-103465476D01*
X274745380Y-103036904D02*
X275316809Y-103608333D01*
X273375380Y-104941666D02*
X272899190Y-105275000D01*
X273375380Y-105513095D02*
X272375380Y-105513095D01*
X272375380Y-105132142D01*
X272423000Y-105036904D01*
X272470619Y-104989285D01*
X272565857Y-104941666D01*
X272708714Y-104941666D01*
X272803952Y-104989285D01*
X272851571Y-105036904D01*
X272899190Y-105132142D01*
X272899190Y-105513095D01*
X272803952Y-104370238D02*
X272756333Y-104465476D01*
X272708714Y-104513095D01*
X272613476Y-104560714D01*
X272565857Y-104560714D01*
X272470619Y-104513095D01*
X272423000Y-104465476D01*
X272375380Y-104370238D01*
X272375380Y-104179761D01*
X272423000Y-104084523D01*
X272470619Y-104036904D01*
X272565857Y-103989285D01*
X272613476Y-103989285D01*
X272708714Y-104036904D01*
X272756333Y-104084523D01*
X272803952Y-104179761D01*
X272803952Y-104370238D01*
X272851571Y-104465476D01*
X272899190Y-104513095D01*
X272994428Y-104560714D01*
X273184904Y-104560714D01*
X273280142Y-104513095D01*
X273327761Y-104465476D01*
X273375380Y-104370238D01*
X273375380Y-104179761D01*
X273327761Y-104084523D01*
X273280142Y-104036904D01*
X273184904Y-103989285D01*
X272994428Y-103989285D01*
X272899190Y-104036904D01*
X272851571Y-104084523D01*
X272803952Y-104179761D01*
X130011904Y-74805714D02*
X130011904Y-75472380D01*
X129773809Y-74424761D02*
X129535714Y-75139047D01*
X130154761Y-75139047D01*
X130440476Y-74472380D02*
X131107142Y-74472380D01*
X130678571Y-75472380D01*
X131916666Y-74805714D02*
X131916666Y-75472380D01*
X131488095Y-74805714D02*
X131488095Y-75329523D01*
X131535714Y-75424761D01*
X131630952Y-75472380D01*
X131773809Y-75472380D01*
X131869047Y-75424761D01*
X131916666Y-75377142D01*
X130583333Y-65127142D02*
X130535714Y-65174761D01*
X130392857Y-65222380D01*
X130297619Y-65222380D01*
X130154761Y-65174761D01*
X130059523Y-65079523D01*
X130011904Y-64984285D01*
X129964285Y-64793809D01*
X129964285Y-64650952D01*
X130011904Y-64460476D01*
X130059523Y-64365238D01*
X130154761Y-64270000D01*
X130297619Y-64222380D01*
X130392857Y-64222380D01*
X130535714Y-64270000D01*
X130583333Y-64317619D01*
X131059523Y-65222380D02*
X131250000Y-65222380D01*
X131345238Y-65174761D01*
X131392857Y-65127142D01*
X131488095Y-64984285D01*
X131535714Y-64793809D01*
X131535714Y-64412857D01*
X131488095Y-64317619D01*
X131440476Y-64270000D01*
X131345238Y-64222380D01*
X131154761Y-64222380D01*
X131059523Y-64270000D01*
X131011904Y-64317619D01*
X130964285Y-64412857D01*
X130964285Y-64650952D01*
X131011904Y-64746190D01*
X131059523Y-64793809D01*
X131154761Y-64841428D01*
X131345238Y-64841428D01*
X131440476Y-64793809D01*
X131488095Y-64746190D01*
X131535714Y-64650952D01*
X55009523Y-112212380D02*
X55009523Y-111212380D01*
X55485714Y-112212380D02*
X55485714Y-111212380D01*
X56057142Y-112212380D01*
X56057142Y-111212380D01*
X56295238Y-112307619D02*
X57057142Y-112307619D01*
X57295238Y-112212380D02*
X57295238Y-111212380D01*
X57295238Y-111688571D02*
X57866666Y-111688571D01*
X57866666Y-112212380D02*
X57866666Y-111212380D01*
X58342857Y-112212380D02*
X58342857Y-111212380D01*
X59342857Y-111260000D02*
X59247619Y-111212380D01*
X59104761Y-111212380D01*
X58961904Y-111260000D01*
X58866666Y-111355238D01*
X58819047Y-111450476D01*
X58771428Y-111640952D01*
X58771428Y-111783809D01*
X58819047Y-111974285D01*
X58866666Y-112069523D01*
X58961904Y-112164761D01*
X59104761Y-112212380D01*
X59200000Y-112212380D01*
X59342857Y-112164761D01*
X59390476Y-112117142D01*
X59390476Y-111783809D01*
X59200000Y-111783809D01*
X59819047Y-112212380D02*
X59819047Y-111212380D01*
X59819047Y-111688571D02*
X60390476Y-111688571D01*
X60390476Y-112212380D02*
X60390476Y-111212380D01*
X85225238Y-112212380D02*
X85225238Y-111212380D01*
X85701428Y-112212380D02*
X85701428Y-111212380D01*
X86272857Y-112212380D01*
X86272857Y-111212380D01*
X86510952Y-112307619D02*
X87272857Y-112307619D01*
X87987142Y-112212380D02*
X87510952Y-112212380D01*
X87510952Y-111212380D01*
X88510952Y-111212380D02*
X88701428Y-111212380D01*
X88796666Y-111260000D01*
X88891904Y-111355238D01*
X88939523Y-111545714D01*
X88939523Y-111879047D01*
X88891904Y-112069523D01*
X88796666Y-112164761D01*
X88701428Y-112212380D01*
X88510952Y-112212380D01*
X88415714Y-112164761D01*
X88320476Y-112069523D01*
X88272857Y-111879047D01*
X88272857Y-111545714D01*
X88320476Y-111355238D01*
X88415714Y-111260000D01*
X88510952Y-111212380D01*
X89272857Y-111212380D02*
X89510952Y-112212380D01*
X89701428Y-111498095D01*
X89891904Y-112212380D01*
X90130000Y-111212380D01*
X84415714Y-86518285D02*
X85082380Y-86518285D01*
X84034761Y-86756380D02*
X84749047Y-86994476D01*
X84749047Y-86375428D01*
X84082380Y-86089714D02*
X84082380Y-85423047D01*
X85082380Y-85851619D01*
X84082380Y-84851619D02*
X84082380Y-84756380D01*
X84130000Y-84661142D01*
X84177619Y-84613523D01*
X84272857Y-84565904D01*
X84463333Y-84518285D01*
X84701428Y-84518285D01*
X84891904Y-84565904D01*
X84987142Y-84613523D01*
X85034761Y-84661142D01*
X85082380Y-84756380D01*
X85082380Y-84851619D01*
X85034761Y-84946857D01*
X84987142Y-84994476D01*
X84891904Y-85042095D01*
X84701428Y-85089714D01*
X84463333Y-85089714D01*
X84272857Y-85042095D01*
X84177619Y-84994476D01*
X84130000Y-84946857D01*
X84082380Y-84851619D01*
X84415714Y-84089714D02*
X85415714Y-84089714D01*
X84463333Y-84089714D02*
X84415714Y-83994476D01*
X84415714Y-83804000D01*
X84463333Y-83708761D01*
X84510952Y-83661142D01*
X84606190Y-83613523D01*
X84891904Y-83613523D01*
X84987142Y-83661142D01*
X85034761Y-83708761D01*
X85082380Y-83804000D01*
X85082380Y-83994476D01*
X85034761Y-84089714D01*
X87987142Y-85946857D02*
X88034761Y-85994476D01*
X88082380Y-86137333D01*
X88082380Y-86232571D01*
X88034761Y-86375428D01*
X87939523Y-86470666D01*
X87844285Y-86518285D01*
X87653809Y-86565904D01*
X87510952Y-86565904D01*
X87320476Y-86518285D01*
X87225238Y-86470666D01*
X87130000Y-86375428D01*
X87082380Y-86232571D01*
X87082380Y-86137333D01*
X87130000Y-85994476D01*
X87177619Y-85946857D01*
X88082380Y-84994476D02*
X88082380Y-85565904D01*
X88082380Y-85280190D02*
X87082380Y-85280190D01*
X87225238Y-85375428D01*
X87320476Y-85470666D01*
X87368095Y-85565904D01*
X88082380Y-84042095D02*
X88082380Y-84613523D01*
X88082380Y-84327809D02*
X87082380Y-84327809D01*
X87225238Y-84423047D01*
X87320476Y-84518285D01*
X87368095Y-84613523D01*
X109212380Y-102996666D02*
X109212380Y-103568095D01*
X109212380Y-103282380D02*
X108212380Y-103282380D01*
X108355238Y-103377619D01*
X108450476Y-103472857D01*
X108498095Y-103568095D01*
X108545714Y-102568095D02*
X109212380Y-102568095D01*
X108640952Y-102568095D02*
X108593333Y-102520476D01*
X108545714Y-102425238D01*
X108545714Y-102282380D01*
X108593333Y-102187142D01*
X108688571Y-102139523D01*
X109212380Y-102139523D01*
X112117142Y-102996666D02*
X112164761Y-103044285D01*
X112212380Y-103187142D01*
X112212380Y-103282380D01*
X112164761Y-103425238D01*
X112069523Y-103520476D01*
X111974285Y-103568095D01*
X111783809Y-103615714D01*
X111640952Y-103615714D01*
X111450476Y-103568095D01*
X111355238Y-103520476D01*
X111260000Y-103425238D01*
X111212380Y-103282380D01*
X111212380Y-103187142D01*
X111260000Y-103044285D01*
X111307619Y-102996666D01*
X111212380Y-102091904D02*
X111212380Y-102568095D01*
X111688571Y-102615714D01*
X111640952Y-102568095D01*
X111593333Y-102472857D01*
X111593333Y-102234761D01*
X111640952Y-102139523D01*
X111688571Y-102091904D01*
X111783809Y-102044285D01*
X112021904Y-102044285D01*
X112117142Y-102091904D01*
X112164761Y-102139523D01*
X112212380Y-102234761D01*
X112212380Y-102472857D01*
X112164761Y-102568095D01*
X112117142Y-102615714D01*
X154427619Y-110494285D02*
X154380000Y-110446666D01*
X154332380Y-110351428D01*
X154332380Y-110113333D01*
X154380000Y-110018095D01*
X154427619Y-109970476D01*
X154522857Y-109922857D01*
X154618095Y-109922857D01*
X154760952Y-109970476D01*
X155332380Y-110541904D01*
X155332380Y-109922857D01*
X154427619Y-109541904D02*
X154380000Y-109494285D01*
X154332380Y-109399047D01*
X154332380Y-109160952D01*
X154380000Y-109065714D01*
X154427619Y-109018095D01*
X154522857Y-108970476D01*
X154618095Y-108970476D01*
X154760952Y-109018095D01*
X155332380Y-109589523D01*
X155332380Y-108970476D01*
X154665714Y-108541904D02*
X155332380Y-108541904D01*
X154760952Y-108541904D02*
X154713333Y-108494285D01*
X154665714Y-108399047D01*
X154665714Y-108256190D01*
X154713333Y-108160952D01*
X154808571Y-108113333D01*
X155332380Y-108113333D01*
X151487142Y-109922857D02*
X151534761Y-109970476D01*
X151582380Y-110113333D01*
X151582380Y-110208571D01*
X151534761Y-110351428D01*
X151439523Y-110446666D01*
X151344285Y-110494285D01*
X151153809Y-110541904D01*
X151010952Y-110541904D01*
X150820476Y-110494285D01*
X150725238Y-110446666D01*
X150630000Y-110351428D01*
X150582380Y-110208571D01*
X150582380Y-110113333D01*
X150630000Y-109970476D01*
X150677619Y-109922857D01*
X151582380Y-108970476D02*
X151582380Y-109541904D01*
X151582380Y-109256190D02*
X150582380Y-109256190D01*
X150725238Y-109351428D01*
X150820476Y-109446666D01*
X150868095Y-109541904D01*
X150582380Y-108065714D02*
X150582380Y-108541904D01*
X151058571Y-108589523D01*
X151010952Y-108541904D01*
X150963333Y-108446666D01*
X150963333Y-108208571D01*
X151010952Y-108113333D01*
X151058571Y-108065714D01*
X151153809Y-108018095D01*
X151391904Y-108018095D01*
X151487142Y-108065714D01*
X151534761Y-108113333D01*
X151582380Y-108208571D01*
X151582380Y-108446666D01*
X151534761Y-108541904D01*
X151487142Y-108589523D01*
X174807619Y-110434285D02*
X174760000Y-110386666D01*
X174712380Y-110291428D01*
X174712380Y-110053333D01*
X174760000Y-109958095D01*
X174807619Y-109910476D01*
X174902857Y-109862857D01*
X174998095Y-109862857D01*
X175140952Y-109910476D01*
X175712380Y-110481904D01*
X175712380Y-109862857D01*
X174807619Y-109481904D02*
X174760000Y-109434285D01*
X174712380Y-109339047D01*
X174712380Y-109100952D01*
X174760000Y-109005714D01*
X174807619Y-108958095D01*
X174902857Y-108910476D01*
X174998095Y-108910476D01*
X175140952Y-108958095D01*
X175712380Y-109529523D01*
X175712380Y-108910476D01*
X175045714Y-108481904D02*
X175712380Y-108481904D01*
X175140952Y-108481904D02*
X175093333Y-108434285D01*
X175045714Y-108339047D01*
X175045714Y-108196190D01*
X175093333Y-108100952D01*
X175188571Y-108053333D01*
X175712380Y-108053333D01*
X171807142Y-109929857D02*
X171854761Y-109977476D01*
X171902380Y-110120333D01*
X171902380Y-110215571D01*
X171854761Y-110358428D01*
X171759523Y-110453666D01*
X171664285Y-110501285D01*
X171473809Y-110548904D01*
X171330952Y-110548904D01*
X171140476Y-110501285D01*
X171045238Y-110453666D01*
X170950000Y-110358428D01*
X170902380Y-110215571D01*
X170902380Y-110120333D01*
X170950000Y-109977476D01*
X170997619Y-109929857D01*
X171902380Y-108977476D02*
X171902380Y-109548904D01*
X171902380Y-109263190D02*
X170902380Y-109263190D01*
X171045238Y-109358428D01*
X171140476Y-109453666D01*
X171188095Y-109548904D01*
X170902380Y-108644142D02*
X170902380Y-108025095D01*
X171283333Y-108358428D01*
X171283333Y-108215571D01*
X171330952Y-108120333D01*
X171378571Y-108072714D01*
X171473809Y-108025095D01*
X171711904Y-108025095D01*
X171807142Y-108072714D01*
X171854761Y-108120333D01*
X171902380Y-108215571D01*
X171902380Y-108501285D01*
X171854761Y-108596523D01*
X171807142Y-108644142D01*
X83300714Y-73775619D02*
X83348333Y-73728000D01*
X83443571Y-73680380D01*
X83681666Y-73680380D01*
X83776904Y-73728000D01*
X83824523Y-73775619D01*
X83872142Y-73870857D01*
X83872142Y-73966095D01*
X83824523Y-74108952D01*
X83253095Y-74680380D01*
X83872142Y-74680380D01*
X84253095Y-73775619D02*
X84300714Y-73728000D01*
X84395952Y-73680380D01*
X84634047Y-73680380D01*
X84729285Y-73728000D01*
X84776904Y-73775619D01*
X84824523Y-73870857D01*
X84824523Y-73966095D01*
X84776904Y-74108952D01*
X84205476Y-74680380D01*
X84824523Y-74680380D01*
X85253095Y-74013714D02*
X85253095Y-74680380D01*
X85253095Y-74108952D02*
X85300714Y-74061333D01*
X85395952Y-74013714D01*
X85538809Y-74013714D01*
X85634047Y-74061333D01*
X85681666Y-74156571D01*
X85681666Y-74680380D01*
X84348333Y-78335142D02*
X84300714Y-78382761D01*
X84157857Y-78430380D01*
X84062619Y-78430380D01*
X83919761Y-78382761D01*
X83824523Y-78287523D01*
X83776904Y-78192285D01*
X83729285Y-78001809D01*
X83729285Y-77858952D01*
X83776904Y-77668476D01*
X83824523Y-77573238D01*
X83919761Y-77478000D01*
X84062619Y-77430380D01*
X84157857Y-77430380D01*
X84300714Y-77478000D01*
X84348333Y-77525619D01*
X85205476Y-77430380D02*
X85015000Y-77430380D01*
X84919761Y-77478000D01*
X84872142Y-77525619D01*
X84776904Y-77668476D01*
X84729285Y-77858952D01*
X84729285Y-78239904D01*
X84776904Y-78335142D01*
X84824523Y-78382761D01*
X84919761Y-78430380D01*
X85110238Y-78430380D01*
X85205476Y-78382761D01*
X85253095Y-78335142D01*
X85300714Y-78239904D01*
X85300714Y-78001809D01*
X85253095Y-77906571D01*
X85205476Y-77858952D01*
X85110238Y-77811333D01*
X84919761Y-77811333D01*
X84824523Y-77858952D01*
X84776904Y-77906571D01*
X84729285Y-78001809D01*
X84602380Y-101230285D02*
X84602380Y-101420761D01*
X84650000Y-101516000D01*
X84697619Y-101563619D01*
X84840476Y-101658857D01*
X85030952Y-101706476D01*
X85411904Y-101706476D01*
X85507142Y-101658857D01*
X85554761Y-101611238D01*
X85602380Y-101516000D01*
X85602380Y-101325523D01*
X85554761Y-101230285D01*
X85507142Y-101182666D01*
X85411904Y-101135047D01*
X85173809Y-101135047D01*
X85078571Y-101182666D01*
X85030952Y-101230285D01*
X84983333Y-101325523D01*
X84983333Y-101516000D01*
X85030952Y-101611238D01*
X85078571Y-101658857D01*
X85173809Y-101706476D01*
X85030952Y-100563619D02*
X84983333Y-100658857D01*
X84935714Y-100706476D01*
X84840476Y-100754095D01*
X84792857Y-100754095D01*
X84697619Y-100706476D01*
X84650000Y-100658857D01*
X84602380Y-100563619D01*
X84602380Y-100373142D01*
X84650000Y-100277904D01*
X84697619Y-100230285D01*
X84792857Y-100182666D01*
X84840476Y-100182666D01*
X84935714Y-100230285D01*
X84983333Y-100277904D01*
X85030952Y-100373142D01*
X85030952Y-100563619D01*
X85078571Y-100658857D01*
X85126190Y-100706476D01*
X85221428Y-100754095D01*
X85411904Y-100754095D01*
X85507142Y-100706476D01*
X85554761Y-100658857D01*
X85602380Y-100563619D01*
X85602380Y-100373142D01*
X85554761Y-100277904D01*
X85507142Y-100230285D01*
X85411904Y-100182666D01*
X85221428Y-100182666D01*
X85126190Y-100230285D01*
X85078571Y-100277904D01*
X85030952Y-100373142D01*
X84602380Y-99563619D02*
X84602380Y-99468380D01*
X84650000Y-99373142D01*
X84697619Y-99325523D01*
X84792857Y-99277904D01*
X84983333Y-99230285D01*
X85221428Y-99230285D01*
X85411904Y-99277904D01*
X85507142Y-99325523D01*
X85554761Y-99373142D01*
X85602380Y-99468380D01*
X85602380Y-99563619D01*
X85554761Y-99658857D01*
X85507142Y-99706476D01*
X85411904Y-99754095D01*
X85221428Y-99801714D01*
X84983333Y-99801714D01*
X84792857Y-99754095D01*
X84697619Y-99706476D01*
X84650000Y-99658857D01*
X84602380Y-99563619D01*
X84935714Y-98801714D02*
X85602380Y-98801714D01*
X85030952Y-98801714D02*
X84983333Y-98754095D01*
X84935714Y-98658857D01*
X84935714Y-98516000D01*
X84983333Y-98420761D01*
X85078571Y-98373142D01*
X85602380Y-98373142D01*
X89257142Y-100182666D02*
X89304761Y-100230285D01*
X89352380Y-100373142D01*
X89352380Y-100468380D01*
X89304761Y-100611238D01*
X89209523Y-100706476D01*
X89114285Y-100754095D01*
X88923809Y-100801714D01*
X88780952Y-100801714D01*
X88590476Y-100754095D01*
X88495238Y-100706476D01*
X88400000Y-100611238D01*
X88352380Y-100468380D01*
X88352380Y-100373142D01*
X88400000Y-100230285D01*
X88447619Y-100182666D01*
X88352380Y-99849333D02*
X88352380Y-99230285D01*
X88733333Y-99563619D01*
X88733333Y-99420761D01*
X88780952Y-99325523D01*
X88828571Y-99277904D01*
X88923809Y-99230285D01*
X89161904Y-99230285D01*
X89257142Y-99277904D01*
X89304761Y-99325523D01*
X89352380Y-99420761D01*
X89352380Y-99706476D01*
X89304761Y-99801714D01*
X89257142Y-99849333D01*
X69457619Y-104278285D02*
X69410000Y-104230666D01*
X69362380Y-104135428D01*
X69362380Y-103897333D01*
X69410000Y-103802095D01*
X69457619Y-103754476D01*
X69552857Y-103706857D01*
X69648095Y-103706857D01*
X69790952Y-103754476D01*
X70362380Y-104325904D01*
X70362380Y-103706857D01*
X69457619Y-103325904D02*
X69410000Y-103278285D01*
X69362380Y-103183047D01*
X69362380Y-102944952D01*
X69410000Y-102849714D01*
X69457619Y-102802095D01*
X69552857Y-102754476D01*
X69648095Y-102754476D01*
X69790952Y-102802095D01*
X70362380Y-103373523D01*
X70362380Y-102754476D01*
X69695714Y-102325904D02*
X70362380Y-102325904D01*
X69790952Y-102325904D02*
X69743333Y-102278285D01*
X69695714Y-102183047D01*
X69695714Y-102040190D01*
X69743333Y-101944952D01*
X69838571Y-101897333D01*
X70362380Y-101897333D01*
X74017142Y-103230666D02*
X74064761Y-103278285D01*
X74112380Y-103421142D01*
X74112380Y-103516380D01*
X74064761Y-103659238D01*
X73969523Y-103754476D01*
X73874285Y-103802095D01*
X73683809Y-103849714D01*
X73540952Y-103849714D01*
X73350476Y-103802095D01*
X73255238Y-103754476D01*
X73160000Y-103659238D01*
X73112380Y-103516380D01*
X73112380Y-103421142D01*
X73160000Y-103278285D01*
X73207619Y-103230666D01*
X74112380Y-102278285D02*
X74112380Y-102849714D01*
X74112380Y-102564000D02*
X73112380Y-102564000D01*
X73255238Y-102659238D01*
X73350476Y-102754476D01*
X73398095Y-102849714D01*
X144005714Y-110494285D02*
X144672380Y-110494285D01*
X143624761Y-110732380D02*
X144339047Y-110970476D01*
X144339047Y-110351428D01*
X143672380Y-110065714D02*
X143672380Y-109399047D01*
X144672380Y-109827619D01*
X143672380Y-108827619D02*
X143672380Y-108732380D01*
X143720000Y-108637142D01*
X143767619Y-108589523D01*
X143862857Y-108541904D01*
X144053333Y-108494285D01*
X144291428Y-108494285D01*
X144481904Y-108541904D01*
X144577142Y-108589523D01*
X144624761Y-108637142D01*
X144672380Y-108732380D01*
X144672380Y-108827619D01*
X144624761Y-108922857D01*
X144577142Y-108970476D01*
X144481904Y-109018095D01*
X144291428Y-109065714D01*
X144053333Y-109065714D01*
X143862857Y-109018095D01*
X143767619Y-108970476D01*
X143720000Y-108922857D01*
X143672380Y-108827619D01*
X144005714Y-108065714D02*
X145005714Y-108065714D01*
X144053333Y-108065714D02*
X144005714Y-107970476D01*
X144005714Y-107780000D01*
X144053333Y-107684761D01*
X144100952Y-107637142D01*
X144196190Y-107589523D01*
X144481904Y-107589523D01*
X144577142Y-107637142D01*
X144624761Y-107684761D01*
X144672380Y-107780000D01*
X144672380Y-107970476D01*
X144624761Y-108065714D01*
X141327142Y-109922857D02*
X141374761Y-109970476D01*
X141422380Y-110113333D01*
X141422380Y-110208571D01*
X141374761Y-110351428D01*
X141279523Y-110446666D01*
X141184285Y-110494285D01*
X140993809Y-110541904D01*
X140850952Y-110541904D01*
X140660476Y-110494285D01*
X140565238Y-110446666D01*
X140470000Y-110351428D01*
X140422380Y-110208571D01*
X140422380Y-110113333D01*
X140470000Y-109970476D01*
X140517619Y-109922857D01*
X141422380Y-108970476D02*
X141422380Y-109541904D01*
X141422380Y-109256190D02*
X140422380Y-109256190D01*
X140565238Y-109351428D01*
X140660476Y-109446666D01*
X140708095Y-109541904D01*
X140755714Y-108113333D02*
X141422380Y-108113333D01*
X140374761Y-108351428D02*
X141089047Y-108589523D01*
X141089047Y-107970476D01*
X259040095Y-64504000D02*
X258944857Y-64456380D01*
X258802000Y-64456380D01*
X258659142Y-64504000D01*
X258563904Y-64599238D01*
X258516285Y-64694476D01*
X258468666Y-64884952D01*
X258468666Y-65027809D01*
X258516285Y-65218285D01*
X258563904Y-65313523D01*
X258659142Y-65408761D01*
X258802000Y-65456380D01*
X258897238Y-65456380D01*
X259040095Y-65408761D01*
X259087714Y-65361142D01*
X259087714Y-65027809D01*
X258897238Y-65027809D01*
X259516285Y-65456380D02*
X259516285Y-64456380D01*
X260087714Y-65456380D01*
X260087714Y-64456380D01*
X260563904Y-65456380D02*
X260563904Y-64456380D01*
X260802000Y-64456380D01*
X260944857Y-64504000D01*
X261040095Y-64599238D01*
X261087714Y-64694476D01*
X261135333Y-64884952D01*
X261135333Y-65027809D01*
X261087714Y-65218285D01*
X261040095Y-65313523D01*
X260944857Y-65408761D01*
X260802000Y-65456380D01*
X260563904Y-65456380D01*
X258563904Y-62194000D02*
X258468666Y-62146380D01*
X258325809Y-62146380D01*
X258182952Y-62194000D01*
X258087714Y-62289238D01*
X258040095Y-62384476D01*
X257992476Y-62574952D01*
X257992476Y-62717809D01*
X258040095Y-62908285D01*
X258087714Y-63003523D01*
X258182952Y-63098761D01*
X258325809Y-63146380D01*
X258421047Y-63146380D01*
X258563904Y-63098761D01*
X258611523Y-63051142D01*
X258611523Y-62717809D01*
X258421047Y-62717809D01*
X259040095Y-63146380D02*
X259040095Y-62146380D01*
X259611523Y-63146380D01*
X259611523Y-62146380D01*
X260087714Y-63146380D02*
X260087714Y-62146380D01*
X260325809Y-62146380D01*
X260468666Y-62194000D01*
X260563904Y-62289238D01*
X260611523Y-62384476D01*
X260659142Y-62574952D01*
X260659142Y-62717809D01*
X260611523Y-62908285D01*
X260563904Y-63003523D01*
X260468666Y-63098761D01*
X260325809Y-63146380D01*
X260087714Y-63146380D01*
X261516285Y-62479714D02*
X261516285Y-63146380D01*
X261278190Y-62098761D02*
X261040095Y-62813047D01*
X261659142Y-62813047D01*
X285840904Y-121795714D02*
X285840904Y-122462380D01*
X285602809Y-121414761D02*
X285364714Y-122129047D01*
X285983761Y-122129047D01*
X286269476Y-121462380D02*
X286936142Y-121462380D01*
X286507571Y-122462380D01*
X287745666Y-121795714D02*
X287745666Y-122462380D01*
X287317095Y-121795714D02*
X287317095Y-122319523D01*
X287364714Y-122414761D01*
X287459952Y-122462380D01*
X287602809Y-122462380D01*
X287698047Y-122414761D01*
X287745666Y-122367142D01*
X285936142Y-112117142D02*
X285888523Y-112164761D01*
X285745666Y-112212380D01*
X285650428Y-112212380D01*
X285507571Y-112164761D01*
X285412333Y-112069523D01*
X285364714Y-111974285D01*
X285317095Y-111783809D01*
X285317095Y-111640952D01*
X285364714Y-111450476D01*
X285412333Y-111355238D01*
X285507571Y-111260000D01*
X285650428Y-111212380D01*
X285745666Y-111212380D01*
X285888523Y-111260000D01*
X285936142Y-111307619D01*
X286888523Y-112212380D02*
X286317095Y-112212380D01*
X286602809Y-112212380D02*
X286602809Y-111212380D01*
X286507571Y-111355238D01*
X286412333Y-111450476D01*
X286317095Y-111498095D01*
X287269476Y-111307619D02*
X287317095Y-111260000D01*
X287412333Y-111212380D01*
X287650428Y-111212380D01*
X287745666Y-111260000D01*
X287793285Y-111307619D01*
X287840904Y-111402857D01*
X287840904Y-111498095D01*
X287793285Y-111640952D01*
X287221857Y-112212380D01*
X287840904Y-112212380D01*
X288126904Y-74932714D02*
X288126904Y-75599380D01*
X287888809Y-74551761D02*
X287650714Y-75266047D01*
X288269761Y-75266047D01*
X288555476Y-74599380D02*
X289222142Y-74599380D01*
X288793571Y-75599380D01*
X290031666Y-74932714D02*
X290031666Y-75599380D01*
X289603095Y-74932714D02*
X289603095Y-75456523D01*
X289650714Y-75551761D01*
X289745952Y-75599380D01*
X289888809Y-75599380D01*
X289984047Y-75551761D01*
X290031666Y-75504142D01*
X288222142Y-65254142D02*
X288174523Y-65301761D01*
X288031666Y-65349380D01*
X287936428Y-65349380D01*
X287793571Y-65301761D01*
X287698333Y-65206523D01*
X287650714Y-65111285D01*
X287603095Y-64920809D01*
X287603095Y-64777952D01*
X287650714Y-64587476D01*
X287698333Y-64492238D01*
X287793571Y-64397000D01*
X287936428Y-64349380D01*
X288031666Y-64349380D01*
X288174523Y-64397000D01*
X288222142Y-64444619D01*
X289174523Y-65349380D02*
X288603095Y-65349380D01*
X288888809Y-65349380D02*
X288888809Y-64349380D01*
X288793571Y-64492238D01*
X288698333Y-64587476D01*
X288603095Y-64635095D01*
X289793571Y-64349380D02*
X289888809Y-64349380D01*
X289984047Y-64397000D01*
X290031666Y-64444619D01*
X290079285Y-64539857D01*
X290126904Y-64730333D01*
X290126904Y-64968428D01*
X290079285Y-65158904D01*
X290031666Y-65254142D01*
X289984047Y-65301761D01*
X289888809Y-65349380D01*
X289793571Y-65349380D01*
X289698333Y-65301761D01*
X289650714Y-65254142D01*
X289603095Y-65158904D01*
X289555476Y-64968428D01*
X289555476Y-64730333D01*
X289603095Y-64539857D01*
X289650714Y-64444619D01*
X289698333Y-64397000D01*
X289793571Y-64349380D01*
X81751904Y-74805714D02*
X81751904Y-75472380D01*
X81513809Y-74424761D02*
X81275714Y-75139047D01*
X81894761Y-75139047D01*
X82180476Y-74472380D02*
X82847142Y-74472380D01*
X82418571Y-75472380D01*
X83656666Y-74805714D02*
X83656666Y-75472380D01*
X83228095Y-74805714D02*
X83228095Y-75329523D01*
X83275714Y-75424761D01*
X83370952Y-75472380D01*
X83513809Y-75472380D01*
X83609047Y-75424761D01*
X83656666Y-75377142D01*
X82323333Y-65127142D02*
X82275714Y-65174761D01*
X82132857Y-65222380D01*
X82037619Y-65222380D01*
X81894761Y-65174761D01*
X81799523Y-65079523D01*
X81751904Y-64984285D01*
X81704285Y-64793809D01*
X81704285Y-64650952D01*
X81751904Y-64460476D01*
X81799523Y-64365238D01*
X81894761Y-64270000D01*
X82037619Y-64222380D01*
X82132857Y-64222380D01*
X82275714Y-64270000D01*
X82323333Y-64317619D01*
X82894761Y-64650952D02*
X82799523Y-64603333D01*
X82751904Y-64555714D01*
X82704285Y-64460476D01*
X82704285Y-64412857D01*
X82751904Y-64317619D01*
X82799523Y-64270000D01*
X82894761Y-64222380D01*
X83085238Y-64222380D01*
X83180476Y-64270000D01*
X83228095Y-64317619D01*
X83275714Y-64412857D01*
X83275714Y-64460476D01*
X83228095Y-64555714D01*
X83180476Y-64603333D01*
X83085238Y-64650952D01*
X82894761Y-64650952D01*
X82799523Y-64698571D01*
X82751904Y-64746190D01*
X82704285Y-64841428D01*
X82704285Y-65031904D01*
X82751904Y-65127142D01*
X82799523Y-65174761D01*
X82894761Y-65222380D01*
X83085238Y-65222380D01*
X83180476Y-65174761D01*
X83228095Y-65127142D01*
X83275714Y-65031904D01*
X83275714Y-64841428D01*
X83228095Y-64746190D01*
X83180476Y-64698571D01*
X83085238Y-64650952D01*
X294095904Y-101983714D02*
X294095904Y-102650380D01*
X293857809Y-101602761D02*
X293619714Y-102317047D01*
X294238761Y-102317047D01*
X294524476Y-101650380D02*
X295191142Y-101650380D01*
X294762571Y-102650380D01*
X296000666Y-101983714D02*
X296000666Y-102650380D01*
X295572095Y-101983714D02*
X295572095Y-102507523D01*
X295619714Y-102602761D01*
X295714952Y-102650380D01*
X295857809Y-102650380D01*
X295953047Y-102602761D01*
X296000666Y-102555142D01*
X294667333Y-92305142D02*
X294619714Y-92352761D01*
X294476857Y-92400380D01*
X294381619Y-92400380D01*
X294238761Y-92352761D01*
X294143523Y-92257523D01*
X294095904Y-92162285D01*
X294048285Y-91971809D01*
X294048285Y-91828952D01*
X294095904Y-91638476D01*
X294143523Y-91543238D01*
X294238761Y-91448000D01*
X294381619Y-91400380D01*
X294476857Y-91400380D01*
X294619714Y-91448000D01*
X294667333Y-91495619D01*
X295000666Y-91400380D02*
X295667333Y-91400380D01*
X295238761Y-92400380D01*
X211114285Y-132160380D02*
X211114285Y-131160380D01*
X211447619Y-131874666D01*
X211780952Y-131160380D01*
X211780952Y-132160380D01*
X212400000Y-132160380D02*
X212304761Y-132112761D01*
X212257142Y-132065142D01*
X212209523Y-131969904D01*
X212209523Y-131684190D01*
X212257142Y-131588952D01*
X212304761Y-131541333D01*
X212400000Y-131493714D01*
X212542857Y-131493714D01*
X212638095Y-131541333D01*
X212685714Y-131588952D01*
X212733333Y-131684190D01*
X212733333Y-131969904D01*
X212685714Y-132065142D01*
X212638095Y-132112761D01*
X212542857Y-132160380D01*
X212400000Y-132160380D01*
X213590476Y-131493714D02*
X213590476Y-132160380D01*
X213161904Y-131493714D02*
X213161904Y-132017523D01*
X213209523Y-132112761D01*
X213304761Y-132160380D01*
X213447619Y-132160380D01*
X213542857Y-132112761D01*
X213590476Y-132065142D01*
X214066666Y-131493714D02*
X214066666Y-132160380D01*
X214066666Y-131588952D02*
X214114285Y-131541333D01*
X214209523Y-131493714D01*
X214352380Y-131493714D01*
X214447619Y-131541333D01*
X214495238Y-131636571D01*
X214495238Y-132160380D01*
X214828571Y-131493714D02*
X215209523Y-131493714D01*
X214971428Y-131160380D02*
X214971428Y-132017523D01*
X215019047Y-132112761D01*
X215114285Y-132160380D01*
X215209523Y-132160380D01*
X215542857Y-132160380D02*
X215542857Y-131493714D01*
X215542857Y-131160380D02*
X215495238Y-131208000D01*
X215542857Y-131255619D01*
X215590476Y-131208000D01*
X215542857Y-131160380D01*
X215542857Y-131255619D01*
X216019047Y-131493714D02*
X216019047Y-132160380D01*
X216019047Y-131588952D02*
X216066666Y-131541333D01*
X216161904Y-131493714D01*
X216304761Y-131493714D01*
X216400000Y-131541333D01*
X216447619Y-131636571D01*
X216447619Y-132160380D01*
X217352380Y-131493714D02*
X217352380Y-132303238D01*
X217304761Y-132398476D01*
X217257142Y-132446095D01*
X217161904Y-132493714D01*
X217019047Y-132493714D01*
X216923809Y-132446095D01*
X217352380Y-132112761D02*
X217257142Y-132160380D01*
X217066666Y-132160380D01*
X216971428Y-132112761D01*
X216923809Y-132065142D01*
X216876190Y-131969904D01*
X216876190Y-131684190D01*
X216923809Y-131588952D01*
X216971428Y-131541333D01*
X217066666Y-131493714D01*
X217257142Y-131493714D01*
X217352380Y-131541333D01*
X217828571Y-132160380D02*
X217828571Y-131160380D01*
X217828571Y-131636571D02*
X218400000Y-131636571D01*
X218400000Y-132160380D02*
X218400000Y-131160380D01*
X219019047Y-132160380D02*
X218923809Y-132112761D01*
X218876190Y-132065142D01*
X218828571Y-131969904D01*
X218828571Y-131684190D01*
X218876190Y-131588952D01*
X218923809Y-131541333D01*
X219019047Y-131493714D01*
X219161904Y-131493714D01*
X219257142Y-131541333D01*
X219304761Y-131588952D01*
X219352380Y-131684190D01*
X219352380Y-131969904D01*
X219304761Y-132065142D01*
X219257142Y-132112761D01*
X219161904Y-132160380D01*
X219019047Y-132160380D01*
X219923809Y-132160380D02*
X219828571Y-132112761D01*
X219780952Y-132017523D01*
X219780952Y-131160380D01*
X220685714Y-132112761D02*
X220590476Y-132160380D01*
X220400000Y-132160380D01*
X220304761Y-132112761D01*
X220257142Y-132017523D01*
X220257142Y-131636571D01*
X220304761Y-131541333D01*
X220400000Y-131493714D01*
X220590476Y-131493714D01*
X220685714Y-131541333D01*
X220733333Y-131636571D01*
X220733333Y-131731809D01*
X220257142Y-131827047D01*
X215438095Y-127960380D02*
X215438095Y-126960380D01*
X215438095Y-127436571D02*
X216009523Y-127436571D01*
X216009523Y-127960380D02*
X216009523Y-126960380D01*
X216390476Y-126960380D02*
X217057142Y-126960380D01*
X216628571Y-127960380D01*
X143169285Y-94187380D02*
X143169285Y-93187380D01*
X143502619Y-93901666D01*
X143835952Y-93187380D01*
X143835952Y-94187380D01*
X144455000Y-94187380D02*
X144359761Y-94139761D01*
X144312142Y-94092142D01*
X144264523Y-93996904D01*
X144264523Y-93711190D01*
X144312142Y-93615952D01*
X144359761Y-93568333D01*
X144455000Y-93520714D01*
X144597857Y-93520714D01*
X144693095Y-93568333D01*
X144740714Y-93615952D01*
X144788333Y-93711190D01*
X144788333Y-93996904D01*
X144740714Y-94092142D01*
X144693095Y-94139761D01*
X144597857Y-94187380D01*
X144455000Y-94187380D01*
X145645476Y-93520714D02*
X145645476Y-94187380D01*
X145216904Y-93520714D02*
X145216904Y-94044523D01*
X145264523Y-94139761D01*
X145359761Y-94187380D01*
X145502619Y-94187380D01*
X145597857Y-94139761D01*
X145645476Y-94092142D01*
X146121666Y-93520714D02*
X146121666Y-94187380D01*
X146121666Y-93615952D02*
X146169285Y-93568333D01*
X146264523Y-93520714D01*
X146407380Y-93520714D01*
X146502619Y-93568333D01*
X146550238Y-93663571D01*
X146550238Y-94187380D01*
X146883571Y-93520714D02*
X147264523Y-93520714D01*
X147026428Y-93187380D02*
X147026428Y-94044523D01*
X147074047Y-94139761D01*
X147169285Y-94187380D01*
X147264523Y-94187380D01*
X147597857Y-94187380D02*
X147597857Y-93520714D01*
X147597857Y-93187380D02*
X147550238Y-93235000D01*
X147597857Y-93282619D01*
X147645476Y-93235000D01*
X147597857Y-93187380D01*
X147597857Y-93282619D01*
X148074047Y-93520714D02*
X148074047Y-94187380D01*
X148074047Y-93615952D02*
X148121666Y-93568333D01*
X148216904Y-93520714D01*
X148359761Y-93520714D01*
X148455000Y-93568333D01*
X148502619Y-93663571D01*
X148502619Y-94187380D01*
X149407380Y-93520714D02*
X149407380Y-94330238D01*
X149359761Y-94425476D01*
X149312142Y-94473095D01*
X149216904Y-94520714D01*
X149074047Y-94520714D01*
X148978809Y-94473095D01*
X149407380Y-94139761D02*
X149312142Y-94187380D01*
X149121666Y-94187380D01*
X149026428Y-94139761D01*
X148978809Y-94092142D01*
X148931190Y-93996904D01*
X148931190Y-93711190D01*
X148978809Y-93615952D01*
X149026428Y-93568333D01*
X149121666Y-93520714D01*
X149312142Y-93520714D01*
X149407380Y-93568333D01*
X149883571Y-94187380D02*
X149883571Y-93187380D01*
X149883571Y-93663571D02*
X150455000Y-93663571D01*
X150455000Y-94187380D02*
X150455000Y-93187380D01*
X151074047Y-94187380D02*
X150978809Y-94139761D01*
X150931190Y-94092142D01*
X150883571Y-93996904D01*
X150883571Y-93711190D01*
X150931190Y-93615952D01*
X150978809Y-93568333D01*
X151074047Y-93520714D01*
X151216904Y-93520714D01*
X151312142Y-93568333D01*
X151359761Y-93615952D01*
X151407380Y-93711190D01*
X151407380Y-93996904D01*
X151359761Y-94092142D01*
X151312142Y-94139761D01*
X151216904Y-94187380D01*
X151074047Y-94187380D01*
X151978809Y-94187380D02*
X151883571Y-94139761D01*
X151835952Y-94044523D01*
X151835952Y-93187380D01*
X152740714Y-94139761D02*
X152645476Y-94187380D01*
X152455000Y-94187380D01*
X152359761Y-94139761D01*
X152312142Y-94044523D01*
X152312142Y-93663571D01*
X152359761Y-93568333D01*
X152455000Y-93520714D01*
X152645476Y-93520714D01*
X152740714Y-93568333D01*
X152788333Y-93663571D01*
X152788333Y-93758809D01*
X152312142Y-93854047D01*
X147493095Y-89987380D02*
X147493095Y-88987380D01*
X147493095Y-89463571D02*
X148064523Y-89463571D01*
X148064523Y-89987380D02*
X148064523Y-88987380D01*
X148969285Y-88987380D02*
X148778809Y-88987380D01*
X148683571Y-89035000D01*
X148635952Y-89082619D01*
X148540714Y-89225476D01*
X148493095Y-89415952D01*
X148493095Y-89796904D01*
X148540714Y-89892142D01*
X148588333Y-89939761D01*
X148683571Y-89987380D01*
X148874047Y-89987380D01*
X148969285Y-89939761D01*
X149016904Y-89892142D01*
X149064523Y-89796904D01*
X149064523Y-89558809D01*
X149016904Y-89463571D01*
X148969285Y-89415952D01*
X148874047Y-89368333D01*
X148683571Y-89368333D01*
X148588333Y-89415952D01*
X148540714Y-89463571D01*
X148493095Y-89558809D01*
X127040285Y-132160380D02*
X127040285Y-131160380D01*
X127373619Y-131874666D01*
X127706952Y-131160380D01*
X127706952Y-132160380D01*
X128326000Y-132160380D02*
X128230761Y-132112761D01*
X128183142Y-132065142D01*
X128135523Y-131969904D01*
X128135523Y-131684190D01*
X128183142Y-131588952D01*
X128230761Y-131541333D01*
X128326000Y-131493714D01*
X128468857Y-131493714D01*
X128564095Y-131541333D01*
X128611714Y-131588952D01*
X128659333Y-131684190D01*
X128659333Y-131969904D01*
X128611714Y-132065142D01*
X128564095Y-132112761D01*
X128468857Y-132160380D01*
X128326000Y-132160380D01*
X129516476Y-131493714D02*
X129516476Y-132160380D01*
X129087904Y-131493714D02*
X129087904Y-132017523D01*
X129135523Y-132112761D01*
X129230761Y-132160380D01*
X129373619Y-132160380D01*
X129468857Y-132112761D01*
X129516476Y-132065142D01*
X129992666Y-131493714D02*
X129992666Y-132160380D01*
X129992666Y-131588952D02*
X130040285Y-131541333D01*
X130135523Y-131493714D01*
X130278380Y-131493714D01*
X130373619Y-131541333D01*
X130421238Y-131636571D01*
X130421238Y-132160380D01*
X130754571Y-131493714D02*
X131135523Y-131493714D01*
X130897428Y-131160380D02*
X130897428Y-132017523D01*
X130945047Y-132112761D01*
X131040285Y-132160380D01*
X131135523Y-132160380D01*
X131468857Y-132160380D02*
X131468857Y-131493714D01*
X131468857Y-131160380D02*
X131421238Y-131208000D01*
X131468857Y-131255619D01*
X131516476Y-131208000D01*
X131468857Y-131160380D01*
X131468857Y-131255619D01*
X131945047Y-131493714D02*
X131945047Y-132160380D01*
X131945047Y-131588952D02*
X131992666Y-131541333D01*
X132087904Y-131493714D01*
X132230761Y-131493714D01*
X132326000Y-131541333D01*
X132373619Y-131636571D01*
X132373619Y-132160380D01*
X133278380Y-131493714D02*
X133278380Y-132303238D01*
X133230761Y-132398476D01*
X133183142Y-132446095D01*
X133087904Y-132493714D01*
X132945047Y-132493714D01*
X132849809Y-132446095D01*
X133278380Y-132112761D02*
X133183142Y-132160380D01*
X132992666Y-132160380D01*
X132897428Y-132112761D01*
X132849809Y-132065142D01*
X132802190Y-131969904D01*
X132802190Y-131684190D01*
X132849809Y-131588952D01*
X132897428Y-131541333D01*
X132992666Y-131493714D01*
X133183142Y-131493714D01*
X133278380Y-131541333D01*
X133754571Y-132160380D02*
X133754571Y-131160380D01*
X133754571Y-131636571D02*
X134326000Y-131636571D01*
X134326000Y-132160380D02*
X134326000Y-131160380D01*
X134945047Y-132160380D02*
X134849809Y-132112761D01*
X134802190Y-132065142D01*
X134754571Y-131969904D01*
X134754571Y-131684190D01*
X134802190Y-131588952D01*
X134849809Y-131541333D01*
X134945047Y-131493714D01*
X135087904Y-131493714D01*
X135183142Y-131541333D01*
X135230761Y-131588952D01*
X135278380Y-131684190D01*
X135278380Y-131969904D01*
X135230761Y-132065142D01*
X135183142Y-132112761D01*
X135087904Y-132160380D01*
X134945047Y-132160380D01*
X135849809Y-132160380D02*
X135754571Y-132112761D01*
X135706952Y-132017523D01*
X135706952Y-131160380D01*
X136611714Y-132112761D02*
X136516476Y-132160380D01*
X136326000Y-132160380D01*
X136230761Y-132112761D01*
X136183142Y-132017523D01*
X136183142Y-131636571D01*
X136230761Y-131541333D01*
X136326000Y-131493714D01*
X136516476Y-131493714D01*
X136611714Y-131541333D01*
X136659333Y-131636571D01*
X136659333Y-131731809D01*
X136183142Y-131827047D01*
X131364095Y-127960380D02*
X131364095Y-126960380D01*
X131364095Y-127436571D02*
X131935523Y-127436571D01*
X131935523Y-127960380D02*
X131935523Y-126960380D01*
X132887904Y-126960380D02*
X132411714Y-126960380D01*
X132364095Y-127436571D01*
X132411714Y-127388952D01*
X132506952Y-127341333D01*
X132745047Y-127341333D01*
X132840285Y-127388952D01*
X132887904Y-127436571D01*
X132935523Y-127531809D01*
X132935523Y-127769904D01*
X132887904Y-127865142D01*
X132840285Y-127912761D01*
X132745047Y-127960380D01*
X132506952Y-127960380D01*
X132411714Y-127912761D01*
X132364095Y-127865142D01*
X68112285Y-132160380D02*
X68112285Y-131160380D01*
X68445619Y-131874666D01*
X68778952Y-131160380D01*
X68778952Y-132160380D01*
X69398000Y-132160380D02*
X69302761Y-132112761D01*
X69255142Y-132065142D01*
X69207523Y-131969904D01*
X69207523Y-131684190D01*
X69255142Y-131588952D01*
X69302761Y-131541333D01*
X69398000Y-131493714D01*
X69540857Y-131493714D01*
X69636095Y-131541333D01*
X69683714Y-131588952D01*
X69731333Y-131684190D01*
X69731333Y-131969904D01*
X69683714Y-132065142D01*
X69636095Y-132112761D01*
X69540857Y-132160380D01*
X69398000Y-132160380D01*
X70588476Y-131493714D02*
X70588476Y-132160380D01*
X70159904Y-131493714D02*
X70159904Y-132017523D01*
X70207523Y-132112761D01*
X70302761Y-132160380D01*
X70445619Y-132160380D01*
X70540857Y-132112761D01*
X70588476Y-132065142D01*
X71064666Y-131493714D02*
X71064666Y-132160380D01*
X71064666Y-131588952D02*
X71112285Y-131541333D01*
X71207523Y-131493714D01*
X71350380Y-131493714D01*
X71445619Y-131541333D01*
X71493238Y-131636571D01*
X71493238Y-132160380D01*
X71826571Y-131493714D02*
X72207523Y-131493714D01*
X71969428Y-131160380D02*
X71969428Y-132017523D01*
X72017047Y-132112761D01*
X72112285Y-132160380D01*
X72207523Y-132160380D01*
X72540857Y-132160380D02*
X72540857Y-131493714D01*
X72540857Y-131160380D02*
X72493238Y-131208000D01*
X72540857Y-131255619D01*
X72588476Y-131208000D01*
X72540857Y-131160380D01*
X72540857Y-131255619D01*
X73017047Y-131493714D02*
X73017047Y-132160380D01*
X73017047Y-131588952D02*
X73064666Y-131541333D01*
X73159904Y-131493714D01*
X73302761Y-131493714D01*
X73398000Y-131541333D01*
X73445619Y-131636571D01*
X73445619Y-132160380D01*
X74350380Y-131493714D02*
X74350380Y-132303238D01*
X74302761Y-132398476D01*
X74255142Y-132446095D01*
X74159904Y-132493714D01*
X74017047Y-132493714D01*
X73921809Y-132446095D01*
X74350380Y-132112761D02*
X74255142Y-132160380D01*
X74064666Y-132160380D01*
X73969428Y-132112761D01*
X73921809Y-132065142D01*
X73874190Y-131969904D01*
X73874190Y-131684190D01*
X73921809Y-131588952D01*
X73969428Y-131541333D01*
X74064666Y-131493714D01*
X74255142Y-131493714D01*
X74350380Y-131541333D01*
X74826571Y-132160380D02*
X74826571Y-131160380D01*
X74826571Y-131636571D02*
X75398000Y-131636571D01*
X75398000Y-132160380D02*
X75398000Y-131160380D01*
X76017047Y-132160380D02*
X75921809Y-132112761D01*
X75874190Y-132065142D01*
X75826571Y-131969904D01*
X75826571Y-131684190D01*
X75874190Y-131588952D01*
X75921809Y-131541333D01*
X76017047Y-131493714D01*
X76159904Y-131493714D01*
X76255142Y-131541333D01*
X76302761Y-131588952D01*
X76350380Y-131684190D01*
X76350380Y-131969904D01*
X76302761Y-132065142D01*
X76255142Y-132112761D01*
X76159904Y-132160380D01*
X76017047Y-132160380D01*
X76921809Y-132160380D02*
X76826571Y-132112761D01*
X76778952Y-132017523D01*
X76778952Y-131160380D01*
X77683714Y-132112761D02*
X77588476Y-132160380D01*
X77398000Y-132160380D01*
X77302761Y-132112761D01*
X77255142Y-132017523D01*
X77255142Y-131636571D01*
X77302761Y-131541333D01*
X77398000Y-131493714D01*
X77588476Y-131493714D01*
X77683714Y-131541333D01*
X77731333Y-131636571D01*
X77731333Y-131731809D01*
X77255142Y-131827047D01*
X72436095Y-127960380D02*
X72436095Y-126960380D01*
X72436095Y-127436571D02*
X73007523Y-127436571D01*
X73007523Y-127960380D02*
X73007523Y-126960380D01*
X73912285Y-127293714D02*
X73912285Y-127960380D01*
X73674190Y-126912761D02*
X73436095Y-127627047D01*
X74055142Y-127627047D01*
X296966285Y-63326380D02*
X296966285Y-62326380D01*
X297299619Y-63040666D01*
X297632952Y-62326380D01*
X297632952Y-63326380D01*
X298252000Y-63326380D02*
X298156761Y-63278761D01*
X298109142Y-63231142D01*
X298061523Y-63135904D01*
X298061523Y-62850190D01*
X298109142Y-62754952D01*
X298156761Y-62707333D01*
X298252000Y-62659714D01*
X298394857Y-62659714D01*
X298490095Y-62707333D01*
X298537714Y-62754952D01*
X298585333Y-62850190D01*
X298585333Y-63135904D01*
X298537714Y-63231142D01*
X298490095Y-63278761D01*
X298394857Y-63326380D01*
X298252000Y-63326380D01*
X299442476Y-62659714D02*
X299442476Y-63326380D01*
X299013904Y-62659714D02*
X299013904Y-63183523D01*
X299061523Y-63278761D01*
X299156761Y-63326380D01*
X299299619Y-63326380D01*
X299394857Y-63278761D01*
X299442476Y-63231142D01*
X299918666Y-62659714D02*
X299918666Y-63326380D01*
X299918666Y-62754952D02*
X299966285Y-62707333D01*
X300061523Y-62659714D01*
X300204380Y-62659714D01*
X300299619Y-62707333D01*
X300347238Y-62802571D01*
X300347238Y-63326380D01*
X300680571Y-62659714D02*
X301061523Y-62659714D01*
X300823428Y-62326380D02*
X300823428Y-63183523D01*
X300871047Y-63278761D01*
X300966285Y-63326380D01*
X301061523Y-63326380D01*
X301394857Y-63326380D02*
X301394857Y-62659714D01*
X301394857Y-62326380D02*
X301347238Y-62374000D01*
X301394857Y-62421619D01*
X301442476Y-62374000D01*
X301394857Y-62326380D01*
X301394857Y-62421619D01*
X301871047Y-62659714D02*
X301871047Y-63326380D01*
X301871047Y-62754952D02*
X301918666Y-62707333D01*
X302013904Y-62659714D01*
X302156761Y-62659714D01*
X302252000Y-62707333D01*
X302299619Y-62802571D01*
X302299619Y-63326380D01*
X303204380Y-62659714D02*
X303204380Y-63469238D01*
X303156761Y-63564476D01*
X303109142Y-63612095D01*
X303013904Y-63659714D01*
X302871047Y-63659714D01*
X302775809Y-63612095D01*
X303204380Y-63278761D02*
X303109142Y-63326380D01*
X302918666Y-63326380D01*
X302823428Y-63278761D01*
X302775809Y-63231142D01*
X302728190Y-63135904D01*
X302728190Y-62850190D01*
X302775809Y-62754952D01*
X302823428Y-62707333D01*
X302918666Y-62659714D01*
X303109142Y-62659714D01*
X303204380Y-62707333D01*
X303680571Y-63326380D02*
X303680571Y-62326380D01*
X303680571Y-62802571D02*
X304252000Y-62802571D01*
X304252000Y-63326380D02*
X304252000Y-62326380D01*
X304871047Y-63326380D02*
X304775809Y-63278761D01*
X304728190Y-63231142D01*
X304680571Y-63135904D01*
X304680571Y-62850190D01*
X304728190Y-62754952D01*
X304775809Y-62707333D01*
X304871047Y-62659714D01*
X305013904Y-62659714D01*
X305109142Y-62707333D01*
X305156761Y-62754952D01*
X305204380Y-62850190D01*
X305204380Y-63135904D01*
X305156761Y-63231142D01*
X305109142Y-63278761D01*
X305013904Y-63326380D01*
X304871047Y-63326380D01*
X305775809Y-63326380D02*
X305680571Y-63278761D01*
X305632952Y-63183523D01*
X305632952Y-62326380D01*
X306537714Y-63278761D02*
X306442476Y-63326380D01*
X306252000Y-63326380D01*
X306156761Y-63278761D01*
X306109142Y-63183523D01*
X306109142Y-62802571D01*
X306156761Y-62707333D01*
X306252000Y-62659714D01*
X306442476Y-62659714D01*
X306537714Y-62707333D01*
X306585333Y-62802571D01*
X306585333Y-62897809D01*
X306109142Y-62993047D01*
X301290095Y-59126380D02*
X301290095Y-58126380D01*
X301290095Y-58602571D02*
X301861523Y-58602571D01*
X301861523Y-59126380D02*
X301861523Y-58126380D01*
X302242476Y-58126380D02*
X302861523Y-58126380D01*
X302528190Y-58507333D01*
X302671047Y-58507333D01*
X302766285Y-58554952D01*
X302813904Y-58602571D01*
X302861523Y-58697809D01*
X302861523Y-58935904D01*
X302813904Y-59031142D01*
X302766285Y-59078761D01*
X302671047Y-59126380D01*
X302385333Y-59126380D01*
X302290095Y-59078761D01*
X302242476Y-59031142D01*
X151297285Y-63326380D02*
X151297285Y-62326380D01*
X151630619Y-63040666D01*
X151963952Y-62326380D01*
X151963952Y-63326380D01*
X152583000Y-63326380D02*
X152487761Y-63278761D01*
X152440142Y-63231142D01*
X152392523Y-63135904D01*
X152392523Y-62850190D01*
X152440142Y-62754952D01*
X152487761Y-62707333D01*
X152583000Y-62659714D01*
X152725857Y-62659714D01*
X152821095Y-62707333D01*
X152868714Y-62754952D01*
X152916333Y-62850190D01*
X152916333Y-63135904D01*
X152868714Y-63231142D01*
X152821095Y-63278761D01*
X152725857Y-63326380D01*
X152583000Y-63326380D01*
X153773476Y-62659714D02*
X153773476Y-63326380D01*
X153344904Y-62659714D02*
X153344904Y-63183523D01*
X153392523Y-63278761D01*
X153487761Y-63326380D01*
X153630619Y-63326380D01*
X153725857Y-63278761D01*
X153773476Y-63231142D01*
X154249666Y-62659714D02*
X154249666Y-63326380D01*
X154249666Y-62754952D02*
X154297285Y-62707333D01*
X154392523Y-62659714D01*
X154535380Y-62659714D01*
X154630619Y-62707333D01*
X154678238Y-62802571D01*
X154678238Y-63326380D01*
X155011571Y-62659714D02*
X155392523Y-62659714D01*
X155154428Y-62326380D02*
X155154428Y-63183523D01*
X155202047Y-63278761D01*
X155297285Y-63326380D01*
X155392523Y-63326380D01*
X155725857Y-63326380D02*
X155725857Y-62659714D01*
X155725857Y-62326380D02*
X155678238Y-62374000D01*
X155725857Y-62421619D01*
X155773476Y-62374000D01*
X155725857Y-62326380D01*
X155725857Y-62421619D01*
X156202047Y-62659714D02*
X156202047Y-63326380D01*
X156202047Y-62754952D02*
X156249666Y-62707333D01*
X156344904Y-62659714D01*
X156487761Y-62659714D01*
X156583000Y-62707333D01*
X156630619Y-62802571D01*
X156630619Y-63326380D01*
X157535380Y-62659714D02*
X157535380Y-63469238D01*
X157487761Y-63564476D01*
X157440142Y-63612095D01*
X157344904Y-63659714D01*
X157202047Y-63659714D01*
X157106809Y-63612095D01*
X157535380Y-63278761D02*
X157440142Y-63326380D01*
X157249666Y-63326380D01*
X157154428Y-63278761D01*
X157106809Y-63231142D01*
X157059190Y-63135904D01*
X157059190Y-62850190D01*
X157106809Y-62754952D01*
X157154428Y-62707333D01*
X157249666Y-62659714D01*
X157440142Y-62659714D01*
X157535380Y-62707333D01*
X158011571Y-63326380D02*
X158011571Y-62326380D01*
X158011571Y-62802571D02*
X158583000Y-62802571D01*
X158583000Y-63326380D02*
X158583000Y-62326380D01*
X159202047Y-63326380D02*
X159106809Y-63278761D01*
X159059190Y-63231142D01*
X159011571Y-63135904D01*
X159011571Y-62850190D01*
X159059190Y-62754952D01*
X159106809Y-62707333D01*
X159202047Y-62659714D01*
X159344904Y-62659714D01*
X159440142Y-62707333D01*
X159487761Y-62754952D01*
X159535380Y-62850190D01*
X159535380Y-63135904D01*
X159487761Y-63231142D01*
X159440142Y-63278761D01*
X159344904Y-63326380D01*
X159202047Y-63326380D01*
X160106809Y-63326380D02*
X160011571Y-63278761D01*
X159963952Y-63183523D01*
X159963952Y-62326380D01*
X160868714Y-63278761D02*
X160773476Y-63326380D01*
X160583000Y-63326380D01*
X160487761Y-63278761D01*
X160440142Y-63183523D01*
X160440142Y-62802571D01*
X160487761Y-62707333D01*
X160583000Y-62659714D01*
X160773476Y-62659714D01*
X160868714Y-62707333D01*
X160916333Y-62802571D01*
X160916333Y-62897809D01*
X160440142Y-62993047D01*
X155321095Y-59126380D02*
X155321095Y-58126380D01*
X155321095Y-58602571D02*
X155892523Y-58602571D01*
X155892523Y-59126380D02*
X155892523Y-58126380D01*
X156321095Y-58221619D02*
X156368714Y-58174000D01*
X156463952Y-58126380D01*
X156702047Y-58126380D01*
X156797285Y-58174000D01*
X156844904Y-58221619D01*
X156892523Y-58316857D01*
X156892523Y-58412095D01*
X156844904Y-58554952D01*
X156273476Y-59126380D01*
X156892523Y-59126380D01*
X44236285Y-63326380D02*
X44236285Y-62326380D01*
X44569619Y-63040666D01*
X44902952Y-62326380D01*
X44902952Y-63326380D01*
X45522000Y-63326380D02*
X45426761Y-63278761D01*
X45379142Y-63231142D01*
X45331523Y-63135904D01*
X45331523Y-62850190D01*
X45379142Y-62754952D01*
X45426761Y-62707333D01*
X45522000Y-62659714D01*
X45664857Y-62659714D01*
X45760095Y-62707333D01*
X45807714Y-62754952D01*
X45855333Y-62850190D01*
X45855333Y-63135904D01*
X45807714Y-63231142D01*
X45760095Y-63278761D01*
X45664857Y-63326380D01*
X45522000Y-63326380D01*
X46712476Y-62659714D02*
X46712476Y-63326380D01*
X46283904Y-62659714D02*
X46283904Y-63183523D01*
X46331523Y-63278761D01*
X46426761Y-63326380D01*
X46569619Y-63326380D01*
X46664857Y-63278761D01*
X46712476Y-63231142D01*
X47188666Y-62659714D02*
X47188666Y-63326380D01*
X47188666Y-62754952D02*
X47236285Y-62707333D01*
X47331523Y-62659714D01*
X47474380Y-62659714D01*
X47569619Y-62707333D01*
X47617238Y-62802571D01*
X47617238Y-63326380D01*
X47950571Y-62659714D02*
X48331523Y-62659714D01*
X48093428Y-62326380D02*
X48093428Y-63183523D01*
X48141047Y-63278761D01*
X48236285Y-63326380D01*
X48331523Y-63326380D01*
X48664857Y-63326380D02*
X48664857Y-62659714D01*
X48664857Y-62326380D02*
X48617238Y-62374000D01*
X48664857Y-62421619D01*
X48712476Y-62374000D01*
X48664857Y-62326380D01*
X48664857Y-62421619D01*
X49141047Y-62659714D02*
X49141047Y-63326380D01*
X49141047Y-62754952D02*
X49188666Y-62707333D01*
X49283904Y-62659714D01*
X49426761Y-62659714D01*
X49522000Y-62707333D01*
X49569619Y-62802571D01*
X49569619Y-63326380D01*
X50474380Y-62659714D02*
X50474380Y-63469238D01*
X50426761Y-63564476D01*
X50379142Y-63612095D01*
X50283904Y-63659714D01*
X50141047Y-63659714D01*
X50045809Y-63612095D01*
X50474380Y-63278761D02*
X50379142Y-63326380D01*
X50188666Y-63326380D01*
X50093428Y-63278761D01*
X50045809Y-63231142D01*
X49998190Y-63135904D01*
X49998190Y-62850190D01*
X50045809Y-62754952D01*
X50093428Y-62707333D01*
X50188666Y-62659714D01*
X50379142Y-62659714D01*
X50474380Y-62707333D01*
X50950571Y-63326380D02*
X50950571Y-62326380D01*
X50950571Y-62802571D02*
X51522000Y-62802571D01*
X51522000Y-63326380D02*
X51522000Y-62326380D01*
X52141047Y-63326380D02*
X52045809Y-63278761D01*
X51998190Y-63231142D01*
X51950571Y-63135904D01*
X51950571Y-62850190D01*
X51998190Y-62754952D01*
X52045809Y-62707333D01*
X52141047Y-62659714D01*
X52283904Y-62659714D01*
X52379142Y-62707333D01*
X52426761Y-62754952D01*
X52474380Y-62850190D01*
X52474380Y-63135904D01*
X52426761Y-63231142D01*
X52379142Y-63278761D01*
X52283904Y-63326380D01*
X52141047Y-63326380D01*
X53045809Y-63326380D02*
X52950571Y-63278761D01*
X52902952Y-63183523D01*
X52902952Y-62326380D01*
X53807714Y-63278761D02*
X53712476Y-63326380D01*
X53522000Y-63326380D01*
X53426761Y-63278761D01*
X53379142Y-63183523D01*
X53379142Y-62802571D01*
X53426761Y-62707333D01*
X53522000Y-62659714D01*
X53712476Y-62659714D01*
X53807714Y-62707333D01*
X53855333Y-62802571D01*
X53855333Y-62897809D01*
X53379142Y-62993047D01*
X48560095Y-59126380D02*
X48560095Y-58126380D01*
X48560095Y-58602571D02*
X49131523Y-58602571D01*
X49131523Y-59126380D02*
X49131523Y-58126380D01*
X50131523Y-59126380D02*
X49560095Y-59126380D01*
X49845809Y-59126380D02*
X49845809Y-58126380D01*
X49750571Y-58269238D01*
X49655333Y-58364476D01*
X49560095Y-58412095D01*
X142383000Y-62063380D02*
X142573476Y-62063380D01*
X142668714Y-62111000D01*
X142763952Y-62206238D01*
X142811571Y-62396714D01*
X142811571Y-62730047D01*
X142763952Y-62920523D01*
X142668714Y-63015761D01*
X142573476Y-63063380D01*
X142383000Y-63063380D01*
X142287761Y-63015761D01*
X142192523Y-62920523D01*
X142144904Y-62730047D01*
X142144904Y-62396714D01*
X142192523Y-62206238D01*
X142287761Y-62111000D01*
X142383000Y-62063380D01*
X143240142Y-62063380D02*
X143240142Y-62872904D01*
X143287761Y-62968142D01*
X143335380Y-63015761D01*
X143430619Y-63063380D01*
X143621095Y-63063380D01*
X143716333Y-63015761D01*
X143763952Y-62968142D01*
X143811571Y-62872904D01*
X143811571Y-62063380D01*
X144144904Y-62063380D02*
X144716333Y-62063380D01*
X144430619Y-63063380D02*
X144430619Y-62063380D01*
X142835380Y-61293190D02*
X142835380Y-61102714D01*
X142883000Y-61007476D01*
X142978238Y-60912238D01*
X143168714Y-60864619D01*
X143502047Y-60864619D01*
X143692523Y-60912238D01*
X143787761Y-61007476D01*
X143835380Y-61102714D01*
X143835380Y-61293190D01*
X143787761Y-61388428D01*
X143692523Y-61483666D01*
X143502047Y-61531285D01*
X143168714Y-61531285D01*
X142978238Y-61483666D01*
X142883000Y-61388428D01*
X142835380Y-61293190D01*
X142835380Y-60436047D02*
X143644904Y-60436047D01*
X143740142Y-60388428D01*
X143787761Y-60340809D01*
X143835380Y-60245571D01*
X143835380Y-60055095D01*
X143787761Y-59959857D01*
X143740142Y-59912238D01*
X143644904Y-59864619D01*
X142835380Y-59864619D01*
X142835380Y-59531285D02*
X142835380Y-58959857D01*
X143835380Y-59245571D02*
X142835380Y-59245571D01*
X143835380Y-58102714D02*
X143835380Y-58674142D01*
X143835380Y-58388428D02*
X142835380Y-58388428D01*
X142978238Y-58483666D01*
X143073476Y-58578904D01*
X143121095Y-58674142D01*
X110998095Y-117737000D02*
X110902857Y-117689380D01*
X110760000Y-117689380D01*
X110617142Y-117737000D01*
X110521904Y-117832238D01*
X110474285Y-117927476D01*
X110426666Y-118117952D01*
X110426666Y-118260809D01*
X110474285Y-118451285D01*
X110521904Y-118546523D01*
X110617142Y-118641761D01*
X110760000Y-118689380D01*
X110855238Y-118689380D01*
X110998095Y-118641761D01*
X111045714Y-118594142D01*
X111045714Y-118260809D01*
X110855238Y-118260809D01*
X111474285Y-118689380D02*
X111474285Y-117689380D01*
X112045714Y-118689380D01*
X112045714Y-117689380D01*
X112521904Y-118689380D02*
X112521904Y-117689380D01*
X112760000Y-117689380D01*
X112902857Y-117737000D01*
X112998095Y-117832238D01*
X113045714Y-117927476D01*
X113093333Y-118117952D01*
X113093333Y-118260809D01*
X113045714Y-118451285D01*
X112998095Y-118546523D01*
X112902857Y-118641761D01*
X112760000Y-118689380D01*
X112521904Y-118689380D01*
X111260000Y-116808095D02*
X111212380Y-116903333D01*
X111212380Y-117046190D01*
X111260000Y-117189047D01*
X111355238Y-117284285D01*
X111450476Y-117331904D01*
X111640952Y-117379523D01*
X111783809Y-117379523D01*
X111974285Y-117331904D01*
X112069523Y-117284285D01*
X112164761Y-117189047D01*
X112212380Y-117046190D01*
X112212380Y-116950952D01*
X112164761Y-116808095D01*
X112117142Y-116760476D01*
X111783809Y-116760476D01*
X111783809Y-116950952D01*
X112212380Y-116331904D02*
X111212380Y-116331904D01*
X112212380Y-115760476D01*
X111212380Y-115760476D01*
X112212380Y-115284285D02*
X111212380Y-115284285D01*
X111212380Y-115046190D01*
X111260000Y-114903333D01*
X111355238Y-114808095D01*
X111450476Y-114760476D01*
X111640952Y-114712857D01*
X111783809Y-114712857D01*
X111974285Y-114760476D01*
X112069523Y-114808095D01*
X112164761Y-114903333D01*
X112212380Y-115046190D01*
X112212380Y-115284285D01*
X111212380Y-114379523D02*
X111212380Y-113760476D01*
X111593333Y-114093809D01*
X111593333Y-113950952D01*
X111640952Y-113855714D01*
X111688571Y-113808095D01*
X111783809Y-113760476D01*
X112021904Y-113760476D01*
X112117142Y-113808095D01*
X112164761Y-113855714D01*
X112212380Y-113950952D01*
X112212380Y-114236666D01*
X112164761Y-114331904D01*
X112117142Y-114379523D01*
X140081095Y-91829000D02*
X139985857Y-91781380D01*
X139843000Y-91781380D01*
X139700142Y-91829000D01*
X139604904Y-91924238D01*
X139557285Y-92019476D01*
X139509666Y-92209952D01*
X139509666Y-92352809D01*
X139557285Y-92543285D01*
X139604904Y-92638523D01*
X139700142Y-92733761D01*
X139843000Y-92781380D01*
X139938238Y-92781380D01*
X140081095Y-92733761D01*
X140128714Y-92686142D01*
X140128714Y-92352809D01*
X139938238Y-92352809D01*
X140557285Y-92781380D02*
X140557285Y-91781380D01*
X141128714Y-92781380D01*
X141128714Y-91781380D01*
X141604904Y-92781380D02*
X141604904Y-91781380D01*
X141843000Y-91781380D01*
X141985857Y-91829000D01*
X142081095Y-91924238D01*
X142128714Y-92019476D01*
X142176333Y-92209952D01*
X142176333Y-92352809D01*
X142128714Y-92543285D01*
X142081095Y-92638523D01*
X141985857Y-92733761D01*
X141843000Y-92781380D01*
X141604904Y-92781380D01*
X140343000Y-90646095D02*
X140295380Y-90741333D01*
X140295380Y-90884190D01*
X140343000Y-91027047D01*
X140438238Y-91122285D01*
X140533476Y-91169904D01*
X140723952Y-91217523D01*
X140866809Y-91217523D01*
X141057285Y-91169904D01*
X141152523Y-91122285D01*
X141247761Y-91027047D01*
X141295380Y-90884190D01*
X141295380Y-90788952D01*
X141247761Y-90646095D01*
X141200142Y-90598476D01*
X140866809Y-90598476D01*
X140866809Y-90788952D01*
X141295380Y-90169904D02*
X140295380Y-90169904D01*
X141295380Y-89598476D01*
X140295380Y-89598476D01*
X141295380Y-89122285D02*
X140295380Y-89122285D01*
X140295380Y-88884190D01*
X140343000Y-88741333D01*
X140438238Y-88646095D01*
X140533476Y-88598476D01*
X140723952Y-88550857D01*
X140866809Y-88550857D01*
X141057285Y-88598476D01*
X141152523Y-88646095D01*
X141247761Y-88741333D01*
X141295380Y-88884190D01*
X141295380Y-89122285D01*
X140390619Y-88169904D02*
X140343000Y-88122285D01*
X140295380Y-88027047D01*
X140295380Y-87788952D01*
X140343000Y-87693714D01*
X140390619Y-87646095D01*
X140485857Y-87598476D01*
X140581095Y-87598476D01*
X140723952Y-87646095D01*
X141295380Y-88217523D01*
X141295380Y-87598476D01*
X148023238Y-62539571D02*
X148166095Y-62587190D01*
X148213714Y-62634809D01*
X148261333Y-62730047D01*
X148261333Y-62872904D01*
X148213714Y-62968142D01*
X148166095Y-63015761D01*
X148070857Y-63063380D01*
X147689904Y-63063380D01*
X147689904Y-62063380D01*
X148023238Y-62063380D01*
X148118476Y-62111000D01*
X148166095Y-62158619D01*
X148213714Y-62253857D01*
X148213714Y-62349095D01*
X148166095Y-62444333D01*
X148118476Y-62491952D01*
X148023238Y-62539571D01*
X147689904Y-62539571D01*
X149213714Y-63063380D02*
X148642285Y-63063380D01*
X148928000Y-63063380D02*
X148928000Y-62063380D01*
X148832761Y-62206238D01*
X148737523Y-62301476D01*
X148642285Y-62349095D01*
X148356571Y-60221761D02*
X148404190Y-60078904D01*
X148451809Y-60031285D01*
X148547047Y-59983666D01*
X148689904Y-59983666D01*
X148785142Y-60031285D01*
X148832761Y-60078904D01*
X148880380Y-60174142D01*
X148880380Y-60555095D01*
X147880380Y-60555095D01*
X147880380Y-60221761D01*
X147928000Y-60126523D01*
X147975619Y-60078904D01*
X148070857Y-60031285D01*
X148166095Y-60031285D01*
X148261333Y-60078904D01*
X148308952Y-60126523D01*
X148356571Y-60221761D01*
X148356571Y-60555095D01*
X148880380Y-59031285D02*
X148880380Y-59602714D01*
X148880380Y-59317000D02*
X147880380Y-59317000D01*
X148023238Y-59412238D01*
X148118476Y-59507476D01*
X148166095Y-59602714D01*
X80207952Y-88844380D02*
X79636523Y-88844380D01*
X79922238Y-88844380D02*
X79922238Y-87844380D01*
X79827000Y-87987238D01*
X79731761Y-88082476D01*
X79636523Y-88130095D01*
X80827000Y-87844380D02*
X80922238Y-87844380D01*
X81017476Y-87892000D01*
X81065095Y-87939619D01*
X81112714Y-88034857D01*
X81160333Y-88225333D01*
X81160333Y-88463428D01*
X81112714Y-88653904D01*
X81065095Y-88749142D01*
X81017476Y-88796761D01*
X80922238Y-88844380D01*
X80827000Y-88844380D01*
X80731761Y-88796761D01*
X80684142Y-88749142D01*
X80636523Y-88653904D01*
X80588904Y-88463428D01*
X80588904Y-88225333D01*
X80636523Y-88034857D01*
X80684142Y-87939619D01*
X80731761Y-87892000D01*
X80827000Y-87844380D01*
X81779380Y-87844380D02*
X81874619Y-87844380D01*
X81969857Y-87892000D01*
X82017476Y-87939619D01*
X82065095Y-88034857D01*
X82112714Y-88225333D01*
X82112714Y-88463428D01*
X82065095Y-88653904D01*
X82017476Y-88749142D01*
X81969857Y-88796761D01*
X81874619Y-88844380D01*
X81779380Y-88844380D01*
X81684142Y-88796761D01*
X81636523Y-88749142D01*
X81588904Y-88653904D01*
X81541285Y-88463428D01*
X81541285Y-88225333D01*
X81588904Y-88034857D01*
X81636523Y-87939619D01*
X81684142Y-87892000D01*
X81779380Y-87844380D01*
X82541285Y-88177714D02*
X82541285Y-89177714D01*
X82541285Y-88225333D02*
X82636523Y-88177714D01*
X82827000Y-88177714D01*
X82922238Y-88225333D01*
X82969857Y-88272952D01*
X83017476Y-88368190D01*
X83017476Y-88653904D01*
X82969857Y-88749142D01*
X82922238Y-88796761D01*
X82827000Y-88844380D01*
X82636523Y-88844380D01*
X82541285Y-88796761D01*
X81200333Y-91289142D02*
X81152714Y-91336761D01*
X81009857Y-91384380D01*
X80914619Y-91384380D01*
X80771761Y-91336761D01*
X80676523Y-91241523D01*
X80628904Y-91146285D01*
X80581285Y-90955809D01*
X80581285Y-90812952D01*
X80628904Y-90622476D01*
X80676523Y-90527238D01*
X80771761Y-90432000D01*
X80914619Y-90384380D01*
X81009857Y-90384380D01*
X81152714Y-90432000D01*
X81200333Y-90479619D01*
X81581285Y-90479619D02*
X81628904Y-90432000D01*
X81724142Y-90384380D01*
X81962238Y-90384380D01*
X82057476Y-90432000D01*
X82105095Y-90479619D01*
X82152714Y-90574857D01*
X82152714Y-90670095D01*
X82105095Y-90812952D01*
X81533666Y-91384380D01*
X82152714Y-91384380D01*
X101385714Y-103830285D02*
X102052380Y-103830285D01*
X101004761Y-104068380D02*
X101719047Y-104306476D01*
X101719047Y-103687428D01*
X101052380Y-103401714D02*
X101052380Y-102735047D01*
X102052380Y-103163619D01*
X101052380Y-102163619D02*
X101052380Y-102068380D01*
X101100000Y-101973142D01*
X101147619Y-101925523D01*
X101242857Y-101877904D01*
X101433333Y-101830285D01*
X101671428Y-101830285D01*
X101861904Y-101877904D01*
X101957142Y-101925523D01*
X102004761Y-101973142D01*
X102052380Y-102068380D01*
X102052380Y-102163619D01*
X102004761Y-102258857D01*
X101957142Y-102306476D01*
X101861904Y-102354095D01*
X101671428Y-102401714D01*
X101433333Y-102401714D01*
X101242857Y-102354095D01*
X101147619Y-102306476D01*
X101100000Y-102258857D01*
X101052380Y-102163619D01*
X101385714Y-101401714D02*
X102385714Y-101401714D01*
X101433333Y-101401714D02*
X101385714Y-101306476D01*
X101385714Y-101116000D01*
X101433333Y-101020761D01*
X101480952Y-100973142D01*
X101576190Y-100925523D01*
X101861904Y-100925523D01*
X101957142Y-100973142D01*
X102004761Y-101020761D01*
X102052380Y-101116000D01*
X102052380Y-101306476D01*
X102004761Y-101401714D01*
X104497142Y-103076666D02*
X104544761Y-103124285D01*
X104592380Y-103267142D01*
X104592380Y-103362380D01*
X104544761Y-103505238D01*
X104449523Y-103600476D01*
X104354285Y-103648095D01*
X104163809Y-103695714D01*
X104020952Y-103695714D01*
X103830476Y-103648095D01*
X103735238Y-103600476D01*
X103640000Y-103505238D01*
X103592380Y-103362380D01*
X103592380Y-103267142D01*
X103640000Y-103124285D01*
X103687619Y-103076666D01*
X103925714Y-102219523D02*
X104592380Y-102219523D01*
X103544761Y-102457619D02*
X104259047Y-102695714D01*
X104259047Y-102076666D01*
X263608094Y-93186380D02*
X263608094Y-92186380D01*
X263846189Y-92186380D01*
X263989046Y-92234000D01*
X264084284Y-92329238D01*
X264131903Y-92424476D01*
X264179522Y-92614952D01*
X264179522Y-92757809D01*
X264131903Y-92948285D01*
X264084284Y-93043523D01*
X263989046Y-93138761D01*
X263846189Y-93186380D01*
X263608094Y-93186380D01*
X263521903Y-90716380D02*
X263521903Y-89716380D01*
X263759999Y-89716380D01*
X263902856Y-89764000D01*
X263998094Y-89859238D01*
X264045713Y-89954476D01*
X264093332Y-90144952D01*
X264093332Y-90287809D01*
X264045713Y-90478285D01*
X263998094Y-90573523D01*
X263902856Y-90668761D01*
X263759999Y-90716380D01*
X263521903Y-90716380D01*
X265045713Y-90716380D02*
X264474284Y-90716380D01*
X264759999Y-90716380D02*
X264759999Y-89716380D01*
X264664760Y-89859238D01*
X264569522Y-89954476D01*
X264474284Y-90002095D01*
X258528094Y-88816380D02*
X258528094Y-87816380D01*
X259099522Y-88816380D02*
X258670951Y-88244952D01*
X259099522Y-87816380D02*
X258528094Y-88387809D01*
X263608094Y-81261380D02*
X263608094Y-80261380D01*
X263846189Y-80261380D01*
X263989046Y-80309000D01*
X264084284Y-80404238D01*
X264131903Y-80499476D01*
X264179522Y-80689952D01*
X264179522Y-80832809D01*
X264131903Y-81023285D01*
X264084284Y-81118523D01*
X263989046Y-81213761D01*
X263846189Y-81261380D01*
X263608094Y-81261380D01*
X268688094Y-85631380D02*
X268688094Y-84631380D01*
X269259522Y-85631380D02*
X268830951Y-85059952D01*
X269259522Y-84631380D02*
X268688094Y-85202809D01*
X262741903Y-83731380D02*
X262741903Y-82731380D01*
X262979999Y-82731380D01*
X263122856Y-82779000D01*
X263218094Y-82874238D01*
X263265713Y-82969476D01*
X263313332Y-83159952D01*
X263313332Y-83302809D01*
X263265713Y-83493285D01*
X263218094Y-83588523D01*
X263122856Y-83683761D01*
X262979999Y-83731380D01*
X262741903Y-83731380D01*
X263694284Y-82826619D02*
X263741903Y-82779000D01*
X263837141Y-82731380D01*
X264075237Y-82731380D01*
X264170475Y-82779000D01*
X264218094Y-82826619D01*
X264265713Y-82921857D01*
X264265713Y-83017095D01*
X264218094Y-83159952D01*
X263646665Y-83731380D01*
X264265713Y-83731380D01*
X263608094Y-79216380D02*
X263608094Y-78216380D01*
X263846189Y-78216380D01*
X263989046Y-78264000D01*
X264084284Y-78359238D01*
X264131903Y-78454476D01*
X264179522Y-78644952D01*
X264179522Y-78787809D01*
X264131903Y-78978285D01*
X264084284Y-79073523D01*
X263989046Y-79168761D01*
X263846189Y-79216380D01*
X263608094Y-79216380D01*
X263521903Y-76746380D02*
X263521903Y-75746380D01*
X263759999Y-75746380D01*
X263902856Y-75794000D01*
X263998094Y-75889238D01*
X264045713Y-75984476D01*
X264093332Y-76174952D01*
X264093332Y-76317809D01*
X264045713Y-76508285D01*
X263998094Y-76603523D01*
X263902856Y-76698761D01*
X263759999Y-76746380D01*
X263521903Y-76746380D01*
X264426665Y-75746380D02*
X265045713Y-75746380D01*
X264712379Y-76127333D01*
X264855237Y-76127333D01*
X264950475Y-76174952D01*
X264998094Y-76222571D01*
X265045713Y-76317809D01*
X265045713Y-76555904D01*
X264998094Y-76651142D01*
X264950475Y-76698761D01*
X264855237Y-76746380D01*
X264569522Y-76746380D01*
X264474284Y-76698761D01*
X264426665Y-76651142D01*
X258528094Y-74846380D02*
X258528094Y-73846380D01*
X259099522Y-74846380D02*
X258670951Y-74274952D01*
X259099522Y-73846380D02*
X258528094Y-74417809D01*
X263608094Y-67291380D02*
X263608094Y-66291380D01*
X263846189Y-66291380D01*
X263989046Y-66339000D01*
X264084284Y-66434238D01*
X264131903Y-66529476D01*
X264179522Y-66719952D01*
X264179522Y-66862809D01*
X264131903Y-67053285D01*
X264084284Y-67148523D01*
X263989046Y-67243761D01*
X263846189Y-67291380D01*
X263608094Y-67291380D01*
X268688094Y-71661380D02*
X268688094Y-70661380D01*
X269259522Y-71661380D02*
X268830951Y-71089952D01*
X269259522Y-70661380D02*
X268688094Y-71232809D01*
X262741903Y-69761380D02*
X262741903Y-68761380D01*
X262979999Y-68761380D01*
X263122856Y-68809000D01*
X263218094Y-68904238D01*
X263265713Y-68999476D01*
X263313332Y-69189952D01*
X263313332Y-69332809D01*
X263265713Y-69523285D01*
X263218094Y-69618523D01*
X263122856Y-69713761D01*
X262979999Y-69761380D01*
X262741903Y-69761380D01*
X264170475Y-69094714D02*
X264170475Y-69761380D01*
X263932379Y-68713761D02*
X263694284Y-69428047D01*
X264313332Y-69428047D01*
X75720380Y-116490714D02*
X75720380Y-117062142D01*
X75720380Y-116776428D02*
X74720380Y-116776428D01*
X74863238Y-116871666D01*
X74958476Y-116966904D01*
X75006095Y-117062142D01*
X75720380Y-116062142D02*
X74720380Y-116062142D01*
X75434666Y-115728809D01*
X74720380Y-115395476D01*
X75720380Y-115395476D01*
X73350380Y-116371666D02*
X72874190Y-116705000D01*
X73350380Y-116943095D02*
X72350380Y-116943095D01*
X72350380Y-116562142D01*
X72398000Y-116466904D01*
X72445619Y-116419285D01*
X72540857Y-116371666D01*
X72683714Y-116371666D01*
X72778952Y-116419285D01*
X72826571Y-116466904D01*
X72874190Y-116562142D01*
X72874190Y-116943095D01*
X73350380Y-115419285D02*
X73350380Y-115990714D01*
X73350380Y-115705000D02*
X72350380Y-115705000D01*
X72493238Y-115800238D01*
X72588476Y-115895476D01*
X72636095Y-115990714D01*
X60201380Y-103655714D02*
X60201380Y-103846190D01*
X60249000Y-103941428D01*
X60296619Y-103989047D01*
X60439476Y-104084285D01*
X60629952Y-104131904D01*
X61010904Y-104131904D01*
X61106142Y-104084285D01*
X61153761Y-104036666D01*
X61201380Y-103941428D01*
X61201380Y-103750952D01*
X61153761Y-103655714D01*
X61106142Y-103608095D01*
X61010904Y-103560476D01*
X60772809Y-103560476D01*
X60677571Y-103608095D01*
X60629952Y-103655714D01*
X60582333Y-103750952D01*
X60582333Y-103941428D01*
X60629952Y-104036666D01*
X60677571Y-104084285D01*
X60772809Y-104131904D01*
X60629952Y-102989047D02*
X60582333Y-103084285D01*
X60534714Y-103131904D01*
X60439476Y-103179523D01*
X60391857Y-103179523D01*
X60296619Y-103131904D01*
X60249000Y-103084285D01*
X60201380Y-102989047D01*
X60201380Y-102798571D01*
X60249000Y-102703333D01*
X60296619Y-102655714D01*
X60391857Y-102608095D01*
X60439476Y-102608095D01*
X60534714Y-102655714D01*
X60582333Y-102703333D01*
X60629952Y-102798571D01*
X60629952Y-102989047D01*
X60677571Y-103084285D01*
X60725190Y-103131904D01*
X60820428Y-103179523D01*
X61010904Y-103179523D01*
X61106142Y-103131904D01*
X61153761Y-103084285D01*
X61201380Y-102989047D01*
X61201380Y-102798571D01*
X61153761Y-102703333D01*
X61106142Y-102655714D01*
X61010904Y-102608095D01*
X60820428Y-102608095D01*
X60725190Y-102655714D01*
X60677571Y-102703333D01*
X60629952Y-102798571D01*
X61201380Y-102179523D02*
X60201380Y-102179523D01*
X61201380Y-101608095D02*
X60629952Y-102036666D01*
X60201380Y-101608095D02*
X60772809Y-102179523D01*
X63571380Y-103036666D02*
X63095190Y-103370000D01*
X63571380Y-103608095D02*
X62571380Y-103608095D01*
X62571380Y-103227142D01*
X62619000Y-103131904D01*
X62666619Y-103084285D01*
X62761857Y-103036666D01*
X62904714Y-103036666D01*
X62999952Y-103084285D01*
X63047571Y-103131904D01*
X63095190Y-103227142D01*
X63095190Y-103608095D01*
X62666619Y-102655714D02*
X62619000Y-102608095D01*
X62571380Y-102512857D01*
X62571380Y-102274761D01*
X62619000Y-102179523D01*
X62666619Y-102131904D01*
X62761857Y-102084285D01*
X62857095Y-102084285D01*
X62999952Y-102131904D01*
X63571380Y-102703333D01*
X63571380Y-102084285D01*
X78287619Y-104131904D02*
X78240000Y-104084285D01*
X78192380Y-103989047D01*
X78192380Y-103750952D01*
X78240000Y-103655714D01*
X78287619Y-103608095D01*
X78382857Y-103560476D01*
X78478095Y-103560476D01*
X78620952Y-103608095D01*
X79192380Y-104179523D01*
X79192380Y-103560476D01*
X79192380Y-103131904D02*
X78192380Y-103131904D01*
X79192380Y-102560476D02*
X78620952Y-102989047D01*
X78192380Y-102560476D02*
X78763809Y-103131904D01*
X78192380Y-102227142D02*
X78192380Y-101560476D01*
X79192380Y-101989047D01*
X81732380Y-103036666D02*
X81256190Y-103370000D01*
X81732380Y-103608095D02*
X80732380Y-103608095D01*
X80732380Y-103227142D01*
X80780000Y-103131904D01*
X80827619Y-103084285D01*
X80922857Y-103036666D01*
X81065714Y-103036666D01*
X81160952Y-103084285D01*
X81208571Y-103131904D01*
X81256190Y-103227142D01*
X81256190Y-103608095D01*
X80732380Y-102703333D02*
X80732380Y-102084285D01*
X81113333Y-102417619D01*
X81113333Y-102274761D01*
X81160952Y-102179523D01*
X81208571Y-102131904D01*
X81303809Y-102084285D01*
X81541904Y-102084285D01*
X81637142Y-102131904D01*
X81684761Y-102179523D01*
X81732380Y-102274761D01*
X81732380Y-102560476D01*
X81684761Y-102655714D01*
X81637142Y-102703333D01*
X55019380Y-92606666D02*
X55019380Y-93178095D01*
X55019380Y-92892380D02*
X54019380Y-92892380D01*
X54162238Y-92987619D01*
X54257476Y-93082857D01*
X54305095Y-93178095D01*
X54019380Y-91987619D02*
X54019380Y-91892380D01*
X54067000Y-91797142D01*
X54114619Y-91749523D01*
X54209857Y-91701904D01*
X54400333Y-91654285D01*
X54638428Y-91654285D01*
X54828904Y-91701904D01*
X54924142Y-91749523D01*
X54971761Y-91797142D01*
X55019380Y-91892380D01*
X55019380Y-91987619D01*
X54971761Y-92082857D01*
X54924142Y-92130476D01*
X54828904Y-92178095D01*
X54638428Y-92225714D01*
X54400333Y-92225714D01*
X54209857Y-92178095D01*
X54114619Y-92130476D01*
X54067000Y-92082857D01*
X54019380Y-91987619D01*
X54019380Y-91035238D02*
X54019380Y-90940000D01*
X54067000Y-90844761D01*
X54114619Y-90797142D01*
X54209857Y-90749523D01*
X54400333Y-90701904D01*
X54638428Y-90701904D01*
X54828904Y-90749523D01*
X54924142Y-90797142D01*
X54971761Y-90844761D01*
X55019380Y-90940000D01*
X55019380Y-91035238D01*
X54971761Y-91130476D01*
X54924142Y-91178095D01*
X54828904Y-91225714D01*
X54638428Y-91273333D01*
X54400333Y-91273333D01*
X54209857Y-91225714D01*
X54114619Y-91178095D01*
X54067000Y-91130476D01*
X54019380Y-91035238D01*
X55019380Y-90273333D02*
X54019380Y-90273333D01*
X55019380Y-89701904D02*
X54447952Y-90130476D01*
X54019380Y-89701904D02*
X54590809Y-90273333D01*
X52649380Y-91606666D02*
X52173190Y-91940000D01*
X52649380Y-92178095D02*
X51649380Y-92178095D01*
X51649380Y-91797142D01*
X51697000Y-91701904D01*
X51744619Y-91654285D01*
X51839857Y-91606666D01*
X51982714Y-91606666D01*
X52077952Y-91654285D01*
X52125571Y-91701904D01*
X52173190Y-91797142D01*
X52173190Y-92178095D01*
X51982714Y-90749523D02*
X52649380Y-90749523D01*
X51601761Y-90987619D02*
X52316047Y-91225714D01*
X52316047Y-90606666D01*
X93935714Y-104131904D02*
X94602380Y-104131904D01*
X93554761Y-104370000D02*
X94269047Y-104608095D01*
X94269047Y-103989047D01*
X93602380Y-103703333D02*
X93602380Y-103036666D01*
X94602380Y-103465238D01*
X93602380Y-102465238D02*
X93602380Y-102370000D01*
X93650000Y-102274761D01*
X93697619Y-102227142D01*
X93792857Y-102179523D01*
X93983333Y-102131904D01*
X94221428Y-102131904D01*
X94411904Y-102179523D01*
X94507142Y-102227142D01*
X94554761Y-102274761D01*
X94602380Y-102370000D01*
X94602380Y-102465238D01*
X94554761Y-102560476D01*
X94507142Y-102608095D01*
X94411904Y-102655714D01*
X94221428Y-102703333D01*
X93983333Y-102703333D01*
X93792857Y-102655714D01*
X93697619Y-102608095D01*
X93650000Y-102560476D01*
X93602380Y-102465238D01*
X94602380Y-101703333D02*
X93602380Y-101703333D01*
X94602380Y-101131904D02*
X94030952Y-101560476D01*
X93602380Y-101131904D02*
X94173809Y-101703333D01*
X96972380Y-103036666D02*
X96496190Y-103370000D01*
X96972380Y-103608095D02*
X95972380Y-103608095D01*
X95972380Y-103227142D01*
X96020000Y-103131904D01*
X96067619Y-103084285D01*
X96162857Y-103036666D01*
X96305714Y-103036666D01*
X96400952Y-103084285D01*
X96448571Y-103131904D01*
X96496190Y-103227142D01*
X96496190Y-103608095D01*
X95972380Y-102131904D02*
X95972380Y-102608095D01*
X96448571Y-102655714D01*
X96400952Y-102608095D01*
X96353333Y-102512857D01*
X96353333Y-102274761D01*
X96400952Y-102179523D01*
X96448571Y-102131904D01*
X96543809Y-102084285D01*
X96781904Y-102084285D01*
X96877142Y-102131904D01*
X96924761Y-102179523D01*
X96972380Y-102274761D01*
X96972380Y-102512857D01*
X96924761Y-102608095D01*
X96877142Y-102655714D01*
X56502380Y-64190476D02*
X56502380Y-64761904D01*
X56502380Y-64476190D02*
X55502380Y-64476190D01*
X55645238Y-64571428D01*
X55740476Y-64666666D01*
X55788095Y-64761904D01*
X55502380Y-63571428D02*
X55502380Y-63476190D01*
X55550000Y-63380952D01*
X55597619Y-63333333D01*
X55692857Y-63285714D01*
X55883333Y-63238095D01*
X56121428Y-63238095D01*
X56311904Y-63285714D01*
X56407142Y-63333333D01*
X56454761Y-63380952D01*
X56502380Y-63476190D01*
X56502380Y-63571428D01*
X56454761Y-63666666D01*
X56407142Y-63714285D01*
X56311904Y-63761904D01*
X56121428Y-63809523D01*
X55883333Y-63809523D01*
X55692857Y-63761904D01*
X55597619Y-63714285D01*
X55550000Y-63666666D01*
X55502380Y-63571428D01*
X56502380Y-62809523D02*
X55502380Y-62809523D01*
X56502380Y-62238095D02*
X55930952Y-62666666D01*
X55502380Y-62238095D02*
X56073809Y-62809523D01*
X58872380Y-63666666D02*
X58396190Y-64000000D01*
X58872380Y-64238095D02*
X57872380Y-64238095D01*
X57872380Y-63857142D01*
X57920000Y-63761904D01*
X57967619Y-63714285D01*
X58062857Y-63666666D01*
X58205714Y-63666666D01*
X58300952Y-63714285D01*
X58348571Y-63761904D01*
X58396190Y-63857142D01*
X58396190Y-64238095D01*
X57872380Y-62809523D02*
X57872380Y-63000000D01*
X57920000Y-63095238D01*
X57967619Y-63142857D01*
X58110476Y-63238095D01*
X58300952Y-63285714D01*
X58681904Y-63285714D01*
X58777142Y-63238095D01*
X58824761Y-63190476D01*
X58872380Y-63095238D01*
X58872380Y-62904761D01*
X58824761Y-62809523D01*
X58777142Y-62761904D01*
X58681904Y-62714285D01*
X58443809Y-62714285D01*
X58348571Y-62761904D01*
X58300952Y-62809523D01*
X58253333Y-62904761D01*
X58253333Y-63095238D01*
X58300952Y-63190476D01*
X58348571Y-63238095D01*
X58443809Y-63285714D01*
X65222380Y-64666666D02*
X65222380Y-65238095D01*
X65222380Y-64952380D02*
X64222380Y-64952380D01*
X64365238Y-65047619D01*
X64460476Y-65142857D01*
X64508095Y-65238095D01*
X64222380Y-64047619D02*
X64222380Y-63952380D01*
X64270000Y-63857142D01*
X64317619Y-63809523D01*
X64412857Y-63761904D01*
X64603333Y-63714285D01*
X64841428Y-63714285D01*
X65031904Y-63761904D01*
X65127142Y-63809523D01*
X65174761Y-63857142D01*
X65222380Y-63952380D01*
X65222380Y-64047619D01*
X65174761Y-64142857D01*
X65127142Y-64190476D01*
X65031904Y-64238095D01*
X64841428Y-64285714D01*
X64603333Y-64285714D01*
X64412857Y-64238095D01*
X64317619Y-64190476D01*
X64270000Y-64142857D01*
X64222380Y-64047619D01*
X64222380Y-63095238D02*
X64222380Y-63000000D01*
X64270000Y-62904761D01*
X64317619Y-62857142D01*
X64412857Y-62809523D01*
X64603333Y-62761904D01*
X64841428Y-62761904D01*
X65031904Y-62809523D01*
X65127142Y-62857142D01*
X65174761Y-62904761D01*
X65222380Y-63000000D01*
X65222380Y-63095238D01*
X65174761Y-63190476D01*
X65127142Y-63238095D01*
X65031904Y-63285714D01*
X64841428Y-63333333D01*
X64603333Y-63333333D01*
X64412857Y-63285714D01*
X64317619Y-63238095D01*
X64270000Y-63190476D01*
X64222380Y-63095238D01*
X65222380Y-62333333D02*
X64222380Y-62333333D01*
X65222380Y-61761904D02*
X64650952Y-62190476D01*
X64222380Y-61761904D02*
X64793809Y-62333333D01*
X67762380Y-63666666D02*
X67286190Y-64000000D01*
X67762380Y-64238095D02*
X66762380Y-64238095D01*
X66762380Y-63857142D01*
X66810000Y-63761904D01*
X66857619Y-63714285D01*
X66952857Y-63666666D01*
X67095714Y-63666666D01*
X67190952Y-63714285D01*
X67238571Y-63761904D01*
X67286190Y-63857142D01*
X67286190Y-64238095D01*
X66762380Y-63333333D02*
X66762380Y-62666666D01*
X67762380Y-63095238D01*
X90125714Y-83811904D02*
X90792380Y-83811904D01*
X89744761Y-84050000D02*
X90459047Y-84288095D01*
X90459047Y-83669047D01*
X89792380Y-83383333D02*
X89792380Y-82716666D01*
X90792380Y-83145238D01*
X89792380Y-82145238D02*
X89792380Y-82050000D01*
X89840000Y-81954761D01*
X89887619Y-81907142D01*
X89982857Y-81859523D01*
X90173333Y-81811904D01*
X90411428Y-81811904D01*
X90601904Y-81859523D01*
X90697142Y-81907142D01*
X90744761Y-81954761D01*
X90792380Y-82050000D01*
X90792380Y-82145238D01*
X90744761Y-82240476D01*
X90697142Y-82288095D01*
X90601904Y-82335714D01*
X90411428Y-82383333D01*
X90173333Y-82383333D01*
X89982857Y-82335714D01*
X89887619Y-82288095D01*
X89840000Y-82240476D01*
X89792380Y-82145238D01*
X90792380Y-81383333D02*
X89792380Y-81383333D01*
X90792380Y-80811904D02*
X90220952Y-81240476D01*
X89792380Y-80811904D02*
X90363809Y-81383333D01*
X93162380Y-82716666D02*
X92686190Y-83050000D01*
X93162380Y-83288095D02*
X92162380Y-83288095D01*
X92162380Y-82907142D01*
X92210000Y-82811904D01*
X92257619Y-82764285D01*
X92352857Y-82716666D01*
X92495714Y-82716666D01*
X92590952Y-82764285D01*
X92638571Y-82811904D01*
X92686190Y-82907142D01*
X92686190Y-83288095D01*
X93162380Y-82240476D02*
X93162380Y-82050000D01*
X93114761Y-81954761D01*
X93067142Y-81907142D01*
X92924285Y-81811904D01*
X92733809Y-81764285D01*
X92352857Y-81764285D01*
X92257619Y-81811904D01*
X92210000Y-81859523D01*
X92162380Y-81954761D01*
X92162380Y-82145238D01*
X92210000Y-82240476D01*
X92257619Y-82288095D01*
X92352857Y-82335714D01*
X92590952Y-82335714D01*
X92686190Y-82288095D01*
X92733809Y-82240476D01*
X92781428Y-82145238D01*
X92781428Y-81954761D01*
X92733809Y-81859523D01*
X92686190Y-81811904D01*
X92590952Y-81764285D01*
X93935714Y-64761904D02*
X94602380Y-64761904D01*
X93554761Y-65000000D02*
X94269047Y-65238095D01*
X94269047Y-64619047D01*
X93602380Y-64333333D02*
X93602380Y-63666666D01*
X94602380Y-64095238D01*
X93602380Y-63095238D02*
X93602380Y-63000000D01*
X93650000Y-62904761D01*
X93697619Y-62857142D01*
X93792857Y-62809523D01*
X93983333Y-62761904D01*
X94221428Y-62761904D01*
X94411904Y-62809523D01*
X94507142Y-62857142D01*
X94554761Y-62904761D01*
X94602380Y-63000000D01*
X94602380Y-63095238D01*
X94554761Y-63190476D01*
X94507142Y-63238095D01*
X94411904Y-63285714D01*
X94221428Y-63333333D01*
X93983333Y-63333333D01*
X93792857Y-63285714D01*
X93697619Y-63238095D01*
X93650000Y-63190476D01*
X93602380Y-63095238D01*
X94602380Y-62333333D02*
X93602380Y-62333333D01*
X94602380Y-61761904D02*
X94030952Y-62190476D01*
X93602380Y-61761904D02*
X94173809Y-62333333D01*
X96972380Y-64142857D02*
X96496190Y-64476190D01*
X96972380Y-64714285D02*
X95972380Y-64714285D01*
X95972380Y-64333333D01*
X96020000Y-64238095D01*
X96067619Y-64190476D01*
X96162857Y-64142857D01*
X96305714Y-64142857D01*
X96400952Y-64190476D01*
X96448571Y-64238095D01*
X96496190Y-64333333D01*
X96496190Y-64714285D01*
X96972380Y-63190476D02*
X96972380Y-63761904D01*
X96972380Y-63476190D02*
X95972380Y-63476190D01*
X96115238Y-63571428D01*
X96210476Y-63666666D01*
X96258095Y-63761904D01*
X95972380Y-62571428D02*
X95972380Y-62476190D01*
X96020000Y-62380952D01*
X96067619Y-62333333D01*
X96162857Y-62285714D01*
X96353333Y-62238095D01*
X96591428Y-62238095D01*
X96781904Y-62285714D01*
X96877142Y-62333333D01*
X96924761Y-62380952D01*
X96972380Y-62476190D01*
X96972380Y-62571428D01*
X96924761Y-62666666D01*
X96877142Y-62714285D01*
X96781904Y-62761904D01*
X96591428Y-62809523D01*
X96353333Y-62809523D01*
X96162857Y-62761904D01*
X96067619Y-62714285D01*
X96020000Y-62666666D01*
X95972380Y-62571428D01*
X124637952Y-82319619D02*
X124590333Y-82414857D01*
X124542714Y-82462476D01*
X124447476Y-82510095D01*
X124399857Y-82510095D01*
X124304619Y-82462476D01*
X124257000Y-82414857D01*
X124209380Y-82319619D01*
X124209380Y-82129142D01*
X124257000Y-82033904D01*
X124304619Y-81986285D01*
X124399857Y-81938666D01*
X124447476Y-81938666D01*
X124542714Y-81986285D01*
X124590333Y-82033904D01*
X124637952Y-82129142D01*
X124637952Y-82319619D01*
X124685571Y-82414857D01*
X124733190Y-82462476D01*
X124828428Y-82510095D01*
X125018904Y-82510095D01*
X125114142Y-82462476D01*
X125161761Y-82414857D01*
X125209380Y-82319619D01*
X125209380Y-82129142D01*
X125161761Y-82033904D01*
X125114142Y-81986285D01*
X125018904Y-81938666D01*
X124828428Y-81938666D01*
X124733190Y-81986285D01*
X124685571Y-82033904D01*
X124637952Y-82129142D01*
X124304619Y-81557714D02*
X124257000Y-81510095D01*
X124209380Y-81414857D01*
X124209380Y-81176761D01*
X124257000Y-81081523D01*
X124304619Y-81033904D01*
X124399857Y-80986285D01*
X124495095Y-80986285D01*
X124637952Y-81033904D01*
X125209380Y-81605333D01*
X125209380Y-80986285D01*
X124209380Y-80367238D02*
X124209380Y-80272000D01*
X124257000Y-80176761D01*
X124304619Y-80129142D01*
X124399857Y-80081523D01*
X124590333Y-80033904D01*
X124828428Y-80033904D01*
X125018904Y-80081523D01*
X125114142Y-80129142D01*
X125161761Y-80176761D01*
X125209380Y-80272000D01*
X125209380Y-80367238D01*
X125161761Y-80462476D01*
X125114142Y-80510095D01*
X125018904Y-80557714D01*
X124828428Y-80605333D01*
X124590333Y-80605333D01*
X124399857Y-80557714D01*
X124304619Y-80510095D01*
X124257000Y-80462476D01*
X124209380Y-80367238D01*
X125209380Y-79033904D02*
X124733190Y-79367238D01*
X125209380Y-79605333D02*
X124209380Y-79605333D01*
X124209380Y-79224380D01*
X124257000Y-79129142D01*
X124304619Y-79081523D01*
X124399857Y-79033904D01*
X124542714Y-79033904D01*
X124637952Y-79081523D01*
X124685571Y-79129142D01*
X124733190Y-79224380D01*
X124733190Y-79605333D01*
X127579380Y-81414857D02*
X127103190Y-81748190D01*
X127579380Y-81986285D02*
X126579380Y-81986285D01*
X126579380Y-81605333D01*
X126627000Y-81510095D01*
X126674619Y-81462476D01*
X126769857Y-81414857D01*
X126912714Y-81414857D01*
X127007952Y-81462476D01*
X127055571Y-81510095D01*
X127103190Y-81605333D01*
X127103190Y-81986285D01*
X127579380Y-80462476D02*
X127579380Y-81033904D01*
X127579380Y-80748190D02*
X126579380Y-80748190D01*
X126722238Y-80843428D01*
X126817476Y-80938666D01*
X126865095Y-81033904D01*
X126912714Y-79605333D02*
X127579380Y-79605333D01*
X126531761Y-79843428D02*
X127246047Y-80081523D01*
X127246047Y-79462476D01*
X137061380Y-86002666D02*
X137061380Y-86574095D01*
X137061380Y-86288380D02*
X136061380Y-86288380D01*
X136204238Y-86383619D01*
X136299476Y-86478857D01*
X136347095Y-86574095D01*
X136061380Y-85383619D02*
X136061380Y-85288380D01*
X136109000Y-85193142D01*
X136156619Y-85145523D01*
X136251857Y-85097904D01*
X136442333Y-85050285D01*
X136680428Y-85050285D01*
X136870904Y-85097904D01*
X136966142Y-85145523D01*
X137013761Y-85193142D01*
X137061380Y-85288380D01*
X137061380Y-85383619D01*
X137013761Y-85478857D01*
X136966142Y-85526476D01*
X136870904Y-85574095D01*
X136680428Y-85621714D01*
X136442333Y-85621714D01*
X136251857Y-85574095D01*
X136156619Y-85526476D01*
X136109000Y-85478857D01*
X136061380Y-85383619D01*
X136061380Y-84431238D02*
X136061380Y-84336000D01*
X136109000Y-84240761D01*
X136156619Y-84193142D01*
X136251857Y-84145523D01*
X136442333Y-84097904D01*
X136680428Y-84097904D01*
X136870904Y-84145523D01*
X136966142Y-84193142D01*
X137013761Y-84240761D01*
X137061380Y-84336000D01*
X137061380Y-84431238D01*
X137013761Y-84526476D01*
X136966142Y-84574095D01*
X136870904Y-84621714D01*
X136680428Y-84669333D01*
X136442333Y-84669333D01*
X136251857Y-84621714D01*
X136156619Y-84574095D01*
X136109000Y-84526476D01*
X136061380Y-84431238D01*
X137061380Y-83669333D02*
X136061380Y-83669333D01*
X137061380Y-83097904D02*
X136489952Y-83526476D01*
X136061380Y-83097904D02*
X136632809Y-83669333D01*
X134691380Y-85478857D02*
X134215190Y-85812190D01*
X134691380Y-86050285D02*
X133691380Y-86050285D01*
X133691380Y-85669333D01*
X133739000Y-85574095D01*
X133786619Y-85526476D01*
X133881857Y-85478857D01*
X134024714Y-85478857D01*
X134119952Y-85526476D01*
X134167571Y-85574095D01*
X134215190Y-85669333D01*
X134215190Y-86050285D01*
X134691380Y-84526476D02*
X134691380Y-85097904D01*
X134691380Y-84812190D02*
X133691380Y-84812190D01*
X133834238Y-84907428D01*
X133929476Y-85002666D01*
X133977095Y-85097904D01*
X133691380Y-83621714D02*
X133691380Y-84097904D01*
X134167571Y-84145523D01*
X134119952Y-84097904D01*
X134072333Y-84002666D01*
X134072333Y-83764571D01*
X134119952Y-83669333D01*
X134167571Y-83621714D01*
X134262809Y-83574095D01*
X134500904Y-83574095D01*
X134596142Y-83621714D01*
X134643761Y-83669333D01*
X134691380Y-83764571D01*
X134691380Y-84002666D01*
X134643761Y-84097904D01*
X134596142Y-84145523D01*
X266093380Y-105211476D02*
X266093380Y-105782904D01*
X266093380Y-105497190D02*
X265093380Y-105497190D01*
X265236238Y-105592428D01*
X265331476Y-105687666D01*
X265379095Y-105782904D01*
X265093380Y-104592428D02*
X265093380Y-104497190D01*
X265141000Y-104401952D01*
X265188619Y-104354333D01*
X265283857Y-104306714D01*
X265474333Y-104259095D01*
X265712428Y-104259095D01*
X265902904Y-104306714D01*
X265998142Y-104354333D01*
X266045761Y-104401952D01*
X266093380Y-104497190D01*
X266093380Y-104592428D01*
X266045761Y-104687666D01*
X265998142Y-104735285D01*
X265902904Y-104782904D01*
X265712428Y-104830523D01*
X265474333Y-104830523D01*
X265283857Y-104782904D01*
X265188619Y-104735285D01*
X265141000Y-104687666D01*
X265093380Y-104592428D01*
X266093380Y-103830523D02*
X265093380Y-103830523D01*
X266093380Y-103259095D02*
X265521952Y-103687666D01*
X265093380Y-103259095D02*
X265664809Y-103830523D01*
X263723380Y-105163857D02*
X263247190Y-105497190D01*
X263723380Y-105735285D02*
X262723380Y-105735285D01*
X262723380Y-105354333D01*
X262771000Y-105259095D01*
X262818619Y-105211476D01*
X262913857Y-105163857D01*
X263056714Y-105163857D01*
X263151952Y-105211476D01*
X263199571Y-105259095D01*
X263247190Y-105354333D01*
X263247190Y-105735285D01*
X263723380Y-104211476D02*
X263723380Y-104782904D01*
X263723380Y-104497190D02*
X262723380Y-104497190D01*
X262866238Y-104592428D01*
X262961476Y-104687666D01*
X263009095Y-104782904D01*
X262723380Y-103354333D02*
X262723380Y-103544809D01*
X262771000Y-103640047D01*
X262818619Y-103687666D01*
X262961476Y-103782904D01*
X263151952Y-103830523D01*
X263532904Y-103830523D01*
X263628142Y-103782904D01*
X263675761Y-103735285D01*
X263723380Y-103640047D01*
X263723380Y-103449571D01*
X263675761Y-103354333D01*
X263628142Y-103306714D01*
X263532904Y-103259095D01*
X263294809Y-103259095D01*
X263199571Y-103306714D01*
X263151952Y-103354333D01*
X263104333Y-103449571D01*
X263104333Y-103640047D01*
X263151952Y-103735285D01*
X263199571Y-103782904D01*
X263294809Y-103830523D01*
X104762380Y-64666666D02*
X104762380Y-65238095D01*
X104762380Y-64952380D02*
X103762380Y-64952380D01*
X103905238Y-65047619D01*
X104000476Y-65142857D01*
X104048095Y-65238095D01*
X103762380Y-64047619D02*
X103762380Y-63952380D01*
X103810000Y-63857142D01*
X103857619Y-63809523D01*
X103952857Y-63761904D01*
X104143333Y-63714285D01*
X104381428Y-63714285D01*
X104571904Y-63761904D01*
X104667142Y-63809523D01*
X104714761Y-63857142D01*
X104762380Y-63952380D01*
X104762380Y-64047619D01*
X104714761Y-64142857D01*
X104667142Y-64190476D01*
X104571904Y-64238095D01*
X104381428Y-64285714D01*
X104143333Y-64285714D01*
X103952857Y-64238095D01*
X103857619Y-64190476D01*
X103810000Y-64142857D01*
X103762380Y-64047619D01*
X103762380Y-63095238D02*
X103762380Y-63000000D01*
X103810000Y-62904761D01*
X103857619Y-62857142D01*
X103952857Y-62809523D01*
X104143333Y-62761904D01*
X104381428Y-62761904D01*
X104571904Y-62809523D01*
X104667142Y-62857142D01*
X104714761Y-62904761D01*
X104762380Y-63000000D01*
X104762380Y-63095238D01*
X104714761Y-63190476D01*
X104667142Y-63238095D01*
X104571904Y-63285714D01*
X104381428Y-63333333D01*
X104143333Y-63333333D01*
X103952857Y-63285714D01*
X103857619Y-63238095D01*
X103810000Y-63190476D01*
X103762380Y-63095238D01*
X104762380Y-62333333D02*
X103762380Y-62333333D01*
X104762380Y-61761904D02*
X104190952Y-62190476D01*
X103762380Y-61761904D02*
X104333809Y-62333333D01*
X107132380Y-64142857D02*
X106656190Y-64476190D01*
X107132380Y-64714285D02*
X106132380Y-64714285D01*
X106132380Y-64333333D01*
X106180000Y-64238095D01*
X106227619Y-64190476D01*
X106322857Y-64142857D01*
X106465714Y-64142857D01*
X106560952Y-64190476D01*
X106608571Y-64238095D01*
X106656190Y-64333333D01*
X106656190Y-64714285D01*
X107132380Y-63190476D02*
X107132380Y-63761904D01*
X107132380Y-63476190D02*
X106132380Y-63476190D01*
X106275238Y-63571428D01*
X106370476Y-63666666D01*
X106418095Y-63761904D01*
X106132380Y-62857142D02*
X106132380Y-62190476D01*
X107132380Y-62619047D01*
X163112380Y-110529523D02*
X163112380Y-109910476D01*
X163493333Y-110243809D01*
X163493333Y-110100952D01*
X163540952Y-110005714D01*
X163588571Y-109958095D01*
X163683809Y-109910476D01*
X163921904Y-109910476D01*
X164017142Y-109958095D01*
X164064761Y-110005714D01*
X164112380Y-110100952D01*
X164112380Y-110386666D01*
X164064761Y-110481904D01*
X164017142Y-110529523D01*
X163112380Y-109577142D02*
X163112380Y-108958095D01*
X163493333Y-109291428D01*
X163493333Y-109148571D01*
X163540952Y-109053333D01*
X163588571Y-109005714D01*
X163683809Y-108958095D01*
X163921904Y-108958095D01*
X164017142Y-109005714D01*
X164064761Y-109053333D01*
X164112380Y-109148571D01*
X164112380Y-109434285D01*
X164064761Y-109529523D01*
X164017142Y-109577142D01*
X164112380Y-108529523D02*
X163112380Y-108529523D01*
X164112380Y-107958095D02*
X163540952Y-108386666D01*
X163112380Y-107958095D02*
X163683809Y-108529523D01*
X161742380Y-109862857D02*
X161266190Y-110196190D01*
X161742380Y-110434285D02*
X160742380Y-110434285D01*
X160742380Y-110053333D01*
X160790000Y-109958095D01*
X160837619Y-109910476D01*
X160932857Y-109862857D01*
X161075714Y-109862857D01*
X161170952Y-109910476D01*
X161218571Y-109958095D01*
X161266190Y-110053333D01*
X161266190Y-110434285D01*
X161742380Y-108910476D02*
X161742380Y-109481904D01*
X161742380Y-109196190D02*
X160742380Y-109196190D01*
X160885238Y-109291428D01*
X160980476Y-109386666D01*
X161028095Y-109481904D01*
X161170952Y-108339047D02*
X161123333Y-108434285D01*
X161075714Y-108481904D01*
X160980476Y-108529523D01*
X160932857Y-108529523D01*
X160837619Y-108481904D01*
X160790000Y-108434285D01*
X160742380Y-108339047D01*
X160742380Y-108148571D01*
X160790000Y-108053333D01*
X160837619Y-108005714D01*
X160932857Y-107958095D01*
X160980476Y-107958095D01*
X161075714Y-108005714D01*
X161123333Y-108053333D01*
X161170952Y-108148571D01*
X161170952Y-108339047D01*
X161218571Y-108434285D01*
X161266190Y-108481904D01*
X161361428Y-108529523D01*
X161551904Y-108529523D01*
X161647142Y-108481904D01*
X161694761Y-108434285D01*
X161742380Y-108339047D01*
X161742380Y-108148571D01*
X161694761Y-108053333D01*
X161647142Y-108005714D01*
X161551904Y-107958095D01*
X161361428Y-107958095D01*
X161266190Y-108005714D01*
X161218571Y-108053333D01*
X161170952Y-108148571D01*
X246240380Y-110037476D02*
X246240380Y-110608904D01*
X246240380Y-110323190D02*
X245240380Y-110323190D01*
X245383238Y-110418428D01*
X245478476Y-110513666D01*
X245526095Y-110608904D01*
X245240380Y-109418428D02*
X245240380Y-109323190D01*
X245288000Y-109227952D01*
X245335619Y-109180333D01*
X245430857Y-109132714D01*
X245621333Y-109085095D01*
X245859428Y-109085095D01*
X246049904Y-109132714D01*
X246145142Y-109180333D01*
X246192761Y-109227952D01*
X246240380Y-109323190D01*
X246240380Y-109418428D01*
X246192761Y-109513666D01*
X246145142Y-109561285D01*
X246049904Y-109608904D01*
X245859428Y-109656523D01*
X245621333Y-109656523D01*
X245430857Y-109608904D01*
X245335619Y-109561285D01*
X245288000Y-109513666D01*
X245240380Y-109418428D01*
X246240380Y-108656523D02*
X245240380Y-108656523D01*
X246240380Y-108085095D02*
X245668952Y-108513666D01*
X245240380Y-108085095D02*
X245811809Y-108656523D01*
X248610380Y-109989857D02*
X248134190Y-110323190D01*
X248610380Y-110561285D02*
X247610380Y-110561285D01*
X247610380Y-110180333D01*
X247658000Y-110085095D01*
X247705619Y-110037476D01*
X247800857Y-109989857D01*
X247943714Y-109989857D01*
X248038952Y-110037476D01*
X248086571Y-110085095D01*
X248134190Y-110180333D01*
X248134190Y-110561285D01*
X248610380Y-109037476D02*
X248610380Y-109608904D01*
X248610380Y-109323190D02*
X247610380Y-109323190D01*
X247753238Y-109418428D01*
X247848476Y-109513666D01*
X247896095Y-109608904D01*
X248610380Y-108561285D02*
X248610380Y-108370809D01*
X248562761Y-108275571D01*
X248515142Y-108227952D01*
X248372285Y-108132714D01*
X248181809Y-108085095D01*
X247800857Y-108085095D01*
X247705619Y-108132714D01*
X247658000Y-108180333D01*
X247610380Y-108275571D01*
X247610380Y-108466047D01*
X247658000Y-108561285D01*
X247705619Y-108608904D01*
X247800857Y-108656523D01*
X248038952Y-108656523D01*
X248134190Y-108608904D01*
X248181809Y-108561285D01*
X248229428Y-108466047D01*
X248229428Y-108275571D01*
X248181809Y-108180333D01*
X248134190Y-108132714D01*
X248038952Y-108085095D01*
X241720714Y-97269380D02*
X241149285Y-97269380D01*
X241435000Y-97269380D02*
X241435000Y-96269380D01*
X241339761Y-96412238D01*
X241244523Y-96507476D01*
X241149285Y-96555095D01*
X242149285Y-97269380D02*
X242149285Y-96269380D01*
X242720714Y-97269380D02*
X242292142Y-96697952D01*
X242720714Y-96269380D02*
X242149285Y-96840809D01*
X241292142Y-99639380D02*
X240958809Y-99163190D01*
X240720714Y-99639380D02*
X240720714Y-98639380D01*
X241101666Y-98639380D01*
X241196904Y-98687000D01*
X241244523Y-98734619D01*
X241292142Y-98829857D01*
X241292142Y-98972714D01*
X241244523Y-99067952D01*
X241196904Y-99115571D01*
X241101666Y-99163190D01*
X240720714Y-99163190D01*
X241673095Y-98734619D02*
X241720714Y-98687000D01*
X241815952Y-98639380D01*
X242054047Y-98639380D01*
X242149285Y-98687000D01*
X242196904Y-98734619D01*
X242244523Y-98829857D01*
X242244523Y-98925095D01*
X242196904Y-99067952D01*
X241625476Y-99639380D01*
X242244523Y-99639380D01*
X243196904Y-99639380D02*
X242625476Y-99639380D01*
X242911190Y-99639380D02*
X242911190Y-98639380D01*
X242815952Y-98782238D01*
X242720714Y-98877476D01*
X242625476Y-98925095D01*
X151614333Y-69751380D02*
X151042904Y-69751380D01*
X151328619Y-69751380D02*
X151328619Y-68751380D01*
X151233380Y-68894238D01*
X151138142Y-68989476D01*
X151042904Y-69037095D01*
X152233380Y-68751380D02*
X152328619Y-68751380D01*
X152423857Y-68799000D01*
X152471476Y-68846619D01*
X152519095Y-68941857D01*
X152566714Y-69132333D01*
X152566714Y-69370428D01*
X152519095Y-69560904D01*
X152471476Y-69656142D01*
X152423857Y-69703761D01*
X152328619Y-69751380D01*
X152233380Y-69751380D01*
X152138142Y-69703761D01*
X152090523Y-69656142D01*
X152042904Y-69560904D01*
X151995285Y-69370428D01*
X151995285Y-69132333D01*
X152042904Y-68941857D01*
X152090523Y-68846619D01*
X152138142Y-68799000D01*
X152233380Y-68751380D01*
X153185761Y-68751380D02*
X153281000Y-68751380D01*
X153376238Y-68799000D01*
X153423857Y-68846619D01*
X153471476Y-68941857D01*
X153519095Y-69132333D01*
X153519095Y-69370428D01*
X153471476Y-69560904D01*
X153423857Y-69656142D01*
X153376238Y-69703761D01*
X153281000Y-69751380D01*
X153185761Y-69751380D01*
X153090523Y-69703761D01*
X153042904Y-69656142D01*
X152995285Y-69560904D01*
X152947666Y-69370428D01*
X152947666Y-69132333D01*
X152995285Y-68941857D01*
X153042904Y-68846619D01*
X153090523Y-68799000D01*
X153185761Y-68751380D01*
X154519095Y-69751380D02*
X154185761Y-69275190D01*
X153947666Y-69751380D02*
X153947666Y-68751380D01*
X154328619Y-68751380D01*
X154423857Y-68799000D01*
X154471476Y-68846619D01*
X154519095Y-68941857D01*
X154519095Y-69084714D01*
X154471476Y-69179952D01*
X154423857Y-69227571D01*
X154328619Y-69275190D01*
X153947666Y-69275190D01*
X152138142Y-67381380D02*
X151804809Y-66905190D01*
X151566714Y-67381380D02*
X151566714Y-66381380D01*
X151947666Y-66381380D01*
X152042904Y-66429000D01*
X152090523Y-66476619D01*
X152138142Y-66571857D01*
X152138142Y-66714714D01*
X152090523Y-66809952D01*
X152042904Y-66857571D01*
X151947666Y-66905190D01*
X151566714Y-66905190D01*
X152519095Y-66476619D02*
X152566714Y-66429000D01*
X152661952Y-66381380D01*
X152900047Y-66381380D01*
X152995285Y-66429000D01*
X153042904Y-66476619D01*
X153090523Y-66571857D01*
X153090523Y-66667095D01*
X153042904Y-66809952D01*
X152471476Y-67381380D01*
X153090523Y-67381380D01*
X153471476Y-66476619D02*
X153519095Y-66429000D01*
X153614333Y-66381380D01*
X153852428Y-66381380D01*
X153947666Y-66429000D01*
X153995285Y-66476619D01*
X154042904Y-66571857D01*
X154042904Y-66667095D01*
X153995285Y-66809952D01*
X153423857Y-67381380D01*
X154042904Y-67381380D01*
X166981333Y-69751380D02*
X166409904Y-69751380D01*
X166695619Y-69751380D02*
X166695619Y-68751380D01*
X166600380Y-68894238D01*
X166505142Y-68989476D01*
X166409904Y-69037095D01*
X167600380Y-68751380D02*
X167695619Y-68751380D01*
X167790857Y-68799000D01*
X167838476Y-68846619D01*
X167886095Y-68941857D01*
X167933714Y-69132333D01*
X167933714Y-69370428D01*
X167886095Y-69560904D01*
X167838476Y-69656142D01*
X167790857Y-69703761D01*
X167695619Y-69751380D01*
X167600380Y-69751380D01*
X167505142Y-69703761D01*
X167457523Y-69656142D01*
X167409904Y-69560904D01*
X167362285Y-69370428D01*
X167362285Y-69132333D01*
X167409904Y-68941857D01*
X167457523Y-68846619D01*
X167505142Y-68799000D01*
X167600380Y-68751380D01*
X168552761Y-68751380D02*
X168648000Y-68751380D01*
X168743238Y-68799000D01*
X168790857Y-68846619D01*
X168838476Y-68941857D01*
X168886095Y-69132333D01*
X168886095Y-69370428D01*
X168838476Y-69560904D01*
X168790857Y-69656142D01*
X168743238Y-69703761D01*
X168648000Y-69751380D01*
X168552761Y-69751380D01*
X168457523Y-69703761D01*
X168409904Y-69656142D01*
X168362285Y-69560904D01*
X168314666Y-69370428D01*
X168314666Y-69132333D01*
X168362285Y-68941857D01*
X168409904Y-68846619D01*
X168457523Y-68799000D01*
X168552761Y-68751380D01*
X169886095Y-69751380D02*
X169552761Y-69275190D01*
X169314666Y-69751380D02*
X169314666Y-68751380D01*
X169695619Y-68751380D01*
X169790857Y-68799000D01*
X169838476Y-68846619D01*
X169886095Y-68941857D01*
X169886095Y-69084714D01*
X169838476Y-69179952D01*
X169790857Y-69227571D01*
X169695619Y-69275190D01*
X169314666Y-69275190D01*
X167505142Y-67381380D02*
X167171809Y-66905190D01*
X166933714Y-67381380D02*
X166933714Y-66381380D01*
X167314666Y-66381380D01*
X167409904Y-66429000D01*
X167457523Y-66476619D01*
X167505142Y-66571857D01*
X167505142Y-66714714D01*
X167457523Y-66809952D01*
X167409904Y-66857571D01*
X167314666Y-66905190D01*
X166933714Y-66905190D01*
X167886095Y-66476619D02*
X167933714Y-66429000D01*
X168028952Y-66381380D01*
X168267047Y-66381380D01*
X168362285Y-66429000D01*
X168409904Y-66476619D01*
X168457523Y-66571857D01*
X168457523Y-66667095D01*
X168409904Y-66809952D01*
X167838476Y-67381380D01*
X168457523Y-67381380D01*
X168790857Y-66381380D02*
X169409904Y-66381380D01*
X169076571Y-66762333D01*
X169219428Y-66762333D01*
X169314666Y-66809952D01*
X169362285Y-66857571D01*
X169409904Y-66952809D01*
X169409904Y-67190904D01*
X169362285Y-67286142D01*
X169314666Y-67333761D01*
X169219428Y-67381380D01*
X168933714Y-67381380D01*
X168838476Y-67333761D01*
X168790857Y-67286142D01*
X270748047Y-65170666D02*
X271224238Y-65170666D01*
X270652809Y-65456380D02*
X270986142Y-64456380D01*
X271319476Y-65456380D01*
X272224238Y-65361142D02*
X272176619Y-65408761D01*
X272033761Y-65456380D01*
X271938523Y-65456380D01*
X271795666Y-65408761D01*
X271700428Y-65313523D01*
X271652809Y-65218285D01*
X271605190Y-65027809D01*
X271605190Y-64884952D01*
X271652809Y-64694476D01*
X271700428Y-64599238D01*
X271795666Y-64504000D01*
X271938523Y-64456380D01*
X272033761Y-64456380D01*
X272176619Y-64504000D01*
X272224238Y-64551619D01*
X272414714Y-65551619D02*
X273176619Y-65551619D01*
X273414714Y-65456380D02*
X273414714Y-64456380D01*
X273890904Y-65456380D02*
X273890904Y-64456380D01*
X274462333Y-65456380D01*
X274462333Y-64456380D01*
X271414714Y-62860666D02*
X271890904Y-62860666D01*
X271319476Y-63146380D02*
X271652809Y-62146380D01*
X271986142Y-63146380D01*
X272890904Y-63051142D02*
X272843285Y-63098761D01*
X272700428Y-63146380D01*
X272605190Y-63146380D01*
X272462333Y-63098761D01*
X272367095Y-63003523D01*
X272319476Y-62908285D01*
X272271857Y-62717809D01*
X272271857Y-62574952D01*
X272319476Y-62384476D01*
X272367095Y-62289238D01*
X272462333Y-62194000D01*
X272605190Y-62146380D01*
X272700428Y-62146380D01*
X272843285Y-62194000D01*
X272890904Y-62241619D01*
X273843285Y-63146380D02*
X273271857Y-63146380D01*
X273557571Y-63146380D02*
X273557571Y-62146380D01*
X273462333Y-62289238D01*
X273367095Y-62384476D01*
X273271857Y-62432095D01*
X167227000Y-64932571D02*
X166893666Y-64932571D01*
X166893666Y-65456380D02*
X166893666Y-64456380D01*
X167369857Y-64456380D01*
X167750809Y-65456380D02*
X167750809Y-64456380D01*
X168703190Y-65456380D02*
X168227000Y-65456380D01*
X168227000Y-64456380D01*
X166750809Y-62622571D02*
X166417476Y-62622571D01*
X166417476Y-63146380D02*
X166417476Y-62146380D01*
X166893666Y-62146380D01*
X167274619Y-63146380D02*
X167274619Y-62146380D01*
X168227000Y-63146380D02*
X167750809Y-63146380D01*
X167750809Y-62146380D01*
X169084142Y-63146380D02*
X168512714Y-63146380D01*
X168798428Y-63146380D02*
X168798428Y-62146380D01*
X168703190Y-62289238D01*
X168607952Y-62384476D01*
X168512714Y-62432095D01*
X255270095Y-107875000D02*
X255174857Y-107827380D01*
X255032000Y-107827380D01*
X254889142Y-107875000D01*
X254793904Y-107970238D01*
X254746285Y-108065476D01*
X254698666Y-108255952D01*
X254698666Y-108398809D01*
X254746285Y-108589285D01*
X254793904Y-108684523D01*
X254889142Y-108779761D01*
X255032000Y-108827380D01*
X255127238Y-108827380D01*
X255270095Y-108779761D01*
X255317714Y-108732142D01*
X255317714Y-108398809D01*
X255127238Y-108398809D01*
X255746285Y-108827380D02*
X255746285Y-107827380D01*
X256317714Y-108827380D01*
X256317714Y-107827380D01*
X256793904Y-108827380D02*
X256793904Y-107827380D01*
X257032000Y-107827380D01*
X257174857Y-107875000D01*
X257270095Y-107970238D01*
X257317714Y-108065476D01*
X257365333Y-108255952D01*
X257365333Y-108398809D01*
X257317714Y-108589285D01*
X257270095Y-108684523D01*
X257174857Y-108779761D01*
X257032000Y-108827380D01*
X256793904Y-108827380D01*
X255532000Y-107283095D02*
X255484380Y-107378333D01*
X255484380Y-107521190D01*
X255532000Y-107664047D01*
X255627238Y-107759285D01*
X255722476Y-107806904D01*
X255912952Y-107854523D01*
X256055809Y-107854523D01*
X256246285Y-107806904D01*
X256341523Y-107759285D01*
X256436761Y-107664047D01*
X256484380Y-107521190D01*
X256484380Y-107425952D01*
X256436761Y-107283095D01*
X256389142Y-107235476D01*
X256055809Y-107235476D01*
X256055809Y-107425952D01*
X256484380Y-106806904D02*
X255484380Y-106806904D01*
X256484380Y-106235476D01*
X255484380Y-106235476D01*
X256484380Y-105759285D02*
X255484380Y-105759285D01*
X255484380Y-105521190D01*
X255532000Y-105378333D01*
X255627238Y-105283095D01*
X255722476Y-105235476D01*
X255912952Y-105187857D01*
X256055809Y-105187857D01*
X256246285Y-105235476D01*
X256341523Y-105283095D01*
X256436761Y-105378333D01*
X256484380Y-105521190D01*
X256484380Y-105759285D01*
X256484380Y-104235476D02*
X256484380Y-104806904D01*
X256484380Y-104521190D02*
X255484380Y-104521190D01*
X255627238Y-104616428D01*
X255722476Y-104711666D01*
X255770095Y-104806904D01*
X267203714Y-120716578D02*
X267251333Y-120668959D01*
X267346571Y-120621339D01*
X267584666Y-120621339D01*
X267679904Y-120668959D01*
X267727523Y-120716578D01*
X267775142Y-120811816D01*
X267775142Y-120907054D01*
X267727523Y-121049911D01*
X267156095Y-121621339D01*
X267775142Y-121621339D01*
X268156095Y-120716578D02*
X268203714Y-120668959D01*
X268298952Y-120621339D01*
X268537047Y-120621339D01*
X268632285Y-120668959D01*
X268679904Y-120716578D01*
X268727523Y-120811816D01*
X268727523Y-120907054D01*
X268679904Y-121049911D01*
X268108476Y-121621339D01*
X268727523Y-121621339D01*
X269156095Y-120954673D02*
X269156095Y-121621339D01*
X269156095Y-121049911D02*
X269203714Y-121002292D01*
X269298952Y-120954673D01*
X269441809Y-120954673D01*
X269537047Y-121002292D01*
X269584666Y-121097530D01*
X269584666Y-121621339D01*
X267775142Y-117776101D02*
X267727523Y-117823720D01*
X267584666Y-117871339D01*
X267489428Y-117871339D01*
X267346571Y-117823720D01*
X267251333Y-117728482D01*
X267203714Y-117633244D01*
X267156095Y-117442768D01*
X267156095Y-117299911D01*
X267203714Y-117109435D01*
X267251333Y-117014197D01*
X267346571Y-116918959D01*
X267489428Y-116871339D01*
X267584666Y-116871339D01*
X267727523Y-116918959D01*
X267775142Y-116966578D01*
X268727523Y-117871339D02*
X268156095Y-117871339D01*
X268441809Y-117871339D02*
X268441809Y-116871339D01*
X268346571Y-117014197D01*
X268251333Y-117109435D01*
X268156095Y-117157054D01*
X269060857Y-116871339D02*
X269727523Y-116871339D01*
X269298952Y-117871339D01*
X110998095Y-60250000D02*
X110902857Y-60202380D01*
X110760000Y-60202380D01*
X110617142Y-60250000D01*
X110521904Y-60345238D01*
X110474285Y-60440476D01*
X110426666Y-60630952D01*
X110426666Y-60773809D01*
X110474285Y-60964285D01*
X110521904Y-61059523D01*
X110617142Y-61154761D01*
X110760000Y-61202380D01*
X110855238Y-61202380D01*
X110998095Y-61154761D01*
X111045714Y-61107142D01*
X111045714Y-60773809D01*
X110855238Y-60773809D01*
X111474285Y-61202380D02*
X111474285Y-60202380D01*
X112045714Y-61202380D01*
X112045714Y-60202380D01*
X112521904Y-61202380D02*
X112521904Y-60202380D01*
X112760000Y-60202380D01*
X112902857Y-60250000D01*
X112998095Y-60345238D01*
X113045714Y-60440476D01*
X113093333Y-60630952D01*
X113093333Y-60773809D01*
X113045714Y-60964285D01*
X112998095Y-61059523D01*
X112902857Y-61154761D01*
X112760000Y-61202380D01*
X112521904Y-61202380D01*
X111260000Y-59658095D02*
X111212380Y-59753333D01*
X111212380Y-59896190D01*
X111260000Y-60039047D01*
X111355238Y-60134285D01*
X111450476Y-60181904D01*
X111640952Y-60229523D01*
X111783809Y-60229523D01*
X111974285Y-60181904D01*
X112069523Y-60134285D01*
X112164761Y-60039047D01*
X112212380Y-59896190D01*
X112212380Y-59800952D01*
X112164761Y-59658095D01*
X112117142Y-59610476D01*
X111783809Y-59610476D01*
X111783809Y-59800952D01*
X112212380Y-59181904D02*
X111212380Y-59181904D01*
X112212380Y-58610476D01*
X111212380Y-58610476D01*
X112212380Y-58134285D02*
X111212380Y-58134285D01*
X111212380Y-57896190D01*
X111260000Y-57753333D01*
X111355238Y-57658095D01*
X111450476Y-57610476D01*
X111640952Y-57562857D01*
X111783809Y-57562857D01*
X111974285Y-57610476D01*
X112069523Y-57658095D01*
X112164761Y-57753333D01*
X112212380Y-57896190D01*
X112212380Y-58134285D01*
X111212380Y-56658095D02*
X111212380Y-57134285D01*
X111688571Y-57181904D01*
X111640952Y-57134285D01*
X111593333Y-57039047D01*
X111593333Y-56800952D01*
X111640952Y-56705714D01*
X111688571Y-56658095D01*
X111783809Y-56610476D01*
X112021904Y-56610476D01*
X112117142Y-56658095D01*
X112164761Y-56705714D01*
X112212380Y-56800952D01*
X112212380Y-57039047D01*
X112164761Y-57134285D01*
X112117142Y-57181904D01*
X81661095Y-87174000D02*
X81565857Y-87126380D01*
X81423000Y-87126380D01*
X81280142Y-87174000D01*
X81184904Y-87269238D01*
X81137285Y-87364476D01*
X81089666Y-87554952D01*
X81089666Y-87697809D01*
X81137285Y-87888285D01*
X81184904Y-87983523D01*
X81280142Y-88078761D01*
X81423000Y-88126380D01*
X81518238Y-88126380D01*
X81661095Y-88078761D01*
X81708714Y-88031142D01*
X81708714Y-87697809D01*
X81518238Y-87697809D01*
X82137285Y-88126380D02*
X82137285Y-87126380D01*
X82708714Y-88126380D01*
X82708714Y-87126380D01*
X83184904Y-88126380D02*
X83184904Y-87126380D01*
X83423000Y-87126380D01*
X83565857Y-87174000D01*
X83661095Y-87269238D01*
X83708714Y-87364476D01*
X83756333Y-87554952D01*
X83756333Y-87697809D01*
X83708714Y-87888285D01*
X83661095Y-87983523D01*
X83565857Y-88078761D01*
X83423000Y-88126380D01*
X83184904Y-88126380D01*
X81923000Y-86582095D02*
X81875380Y-86677333D01*
X81875380Y-86820190D01*
X81923000Y-86963047D01*
X82018238Y-87058285D01*
X82113476Y-87105904D01*
X82303952Y-87153523D01*
X82446809Y-87153523D01*
X82637285Y-87105904D01*
X82732523Y-87058285D01*
X82827761Y-86963047D01*
X82875380Y-86820190D01*
X82875380Y-86724952D01*
X82827761Y-86582095D01*
X82780142Y-86534476D01*
X82446809Y-86534476D01*
X82446809Y-86724952D01*
X82875380Y-86105904D02*
X81875380Y-86105904D01*
X82875380Y-85534476D01*
X81875380Y-85534476D01*
X82875380Y-85058285D02*
X81875380Y-85058285D01*
X81875380Y-84820190D01*
X81923000Y-84677333D01*
X82018238Y-84582095D01*
X82113476Y-84534476D01*
X82303952Y-84486857D01*
X82446809Y-84486857D01*
X82637285Y-84534476D01*
X82732523Y-84582095D01*
X82827761Y-84677333D01*
X82875380Y-84820190D01*
X82875380Y-85058285D01*
X81875380Y-83629714D02*
X81875380Y-83820190D01*
X81923000Y-83915428D01*
X81970619Y-83963047D01*
X82113476Y-84058285D01*
X82303952Y-84105904D01*
X82684904Y-84105904D01*
X82780142Y-84058285D01*
X82827761Y-84010666D01*
X82875380Y-83915428D01*
X82875380Y-83724952D01*
X82827761Y-83629714D01*
X82780142Y-83582095D01*
X82684904Y-83534476D01*
X82446809Y-83534476D01*
X82351571Y-83582095D01*
X82303952Y-83629714D01*
X82256333Y-83724952D01*
X82256333Y-83915428D01*
X82303952Y-84010666D01*
X82351571Y-84058285D01*
X82446809Y-84105904D01*
X119380095Y-75109000D02*
X119284857Y-75061380D01*
X119142000Y-75061380D01*
X118999142Y-75109000D01*
X118903904Y-75204238D01*
X118856285Y-75299476D01*
X118808666Y-75489952D01*
X118808666Y-75632809D01*
X118856285Y-75823285D01*
X118903904Y-75918523D01*
X118999142Y-76013761D01*
X119142000Y-76061380D01*
X119237238Y-76061380D01*
X119380095Y-76013761D01*
X119427714Y-75966142D01*
X119427714Y-75632809D01*
X119237238Y-75632809D01*
X119856285Y-76061380D02*
X119856285Y-75061380D01*
X120427714Y-76061380D01*
X120427714Y-75061380D01*
X120903904Y-76061380D02*
X120903904Y-75061380D01*
X121142000Y-75061380D01*
X121284857Y-75109000D01*
X121380095Y-75204238D01*
X121427714Y-75299476D01*
X121475333Y-75489952D01*
X121475333Y-75632809D01*
X121427714Y-75823285D01*
X121380095Y-75918523D01*
X121284857Y-76013761D01*
X121142000Y-76061380D01*
X120903904Y-76061380D01*
X119642000Y-74517095D02*
X119594380Y-74612333D01*
X119594380Y-74755190D01*
X119642000Y-74898047D01*
X119737238Y-74993285D01*
X119832476Y-75040904D01*
X120022952Y-75088523D01*
X120165809Y-75088523D01*
X120356285Y-75040904D01*
X120451523Y-74993285D01*
X120546761Y-74898047D01*
X120594380Y-74755190D01*
X120594380Y-74659952D01*
X120546761Y-74517095D01*
X120499142Y-74469476D01*
X120165809Y-74469476D01*
X120165809Y-74659952D01*
X120594380Y-74040904D02*
X119594380Y-74040904D01*
X120594380Y-73469476D01*
X119594380Y-73469476D01*
X120594380Y-72993285D02*
X119594380Y-72993285D01*
X119594380Y-72755190D01*
X119642000Y-72612333D01*
X119737238Y-72517095D01*
X119832476Y-72469476D01*
X120022952Y-72421857D01*
X120165809Y-72421857D01*
X120356285Y-72469476D01*
X120451523Y-72517095D01*
X120546761Y-72612333D01*
X120594380Y-72755190D01*
X120594380Y-72993285D01*
X119594380Y-72088523D02*
X119594380Y-71421857D01*
X120594380Y-71850428D01*
X123547333Y-93373380D02*
X122975904Y-93373380D01*
X123261619Y-93373380D02*
X123261619Y-92373380D01*
X123166380Y-92516238D01*
X123071142Y-92611476D01*
X122975904Y-92659095D01*
X124166380Y-92373380D02*
X124261619Y-92373380D01*
X124356857Y-92421000D01*
X124404476Y-92468619D01*
X124452095Y-92563857D01*
X124499714Y-92754333D01*
X124499714Y-92992428D01*
X124452095Y-93182904D01*
X124404476Y-93278142D01*
X124356857Y-93325761D01*
X124261619Y-93373380D01*
X124166380Y-93373380D01*
X124071142Y-93325761D01*
X124023523Y-93278142D01*
X123975904Y-93182904D01*
X123928285Y-92992428D01*
X123928285Y-92754333D01*
X123975904Y-92563857D01*
X124023523Y-92468619D01*
X124071142Y-92421000D01*
X124166380Y-92373380D01*
X125118761Y-92373380D02*
X125214000Y-92373380D01*
X125309238Y-92421000D01*
X125356857Y-92468619D01*
X125404476Y-92563857D01*
X125452095Y-92754333D01*
X125452095Y-92992428D01*
X125404476Y-93182904D01*
X125356857Y-93278142D01*
X125309238Y-93325761D01*
X125214000Y-93373380D01*
X125118761Y-93373380D01*
X125023523Y-93325761D01*
X124975904Y-93278142D01*
X124928285Y-93182904D01*
X124880666Y-92992428D01*
X124880666Y-92754333D01*
X124928285Y-92563857D01*
X124975904Y-92468619D01*
X125023523Y-92421000D01*
X125118761Y-92373380D01*
X126452095Y-93373380D02*
X126118761Y-92897190D01*
X125880666Y-93373380D02*
X125880666Y-92373380D01*
X126261619Y-92373380D01*
X126356857Y-92421000D01*
X126404476Y-92468619D01*
X126452095Y-92563857D01*
X126452095Y-92706714D01*
X126404476Y-92801952D01*
X126356857Y-92849571D01*
X126261619Y-92897190D01*
X125880666Y-92897190D01*
X124071142Y-91003380D02*
X123737809Y-90527190D01*
X123499714Y-91003380D02*
X123499714Y-90003380D01*
X123880666Y-90003380D01*
X123975904Y-90051000D01*
X124023523Y-90098619D01*
X124071142Y-90193857D01*
X124071142Y-90336714D01*
X124023523Y-90431952D01*
X123975904Y-90479571D01*
X123880666Y-90527190D01*
X123499714Y-90527190D01*
X124452095Y-90098619D02*
X124499714Y-90051000D01*
X124594952Y-90003380D01*
X124833047Y-90003380D01*
X124928285Y-90051000D01*
X124975904Y-90098619D01*
X125023523Y-90193857D01*
X125023523Y-90289095D01*
X124975904Y-90431952D01*
X124404476Y-91003380D01*
X125023523Y-91003380D01*
X125880666Y-90336714D02*
X125880666Y-91003380D01*
X125642571Y-89955761D02*
X125404476Y-90670047D01*
X126023523Y-90670047D01*
X123674333Y-100866380D02*
X123102904Y-100866380D01*
X123388619Y-100866380D02*
X123388619Y-99866380D01*
X123293380Y-100009238D01*
X123198142Y-100104476D01*
X123102904Y-100152095D01*
X124293380Y-99866380D02*
X124388619Y-99866380D01*
X124483857Y-99914000D01*
X124531476Y-99961619D01*
X124579095Y-100056857D01*
X124626714Y-100247333D01*
X124626714Y-100485428D01*
X124579095Y-100675904D01*
X124531476Y-100771142D01*
X124483857Y-100818761D01*
X124388619Y-100866380D01*
X124293380Y-100866380D01*
X124198142Y-100818761D01*
X124150523Y-100771142D01*
X124102904Y-100675904D01*
X124055285Y-100485428D01*
X124055285Y-100247333D01*
X124102904Y-100056857D01*
X124150523Y-99961619D01*
X124198142Y-99914000D01*
X124293380Y-99866380D01*
X125245761Y-99866380D02*
X125341000Y-99866380D01*
X125436238Y-99914000D01*
X125483857Y-99961619D01*
X125531476Y-100056857D01*
X125579095Y-100247333D01*
X125579095Y-100485428D01*
X125531476Y-100675904D01*
X125483857Y-100771142D01*
X125436238Y-100818761D01*
X125341000Y-100866380D01*
X125245761Y-100866380D01*
X125150523Y-100818761D01*
X125102904Y-100771142D01*
X125055285Y-100675904D01*
X125007666Y-100485428D01*
X125007666Y-100247333D01*
X125055285Y-100056857D01*
X125102904Y-99961619D01*
X125150523Y-99914000D01*
X125245761Y-99866380D01*
X126579095Y-100866380D02*
X126245761Y-100390190D01*
X126007666Y-100866380D02*
X126007666Y-99866380D01*
X126388619Y-99866380D01*
X126483857Y-99914000D01*
X126531476Y-99961619D01*
X126579095Y-100056857D01*
X126579095Y-100199714D01*
X126531476Y-100294952D01*
X126483857Y-100342571D01*
X126388619Y-100390190D01*
X126007666Y-100390190D01*
X124198142Y-98496380D02*
X123864809Y-98020190D01*
X123626714Y-98496380D02*
X123626714Y-97496380D01*
X124007666Y-97496380D01*
X124102904Y-97544000D01*
X124150523Y-97591619D01*
X124198142Y-97686857D01*
X124198142Y-97829714D01*
X124150523Y-97924952D01*
X124102904Y-97972571D01*
X124007666Y-98020190D01*
X123626714Y-98020190D01*
X124579095Y-97591619D02*
X124626714Y-97544000D01*
X124721952Y-97496380D01*
X124960047Y-97496380D01*
X125055285Y-97544000D01*
X125102904Y-97591619D01*
X125150523Y-97686857D01*
X125150523Y-97782095D01*
X125102904Y-97924952D01*
X124531476Y-98496380D01*
X125150523Y-98496380D01*
X126055285Y-97496380D02*
X125579095Y-97496380D01*
X125531476Y-97972571D01*
X125579095Y-97924952D01*
X125674333Y-97877333D01*
X125912428Y-97877333D01*
X126007666Y-97924952D01*
X126055285Y-97972571D01*
X126102904Y-98067809D01*
X126102904Y-98305904D01*
X126055285Y-98401142D01*
X126007666Y-98448761D01*
X125912428Y-98496380D01*
X125674333Y-98496380D01*
X125579095Y-98448761D01*
X125531476Y-98401142D01*
X192816666Y-129809714D02*
X192816666Y-129333523D01*
X193102380Y-129904952D02*
X192102380Y-129571619D01*
X193102380Y-129238285D01*
X193102380Y-128381142D02*
X193102380Y-128952571D01*
X193102380Y-128666857D02*
X192102380Y-128666857D01*
X192245238Y-128762095D01*
X192340476Y-128857333D01*
X192388095Y-128952571D01*
X193102380Y-127952571D02*
X192102380Y-127952571D01*
X192816666Y-127619238D01*
X192102380Y-127285904D01*
X193102380Y-127285904D01*
X201828571Y-128059714D02*
X201876190Y-127916857D01*
X201923809Y-127869238D01*
X202019047Y-127821619D01*
X202161904Y-127821619D01*
X202257142Y-127869238D01*
X202304761Y-127916857D01*
X202352380Y-128012095D01*
X202352380Y-128393047D01*
X201352380Y-128393047D01*
X201352380Y-128059714D01*
X201400000Y-127964476D01*
X201447619Y-127916857D01*
X201542857Y-127869238D01*
X201638095Y-127869238D01*
X201733333Y-127916857D01*
X201780952Y-127964476D01*
X201828571Y-128059714D01*
X201828571Y-128393047D01*
X202066666Y-127440666D02*
X202066666Y-126964476D01*
X202352380Y-127535904D02*
X201352380Y-127202571D01*
X202352380Y-126869238D01*
X202304761Y-126583523D02*
X202352380Y-126440666D01*
X202352380Y-126202571D01*
X202304761Y-126107333D01*
X202257142Y-126059714D01*
X202161904Y-126012095D01*
X202066666Y-126012095D01*
X201971428Y-126059714D01*
X201923809Y-126107333D01*
X201876190Y-126202571D01*
X201828571Y-126393047D01*
X201780952Y-126488285D01*
X201733333Y-126535904D01*
X201638095Y-126583523D01*
X201542857Y-126583523D01*
X201447619Y-126535904D01*
X201400000Y-126488285D01*
X201352380Y-126393047D01*
X201352380Y-126154952D01*
X201400000Y-126012095D01*
X202304761Y-125631142D02*
X202352380Y-125488285D01*
X202352380Y-125250190D01*
X202304761Y-125154952D01*
X202257142Y-125107333D01*
X202161904Y-125059714D01*
X202066666Y-125059714D01*
X201971428Y-125107333D01*
X201923809Y-125154952D01*
X201876190Y-125250190D01*
X201828571Y-125440666D01*
X201780952Y-125535904D01*
X201733333Y-125583523D01*
X201638095Y-125631142D01*
X201542857Y-125631142D01*
X201447619Y-125583523D01*
X201400000Y-125535904D01*
X201352380Y-125440666D01*
X201352380Y-125202571D01*
X201400000Y-125059714D01*
X202352380Y-124107333D02*
X202352380Y-124678761D01*
X202352380Y-124393047D02*
X201352380Y-124393047D01*
X201495238Y-124488285D01*
X201590476Y-124583523D01*
X201638095Y-124678761D01*
X108816666Y-129785714D02*
X108816666Y-129309523D01*
X109102380Y-129880952D02*
X108102380Y-129547619D01*
X109102380Y-129214285D01*
X109102380Y-128357142D02*
X109102380Y-128928571D01*
X109102380Y-128642857D02*
X108102380Y-128642857D01*
X108245238Y-128738095D01*
X108340476Y-128833333D01*
X108388095Y-128928571D01*
X109102380Y-127928571D02*
X108102380Y-127928571D01*
X108816666Y-127595238D01*
X108102380Y-127261904D01*
X109102380Y-127261904D01*
X117400000Y-127654761D02*
X117352380Y-127750000D01*
X117352380Y-127892857D01*
X117400000Y-128035714D01*
X117495238Y-128130952D01*
X117590476Y-128178571D01*
X117780952Y-128226190D01*
X117923809Y-128226190D01*
X118114285Y-128178571D01*
X118209523Y-128130952D01*
X118304761Y-128035714D01*
X118352380Y-127892857D01*
X118352380Y-127797619D01*
X118304761Y-127654761D01*
X118257142Y-127607142D01*
X117923809Y-127607142D01*
X117923809Y-127797619D01*
X118066666Y-127226190D02*
X118066666Y-126750000D01*
X118352380Y-127321428D02*
X117352380Y-126988095D01*
X118352380Y-126654761D01*
X118352380Y-126321428D02*
X117352380Y-126321428D01*
X118352380Y-125845238D02*
X117352380Y-125845238D01*
X118352380Y-125273809D01*
X117352380Y-125273809D01*
X118352380Y-124273809D02*
X118352380Y-124845238D01*
X118352380Y-124559523D02*
X117352380Y-124559523D01*
X117495238Y-124654761D01*
X117590476Y-124750000D01*
X117638095Y-124845238D01*
X220816666Y-129785714D02*
X220816666Y-129309523D01*
X221102380Y-129880952D02*
X220102380Y-129547619D01*
X221102380Y-129214285D01*
X221102380Y-128357142D02*
X221102380Y-128928571D01*
X221102380Y-128642857D02*
X220102380Y-128642857D01*
X220245238Y-128738095D01*
X220340476Y-128833333D01*
X220388095Y-128928571D01*
X221102380Y-127928571D02*
X220102380Y-127928571D01*
X220816666Y-127595238D01*
X220102380Y-127261904D01*
X221102380Y-127261904D01*
X230352380Y-128154761D02*
X230352380Y-128630952D01*
X229352380Y-128630952D01*
X229828571Y-127821428D02*
X229828571Y-127488095D01*
X230352380Y-127345238D02*
X230352380Y-127821428D01*
X229352380Y-127821428D01*
X229352380Y-127345238D01*
X229352380Y-127059523D02*
X230352380Y-126726190D01*
X229352380Y-126392857D01*
X229828571Y-126059523D02*
X229828571Y-125726190D01*
X230352380Y-125583333D02*
X230352380Y-126059523D01*
X229352380Y-126059523D01*
X229352380Y-125583333D01*
X230352380Y-124678571D02*
X230352380Y-125154761D01*
X229352380Y-125154761D01*
X230352380Y-123821428D02*
X230352380Y-124392857D01*
X230352380Y-124107142D02*
X229352380Y-124107142D01*
X229495238Y-124202380D01*
X229590476Y-124297619D01*
X229638095Y-124392857D01*
X164588571Y-129650952D02*
X164636190Y-129508095D01*
X164683809Y-129460476D01*
X164779047Y-129412857D01*
X164921904Y-129412857D01*
X165017142Y-129460476D01*
X165064761Y-129508095D01*
X165112380Y-129603333D01*
X165112380Y-129984285D01*
X164112380Y-129984285D01*
X164112380Y-129650952D01*
X164160000Y-129555714D01*
X164207619Y-129508095D01*
X164302857Y-129460476D01*
X164398095Y-129460476D01*
X164493333Y-129508095D01*
X164540952Y-129555714D01*
X164588571Y-129650952D01*
X164588571Y-129984285D01*
X164207619Y-129031904D02*
X164160000Y-128984285D01*
X164112380Y-128889047D01*
X164112380Y-128650952D01*
X164160000Y-128555714D01*
X164207619Y-128508095D01*
X164302857Y-128460476D01*
X164398095Y-128460476D01*
X164540952Y-128508095D01*
X165112380Y-129079523D01*
X165112380Y-128460476D01*
X164112380Y-127555714D02*
X164112380Y-128031904D01*
X164588571Y-128079523D01*
X164540952Y-128031904D01*
X164493333Y-127936666D01*
X164493333Y-127698571D01*
X164540952Y-127603333D01*
X164588571Y-127555714D01*
X164683809Y-127508095D01*
X164921904Y-127508095D01*
X165017142Y-127555714D01*
X165064761Y-127603333D01*
X165112380Y-127698571D01*
X165112380Y-127936666D01*
X165064761Y-128031904D01*
X165017142Y-128079523D01*
X165112380Y-127079523D02*
X164112380Y-127079523D01*
X165112380Y-126508095D02*
X164540952Y-126936666D01*
X164112380Y-126508095D02*
X164683809Y-127079523D01*
X174362380Y-127797619D02*
X173362380Y-127797619D01*
X174076666Y-127464285D01*
X173362380Y-127130952D01*
X174362380Y-127130952D01*
X174362380Y-126654761D02*
X173362380Y-126654761D01*
X174362380Y-126178571D02*
X173362380Y-126178571D01*
X173362380Y-125940476D01*
X173410000Y-125797619D01*
X173505238Y-125702380D01*
X173600476Y-125654761D01*
X173790952Y-125607142D01*
X173933809Y-125607142D01*
X174124285Y-125654761D01*
X174219523Y-125702380D01*
X174314761Y-125797619D01*
X174362380Y-125940476D01*
X174362380Y-126178571D01*
X174362380Y-124654761D02*
X174362380Y-125226190D01*
X174362380Y-124940476D02*
X173362380Y-124940476D01*
X173505238Y-125035714D01*
X173600476Y-125130952D01*
X173648095Y-125226190D01*
X136580571Y-129619142D02*
X136628190Y-129476285D01*
X136675809Y-129428666D01*
X136771047Y-129381047D01*
X136913904Y-129381047D01*
X137009142Y-129428666D01*
X137056761Y-129476285D01*
X137104380Y-129571523D01*
X137104380Y-129952476D01*
X136104380Y-129952476D01*
X136104380Y-129619142D01*
X136152000Y-129523904D01*
X136199619Y-129476285D01*
X136294857Y-129428666D01*
X136390095Y-129428666D01*
X136485333Y-129476285D01*
X136532952Y-129523904D01*
X136580571Y-129619142D01*
X136580571Y-129952476D01*
X136199619Y-129000095D02*
X136152000Y-128952476D01*
X136104380Y-128857238D01*
X136104380Y-128619142D01*
X136152000Y-128523904D01*
X136199619Y-128476285D01*
X136294857Y-128428666D01*
X136390095Y-128428666D01*
X136532952Y-128476285D01*
X137104380Y-129047714D01*
X137104380Y-128428666D01*
X136104380Y-127523904D02*
X136104380Y-128000095D01*
X136580571Y-128047714D01*
X136532952Y-128000095D01*
X136485333Y-127904857D01*
X136485333Y-127666761D01*
X136532952Y-127571523D01*
X136580571Y-127523904D01*
X136675809Y-127476285D01*
X136913904Y-127476285D01*
X137009142Y-127523904D01*
X137056761Y-127571523D01*
X137104380Y-127666761D01*
X137104380Y-127904857D01*
X137056761Y-128000095D01*
X137009142Y-128047714D01*
X136104380Y-126857238D02*
X136104380Y-126762000D01*
X136152000Y-126666761D01*
X136199619Y-126619142D01*
X136294857Y-126571523D01*
X136485333Y-126523904D01*
X136723428Y-126523904D01*
X136913904Y-126571523D01*
X137009142Y-126619142D01*
X137056761Y-126666761D01*
X137104380Y-126762000D01*
X137104380Y-126857238D01*
X137056761Y-126952476D01*
X137009142Y-127000095D01*
X136913904Y-127047714D01*
X136723428Y-127095333D01*
X136485333Y-127095333D01*
X136294857Y-127047714D01*
X136199619Y-127000095D01*
X136152000Y-126952476D01*
X136104380Y-126857238D01*
X137104380Y-126095333D02*
X136104380Y-126095333D01*
X137104380Y-125523904D02*
X136532952Y-125952476D01*
X136104380Y-125523904D02*
X136675809Y-126095333D01*
X145352380Y-129321428D02*
X145352380Y-128750000D01*
X146352380Y-129035714D02*
X145352380Y-129035714D01*
X146352380Y-127845238D02*
X145876190Y-128178571D01*
X146352380Y-128416666D02*
X145352380Y-128416666D01*
X145352380Y-128035714D01*
X145400000Y-127940476D01*
X145447619Y-127892857D01*
X145542857Y-127845238D01*
X145685714Y-127845238D01*
X145780952Y-127892857D01*
X145828571Y-127940476D01*
X145876190Y-128035714D01*
X145876190Y-128416666D01*
X145828571Y-127416666D02*
X145828571Y-127083333D01*
X146352380Y-126940476D02*
X146352380Y-127416666D01*
X145352380Y-127416666D01*
X145352380Y-126940476D01*
X145828571Y-126178571D02*
X145876190Y-126035714D01*
X145923809Y-125988095D01*
X146019047Y-125940476D01*
X146161904Y-125940476D01*
X146257142Y-125988095D01*
X146304761Y-126035714D01*
X146352380Y-126130952D01*
X146352380Y-126511904D01*
X145352380Y-126511904D01*
X145352380Y-126178571D01*
X145400000Y-126083333D01*
X145447619Y-126035714D01*
X145542857Y-125988095D01*
X145638095Y-125988095D01*
X145733333Y-126035714D01*
X145780952Y-126083333D01*
X145828571Y-126178571D01*
X145828571Y-126511904D01*
X146352380Y-125035714D02*
X146352380Y-125511904D01*
X145352380Y-125511904D01*
X145828571Y-124702380D02*
X145828571Y-124369047D01*
X146352380Y-124226190D02*
X146352380Y-124702380D01*
X145352380Y-124702380D01*
X145352380Y-124226190D01*
X146352380Y-123273809D02*
X146352380Y-123845238D01*
X146352380Y-123559523D02*
X145352380Y-123559523D01*
X145495238Y-123654761D01*
X145590476Y-123750000D01*
X145638095Y-123845238D01*
X247518619Y-67528285D02*
X247471000Y-67480666D01*
X247423380Y-67385428D01*
X247423380Y-67147333D01*
X247471000Y-67052095D01*
X247518619Y-67004476D01*
X247613857Y-66956857D01*
X247709095Y-66956857D01*
X247851952Y-67004476D01*
X248423380Y-67575904D01*
X248423380Y-66956857D01*
X247518619Y-66575904D02*
X247471000Y-66528285D01*
X247423380Y-66433047D01*
X247423380Y-66194952D01*
X247471000Y-66099714D01*
X247518619Y-66052095D01*
X247613857Y-66004476D01*
X247709095Y-66004476D01*
X247851952Y-66052095D01*
X248423380Y-66623523D01*
X248423380Y-66004476D01*
X247756714Y-65147333D02*
X248423380Y-65147333D01*
X247756714Y-65575904D02*
X248280523Y-65575904D01*
X248375761Y-65528285D01*
X248423380Y-65433047D01*
X248423380Y-65290190D01*
X248375761Y-65194952D01*
X248328142Y-65147333D01*
X244578142Y-66956857D02*
X244625761Y-67004476D01*
X244673380Y-67147333D01*
X244673380Y-67242571D01*
X244625761Y-67385428D01*
X244530523Y-67480666D01*
X244435285Y-67528285D01*
X244244809Y-67575904D01*
X244101952Y-67575904D01*
X243911476Y-67528285D01*
X243816238Y-67480666D01*
X243721000Y-67385428D01*
X243673380Y-67242571D01*
X243673380Y-67147333D01*
X243721000Y-67004476D01*
X243768619Y-66956857D01*
X244673380Y-66004476D02*
X244673380Y-66575904D01*
X244673380Y-66290190D02*
X243673380Y-66290190D01*
X243816238Y-66385428D01*
X243911476Y-66480666D01*
X243959095Y-66575904D01*
X243673380Y-65147333D02*
X243673380Y-65337809D01*
X243721000Y-65433047D01*
X243768619Y-65480666D01*
X243911476Y-65575904D01*
X244101952Y-65623523D01*
X244482904Y-65623523D01*
X244578142Y-65575904D01*
X244625761Y-65528285D01*
X244673380Y-65433047D01*
X244673380Y-65242571D01*
X244625761Y-65147333D01*
X244578142Y-65099714D01*
X244482904Y-65052095D01*
X244244809Y-65052095D01*
X244149571Y-65099714D01*
X244101952Y-65147333D01*
X244054333Y-65242571D01*
X244054333Y-65433047D01*
X244101952Y-65528285D01*
X244149571Y-65575904D01*
X244244809Y-65623523D01*
X247129619Y-73239095D02*
X247082000Y-73191476D01*
X247034380Y-73096238D01*
X247034380Y-72858142D01*
X247082000Y-72762904D01*
X247129619Y-72715285D01*
X247224857Y-72667666D01*
X247320095Y-72667666D01*
X247462952Y-72715285D01*
X248034380Y-73286714D01*
X248034380Y-72667666D01*
X247129619Y-72286714D02*
X247082000Y-72239095D01*
X247034380Y-72143857D01*
X247034380Y-71905761D01*
X247082000Y-71810523D01*
X247129619Y-71762904D01*
X247224857Y-71715285D01*
X247320095Y-71715285D01*
X247462952Y-71762904D01*
X248034380Y-72334333D01*
X248034380Y-71715285D01*
X247034380Y-71096238D02*
X247034380Y-71001000D01*
X247082000Y-70905761D01*
X247129619Y-70858142D01*
X247224857Y-70810523D01*
X247415333Y-70762904D01*
X247653428Y-70762904D01*
X247843904Y-70810523D01*
X247939142Y-70858142D01*
X247986761Y-70905761D01*
X248034380Y-71001000D01*
X248034380Y-71096238D01*
X247986761Y-71191476D01*
X247939142Y-71239095D01*
X247843904Y-71286714D01*
X247653428Y-71334333D01*
X247415333Y-71334333D01*
X247224857Y-71286714D01*
X247129619Y-71239095D01*
X247082000Y-71191476D01*
X247034380Y-71096238D01*
X248034380Y-69762904D02*
X247558190Y-70096238D01*
X248034380Y-70334333D02*
X247034380Y-70334333D01*
X247034380Y-69953380D01*
X247082000Y-69858142D01*
X247129619Y-69810523D01*
X247224857Y-69762904D01*
X247367714Y-69762904D01*
X247462952Y-69810523D01*
X247510571Y-69858142D01*
X247558190Y-69953380D01*
X247558190Y-70334333D01*
X251404380Y-72143857D02*
X250928190Y-72477190D01*
X251404380Y-72715285D02*
X250404380Y-72715285D01*
X250404380Y-72334333D01*
X250452000Y-72239095D01*
X250499619Y-72191476D01*
X250594857Y-72143857D01*
X250737714Y-72143857D01*
X250832952Y-72191476D01*
X250880571Y-72239095D01*
X250928190Y-72334333D01*
X250928190Y-72715285D01*
X250499619Y-71762904D02*
X250452000Y-71715285D01*
X250404380Y-71620047D01*
X250404380Y-71381952D01*
X250452000Y-71286714D01*
X250499619Y-71239095D01*
X250594857Y-71191476D01*
X250690095Y-71191476D01*
X250832952Y-71239095D01*
X251404380Y-71810523D01*
X251404380Y-71191476D01*
X250404380Y-70572428D02*
X250404380Y-70477190D01*
X250452000Y-70381952D01*
X250499619Y-70334333D01*
X250594857Y-70286714D01*
X250785333Y-70239095D01*
X251023428Y-70239095D01*
X251213904Y-70286714D01*
X251309142Y-70334333D01*
X251356761Y-70381952D01*
X251404380Y-70477190D01*
X251404380Y-70572428D01*
X251356761Y-70667666D01*
X251309142Y-70715285D01*
X251213904Y-70762904D01*
X251023428Y-70810523D01*
X250785333Y-70810523D01*
X250594857Y-70762904D01*
X250499619Y-70715285D01*
X250452000Y-70667666D01*
X250404380Y-70572428D01*
M02*
