G04 #@! TF.GenerationSoftware,KiCad,Pcbnew,(5.1.4)-1*
G04 #@! TF.CreationDate,2019-12-03T00:22:22+01:00*
G04 #@! TF.ProjectId,pp,70702e6b-6963-4616-945f-706362585858,rev?*
G04 #@! TF.SameCoordinates,Original*
G04 #@! TF.FileFunction,Copper,L1,Top*
G04 #@! TF.FilePolarity,Positive*
%FSLAX46Y46*%
G04 Gerber Fmt 4.6, Leading zero omitted, Abs format (unit mm)*
G04 Created by KiCad (PCBNEW (5.1.4)-1) date 2019-12-03 00:22:22*
%MOMM*%
%LPD*%
G04 APERTURE LIST*
%ADD10C,2.540000*%
%ADD11C,2.340000*%
%ADD12O,1.600000X1.600000*%
%ADD13C,1.600000*%
%ADD14O,2.400000X2.400000*%
%ADD15C,2.400000*%
%ADD16R,2.400000X2.400000*%
%ADD17C,3.000000*%
%ADD18C,2.000000*%
%ADD19C,2.600000*%
%ADD20R,2.600000X2.600000*%
%ADD21R,1.700000X1.700000*%
%ADD22R,1.800000X1.800000*%
%ADD23O,1.800000X1.800000*%
%ADD24R,1.600000X1.600000*%
%ADD25C,0.800000*%
%ADD26C,0.500000*%
%ADD27C,0.750000*%
%ADD28C,1.000000*%
G04 APERTURE END LIST*
D10*
X239144000Y-80419000D03*
X239394000Y-85796000D03*
X236398000Y-76542000D03*
X231140000Y-74788000D03*
X226136000Y-76288000D03*
X223136000Y-80292000D03*
X223013000Y-85923000D03*
X236347000Y-90170000D03*
X225933000Y-90043000D03*
D11*
X291000000Y-128500000D03*
X286000000Y-128500000D03*
X281000000Y-128500000D03*
X263000000Y-128500000D03*
X258000000Y-128500000D03*
X253000000Y-128500000D03*
D10*
X143637000Y-90043000D03*
X154051000Y-90170000D03*
X140717000Y-85923000D03*
X140840000Y-80292000D03*
X143840000Y-76288000D03*
X148844000Y-74788000D03*
X154102000Y-76542000D03*
X157098000Y-85796000D03*
X156848000Y-80419000D03*
D12*
X116840000Y-58420000D03*
D13*
X116840000Y-68580000D03*
D14*
X301752000Y-78867000D03*
D15*
X286512000Y-78867000D03*
D14*
X279908000Y-75184000D03*
D15*
X279908000Y-100584000D03*
D14*
X272923000Y-94615000D03*
D15*
X272923000Y-109855000D03*
X134500000Y-64770000D03*
D16*
X127000000Y-64770000D03*
D17*
X49800000Y-127300000D03*
X49800000Y-121000000D03*
X49800000Y-114700000D03*
X66000000Y-127300000D03*
X66000000Y-121000000D03*
X66000000Y-114700000D03*
X79800000Y-127300000D03*
X79800000Y-121000000D03*
X79800000Y-114700000D03*
X96000000Y-127300000D03*
X96000000Y-121000000D03*
X96000000Y-114700000D03*
D13*
X87630000Y-87804000D03*
X87630000Y-82804000D03*
X111760000Y-105330000D03*
X111760000Y-100330000D03*
D18*
X151130000Y-105530000D03*
X151130000Y-113030000D03*
X171450000Y-113037000D03*
X171450000Y-105537000D03*
X80765000Y-77978000D03*
X88265000Y-77978000D03*
X88900000Y-103766000D03*
X88900000Y-96266000D03*
X73660000Y-106814000D03*
X73660000Y-99314000D03*
X140970000Y-105530000D03*
X140970000Y-113030000D03*
D10*
X61976000Y-89916000D03*
X72390000Y-90043000D03*
X59056000Y-85796000D03*
X59179000Y-80165000D03*
X62179000Y-76161000D03*
X67183000Y-74661000D03*
X72441000Y-76415000D03*
X75437000Y-85669000D03*
X75187000Y-80292000D03*
D19*
X262302000Y-59944000D03*
D20*
X257302000Y-59944000D03*
D15*
X290329000Y-111760000D03*
D16*
X282829000Y-111760000D03*
D15*
X292615000Y-64897000D03*
D16*
X285115000Y-64897000D03*
D15*
X86240000Y-64770000D03*
D16*
X78740000Y-64770000D03*
D15*
X298584000Y-91948000D03*
D16*
X291084000Y-91948000D03*
D21*
X143383000Y-59817000D03*
X111760000Y-115570000D03*
X140843000Y-89408000D03*
X148428000Y-59817000D03*
D10*
X116081000Y-80293000D03*
X116331000Y-85670000D03*
X113335000Y-76416000D03*
X108077000Y-74662000D03*
X103073000Y-76162000D03*
X100073000Y-80166000D03*
X99950000Y-85797000D03*
X113284000Y-90044000D03*
X102870000Y-89917000D03*
D13*
X78867000Y-90932000D03*
X83867000Y-90932000D03*
X104140000Y-105410000D03*
X104140000Y-100410000D03*
D22*
X258789999Y-90264000D03*
D23*
X268949999Y-90264000D03*
X258789999Y-83279000D03*
D22*
X268949999Y-83279000D03*
X258789999Y-76294000D03*
D23*
X268949999Y-76294000D03*
X258789999Y-69309000D03*
D22*
X268949999Y-69309000D03*
D12*
X72898000Y-111125000D03*
D13*
X72898000Y-121285000D03*
D12*
X63119000Y-107950000D03*
D13*
X63119000Y-97790000D03*
D12*
X81280000Y-97790000D03*
D13*
X81280000Y-107950000D03*
X52197000Y-96520000D03*
D12*
X52197000Y-86360000D03*
D13*
X96520000Y-97790000D03*
D12*
X96520000Y-107950000D03*
X58420000Y-68580000D03*
D13*
X58420000Y-58420000D03*
D12*
X67310000Y-58420000D03*
D13*
X67310000Y-68580000D03*
X92710000Y-77470000D03*
D12*
X92710000Y-87630000D03*
D13*
X96520000Y-58420000D03*
D12*
X96520000Y-68580000D03*
X127127000Y-85852000D03*
D13*
X127127000Y-75692000D03*
D12*
X134239000Y-79756000D03*
D13*
X134239000Y-89916000D03*
D12*
X263271000Y-99441000D03*
D13*
X263271000Y-109601000D03*
X106680000Y-58420000D03*
D12*
X106680000Y-68580000D03*
D13*
X161290000Y-114300000D03*
D12*
X161290000Y-104140000D03*
D13*
X248158000Y-104267000D03*
D12*
X248158000Y-114427000D03*
X236855000Y-99187000D03*
D13*
X247015000Y-99187000D03*
D12*
X157861000Y-66929000D03*
D13*
X147701000Y-66929000D03*
X163068000Y-66929000D03*
D12*
X173228000Y-66929000D03*
D10*
X185293000Y-90043000D03*
X195707000Y-90170000D03*
X182373000Y-85923000D03*
X182496000Y-80292000D03*
X185496000Y-76288000D03*
X190500000Y-74788000D03*
X195758000Y-76542000D03*
X198754000Y-85796000D03*
X198504000Y-80419000D03*
D19*
X275129000Y-59944000D03*
D20*
X270129000Y-59944000D03*
X165227000Y-59944000D03*
D19*
X170227000Y-59944000D03*
D21*
X256032000Y-106045000D03*
D18*
X264668000Y-117418959D03*
X272168000Y-117418959D03*
D21*
X111760000Y-58420000D03*
X82423000Y-85344000D03*
X120142000Y-73279000D03*
D13*
X119634000Y-90551000D03*
D12*
X129794000Y-90551000D03*
D13*
X119761000Y-98044000D03*
D12*
X129921000Y-98044000D03*
D11*
X206900000Y-128524000D03*
X201900000Y-128524000D03*
X196900000Y-128524000D03*
X122900000Y-128500000D03*
X117900000Y-128500000D03*
X112900000Y-128500000D03*
X224900000Y-128500000D03*
X229900000Y-128500000D03*
X234900000Y-128500000D03*
X178910000Y-128500000D03*
X173910000Y-128500000D03*
X168910000Y-128500000D03*
X140900000Y-128500000D03*
X145900000Y-128500000D03*
X150900000Y-128500000D03*
D24*
X244221000Y-67564000D03*
D13*
X244221000Y-65064000D03*
D15*
X250952000Y-63881000D03*
D14*
X250952000Y-79121000D03*
D25*
X73787000Y-60579000D03*
X110617000Y-69342000D03*
X141250564Y-73603666D03*
X96393000Y-81534000D03*
D26*
X197076000Y-128500000D02*
X197100000Y-128524000D01*
X178910000Y-128500000D02*
X197076000Y-128500000D01*
D27*
X150900000Y-113260000D02*
X151130000Y-113030000D01*
D26*
X199176000Y-125800000D02*
X201900000Y-128524000D01*
X140900000Y-126829000D02*
X140900000Y-128500000D01*
X141929000Y-125800000D02*
X140900000Y-126829000D01*
X151060000Y-114514213D02*
X151060000Y-125800000D01*
X151130000Y-114444213D02*
X151060000Y-114514213D01*
X151130000Y-113030000D02*
X151130000Y-114444213D01*
X141929000Y-125800000D02*
X151060000Y-125800000D01*
X151060000Y-125800000D02*
X199176000Y-125800000D01*
X76708000Y-110617000D02*
X73660000Y-106814000D01*
X79800000Y-114700000D02*
X76708000Y-110617000D01*
X73660000Y-99314000D02*
X73659999Y-91312999D01*
X73659999Y-91312999D02*
X72390000Y-90043000D01*
X74040998Y-90932000D02*
X73659999Y-91312999D01*
X78867000Y-90932000D02*
X74040998Y-90932000D01*
X83820000Y-97790000D02*
X83820000Y-90043000D01*
X83820000Y-90043000D02*
X82296000Y-88519000D01*
X78514651Y-80292651D02*
X75187000Y-80292000D01*
X80010000Y-81280000D02*
X78514651Y-80292651D01*
X80010000Y-87122000D02*
X80010000Y-81280000D01*
X82296000Y-88519000D02*
X81407000Y-88519000D01*
X81407000Y-88519000D02*
X80010000Y-87122000D01*
X87376000Y-97790000D02*
X88900000Y-96266000D01*
X81280000Y-97790000D02*
X87376000Y-97790000D01*
X101600000Y-107950000D02*
X104140000Y-105410000D01*
X96520000Y-107950000D02*
X101600000Y-107950000D01*
X96520000Y-107950000D02*
X96210000Y-114700000D01*
X101520000Y-97790000D02*
X96520000Y-97790000D01*
X104140000Y-100410000D02*
X101520000Y-97790000D01*
X104220000Y-100330000D02*
X104140000Y-100410000D01*
X111760000Y-100330000D02*
X104220000Y-100330000D01*
X116332000Y-100330000D02*
X111760000Y-100330000D01*
X123142000Y-128500000D02*
X123142000Y-107394000D01*
X123142000Y-107394000D02*
X116332000Y-100330000D01*
X118030000Y-108919000D02*
X118030000Y-128500000D01*
X111760000Y-105283000D02*
X114427000Y-105283000D01*
X114427000Y-105316000D02*
X118030000Y-108919000D01*
X114427000Y-105283000D02*
X114427000Y-105316000D01*
X111760000Y-104198630D02*
X111760000Y-105330000D01*
X110431370Y-102870000D02*
X111760000Y-104198630D01*
X93345000Y-102870000D02*
X110431370Y-102870000D01*
X91821000Y-101346000D02*
X93345000Y-102870000D01*
X55880000Y-82550000D02*
X55880000Y-97790000D01*
X59250000Y-80166000D02*
X55880000Y-82550000D01*
X55880000Y-97790000D02*
X61595000Y-102870000D01*
X61595000Y-102870000D02*
X84582000Y-102870000D01*
X84582000Y-102870000D02*
X86106000Y-101346000D01*
X86106000Y-101346000D02*
X91821000Y-101346000D01*
X87630000Y-79375000D02*
X87630000Y-82550000D01*
X87630000Y-79375000D02*
X89027000Y-77978000D01*
X65405000Y-68580000D02*
X67310000Y-68580000D01*
X62103000Y-76162000D02*
X62103000Y-71882000D01*
X62103000Y-71882000D02*
X65405000Y-68580000D01*
X68441370Y-68580000D02*
X67310000Y-68580000D01*
X72781213Y-68580000D02*
X68441370Y-68580000D01*
X80765000Y-76563787D02*
X72781213Y-68580000D01*
X80765000Y-77978000D02*
X80765000Y-76563787D01*
D28*
X175463009Y-55635010D02*
X175453999Y-55635010D01*
X174888010Y-55635010D02*
X174880010Y-55627010D01*
X175463009Y-55635010D02*
X174888010Y-55635010D01*
X175463009Y-55635010D02*
X175471009Y-55627010D01*
X280797000Y-58166000D02*
X278258010Y-55627010D01*
X235161009Y-55627010D02*
X273178010Y-55627010D01*
X174253010Y-55635010D02*
X174888010Y-55635010D01*
X174245010Y-55627010D02*
X174253010Y-55635010D01*
X161669990Y-55627010D02*
X174245010Y-55627010D01*
X148428000Y-60763000D02*
X151419000Y-63754000D01*
X148428000Y-59817000D02*
X148428000Y-60763000D01*
X151419000Y-63754000D02*
X158750000Y-63754000D01*
X158750000Y-63754000D02*
X160782000Y-61722000D01*
X160782000Y-61722000D02*
X160782000Y-56515000D01*
X160782000Y-56515000D02*
X161669990Y-55627010D01*
X279908000Y-67310000D02*
X279908000Y-75184000D01*
X280797000Y-66421000D02*
X279908000Y-67310000D01*
X282829000Y-75184000D02*
X286512000Y-78867000D01*
X279908000Y-75184000D02*
X282829000Y-75184000D01*
X282915000Y-64897000D02*
X280797000Y-64897000D01*
X285115000Y-64897000D02*
X282915000Y-64897000D01*
X280797000Y-66421000D02*
X280797000Y-64897000D01*
X280797000Y-64897000D02*
X280797000Y-58166000D01*
D26*
X92710000Y-71120000D02*
X95250000Y-68580000D01*
X92710000Y-77470000D02*
X92710000Y-71120000D01*
X95250000Y-68580000D02*
X96520000Y-68580000D01*
X92710000Y-82470000D02*
X92710000Y-77470000D01*
X92416000Y-82764000D02*
X92710000Y-82470000D01*
X87630000Y-87804000D02*
X92416000Y-82764000D01*
D28*
X267092630Y-104394000D02*
X277368000Y-104394000D01*
X263271000Y-99441000D02*
X263271000Y-100572370D01*
X263271000Y-100572370D02*
X267092630Y-104394000D01*
X263017000Y-99187000D02*
X263271000Y-99441000D01*
X252095000Y-99187000D02*
X263017000Y-99187000D01*
X277368000Y-105496000D02*
X277368000Y-104394000D01*
X282829000Y-111252000D02*
X277368000Y-105496000D01*
X277368000Y-103124000D02*
X279908000Y-100584000D01*
X277368000Y-104394000D02*
X277368000Y-103124000D01*
D26*
X169672000Y-106172000D02*
X171450000Y-105537000D01*
X161290000Y-114300000D02*
X169672000Y-106172000D01*
X152544213Y-106172000D02*
X156083000Y-109710787D01*
X151130000Y-105530000D02*
X152544213Y-106172000D01*
X161290000Y-114300000D02*
X156083000Y-109728000D01*
X154813000Y-104140000D02*
X161290000Y-104140000D01*
X153162000Y-102235000D02*
X154813000Y-104140000D01*
X145535000Y-105530000D02*
X148463000Y-102235000D01*
X148463000Y-102235000D02*
X153162000Y-102235000D01*
X140970000Y-105530000D02*
X145535000Y-105530000D01*
X139555787Y-105530000D02*
X140970000Y-105530000D01*
X135767630Y-105530000D02*
X139555787Y-105530000D01*
X129921000Y-99683370D02*
X135767630Y-105530000D01*
X129921000Y-98552000D02*
X129921000Y-99683370D01*
D28*
X268949999Y-90264000D02*
X268949999Y-83279000D01*
X272956000Y-83279000D02*
X268949999Y-83279000D01*
X275129000Y-59944000D02*
X275129000Y-81106000D01*
X275129000Y-81106000D02*
X272956000Y-83279000D01*
X268949999Y-76294000D02*
X268949999Y-69309000D01*
X268949999Y-69309000D02*
X268949999Y-65187001D01*
X270129000Y-64008000D02*
X270129000Y-59944000D01*
X268949999Y-65187001D02*
X270129000Y-64008000D01*
X143383000Y-72136000D02*
X143383000Y-59817000D01*
X155826000Y-80419000D02*
X147061473Y-74680527D01*
X147061473Y-74680527D02*
X143383000Y-72136000D01*
D26*
X145900000Y-130154629D02*
X145902629Y-130154629D01*
X145900000Y-128500000D02*
X145900000Y-130154629D01*
X145902629Y-130154629D02*
X146304000Y-130556000D01*
X146304000Y-130556000D02*
X232844000Y-130556000D01*
X232844000Y-130556000D02*
X234900000Y-128500000D01*
X63119000Y-97790000D02*
X58166000Y-92837000D01*
X63556000Y-85669000D02*
X75437000Y-85669000D01*
X58166000Y-89408000D02*
X63556000Y-85669000D01*
X58166000Y-92837000D02*
X58166000Y-89408000D01*
X127000000Y-85725000D02*
X127127000Y-85852000D01*
X126111000Y-85725000D02*
X127000000Y-85725000D01*
X116081000Y-80293000D02*
X120679000Y-80293000D01*
X120679000Y-80293000D02*
X126111000Y-85725000D01*
X131953000Y-90551000D02*
X134239000Y-89916000D01*
X129794000Y-90551000D02*
X131953000Y-90551000D01*
X114553999Y-91313999D02*
X113284000Y-90044000D01*
X117759990Y-94519990D02*
X114553999Y-91313999D01*
X129794000Y-90551000D02*
X124618990Y-94519990D01*
X124618990Y-94519990D02*
X117759990Y-94519990D01*
X163576000Y-95123000D02*
X158623000Y-90170000D01*
X171704000Y-95123000D02*
X163576000Y-95123000D01*
X175768000Y-99187000D02*
X171704000Y-95123000D01*
X175768000Y-99187000D02*
X177165000Y-99187000D01*
X66400000Y-114300000D02*
X66000000Y-114700000D01*
X66000000Y-114700000D02*
X66000000Y-111720000D01*
X66040000Y-111125000D02*
X66000000Y-111085000D01*
X72898000Y-111125000D02*
X66040000Y-111125000D01*
X66000000Y-111720000D02*
X66000000Y-111085000D01*
X66000000Y-111085000D02*
X63119000Y-107950000D01*
D28*
X260825000Y-76294000D02*
X258789999Y-76294000D01*
X263906000Y-79375000D02*
X260825000Y-76294000D01*
X263906000Y-87047999D02*
X263906000Y-79375000D01*
X258789999Y-90264000D02*
X260689999Y-90264000D01*
X260689999Y-90264000D02*
X263906000Y-87047999D01*
X261240999Y-94615000D02*
X272923000Y-94615000D01*
X258789999Y-90264000D02*
X258789999Y-92164000D01*
X258789999Y-92164000D02*
X261240999Y-94615000D01*
X275590000Y-91948000D02*
X291084000Y-91948000D01*
X272923000Y-94615000D02*
X275590000Y-91948000D01*
X291084000Y-89535000D02*
X301752000Y-78867000D01*
X291084000Y-91948000D02*
X291084000Y-89535000D01*
D26*
X104546000Y-71374000D02*
X113030000Y-71374000D01*
X122428000Y-64770000D02*
X127000000Y-64770000D01*
X116840000Y-68580000D02*
X122428000Y-64770000D01*
X103073000Y-72593000D02*
X104546000Y-71374000D01*
X103073000Y-76162000D02*
X103073000Y-72593000D01*
X113030000Y-71374000D02*
X116840000Y-68580000D01*
X132158396Y-68755604D02*
X127000000Y-64770000D01*
X134239000Y-79756000D02*
X134239000Y-70836208D01*
X164592000Y-101854000D02*
X158559500Y-95758000D01*
X139954000Y-95758000D02*
X137414000Y-93218000D01*
X158559500Y-95758000D02*
X139954000Y-95758000D01*
X137414000Y-93218000D02*
X137414000Y-82931000D01*
X137414000Y-82931000D02*
X134239000Y-79756000D01*
X262139630Y-109601000D02*
X262012630Y-109474000D01*
X263271000Y-109601000D02*
X262139630Y-109601000D01*
X262012630Y-109474000D02*
X246380000Y-109474000D01*
X181610000Y-109474000D02*
X173990000Y-101854000D01*
X173990000Y-101854000D02*
X164592000Y-101854000D01*
X134239000Y-70836208D02*
X132158396Y-68755604D01*
X54737000Y-63500000D02*
X52197000Y-66040000D01*
X52197000Y-66040000D02*
X52197000Y-86360000D01*
X62230000Y-63500000D02*
X54737000Y-63500000D01*
X67310000Y-58420000D02*
X62230000Y-63500000D01*
X116840000Y-60071000D02*
X116840000Y-58420000D01*
X115189000Y-61722000D02*
X116840000Y-60071000D01*
X91186000Y-61722000D02*
X115189000Y-61722000D01*
X89789000Y-60325000D02*
X91186000Y-61722000D01*
X83947000Y-60325000D02*
X89789000Y-60325000D01*
X68580000Y-58420000D02*
X74930000Y-64770000D01*
X67310000Y-58420000D02*
X68580000Y-58420000D01*
X74930000Y-64770000D02*
X79540000Y-64770000D01*
X79540000Y-64770000D02*
X82080000Y-62230000D01*
X82080000Y-62230000D02*
X82080000Y-62192000D01*
X82080000Y-62192000D02*
X83947000Y-60325000D01*
D27*
X165227000Y-61994000D02*
X165227000Y-59944000D01*
X163068000Y-66929000D02*
X163068000Y-65797630D01*
X163068000Y-65797630D02*
X165227000Y-63638630D01*
X165227000Y-63638630D02*
X165227000Y-61994000D01*
X163068000Y-66929000D02*
X163068000Y-69342000D01*
X163068000Y-69342000D02*
X163830000Y-70104000D01*
X163830000Y-70104000D02*
X163830000Y-74915000D01*
X135128000Y-60071000D02*
X122428000Y-60071000D01*
X139192000Y-64135000D02*
X135128000Y-60071000D01*
X122428000Y-57023000D02*
X120907010Y-55502010D01*
X122428000Y-60071000D02*
X122428000Y-57023000D01*
X120907010Y-55502010D02*
X95377000Y-55502010D01*
X95377000Y-55502010D02*
X78863990Y-55502010D01*
X78863990Y-55502010D02*
X73787000Y-60579000D01*
X122428000Y-60071000D02*
X122301000Y-60071000D01*
X122301000Y-60071000D02*
X117856000Y-64516000D01*
X117856000Y-64516000D02*
X115443000Y-64516000D01*
X115443000Y-64516000D02*
X110617000Y-69342000D01*
X140850565Y-73203667D02*
X140850565Y-73032565D01*
X141250564Y-73603666D02*
X140850565Y-73203667D01*
X139192000Y-71374000D02*
X139192000Y-64135000D01*
X140850565Y-73032565D02*
X139192000Y-71374000D01*
X170227000Y-63250000D02*
X170227000Y-59944000D01*
X169088000Y-76669000D02*
X169164000Y-65024000D01*
X169164000Y-64313000D02*
X170227000Y-63250000D01*
X169164000Y-65024000D02*
X169164000Y-64313000D01*
D26*
X178760000Y-85923000D02*
X172084000Y-85923000D01*
X248158000Y-104267000D02*
X248158000Y-90551000D01*
X248158000Y-90551000D02*
X243530000Y-85923000D01*
X251149959Y-117418959D02*
X264668000Y-117418959D01*
X248158000Y-114427000D02*
X251149959Y-117418959D01*
X229900000Y-126845371D02*
X225355629Y-122301000D01*
X229900000Y-128500000D02*
X229900000Y-126845371D01*
X264470041Y-122301000D02*
X259588000Y-117418959D01*
X225355629Y-122301000D02*
X204780041Y-122301000D01*
D28*
X173103999Y-79245001D02*
X174371000Y-77978000D01*
X171834000Y-80546000D02*
X173103999Y-79276001D01*
X173103999Y-79276001D02*
X173103999Y-79245001D01*
X178308000Y-73914000D02*
X173990000Y-78232000D01*
X249428000Y-79121000D02*
X243649500Y-73342500D01*
X178879500Y-73342500D02*
X179451000Y-72771000D01*
X179451000Y-72771000D02*
X179451000Y-67564000D01*
X178308000Y-73914000D02*
X178879500Y-73342500D01*
X249428000Y-79121000D02*
X250952000Y-79121000D01*
D26*
X96393000Y-75184000D02*
X102997000Y-68580000D01*
X102997000Y-68580000D02*
X105548630Y-68580000D01*
X105548630Y-68580000D02*
X106680000Y-68580000D01*
X96393000Y-81534000D02*
X96393000Y-75184000D01*
X119507000Y-98298000D02*
X119761000Y-98552000D01*
X115951000Y-95885000D02*
X120015000Y-98298000D01*
X110744000Y-95885000D02*
X115951000Y-95885000D01*
X107950000Y-93091000D02*
X110744000Y-95885000D01*
X107950000Y-88138000D02*
X107950000Y-93091000D01*
X99950000Y-85797000D02*
X105609000Y-85797000D01*
X105609000Y-85797000D02*
X107950000Y-88138000D01*
M02*
