M48
; DRILL file {KiCad (5.1.4)-1} date 03/12/2019 0:22:24
; FORMAT={-:-/ absolute / inch / decimal}
; #@! TF.CreationDate,2019-12-03T00:22:24+01:00
; #@! TF.GenerationSoftware,Kicad,Pcbnew,(5.1.4)-1
; #@! TF.FileFunction,Plated,1,2,PTH
FMAT,2
INCH
T1C0.0157
T2C0.0315
T3C0.0354
T4C0.0394
T5C0.0472
T6C0.0512
T7C0.0560
T8C0.0591
%
G90
G05
T1
X2.905Y-2.385
X3.795Y-3.21
X4.355Y-2.73
X5.561Y-2.8978
T2
X6.35Y-4.1
X6.35Y-4.5
X5.815Y-2.635
X6.215Y-2.635
X2.055Y-3.4
X2.055Y-3.8
X4.71Y-3.565
X5.11Y-3.565
X2.65Y-2.3
X2.65Y-2.7
X5.005Y-2.98
X5.005Y-3.38
X3.45Y-3.26
X3.45Y-3.4569
X4.1Y-3.9531
X4.1Y-4.15
X4.2Y-2.3
X4.2Y-2.7
X9.325Y-3.905
X9.725Y-3.905
X3.2Y-3.85
X3.2Y-4.25
X2.485Y-3.85
X2.485Y-4.25
X2.3Y-2.3
X2.3Y-2.7
X3.8Y-2.3
X3.8Y-2.7
X3.105Y-3.58
X3.3019Y-3.58
X10.365Y-3.915
X10.365Y-4.315
X4.6Y-2.3
X4.6Y-2.7
X9.77Y-4.105
X9.77Y-4.505
X2.87Y-4.375
X2.87Y-4.775
X6.42Y-2.635
X6.82Y-2.635
X3.8Y-3.85
X3.8Y-4.25
X4.715Y-3.86
X5.115Y-3.86
X3.65Y-3.05
X3.65Y-3.45
X5.285Y-3.14
X5.285Y-3.54
X9.615Y-2.5616
X9.615Y-2.66
X4.4Y-3.95
X4.4Y-4.1469
T3
X10.1886Y-3.2787
X10.5886Y-3.2787
X10.1886Y-3.5537
X10.5886Y-3.5537
X10.1886Y-2.7287
X10.5886Y-2.7287
X10.1886Y-3.0037
X10.5886Y-3.0037
T4
X5.95Y-4.1547
X5.95Y-4.45
X10.42Y-4.6228
X10.7153Y-4.6228
X3.5Y-3.79
X3.5Y-4.0853
X4.73Y-2.885
X4.4Y-4.55
X10.08Y-4.175
X3.1797Y-3.07
X3.475Y-3.07
X3.245Y-3.36
X5.55Y-4.1547
X5.55Y-4.45
X5.645Y-2.355
X5.8436Y-2.355
X6.75Y-4.155
X6.75Y-4.4503
X4.4Y-2.3
X2.9Y-3.91
X2.9Y-4.2053
X5.545Y-3.52
T5
X11.135Y-4.4
X11.4303Y-4.4
X11.46Y-3.62
X11.7553Y-3.62
X11.28Y-3.105
X11.88Y-3.105
X5.0Y-2.55
X5.2953Y-2.55
X3.1Y-2.55
X3.3953Y-2.55
X9.88Y-2.515
X9.88Y-3.115
X10.745Y-3.725
X10.745Y-4.325
X11.225Y-2.555
X11.5203Y-2.555
X11.02Y-2.96
X11.02Y-3.96
T6
X4.4449Y-5.0591
X4.6417Y-5.0591
X4.8386Y-5.0591
X5.5472Y-5.0591
X5.7441Y-5.0591
X5.9409Y-5.0591
X6.505Y-2.36
X6.7019Y-2.36
X10.13Y-2.36
X10.3269Y-2.36
X7.752Y-5.06
X7.9488Y-5.06
X8.1457Y-5.06
X6.65Y-5.0591
X6.8469Y-5.0591
X7.0437Y-5.0591
X10.635Y-2.36
X10.8319Y-2.36
X11.063Y-5.0591
X11.2598Y-5.0591
X11.4567Y-5.0591
X8.8543Y-5.0591
X9.0512Y-5.0591
X9.248Y-5.0591
X9.9606Y-5.0591
X10.1575Y-5.0591
X10.3543Y-5.0591
T7
X7.18Y-3.3828
X7.1849Y-3.1611
X7.295Y-3.545
X7.303Y-3.0035
X7.5Y-2.9444
X7.705Y-3.55
X7.707Y-3.0135
X7.8151Y-3.1661
X7.825Y-3.3778
X2.325Y-3.3778
X2.3299Y-3.1561
X2.44Y-3.54
X2.448Y-2.9985
X2.645Y-2.9394
X2.85Y-3.545
X2.852Y-3.0085
X2.9601Y-3.1611
X2.97Y-3.3728
X3.935Y-3.3778
X3.9399Y-3.1561
X4.05Y-3.54
X4.058Y-2.9985
X4.255Y-2.9394
X4.46Y-3.545
X4.462Y-3.0085
X4.5701Y-3.1611
X4.58Y-3.3728
X5.54Y-3.3828
X5.5449Y-3.1611
X5.655Y-3.545
X5.663Y-3.0035
X5.86Y-2.9444
X6.065Y-3.55
X6.067Y-3.0135
X6.1751Y-3.1661
X6.185Y-3.3778
X8.78Y-3.3828
X8.7849Y-3.1611
X8.895Y-3.545
X8.903Y-3.0035
X9.1Y-2.9444
X9.305Y-3.55
X9.307Y-3.0135
X9.4151Y-3.1661
X9.425Y-3.3778
T8
X3.1417Y-4.5157
X3.1417Y-4.7638
X3.1417Y-5.0118
X3.7795Y-4.5157
X3.7795Y-4.7638
X3.7795Y-5.0118
X1.9606Y-4.5157
X1.9606Y-4.7638
X1.9606Y-5.0118
X2.5984Y-4.5157
X2.5984Y-4.7638
X2.5984Y-5.0118
T0
M30
