%MOIN*%
%OFA0B0*%
%FSLAX44Y44*%
%IPPOS*%
%LPD*%
%ADD10C,0*%
D10*
X00023410Y00030471D02*
X00023410Y00030471D01*
X00011628Y00030471D01*
X00011597Y00030472D01*
X00011566Y00030476D01*
X00011536Y00030482D01*
X00011506Y00030490D01*
X00011477Y00030501D01*
X00011449Y00030514D01*
X00011422Y00030529D01*
X00011396Y00030546D01*
X00011372Y00030566D01*
X00011349Y00030587D01*
X00011329Y00030609D01*
X00011309Y00030634D01*
X00011292Y00030659D01*
X00011277Y00030686D01*
X00011264Y00030714D01*
X00011253Y00030744D01*
X00011245Y00030773D01*
X00011239Y00030804D01*
X00011236Y00030834D01*
X00011234Y00030865D01*
X00011235Y00031338D01*
X00011236Y00031369D01*
X00011240Y00031400D01*
X00011246Y00031430D01*
X00011254Y00031460D01*
X00011265Y00031489D01*
X00011278Y00031517D01*
X00011293Y00031544D01*
X00011310Y00031570D01*
X00011329Y00031594D01*
X00011350Y00031617D01*
X00011373Y00031638D01*
X00011397Y00031657D01*
X00011423Y00031674D01*
X00011450Y00031689D01*
X00011478Y00031702D01*
X00011507Y00031713D01*
X00011537Y00031721D01*
X00011567Y00031727D01*
X00011598Y00031731D01*
X00011629Y00031732D01*
X00023410Y00031732D01*
X00023441Y00031731D01*
X00023471Y00031727D01*
X00023502Y00031721D01*
X00023531Y00031713D01*
X00023560Y00031702D01*
X00023588Y00031689D01*
X00023615Y00031674D01*
X00023641Y00031657D01*
X00023665Y00031638D01*
X00023688Y00031617D01*
X00023709Y00031594D01*
X00023728Y00031570D01*
X00023745Y00031544D01*
X00023761Y00031517D01*
X00023773Y00031489D01*
X00023784Y00031460D01*
X00023793Y00031430D01*
X00023799Y00031400D01*
X00023802Y00031369D01*
X00023804Y00031338D01*
X00023804Y00030865D01*
X00023803Y00030834D01*
X00023799Y00030804D01*
X00023793Y00030773D01*
X00023785Y00030744D01*
X00023774Y00030714D01*
X00023761Y00030686D01*
X00023746Y00030659D01*
X00023729Y00030634D01*
X00023710Y00030609D01*
X00023689Y00030587D01*
X00023666Y00030566D01*
X00023642Y00030546D01*
X00023616Y00030529D01*
X00023589Y00030514D01*
X00023561Y00030501D01*
X00023532Y00030490D01*
X00023502Y00030482D01*
X00023472Y00030476D01*
X00023441Y00030472D01*
X00023410Y00030471D01*
X00052967Y00030471D02*
X00052967Y00030471D01*
X00052936Y00030472D01*
X00052905Y00030476D01*
X00052875Y00030482D01*
X00052845Y00030490D01*
X00052816Y00030501D01*
X00052788Y00030514D01*
X00052761Y00030529D01*
X00052735Y00030546D01*
X00052711Y00030566D01*
X00052688Y00030587D01*
X00052667Y00030609D01*
X00052648Y00030634D01*
X00052631Y00030659D01*
X00052616Y00030686D01*
X00052603Y00030714D01*
X00052592Y00030744D01*
X00052584Y00030773D01*
X00052578Y00030804D01*
X00052574Y00030834D01*
X00052573Y00030865D01*
X00052573Y00031338D01*
X00052575Y00031369D01*
X00052578Y00031400D01*
X00052584Y00031430D01*
X00052593Y00031460D01*
X00052603Y00031489D01*
X00052616Y00031517D01*
X00052632Y00031544D01*
X00052649Y00031570D01*
X00052668Y00031594D01*
X00052689Y00031617D01*
X00052712Y00031638D01*
X00052736Y00031657D01*
X00052762Y00031674D01*
X00052788Y00031689D01*
X00052817Y00031702D01*
X00052846Y00031713D01*
X00052875Y00031721D01*
X00052906Y00031727D01*
X00052936Y00031731D01*
X00052967Y00031732D01*
X00064748Y00031732D01*
X00064779Y00031731D01*
X00064810Y00031727D01*
X00064840Y00031721D01*
X00064870Y00031713D01*
X00064899Y00031702D01*
X00064927Y00031689D01*
X00064954Y00031674D01*
X00064980Y00031657D01*
X00065004Y00031638D01*
X00065027Y00031617D01*
X00065048Y00031594D01*
X00065067Y00031570D01*
X00065084Y00031544D01*
X00065099Y00031517D01*
X00065112Y00031489D01*
X00065123Y00031460D01*
X00065131Y00031430D01*
X00065137Y00031400D01*
X00065141Y00031369D01*
X00065142Y00031338D01*
X00065143Y00030865D01*
X00065141Y00030834D01*
X00065138Y00030804D01*
X00065132Y00030773D01*
X00065123Y00030744D01*
X00065113Y00030714D01*
X00065100Y00030686D01*
X00065085Y00030659D01*
X00065068Y00030634D01*
X00065048Y00030609D01*
X00065027Y00030587D01*
X00065005Y00030566D01*
X00064980Y00030546D01*
X00064955Y00030529D01*
X00064928Y00030514D01*
X00064900Y00030501D01*
X00064871Y00030490D01*
X00064841Y00030482D01*
X00064811Y00030476D01*
X00064780Y00030472D01*
X00064749Y00030471D01*
X00052967Y00030471D01*
X00039187Y00030471D02*
X00039187Y00030471D01*
X00039156Y00030472D01*
X00039125Y00030476D01*
X00039095Y00030482D01*
X00039065Y00030490D01*
X00039036Y00030501D01*
X00039008Y00030514D01*
X00038981Y00030529D01*
X00038956Y00030546D01*
X00038931Y00030566D01*
X00038909Y00030587D01*
X00038888Y00030609D01*
X00038868Y00030634D01*
X00038851Y00030659D01*
X00038836Y00030686D01*
X00038823Y00030714D01*
X00038813Y00030744D01*
X00038804Y00030773D01*
X00038798Y00030804D01*
X00038795Y00030834D01*
X00038793Y00030865D01*
X00038794Y00031338D01*
X00038795Y00031369D01*
X00038799Y00031400D01*
X00038805Y00031430D01*
X00038813Y00031460D01*
X00038824Y00031489D01*
X00038837Y00031517D01*
X00038852Y00031544D01*
X00038869Y00031570D01*
X00038888Y00031594D01*
X00038909Y00031617D01*
X00038932Y00031638D01*
X00038956Y00031657D01*
X00038982Y00031674D01*
X00039009Y00031689D01*
X00039037Y00031702D01*
X00039066Y00031713D01*
X00039096Y00031721D01*
X00039126Y00031727D01*
X00039157Y00031731D01*
X00039188Y00031732D01*
X00050969Y00031732D01*
X00051000Y00031731D01*
X00051030Y00031727D01*
X00051061Y00031721D01*
X00051090Y00031713D01*
X00051119Y00031702D01*
X00051148Y00031689D01*
X00051174Y00031674D01*
X00051200Y00031657D01*
X00051224Y00031638D01*
X00051247Y00031617D01*
X00051268Y00031594D01*
X00051287Y00031570D01*
X00051304Y00031544D01*
X00051320Y00031517D01*
X00051333Y00031489D01*
X00051343Y00031460D01*
X00051352Y00031430D01*
X00051358Y00031400D01*
X00051361Y00031369D01*
X00051363Y00031338D01*
X00051363Y00030865D01*
X00051362Y00030834D01*
X00051358Y00030804D01*
X00051352Y00030773D01*
X00051344Y00030744D01*
X00051333Y00030714D01*
X00051320Y00030686D01*
X00051305Y00030659D01*
X00051288Y00030634D01*
X00051269Y00030609D01*
X00051248Y00030587D01*
X00051225Y00030566D01*
X00051201Y00030546D01*
X00051175Y00030529D01*
X00051148Y00030514D01*
X00051120Y00030501D01*
X00051091Y00030490D01*
X00051061Y00030482D01*
X00051031Y00030476D01*
X00051000Y00030472D01*
X00050969Y00030471D01*
X00039187Y00030471D01*
X00025408Y00030471D02*
X00025408Y00030471D01*
X00025377Y00030472D01*
X00025346Y00030476D01*
X00025316Y00030482D01*
X00025286Y00030490D01*
X00025257Y00030501D01*
X00025229Y00030514D01*
X00025202Y00030529D01*
X00025176Y00030546D01*
X00025152Y00030566D01*
X00025129Y00030587D01*
X00025108Y00030609D01*
X00025089Y00030634D01*
X00025072Y00030659D01*
X00025057Y00030686D01*
X00025044Y00030714D01*
X00025033Y00030744D01*
X00025025Y00030773D01*
X00025019Y00030804D01*
X00025015Y00030834D01*
X00025014Y00030865D01*
X00025014Y00031338D01*
X00025016Y00031369D01*
X00025019Y00031400D01*
X00025025Y00031430D01*
X00025034Y00031460D01*
X00025044Y00031489D01*
X00025057Y00031517D01*
X00025073Y00031544D01*
X00025090Y00031570D01*
X00025109Y00031594D01*
X00025130Y00031617D01*
X00025153Y00031638D01*
X00025177Y00031657D01*
X00025202Y00031674D01*
X00025229Y00031689D01*
X00025257Y00031702D01*
X00025286Y00031713D01*
X00025316Y00031721D01*
X00025347Y00031727D01*
X00025377Y00031731D01*
X00025408Y00031732D01*
X00037189Y00031732D01*
X00037220Y00031731D01*
X00037251Y00031727D01*
X00037281Y00031721D01*
X00037311Y00031713D01*
X00037340Y00031702D01*
X00037368Y00031689D01*
X00037395Y00031674D01*
X00037421Y00031657D01*
X00037445Y00031638D01*
X00037468Y00031617D01*
X00037489Y00031594D01*
X00037508Y00031570D01*
X00037525Y00031544D01*
X00037540Y00031517D01*
X00037553Y00031489D01*
X00037564Y00031460D01*
X00037572Y00031430D01*
X00037578Y00031400D01*
X00037582Y00031369D01*
X00037583Y00031338D01*
X00037584Y00030865D01*
X00037582Y00030834D01*
X00037579Y00030804D01*
X00037573Y00030773D01*
X00037564Y00030744D01*
X00037554Y00030714D01*
X00037541Y00030686D01*
X00037526Y00030659D01*
X00037509Y00030634D01*
X00037489Y00030609D01*
X00037468Y00030587D01*
X00037446Y00030566D01*
X00037421Y00030546D01*
X00037396Y00030529D01*
X00037369Y00030514D01*
X00037341Y00030501D01*
X00037312Y00030490D01*
X00037282Y00030482D01*
X00037252Y00030476D01*
X00037221Y00030472D01*
X00037190Y00030471D01*
X00025408Y00030471D01*
X00009630Y00031732D02*
X00009630Y00031732D01*
X00009661Y00031731D01*
X00009692Y00031727D01*
X00009722Y00031721D01*
X00009752Y00031713D01*
X00009781Y00031702D01*
X00009809Y00031689D01*
X00009836Y00031674D01*
X00009862Y00031657D01*
X00009886Y00031638D01*
X00009909Y00031617D01*
X00009930Y00031594D01*
X00009949Y00031570D01*
X00009966Y00031544D01*
X00009981Y00031517D01*
X00009994Y00031489D01*
X00010005Y00031460D01*
X00010013Y00031430D01*
X00010019Y00031400D01*
X00010023Y00031369D01*
X00010024Y00031338D01*
X00010025Y00030865D01*
X00010023Y00030834D01*
X00010020Y00030804D01*
X00010014Y00030773D01*
X00010005Y00030744D01*
X00009995Y00030714D01*
X00009982Y00030686D01*
X00009967Y00030659D01*
X00009949Y00030634D01*
X00009930Y00030609D01*
X00009909Y00030587D01*
X00009887Y00030566D01*
X00009862Y00030546D01*
X00009837Y00030529D01*
X00009810Y00030514D01*
X00009782Y00030501D01*
X00009753Y00030490D01*
X00009723Y00030482D01*
X00009692Y00030476D01*
X00009662Y00030472D01*
X00009631Y00030471D01*
X00000000Y00030471D01*
X00000000Y00000039D01*
X00077165Y00000039D01*
X00077165Y00030471D01*
X00066746Y00030471D01*
X00066715Y00030472D01*
X00066685Y00030476D01*
X00066654Y00030482D01*
X00066624Y00030490D01*
X00066595Y00030501D01*
X00066567Y00030514D01*
X00066540Y00030529D01*
X00066515Y00030546D01*
X00066490Y00030566D01*
X00066468Y00030587D01*
X00066447Y00030609D01*
X00066427Y00030634D01*
X00066410Y00030659D01*
X00066395Y00030686D01*
X00066382Y00030714D01*
X00066372Y00030744D01*
X00066363Y00030773D01*
X00066357Y00030804D01*
X00066354Y00030834D01*
X00066352Y00030865D01*
X00066353Y00031338D01*
X00066354Y00031369D01*
X00066358Y00031400D01*
X00066364Y00031430D01*
X00066372Y00031460D01*
X00066383Y00031489D01*
X00066396Y00031517D01*
X00066411Y00031544D01*
X00066428Y00031570D01*
X00066447Y00031594D01*
X00066468Y00031617D01*
X00066491Y00031638D01*
X00066515Y00031657D01*
X00066541Y00031674D01*
X00066568Y00031689D01*
X00066596Y00031702D01*
X00066625Y00031713D01*
X00066655Y00031721D01*
X00066685Y00031727D01*
X00066716Y00031731D01*
X00066747Y00031732D01*
X00077165Y00031732D01*
X00077165Y00062164D01*
X00000000Y00062164D01*
X00000000Y00031732D01*
X00009630Y00031732D01*
M02*