M48
INCH,TZ
T10C0.126
T11C0.016
T12C0.031
T13C0.035
T14C0.039
T15C0.047
T16C0.051
T17C0.056
T18C0.059
T19C0.020
%
T10
X001583Y028672
X043733Y028672
X075583Y028672
X034183Y001572
X010983Y001572
X040533Y016522
X067283Y001572
X001583Y060365
X043733Y060365
X075583Y060365
X010983Y033265
X034183Y033265
X040533Y048215
X067283Y033265
T11
X011933Y027372
X020233Y019672
X025733Y024322
X037033Y025922
X020233Y051365
T12
X060433Y012621
X060433Y008622
X023283Y012241
X023283Y010272
X014283Y013272
X014283Y009272
X026283Y012272
X026283Y010302
X052033Y012722
X056033Y012722
X005283Y028772
X005283Y024772
X029383Y016122
X033383Y016122
X018783Y021272
X018783Y017272
X028283Y028772
X028283Y024772
X035133Y020372
X035133Y016372
X013333Y015972
X015302Y015972
X007133Y013272
X007133Y009272
X016783Y019172
X016783Y017202
X054483Y010772
X054483Y006772
X020283Y013272
X020283Y009272
X010983Y008022
X010983Y004022
X046483Y024922
X050483Y024922
X064633Y012621
X064633Y008622
X032333Y021972
X032333Y017972
X024283Y028772
X024283Y024772
X052933Y027141
X052933Y025172
X045783Y010772
X045783Y006772
X002833Y017772
X002833Y013772
X040433Y024922
X044433Y024922
X008783Y028772
X008783Y024772
X020283Y028772
X020283Y024772
X029433Y013172
X033433Y013172
X046483Y056865
X050483Y056865
X029433Y044865
X033433Y044865
X014283Y044965
X014283Y040965
X013333Y047665
X015302Y047665
X016783Y050865
X016783Y048895
X005283Y060465
X005283Y056465
X035133Y052065
X035133Y048065
X018783Y052965
X018783Y048965
X023283Y043933
X023283Y041965
X045783Y042465
X045783Y038465
X040433Y056865
X044433Y056865
X029383Y047815
X033383Y047815
X007133Y044965
X007133Y040965
X052933Y058833
X052933Y056865
X020283Y044965
X020283Y040965
X032333Y053665
X032333Y049665
X064633Y044315
X064633Y040315
X024283Y060465
X024283Y056465
X028283Y060465
X028283Y056465
X052033Y044415
X056033Y044415
X010983Y039715
X010983Y035715
X002833Y049465
X002833Y045465
X026283Y043965
X026283Y041995
X008783Y060465
X008783Y056465
X060433Y044315
X060433Y040315
X020283Y060465
X020283Y056465
X054483Y042414
X054483Y038415
T13
X059377Y020672
X063377Y020672
X059377Y017922
X063377Y017922
X059377Y015172
X063377Y015172
X059377Y023422
X063377Y023422
X059377Y052365
X063377Y052365
X059377Y049615
X063377Y049615
X059377Y046865
X063377Y046865
X059377Y055115
X063377Y055115
T14
X011283Y012672
X011283Y009719
X026283Y028772
X038733Y028222
X017283Y013472
X017283Y010519
X040719Y028222
X060980Y005522
X063933Y005522
X041783Y010224
X041783Y007272
X029583Y022922
X014080Y021072
X017033Y021072
X037733Y016572
X037783Y010224
X037783Y007272
X057583Y010022
X014733Y018172
X049783Y010221
X049783Y007269
X026283Y006272
X040719Y059915
X057583Y041715
X014733Y049865
X014080Y052765
X017033Y052765
X037783Y041917
X037783Y038965
X037733Y048265
X026283Y060465
X049783Y041915
X049783Y038961
X011283Y044365
X011283Y041411
X026283Y037965
X060980Y037215
X063933Y037215
X041783Y041917
X041783Y038965
X029583Y054615
X017283Y045165
X017283Y042211
X038733Y059915
T15
X069283Y020722
X075283Y020722
X068133Y007972
X071086Y007972
X055733Y026622
X055733Y020622
X013283Y026272
X016236Y026272
X066983Y019672
X066983Y013672
X032283Y026272
X035236Y026272
X069033Y025872
X071986Y025872
X070833Y015572
X073786Y015572
X055733Y058315
X055733Y052315
X068133Y039665
X071086Y039665
X032283Y057965
X035236Y057965
X069283Y052415
X075283Y052415
X069033Y057565
X071986Y057565
X070833Y047265
X073786Y047265
X066983Y051365
X066983Y045365
X013283Y057965
X016236Y057965
T16
X070826Y001180
X072795Y001180
X074763Y001180
X075833Y007022
X075833Y005052
X026732Y001180
X028700Y001180
X030669Y001180
X047333Y028172
X049302Y028172
X037755Y001180
X039724Y001180
X041692Y001180
X059803Y001172
X061771Y001172
X063740Y001172
X063133Y028172
X065102Y028172
X048783Y001180
X050752Y001180
X052720Y001180
X058083Y028172
X060052Y028172
X058083Y059865
X060052Y059865
X037755Y032873
X039724Y032873
X041692Y032873
X047333Y059865
X049302Y059865
X048783Y032873
X050752Y032873
X052720Y032873
X063133Y059865
X065102Y059865
X059803Y032865
X061771Y032865
X063740Y032865
X075833Y038715
X075833Y036745
X026732Y032873
X028700Y032873
X030669Y032873
X070826Y032873
X072795Y032873
X074763Y032873
T17
X043583Y017893
X043632Y020111
X044733Y016272
X044813Y021687
X046783Y022278
X048833Y016222
X048853Y021587
X049934Y020061
X050033Y017943
X005533Y017993
X005582Y020211
X006683Y016372
X006763Y021787
X008733Y022378
X010783Y016322
X010803Y021687
X011884Y020161
X011983Y018043
X021633Y017993
X021682Y020211
X022783Y016372
X022863Y021787
X024833Y022378
X026883Y016322
X026903Y021687
X027984Y020161
X028083Y018043
X005533Y049686
X005582Y051904
X006683Y048065
X006763Y053480
X008733Y054070
X010783Y048015
X010803Y053380
X011884Y051854
X011983Y049736
X021633Y049686
X021682Y051904
X022783Y048065
X022863Y053480
X024833Y054070
X026883Y048015
X026903Y053380
X027984Y051854
X028083Y049736
X043583Y049586
X043632Y051804
X044733Y047965
X044813Y053380
X046783Y053970
X048833Y047915
X048853Y053280
X049934Y051754
X050033Y049636
T18
X013700Y006615
X013700Y004133
X013700Y001654
X020078Y006615
X020078Y004133
X020078Y001654
X001889Y006615
X001889Y004133
X001889Y001654
X008267Y006615
X008267Y004133
X008267Y001654
X001889Y038307
X001889Y035826
X001889Y033346
X008267Y038307
X008267Y035826
X008267Y033346
X013700Y038307
X013700Y035826
X013700Y033346
X020078Y038307
X020078Y035826
X020078Y033346
T19
X011450Y030570
X011056Y030570
X010663Y030570
X010269Y030570
X009875Y030570
X009777Y031633
X010170Y031633
X010564Y031633
X010958Y031633
X011352Y031633
X025230Y030570
X024836Y030570
X024442Y030570
X024048Y030570
X023655Y030570
X023556Y031633
X023950Y031633
X024344Y031633
X024737Y031633
X025131Y031633
X039009Y030570
X038615Y030570
X038222Y030570
X037828Y030570
X037434Y030570
X037336Y031633
X037730Y031633
X038123Y031633
X038517Y031633
X038911Y031633
X052789Y030570
X052395Y030570
X052001Y030570
X051607Y030570
X051214Y030570
X051115Y031633
X051509Y031633
X051903Y031633
X052296Y031633
X052690Y031633
X066568Y030570
X066174Y030570
X065781Y030570
X065387Y030570
X064993Y030570
X064895Y031633
X065289Y031633
X065682Y031633
X066076Y031633
X066470Y031633
M30

